G04 ---------------------------- Layer name :BOTTOM SOLDER LAYER*
G04 EasyEDA v5.5.12, Thu, 07 Jun 2018 12:22:22 GMT*
G04 1a2565b9f4c04a008b83b97b08c39867*
G04 Gerber Generator version 0.2*
G04 Scale: 100 percent, Rotated: No, Reflected: No *
G04 Dimensions in inches *
G04 leading zeros omitted , absolute positions ,2 integer and 4 decimal *
%FSLAX24Y24*%
%MOIN*%
G90*
G70D02*

%ADD54C,0.059181*%
%ADD55C,0.070000*%
%ADD56R,0.070000X0.070000*%
%ADD57C,0.067055*%

%LPD*%
G54D54*
G01X20312Y14321D02*
G01X20667Y14321D01*
G01X20312Y11471D02*
G01X20667Y11471D01*
G54D55*
G01X8100Y13250D03*
G01X8100Y14250D03*
G01X8100Y15250D03*
G01X8100Y16250D03*
G01X8100Y17250D03*
G54D56*
G01X8100Y18250D03*
G54D55*
G01X13500Y8700D03*
G01X12500Y8700D03*
G54D56*
G01X11500Y8700D03*
G01X8100Y11100D03*
G54D55*
G01X8100Y12100D03*
G54D56*
G01X20600Y15350D03*
G54D55*
G01X20600Y16350D03*
G54D56*
G01X9100Y8700D03*
G54D55*
G01X10100Y8700D03*
G54D56*
G01X15300Y8700D03*
G54D55*
G01X16300Y8700D03*
G54D57*
G01X19427Y11946D03*
G01X19427Y13853D03*
G36*
G01X24061Y3549D02*
G01X24500Y3988D01*
G01X24938Y3549D01*
G01X24500Y3111D01*
G01X24061Y3549D01*
G37*
G54D55*
G01X25206Y4257D03*
G36*
G01X24500Y25038D02*
G01X24938Y24600D01*
G01X24500Y24161D01*
G01X24061Y24600D01*
G01X24500Y25038D01*
G37*
G01X25206Y23892D03*
G36*
G01X3950Y4887D02*
G01X4388Y4449D01*
G01X3950Y4011D01*
G01X3511Y4449D01*
G01X3950Y4887D01*
G37*
G01X4656Y3742D03*
G36*
G01X3311Y23800D02*
G01X3749Y24238D01*
G01X4188Y23800D01*
G01X3749Y23361D01*
G01X3311Y23800D01*
G37*
G01X4456Y24507D03*
M00*
M02*
