G04 ---------------------------- Layer name :TOP SILK LAYER*
G04 EasyEDA v5.5.12, Thu, 07 Jun 2018 12:22:22 GMT*
G04 1a2565b9f4c04a008b83b97b08c39867*
G04 Gerber Generator version 0.2*
G04 Scale: 100 percent, Rotated: No, Reflected: No *
G04 Dimensions in inches *
G04 leading zeros omitted , absolute positions ,2 integer and 4 decimal *
%FSLAX24Y24*%
%MOIN*%
G90*
G70D02*

%ADD10C,0.010000*%
%ADD42C,0.008000*%
%ADD43C,0.007992*%
%ADD44C,0.007874*%
%ADD45C,0.007870*%
%ADD46C,0.007900*%
%ADD47C,0.004724*%
%ADD48C,0.009842*%
%ADD49C,0.023622*%
%ADD50C,0.011811*%
%ADD51C,0.003900*%
%ADD52C,0.007000*%
%ADD53C,0.006000*%

%LPD*%
G54D10*
G01X7400Y20300D02*
G01X7400Y21600D01*
G01X7800Y21200D01*
G01X7700Y21200D01*
G01X7500Y21300D01*
G01X7400Y21500D01*
G01X7400Y21300D01*
G01X7500Y21400D01*
G01X7700Y21200D01*
G01X7000Y21200D01*
G01X7400Y21600D01*
G01X7400Y21500D01*
G01X7100Y21200D01*
G01X7200Y21200D01*
G01X7400Y21400D01*
G01X7500Y21300D01*
G01X7300Y21200D01*
G54D42*
G01X8600Y18000D02*
G01X8600Y18750D01*
G01X7600Y18750D01*
G01X7600Y12750D01*
G01X8600Y12750D01*
G54D43*
G01X8600Y12750D02*
G01X8600Y18000D01*
G54D42*
G01X11750Y9200D02*
G01X11000Y9200D01*
G01X11000Y8200D01*
G01X14000Y8200D01*
G01X14000Y9200D01*
G54D43*
G01X14000Y9200D02*
G01X11750Y9200D01*
G54D42*
G01X7600Y12600D02*
G01X8600Y12600D01*
G01X8600Y10600D01*
G01X7600Y10600D01*
G01X7600Y11350D01*
G54D43*
G01X7600Y12600D02*
G01X7600Y11350D01*
G54D42*
G01X20100Y16850D02*
G01X21100Y16850D01*
G01X21100Y14850D01*
G01X20100Y14850D01*
G01X20100Y15600D01*
G54D43*
G01X20100Y16850D02*
G01X20100Y15600D01*
G54D42*
G01X10600Y9200D02*
G01X10600Y8200D01*
G01X8600Y8200D01*
G01X8600Y9200D01*
G01X9350Y9200D01*
G54D43*
G01X10600Y9200D02*
G01X9350Y9200D01*
G54D42*
G01X16800Y9200D02*
G01X16800Y8200D01*
G01X14800Y8200D01*
G01X14800Y9200D01*
G01X15550Y9200D01*
G54D43*
G01X16800Y9200D02*
G01X15550Y9200D01*
G54D10*
G01X11800Y9450D02*
G01X12410Y9450D01*
G01X12410Y10250D01*
G01X11800Y10250D01*
G01X11489Y9440D02*
G01X10910Y9440D01*
G01X10750Y9600D01*
G01X10750Y10100D01*
G01X10900Y10250D01*
G01X11500Y10250D01*
G54D44*
G01X9003Y18538D02*
G01X9003Y18696D01*
G01X9160Y18696D01*
G01X10539Y18696D02*
G01X10696Y18696D01*
G01X10696Y18538D01*
G01X10539Y17003D02*
G01X10696Y17003D01*
G01X10696Y17161D01*
G01X9160Y17003D02*
G01X9003Y17003D01*
G01X9003Y17161D01*
G01X12423Y12323D02*
G01X12423Y15826D01*
G01X15927Y15826D01*
G01X15927Y12323D01*
G01X12423Y12323D01*
G54D10*
G01X15002Y18824D02*
G01X15002Y18470D01*
G01X12383Y18470D01*
G01X12383Y18824D01*
G01X12383Y19375D02*
G01X12383Y19729D01*
G01X15002Y19729D01*
G01X15002Y19375D01*
G54D45*
G01X12745Y20511D02*
G01X12298Y20511D01*
G01X12298Y19888D01*
G01X12745Y19888D01*
G01X13060Y19888D02*
G01X13507Y19888D01*
G01X13507Y20511D01*
G01X13060Y20511D01*
G01X14454Y19888D02*
G01X14901Y19888D01*
G01X14901Y20511D01*
G01X14454Y20511D01*
G01X14139Y20511D02*
G01X13692Y20511D01*
G01X13692Y19888D01*
G01X14139Y19888D01*
G54D10*
G01X18569Y18050D02*
G01X19130Y18050D01*
G01X18319Y18750D02*
G01X17730Y18750D01*
G01X17730Y18050D01*
G01X18319Y18050D01*
G01X19130Y18050D02*
G01X19130Y18750D01*
G01X19130Y18750D02*
G01X18569Y18750D01*
G54D45*
G01X14389Y10595D02*
G01X14389Y10148D01*
G01X15010Y10148D01*
G01X15010Y10595D01*
G01X15010Y10910D02*
G01X15010Y11357D01*
G01X14389Y11357D01*
G01X14389Y10910D01*
G01X16889Y13695D02*
G01X16889Y13248D01*
G01X17510Y13248D01*
G01X17510Y13695D01*
G01X17510Y14010D02*
G01X17510Y14457D01*
G01X16889Y14457D01*
G01X16889Y14010D01*
G54D10*
G01X19041Y14470D02*
G01X21301Y14470D01*
G01X19037Y14470D02*
G01X19037Y11321D01*
G01X19037Y11321D02*
G01X21297Y11321D01*
G01X21305Y14470D02*
G01X21305Y11321D01*
G01X21025Y14230D02*
G01X21025Y11565D01*
G01X21305Y14462D02*
G01X21257Y14462D01*
G01X21025Y14230D01*
G01X21297Y11332D02*
G01X21257Y11332D01*
G01X21025Y11565D01*
G01X18350Y13440D02*
G01X18350Y14000D01*
G01X17650Y13190D02*
G01X17650Y12600D01*
G01X18350Y12600D01*
G01X18350Y13190D01*
G01X18350Y14000D02*
G01X17650Y14000D01*
G01X17650Y14000D02*
G01X17650Y13440D01*
G01X17857Y11661D02*
G01X18418Y11661D01*
G01X17607Y12361D02*
G01X17018Y12361D01*
G01X17018Y11661D01*
G01X17607Y11661D01*
G01X18418Y11661D02*
G01X18418Y12361D01*
G01X18418Y12361D02*
G01X17857Y12361D01*
G01X12500Y17350D02*
G01X12500Y17959D01*
G01X11700Y17959D01*
G01X11700Y17350D01*
G01X12510Y17040D02*
G01X12510Y16459D01*
G01X12350Y16300D01*
G01X11850Y16300D01*
G01X11700Y16450D01*
G01X11700Y17050D01*
G54D45*
G01X16510Y10904D02*
G01X16510Y11351D01*
G01X15889Y11351D01*
G01X15889Y10904D01*
G01X15889Y10589D02*
G01X15889Y10142D01*
G01X16510Y10142D01*
G01X16510Y10589D01*
G01X15760Y10904D02*
G01X15760Y11351D01*
G01X15139Y11351D01*
G01X15139Y10904D01*
G01X15139Y10589D02*
G01X15139Y10142D01*
G01X15760Y10142D01*
G01X15760Y10589D01*
G54D46*
G01X17797Y18980D02*
G01X17581Y18980D01*
G01X17581Y19044D01*
G01X18702Y18980D02*
G01X18918Y18980D01*
G01X18918Y19044D01*
G01X18702Y20319D02*
G01X18918Y20319D01*
G01X18918Y20255D01*
G01X17581Y20255D02*
G01X17581Y20319D01*
G01X17797Y20319D01*
G54D47*
G01X19807Y8178D02*
G01X19807Y8887D01*
G01X18540Y8887D02*
G01X18540Y7922D01*
G54D10*
G01X15999Y19048D02*
G01X15999Y20229D01*
G01X17180Y20229D01*
G01X17180Y19048D01*
G01X15999Y19048D01*
G54D45*
G01X19695Y20461D02*
G01X19248Y20461D01*
G01X19248Y19838D01*
G01X19695Y19838D01*
G01X20010Y19838D02*
G01X20457Y19838D01*
G01X20457Y20461D01*
G01X20010Y20461D01*
G54D10*
G01X18300Y10300D02*
G01X18300Y10909D01*
G01X17500Y10909D01*
G01X17500Y10300D01*
G01X18310Y9990D02*
G01X18310Y9409D01*
G01X18150Y9250D01*
G01X17650Y9250D01*
G01X17500Y9400D01*
G01X17500Y10000D01*
G54D45*
G01X19289Y18845D02*
G01X19289Y18398D01*
G01X19910Y18398D01*
G01X19910Y18845D01*
G01X19910Y19160D02*
G01X19910Y19607D01*
G01X19289Y19607D01*
G01X19289Y19160D01*
G01X9410Y16254D02*
G01X9410Y16701D01*
G01X8789Y16701D01*
G01X8789Y16254D01*
G01X8789Y15939D02*
G01X8789Y15492D01*
G01X9410Y15492D01*
G01X9410Y15939D01*
G01X11610Y17204D02*
G01X11610Y17651D01*
G01X10989Y17651D01*
G01X10989Y17204D01*
G01X10989Y16889D02*
G01X10989Y16442D01*
G01X11610Y16442D01*
G01X11610Y16889D01*
G01X9989Y15945D02*
G01X9989Y15498D01*
G01X10610Y15498D01*
G01X10610Y15945D01*
G01X10610Y16260D02*
G01X10610Y16707D01*
G01X9989Y16707D01*
G01X9989Y16260D01*
G01X11610Y18804D02*
G01X11610Y19251D01*
G01X10989Y19251D01*
G01X10989Y18804D01*
G01X10989Y18489D02*
G01X10989Y18042D01*
G01X11610Y18042D01*
G01X11610Y18489D01*
G54D10*
G01X8810Y19750D02*
G01X8250Y19750D01*
G01X9060Y19050D02*
G01X9650Y19050D01*
G01X9650Y19750D01*
G01X9060Y19750D01*
G01X8250Y19750D02*
G01X8250Y19050D01*
G01X8250Y19050D02*
G01X8810Y19050D01*
G54D46*
G01X17797Y16230D02*
G01X17581Y16230D01*
G01X17581Y16294D01*
G01X18702Y16230D02*
G01X18918Y16230D01*
G01X18918Y16294D01*
G01X18702Y17569D02*
G01X18918Y17569D01*
G01X18918Y17505D01*
G01X17581Y17505D02*
G01X17581Y17569D01*
G01X17797Y17569D01*
G54D45*
G01X19289Y17495D02*
G01X19289Y17048D01*
G01X19910Y17048D01*
G01X19910Y17495D01*
G01X19910Y17810D02*
G01X19910Y18257D01*
G01X19289Y18257D01*
G01X19289Y17810D01*
G01X19921Y16544D02*
G01X19921Y16991D01*
G01X19298Y16991D01*
G01X19298Y16544D01*
G01X19298Y16229D02*
G01X19298Y15782D01*
G01X19921Y15782D01*
G01X19921Y16229D01*
G54D10*
G01X16019Y16318D02*
G01X16019Y17499D01*
G01X17200Y17499D01*
G01X17200Y16318D01*
G01X16019Y16318D01*
G01X19150Y10240D02*
G01X19150Y10800D01*
G01X18450Y9990D02*
G01X18450Y9400D01*
G01X19150Y9400D01*
G01X19150Y9990D01*
G01X19150Y10800D02*
G01X18450Y10800D01*
G01X18450Y10800D02*
G01X18450Y10240D01*
G54D45*
G01X19695Y9861D02*
G01X19248Y9861D01*
G01X19248Y9238D01*
G01X19695Y9238D01*
G01X20010Y9238D02*
G01X20457Y9238D01*
G01X20457Y9861D01*
G01X20010Y9861D01*
G54D10*
G01X18250Y8640D02*
G01X18250Y9200D01*
G01X17550Y8390D02*
G01X17550Y7800D01*
G01X18250Y7800D01*
G01X18250Y8390D01*
G01X18250Y9200D02*
G01X17550Y9200D01*
G01X17550Y9200D02*
G01X17550Y8640D01*
G54D45*
G01X20395Y8611D02*
G01X19948Y8611D01*
G01X19948Y7988D01*
G01X20395Y7988D01*
G01X20710Y7988D02*
G01X21157Y7988D01*
G01X21157Y8611D01*
G01X20710Y8611D01*
G01X20004Y9938D02*
G01X20451Y9938D01*
G01X20451Y10561D01*
G01X20004Y10561D01*
G01X19689Y10561D02*
G01X19242Y10561D01*
G01X19242Y9938D01*
G01X19689Y9938D01*
G54D10*
G01X23798Y23000D02*
G01X24350Y23551D01*
G01X24901Y23000D01*
G01X24350Y22448D01*
G01X23798Y23000D01*
G01X24299Y5952D02*
G01X24851Y5400D01*
G01X24299Y4848D01*
G01X23748Y5400D01*
G01X24299Y5952D01*
G01X5550Y22898D02*
G01X4998Y23449D01*
G01X5550Y24001D01*
G01X6101Y23449D01*
G01X5550Y22898D01*
G01X6251Y4799D02*
G01X5700Y4248D01*
G01X5148Y4799D01*
G01X5700Y5351D01*
G01X6251Y4799D01*
G01X10139Y11650D02*
G01X10700Y11650D01*
G01X9889Y12350D02*
G01X9300Y12350D01*
G01X9300Y11650D01*
G01X9889Y11650D01*
G01X10700Y11650D02*
G01X10700Y12350D01*
G01X10700Y12350D02*
G01X10139Y12350D01*
G01X9939Y13450D02*
G01X10500Y13450D01*
G01X9689Y14150D02*
G01X9100Y14150D01*
G01X9100Y13450D01*
G01X9689Y13450D01*
G01X10500Y13450D02*
G01X10500Y14150D01*
G01X10500Y14150D02*
G01X9939Y14150D01*
G01X9639Y14550D02*
G01X10200Y14550D01*
G01X9389Y15250D02*
G01X8800Y15250D01*
G01X8800Y14550D01*
G01X9389Y14550D01*
G01X10200Y14550D02*
G01X10200Y15250D01*
G01X10200Y15250D02*
G01X9639Y15250D01*
G01X9939Y12550D02*
G01X10500Y12550D01*
G01X9689Y13250D02*
G01X9100Y13250D01*
G01X9100Y12550D01*
G01X9689Y12550D01*
G01X10500Y12550D02*
G01X10500Y13250D01*
G01X10500Y13250D02*
G01X9939Y13250D01*
G54D42*
G01X25207Y4963D02*
G01X25914Y4257D01*
G01X24500Y2842D01*
G01X23793Y3549D01*
G01X24323Y4080D01*
G54D43*
G01X25207Y4963D02*
G01X24323Y4080D01*
G54D42*
G01X25914Y23893D02*
G01X25207Y23186D01*
G01X23792Y24600D01*
G01X24500Y25307D01*
G01X25030Y24777D01*
G54D43*
G01X25914Y23893D02*
G01X25030Y24777D01*
G54D42*
G01X5364Y3742D02*
G01X4657Y3035D01*
G01X3243Y4449D01*
G01X3950Y5156D01*
G01X4480Y4626D01*
G54D43*
G01X5364Y3742D02*
G01X4480Y4626D01*
G54D42*
G01X4456Y25214D02*
G01X5163Y24507D01*
G01X3749Y23093D01*
G01X3042Y23800D01*
G01X3572Y24330D01*
G54D43*
G01X4456Y25214D02*
G01X3572Y24330D01*
G54D10*
G01X18244Y15715D02*
G01X18244Y15974D01*
G01X18244Y15715D01*
G01X18244Y15974D01*
G01X18564Y15974D01*
G01X18564Y14825D02*
G01X18244Y14825D01*
G01X18244Y15084D01*
G54D44*
G01X18854Y15281D02*
G01X18854Y15518D01*
G54D10*
G01X9169Y10250D02*
G01X9030Y10250D01*
G01X8530Y10100D02*
G01X8530Y9750D01*
G01X8830Y9750D01*
G01X9369Y9750D02*
G01X9669Y9750D01*
G01X9669Y10100D01*
G01X13000Y10100D02*
G01X14000Y10100D01*
G01X12900Y10000D02*
G01X12900Y9400D01*
G01X14100Y10000D02*
G01X14100Y9400D01*
G01X14000Y9300D02*
G01X13000Y9300D01*
G01X9110Y20500D02*
G01X8550Y20500D01*
G01X9360Y19800D02*
G01X9950Y19800D01*
G01X9950Y20500D01*
G01X9360Y20500D01*
G01X8550Y20500D02*
G01X8550Y19800D01*
G01X8550Y19800D02*
G01X9110Y19800D01*
G54D52*
G01X10999Y8099D02*
G01X10999Y7670D01*
G01X10999Y8099D02*
G01X11183Y8099D01*
G01X11244Y8079D01*
G01X11265Y8059D01*
G01X11285Y8018D01*
G01X11285Y7977D01*
G01X11265Y7936D01*
G01X11244Y7915D01*
G01X11183Y7895D01*
G01X10999Y7895D01*
G01X11142Y7895D02*
G01X11285Y7670D01*
G01X11420Y8099D02*
G01X11420Y7670D01*
G01X11420Y8099D02*
G01X11686Y8099D01*
G01X11420Y7895D02*
G01X11584Y7895D01*
G01X11420Y7670D02*
G01X11686Y7670D01*
G01X12128Y7997D02*
G01X12108Y8038D01*
G01X12067Y8079D01*
G01X12026Y8099D01*
G01X11944Y8099D01*
G01X11903Y8079D01*
G01X11862Y8038D01*
G01X11842Y7997D01*
G01X11821Y7936D01*
G01X11821Y7834D01*
G01X11842Y7772D01*
G01X11862Y7731D01*
G01X11903Y7690D01*
G01X11944Y7670D01*
G01X12026Y7670D01*
G01X12067Y7690D01*
G01X12108Y7731D01*
G01X12128Y7772D01*
G01X12263Y8099D02*
G01X12263Y7670D01*
G01X12263Y8099D02*
G01X12529Y8099D01*
G01X12263Y7895D02*
G01X12427Y7895D01*
G01X12263Y7670D02*
G01X12529Y7670D01*
G01X12664Y8099D02*
G01X12664Y7670D01*
G01X12799Y8099D02*
G01X12963Y7670D01*
G01X13126Y8099D02*
G01X12963Y7670D01*
G01X13261Y8099D02*
G01X13261Y7670D01*
G01X13261Y8099D02*
G01X13527Y8099D01*
G01X13261Y7895D02*
G01X13425Y7895D01*
G01X13261Y7670D02*
G01X13527Y7670D01*
G01X13662Y8099D02*
G01X13662Y7670D01*
G01X13662Y8099D02*
G01X13846Y8099D01*
G01X13908Y8079D01*
G01X13928Y8059D01*
G01X13949Y8018D01*
G01X13949Y7977D01*
G01X13928Y7936D01*
G01X13908Y7915D01*
G01X13846Y7895D01*
G01X13662Y7895D01*
G01X13805Y7895D02*
G01X13949Y7670D01*
G01X8700Y10717D02*
G01X9034Y10717D01*
G01X8700Y10717D02*
G01X8700Y10860D01*
G01X8716Y10908D01*
G01X8732Y10924D01*
G01X8764Y10940D01*
G01X8796Y10940D01*
G01X8827Y10924D01*
G01X8843Y10908D01*
G01X8859Y10860D01*
G01X8859Y10717D02*
G01X8859Y10860D01*
G01X8875Y10908D01*
G01X8891Y10924D01*
G01X8923Y10940D01*
G01X8971Y10940D01*
G01X9002Y10924D01*
G01X9018Y10908D01*
G01X9034Y10860D01*
G01X9034Y10717D01*
G01X8700Y11045D02*
G01X9034Y11045D01*
G01X8700Y11150D02*
G01X9034Y11150D01*
G01X8700Y11150D02*
G01X9034Y11372D01*
G01X8700Y11372D02*
G01X9034Y11372D01*
G01X8700Y11477D02*
G01X9034Y11477D01*
G01X8700Y11477D02*
G01X8700Y11589D01*
G01X8716Y11637D01*
G01X8748Y11668D01*
G01X8780Y11684D01*
G01X8827Y11700D01*
G01X8907Y11700D01*
G01X8955Y11684D01*
G01X8986Y11668D01*
G01X9018Y11637D01*
G01X9034Y11589D01*
G01X9034Y11477D01*
G01X20545Y17349D02*
G01X20341Y17349D01*
G01X20320Y17165D01*
G01X20341Y17186D01*
G01X20402Y17206D01*
G01X20464Y17206D01*
G01X20525Y17186D01*
G01X20566Y17145D01*
G01X20586Y17084D01*
G01X20586Y17043D01*
G01X20566Y16981D01*
G01X20525Y16940D01*
G01X20464Y16920D01*
G01X20402Y16920D01*
G01X20341Y16940D01*
G01X20320Y16961D01*
G01X20300Y17002D01*
G01X20721Y17349D02*
G01X20885Y16920D01*
G01X21049Y17349D02*
G01X20885Y16920D01*
G01X8844Y8094D02*
G01X8844Y7665D01*
G01X8844Y8094D02*
G01X9028Y8094D01*
G01X9089Y8075D01*
G01X9110Y8055D01*
G01X9130Y8013D01*
G01X9130Y7973D01*
G01X9110Y7932D01*
G01X9089Y7911D01*
G01X9028Y7890D01*
G01X8844Y7890D02*
G01X9028Y7890D01*
G01X9089Y7869D01*
G01X9110Y7850D01*
G01X9130Y7809D01*
G01X9130Y7748D01*
G01X9110Y7707D01*
G01X9089Y7686D01*
G01X9028Y7665D01*
G01X8844Y7665D01*
G01X9265Y8094D02*
G01X9265Y7788D01*
G01X9286Y7726D01*
G01X9327Y7686D01*
G01X9388Y7665D01*
G01X9429Y7665D01*
G01X9490Y7686D01*
G01X9531Y7726D01*
G01X9552Y7788D01*
G01X9552Y8094D01*
G01X9973Y8094D02*
G01X9687Y7665D01*
G01X9687Y8094D02*
G01X9973Y8094D01*
G01X9687Y7665D02*
G01X9973Y7665D01*
G01X10394Y8094D02*
G01X10108Y7665D01*
G01X10108Y8094D02*
G01X10394Y8094D01*
G01X10108Y7665D02*
G01X10394Y7665D01*
G01X14444Y8068D02*
G01X14444Y7639D01*
G01X14444Y8068D02*
G01X14628Y8068D01*
G01X14689Y8048D01*
G01X14710Y8028D01*
G01X14731Y7987D01*
G01X14731Y7946D01*
G01X14710Y7905D01*
G01X14689Y7884D01*
G01X14628Y7864D01*
G01X14444Y7864D02*
G01X14628Y7864D01*
G01X14689Y7843D01*
G01X14710Y7823D01*
G01X14731Y7782D01*
G01X14731Y7721D01*
G01X14710Y7680D01*
G01X14689Y7659D01*
G01X14628Y7639D01*
G01X14444Y7639D01*
G01X15030Y8068D02*
G01X14865Y7639D01*
G01X15030Y8068D02*
G01X15193Y7639D01*
G01X14927Y7782D02*
G01X15131Y7782D01*
G01X15472Y8068D02*
G01X15472Y7639D01*
G01X15328Y8068D02*
G01X15614Y8068D01*
G01X15893Y8068D02*
G01X15893Y7639D01*
G01X15750Y8068D02*
G01X16035Y8068D01*
G01X16171Y8068D02*
G01X16171Y7639D01*
G01X16171Y8068D02*
G01X16436Y8068D01*
G01X16171Y7864D02*
G01X16335Y7864D01*
G01X16171Y7639D02*
G01X16436Y7639D01*
G01X16572Y8068D02*
G01X16572Y7639D01*
G01X16572Y8068D02*
G01X16756Y8068D01*
G01X16818Y8048D01*
G01X16838Y8028D01*
G01X16859Y7987D01*
G01X16859Y7946D01*
G01X16838Y7905D01*
G01X16818Y7884D01*
G01X16756Y7864D01*
G01X16572Y7864D01*
G01X16714Y7864D02*
G01X16859Y7639D01*
G01X16993Y8068D02*
G01X17156Y7864D01*
G01X17156Y7639D01*
G01X17321Y8068D02*
G01X17156Y7864D01*
G01X10949Y10749D02*
G01X10949Y10320D01*
G01X10949Y10320D02*
G01X11194Y10320D01*
G01X11329Y10749D02*
G01X11329Y10320D01*
G01X11329Y10749D02*
G01X11595Y10749D01*
G01X11329Y10545D02*
G01X11493Y10545D01*
G01X11329Y10320D02*
G01X11595Y10320D01*
G01X11730Y10749D02*
G01X11730Y10320D01*
G01X11730Y10749D02*
G01X11874Y10749D01*
G01X11935Y10729D01*
G01X11976Y10688D01*
G01X11996Y10647D01*
G01X12017Y10586D01*
G01X12017Y10484D01*
G01X11996Y10422D01*
G01X11976Y10381D01*
G01X11935Y10340D01*
G01X11874Y10320D01*
G01X11730Y10320D01*
G01X12397Y10749D02*
G01X12193Y10749D01*
G01X12172Y10565D01*
G01X12193Y10586D01*
G01X12254Y10606D01*
G01X12315Y10606D01*
G01X12377Y10586D01*
G01X12418Y10545D01*
G01X12438Y10484D01*
G01X12438Y10443D01*
G01X12418Y10381D01*
G01X12377Y10340D01*
G01X12315Y10320D01*
G01X12254Y10320D01*
G01X12193Y10340D01*
G01X12172Y10361D01*
G01X12152Y10402D01*
G01X10299Y19250D02*
G01X10299Y19011D01*
G01X10315Y18963D01*
G01X10347Y18932D01*
G01X10394Y18915D01*
G01X10426Y18915D01*
G01X10474Y18932D01*
G01X10506Y18963D01*
G01X10522Y19011D01*
G01X10522Y19250D01*
G01X10786Y19250D02*
G01X10627Y19027D01*
G01X10865Y19027D01*
G01X10786Y19250D02*
G01X10786Y18915D01*
G01X16573Y11620D02*
G01X16573Y11927D01*
G01X16553Y11988D01*
G01X16513Y12029D01*
G01X16451Y12050D01*
G01X16410Y12050D01*
G01X16348Y12029D01*
G01X16307Y11988D01*
G01X16288Y11927D01*
G01X16288Y11620D01*
G01X16152Y11702D02*
G01X16111Y11682D01*
G01X16050Y11620D01*
G01X16050Y12050D01*
G01X13500Y18776D02*
G01X13929Y19061D01*
G01X13500Y19061D02*
G01X13929Y18776D01*
G01X13581Y19196D02*
G01X13561Y19238D01*
G01X13500Y19300D01*
G01X13929Y19300D01*
G01X11907Y20297D02*
G01X11886Y20338D01*
G01X11845Y20379D01*
G01X11805Y20399D01*
G01X11723Y20399D01*
G01X11682Y20379D01*
G01X11641Y20338D01*
G01X11620Y20297D01*
G01X11600Y20236D01*
G01X11600Y20134D01*
G01X11620Y20072D01*
G01X11641Y20031D01*
G01X11682Y19990D01*
G01X11723Y19970D01*
G01X11805Y19970D01*
G01X11845Y19990D01*
G01X11886Y20031D01*
G01X11907Y20072D01*
G01X12042Y20318D02*
G01X12083Y20338D01*
G01X12144Y20399D01*
G01X12144Y19970D01*
G01X15306Y20297D02*
G01X15285Y20338D01*
G01X15244Y20379D01*
G01X15204Y20399D01*
G01X15122Y20399D01*
G01X15081Y20379D01*
G01X15040Y20338D01*
G01X15019Y20297D01*
G01X14999Y20236D01*
G01X14999Y20134D01*
G01X15019Y20072D01*
G01X15040Y20031D01*
G01X15081Y19990D01*
G01X15122Y19970D01*
G01X15204Y19970D01*
G01X15244Y19990D01*
G01X15285Y20031D01*
G01X15306Y20072D01*
G01X15461Y20297D02*
G01X15461Y20318D01*
G01X15482Y20359D01*
G01X15502Y20379D01*
G01X15543Y20399D01*
G01X15625Y20399D01*
G01X15666Y20379D01*
G01X15686Y20359D01*
G01X15707Y20318D01*
G01X15707Y20277D01*
G01X15686Y20236D01*
G01X15645Y20174D01*
G01X15441Y19970D01*
G01X15727Y19970D01*
G01X16750Y18150D02*
G01X16750Y17721D01*
G01X16750Y18150D02*
G01X16934Y18150D01*
G01X16995Y18130D01*
G01X17016Y18109D01*
G01X17036Y18069D01*
G01X17036Y18028D01*
G01X17016Y17986D01*
G01X16995Y17965D01*
G01X16934Y17946D01*
G01X16750Y17946D01*
G01X16893Y17946D02*
G01X17036Y17721D01*
G01X17171Y18069D02*
G01X17212Y18088D01*
G01X17274Y18150D01*
G01X17274Y17721D01*
G01X14552Y9628D02*
G01X14510Y9607D01*
G01X14469Y9567D01*
G01X14450Y9526D01*
G01X14450Y9444D01*
G01X14469Y9403D01*
G01X14510Y9363D01*
G01X14552Y9342D01*
G01X14613Y9321D01*
G01X14714Y9321D01*
G01X14777Y9342D01*
G01X14818Y9363D01*
G01X14859Y9403D01*
G01X14878Y9444D01*
G01X14878Y9526D01*
G01X14859Y9567D01*
G01X14818Y9607D01*
G01X14777Y9628D01*
G01X14450Y9805D02*
G01X14450Y10030D01*
G01X14613Y9907D01*
G01X14613Y9967D01*
G01X14634Y10009D01*
G01X14653Y10030D01*
G01X14714Y10050D01*
G01X14756Y10050D01*
G01X14818Y10030D01*
G01X14859Y9988D01*
G01X14878Y9926D01*
G01X14878Y9865D01*
G01X14859Y9805D01*
G01X14838Y9784D01*
G01X14797Y9763D01*
G01X17051Y12807D02*
G01X17010Y12786D01*
G01X16969Y12746D01*
G01X16949Y12705D01*
G01X16949Y12623D01*
G01X16969Y12582D01*
G01X17010Y12542D01*
G01X17051Y12521D01*
G01X17112Y12501D01*
G01X17214Y12501D01*
G01X17276Y12521D01*
G01X17317Y12542D01*
G01X17358Y12582D01*
G01X17378Y12623D01*
G01X17378Y12705D01*
G01X17358Y12746D01*
G01X17317Y12786D01*
G01X17276Y12807D01*
G01X16949Y13146D02*
G01X17235Y12942D01*
G01X17235Y13250D01*
G01X16949Y13146D02*
G01X17378Y13146D01*
G01X19900Y11100D02*
G01X19900Y10793D01*
G01X19920Y10732D01*
G01X19961Y10691D01*
G01X20022Y10671D01*
G01X20063Y10671D01*
G01X20125Y10691D01*
G01X20166Y10732D01*
G01X20186Y10793D01*
G01X20186Y11100D01*
G01X20607Y11039D02*
G01X20567Y11080D01*
G01X20505Y11100D01*
G01X20423Y11100D01*
G01X20362Y11080D01*
G01X20321Y11039D01*
G01X20321Y10998D01*
G01X20342Y10957D01*
G01X20362Y10937D01*
G01X20403Y10916D01*
G01X20526Y10875D01*
G01X20567Y10855D01*
G01X20587Y10834D01*
G01X20607Y10793D01*
G01X20607Y10732D01*
G01X20567Y10691D01*
G01X20505Y10671D01*
G01X20423Y10671D01*
G01X20362Y10691D01*
G01X20321Y10732D01*
G01X20742Y11100D02*
G01X20742Y10671D01*
G01X20742Y11100D02*
G01X20927Y11100D01*
G01X20988Y11080D01*
G01X21008Y11059D01*
G01X21029Y11018D01*
G01X21029Y10978D01*
G01X21008Y10937D01*
G01X20988Y10916D01*
G01X20927Y10896D01*
G01X20742Y10896D02*
G01X20927Y10896D01*
G01X20988Y10875D01*
G01X21008Y10855D01*
G01X21029Y10814D01*
G01X21029Y10753D01*
G01X21008Y10712D01*
G01X20988Y10691D01*
G01X20927Y10671D01*
G01X20742Y10671D01*
G01X21164Y11018D02*
G01X21205Y11039D01*
G01X21266Y11100D01*
G01X21266Y10671D01*
G01X18410Y13600D02*
G01X18839Y13600D01*
G01X18410Y13600D02*
G01X18410Y13784D01*
G01X18430Y13844D01*
G01X18450Y13865D01*
G01X18490Y13886D01*
G01X18531Y13886D01*
G01X18572Y13865D01*
G01X18593Y13844D01*
G01X18614Y13784D01*
G01X18614Y13600D01*
G01X18614Y13742D02*
G01X18839Y13886D01*
G01X18511Y14042D02*
G01X18490Y14042D01*
G01X18450Y14061D01*
G01X18430Y14082D01*
G01X18410Y14123D01*
G01X18410Y14205D01*
G01X18430Y14246D01*
G01X18450Y14267D01*
G01X18490Y14286D01*
G01X18531Y14286D01*
G01X18572Y14267D01*
G01X18635Y14226D01*
G01X18839Y14021D01*
G01X18839Y14307D01*
G01X17518Y11511D02*
G01X17518Y11082D01*
G01X17518Y11511D02*
G01X17702Y11511D01*
G01X17763Y11492D01*
G01X17784Y11471D01*
G01X17803Y11430D01*
G01X17803Y11390D01*
G01X17784Y11348D01*
G01X17763Y11328D01*
G01X17702Y11307D01*
G01X17518Y11307D01*
G01X17660Y11307D02*
G01X17803Y11082D01*
G01X17980Y11511D02*
G01X18205Y11511D01*
G01X18082Y11348D01*
G01X18143Y11348D01*
G01X18185Y11328D01*
G01X18205Y11307D01*
G01X18226Y11246D01*
G01X18226Y11205D01*
G01X18205Y11144D01*
G01X18164Y11103D01*
G01X18102Y11082D01*
G01X18042Y11082D01*
G01X17980Y11103D01*
G01X17960Y11123D01*
G01X17939Y11165D01*
G01X12600Y16594D02*
G01X13028Y16594D01*
G01X13028Y16594D02*
G01X13028Y16840D01*
G01X12600Y16975D02*
G01X13028Y16975D01*
G01X12600Y16975D02*
G01X12600Y17240D01*
G01X12803Y16975D02*
G01X12803Y17138D01*
G01X13028Y16975D02*
G01X13028Y17240D01*
G01X12600Y17376D02*
G01X13028Y17376D01*
G01X12600Y17376D02*
G01X12600Y17519D01*
G01X12619Y17580D01*
G01X12660Y17621D01*
G01X12702Y17642D01*
G01X12763Y17663D01*
G01X12864Y17663D01*
G01X12927Y17642D01*
G01X12968Y17621D01*
G01X13009Y17580D01*
G01X13028Y17519D01*
G01X13028Y17376D01*
G01X12681Y17798D02*
G01X12660Y17838D01*
G01X12600Y17900D01*
G01X13028Y17900D01*
G01X16652Y11078D02*
G01X16611Y11057D01*
G01X16570Y11017D01*
G01X16550Y10976D01*
G01X16550Y10894D01*
G01X16570Y10853D01*
G01X16611Y10813D01*
G01X16652Y10792D01*
G01X16713Y10771D01*
G01X16815Y10771D01*
G01X16877Y10792D01*
G01X16918Y10813D01*
G01X16959Y10853D01*
G01X16979Y10894D01*
G01X16979Y10976D01*
G01X16959Y11017D01*
G01X16918Y11057D01*
G01X16877Y11078D01*
G01X16550Y11459D02*
G01X16550Y11255D01*
G01X16734Y11234D01*
G01X16713Y11255D01*
G01X16693Y11315D01*
G01X16693Y11376D01*
G01X16713Y11438D01*
G01X16754Y11480D01*
G01X16815Y11500D01*
G01X16856Y11500D01*
G01X16918Y11480D01*
G01X16959Y11438D01*
G01X16979Y11376D01*
G01X16979Y11315D01*
G01X16959Y11255D01*
G01X16938Y11234D01*
G01X16897Y11213D01*
G01X15352Y9748D02*
G01X15311Y9728D01*
G01X15270Y9686D01*
G01X15250Y9646D01*
G01X15250Y9565D01*
G01X15270Y9523D01*
G01X15311Y9482D01*
G01X15352Y9461D01*
G01X15413Y9442D01*
G01X15515Y9442D01*
G01X15577Y9461D01*
G01X15618Y9482D01*
G01X15659Y9523D01*
G01X15679Y9565D01*
G01X15679Y9646D01*
G01X15659Y9686D01*
G01X15618Y9728D01*
G01X15577Y9748D01*
G01X15311Y10128D02*
G01X15270Y10109D01*
G01X15250Y10046D01*
G01X15250Y10007D01*
G01X15270Y9944D01*
G01X15331Y9903D01*
G01X15434Y9884D01*
G01X15536Y9884D01*
G01X15618Y9903D01*
G01X15659Y9944D01*
G01X15679Y10007D01*
G01X15679Y10026D01*
G01X15659Y10088D01*
G01X15618Y10128D01*
G01X15556Y10150D01*
G01X15536Y10150D01*
G01X15475Y10128D01*
G01X15434Y10088D01*
G01X15413Y10026D01*
G01X15413Y10007D01*
G01X15434Y9944D01*
G01X15475Y9903D01*
G01X15536Y9884D01*
G01X17922Y20663D02*
G01X17922Y20357D01*
G01X17943Y20296D01*
G01X17984Y20255D01*
G01X18044Y20234D01*
G01X18085Y20234D01*
G01X18147Y20255D01*
G01X18189Y20296D01*
G01X18209Y20357D01*
G01X18209Y20663D01*
G01X18364Y20561D02*
G01X18364Y20582D01*
G01X18385Y20623D01*
G01X18405Y20644D01*
G01X18446Y20663D01*
G01X18527Y20663D01*
G01X18568Y20644D01*
G01X18589Y20623D01*
G01X18610Y20582D01*
G01X18610Y20542D01*
G01X18589Y20501D01*
G01X18548Y20438D01*
G01X18343Y20234D01*
G01X18630Y20234D01*
G01X19349Y7800D02*
G01X19349Y7493D01*
G01X19370Y7432D01*
G01X19410Y7391D01*
G01X19472Y7371D01*
G01X19513Y7371D01*
G01X19574Y7391D01*
G01X19615Y7432D01*
G01X19635Y7493D01*
G01X19635Y7800D01*
G01X19811Y7800D02*
G01X20036Y7800D01*
G01X19914Y7636D01*
G01X19975Y7636D01*
G01X20016Y7616D01*
G01X20036Y7596D01*
G01X20057Y7534D01*
G01X20057Y7493D01*
G01X20036Y7432D01*
G01X19995Y7391D01*
G01X19934Y7371D01*
G01X19873Y7371D01*
G01X19811Y7391D01*
G01X19791Y7411D01*
G01X19770Y7452D01*
G01X15300Y19499D02*
G01X15300Y19069D01*
G01X15300Y19069D02*
G01X15546Y19069D01*
G01X15701Y19397D02*
G01X15701Y19417D01*
G01X15721Y19458D01*
G01X15742Y19478D01*
G01X15782Y19499D01*
G01X15864Y19499D01*
G01X15906Y19478D01*
G01X15926Y19458D01*
G01X15946Y19417D01*
G01X15946Y19376D01*
G01X15926Y19335D01*
G01X15885Y19274D01*
G01X15681Y19069D01*
G01X15967Y19069D01*
G01X20856Y20248D02*
G01X20835Y20288D01*
G01X20794Y20330D01*
G01X20754Y20350D01*
G01X20672Y20350D01*
G01X20631Y20330D01*
G01X20590Y20288D01*
G01X20569Y20248D01*
G01X20549Y20186D01*
G01X20549Y20084D01*
G01X20569Y20023D01*
G01X20590Y19982D01*
G01X20631Y19940D01*
G01X20672Y19921D01*
G01X20754Y19921D01*
G01X20794Y19940D01*
G01X20835Y19982D01*
G01X20856Y20023D01*
G01X21277Y20350D02*
G01X21073Y19921D01*
G01X20991Y20350D02*
G01X21277Y20350D01*
G01X17000Y9311D02*
G01X17429Y9311D01*
G01X17429Y9311D02*
G01X17429Y9555D01*
G01X17000Y9690D02*
G01X17429Y9690D01*
G01X17000Y9690D02*
G01X17000Y9957D01*
G01X17204Y9690D02*
G01X17204Y9855D01*
G01X17429Y9690D02*
G01X17429Y9957D01*
G01X17000Y10092D02*
G01X17429Y10092D01*
G01X17000Y10092D02*
G01X17000Y10236D01*
G01X17020Y10296D01*
G01X17061Y10338D01*
G01X17102Y10357D01*
G01X17163Y10378D01*
G01X17265Y10378D01*
G01X17327Y10357D01*
G01X17368Y10338D01*
G01X17409Y10296D01*
G01X17429Y10236D01*
G01X17429Y10092D01*
G01X17102Y10534D02*
G01X17081Y10534D01*
G01X17040Y10555D01*
G01X17020Y10575D01*
G01X17000Y10615D01*
G01X17000Y10698D01*
G01X17020Y10738D01*
G01X17040Y10759D01*
G01X17081Y10780D01*
G01X17122Y10780D01*
G01X17163Y10759D01*
G01X17225Y10717D01*
G01X17429Y10513D01*
G01X17429Y10800D01*
G01X20101Y18778D02*
G01X20060Y18757D01*
G01X20019Y18716D01*
G01X19999Y18676D01*
G01X19999Y18594D01*
G01X20019Y18553D01*
G01X20060Y18512D01*
G01X20101Y18491D01*
G01X20162Y18471D01*
G01X20264Y18471D01*
G01X20326Y18491D01*
G01X20367Y18512D01*
G01X20408Y18553D01*
G01X20428Y18594D01*
G01X20428Y18676D01*
G01X20408Y18716D01*
G01X20367Y18757D01*
G01X20326Y18778D01*
G01X19999Y19015D02*
G01X20019Y18954D01*
G01X20060Y18933D01*
G01X20101Y18933D01*
G01X20142Y18954D01*
G01X20162Y18995D01*
G01X20183Y19076D01*
G01X20203Y19138D01*
G01X20244Y19179D01*
G01X20285Y19199D01*
G01X20346Y19199D01*
G01X20387Y19179D01*
G01X20408Y19158D01*
G01X20428Y19097D01*
G01X20428Y19015D01*
G01X20408Y18954D01*
G01X20387Y18933D01*
G01X20346Y18913D01*
G01X20285Y18913D01*
G01X20244Y18933D01*
G01X20203Y18974D01*
G01X20183Y19036D01*
G01X20162Y19117D01*
G01X20142Y19158D01*
G01X20101Y19179D01*
G01X20060Y19179D01*
G01X20019Y19158D01*
G01X19999Y19097D01*
G01X19999Y19015D01*
G01X9552Y15849D02*
G01X9511Y15828D01*
G01X9470Y15787D01*
G01X9450Y15747D01*
G01X9450Y15665D01*
G01X9470Y15624D01*
G01X9511Y15583D01*
G01X9552Y15562D01*
G01X9613Y15542D01*
G01X9715Y15542D01*
G01X9777Y15562D01*
G01X9818Y15583D01*
G01X9859Y15624D01*
G01X9879Y15665D01*
G01X9879Y15747D01*
G01X9859Y15787D01*
G01X9818Y15828D01*
G01X9777Y15849D01*
G01X9593Y16250D02*
G01X9654Y16229D01*
G01X9695Y16188D01*
G01X9715Y16127D01*
G01X9715Y16107D01*
G01X9695Y16045D01*
G01X9654Y16004D01*
G01X9593Y15984D01*
G01X9572Y15984D01*
G01X9511Y16004D01*
G01X9470Y16045D01*
G01X9450Y16107D01*
G01X9450Y16127D01*
G01X9470Y16188D01*
G01X9511Y16229D01*
G01X9593Y16250D01*
G01X9695Y16250D01*
G01X9797Y16229D01*
G01X9859Y16188D01*
G01X9879Y16127D01*
G01X9879Y16086D01*
G01X9859Y16025D01*
G01X9818Y16004D01*
G01X11251Y15742D02*
G01X11210Y15721D01*
G01X11169Y15680D01*
G01X11149Y15640D01*
G01X11149Y15557D01*
G01X11169Y15517D01*
G01X11210Y15476D01*
G01X11251Y15455D01*
G01X11312Y15434D01*
G01X11414Y15434D01*
G01X11476Y15455D01*
G01X11517Y15476D01*
G01X11558Y15517D01*
G01X11578Y15557D01*
G01X11578Y15640D01*
G01X11558Y15680D01*
G01X11517Y15721D01*
G01X11476Y15742D01*
G01X11230Y15876D02*
G01X11210Y15917D01*
G01X11149Y15978D01*
G01X11578Y15978D01*
G01X11149Y16236D02*
G01X11169Y16175D01*
G01X11230Y16134D01*
G01X11333Y16113D01*
G01X11394Y16113D01*
G01X11496Y16134D01*
G01X11558Y16175D01*
G01X11578Y16236D01*
G01X11578Y16278D01*
G01X11558Y16338D01*
G01X11496Y16380D01*
G01X11394Y16400D01*
G01X11333Y16400D01*
G01X11230Y16380D01*
G01X11169Y16338D01*
G01X11149Y16278D01*
G01X11149Y16236D01*
G01X10752Y15826D02*
G01X10711Y15805D01*
G01X10670Y15763D01*
G01X10650Y15723D01*
G01X10650Y15642D01*
G01X10670Y15601D01*
G01X10711Y15559D01*
G01X10752Y15538D01*
G01X10813Y15519D01*
G01X10915Y15519D01*
G01X10977Y15538D01*
G01X11018Y15559D01*
G01X11059Y15601D01*
G01X11079Y15642D01*
G01X11079Y15723D01*
G01X11059Y15763D01*
G01X11018Y15805D01*
G01X10977Y15826D01*
G01X10731Y15961D02*
G01X10711Y16001D01*
G01X10650Y16063D01*
G01X11079Y16063D01*
G01X10731Y16198D02*
G01X10711Y16238D01*
G01X10650Y16300D01*
G01X11079Y16300D01*
G01X11802Y18442D02*
G01X11760Y18421D01*
G01X11719Y18380D01*
G01X11700Y18340D01*
G01X11700Y18258D01*
G01X11719Y18217D01*
G01X11760Y18176D01*
G01X11802Y18155D01*
G01X11863Y18135D01*
G01X11964Y18135D01*
G01X12027Y18155D01*
G01X12068Y18176D01*
G01X12109Y18217D01*
G01X12128Y18258D01*
G01X12128Y18340D01*
G01X12109Y18380D01*
G01X12068Y18421D01*
G01X12027Y18442D01*
G01X11781Y18577D02*
G01X11760Y18618D01*
G01X11700Y18679D01*
G01X12128Y18679D01*
G01X11802Y18835D02*
G01X11781Y18835D01*
G01X11739Y18855D01*
G01X11719Y18875D01*
G01X11700Y18916D01*
G01X11700Y18998D01*
G01X11719Y19039D01*
G01X11739Y19060D01*
G01X11781Y19080D01*
G01X11822Y19080D01*
G01X11863Y19060D01*
G01X11925Y19019D01*
G01X12128Y18814D01*
G01X12128Y19100D01*
G01X9750Y19646D02*
G01X9750Y19311D01*
G01X9750Y19646D02*
G01X9893Y19646D01*
G01X9940Y19630D01*
G01X9956Y19613D01*
G01X9972Y19582D01*
G01X9972Y19550D01*
G01X9956Y19519D01*
G01X9940Y19503D01*
G01X9893Y19486D01*
G01X9750Y19486D01*
G01X9860Y19486D02*
G01X9972Y19311D01*
G01X10268Y19646D02*
G01X10110Y19646D01*
G01X10093Y19503D01*
G01X10110Y19519D01*
G01X10156Y19534D01*
G01X10205Y19534D01*
G01X10252Y19519D01*
G01X10285Y19486D01*
G01X10300Y19438D01*
G01X10300Y19407D01*
G01X10285Y19359D01*
G01X10252Y19328D01*
G01X10205Y19311D01*
G01X10156Y19311D01*
G01X10110Y19328D01*
G01X10093Y19344D01*
G01X10077Y19375D01*
G01X17900Y17850D02*
G01X17900Y17544D01*
G01X17919Y17482D01*
G01X17960Y17441D01*
G01X18022Y17421D01*
G01X18063Y17421D01*
G01X18125Y17441D01*
G01X18165Y17482D01*
G01X18185Y17544D01*
G01X18185Y17850D01*
G01X18567Y17850D02*
G01X18361Y17850D01*
G01X18342Y17666D01*
G01X18361Y17687D01*
G01X18422Y17707D01*
G01X18485Y17707D01*
G01X18546Y17687D01*
G01X18586Y17646D01*
G01X18606Y17585D01*
G01X18606Y17544D01*
G01X18586Y17482D01*
G01X18546Y17441D01*
G01X18485Y17421D01*
G01X18422Y17421D01*
G01X18361Y17441D01*
G01X18342Y17462D01*
G01X18321Y17503D01*
G01X20101Y17492D02*
G01X20060Y17471D01*
G01X20019Y17430D01*
G01X19999Y17390D01*
G01X19999Y17308D01*
G01X20019Y17267D01*
G01X20060Y17226D01*
G01X20101Y17205D01*
G01X20162Y17185D01*
G01X20264Y17185D01*
G01X20326Y17205D01*
G01X20367Y17226D01*
G01X20408Y17267D01*
G01X20428Y17308D01*
G01X20428Y17390D01*
G01X20408Y17430D01*
G01X20367Y17471D01*
G01X20326Y17492D01*
G01X20080Y17627D02*
G01X20060Y17668D01*
G01X19999Y17729D01*
G01X20428Y17729D01*
G01X19999Y17905D02*
G01X19999Y18130D01*
G01X20162Y18007D01*
G01X20162Y18069D01*
G01X20183Y18110D01*
G01X20203Y18130D01*
G01X20264Y18150D01*
G01X20305Y18150D01*
G01X20367Y18130D01*
G01X20408Y18089D01*
G01X20428Y18028D01*
G01X20428Y17966D01*
G01X20408Y17905D01*
G01X20387Y17885D01*
G01X20346Y17864D01*
G01X19501Y15121D02*
G01X19460Y15100D01*
G01X19419Y15059D01*
G01X19399Y15019D01*
G01X19399Y14936D01*
G01X19419Y14896D01*
G01X19460Y14855D01*
G01X19501Y14834D01*
G01X19562Y14813D01*
G01X19664Y14813D01*
G01X19726Y14834D01*
G01X19767Y14855D01*
G01X19808Y14896D01*
G01X19828Y14936D01*
G01X19828Y15019D01*
G01X19808Y15059D01*
G01X19767Y15100D01*
G01X19726Y15121D01*
G01X19480Y15255D02*
G01X19460Y15296D01*
G01X19399Y15357D01*
G01X19828Y15357D01*
G01X19399Y15698D02*
G01X19685Y15492D01*
G01X19685Y15800D01*
G01X19399Y15698D02*
G01X19828Y15698D01*
G01X16356Y18173D02*
G01X16356Y17743D01*
G01X16356Y17743D02*
G01X16602Y17743D01*
G01X16736Y18091D02*
G01X16777Y18112D01*
G01X16839Y18173D01*
G01X16839Y17743D01*
G01X18500Y10862D02*
G01X18928Y10862D01*
G01X18500Y10862D02*
G01X18500Y11046D01*
G01X18519Y11107D01*
G01X18539Y11128D01*
G01X18581Y11148D01*
G01X18622Y11148D01*
G01X18663Y11128D01*
G01X18684Y11107D01*
G01X18703Y11046D01*
G01X18703Y10862D01*
G01X18703Y11005D02*
G01X18928Y11148D01*
G01X18560Y11529D02*
G01X18519Y11508D01*
G01X18500Y11447D01*
G01X18500Y11406D01*
G01X18519Y11345D01*
G01X18581Y11304D01*
G01X18684Y11283D01*
G01X18785Y11283D01*
G01X18868Y11304D01*
G01X18909Y11345D01*
G01X18928Y11406D01*
G01X18928Y11427D01*
G01X18909Y11488D01*
G01X18868Y11529D01*
G01X18806Y11549D01*
G01X18785Y11549D01*
G01X18725Y11529D01*
G01X18684Y11488D01*
G01X18663Y11427D01*
G01X18663Y11406D01*
G01X18684Y11345D01*
G01X18725Y11304D01*
G01X18785Y11283D01*
G01X20689Y9542D02*
G01X20672Y9575D01*
G01X20640Y9607D01*
G01X20609Y9623D01*
G01X20544Y9623D01*
G01X20514Y9607D01*
G01X20481Y9575D01*
G01X20465Y9542D01*
G01X20450Y9496D01*
G01X20450Y9415D01*
G01X20465Y9367D01*
G01X20481Y9336D01*
G01X20514Y9305D01*
G01X20544Y9288D01*
G01X20609Y9288D01*
G01X20640Y9305D01*
G01X20672Y9336D01*
G01X20689Y9367D01*
G01X20793Y9559D02*
G01X20825Y9575D01*
G01X20872Y9623D01*
G01X20872Y9288D01*
G01X21168Y9623D02*
G01X21010Y9623D01*
G01X20993Y9480D01*
G01X21010Y9496D01*
G01X21057Y9511D01*
G01X21105Y9511D01*
G01X21152Y9496D01*
G01X21185Y9463D01*
G01X21201Y9415D01*
G01X21201Y9384D01*
G01X21185Y9336D01*
G01X21152Y9305D01*
G01X21105Y9288D01*
G01X21057Y9288D01*
G01X21010Y9305D01*
G01X20993Y9321D01*
G01X20977Y9351D01*
G01X17000Y8442D02*
G01X17428Y8442D01*
G01X17000Y8442D02*
G01X17000Y8626D01*
G01X17019Y8686D01*
G01X17039Y8707D01*
G01X17081Y8728D01*
G01X17122Y8728D01*
G01X17163Y8707D01*
G01X17184Y8686D01*
G01X17203Y8626D01*
G01X17203Y8442D01*
G01X17203Y8584D02*
G01X17428Y8728D01*
G01X17000Y9150D02*
G01X17428Y8944D01*
G01X17000Y8863D02*
G01X17000Y9150D01*
G01X20457Y8997D02*
G01X20436Y9038D01*
G01X20395Y9079D01*
G01X20355Y9099D01*
G01X20273Y9099D01*
G01X20232Y9079D01*
G01X20191Y9038D01*
G01X20170Y8997D01*
G01X20150Y8936D01*
G01X20150Y8834D01*
G01X20170Y8772D01*
G01X20191Y8731D01*
G01X20232Y8690D01*
G01X20273Y8670D01*
G01X20355Y8670D01*
G01X20395Y8690D01*
G01X20436Y8731D01*
G01X20457Y8772D01*
G01X20592Y9018D02*
G01X20633Y9038D01*
G01X20694Y9099D01*
G01X20694Y8670D01*
G01X21075Y9038D02*
G01X21054Y9079D01*
G01X20993Y9099D01*
G01X20952Y9099D01*
G01X20890Y9079D01*
G01X20850Y9018D01*
G01X20829Y8915D01*
G01X20829Y8813D01*
G01X20850Y8731D01*
G01X20890Y8690D01*
G01X20952Y8670D01*
G01X20972Y8670D01*
G01X21034Y8690D01*
G01X21075Y8731D01*
G01X21095Y8793D01*
G01X21095Y8813D01*
G01X21075Y8874D01*
G01X21034Y8915D01*
G01X20972Y8936D01*
G01X20952Y8936D01*
G01X20890Y8915D01*
G01X20850Y8874D01*
G01X20829Y8813D01*
G01X20689Y10265D02*
G01X20672Y10298D01*
G01X20640Y10330D01*
G01X20609Y10346D01*
G01X20544Y10346D01*
G01X20514Y10330D01*
G01X20481Y10298D01*
G01X20465Y10265D01*
G01X20450Y10219D01*
G01X20450Y10138D01*
G01X20465Y10090D01*
G01X20481Y10059D01*
G01X20514Y10028D01*
G01X20544Y10011D01*
G01X20609Y10011D01*
G01X20640Y10028D01*
G01X20672Y10059D01*
G01X20689Y10090D01*
G01X20793Y10282D02*
G01X20825Y10298D01*
G01X20872Y10346D01*
G01X20872Y10011D01*
G01X21201Y10346D02*
G01X21042Y10011D01*
G01X20977Y10346D02*
G01X21201Y10346D01*
G01X23749Y22299D02*
G01X23749Y21993D01*
G01X23769Y21931D01*
G01X23810Y21890D01*
G01X23872Y21870D01*
G01X23913Y21870D01*
G01X23974Y21890D01*
G01X24015Y21931D01*
G01X24035Y21993D01*
G01X24035Y22299D01*
G01X24416Y22238D02*
G01X24395Y22279D01*
G01X24334Y22299D01*
G01X24293Y22299D01*
G01X24232Y22279D01*
G01X24191Y22218D01*
G01X24170Y22115D01*
G01X24170Y22013D01*
G01X24191Y21931D01*
G01X24232Y21890D01*
G01X24293Y21870D01*
G01X24314Y21870D01*
G01X24375Y21890D01*
G01X24416Y21931D01*
G01X24436Y21993D01*
G01X24436Y22013D01*
G01X24416Y22074D01*
G01X24375Y22115D01*
G01X24314Y22136D01*
G01X24293Y22136D01*
G01X24232Y22115D01*
G01X24191Y22074D01*
G01X24170Y22013D01*
G01X23399Y6550D02*
G01X23399Y6244D01*
G01X23419Y6182D01*
G01X23460Y6140D01*
G01X23522Y6121D01*
G01X23563Y6121D01*
G01X23624Y6140D01*
G01X23665Y6182D01*
G01X23685Y6244D01*
G01X23685Y6550D01*
G01X24107Y6550D02*
G01X23902Y6121D01*
G01X23820Y6550D02*
G01X24107Y6550D01*
G01X5999Y23049D02*
G01X5999Y22743D01*
G01X6019Y22681D01*
G01X6060Y22640D01*
G01X6122Y22620D01*
G01X6163Y22620D01*
G01X6224Y22640D01*
G01X6265Y22681D01*
G01X6285Y22743D01*
G01X6285Y23049D01*
G01X6523Y23049D02*
G01X6461Y23029D01*
G01X6441Y22988D01*
G01X6441Y22947D01*
G01X6461Y22906D01*
G01X6502Y22886D01*
G01X6584Y22865D01*
G01X6645Y22845D01*
G01X6686Y22804D01*
G01X6707Y22763D01*
G01X6707Y22702D01*
G01X6686Y22661D01*
G01X6666Y22640D01*
G01X6604Y22620D01*
G01X6523Y22620D01*
G01X6461Y22640D01*
G01X6441Y22661D01*
G01X6420Y22702D01*
G01X6420Y22763D01*
G01X6441Y22804D01*
G01X6482Y22845D01*
G01X6543Y22865D01*
G01X6625Y22886D01*
G01X6666Y22906D01*
G01X6686Y22947D01*
G01X6686Y22988D01*
G01X6666Y23029D01*
G01X6604Y23049D01*
G01X6523Y23049D01*
G01X6099Y5700D02*
G01X6099Y5394D01*
G01X6119Y5332D01*
G01X6160Y5290D01*
G01X6222Y5271D01*
G01X6263Y5271D01*
G01X6324Y5290D01*
G01X6365Y5332D01*
G01X6385Y5394D01*
G01X6385Y5700D01*
G01X6786Y5557D02*
G01X6766Y5496D01*
G01X6725Y5455D01*
G01X6664Y5434D01*
G01X6643Y5434D01*
G01X6582Y5455D01*
G01X6541Y5496D01*
G01X6520Y5557D01*
G01X6520Y5578D01*
G01X6541Y5638D01*
G01X6582Y5680D01*
G01X6643Y5700D01*
G01X6664Y5700D01*
G01X6725Y5680D01*
G01X6766Y5638D01*
G01X6786Y5557D01*
G01X6786Y5455D01*
G01X6766Y5353D01*
G01X6725Y5290D01*
G01X6664Y5271D01*
G01X6623Y5271D01*
G01X6561Y5290D01*
G01X6541Y5332D01*
G01X10800Y12200D02*
G01X10800Y11771D01*
G01X10800Y12200D02*
G01X10984Y12200D01*
G01X11044Y12180D01*
G01X11065Y12159D01*
G01X11085Y12119D01*
G01X11085Y12078D01*
G01X11065Y12036D01*
G01X11044Y12015D01*
G01X10984Y11996D01*
G01X10800Y11996D01*
G01X10943Y11996D02*
G01X11085Y11771D01*
G01X11323Y12200D02*
G01X11261Y12180D01*
G01X11242Y12138D01*
G01X11242Y12098D01*
G01X11261Y12057D01*
G01X11302Y12036D01*
G01X11385Y12015D01*
G01X11446Y11996D01*
G01X11486Y11955D01*
G01X11507Y11913D01*
G01X11507Y11853D01*
G01X11486Y11811D01*
G01X11467Y11790D01*
G01X11405Y11771D01*
G01X11323Y11771D01*
G01X11261Y11790D01*
G01X11242Y11811D01*
G01X11221Y11853D01*
G01X11221Y11913D01*
G01X11242Y11955D01*
G01X11282Y11996D01*
G01X11343Y12015D01*
G01X11426Y12036D01*
G01X11467Y12057D01*
G01X11486Y12098D01*
G01X11486Y12138D01*
G01X11467Y12180D01*
G01X11405Y12200D01*
G01X11323Y12200D01*
G01X10650Y14050D02*
G01X10650Y13621D01*
G01X10650Y14050D02*
G01X10834Y14050D01*
G01X10894Y14030D01*
G01X10915Y14009D01*
G01X10935Y13969D01*
G01X10935Y13928D01*
G01X10915Y13886D01*
G01X10894Y13865D01*
G01X10834Y13846D01*
G01X10650Y13846D01*
G01X10793Y13846D02*
G01X10935Y13621D01*
G01X11336Y13907D02*
G01X11317Y13846D01*
G01X11276Y13805D01*
G01X11214Y13784D01*
G01X11193Y13784D01*
G01X11132Y13805D01*
G01X11092Y13846D01*
G01X11071Y13907D01*
G01X11071Y13928D01*
G01X11092Y13988D01*
G01X11132Y14030D01*
G01X11193Y14050D01*
G01X11214Y14050D01*
G01X11276Y14030D01*
G01X11317Y13988D01*
G01X11336Y13907D01*
G01X11336Y13805D01*
G01X11317Y13703D01*
G01X11276Y13640D01*
G01X11214Y13621D01*
G01X11173Y13621D01*
G01X11111Y13640D01*
G01X11092Y13682D01*
G01X10300Y15050D02*
G01X10300Y14621D01*
G01X10300Y15050D02*
G01X10484Y15050D01*
G01X10544Y15030D01*
G01X10565Y15010D01*
G01X10585Y14969D01*
G01X10585Y14928D01*
G01X10565Y14887D01*
G01X10544Y14866D01*
G01X10484Y14846D01*
G01X10300Y14846D01*
G01X10443Y14846D02*
G01X10585Y14621D01*
G01X10721Y14969D02*
G01X10761Y14989D01*
G01X10823Y15050D01*
G01X10823Y14621D01*
G01X11081Y15050D02*
G01X11019Y15030D01*
G01X10978Y14969D01*
G01X10959Y14866D01*
G01X10959Y14805D01*
G01X10978Y14703D01*
G01X11019Y14641D01*
G01X11081Y14621D01*
G01X11122Y14621D01*
G01X11184Y14641D01*
G01X11225Y14703D01*
G01X11244Y14805D01*
G01X11244Y14866D01*
G01X11225Y14969D01*
G01X11184Y15030D01*
G01X11122Y15050D01*
G01X11081Y15050D01*
G01X10700Y13000D02*
G01X10700Y12571D01*
G01X10700Y13000D02*
G01X10884Y13000D01*
G01X10944Y12980D01*
G01X10965Y12960D01*
G01X10985Y12919D01*
G01X10985Y12878D01*
G01X10965Y12837D01*
G01X10944Y12816D01*
G01X10884Y12796D01*
G01X10700Y12796D01*
G01X10843Y12796D02*
G01X10985Y12571D01*
G01X11121Y12919D02*
G01X11161Y12939D01*
G01X11223Y13000D01*
G01X11223Y12571D01*
G01X11359Y12919D02*
G01X11400Y12939D01*
G01X11460Y13000D01*
G01X11460Y12571D01*
G01X24749Y2699D02*
G01X24749Y2270D01*
G01X24749Y2699D02*
G01X24913Y2270D01*
G01X25076Y2699D02*
G01X24913Y2270D01*
G01X25076Y2699D02*
G01X25076Y2270D01*
G01X25211Y2618D02*
G01X25252Y2638D01*
G01X25314Y2699D01*
G01X25314Y2270D01*
G01X25850Y24650D02*
G01X25850Y24221D01*
G01X25850Y24650D02*
G01X26014Y24221D01*
G01X26177Y24650D02*
G01X26014Y24221D01*
G01X26177Y24650D02*
G01X26177Y24221D01*
G01X26333Y24548D02*
G01X26333Y24569D01*
G01X26353Y24610D01*
G01X26374Y24630D01*
G01X26415Y24650D01*
G01X26496Y24650D01*
G01X26537Y24630D01*
G01X26558Y24610D01*
G01X26578Y24569D01*
G01X26578Y24528D01*
G01X26558Y24487D01*
G01X26517Y24425D01*
G01X26312Y24221D01*
G01X26599Y24221D01*
G01X3549Y2850D02*
G01X3549Y2421D01*
G01X3549Y2850D02*
G01X3713Y2421D01*
G01X3876Y2850D02*
G01X3713Y2421D01*
G01X3876Y2850D02*
G01X3876Y2421D01*
G01X4052Y2850D02*
G01X4277Y2850D01*
G01X4154Y2687D01*
G01X4216Y2687D01*
G01X4257Y2666D01*
G01X4277Y2646D01*
G01X4298Y2585D01*
G01X4298Y2544D01*
G01X4277Y2482D01*
G01X4236Y2441D01*
G01X4175Y2421D01*
G01X4114Y2421D01*
G01X4052Y2441D01*
G01X4032Y2462D01*
G01X4011Y2503D01*
G01X2300Y24550D02*
G01X2300Y24121D01*
G01X2300Y24550D02*
G01X2463Y24121D01*
G01X2626Y24550D02*
G01X2463Y24121D01*
G01X2626Y24550D02*
G01X2626Y24121D01*
G01X2967Y24550D02*
G01X2761Y24264D01*
G01X3068Y24264D01*
G01X2967Y24550D02*
G01X2967Y24121D01*
G01X18049Y15258D02*
G01X18070Y15217D01*
G01X18111Y15176D01*
G01X18152Y15155D01*
G01X18213Y15135D01*
G01X18315Y15135D01*
G01X18377Y15155D01*
G01X18418Y15176D01*
G01X18459Y15217D01*
G01X18479Y15258D01*
G01X18479Y15340D01*
G01X18459Y15380D01*
G01X18418Y15421D01*
G01X18377Y15442D01*
G01X18315Y15462D01*
G01X18213Y15462D01*
G01X18152Y15442D01*
G01X18111Y15421D01*
G01X18070Y15380D01*
G01X18049Y15340D01*
G01X18049Y15258D01*
G01X18397Y15319D02*
G01X18520Y15442D01*
G01X18131Y15597D02*
G01X18111Y15638D01*
G01X18049Y15700D01*
G01X18479Y15700D01*
G01X9822Y9800D02*
G01X9781Y9780D01*
G01X9740Y9738D01*
G01X9719Y9698D01*
G01X9699Y9636D01*
G01X9699Y9534D01*
G01X9719Y9473D01*
G01X9740Y9432D01*
G01X9781Y9390D01*
G01X9822Y9371D01*
G01X9904Y9371D01*
G01X9944Y9390D01*
G01X9985Y9432D01*
G01X10006Y9473D01*
G01X10026Y9534D01*
G01X10026Y9636D01*
G01X10006Y9698D01*
G01X9985Y9738D01*
G01X9944Y9780D01*
G01X9904Y9800D01*
G01X9822Y9800D01*
G01X9883Y9453D02*
G01X10006Y9330D01*
G01X10182Y9698D02*
G01X10182Y9719D01*
G01X10202Y9759D01*
G01X10223Y9780D01*
G01X10264Y9800D01*
G01X10345Y9800D01*
G01X10386Y9780D01*
G01X10407Y9759D01*
G01X10427Y9719D01*
G01X10427Y9678D01*
G01X10407Y9636D01*
G01X10366Y9575D01*
G01X10161Y9371D01*
G01X10448Y9371D01*
G54D53*
G01X12840Y10455D02*
G01X12814Y10482D01*
G01X12772Y10496D01*
G01X12718Y10496D01*
G01X12677Y10482D01*
G01X12650Y10455D01*
G01X12650Y10426D01*
G01X12664Y10400D01*
G01X12677Y10386D01*
G01X12705Y10373D01*
G01X12785Y10346D01*
G01X12814Y10332D01*
G01X12827Y10317D01*
G01X12840Y10290D01*
G01X12840Y10250D01*
G01X12814Y10223D01*
G01X12772Y10209D01*
G01X12718Y10209D01*
G01X12677Y10223D01*
G01X12650Y10250D01*
G01X12931Y10496D02*
G01X12931Y10209D01*
G01X12931Y10496D02*
G01X13053Y10496D01*
G01X13094Y10482D01*
G01X13107Y10467D01*
G01X13122Y10440D01*
G01X13122Y10413D01*
G01X13107Y10386D01*
G01X13094Y10373D01*
G01X13053Y10359D01*
G01X12931Y10359D01*
G01X13026Y10359D02*
G01X13122Y10209D01*
G01X13211Y10496D02*
G01X13402Y10209D01*
G01X13402Y10496D02*
G01X13211Y10209D01*
G01X13493Y10550D02*
G01X13493Y10113D01*
G01X13582Y10496D02*
G01X13582Y10209D01*
G01X13582Y10496D02*
G01X13705Y10496D01*
G01X13746Y10482D01*
G01X13760Y10467D01*
G01X13773Y10440D01*
G01X13773Y10400D01*
G01X13760Y10373D01*
G01X13746Y10359D01*
G01X13705Y10346D01*
G01X13582Y10346D01*
G01X13864Y10496D02*
G01X13864Y10209D01*
G01X13864Y10496D02*
G01X13985Y10496D01*
G01X14027Y10482D01*
G01X14040Y10467D01*
G01X14055Y10440D01*
G01X14055Y10400D01*
G01X14040Y10373D01*
G01X14027Y10359D01*
G01X13985Y10346D01*
G01X13864Y10346D01*
G01X14144Y10496D02*
G01X14144Y10209D01*
G01X14144Y10496D02*
G01X14253Y10209D01*
G01X14363Y10496D02*
G01X14253Y10209D01*
G01X14363Y10496D02*
G01X14363Y10209D01*
G54D52*
G01X10050Y20396D02*
G01X10050Y20061D01*
G01X10050Y20396D02*
G01X10193Y20396D01*
G01X10240Y20380D01*
G01X10256Y20363D01*
G01X10272Y20332D01*
G01X10272Y20300D01*
G01X10256Y20269D01*
G01X10240Y20253D01*
G01X10193Y20236D01*
G01X10050Y20236D01*
G01X10160Y20236D02*
G01X10272Y20061D01*
G01X10536Y20396D02*
G01X10377Y20173D01*
G01X10615Y20173D01*
G01X10536Y20396D02*
G01X10536Y20061D01*
G54D48*
G75*
G01X8876Y18637D02*
G3X8876Y18637INaNJNaND01*
G01*
G54D49*
G75*
G01X15416Y12717D02*
G3X15416Y12719I118J1D01*
G01*
G54D50*
G75*
G01X16450Y12215D02*
G3X16450Y12216I59J0D01*
G01*
G54D51*
G75*
G01X17443Y20256D02*
G3X17443Y20256INaNJNaND01*
G01*
G75*
G01X17443Y17506D02*
G3X17443Y17506INaNJNaND01*
G01*
G54D10*
G75*
G01X13000Y9300D02*
G2X12900Y9400I0J100D01*
G01*
G75*
G01X14100Y9400D02*
G2X14000Y9300I-100J0D01*
G01*
G75*
G01X14100Y10000D02*
G3X14000Y10100I-100J0D01*
G01*
G75*
G01X13000Y10100D02*
G3X12900Y10000I0J-100D01*
G01*
M00*
M02*
