G04 ---------------------------- Layer name :BOTTOM LAYER*
G04 EasyEDA v5.5.12, Thu, 07 Jun 2018 12:22:22 GMT*
G04 1a2565b9f4c04a008b83b97b08c39867*
G04 Gerber Generator version 0.2*
G04 Scale: 100 percent, Rotated: No, Reflected: No *
G04 Dimensions in inches *
G04 leading zeros omitted , absolute positions ,2 integer and 4 decimal *
%FSLAX24Y24*%
%MOIN*%
G90*
G70D02*

%ADD10C,0.010000*%
%ADD11C,0.020000*%
%ADD12C,0.015000*%
%ADD16C,0.024400*%
%ADD17C,0.019700*%
%ADD38C,0.062000*%
%ADD39R,0.062000X0.062000*%
%ADD40C,0.059055*%
%ADD41C,0.051181*%

%LPD*%
G36*
G01X1650Y50D02*
G01X0Y1700D01*
G01X0Y2200D01*
G01X200Y2400D01*
G01X200Y2800D01*
G01X1500Y4100D01*
G01X1900Y4100D01*
G01X7150Y9350D01*
G01X7150Y18850D01*
G01X1900Y24100D01*
G01X1500Y24100D01*
G01X200Y25400D01*
G01X200Y25750D01*
G01X0Y25950D01*
G01X0Y26500D01*
G01X1700Y28200D01*
G01X2200Y28200D01*
G01X2400Y28000D01*
G01X2800Y28000D01*
G01X4100Y26700D01*
G01X4100Y26300D01*
G01X9450Y20950D01*
G01X19350Y20950D01*
G01X24700Y26300D01*
G01X24700Y26700D01*
G01X26000Y28000D01*
G01X26350Y28000D01*
G01X26550Y28200D01*
G01X27100Y28200D01*
G01X28800Y26500D01*
G01X28800Y26000D01*
G01X28600Y25800D01*
G01X28600Y25400D01*
G01X27300Y24100D01*
G01X26900Y24100D01*
G01X21350Y18550D01*
G01X21350Y9650D01*
G01X26900Y4100D01*
G01X27300Y4100D01*
G01X28600Y2800D01*
G01X28600Y2450D01*
G01X28800Y2250D01*
G01X28800Y1700D01*
G01X27150Y50D01*
G01X26550Y50D01*
G01X26400Y200D01*
G01X26000Y200D01*
G01X24700Y1500D01*
G01X24700Y1900D01*
G01X19300Y7300D01*
G01X9500Y7300D01*
G01X4100Y1900D01*
G01X4100Y1500D01*
G01X2800Y200D01*
G01X2450Y200D01*
G01X2300Y50D01*
G01X1650Y50D01*
G37*

%LPC*%
G36*
G01X26612Y24550D02*
G01X26762Y24554D01*
G01X26910Y24572D01*
G01X27056Y24606D01*
G01X27198Y24653D01*
G01X27334Y24715D01*
G01X27463Y24789D01*
G01X27585Y24877D01*
G01X27697Y24976D01*
G01X27799Y25085D01*
G01X27889Y25205D01*
G01X27967Y25332D01*
G01X28032Y25467D01*
G01X28083Y25607D01*
G01X28120Y25752D01*
G01X28142Y25900D01*
G01X28150Y26050D01*
G01X28142Y26199D01*
G01X28120Y26347D01*
G01X28083Y26492D01*
G01X28032Y26632D01*
G01X27967Y26767D01*
G01X27889Y26894D01*
G01X27799Y27014D01*
G01X27697Y27123D01*
G01X27585Y27222D01*
G01X27463Y27310D01*
G01X27334Y27384D01*
G01X27198Y27446D01*
G01X27056Y27493D01*
G01X26910Y27527D01*
G01X26762Y27545D01*
G01X26612Y27549D01*
G01X26463Y27538D01*
G01X26316Y27512D01*
G01X26172Y27471D01*
G01X26033Y27417D01*
G01X25900Y27349D01*
G01X25774Y27267D01*
G01X25657Y27174D01*
G01X25550Y27070D01*
G01X25454Y26955D01*
G01X25370Y26832D01*
G01X25298Y26700D01*
G01X25240Y26563D01*
G01X25196Y26420D01*
G01X25166Y26273D01*
G01X25151Y26124D01*
G01X25151Y25975D01*
G01X25166Y25826D01*
G01X25196Y25679D01*
G01X25240Y25536D01*
G01X25298Y25399D01*
G01X25370Y25267D01*
G01X25454Y25144D01*
G01X25550Y25029D01*
G01X25657Y24925D01*
G01X25774Y24832D01*
G01X25900Y24750D01*
G01X26033Y24682D01*
G01X26172Y24628D01*
G01X26316Y24587D01*
G01X26463Y24561D01*
G01X26612Y24550D01*
G37*
G36*
G01X2112Y650D02*
G01X2262Y654D01*
G01X2410Y672D01*
G01X2556Y706D01*
G01X2698Y753D01*
G01X2834Y815D01*
G01X2963Y889D01*
G01X3085Y977D01*
G01X3197Y1076D01*
G01X3299Y1185D01*
G01X3389Y1305D01*
G01X3467Y1432D01*
G01X3532Y1567D01*
G01X3583Y1707D01*
G01X3620Y1852D01*
G01X3642Y2000D01*
G01X3650Y2150D01*
G01X3642Y2299D01*
G01X3620Y2447D01*
G01X3583Y2592D01*
G01X3532Y2732D01*
G01X3467Y2867D01*
G01X3389Y2994D01*
G01X3299Y3114D01*
G01X3197Y3223D01*
G01X3085Y3322D01*
G01X2963Y3410D01*
G01X2834Y3484D01*
G01X2698Y3546D01*
G01X2556Y3593D01*
G01X2410Y3627D01*
G01X2262Y3645D01*
G01X2112Y3649D01*
G01X1963Y3638D01*
G01X1816Y3612D01*
G01X1672Y3571D01*
G01X1533Y3517D01*
G01X1400Y3449D01*
G01X1274Y3367D01*
G01X1157Y3274D01*
G01X1050Y3170D01*
G01X954Y3055D01*
G01X870Y2932D01*
G01X798Y2800D01*
G01X740Y2663D01*
G01X696Y2520D01*
G01X666Y2373D01*
G01X651Y2224D01*
G01X651Y2075D01*
G01X666Y1926D01*
G01X696Y1779D01*
G01X740Y1636D01*
G01X798Y1499D01*
G01X870Y1367D01*
G01X954Y1244D01*
G01X1050Y1129D01*
G01X1157Y1025D01*
G01X1274Y932D01*
G01X1400Y850D01*
G01X1533Y782D01*
G01X1672Y728D01*
G01X1816Y687D01*
G01X1963Y661D01*
G01X2112Y650D01*
G37*
G36*
G01X26612Y650D02*
G01X26762Y654D01*
G01X26910Y672D01*
G01X27056Y706D01*
G01X27198Y753D01*
G01X27334Y815D01*
G01X27463Y889D01*
G01X27585Y977D01*
G01X27697Y1076D01*
G01X27799Y1185D01*
G01X27889Y1305D01*
G01X27967Y1432D01*
G01X28032Y1567D01*
G01X28083Y1707D01*
G01X28120Y1852D01*
G01X28142Y2000D01*
G01X28150Y2150D01*
G01X28142Y2299D01*
G01X28120Y2447D01*
G01X28083Y2592D01*
G01X28032Y2732D01*
G01X27967Y2867D01*
G01X27889Y2994D01*
G01X27799Y3114D01*
G01X27697Y3223D01*
G01X27585Y3322D01*
G01X27463Y3410D01*
G01X27334Y3484D01*
G01X27198Y3546D01*
G01X27056Y3593D01*
G01X26910Y3627D01*
G01X26762Y3645D01*
G01X26612Y3649D01*
G01X26463Y3638D01*
G01X26316Y3612D01*
G01X26172Y3571D01*
G01X26033Y3517D01*
G01X25900Y3449D01*
G01X25774Y3367D01*
G01X25657Y3274D01*
G01X25550Y3170D01*
G01X25454Y3055D01*
G01X25370Y2932D01*
G01X25298Y2800D01*
G01X25240Y2663D01*
G01X25196Y2520D01*
G01X25166Y2373D01*
G01X25151Y2224D01*
G01X25151Y2075D01*
G01X25166Y1926D01*
G01X25196Y1779D01*
G01X25240Y1636D01*
G01X25298Y1499D01*
G01X25370Y1367D01*
G01X25454Y1244D01*
G01X25550Y1129D01*
G01X25657Y1025D01*
G01X25774Y932D01*
G01X25900Y850D01*
G01X26033Y782D01*
G01X26172Y728D01*
G01X26316Y687D01*
G01X26463Y661D01*
G01X26612Y650D01*
G37*
G36*
G01X24500Y3011D02*
G01X24504Y3011D01*
G01X24508Y3011D01*
G01X24512Y3012D01*
G01X24516Y3012D01*
G01X24520Y3013D01*
G01X24524Y3014D01*
G01X24528Y3015D01*
G01X24532Y3016D01*
G01X24536Y3018D01*
G01X24540Y3019D01*
G01X24544Y3021D01*
G01X24547Y3023D01*
G01X24551Y3025D01*
G01X24554Y3027D01*
G01X24558Y3030D01*
G01X24561Y3032D01*
G01X24564Y3035D01*
G01X24568Y3037D01*
G01X24571Y3040D01*
G01X25009Y3479D01*
G01X25012Y3482D01*
G01X25015Y3485D01*
G01X25017Y3488D01*
G01X25020Y3491D01*
G01X25022Y3495D01*
G01X25024Y3498D01*
G01X25026Y3502D01*
G01X25028Y3505D01*
G01X25030Y3509D01*
G01X25031Y3513D01*
G01X25033Y3517D01*
G01X25034Y3521D01*
G01X25035Y3525D01*
G01X25036Y3529D01*
G01X25037Y3533D01*
G01X25037Y3537D01*
G01X25038Y3541D01*
G01X25038Y3545D01*
G01X25038Y3549D01*
G01X25038Y3553D01*
G01X25038Y3558D01*
G01X25037Y3562D01*
G01X25037Y3566D01*
G01X25036Y3570D01*
G01X25035Y3574D01*
G01X25034Y3578D01*
G01X25033Y3582D01*
G01X25031Y3586D01*
G01X25030Y3589D01*
G01X25028Y3593D01*
G01X25026Y3597D01*
G01X25024Y3600D01*
G01X25022Y3604D01*
G01X25020Y3607D01*
G01X25017Y3611D01*
G01X25015Y3614D01*
G01X25012Y3617D01*
G01X25009Y3620D01*
G01X24571Y4058D01*
G01X24568Y4061D01*
G01X24564Y4064D01*
G01X24561Y4067D01*
G01X24558Y4069D01*
G01X24554Y4071D01*
G01X24551Y4074D01*
G01X24547Y4076D01*
G01X24544Y4078D01*
G01X24540Y4079D01*
G01X24536Y4081D01*
G01X24532Y4082D01*
G01X24528Y4084D01*
G01X24524Y4085D01*
G01X24520Y4086D01*
G01X24516Y4086D01*
G01X24512Y4087D01*
G01X24508Y4087D01*
G01X24504Y4088D01*
G01X24500Y4088D01*
G01X24496Y4088D01*
G01X24492Y4087D01*
G01X24487Y4087D01*
G01X24483Y4086D01*
G01X24479Y4086D01*
G01X24475Y4085D01*
G01X24471Y4084D01*
G01X24467Y4082D01*
G01X24463Y4081D01*
G01X24460Y4079D01*
G01X24456Y4078D01*
G01X24452Y4076D01*
G01X24449Y4074D01*
G01X24445Y4071D01*
G01X24442Y4069D01*
G01X24438Y4067D01*
G01X24435Y4064D01*
G01X24432Y4061D01*
G01X24429Y4058D01*
G01X23991Y3620D01*
G01X23988Y3617D01*
G01X23985Y3614D01*
G01X23982Y3611D01*
G01X23980Y3607D01*
G01X23978Y3604D01*
G01X23975Y3600D01*
G01X23973Y3597D01*
G01X23972Y3593D01*
G01X23970Y3589D01*
G01X23968Y3586D01*
G01X23967Y3582D01*
G01X23966Y3578D01*
G01X23964Y3574D01*
G01X23964Y3570D01*
G01X23963Y3566D01*
G01X23962Y3562D01*
G01X23962Y3558D01*
G01X23961Y3553D01*
G01X23961Y3549D01*
G01X23961Y3545D01*
G01X23962Y3541D01*
G01X23962Y3537D01*
G01X23963Y3533D01*
G01X23964Y3529D01*
G01X23964Y3525D01*
G01X23966Y3521D01*
G01X23967Y3517D01*
G01X23968Y3513D01*
G01X23970Y3509D01*
G01X23972Y3505D01*
G01X23973Y3502D01*
G01X23975Y3498D01*
G01X23978Y3495D01*
G01X23980Y3491D01*
G01X23982Y3488D01*
G01X23985Y3485D01*
G01X23988Y3482D01*
G01X23991Y3479D01*
G01X24429Y3040D01*
G01X24432Y3037D01*
G01X24435Y3035D01*
G01X24438Y3032D01*
G01X24442Y3030D01*
G01X24445Y3027D01*
G01X24449Y3025D01*
G01X24452Y3023D01*
G01X24456Y3021D01*
G01X24460Y3019D01*
G01X24463Y3018D01*
G01X24467Y3016D01*
G01X24471Y3015D01*
G01X24475Y3014D01*
G01X24479Y3013D01*
G01X24483Y3012D01*
G01X24487Y3012D01*
G01X24492Y3011D01*
G01X24496Y3011D01*
G01X24500Y3011D01*
G37*
G36*
G01X4646Y3332D02*
G01X4687Y3333D01*
G01X4728Y3338D01*
G01X4768Y3347D01*
G01X4806Y3360D01*
G01X4844Y3377D01*
G01X4879Y3397D01*
G01X4912Y3421D01*
G01X4943Y3448D01*
G01X4971Y3478D01*
G01X4995Y3511D01*
G01X5017Y3545D01*
G01X5034Y3582D01*
G01X5048Y3621D01*
G01X5058Y3660D01*
G01X5064Y3701D01*
G01X5067Y3742D01*
G01X5064Y3782D01*
G01X5058Y3823D01*
G01X5048Y3862D01*
G01X5034Y3901D01*
G01X5017Y3938D01*
G01X4995Y3972D01*
G01X4971Y4005D01*
G01X4943Y4035D01*
G01X4912Y4062D01*
G01X4879Y4086D01*
G01X4844Y4106D01*
G01X4806Y4123D01*
G01X4768Y4136D01*
G01X4728Y4145D01*
G01X4687Y4150D01*
G01X4646Y4151D01*
G01X4606Y4148D01*
G01X4565Y4141D01*
G01X4526Y4130D01*
G01X4488Y4115D01*
G01X4452Y4097D01*
G01X4417Y4074D01*
G01X4385Y4049D01*
G01X4356Y4020D01*
G01X4330Y3989D01*
G01X4307Y3955D01*
G01X4287Y3919D01*
G01X4271Y3882D01*
G01X4259Y3843D01*
G01X4251Y3803D01*
G01X4247Y3762D01*
G01X4247Y3721D01*
G01X4251Y3680D01*
G01X4259Y3640D01*
G01X4271Y3601D01*
G01X4287Y3564D01*
G01X4307Y3528D01*
G01X4330Y3494D01*
G01X4356Y3463D01*
G01X4385Y3434D01*
G01X4417Y3409D01*
G01X4452Y3386D01*
G01X4488Y3368D01*
G01X4526Y3353D01*
G01X4565Y3342D01*
G01X4606Y3335D01*
G01X4646Y3332D01*
G37*
G36*
G01X25196Y3847D02*
G01X25237Y3848D01*
G01X25278Y3853D01*
G01X25318Y3862D01*
G01X25356Y3875D01*
G01X25394Y3892D01*
G01X25429Y3912D01*
G01X25462Y3936D01*
G01X25493Y3963D01*
G01X25521Y3993D01*
G01X25545Y4026D01*
G01X25567Y4060D01*
G01X25584Y4097D01*
G01X25598Y4136D01*
G01X25608Y4175D01*
G01X25614Y4216D01*
G01X25617Y4257D01*
G01X25614Y4297D01*
G01X25608Y4338D01*
G01X25598Y4377D01*
G01X25584Y4416D01*
G01X25567Y4453D01*
G01X25545Y4487D01*
G01X25521Y4520D01*
G01X25493Y4550D01*
G01X25462Y4577D01*
G01X25429Y4601D01*
G01X25394Y4621D01*
G01X25356Y4638D01*
G01X25318Y4651D01*
G01X25278Y4660D01*
G01X25237Y4665D01*
G01X25196Y4666D01*
G01X25156Y4663D01*
G01X25115Y4656D01*
G01X25076Y4645D01*
G01X25038Y4630D01*
G01X25002Y4612D01*
G01X24967Y4589D01*
G01X24935Y4564D01*
G01X24906Y4535D01*
G01X24880Y4504D01*
G01X24857Y4470D01*
G01X24837Y4434D01*
G01X24821Y4397D01*
G01X24809Y4358D01*
G01X24801Y4318D01*
G01X24797Y4277D01*
G01X24797Y4236D01*
G01X24801Y4195D01*
G01X24809Y4155D01*
G01X24821Y4116D01*
G01X24837Y4079D01*
G01X24857Y4043D01*
G01X24880Y4009D01*
G01X24906Y3978D01*
G01X24935Y3949D01*
G01X24967Y3924D01*
G01X25002Y3901D01*
G01X25038Y3883D01*
G01X25076Y3868D01*
G01X25115Y3857D01*
G01X25156Y3850D01*
G01X25196Y3847D01*
G37*
G36*
G01X3950Y3911D02*
G01X3954Y3911D01*
G01X3958Y3911D01*
G01X3962Y3911D01*
G01X3966Y3912D01*
G01X3970Y3913D01*
G01X3974Y3914D01*
G01X3978Y3915D01*
G01X3982Y3916D01*
G01X3986Y3917D01*
G01X3990Y3919D01*
G01X3994Y3921D01*
G01X3997Y3923D01*
G01X4001Y3925D01*
G01X4004Y3927D01*
G01X4008Y3929D01*
G01X4011Y3932D01*
G01X4014Y3934D01*
G01X4018Y3937D01*
G01X4021Y3940D01*
G01X4459Y4378D01*
G01X4462Y4381D01*
G01X4465Y4384D01*
G01X4467Y4387D01*
G01X4470Y4391D01*
G01X4472Y4394D01*
G01X4474Y4398D01*
G01X4476Y4401D01*
G01X4478Y4405D01*
G01X4480Y4409D01*
G01X4481Y4413D01*
G01X4483Y4416D01*
G01X4484Y4420D01*
G01X4485Y4424D01*
G01X4486Y4428D01*
G01X4487Y4432D01*
G01X4487Y4437D01*
G01X4488Y4441D01*
G01X4488Y4445D01*
G01X4488Y4449D01*
G01X4488Y4453D01*
G01X4488Y4457D01*
G01X4487Y4461D01*
G01X4487Y4465D01*
G01X4486Y4469D01*
G01X4485Y4473D01*
G01X4484Y4477D01*
G01X4483Y4481D01*
G01X4481Y4485D01*
G01X4480Y4489D01*
G01X4478Y4493D01*
G01X4476Y4496D01*
G01X4474Y4500D01*
G01X4472Y4504D01*
G01X4470Y4507D01*
G01X4467Y4510D01*
G01X4465Y4514D01*
G01X4462Y4517D01*
G01X4459Y4520D01*
G01X4021Y4958D01*
G01X4018Y4961D01*
G01X4014Y4964D01*
G01X4011Y4966D01*
G01X4008Y4969D01*
G01X4004Y4971D01*
G01X4001Y4973D01*
G01X3997Y4975D01*
G01X3994Y4977D01*
G01X3990Y4979D01*
G01X3986Y4980D01*
G01X3982Y4982D01*
G01X3978Y4983D01*
G01X3974Y4984D01*
G01X3970Y4985D01*
G01X3966Y4986D01*
G01X3962Y4987D01*
G01X3958Y4987D01*
G01X3954Y4987D01*
G01X3950Y4987D01*
G01X3946Y4987D01*
G01X3942Y4987D01*
G01X3937Y4987D01*
G01X3933Y4986D01*
G01X3929Y4985D01*
G01X3925Y4984D01*
G01X3921Y4983D01*
G01X3917Y4982D01*
G01X3913Y4980D01*
G01X3910Y4979D01*
G01X3906Y4977D01*
G01X3902Y4975D01*
G01X3899Y4973D01*
G01X3895Y4971D01*
G01X3892Y4969D01*
G01X3888Y4966D01*
G01X3885Y4964D01*
G01X3882Y4961D01*
G01X3879Y4958D01*
G01X3441Y4520D01*
G01X3438Y4517D01*
G01X3435Y4514D01*
G01X3432Y4510D01*
G01X3430Y4507D01*
G01X3428Y4504D01*
G01X3425Y4500D01*
G01X3423Y4496D01*
G01X3422Y4493D01*
G01X3420Y4489D01*
G01X3418Y4485D01*
G01X3417Y4481D01*
G01X3416Y4477D01*
G01X3414Y4473D01*
G01X3414Y4469D01*
G01X3413Y4465D01*
G01X3412Y4461D01*
G01X3412Y4457D01*
G01X3411Y4453D01*
G01X3411Y4449D01*
G01X3411Y4445D01*
G01X3412Y4441D01*
G01X3412Y4437D01*
G01X3413Y4432D01*
G01X3414Y4428D01*
G01X3414Y4424D01*
G01X3416Y4420D01*
G01X3417Y4416D01*
G01X3418Y4413D01*
G01X3420Y4409D01*
G01X3422Y4405D01*
G01X3423Y4401D01*
G01X3425Y4398D01*
G01X3428Y4394D01*
G01X3430Y4391D01*
G01X3432Y4387D01*
G01X3435Y4384D01*
G01X3438Y4381D01*
G01X3441Y4378D01*
G01X3879Y3940D01*
G01X3882Y3937D01*
G01X3885Y3934D01*
G01X3888Y3932D01*
G01X3892Y3929D01*
G01X3895Y3927D01*
G01X3899Y3925D01*
G01X3902Y3923D01*
G01X3906Y3921D01*
G01X3910Y3919D01*
G01X3913Y3917D01*
G01X3917Y3916D01*
G01X3921Y3915D01*
G01X3925Y3914D01*
G01X3929Y3913D01*
G01X3933Y3912D01*
G01X3937Y3911D01*
G01X3942Y3911D01*
G01X3946Y3911D01*
G01X3950Y3911D01*
G37*
G36*
G01X6544Y4928D02*
G01X6566Y4928D01*
G01X6588Y4931D01*
G01X6610Y4936D01*
G01X6631Y4943D01*
G01X6651Y4952D01*
G01X6670Y4963D01*
G01X6688Y4976D01*
G01X6705Y4991D01*
G01X6720Y5007D01*
G01X6733Y5024D01*
G01X6744Y5043D01*
G01X6754Y5063D01*
G01X6762Y5084D01*
G01X6767Y5106D01*
G01X6770Y5127D01*
G01X6772Y5150D01*
G01X6770Y5172D01*
G01X6767Y5193D01*
G01X6762Y5215D01*
G01X6754Y5236D01*
G01X6744Y5256D01*
G01X6733Y5275D01*
G01X6720Y5292D01*
G01X6705Y5308D01*
G01X6700Y5313D01*
G01X6700Y7137D01*
G01X7990Y8428D01*
G01X7994Y8428D01*
G01X8016Y8428D01*
G01X8038Y8431D01*
G01X8060Y8436D01*
G01X8081Y8443D01*
G01X8101Y8452D01*
G01X8120Y8463D01*
G01X8138Y8476D01*
G01X8155Y8491D01*
G01X8170Y8507D01*
G01X8183Y8524D01*
G01X8194Y8543D01*
G01X8204Y8563D01*
G01X8212Y8584D01*
G01X8217Y8606D01*
G01X8220Y8627D01*
G01X8222Y8650D01*
G01X8220Y8672D01*
G01X8217Y8693D01*
G01X8212Y8715D01*
G01X8204Y8736D01*
G01X8194Y8756D01*
G01X8183Y8775D01*
G01X8170Y8792D01*
G01X8155Y8808D01*
G01X8138Y8823D01*
G01X8120Y8836D01*
G01X8101Y8847D01*
G01X8081Y8856D01*
G01X8060Y8863D01*
G01X8038Y8868D01*
G01X8016Y8871D01*
G01X7994Y8871D01*
G01X7972Y8870D01*
G01X7950Y8866D01*
G01X7929Y8860D01*
G01X7908Y8852D01*
G01X7889Y8842D01*
G01X7870Y8830D01*
G01X7853Y8816D01*
G01X7837Y8801D01*
G01X7823Y8784D01*
G01X7810Y8765D01*
G01X7799Y8746D01*
G01X7791Y8725D01*
G01X7784Y8704D01*
G01X7780Y8683D01*
G01X7778Y8661D01*
G01X7778Y8640D01*
G01X6443Y7306D01*
G01X6440Y7302D01*
G01X6436Y7298D01*
G01X6433Y7294D01*
G01X6430Y7290D01*
G01X6427Y7286D01*
G01X6424Y7282D01*
G01X6421Y7277D01*
G01X6419Y7273D01*
G01X6416Y7269D01*
G01X6414Y7264D01*
G01X6412Y7259D01*
G01X6410Y7255D01*
G01X6408Y7250D01*
G01X6407Y7245D01*
G01X6405Y7240D01*
G01X6404Y7235D01*
G01X6403Y7230D01*
G01X6402Y7225D01*
G01X6401Y7220D01*
G01X6400Y7215D01*
G01X6400Y7210D01*
G01X6400Y7205D01*
G01X6400Y7200D01*
G01X6400Y5313D01*
G01X6387Y5301D01*
G01X6373Y5284D01*
G01X6360Y5265D01*
G01X6349Y5246D01*
G01X6341Y5225D01*
G01X6334Y5204D01*
G01X6330Y5183D01*
G01X6328Y5161D01*
G01X6328Y5138D01*
G01X6330Y5116D01*
G01X6334Y5095D01*
G01X6341Y5074D01*
G01X6349Y5053D01*
G01X6360Y5034D01*
G01X6373Y5015D01*
G01X6387Y4998D01*
G01X6403Y4983D01*
G01X6420Y4969D01*
G01X6439Y4957D01*
G01X6458Y4947D01*
G01X6479Y4939D01*
G01X6500Y4933D01*
G01X6522Y4929D01*
G01X6544Y4928D01*
G37*
G36*
G01X11000Y7950D02*
G01X17100Y7950D01*
G01X17105Y7950D01*
G01X17110Y7950D01*
G01X17115Y7950D01*
G01X17120Y7951D01*
G01X17125Y7952D01*
G01X17130Y7953D01*
G01X17135Y7954D01*
G01X17140Y7955D01*
G01X17145Y7957D01*
G01X17150Y7958D01*
G01X17155Y7960D01*
G01X17159Y7962D01*
G01X17164Y7964D01*
G01X17169Y7966D01*
G01X17173Y7969D01*
G01X17177Y7971D01*
G01X17182Y7974D01*
G01X17186Y7977D01*
G01X17190Y7980D01*
G01X17194Y7983D01*
G01X17198Y7986D01*
G01X17202Y7990D01*
G01X17206Y7993D01*
G01X17562Y8350D01*
G01X18300Y8350D01*
G01X18305Y8350D01*
G01X18310Y8350D01*
G01X18315Y8350D01*
G01X18320Y8351D01*
G01X18325Y8352D01*
G01X18330Y8353D01*
G01X18335Y8354D01*
G01X18340Y8355D01*
G01X18345Y8357D01*
G01X18350Y8358D01*
G01X18355Y8360D01*
G01X18359Y8362D01*
G01X18364Y8364D01*
G01X18369Y8366D01*
G01X18373Y8369D01*
G01X18377Y8371D01*
G01X18382Y8374D01*
G01X18386Y8377D01*
G01X18390Y8380D01*
G01X18394Y8383D01*
G01X18398Y8386D01*
G01X18402Y8390D01*
G01X18406Y8393D01*
G01X18412Y8400D01*
G01X19750Y8400D01*
G01X19755Y8400D01*
G01X19760Y8400D01*
G01X19765Y8400D01*
G01X19770Y8401D01*
G01X19775Y8402D01*
G01X19780Y8403D01*
G01X19785Y8404D01*
G01X19790Y8405D01*
G01X19795Y8407D01*
G01X19800Y8408D01*
G01X19805Y8410D01*
G01X19809Y8412D01*
G01X19814Y8414D01*
G01X19819Y8416D01*
G01X19823Y8419D01*
G01X19827Y8421D01*
G01X19832Y8424D01*
G01X19836Y8427D01*
G01X19840Y8430D01*
G01X19844Y8433D01*
G01X19848Y8436D01*
G01X19852Y8440D01*
G01X19856Y8443D01*
G01X20112Y8700D01*
G01X21186Y8700D01*
G01X21187Y8698D01*
G01X21203Y8683D01*
G01X21220Y8669D01*
G01X21239Y8657D01*
G01X21258Y8647D01*
G01X21279Y8639D01*
G01X21300Y8633D01*
G01X21322Y8629D01*
G01X21344Y8628D01*
G01X21366Y8628D01*
G01X21388Y8631D01*
G01X21410Y8636D01*
G01X21431Y8643D01*
G01X21451Y8652D01*
G01X21470Y8663D01*
G01X21488Y8676D01*
G01X21505Y8691D01*
G01X21520Y8707D01*
G01X21533Y8724D01*
G01X21544Y8743D01*
G01X21554Y8763D01*
G01X21562Y8784D01*
G01X21567Y8806D01*
G01X21570Y8827D01*
G01X21572Y8850D01*
G01X21570Y8872D01*
G01X21567Y8893D01*
G01X21562Y8915D01*
G01X21554Y8936D01*
G01X21544Y8956D01*
G01X21533Y8975D01*
G01X21520Y8992D01*
G01X21505Y9008D01*
G01X21488Y9023D01*
G01X21470Y9036D01*
G01X21451Y9047D01*
G01X21431Y9056D01*
G01X21410Y9063D01*
G01X21388Y9068D01*
G01X21366Y9071D01*
G01X21344Y9071D01*
G01X21322Y9070D01*
G01X21300Y9066D01*
G01X21279Y9060D01*
G01X21258Y9052D01*
G01X21239Y9042D01*
G01X21220Y9030D01*
G01X21203Y9016D01*
G01X21187Y9001D01*
G01X21186Y9000D01*
G01X20050Y9000D01*
G01X20044Y8999D01*
G01X20039Y8999D01*
G01X20034Y8999D01*
G01X20029Y8998D01*
G01X20024Y8997D01*
G01X20019Y8996D01*
G01X20014Y8995D01*
G01X20009Y8994D01*
G01X20004Y8992D01*
G01X19999Y8991D01*
G01X19994Y8989D01*
G01X19990Y8987D01*
G01X19985Y8985D01*
G01X19980Y8983D01*
G01X19976Y8980D01*
G01X19972Y8978D01*
G01X19967Y8975D01*
G01X19963Y8972D01*
G01X19959Y8969D01*
G01X19955Y8966D01*
G01X19951Y8963D01*
G01X19947Y8959D01*
G01X19943Y8956D01*
G01X19687Y8700D01*
G01X18350Y8700D01*
G01X18344Y8699D01*
G01X18339Y8699D01*
G01X18334Y8699D01*
G01X18329Y8698D01*
G01X18324Y8697D01*
G01X18319Y8696D01*
G01X18314Y8695D01*
G01X18309Y8694D01*
G01X18304Y8692D01*
G01X18299Y8691D01*
G01X18294Y8689D01*
G01X18290Y8687D01*
G01X18285Y8685D01*
G01X18280Y8683D01*
G01X18276Y8680D01*
G01X18272Y8678D01*
G01X18267Y8675D01*
G01X18263Y8672D01*
G01X18259Y8669D01*
G01X18255Y8666D01*
G01X18251Y8663D01*
G01X18247Y8659D01*
G01X18243Y8656D01*
G01X18237Y8650D01*
G01X17500Y8650D01*
G01X17494Y8649D01*
G01X17489Y8649D01*
G01X17484Y8649D01*
G01X17479Y8648D01*
G01X17474Y8647D01*
G01X17469Y8646D01*
G01X17464Y8645D01*
G01X17459Y8644D01*
G01X17454Y8642D01*
G01X17449Y8641D01*
G01X17444Y8639D01*
G01X17440Y8637D01*
G01X17435Y8635D01*
G01X17430Y8633D01*
G01X17426Y8630D01*
G01X17422Y8628D01*
G01X17417Y8625D01*
G01X17413Y8622D01*
G01X17409Y8619D01*
G01X17405Y8616D01*
G01X17401Y8613D01*
G01X17397Y8609D01*
G01X17393Y8606D01*
G01X17037Y8250D01*
G01X11062Y8250D01*
G01X10900Y8412D01*
G01X10900Y9400D01*
G01X10899Y9405D01*
G01X10899Y9410D01*
G01X10899Y9415D01*
G01X10898Y9420D01*
G01X10897Y9425D01*
G01X10896Y9430D01*
G01X10895Y9435D01*
G01X10894Y9440D01*
G01X10892Y9445D01*
G01X10891Y9450D01*
G01X10889Y9455D01*
G01X10887Y9459D01*
G01X10885Y9464D01*
G01X10883Y9469D01*
G01X10880Y9473D01*
G01X10878Y9477D01*
G01X10875Y9482D01*
G01X10872Y9486D01*
G01X10869Y9490D01*
G01X10866Y9494D01*
G01X10863Y9498D01*
G01X10859Y9502D01*
G01X10856Y9506D01*
G01X10750Y9612D01*
G01X10750Y11287D01*
G01X10806Y11343D01*
G01X10809Y11347D01*
G01X10813Y11351D01*
G01X10816Y11355D01*
G01X10819Y11359D01*
G01X10822Y11363D01*
G01X10825Y11367D01*
G01X10828Y11372D01*
G01X10830Y11376D01*
G01X10833Y11380D01*
G01X10835Y11385D01*
G01X10837Y11390D01*
G01X10839Y11394D01*
G01X10841Y11399D01*
G01X10842Y11404D01*
G01X10844Y11409D01*
G01X10845Y11414D01*
G01X10846Y11419D01*
G01X10847Y11424D01*
G01X10848Y11429D01*
G01X10849Y11434D01*
G01X10849Y11439D01*
G01X10849Y11444D01*
G01X10850Y11450D01*
G01X10850Y13136D01*
G01X10855Y13141D01*
G01X10870Y13157D01*
G01X10883Y13174D01*
G01X10894Y13193D01*
G01X10904Y13213D01*
G01X10912Y13234D01*
G01X10917Y13256D01*
G01X10920Y13277D01*
G01X10922Y13300D01*
G01X10920Y13322D01*
G01X10917Y13343D01*
G01X10912Y13365D01*
G01X10904Y13386D01*
G01X10894Y13406D01*
G01X10883Y13425D01*
G01X10870Y13442D01*
G01X10855Y13458D01*
G01X10838Y13473D01*
G01X10820Y13486D01*
G01X10801Y13497D01*
G01X10781Y13506D01*
G01X10760Y13513D01*
G01X10738Y13518D01*
G01X10716Y13521D01*
G01X10694Y13521D01*
G01X10672Y13520D01*
G01X10650Y13516D01*
G01X10629Y13510D01*
G01X10608Y13502D01*
G01X10589Y13492D01*
G01X10570Y13480D01*
G01X10553Y13466D01*
G01X10537Y13451D01*
G01X10523Y13434D01*
G01X10510Y13415D01*
G01X10499Y13396D01*
G01X10491Y13375D01*
G01X10484Y13354D01*
G01X10480Y13333D01*
G01X10478Y13311D01*
G01X10478Y13288D01*
G01X10480Y13266D01*
G01X10484Y13245D01*
G01X10491Y13224D01*
G01X10499Y13203D01*
G01X10510Y13184D01*
G01X10523Y13165D01*
G01X10537Y13148D01*
G01X10550Y13136D01*
G01X10550Y11512D01*
G01X10493Y11456D01*
G01X10490Y11452D01*
G01X10486Y11448D01*
G01X10483Y11444D01*
G01X10480Y11440D01*
G01X10477Y11436D01*
G01X10474Y11432D01*
G01X10471Y11427D01*
G01X10469Y11423D01*
G01X10466Y11419D01*
G01X10464Y11414D01*
G01X10462Y11409D01*
G01X10460Y11405D01*
G01X10458Y11400D01*
G01X10457Y11395D01*
G01X10455Y11390D01*
G01X10454Y11385D01*
G01X10453Y11380D01*
G01X10452Y11375D01*
G01X10451Y11370D01*
G01X10450Y11365D01*
G01X10450Y11360D01*
G01X10450Y11355D01*
G01X10450Y11350D01*
G01X10450Y11245D01*
G01X10444Y11256D01*
G01X10433Y11275D01*
G01X10420Y11292D01*
G01X10405Y11308D01*
G01X10388Y11323D01*
G01X10370Y11336D01*
G01X10351Y11347D01*
G01X10331Y11356D01*
G01X10310Y11363D01*
G01X10288Y11368D01*
G01X10266Y11371D01*
G01X10244Y11371D01*
G01X10222Y11370D01*
G01X10200Y11366D01*
G01X10179Y11360D01*
G01X10158Y11352D01*
G01X10139Y11342D01*
G01X10127Y11335D01*
G01X10086Y11345D01*
G01X10080Y11346D01*
G01X10074Y11348D01*
G01X10068Y11348D01*
G01X10062Y11349D01*
G01X10056Y11349D01*
G01X10050Y11350D01*
G01X9163Y11350D01*
G01X9155Y11358D01*
G01X9138Y11373D01*
G01X9120Y11386D01*
G01X9101Y11397D01*
G01X9081Y11406D01*
G01X9060Y11413D01*
G01X9038Y11418D01*
G01X9016Y11421D01*
G01X8994Y11421D01*
G01X8972Y11420D01*
G01X8950Y11416D01*
G01X8929Y11410D01*
G01X8908Y11402D01*
G01X8889Y11392D01*
G01X8870Y11380D01*
G01X8853Y11366D01*
G01X8837Y11351D01*
G01X8823Y11334D01*
G01X8810Y11315D01*
G01X8799Y11296D01*
G01X8791Y11275D01*
G01X8784Y11254D01*
G01X8780Y11233D01*
G01X8778Y11211D01*
G01X8778Y11188D01*
G01X8780Y11166D01*
G01X8784Y11145D01*
G01X8791Y11124D01*
G01X8799Y11103D01*
G01X8810Y11084D01*
G01X8823Y11065D01*
G01X8837Y11048D01*
G01X8853Y11033D01*
G01X8870Y11019D01*
G01X8889Y11007D01*
G01X8908Y10997D01*
G01X8929Y10989D01*
G01X8950Y10983D01*
G01X8972Y10979D01*
G01X8994Y10978D01*
G01X9016Y10978D01*
G01X9038Y10981D01*
G01X9060Y10986D01*
G01X9081Y10993D01*
G01X9101Y11002D01*
G01X9120Y11013D01*
G01X9138Y11026D01*
G01X9155Y11041D01*
G01X9163Y11050D01*
G01X10031Y11050D01*
G01X10055Y11044D01*
G01X10060Y11034D01*
G01X10073Y11015D01*
G01X10087Y10998D01*
G01X10103Y10983D01*
G01X10120Y10969D01*
G01X10139Y10957D01*
G01X10158Y10947D01*
G01X10179Y10939D01*
G01X10200Y10933D01*
G01X10222Y10929D01*
G01X10244Y10928D01*
G01X10266Y10928D01*
G01X10288Y10931D01*
G01X10310Y10936D01*
G01X10331Y10943D01*
G01X10351Y10952D01*
G01X10370Y10963D01*
G01X10388Y10976D01*
G01X10405Y10991D01*
G01X10420Y11007D01*
G01X10433Y11024D01*
G01X10444Y11043D01*
G01X10450Y11054D01*
G01X10450Y9550D01*
G01X10450Y9544D01*
G01X10450Y9539D01*
G01X10450Y9534D01*
G01X10451Y9529D01*
G01X10452Y9524D01*
G01X10453Y9519D01*
G01X10454Y9514D01*
G01X10455Y9509D01*
G01X10457Y9504D01*
G01X10458Y9499D01*
G01X10460Y9494D01*
G01X10462Y9490D01*
G01X10464Y9485D01*
G01X10466Y9480D01*
G01X10469Y9476D01*
G01X10471Y9472D01*
G01X10474Y9467D01*
G01X10477Y9463D01*
G01X10480Y9459D01*
G01X10483Y9455D01*
G01X10486Y9451D01*
G01X10490Y9447D01*
G01X10493Y9443D01*
G01X10600Y9337D01*
G01X10600Y8350D01*
G01X10600Y8344D01*
G01X10600Y8339D01*
G01X10600Y8334D01*
G01X10601Y8329D01*
G01X10602Y8324D01*
G01X10603Y8319D01*
G01X10604Y8314D01*
G01X10605Y8309D01*
G01X10607Y8304D01*
G01X10608Y8299D01*
G01X10610Y8294D01*
G01X10612Y8290D01*
G01X10614Y8285D01*
G01X10616Y8280D01*
G01X10619Y8276D01*
G01X10621Y8272D01*
G01X10624Y8267D01*
G01X10627Y8263D01*
G01X10630Y8259D01*
G01X10633Y8255D01*
G01X10636Y8251D01*
G01X10640Y8247D01*
G01X10643Y8243D01*
G01X10893Y7993D01*
G01X10897Y7990D01*
G01X10901Y7986D01*
G01X10905Y7983D01*
G01X10909Y7980D01*
G01X10913Y7977D01*
G01X10917Y7974D01*
G01X10922Y7971D01*
G01X10926Y7969D01*
G01X10930Y7966D01*
G01X10935Y7964D01*
G01X10940Y7962D01*
G01X10944Y7960D01*
G01X10949Y7958D01*
G01X10954Y7957D01*
G01X10959Y7955D01*
G01X10964Y7954D01*
G01X10969Y7953D01*
G01X10974Y7952D01*
G01X10979Y7951D01*
G01X10984Y7950D01*
G01X10989Y7950D01*
G01X10994Y7950D01*
G01X11000Y7950D01*
G37*
G36*
G01X2112Y24550D02*
G01X2262Y24554D01*
G01X2410Y24572D01*
G01X2556Y24606D01*
G01X2698Y24653D01*
G01X2834Y24715D01*
G01X2963Y24789D01*
G01X3085Y24877D01*
G01X3197Y24976D01*
G01X3299Y25085D01*
G01X3389Y25205D01*
G01X3467Y25332D01*
G01X3532Y25467D01*
G01X3583Y25607D01*
G01X3620Y25752D01*
G01X3642Y25900D01*
G01X3650Y26050D01*
G01X3642Y26199D01*
G01X3620Y26347D01*
G01X3583Y26492D01*
G01X3532Y26632D01*
G01X3467Y26767D01*
G01X3389Y26894D01*
G01X3299Y27014D01*
G01X3197Y27123D01*
G01X3085Y27222D01*
G01X2963Y27310D01*
G01X2834Y27384D01*
G01X2698Y27446D01*
G01X2556Y27493D01*
G01X2410Y27527D01*
G01X2262Y27545D01*
G01X2112Y27549D01*
G01X1963Y27538D01*
G01X1816Y27512D01*
G01X1672Y27471D01*
G01X1533Y27417D01*
G01X1400Y27349D01*
G01X1274Y27267D01*
G01X1157Y27174D01*
G01X1050Y27070D01*
G01X954Y26955D01*
G01X870Y26832D01*
G01X798Y26700D01*
G01X740Y26563D01*
G01X696Y26420D01*
G01X666Y26273D01*
G01X651Y26124D01*
G01X651Y25975D01*
G01X666Y25826D01*
G01X696Y25679D01*
G01X740Y25536D01*
G01X798Y25399D01*
G01X870Y25267D01*
G01X954Y25144D01*
G01X1050Y25029D01*
G01X1157Y24925D01*
G01X1274Y24832D01*
G01X1400Y24750D01*
G01X1533Y24682D01*
G01X1672Y24628D01*
G01X1816Y24587D01*
G01X1963Y24561D01*
G01X2112Y24550D01*
G37*
G36*
G01X15455Y8290D02*
G01X15610Y8290D01*
G01X15614Y8290D01*
G01X15618Y8290D01*
G01X15622Y8290D01*
G01X15626Y8291D01*
G01X15630Y8292D01*
G01X15634Y8293D01*
G01X15638Y8294D01*
G01X15642Y8295D01*
G01X15646Y8296D01*
G01X15650Y8298D01*
G01X15653Y8300D01*
G01X15657Y8302D01*
G01X15661Y8304D01*
G01X15664Y8306D01*
G01X15668Y8308D01*
G01X15671Y8311D01*
G01X15674Y8313D01*
G01X15677Y8316D01*
G01X15680Y8319D01*
G01X15683Y8322D01*
G01X15686Y8325D01*
G01X15688Y8328D01*
G01X15691Y8331D01*
G01X15693Y8335D01*
G01X15695Y8338D01*
G01X15697Y8342D01*
G01X15699Y8346D01*
G01X15701Y8349D01*
G01X15703Y8353D01*
G01X15704Y8357D01*
G01X15705Y8361D01*
G01X15706Y8365D01*
G01X15707Y8369D01*
G01X15708Y8373D01*
G01X15709Y8377D01*
G01X15709Y8381D01*
G01X15709Y8385D01*
G01X15710Y8390D01*
G01X15710Y8544D01*
G01X15455Y8544D01*
G01X15455Y8290D01*
G37*
G36*
G01X14989Y8290D02*
G01X15144Y8290D01*
G01X15144Y8544D01*
G01X14889Y8544D01*
G01X14889Y8390D01*
G01X14890Y8385D01*
G01X14890Y8381D01*
G01X14890Y8377D01*
G01X14891Y8373D01*
G01X14892Y8369D01*
G01X14893Y8365D01*
G01X14894Y8361D01*
G01X14895Y8357D01*
G01X14896Y8353D01*
G01X14898Y8349D01*
G01X14900Y8346D01*
G01X14902Y8342D01*
G01X14904Y8338D01*
G01X14906Y8335D01*
G01X14908Y8331D01*
G01X14911Y8328D01*
G01X14913Y8325D01*
G01X14916Y8322D01*
G01X14919Y8319D01*
G01X14922Y8316D01*
G01X14925Y8313D01*
G01X14928Y8311D01*
G01X14931Y8308D01*
G01X14935Y8306D01*
G01X14938Y8304D01*
G01X14942Y8302D01*
G01X14946Y8300D01*
G01X14949Y8298D01*
G01X14953Y8296D01*
G01X14957Y8295D01*
G01X14961Y8294D01*
G01X14965Y8293D01*
G01X14969Y8292D01*
G01X14973Y8291D01*
G01X14977Y8290D01*
G01X14981Y8290D01*
G01X14985Y8290D01*
G01X14989Y8290D01*
G37*
G36*
G01X8789Y8290D02*
G01X9410Y8290D01*
G01X9414Y8290D01*
G01X9418Y8290D01*
G01X9422Y8290D01*
G01X9426Y8291D01*
G01X9430Y8292D01*
G01X9434Y8293D01*
G01X9438Y8294D01*
G01X9442Y8295D01*
G01X9446Y8296D01*
G01X9450Y8298D01*
G01X9453Y8300D01*
G01X9457Y8302D01*
G01X9461Y8304D01*
G01X9464Y8306D01*
G01X9468Y8308D01*
G01X9471Y8311D01*
G01X9474Y8313D01*
G01X9477Y8316D01*
G01X9480Y8319D01*
G01X9483Y8322D01*
G01X9486Y8325D01*
G01X9488Y8328D01*
G01X9491Y8331D01*
G01X9493Y8335D01*
G01X9495Y8338D01*
G01X9497Y8342D01*
G01X9499Y8346D01*
G01X9501Y8349D01*
G01X9503Y8353D01*
G01X9504Y8357D01*
G01X9505Y8361D01*
G01X9506Y8365D01*
G01X9507Y8369D01*
G01X9508Y8373D01*
G01X9509Y8377D01*
G01X9509Y8381D01*
G01X9509Y8385D01*
G01X9510Y8390D01*
G01X9510Y9009D01*
G01X9509Y9014D01*
G01X9509Y9018D01*
G01X9509Y9022D01*
G01X9508Y9026D01*
G01X9507Y9030D01*
G01X9506Y9034D01*
G01X9505Y9038D01*
G01X9504Y9042D01*
G01X9503Y9046D01*
G01X9501Y9050D01*
G01X9499Y9053D01*
G01X9497Y9057D01*
G01X9495Y9061D01*
G01X9493Y9064D01*
G01X9491Y9068D01*
G01X9488Y9071D01*
G01X9486Y9074D01*
G01X9483Y9077D01*
G01X9480Y9080D01*
G01X9477Y9083D01*
G01X9474Y9086D01*
G01X9471Y9088D01*
G01X9468Y9091D01*
G01X9464Y9093D01*
G01X9461Y9095D01*
G01X9457Y9097D01*
G01X9453Y9099D01*
G01X9450Y9101D01*
G01X9446Y9103D01*
G01X9442Y9104D01*
G01X9438Y9105D01*
G01X9434Y9106D01*
G01X9430Y9107D01*
G01X9426Y9108D01*
G01X9422Y9109D01*
G01X9418Y9109D01*
G01X9414Y9109D01*
G01X9410Y9109D01*
G01X8789Y9109D01*
G01X8785Y9109D01*
G01X8781Y9109D01*
G01X8777Y9109D01*
G01X8773Y9108D01*
G01X8769Y9107D01*
G01X8765Y9106D01*
G01X8761Y9105D01*
G01X8757Y9104D01*
G01X8753Y9103D01*
G01X8749Y9101D01*
G01X8746Y9099D01*
G01X8742Y9097D01*
G01X8738Y9095D01*
G01X8735Y9093D01*
G01X8731Y9091D01*
G01X8728Y9088D01*
G01X8725Y9086D01*
G01X8722Y9083D01*
G01X8719Y9080D01*
G01X8716Y9077D01*
G01X8713Y9074D01*
G01X8711Y9071D01*
G01X8708Y9068D01*
G01X8706Y9064D01*
G01X8704Y9061D01*
G01X8702Y9057D01*
G01X8700Y9053D01*
G01X8698Y9050D01*
G01X8696Y9046D01*
G01X8695Y9042D01*
G01X8694Y9038D01*
G01X8693Y9034D01*
G01X8692Y9030D01*
G01X8691Y9026D01*
G01X8690Y9022D01*
G01X8690Y9018D01*
G01X8690Y9014D01*
G01X8689Y9009D01*
G01X8689Y8390D01*
G01X8690Y8385D01*
G01X8690Y8381D01*
G01X8690Y8377D01*
G01X8691Y8373D01*
G01X8692Y8369D01*
G01X8693Y8365D01*
G01X8694Y8361D01*
G01X8695Y8357D01*
G01X8696Y8353D01*
G01X8698Y8349D01*
G01X8700Y8346D01*
G01X8702Y8342D01*
G01X8704Y8338D01*
G01X8706Y8335D01*
G01X8708Y8331D01*
G01X8711Y8328D01*
G01X8713Y8325D01*
G01X8716Y8322D01*
G01X8719Y8319D01*
G01X8722Y8316D01*
G01X8725Y8313D01*
G01X8728Y8311D01*
G01X8731Y8308D01*
G01X8735Y8306D01*
G01X8738Y8304D01*
G01X8742Y8302D01*
G01X8746Y8300D01*
G01X8749Y8298D01*
G01X8753Y8296D01*
G01X8757Y8295D01*
G01X8761Y8294D01*
G01X8765Y8293D01*
G01X8769Y8292D01*
G01X8773Y8291D01*
G01X8777Y8290D01*
G01X8781Y8290D01*
G01X8785Y8290D01*
G01X8789Y8290D01*
G37*
G36*
G01X11655Y8290D02*
G01X11810Y8290D01*
G01X11814Y8290D01*
G01X11818Y8290D01*
G01X11822Y8290D01*
G01X11826Y8291D01*
G01X11830Y8292D01*
G01X11834Y8293D01*
G01X11838Y8294D01*
G01X11842Y8295D01*
G01X11846Y8296D01*
G01X11850Y8298D01*
G01X11853Y8300D01*
G01X11857Y8302D01*
G01X11861Y8304D01*
G01X11864Y8306D01*
G01X11868Y8308D01*
G01X11871Y8311D01*
G01X11874Y8313D01*
G01X11877Y8316D01*
G01X11880Y8319D01*
G01X11883Y8322D01*
G01X11886Y8325D01*
G01X11888Y8328D01*
G01X11891Y8331D01*
G01X11893Y8335D01*
G01X11895Y8338D01*
G01X11897Y8342D01*
G01X11899Y8346D01*
G01X11901Y8349D01*
G01X11903Y8353D01*
G01X11904Y8357D01*
G01X11905Y8361D01*
G01X11906Y8365D01*
G01X11907Y8369D01*
G01X11908Y8373D01*
G01X11909Y8377D01*
G01X11909Y8381D01*
G01X11909Y8385D01*
G01X11910Y8390D01*
G01X11910Y8544D01*
G01X11655Y8544D01*
G01X11655Y8290D01*
G37*
G36*
G01X11189Y8290D02*
G01X11344Y8290D01*
G01X11344Y8544D01*
G01X11089Y8544D01*
G01X11089Y8390D01*
G01X11090Y8385D01*
G01X11090Y8381D01*
G01X11090Y8377D01*
G01X11091Y8373D01*
G01X11092Y8369D01*
G01X11093Y8365D01*
G01X11094Y8361D01*
G01X11095Y8357D01*
G01X11096Y8353D01*
G01X11098Y8349D01*
G01X11100Y8346D01*
G01X11102Y8342D01*
G01X11104Y8338D01*
G01X11106Y8335D01*
G01X11108Y8331D01*
G01X11111Y8328D01*
G01X11113Y8325D01*
G01X11116Y8322D01*
G01X11119Y8319D01*
G01X11122Y8316D01*
G01X11125Y8313D01*
G01X11128Y8311D01*
G01X11131Y8308D01*
G01X11135Y8306D01*
G01X11138Y8304D01*
G01X11142Y8302D01*
G01X11146Y8300D01*
G01X11149Y8298D01*
G01X11153Y8296D01*
G01X11157Y8295D01*
G01X11161Y8294D01*
G01X11165Y8293D01*
G01X11169Y8292D01*
G01X11173Y8291D01*
G01X11177Y8290D01*
G01X11181Y8290D01*
G01X11185Y8290D01*
G01X11189Y8290D01*
G37*
G36*
G01X16289Y8290D02*
G01X16330Y8291D01*
G01X16371Y8296D01*
G01X16411Y8305D01*
G01X16449Y8318D01*
G01X16487Y8335D01*
G01X16522Y8355D01*
G01X16555Y8379D01*
G01X16586Y8406D01*
G01X16614Y8436D01*
G01X16638Y8469D01*
G01X16657Y8500D01*
G01X16750Y8500D01*
G01X16756Y8500D01*
G01X16762Y8500D01*
G01X16768Y8500D01*
G01X16774Y8501D01*
G01X16780Y8502D01*
G01X16786Y8503D01*
G01X16791Y8504D01*
G01X16797Y8505D01*
G01X16803Y8507D01*
G01X16809Y8509D01*
G01X16815Y8510D01*
G01X16820Y8513D01*
G01X16826Y8515D01*
G01X16832Y8517D01*
G01X16837Y8520D01*
G01X16842Y8522D01*
G01X16848Y8525D01*
G01X16853Y8528D01*
G01X16858Y8532D01*
G01X16863Y8535D01*
G01X16868Y8538D01*
G01X16873Y8542D01*
G01X16878Y8546D01*
G01X16882Y8550D01*
G01X16887Y8554D01*
G01X16891Y8558D01*
G01X17091Y8758D01*
G01X17095Y8762D01*
G01X17099Y8767D01*
G01X17103Y8771D01*
G01X17107Y8776D01*
G01X17111Y8781D01*
G01X17114Y8786D01*
G01X17117Y8791D01*
G01X17121Y8796D01*
G01X17124Y8801D01*
G01X17127Y8807D01*
G01X17129Y8812D01*
G01X17132Y8817D01*
G01X17134Y8823D01*
G01X17136Y8829D01*
G01X17139Y8834D01*
G01X17140Y8840D01*
G01X17142Y8846D01*
G01X17144Y8852D01*
G01X17145Y8858D01*
G01X17146Y8863D01*
G01X17147Y8869D01*
G01X17148Y8875D01*
G01X17149Y8881D01*
G01X17149Y8887D01*
G01X17149Y8893D01*
G01X17150Y8900D01*
G01X17150Y9202D01*
G01X17158Y9197D01*
G01X17179Y9189D01*
G01X17200Y9183D01*
G01X17222Y9179D01*
G01X17244Y9178D01*
G01X17266Y9178D01*
G01X17288Y9181D01*
G01X17310Y9186D01*
G01X17331Y9193D01*
G01X17351Y9202D01*
G01X17370Y9213D01*
G01X17388Y9226D01*
G01X17405Y9241D01*
G01X17420Y9257D01*
G01X17433Y9274D01*
G01X17444Y9293D01*
G01X17454Y9313D01*
G01X17462Y9334D01*
G01X17467Y9356D01*
G01X17470Y9377D01*
G01X17472Y9400D01*
G01X17470Y9422D01*
G01X17467Y9443D01*
G01X17462Y9465D01*
G01X17454Y9486D01*
G01X17444Y9506D01*
G01X17433Y9525D01*
G01X17425Y9536D01*
G01X17425Y9827D01*
G01X17522Y9925D01*
G01X19027Y9925D01*
G01X19176Y9776D01*
G01X19180Y9772D01*
G01X19184Y9768D01*
G01X19188Y9764D01*
G01X19193Y9761D01*
G01X19198Y9757D01*
G01X19202Y9754D01*
G01X19207Y9751D01*
G01X19212Y9748D01*
G01X19217Y9745D01*
G01X19222Y9743D01*
G01X19227Y9740D01*
G01X19233Y9738D01*
G01X19238Y9736D01*
G01X19243Y9734D01*
G01X19249Y9732D01*
G01X19254Y9730D01*
G01X19260Y9729D01*
G01X19265Y9728D01*
G01X19271Y9727D01*
G01X19277Y9726D01*
G01X19282Y9725D01*
G01X19288Y9725D01*
G01X19294Y9725D01*
G01X19300Y9725D01*
G01X20950Y9725D01*
G01X20955Y9725D01*
G01X20961Y9725D01*
G01X20967Y9725D01*
G01X20972Y9726D01*
G01X20978Y9727D01*
G01X20984Y9728D01*
G01X20989Y9729D01*
G01X20995Y9730D01*
G01X21000Y9732D01*
G01X21006Y9734D01*
G01X21011Y9736D01*
G01X21016Y9738D01*
G01X21022Y9740D01*
G01X21027Y9743D01*
G01X21032Y9745D01*
G01X21037Y9748D01*
G01X21042Y9751D01*
G01X21047Y9754D01*
G01X21051Y9757D01*
G01X21056Y9761D01*
G01X21061Y9764D01*
G01X21065Y9768D01*
G01X21069Y9772D01*
G01X21073Y9776D01*
G01X21173Y9876D01*
G01X21177Y9880D01*
G01X21181Y9884D01*
G01X21185Y9888D01*
G01X21188Y9893D01*
G01X21192Y9898D01*
G01X21195Y9902D01*
G01X21198Y9907D01*
G01X21201Y9912D01*
G01X21204Y9917D01*
G01X21206Y9922D01*
G01X21209Y9927D01*
G01X21211Y9933D01*
G01X21213Y9938D01*
G01X21215Y9943D01*
G01X21217Y9949D01*
G01X21219Y9954D01*
G01X21220Y9960D01*
G01X21221Y9965D01*
G01X21222Y9971D01*
G01X21223Y9977D01*
G01X21224Y9982D01*
G01X21224Y9988D01*
G01X21224Y9994D01*
G01X21225Y10000D01*
G01X21225Y12750D01*
G01X21224Y12755D01*
G01X21224Y12761D01*
G01X21224Y12767D01*
G01X21223Y12772D01*
G01X21222Y12778D01*
G01X21221Y12784D01*
G01X21220Y12789D01*
G01X21219Y12795D01*
G01X21217Y12800D01*
G01X21215Y12806D01*
G01X21213Y12811D01*
G01X21211Y12816D01*
G01X21209Y12822D01*
G01X21206Y12827D01*
G01X21204Y12832D01*
G01X21201Y12837D01*
G01X21198Y12842D01*
G01X21195Y12847D01*
G01X21192Y12851D01*
G01X21188Y12856D01*
G01X21185Y12861D01*
G01X21181Y12865D01*
G01X21177Y12869D01*
G01X21173Y12873D01*
G01X21023Y13023D01*
G01X21019Y13027D01*
G01X21015Y13031D01*
G01X21011Y13035D01*
G01X21006Y13038D01*
G01X21001Y13042D01*
G01X20997Y13045D01*
G01X20992Y13048D01*
G01X20987Y13051D01*
G01X20982Y13054D01*
G01X20977Y13056D01*
G01X20972Y13059D01*
G01X20966Y13061D01*
G01X20961Y13063D01*
G01X20956Y13065D01*
G01X20950Y13067D01*
G01X20945Y13069D01*
G01X20939Y13070D01*
G01X20934Y13071D01*
G01X20928Y13072D01*
G01X20922Y13073D01*
G01X20917Y13074D01*
G01X20911Y13074D01*
G01X20905Y13074D01*
G01X20900Y13075D01*
G01X20275Y13075D01*
G01X20275Y13950D01*
G01X20274Y13955D01*
G01X20274Y13961D01*
G01X20274Y13967D01*
G01X20274Y13967D01*
G01X20274Y13967D01*
G01X20279Y13966D01*
G01X20292Y13965D01*
G01X20297Y13965D01*
G01X20310Y13965D01*
G01X20312Y13965D01*
G01X20667Y13965D01*
G01X20669Y13965D01*
G01X20682Y13965D01*
G01X20687Y13965D01*
G01X20700Y13966D01*
G01X20705Y13967D01*
G01X20717Y13968D01*
G01X20722Y13969D01*
G01X20735Y13971D01*
G01X20740Y13972D01*
G01X20752Y13975D01*
G01X20757Y13976D01*
G01X20769Y13980D01*
G01X20774Y13981D01*
G01X20786Y13985D01*
G01X20791Y13987D01*
G01X20803Y13992D01*
G01X20807Y13994D01*
G01X20819Y13999D01*
G01X20823Y14001D01*
G01X20835Y14007D01*
G01X20839Y14009D01*
G01X20850Y14016D01*
G01X20854Y14018D01*
G01X20865Y14025D01*
G01X20869Y14028D01*
G01X20880Y14035D01*
G01X20884Y14038D01*
G01X20893Y14046D01*
G01X20897Y14049D01*
G01X20907Y14058D01*
G01X20911Y14061D01*
G01X20920Y14070D01*
G01X20923Y14074D01*
G01X20932Y14083D01*
G01X20935Y14087D01*
G01X20943Y14097D01*
G01X20946Y14101D01*
G01X20954Y14111D01*
G01X20957Y14115D01*
G01X20964Y14125D01*
G01X20967Y14130D01*
G01X20974Y14140D01*
G01X20976Y14145D01*
G01X20982Y14156D01*
G01X20985Y14160D01*
G01X20990Y14172D01*
G01X20992Y14176D01*
G01X20997Y14188D01*
G01X20999Y14193D01*
G01X21003Y14205D01*
G01X21005Y14209D01*
G01X21009Y14222D01*
G01X21010Y14227D01*
G01X21013Y14239D01*
G01X21014Y14244D01*
G01X21017Y14256D01*
G01X21018Y14261D01*
G01X21019Y14274D01*
G01X21020Y14279D01*
G01X21021Y14291D01*
G01X21022Y14296D01*
G01X21022Y14309D01*
G01X21022Y14314D01*
G01X21022Y14327D01*
G01X21022Y14332D01*
G01X21022Y14345D01*
G01X21021Y14350D01*
G01X21020Y14362D01*
G01X21019Y14367D01*
G01X21018Y14380D01*
G01X21017Y14385D01*
G01X21014Y14397D01*
G01X21013Y14402D01*
G01X21010Y14414D01*
G01X21009Y14419D01*
G01X21005Y14432D01*
G01X21003Y14436D01*
G01X20999Y14448D01*
G01X20997Y14453D01*
G01X20992Y14465D01*
G01X20990Y14469D01*
G01X20985Y14481D01*
G01X20982Y14485D01*
G01X20976Y14496D01*
G01X20974Y14501D01*
G01X20967Y14511D01*
G01X20964Y14516D01*
G01X20957Y14526D01*
G01X20954Y14530D01*
G01X20946Y14540D01*
G01X20943Y14544D01*
G01X20935Y14554D01*
G01X20932Y14558D01*
G01X20923Y14567D01*
G01X20920Y14571D01*
G01X20911Y14580D01*
G01X20907Y14583D01*
G01X20897Y14592D01*
G01X20893Y14595D01*
G01X20884Y14603D01*
G01X20880Y14606D01*
G01X20869Y14613D01*
G01X20865Y14616D01*
G01X20854Y14623D01*
G01X20850Y14625D01*
G01X20839Y14632D01*
G01X20835Y14634D01*
G01X20823Y14640D01*
G01X20819Y14642D01*
G01X20807Y14648D01*
G01X20803Y14649D01*
G01X20791Y14654D01*
G01X20786Y14656D01*
G01X20774Y14660D01*
G01X20769Y14661D01*
G01X20757Y14665D01*
G01X20752Y14666D01*
G01X20740Y14669D01*
G01X20735Y14670D01*
G01X20722Y14672D01*
G01X20717Y14673D01*
G01X20705Y14674D01*
G01X20700Y14675D01*
G01X20687Y14676D01*
G01X20682Y14676D01*
G01X20669Y14676D01*
G01X20667Y14676D01*
G01X20312Y14676D01*
G01X20310Y14676D01*
G01X20297Y14676D01*
G01X20292Y14676D01*
G01X20279Y14675D01*
G01X20274Y14674D01*
G01X20262Y14673D01*
G01X20257Y14672D01*
G01X20244Y14670D01*
G01X20239Y14669D01*
G01X20227Y14666D01*
G01X20222Y14665D01*
G01X20210Y14661D01*
G01X20205Y14660D01*
G01X20193Y14656D01*
G01X20188Y14654D01*
G01X20176Y14649D01*
G01X20172Y14648D01*
G01X20160Y14642D01*
G01X20156Y14640D01*
G01X20144Y14634D01*
G01X20140Y14632D01*
G01X20129Y14625D01*
G01X20125Y14623D01*
G01X20114Y14616D01*
G01X20110Y14613D01*
G01X20099Y14606D01*
G01X20096Y14603D01*
G01X20086Y14595D01*
G01X20082Y14592D01*
G01X20072Y14583D01*
G01X20068Y14580D01*
G01X20059Y14571D01*
G01X20056Y14567D01*
G01X20047Y14558D01*
G01X20044Y14554D01*
G01X20036Y14544D01*
G01X20033Y14540D01*
G01X20025Y14530D01*
G01X20022Y14526D01*
G01X20015Y14516D01*
G01X20012Y14511D01*
G01X20005Y14501D01*
G01X20003Y14496D01*
G01X19997Y14485D01*
G01X19994Y14481D01*
G01X19989Y14469D01*
G01X19987Y14465D01*
G01X19982Y14453D01*
G01X19980Y14448D01*
G01X19976Y14436D01*
G01X19974Y14432D01*
G01X19970Y14419D01*
G01X19969Y14414D01*
G01X19966Y14402D01*
G01X19965Y14397D01*
G01X19962Y14385D01*
G01X19961Y14380D01*
G01X19960Y14367D01*
G01X19959Y14362D01*
G01X19958Y14350D01*
G01X19957Y14345D01*
G01X19957Y14339D01*
G01X19775Y14522D01*
G01X19775Y14877D01*
G01X20123Y15226D01*
G01X20127Y15230D01*
G01X20131Y15234D01*
G01X20135Y15238D01*
G01X20138Y15243D01*
G01X20142Y15248D01*
G01X20145Y15252D01*
G01X20148Y15257D01*
G01X20151Y15262D01*
G01X20154Y15267D01*
G01X20156Y15272D01*
G01X20159Y15277D01*
G01X20161Y15283D01*
G01X20163Y15288D01*
G01X20165Y15293D01*
G01X20167Y15299D01*
G01X20169Y15304D01*
G01X20170Y15310D01*
G01X20171Y15315D01*
G01X20172Y15321D01*
G01X20173Y15327D01*
G01X20174Y15332D01*
G01X20174Y15338D01*
G01X20174Y15344D01*
G01X20175Y15350D01*
G01X20175Y16877D01*
G01X20618Y17321D01*
G01X20620Y17319D01*
G01X20639Y17307D01*
G01X20658Y17297D01*
G01X20679Y17289D01*
G01X20700Y17283D01*
G01X20722Y17279D01*
G01X20744Y17278D01*
G01X20766Y17278D01*
G01X20788Y17281D01*
G01X20810Y17286D01*
G01X20831Y17293D01*
G01X20851Y17302D01*
G01X20870Y17313D01*
G01X20888Y17326D01*
G01X20905Y17341D01*
G01X20920Y17357D01*
G01X20933Y17374D01*
G01X20944Y17393D01*
G01X20954Y17413D01*
G01X20962Y17434D01*
G01X20967Y17456D01*
G01X20970Y17477D01*
G01X20972Y17500D01*
G01X20970Y17522D01*
G01X20967Y17543D01*
G01X20962Y17565D01*
G01X20954Y17586D01*
G01X20944Y17606D01*
G01X20933Y17625D01*
G01X20920Y17642D01*
G01X20905Y17658D01*
G01X20888Y17673D01*
G01X20870Y17686D01*
G01X20851Y17697D01*
G01X20831Y17706D01*
G01X20810Y17713D01*
G01X20788Y17718D01*
G01X20766Y17721D01*
G01X20744Y17721D01*
G01X20722Y17720D01*
G01X20700Y17716D01*
G01X20679Y17710D01*
G01X20668Y17706D01*
G01X20806Y17843D01*
G01X20809Y17847D01*
G01X20813Y17851D01*
G01X20816Y17855D01*
G01X20819Y17859D01*
G01X20822Y17863D01*
G01X20825Y17867D01*
G01X20828Y17872D01*
G01X20830Y17876D01*
G01X20833Y17880D01*
G01X20835Y17885D01*
G01X20837Y17890D01*
G01X20839Y17894D01*
G01X20841Y17899D01*
G01X20842Y17904D01*
G01X20844Y17909D01*
G01X20845Y17914D01*
G01X20846Y17919D01*
G01X20847Y17924D01*
G01X20848Y17929D01*
G01X20849Y17934D01*
G01X20849Y17939D01*
G01X20849Y17944D01*
G01X20850Y17950D01*
G01X20850Y19787D01*
G01X21240Y20178D01*
G01X21244Y20178D01*
G01X21266Y20178D01*
G01X21288Y20181D01*
G01X21310Y20186D01*
G01X21331Y20193D01*
G01X21351Y20202D01*
G01X21370Y20213D01*
G01X21388Y20226D01*
G01X21405Y20241D01*
G01X21420Y20257D01*
G01X21433Y20274D01*
G01X21444Y20293D01*
G01X21454Y20313D01*
G01X21462Y20334D01*
G01X21467Y20356D01*
G01X21470Y20377D01*
G01X21472Y20400D01*
G01X21470Y20422D01*
G01X21467Y20443D01*
G01X21462Y20465D01*
G01X21454Y20486D01*
G01X21444Y20506D01*
G01X21433Y20525D01*
G01X21420Y20542D01*
G01X21405Y20558D01*
G01X21388Y20573D01*
G01X21370Y20586D01*
G01X21351Y20597D01*
G01X21331Y20606D01*
G01X21310Y20613D01*
G01X21288Y20618D01*
G01X21266Y20621D01*
G01X21244Y20621D01*
G01X21222Y20620D01*
G01X21200Y20616D01*
G01X21179Y20610D01*
G01X21158Y20602D01*
G01X21139Y20592D01*
G01X21120Y20580D01*
G01X21103Y20566D01*
G01X21087Y20551D01*
G01X21073Y20534D01*
G01X21060Y20515D01*
G01X21049Y20496D01*
G01X21041Y20475D01*
G01X21034Y20454D01*
G01X21030Y20433D01*
G01X21028Y20411D01*
G01X21028Y20390D01*
G01X20593Y19956D01*
G01X20590Y19952D01*
G01X20586Y19948D01*
G01X20583Y19944D01*
G01X20580Y19940D01*
G01X20577Y19936D01*
G01X20574Y19932D01*
G01X20571Y19927D01*
G01X20569Y19923D01*
G01X20566Y19919D01*
G01X20564Y19914D01*
G01X20562Y19909D01*
G01X20560Y19905D01*
G01X20558Y19900D01*
G01X20557Y19895D01*
G01X20555Y19890D01*
G01X20554Y19885D01*
G01X20553Y19880D01*
G01X20552Y19875D01*
G01X20551Y19870D01*
G01X20550Y19865D01*
G01X20550Y19860D01*
G01X20550Y19855D01*
G01X20550Y19850D01*
G01X20550Y18012D01*
G01X20337Y17800D01*
G01X19162Y17800D01*
G01X19106Y17856D01*
G01X19102Y17859D01*
G01X19098Y17863D01*
G01X19094Y17866D01*
G01X19090Y17869D01*
G01X19086Y17872D01*
G01X19082Y17875D01*
G01X19077Y17878D01*
G01X19073Y17880D01*
G01X19069Y17883D01*
G01X19064Y17885D01*
G01X19059Y17887D01*
G01X19055Y17889D01*
G01X19050Y17891D01*
G01X19045Y17892D01*
G01X19040Y17894D01*
G01X19035Y17895D01*
G01X19030Y17896D01*
G01X19025Y17897D01*
G01X19020Y17898D01*
G01X19015Y17899D01*
G01X19010Y17899D01*
G01X19005Y17899D01*
G01X19000Y17900D01*
G01X16000Y17900D01*
G01X15994Y17899D01*
G01X15989Y17899D01*
G01X15984Y17899D01*
G01X15979Y17898D01*
G01X15974Y17897D01*
G01X15969Y17896D01*
G01X15964Y17895D01*
G01X15959Y17894D01*
G01X15954Y17892D01*
G01X15949Y17891D01*
G01X15944Y17889D01*
G01X15940Y17887D01*
G01X15935Y17885D01*
G01X15930Y17883D01*
G01X15926Y17880D01*
G01X15922Y17878D01*
G01X15917Y17875D01*
G01X15913Y17872D01*
G01X15909Y17869D01*
G01X15905Y17866D01*
G01X15901Y17863D01*
G01X15897Y17859D01*
G01X15893Y17856D01*
G01X15793Y17756D01*
G01X15790Y17752D01*
G01X15786Y17748D01*
G01X15783Y17744D01*
G01X15780Y17740D01*
G01X15777Y17736D01*
G01X15774Y17732D01*
G01X15771Y17727D01*
G01X15769Y17723D01*
G01X15766Y17719D01*
G01X15764Y17714D01*
G01X15762Y17709D01*
G01X15760Y17705D01*
G01X15758Y17700D01*
G01X15757Y17695D01*
G01X15755Y17690D01*
G01X15754Y17685D01*
G01X15753Y17680D01*
G01X15752Y17675D01*
G01X15751Y17670D01*
G01X15750Y17665D01*
G01X15750Y17660D01*
G01X15750Y17655D01*
G01X15750Y17650D01*
G01X15750Y16250D01*
G01X15750Y16244D01*
G01X15750Y16239D01*
G01X15750Y16234D01*
G01X15751Y16229D01*
G01X15752Y16224D01*
G01X15753Y16219D01*
G01X15754Y16214D01*
G01X15755Y16209D01*
G01X15757Y16204D01*
G01X15758Y16199D01*
G01X15760Y16194D01*
G01X15762Y16190D01*
G01X15764Y16185D01*
G01X15766Y16180D01*
G01X15769Y16176D01*
G01X15771Y16172D01*
G01X15774Y16167D01*
G01X15777Y16163D01*
G01X15780Y16159D01*
G01X15783Y16155D01*
G01X15786Y16151D01*
G01X15790Y16147D01*
G01X15793Y16143D01*
G01X15887Y16050D01*
G01X15350Y16050D01*
G01X15344Y16049D01*
G01X15339Y16049D01*
G01X15334Y16049D01*
G01X15329Y16048D01*
G01X15324Y16047D01*
G01X15319Y16046D01*
G01X15314Y16045D01*
G01X15309Y16044D01*
G01X15304Y16042D01*
G01X15299Y16041D01*
G01X15294Y16039D01*
G01X15289Y16037D01*
G01X15284Y16035D01*
G01X15280Y16032D01*
G01X15275Y16030D01*
G01X15271Y16027D01*
G01X15266Y16024D01*
G01X15154Y15950D01*
G01X13011Y15950D01*
G01X12873Y16086D01*
G01X12869Y16090D01*
G01X12865Y16093D01*
G01X12861Y16097D01*
G01X12857Y16100D01*
G01X12853Y16103D01*
G01X12848Y16106D01*
G01X12844Y16109D01*
G01X12839Y16111D01*
G01X12834Y16114D01*
G01X12829Y16116D01*
G01X12825Y16118D01*
G01X12820Y16120D01*
G01X12815Y16122D01*
G01X12809Y16124D01*
G01X12804Y16125D01*
G01X12799Y16126D01*
G01X12794Y16127D01*
G01X12789Y16128D01*
G01X12783Y16129D01*
G01X12778Y16129D01*
G01X12773Y16129D01*
G01X12768Y16130D01*
G01X11442Y16130D01*
G01X11806Y16493D01*
G01X11809Y16497D01*
G01X11813Y16501D01*
G01X11816Y16505D01*
G01X11819Y16509D01*
G01X11822Y16513D01*
G01X11825Y16517D01*
G01X11828Y16522D01*
G01X11830Y16526D01*
G01X11833Y16530D01*
G01X11835Y16535D01*
G01X11837Y16540D01*
G01X11839Y16544D01*
G01X11841Y16549D01*
G01X11842Y16554D01*
G01X11844Y16559D01*
G01X11845Y16564D01*
G01X11846Y16569D01*
G01X11847Y16574D01*
G01X11848Y16579D01*
G01X11849Y16584D01*
G01X11849Y16589D01*
G01X11849Y16594D01*
G01X11850Y16600D01*
G01X11850Y17037D01*
G01X11862Y17050D01*
G01X12587Y17050D01*
G01X12600Y17037D01*
G01X12600Y16900D01*
G01X12600Y16894D01*
G01X12600Y16889D01*
G01X12600Y16884D01*
G01X12601Y16879D01*
G01X12602Y16874D01*
G01X12603Y16869D01*
G01X12604Y16864D01*
G01X12605Y16859D01*
G01X12607Y16854D01*
G01X12608Y16849D01*
G01X12610Y16844D01*
G01X12612Y16840D01*
G01X12614Y16835D01*
G01X12616Y16830D01*
G01X12619Y16826D01*
G01X12621Y16822D01*
G01X12624Y16817D01*
G01X12627Y16813D01*
G01X12630Y16809D01*
G01X12633Y16805D01*
G01X12636Y16801D01*
G01X12640Y16797D01*
G01X12643Y16793D01*
G01X12793Y16643D01*
G01X12797Y16640D01*
G01X12801Y16636D01*
G01X12805Y16633D01*
G01X12809Y16630D01*
G01X12813Y16627D01*
G01X12817Y16624D01*
G01X12822Y16621D01*
G01X12826Y16619D01*
G01X12830Y16616D01*
G01X12835Y16614D01*
G01X12840Y16612D01*
G01X12844Y16610D01*
G01X12849Y16608D01*
G01X12854Y16607D01*
G01X12859Y16605D01*
G01X12864Y16604D01*
G01X12869Y16603D01*
G01X12874Y16602D01*
G01X12879Y16601D01*
G01X12884Y16600D01*
G01X12889Y16600D01*
G01X12894Y16600D01*
G01X12900Y16600D01*
G01X15250Y16600D01*
G01X15255Y16600D01*
G01X15260Y16600D01*
G01X15265Y16600D01*
G01X15270Y16601D01*
G01X15275Y16602D01*
G01X15280Y16603D01*
G01X15285Y16604D01*
G01X15290Y16605D01*
G01X15295Y16607D01*
G01X15300Y16608D01*
G01X15305Y16610D01*
G01X15309Y16612D01*
G01X15314Y16614D01*
G01X15319Y16616D01*
G01X15323Y16619D01*
G01X15327Y16621D01*
G01X15332Y16624D01*
G01X15336Y16627D01*
G01X15340Y16630D01*
G01X15344Y16633D01*
G01X15348Y16636D01*
G01X15352Y16640D01*
G01X15356Y16643D01*
G01X15420Y16708D01*
G01X15424Y16708D01*
G01X15446Y16708D01*
G01X15468Y16711D01*
G01X15490Y16716D01*
G01X15511Y16723D01*
G01X15531Y16732D01*
G01X15550Y16743D01*
G01X15568Y16756D01*
G01X15585Y16771D01*
G01X15600Y16787D01*
G01X15613Y16804D01*
G01X15624Y16823D01*
G01X15634Y16843D01*
G01X15642Y16864D01*
G01X15647Y16886D01*
G01X15650Y16907D01*
G01X15652Y16930D01*
G01X15650Y16952D01*
G01X15647Y16973D01*
G01X15642Y16995D01*
G01X15634Y17016D01*
G01X15624Y17036D01*
G01X15613Y17055D01*
G01X15600Y17072D01*
G01X15585Y17088D01*
G01X15568Y17103D01*
G01X15550Y17116D01*
G01X15531Y17127D01*
G01X15530Y17127D01*
G01X15500Y17167D01*
G01X15500Y17967D01*
G01X15732Y18200D01*
G01X17054Y18200D01*
G01X17058Y18197D01*
G01X17079Y18189D01*
G01X17100Y18183D01*
G01X17122Y18179D01*
G01X17144Y18178D01*
G01X17166Y18178D01*
G01X17188Y18181D01*
G01X17210Y18186D01*
G01X17231Y18193D01*
G01X17251Y18202D01*
G01X17270Y18213D01*
G01X17288Y18226D01*
G01X17305Y18241D01*
G01X17320Y18257D01*
G01X17333Y18274D01*
G01X17344Y18293D01*
G01X17354Y18313D01*
G01X17362Y18334D01*
G01X17367Y18356D01*
G01X17370Y18377D01*
G01X17372Y18400D01*
G01X17370Y18422D01*
G01X17367Y18443D01*
G01X17362Y18465D01*
G01X17354Y18486D01*
G01X17344Y18506D01*
G01X17333Y18525D01*
G01X17320Y18542D01*
G01X17305Y18558D01*
G01X17288Y18573D01*
G01X17270Y18586D01*
G01X17251Y18597D01*
G01X17231Y18606D01*
G01X17210Y18613D01*
G01X17188Y18618D01*
G01X17166Y18621D01*
G01X17144Y18621D01*
G01X17122Y18620D01*
G01X17100Y18616D01*
G01X17079Y18610D01*
G01X17058Y18602D01*
G01X17054Y18600D01*
G01X15650Y18600D01*
G01X15646Y18599D01*
G01X15642Y18599D01*
G01X15641Y18599D01*
G01X15640Y18599D01*
G01X15636Y18599D01*
G01X15632Y18599D01*
G01X15631Y18599D01*
G01X15630Y18599D01*
G01X15625Y18598D01*
G01X15622Y18598D01*
G01X15621Y18597D01*
G01X15620Y18597D01*
G01X15616Y18597D01*
G01X15612Y18596D01*
G01X15611Y18596D01*
G01X15610Y18596D01*
G01X15606Y18595D01*
G01X15603Y18594D01*
G01X15601Y18594D01*
G01X15600Y18593D01*
G01X15596Y18592D01*
G01X15593Y18591D01*
G01X15592Y18591D01*
G01X15591Y18591D01*
G01X15587Y18590D01*
G01X15583Y18588D01*
G01X15582Y18588D01*
G01X15581Y18587D01*
G01X15578Y18586D01*
G01X15574Y18585D01*
G01X15573Y18584D01*
G01X15572Y18584D01*
G01X15568Y18582D01*
G01X15565Y18581D01*
G01X15564Y18580D01*
G01X15563Y18580D01*
G01X15559Y18578D01*
G01X15556Y18576D01*
G01X15555Y18576D01*
G01X15554Y18575D01*
G01X15550Y18573D01*
G01X15547Y18571D01*
G01X15546Y18571D01*
G01X15545Y18570D01*
G01X15542Y18568D01*
G01X15539Y18566D01*
G01X15538Y18565D01*
G01X15537Y18565D01*
G01X15534Y18563D01*
G01X15531Y18560D01*
G01X15530Y18560D01*
G01X15529Y18559D01*
G01X15526Y18557D01*
G01X15523Y18554D01*
G01X15522Y18553D01*
G01X15521Y18553D01*
G01X15518Y18550D01*
G01X15515Y18548D01*
G01X15514Y18547D01*
G01X15513Y18546D01*
G01X15511Y18544D01*
G01X15508Y18541D01*
G01X15450Y18482D01*
G01X15450Y20167D01*
G01X15532Y20250D01*
G01X17104Y20250D01*
G01X17108Y20247D01*
G01X17129Y20239D01*
G01X17150Y20233D01*
G01X17172Y20229D01*
G01X17194Y20228D01*
G01X17216Y20228D01*
G01X17238Y20231D01*
G01X17260Y20236D01*
G01X17281Y20243D01*
G01X17301Y20252D01*
G01X17320Y20263D01*
G01X17338Y20276D01*
G01X17355Y20291D01*
G01X17370Y20307D01*
G01X17383Y20324D01*
G01X17394Y20343D01*
G01X17404Y20363D01*
G01X17412Y20384D01*
G01X17417Y20406D01*
G01X17420Y20427D01*
G01X17422Y20450D01*
G01X17420Y20472D01*
G01X17417Y20493D01*
G01X17412Y20515D01*
G01X17404Y20536D01*
G01X17394Y20556D01*
G01X17383Y20575D01*
G01X17370Y20592D01*
G01X17355Y20608D01*
G01X17338Y20623D01*
G01X17320Y20636D01*
G01X17301Y20647D01*
G01X17281Y20656D01*
G01X17260Y20663D01*
G01X17238Y20668D01*
G01X17216Y20671D01*
G01X17194Y20671D01*
G01X17172Y20670D01*
G01X17150Y20666D01*
G01X17129Y20660D01*
G01X17108Y20652D01*
G01X17104Y20650D01*
G01X15450Y20650D01*
G01X15443Y20649D01*
G01X15437Y20649D01*
G01X15431Y20649D01*
G01X15425Y20648D01*
G01X15419Y20647D01*
G01X15413Y20646D01*
G01X15408Y20645D01*
G01X15402Y20644D01*
G01X15396Y20642D01*
G01X15390Y20640D01*
G01X15384Y20639D01*
G01X15379Y20636D01*
G01X15373Y20634D01*
G01X15367Y20632D01*
G01X15362Y20629D01*
G01X15357Y20627D01*
G01X15351Y20624D01*
G01X15346Y20621D01*
G01X15341Y20617D01*
G01X15336Y20614D01*
G01X15331Y20611D01*
G01X15326Y20607D01*
G01X15321Y20603D01*
G01X15317Y20599D01*
G01X15312Y20595D01*
G01X15308Y20591D01*
G01X15108Y20391D01*
G01X15104Y20387D01*
G01X15100Y20382D01*
G01X15096Y20378D01*
G01X15092Y20373D01*
G01X15088Y20368D01*
G01X15085Y20363D01*
G01X15082Y20358D01*
G01X15078Y20353D01*
G01X15075Y20348D01*
G01X15072Y20342D01*
G01X15070Y20337D01*
G01X15067Y20332D01*
G01X15065Y20326D01*
G01X15063Y20320D01*
G01X15060Y20315D01*
G01X15059Y20309D01*
G01X15057Y20303D01*
G01X15055Y20297D01*
G01X15054Y20291D01*
G01X15053Y20286D01*
G01X15052Y20280D01*
G01X15051Y20274D01*
G01X15050Y20268D01*
G01X15050Y20262D01*
G01X15050Y20256D01*
G01X15050Y20250D01*
G01X15050Y18532D01*
G01X15017Y18500D01*
G01X14850Y18500D01*
G01X14843Y18499D01*
G01X14837Y18499D01*
G01X14831Y18499D01*
G01X14825Y18498D01*
G01X14819Y18497D01*
G01X14813Y18496D01*
G01X14808Y18495D01*
G01X14802Y18494D01*
G01X14796Y18492D01*
G01X14790Y18490D01*
G01X14784Y18489D01*
G01X14779Y18486D01*
G01X14773Y18484D01*
G01X14767Y18482D01*
G01X14762Y18479D01*
G01X14757Y18477D01*
G01X14751Y18474D01*
G01X14746Y18471D01*
G01X14741Y18467D01*
G01X14736Y18464D01*
G01X14731Y18461D01*
G01X14726Y18457D01*
G01X14721Y18453D01*
G01X14717Y18449D01*
G01X14712Y18445D01*
G01X14708Y18441D01*
G01X14608Y18341D01*
G01X14604Y18337D01*
G01X14600Y18332D01*
G01X14596Y18328D01*
G01X14592Y18323D01*
G01X14588Y18318D01*
G01X14585Y18313D01*
G01X14582Y18308D01*
G01X14578Y18303D01*
G01X14575Y18298D01*
G01X14572Y18292D01*
G01X14570Y18287D01*
G01X14567Y18282D01*
G01X14565Y18276D01*
G01X14563Y18270D01*
G01X14560Y18265D01*
G01X14559Y18259D01*
G01X14557Y18253D01*
G01X14555Y18247D01*
G01X14554Y18241D01*
G01X14553Y18236D01*
G01X14552Y18230D01*
G01X14551Y18224D01*
G01X14550Y18218D01*
G01X14550Y18212D01*
G01X14550Y18206D01*
G01X14550Y18200D01*
G01X14550Y17200D01*
G01X13095Y17200D01*
G01X13081Y17206D01*
G01X13060Y17213D01*
G01X13038Y17218D01*
G01X13016Y17221D01*
G01X12994Y17221D01*
G01X12972Y17220D01*
G01X12950Y17216D01*
G01X12929Y17210D01*
G01X12908Y17202D01*
G01X12889Y17192D01*
G01X12874Y17183D01*
G01X12872Y17186D01*
G01X12869Y17190D01*
G01X12866Y17194D01*
G01X12863Y17198D01*
G01X12859Y17202D01*
G01X12856Y17206D01*
G01X12756Y17306D01*
G01X12752Y17309D01*
G01X12748Y17313D01*
G01X12744Y17316D01*
G01X12740Y17319D01*
G01X12736Y17322D01*
G01X12732Y17325D01*
G01X12727Y17328D01*
G01X12723Y17330D01*
G01X12719Y17333D01*
G01X12714Y17335D01*
G01X12709Y17337D01*
G01X12705Y17339D01*
G01X12700Y17341D01*
G01X12695Y17342D01*
G01X12690Y17344D01*
G01X12685Y17345D01*
G01X12680Y17346D01*
G01X12675Y17347D01*
G01X12670Y17348D01*
G01X12665Y17349D01*
G01X12660Y17349D01*
G01X12655Y17349D01*
G01X12650Y17350D01*
G01X11800Y17350D01*
G01X11794Y17349D01*
G01X11789Y17349D01*
G01X11784Y17349D01*
G01X11779Y17348D01*
G01X11774Y17347D01*
G01X11769Y17346D01*
G01X11764Y17345D01*
G01X11759Y17344D01*
G01X11754Y17342D01*
G01X11749Y17341D01*
G01X11744Y17339D01*
G01X11740Y17337D01*
G01X11735Y17335D01*
G01X11730Y17333D01*
G01X11726Y17330D01*
G01X11722Y17328D01*
G01X11717Y17325D01*
G01X11713Y17322D01*
G01X11709Y17319D01*
G01X11705Y17316D01*
G01X11701Y17313D01*
G01X11697Y17309D01*
G01X11693Y17306D01*
G01X11593Y17206D01*
G01X11590Y17202D01*
G01X11586Y17198D01*
G01X11583Y17194D01*
G01X11580Y17190D01*
G01X11577Y17186D01*
G01X11574Y17182D01*
G01X11571Y17177D01*
G01X11569Y17173D01*
G01X11566Y17169D01*
G01X11564Y17164D01*
G01X11562Y17159D01*
G01X11560Y17155D01*
G01X11558Y17150D01*
G01X11557Y17145D01*
G01X11555Y17140D01*
G01X11554Y17135D01*
G01X11553Y17130D01*
G01X11552Y17125D01*
G01X11551Y17120D01*
G01X11550Y17115D01*
G01X11550Y17110D01*
G01X11550Y17105D01*
G01X11550Y17100D01*
G01X11550Y16662D01*
G01X11237Y16350D01*
G01X10950Y16350D01*
G01X10944Y16349D01*
G01X10939Y16349D01*
G01X10934Y16349D01*
G01X10929Y16348D01*
G01X10924Y16347D01*
G01X10919Y16346D01*
G01X10914Y16345D01*
G01X10909Y16344D01*
G01X10904Y16342D01*
G01X10899Y16341D01*
G01X10894Y16339D01*
G01X10890Y16337D01*
G01X10885Y16335D01*
G01X10880Y16333D01*
G01X10876Y16330D01*
G01X10872Y16328D01*
G01X10867Y16325D01*
G01X10863Y16322D01*
G01X10859Y16319D01*
G01X10855Y16316D01*
G01X10851Y16313D01*
G01X10847Y16309D01*
G01X10843Y16306D01*
G01X10587Y16050D01*
G01X8712Y16050D01*
G01X8509Y16252D01*
G01X8507Y16290D01*
G01X8501Y16331D01*
G01X8491Y16370D01*
G01X8477Y16409D01*
G01X8460Y16446D01*
G01X8438Y16480D01*
G01X8414Y16513D01*
G01X8386Y16543D01*
G01X8378Y16550D01*
G01X8450Y16550D01*
G01X8455Y16550D01*
G01X8460Y16550D01*
G01X8465Y16550D01*
G01X8470Y16551D01*
G01X8475Y16552D01*
G01X8480Y16553D01*
G01X8485Y16554D01*
G01X8490Y16555D01*
G01X8495Y16557D01*
G01X8500Y16558D01*
G01X8505Y16560D01*
G01X8509Y16562D01*
G01X8514Y16564D01*
G01X8519Y16566D01*
G01X8523Y16569D01*
G01X8527Y16571D01*
G01X8532Y16574D01*
G01X8536Y16577D01*
G01X8540Y16580D01*
G01X8544Y16583D01*
G01X8548Y16586D01*
G01X8552Y16590D01*
G01X8556Y16593D01*
G01X8656Y16693D01*
G01X8659Y16697D01*
G01X8663Y16701D01*
G01X8666Y16705D01*
G01X8669Y16709D01*
G01X8672Y16713D01*
G01X8675Y16717D01*
G01X8678Y16722D01*
G01X8680Y16726D01*
G01X8683Y16730D01*
G01X8685Y16735D01*
G01X8687Y16740D01*
G01X8689Y16744D01*
G01X8691Y16749D01*
G01X8692Y16754D01*
G01X8694Y16759D01*
G01X8695Y16764D01*
G01X8696Y16769D01*
G01X8697Y16774D01*
G01X8698Y16779D01*
G01X8699Y16784D01*
G01X8699Y16789D01*
G01X8699Y16794D01*
G01X8700Y16800D01*
G01X8700Y18650D01*
G01X8699Y18655D01*
G01X8699Y18660D01*
G01X8699Y18665D01*
G01X8698Y18670D01*
G01X8697Y18675D01*
G01X8696Y18680D01*
G01X8695Y18685D01*
G01X8694Y18690D01*
G01X8692Y18695D01*
G01X8691Y18700D01*
G01X8689Y18705D01*
G01X8687Y18709D01*
G01X8685Y18714D01*
G01X8683Y18719D01*
G01X8680Y18723D01*
G01X8678Y18727D01*
G01X8675Y18732D01*
G01X8672Y18736D01*
G01X8669Y18740D01*
G01X8666Y18744D01*
G01X8663Y18748D01*
G01X8659Y18752D01*
G01X8656Y18756D01*
G01X8350Y19062D01*
G01X8350Y20387D01*
G01X8412Y20450D01*
G01X9937Y20450D01*
G01X9950Y20437D01*
G01X9950Y19950D01*
G01X9950Y19944D01*
G01X9950Y19939D01*
G01X9950Y19934D01*
G01X9951Y19929D01*
G01X9952Y19924D01*
G01X9953Y19919D01*
G01X9954Y19914D01*
G01X9955Y19909D01*
G01X9957Y19904D01*
G01X9958Y19899D01*
G01X9960Y19894D01*
G01X9962Y19890D01*
G01X9964Y19885D01*
G01X9966Y19880D01*
G01X9969Y19876D01*
G01X9971Y19872D01*
G01X9974Y19867D01*
G01X9977Y19863D01*
G01X9980Y19859D01*
G01X9983Y19855D01*
G01X9986Y19851D01*
G01X9990Y19847D01*
G01X9993Y19843D01*
G01X10193Y19643D01*
G01X10197Y19640D01*
G01X10201Y19636D01*
G01X10205Y19633D01*
G01X10209Y19630D01*
G01X10213Y19627D01*
G01X10217Y19624D01*
G01X10222Y19621D01*
G01X10226Y19619D01*
G01X10230Y19616D01*
G01X10235Y19614D01*
G01X10240Y19612D01*
G01X10244Y19610D01*
G01X10249Y19608D01*
G01X10254Y19607D01*
G01X10259Y19605D01*
G01X10264Y19604D01*
G01X10269Y19603D01*
G01X10274Y19602D01*
G01X10279Y19601D01*
G01X10284Y19600D01*
G01X10289Y19600D01*
G01X10294Y19600D01*
G01X10300Y19600D01*
G01X11687Y19600D01*
G01X11800Y19487D01*
G01X11800Y19412D01*
G01X11706Y19506D01*
G01X11702Y19509D01*
G01X11698Y19513D01*
G01X11694Y19516D01*
G01X11690Y19519D01*
G01X11686Y19522D01*
G01X11682Y19525D01*
G01X11677Y19528D01*
G01X11673Y19530D01*
G01X11669Y19533D01*
G01X11664Y19535D01*
G01X11659Y19537D01*
G01X11655Y19539D01*
G01X11650Y19541D01*
G01X11645Y19542D01*
G01X11640Y19544D01*
G01X11635Y19545D01*
G01X11630Y19546D01*
G01X11625Y19547D01*
G01X11620Y19548D01*
G01X11615Y19549D01*
G01X11610Y19549D01*
G01X11605Y19549D01*
G01X11600Y19550D01*
G01X9913Y19550D01*
G01X9905Y19558D01*
G01X9888Y19573D01*
G01X9870Y19586D01*
G01X9851Y19597D01*
G01X9831Y19606D01*
G01X9810Y19613D01*
G01X9788Y19618D01*
G01X9766Y19621D01*
G01X9744Y19621D01*
G01X9722Y19620D01*
G01X9700Y19616D01*
G01X9679Y19610D01*
G01X9658Y19602D01*
G01X9639Y19592D01*
G01X9620Y19580D01*
G01X9603Y19566D01*
G01X9587Y19551D01*
G01X9573Y19534D01*
G01X9560Y19515D01*
G01X9549Y19496D01*
G01X9541Y19475D01*
G01X9534Y19454D01*
G01X9530Y19433D01*
G01X9528Y19411D01*
G01X9528Y19388D01*
G01X9530Y19366D01*
G01X9534Y19345D01*
G01X9541Y19324D01*
G01X9549Y19303D01*
G01X9560Y19284D01*
G01X9573Y19265D01*
G01X9587Y19248D01*
G01X9603Y19233D01*
G01X9620Y19219D01*
G01X9639Y19207D01*
G01X9658Y19197D01*
G01X9679Y19189D01*
G01X9700Y19183D01*
G01X9722Y19179D01*
G01X9744Y19178D01*
G01X9766Y19178D01*
G01X9788Y19181D01*
G01X9810Y19186D01*
G01X9831Y19193D01*
G01X9851Y19202D01*
G01X9870Y19213D01*
G01X9888Y19226D01*
G01X9905Y19241D01*
G01X9913Y19250D01*
G01X11537Y19250D01*
G01X11550Y19237D01*
G01X11550Y18350D01*
G01X11550Y18344D01*
G01X11550Y18339D01*
G01X11550Y18334D01*
G01X11551Y18329D01*
G01X11552Y18324D01*
G01X11553Y18319D01*
G01X11554Y18314D01*
G01X11555Y18309D01*
G01X11557Y18304D01*
G01X11558Y18299D01*
G01X11560Y18294D01*
G01X11562Y18290D01*
G01X11564Y18285D01*
G01X11566Y18280D01*
G01X11569Y18276D01*
G01X11571Y18272D01*
G01X11574Y18267D01*
G01X11577Y18263D01*
G01X11580Y18259D01*
G01X11583Y18255D01*
G01X11586Y18251D01*
G01X11590Y18247D01*
G01X11593Y18243D01*
G01X11793Y18043D01*
G01X11797Y18040D01*
G01X11801Y18036D01*
G01X11805Y18033D01*
G01X11809Y18030D01*
G01X11813Y18027D01*
G01X11817Y18024D01*
G01X11822Y18021D01*
G01X11826Y18019D01*
G01X11830Y18016D01*
G01X11835Y18014D01*
G01X11840Y18012D01*
G01X11844Y18010D01*
G01X11849Y18008D01*
G01X11854Y18007D01*
G01X11859Y18005D01*
G01X11864Y18004D01*
G01X11869Y18003D01*
G01X11874Y18002D01*
G01X11879Y18001D01*
G01X11884Y18000D01*
G01X11889Y18000D01*
G01X11894Y18000D01*
G01X11900Y18000D01*
G01X13037Y18000D01*
G01X13400Y17637D01*
G01X13400Y17613D01*
G01X13387Y17601D01*
G01X13373Y17584D01*
G01X13360Y17565D01*
G01X13349Y17546D01*
G01X13341Y17525D01*
G01X13334Y17504D01*
G01X13330Y17483D01*
G01X13328Y17461D01*
G01X13328Y17438D01*
G01X13330Y17416D01*
G01X13334Y17395D01*
G01X13341Y17374D01*
G01X13349Y17353D01*
G01X13360Y17334D01*
G01X13373Y17315D01*
G01X13387Y17298D01*
G01X13403Y17283D01*
G01X13420Y17269D01*
G01X13439Y17257D01*
G01X13458Y17247D01*
G01X13479Y17239D01*
G01X13500Y17233D01*
G01X13522Y17229D01*
G01X13544Y17228D01*
G01X13566Y17228D01*
G01X13588Y17231D01*
G01X13610Y17236D01*
G01X13631Y17243D01*
G01X13651Y17252D01*
G01X13670Y17263D01*
G01X13688Y17276D01*
G01X13705Y17291D01*
G01X13720Y17307D01*
G01X13733Y17324D01*
G01X13744Y17343D01*
G01X13754Y17363D01*
G01X13762Y17384D01*
G01X13767Y17406D01*
G01X13770Y17427D01*
G01X13772Y17450D01*
G01X13770Y17472D01*
G01X13767Y17493D01*
G01X13762Y17515D01*
G01X13754Y17536D01*
G01X13744Y17556D01*
G01X13733Y17575D01*
G01X13720Y17592D01*
G01X13705Y17608D01*
G01X13700Y17613D01*
G01X13700Y17700D01*
G01X13699Y17705D01*
G01X13699Y17710D01*
G01X13699Y17715D01*
G01X13698Y17720D01*
G01X13697Y17725D01*
G01X13696Y17730D01*
G01X13695Y17735D01*
G01X13694Y17740D01*
G01X13692Y17745D01*
G01X13691Y17750D01*
G01X13689Y17755D01*
G01X13687Y17759D01*
G01X13685Y17764D01*
G01X13683Y17769D01*
G01X13680Y17773D01*
G01X13678Y17777D01*
G01X13675Y17782D01*
G01X13672Y17786D01*
G01X13669Y17790D01*
G01X13666Y17794D01*
G01X13663Y17798D01*
G01X13659Y17802D01*
G01X13656Y17806D01*
G01X13206Y18256D01*
G01X13202Y18259D01*
G01X13198Y18263D01*
G01X13194Y18266D01*
G01X13190Y18269D01*
G01X13186Y18272D01*
G01X13182Y18275D01*
G01X13177Y18278D01*
G01X13173Y18280D01*
G01X13169Y18283D01*
G01X13164Y18285D01*
G01X13159Y18287D01*
G01X13155Y18289D01*
G01X13150Y18291D01*
G01X13145Y18292D01*
G01X13140Y18294D01*
G01X13135Y18295D01*
G01X13130Y18296D01*
G01X13125Y18297D01*
G01X13120Y18298D01*
G01X13115Y18299D01*
G01X13110Y18299D01*
G01X13105Y18299D01*
G01X13100Y18300D01*
G01X12113Y18300D01*
G01X12120Y18307D01*
G01X12133Y18324D01*
G01X12144Y18343D01*
G01X12154Y18363D01*
G01X12162Y18384D01*
G01X12167Y18406D01*
G01X12170Y18427D01*
G01X12172Y18450D01*
G01X12170Y18472D01*
G01X12167Y18493D01*
G01X12162Y18515D01*
G01X12154Y18536D01*
G01X12144Y18556D01*
G01X12133Y18575D01*
G01X12120Y18592D01*
G01X12105Y18608D01*
G01X12100Y18613D01*
G01X12100Y19550D01*
G01X12099Y19555D01*
G01X12099Y19560D01*
G01X12099Y19565D01*
G01X12098Y19570D01*
G01X12097Y19575D01*
G01X12096Y19580D01*
G01X12095Y19585D01*
G01X12094Y19590D01*
G01X12092Y19595D01*
G01X12091Y19600D01*
G01X12089Y19605D01*
G01X12087Y19609D01*
G01X12085Y19614D01*
G01X12083Y19619D01*
G01X12080Y19623D01*
G01X12078Y19627D01*
G01X12075Y19632D01*
G01X12072Y19636D01*
G01X12069Y19640D01*
G01X12066Y19644D01*
G01X12063Y19648D01*
G01X12059Y19652D01*
G01X12056Y19656D01*
G01X11856Y19856D01*
G01X11852Y19859D01*
G01X11848Y19863D01*
G01X11844Y19866D01*
G01X11840Y19869D01*
G01X11836Y19872D01*
G01X11832Y19875D01*
G01X11827Y19878D01*
G01X11823Y19880D01*
G01X11819Y19883D01*
G01X11814Y19885D01*
G01X11809Y19887D01*
G01X11805Y19889D01*
G01X11800Y19891D01*
G01X11795Y19892D01*
G01X11790Y19894D01*
G01X11785Y19895D01*
G01X11780Y19896D01*
G01X11775Y19897D01*
G01X11770Y19898D01*
G01X11765Y19899D01*
G01X11760Y19899D01*
G01X11755Y19899D01*
G01X11750Y19900D01*
G01X10362Y19900D01*
G01X10250Y20012D01*
G01X10250Y20500D01*
G01X10249Y20505D01*
G01X10249Y20510D01*
G01X10249Y20515D01*
G01X10248Y20520D01*
G01X10247Y20525D01*
G01X10246Y20530D01*
G01X10245Y20535D01*
G01X10244Y20540D01*
G01X10242Y20545D01*
G01X10241Y20550D01*
G01X10239Y20555D01*
G01X10237Y20559D01*
G01X10235Y20564D01*
G01X10233Y20569D01*
G01X10230Y20573D01*
G01X10228Y20577D01*
G01X10225Y20582D01*
G01X10222Y20586D01*
G01X10219Y20590D01*
G01X10216Y20594D01*
G01X10213Y20598D01*
G01X10209Y20602D01*
G01X10206Y20606D01*
G01X10106Y20706D01*
G01X10102Y20709D01*
G01X10098Y20713D01*
G01X10094Y20716D01*
G01X10090Y20719D01*
G01X10086Y20722D01*
G01X10082Y20725D01*
G01X10077Y20728D01*
G01X10073Y20730D01*
G01X10069Y20733D01*
G01X10064Y20735D01*
G01X10059Y20737D01*
G01X10055Y20739D01*
G01X10050Y20741D01*
G01X10045Y20742D01*
G01X10040Y20744D01*
G01X10035Y20745D01*
G01X10030Y20746D01*
G01X10025Y20747D01*
G01X10020Y20748D01*
G01X10015Y20749D01*
G01X10010Y20749D01*
G01X10005Y20749D01*
G01X10000Y20750D01*
G01X8350Y20750D01*
G01X8344Y20749D01*
G01X8339Y20749D01*
G01X8334Y20749D01*
G01X8329Y20748D01*
G01X8324Y20747D01*
G01X8319Y20746D01*
G01X8314Y20745D01*
G01X8309Y20744D01*
G01X8304Y20742D01*
G01X8299Y20741D01*
G01X8294Y20739D01*
G01X8290Y20737D01*
G01X8285Y20735D01*
G01X8280Y20733D01*
G01X8276Y20730D01*
G01X8272Y20728D01*
G01X8267Y20725D01*
G01X8263Y20722D01*
G01X8259Y20719D01*
G01X8255Y20716D01*
G01X8251Y20713D01*
G01X8247Y20709D01*
G01X8243Y20706D01*
G01X8093Y20556D01*
G01X8090Y20552D01*
G01X8086Y20548D01*
G01X8083Y20544D01*
G01X8080Y20540D01*
G01X8077Y20536D01*
G01X8074Y20532D01*
G01X8071Y20527D01*
G01X8069Y20523D01*
G01X8066Y20519D01*
G01X8064Y20514D01*
G01X8062Y20509D01*
G01X8060Y20505D01*
G01X8058Y20500D01*
G01X8057Y20495D01*
G01X8055Y20490D01*
G01X8054Y20485D01*
G01X8053Y20480D01*
G01X8052Y20475D01*
G01X8051Y20470D01*
G01X8050Y20465D01*
G01X8050Y20460D01*
G01X8050Y20455D01*
G01X8050Y20450D01*
G01X8050Y19000D01*
G01X8050Y18994D01*
G01X8050Y18989D01*
G01X8050Y18984D01*
G01X8051Y18979D01*
G01X8052Y18974D01*
G01X8053Y18969D01*
G01X8054Y18964D01*
G01X8055Y18959D01*
G01X8057Y18954D01*
G01X8058Y18949D01*
G01X8060Y18944D01*
G01X8062Y18940D01*
G01X8064Y18935D01*
G01X8066Y18930D01*
G01X8069Y18926D01*
G01X8071Y18922D01*
G01X8074Y18917D01*
G01X8077Y18913D01*
G01X8080Y18909D01*
G01X8083Y18905D01*
G01X8086Y18901D01*
G01X8090Y18897D01*
G01X8093Y18893D01*
G01X8327Y18659D01*
G01X7789Y18659D01*
G01X7785Y18659D01*
G01X7781Y18659D01*
G01X7777Y18659D01*
G01X7773Y18658D01*
G01X7769Y18657D01*
G01X7765Y18656D01*
G01X7761Y18655D01*
G01X7757Y18654D01*
G01X7753Y18653D01*
G01X7749Y18651D01*
G01X7746Y18649D01*
G01X7742Y18647D01*
G01X7738Y18645D01*
G01X7735Y18643D01*
G01X7731Y18641D01*
G01X7728Y18638D01*
G01X7725Y18636D01*
G01X7722Y18633D01*
G01X7719Y18630D01*
G01X7716Y18627D01*
G01X7713Y18624D01*
G01X7711Y18621D01*
G01X7708Y18618D01*
G01X7706Y18614D01*
G01X7704Y18611D01*
G01X7702Y18607D01*
G01X7700Y18603D01*
G01X7698Y18600D01*
G01X7696Y18596D01*
G01X7695Y18592D01*
G01X7694Y18588D01*
G01X7693Y18584D01*
G01X7692Y18580D01*
G01X7691Y18576D01*
G01X7690Y18572D01*
G01X7690Y18568D01*
G01X7690Y18564D01*
G01X7689Y18559D01*
G01X7689Y17940D01*
G01X7690Y17935D01*
G01X7690Y17931D01*
G01X7690Y17927D01*
G01X7691Y17923D01*
G01X7692Y17919D01*
G01X7693Y17915D01*
G01X7694Y17911D01*
G01X7695Y17907D01*
G01X7696Y17903D01*
G01X7698Y17899D01*
G01X7700Y17896D01*
G01X7702Y17892D01*
G01X7704Y17888D01*
G01X7706Y17885D01*
G01X7708Y17881D01*
G01X7711Y17878D01*
G01X7713Y17875D01*
G01X7716Y17872D01*
G01X7719Y17869D01*
G01X7722Y17866D01*
G01X7725Y17863D01*
G01X7728Y17861D01*
G01X7731Y17858D01*
G01X7735Y17856D01*
G01X7738Y17854D01*
G01X7742Y17852D01*
G01X7746Y17850D01*
G01X7749Y17848D01*
G01X7753Y17846D01*
G01X7757Y17845D01*
G01X7761Y17844D01*
G01X7765Y17843D01*
G01X7769Y17842D01*
G01X7773Y17841D01*
G01X7777Y17840D01*
G01X7781Y17840D01*
G01X7785Y17840D01*
G01X7789Y17840D01*
G01X8400Y17840D01*
G01X8400Y17528D01*
G01X8386Y17543D01*
G01X8355Y17570D01*
G01X8322Y17594D01*
G01X8287Y17614D01*
G01X8255Y17629D01*
G01X8255Y17405D01*
G01X8400Y17405D01*
G01X8400Y17094D01*
G01X8255Y17094D01*
G01X8255Y16870D01*
G01X8287Y16885D01*
G01X8322Y16905D01*
G01X8355Y16929D01*
G01X8386Y16956D01*
G01X8400Y16971D01*
G01X8400Y16862D01*
G01X8387Y16850D01*
G01X7750Y16850D01*
G01X7744Y16849D01*
G01X7739Y16849D01*
G01X7734Y16849D01*
G01X7729Y16848D01*
G01X7724Y16847D01*
G01X7719Y16846D01*
G01X7714Y16845D01*
G01X7709Y16844D01*
G01X7704Y16842D01*
G01X7699Y16841D01*
G01X7694Y16839D01*
G01X7690Y16837D01*
G01X7685Y16835D01*
G01X7680Y16833D01*
G01X7676Y16830D01*
G01X7672Y16828D01*
G01X7667Y16825D01*
G01X7663Y16822D01*
G01X7659Y16819D01*
G01X7655Y16816D01*
G01X7651Y16813D01*
G01X7647Y16809D01*
G01X7643Y16806D01*
G01X7543Y16706D01*
G01X7540Y16702D01*
G01X7536Y16698D01*
G01X7533Y16694D01*
G01X7530Y16690D01*
G01X7527Y16686D01*
G01X7524Y16682D01*
G01X7521Y16677D01*
G01X7519Y16673D01*
G01X7516Y16669D01*
G01X7514Y16664D01*
G01X7512Y16659D01*
G01X7510Y16655D01*
G01X7508Y16650D01*
G01X7507Y16645D01*
G01X7505Y16640D01*
G01X7504Y16635D01*
G01X7503Y16630D01*
G01X7502Y16625D01*
G01X7501Y16620D01*
G01X7500Y16615D01*
G01X7500Y16610D01*
G01X7500Y16605D01*
G01X7500Y16600D01*
G01X7500Y9400D01*
G01X7500Y9394D01*
G01X7500Y9389D01*
G01X7500Y9384D01*
G01X7501Y9379D01*
G01X7502Y9374D01*
G01X7503Y9369D01*
G01X7504Y9364D01*
G01X7505Y9359D01*
G01X7507Y9354D01*
G01X7508Y9349D01*
G01X7510Y9344D01*
G01X7512Y9340D01*
G01X7514Y9335D01*
G01X7516Y9330D01*
G01X7519Y9326D01*
G01X7521Y9322D01*
G01X7524Y9317D01*
G01X7527Y9313D01*
G01X7530Y9309D01*
G01X7533Y9305D01*
G01X7536Y9301D01*
G01X7540Y9297D01*
G01X7543Y9293D01*
G01X7643Y9193D01*
G01X7647Y9190D01*
G01X7651Y9186D01*
G01X7655Y9183D01*
G01X7659Y9180D01*
G01X7663Y9177D01*
G01X7667Y9174D01*
G01X7672Y9171D01*
G01X7676Y9169D01*
G01X7680Y9166D01*
G01X7685Y9164D01*
G01X7690Y9162D01*
G01X7694Y9160D01*
G01X7699Y9158D01*
G01X7704Y9157D01*
G01X7709Y9155D01*
G01X7714Y9154D01*
G01X7719Y9153D01*
G01X7724Y9152D01*
G01X7729Y9151D01*
G01X7734Y9150D01*
G01X7739Y9150D01*
G01X7744Y9150D01*
G01X7750Y9150D01*
G01X9800Y9150D01*
G01X9805Y9150D01*
G01X9810Y9150D01*
G01X9815Y9150D01*
G01X9820Y9151D01*
G01X9825Y9152D01*
G01X9830Y9153D01*
G01X9835Y9154D01*
G01X9840Y9155D01*
G01X9845Y9157D01*
G01X9850Y9158D01*
G01X9855Y9160D01*
G01X9859Y9162D01*
G01X9864Y9164D01*
G01X9869Y9166D01*
G01X9873Y9169D01*
G01X9877Y9171D01*
G01X9882Y9174D01*
G01X9886Y9177D01*
G01X9890Y9180D01*
G01X9894Y9183D01*
G01X9898Y9186D01*
G01X9902Y9190D01*
G01X9906Y9193D01*
G01X10190Y9478D01*
G01X10194Y9478D01*
G01X10216Y9478D01*
G01X10238Y9481D01*
G01X10260Y9486D01*
G01X10281Y9493D01*
G01X10301Y9502D01*
G01X10320Y9513D01*
G01X10338Y9526D01*
G01X10355Y9541D01*
G01X10370Y9557D01*
G01X10383Y9574D01*
G01X10394Y9593D01*
G01X10404Y9613D01*
G01X10412Y9634D01*
G01X10417Y9656D01*
G01X10420Y9677D01*
G01X10422Y9700D01*
G01X10420Y9722D01*
G01X10417Y9743D01*
G01X10412Y9765D01*
G01X10404Y9786D01*
G01X10394Y9806D01*
G01X10383Y9825D01*
G01X10370Y9842D01*
G01X10355Y9858D01*
G01X10338Y9873D01*
G01X10320Y9886D01*
G01X10301Y9897D01*
G01X10281Y9906D01*
G01X10260Y9913D01*
G01X10238Y9918D01*
G01X10216Y9921D01*
G01X10194Y9921D01*
G01X10172Y9920D01*
G01X10150Y9916D01*
G01X10129Y9910D01*
G01X10108Y9902D01*
G01X10089Y9892D01*
G01X10070Y9880D01*
G01X10053Y9866D01*
G01X10037Y9851D01*
G01X10023Y9834D01*
G01X10010Y9815D01*
G01X9999Y9796D01*
G01X9991Y9775D01*
G01X9984Y9754D01*
G01X9980Y9733D01*
G01X9978Y9711D01*
G01X9978Y9690D01*
G01X9737Y9450D01*
G01X7812Y9450D01*
G01X7800Y9462D01*
G01X7800Y10690D01*
G01X7944Y10690D01*
G01X7944Y10944D01*
G01X7800Y10944D01*
G01X7800Y11255D01*
G01X7944Y11255D01*
G01X7944Y11509D01*
G01X7800Y11509D01*
G01X7800Y11820D01*
G01X7828Y11792D01*
G01X7860Y11767D01*
G01X7894Y11744D01*
G01X7931Y11726D01*
G01X7969Y11711D01*
G01X8008Y11700D01*
G01X8049Y11693D01*
G01X8089Y11690D01*
G01X8130Y11691D01*
G01X8171Y11696D01*
G01X8211Y11705D01*
G01X8249Y11718D01*
G01X8287Y11735D01*
G01X8322Y11755D01*
G01X8355Y11779D01*
G01X8386Y11806D01*
G01X8414Y11836D01*
G01X8438Y11869D01*
G01X8460Y11903D01*
G01X8477Y11940D01*
G01X8491Y11979D01*
G01X8501Y12018D01*
G01X8507Y12059D01*
G01X8510Y12100D01*
G01X8507Y12140D01*
G01X8501Y12181D01*
G01X8491Y12220D01*
G01X8477Y12259D01*
G01X8460Y12296D01*
G01X8438Y12330D01*
G01X8414Y12363D01*
G01X8386Y12393D01*
G01X8355Y12420D01*
G01X8322Y12444D01*
G01X8287Y12464D01*
G01X8249Y12481D01*
G01X8211Y12494D01*
G01X8171Y12503D01*
G01X8130Y12508D01*
G01X8089Y12509D01*
G01X8049Y12506D01*
G01X8008Y12499D01*
G01X7969Y12488D01*
G01X7931Y12473D01*
G01X7894Y12455D01*
G01X7860Y12432D01*
G01X7828Y12407D01*
G01X7800Y12379D01*
G01X7800Y12970D01*
G01X7828Y12942D01*
G01X7860Y12917D01*
G01X7894Y12894D01*
G01X7931Y12876D01*
G01X7969Y12861D01*
G01X8008Y12850D01*
G01X8049Y12843D01*
G01X8089Y12840D01*
G01X8130Y12841D01*
G01X8171Y12846D01*
G01X8211Y12855D01*
G01X8249Y12868D01*
G01X8287Y12885D01*
G01X8322Y12905D01*
G01X8355Y12929D01*
G01X8386Y12956D01*
G01X8414Y12986D01*
G01X8438Y13019D01*
G01X8460Y13053D01*
G01X8477Y13090D01*
G01X8481Y13100D01*
G01X8550Y13100D01*
G01X8555Y13100D01*
G01X8560Y13100D01*
G01X8565Y13100D01*
G01X8570Y13101D01*
G01X8575Y13102D01*
G01X8580Y13103D01*
G01X8585Y13104D01*
G01X8590Y13105D01*
G01X8595Y13107D01*
G01X8600Y13108D01*
G01X8605Y13110D01*
G01X8609Y13112D01*
G01X8614Y13114D01*
G01X8619Y13116D01*
G01X8623Y13119D01*
G01X8627Y13121D01*
G01X8632Y13124D01*
G01X8636Y13127D01*
G01X8640Y13130D01*
G01X8644Y13133D01*
G01X8648Y13136D01*
G01X8652Y13140D01*
G01X8656Y13143D01*
G01X8856Y13343D01*
G01X8859Y13347D01*
G01X8863Y13351D01*
G01X8866Y13355D01*
G01X8869Y13359D01*
G01X8872Y13363D01*
G01X8875Y13367D01*
G01X8878Y13372D01*
G01X8880Y13376D01*
G01X8883Y13380D01*
G01X8885Y13385D01*
G01X8887Y13390D01*
G01X8889Y13394D01*
G01X8891Y13399D01*
G01X8892Y13404D01*
G01X8894Y13409D01*
G01X8895Y13414D01*
G01X8896Y13419D01*
G01X8897Y13424D01*
G01X8898Y13429D01*
G01X8899Y13434D01*
G01X8899Y13439D01*
G01X8899Y13444D01*
G01X8900Y13450D01*
G01X8900Y13987D01*
G01X9062Y14150D01*
G01X10688Y14150D01*
G01X10686Y14148D01*
G01X10683Y14144D01*
G01X10680Y14140D01*
G01X10677Y14136D01*
G01X10674Y14132D01*
G01X10671Y14127D01*
G01X10669Y14123D01*
G01X10666Y14119D01*
G01X10664Y14114D01*
G01X10662Y14109D01*
G01X10660Y14105D01*
G01X10658Y14100D01*
G01X10657Y14095D01*
G01X10655Y14090D01*
G01X10654Y14085D01*
G01X10653Y14080D01*
G01X10652Y14075D01*
G01X10651Y14070D01*
G01X10650Y14065D01*
G01X10650Y14060D01*
G01X10650Y14055D01*
G01X10650Y14050D01*
G01X10650Y13913D01*
G01X10637Y13901D01*
G01X10623Y13884D01*
G01X10610Y13865D01*
G01X10599Y13846D01*
G01X10591Y13825D01*
G01X10584Y13804D01*
G01X10580Y13783D01*
G01X10578Y13761D01*
G01X10578Y13738D01*
G01X10580Y13716D01*
G01X10584Y13695D01*
G01X10591Y13674D01*
G01X10599Y13653D01*
G01X10610Y13634D01*
G01X10623Y13615D01*
G01X10637Y13598D01*
G01X10653Y13583D01*
G01X10670Y13569D01*
G01X10689Y13557D01*
G01X10708Y13547D01*
G01X10729Y13539D01*
G01X10750Y13533D01*
G01X10772Y13529D01*
G01X10794Y13528D01*
G01X10816Y13528D01*
G01X10838Y13531D01*
G01X10860Y13536D01*
G01X10881Y13543D01*
G01X10901Y13552D01*
G01X10920Y13563D01*
G01X10938Y13576D01*
G01X10955Y13591D01*
G01X10970Y13607D01*
G01X10983Y13624D01*
G01X10994Y13643D01*
G01X11004Y13663D01*
G01X11012Y13684D01*
G01X11017Y13706D01*
G01X11020Y13727D01*
G01X11022Y13750D01*
G01X11020Y13772D01*
G01X11017Y13793D01*
G01X11012Y13815D01*
G01X11004Y13836D01*
G01X10994Y13856D01*
G01X10983Y13875D01*
G01X10970Y13892D01*
G01X10955Y13908D01*
G01X10950Y13913D01*
G01X10950Y13987D01*
G01X11662Y14700D01*
G01X16750Y14700D01*
G01X16752Y14700D01*
G01X16755Y14700D01*
G01X16756Y14700D01*
G01X16757Y14700D01*
G01X16759Y14700D01*
G01X16763Y14700D01*
G01X16764Y14700D01*
G01X16764Y14700D01*
G01X16767Y14701D01*
G01X16770Y14701D01*
G01X16771Y14701D01*
G01X16772Y14701D01*
G01X16775Y14702D01*
G01X16777Y14702D01*
G01X16778Y14702D01*
G01X16779Y14702D01*
G01X16782Y14703D01*
G01X16785Y14704D01*
G01X16786Y14704D01*
G01X16787Y14704D01*
G01X16789Y14705D01*
G01X16792Y14706D01*
G01X16793Y14706D01*
G01X16794Y14706D01*
G01X16796Y14707D01*
G01X16799Y14708D01*
G01X16800Y14708D01*
G01X16801Y14709D01*
G01X16803Y14709D01*
G01X16806Y14711D01*
G01X16807Y14711D01*
G01X16808Y14711D01*
G01X16810Y14712D01*
G01X16813Y14714D01*
G01X16814Y14714D01*
G01X16815Y14714D01*
G01X16817Y14716D01*
G01X16820Y14717D01*
G01X16820Y14717D01*
G01X16821Y14718D01*
G01X16824Y14719D01*
G01X16826Y14721D01*
G01X16827Y14721D01*
G01X16828Y14722D01*
G01X16830Y14723D01*
G01X16832Y14725D01*
G01X16833Y14725D01*
G01X16834Y14726D01*
G01X16836Y14727D01*
G01X16839Y14729D01*
G01X16839Y14729D01*
G01X16840Y14730D01*
G01X16842Y14732D01*
G01X16844Y14733D01*
G01X16845Y14734D01*
G01X16846Y14735D01*
G01X16848Y14737D01*
G01X16850Y14738D01*
G01X16851Y14739D01*
G01X16852Y14740D01*
G01X16854Y14742D01*
G01X16856Y14743D01*
G01X17256Y15143D01*
G01X17259Y15147D01*
G01X17263Y15151D01*
G01X17266Y15155D01*
G01X17269Y15159D01*
G01X17272Y15163D01*
G01X17275Y15167D01*
G01X17278Y15172D01*
G01X17280Y15176D01*
G01X17283Y15180D01*
G01X17285Y15185D01*
G01X17287Y15190D01*
G01X17289Y15194D01*
G01X17291Y15199D01*
G01X17292Y15204D01*
G01X17294Y15209D01*
G01X17295Y15214D01*
G01X17296Y15219D01*
G01X17297Y15224D01*
G01X17298Y15229D01*
G01X17299Y15234D01*
G01X17299Y15239D01*
G01X17299Y15244D01*
G01X17300Y15250D01*
G01X17300Y15950D01*
G01X17299Y15955D01*
G01X17299Y15960D01*
G01X17299Y15965D01*
G01X17298Y15970D01*
G01X17297Y15975D01*
G01X17296Y15980D01*
G01X17295Y15985D01*
G01X17294Y15990D01*
G01X17292Y15995D01*
G01X17291Y16000D01*
G01X17289Y16005D01*
G01X17287Y16009D01*
G01X17285Y16014D01*
G01X17283Y16019D01*
G01X17280Y16023D01*
G01X17278Y16027D01*
G01X17275Y16032D01*
G01X17272Y16036D01*
G01X17269Y16040D01*
G01X17266Y16044D01*
G01X17263Y16048D01*
G01X17259Y16052D01*
G01X17256Y16056D01*
G01X17056Y16256D01*
G01X17052Y16259D01*
G01X17048Y16263D01*
G01X17044Y16266D01*
G01X17040Y16269D01*
G01X17036Y16272D01*
G01X17032Y16275D01*
G01X17027Y16278D01*
G01X17023Y16280D01*
G01X17019Y16283D01*
G01X17014Y16285D01*
G01X17009Y16287D01*
G01X17005Y16289D01*
G01X17000Y16291D01*
G01X16995Y16292D01*
G01X16990Y16294D01*
G01X16985Y16295D01*
G01X16980Y16296D01*
G01X16975Y16297D01*
G01X16970Y16298D01*
G01X16965Y16299D01*
G01X16960Y16299D01*
G01X16955Y16299D01*
G01X16950Y16300D01*
G01X16062Y16300D01*
G01X16050Y16312D01*
G01X16050Y17587D01*
G01X16062Y17600D01*
G01X18937Y17600D01*
G01X18993Y17543D01*
G01X18997Y17540D01*
G01X19001Y17536D01*
G01X19005Y17533D01*
G01X19009Y17530D01*
G01X19013Y17527D01*
G01X19017Y17524D01*
G01X19022Y17521D01*
G01X19026Y17519D01*
G01X19030Y17516D01*
G01X19035Y17514D01*
G01X19040Y17512D01*
G01X19044Y17510D01*
G01X19049Y17508D01*
G01X19054Y17507D01*
G01X19059Y17505D01*
G01X19064Y17504D01*
G01X19069Y17503D01*
G01X19074Y17502D01*
G01X19079Y17501D01*
G01X19084Y17500D01*
G01X19089Y17500D01*
G01X19094Y17500D01*
G01X19100Y17500D01*
G01X20302Y17500D01*
G01X19876Y17073D01*
G01X19872Y17069D01*
G01X19868Y17065D01*
G01X19864Y17061D01*
G01X19861Y17056D01*
G01X19857Y17051D01*
G01X19854Y17047D01*
G01X19851Y17042D01*
G01X19848Y17037D01*
G01X19845Y17032D01*
G01X19843Y17027D01*
G01X19840Y17022D01*
G01X19838Y17016D01*
G01X19836Y17011D01*
G01X19834Y17006D01*
G01X19832Y17000D01*
G01X19830Y16995D01*
G01X19829Y16989D01*
G01X19828Y16984D01*
G01X19827Y16978D01*
G01X19826Y16972D01*
G01X19825Y16967D01*
G01X19825Y16961D01*
G01X19825Y16955D01*
G01X19825Y16950D01*
G01X19825Y15422D01*
G01X19476Y15073D01*
G01X19472Y15069D01*
G01X19468Y15065D01*
G01X19464Y15061D01*
G01X19461Y15056D01*
G01X19457Y15051D01*
G01X19454Y15047D01*
G01X19451Y15042D01*
G01X19448Y15037D01*
G01X19445Y15032D01*
G01X19443Y15027D01*
G01X19440Y15022D01*
G01X19438Y15016D01*
G01X19436Y15011D01*
G01X19434Y15006D01*
G01X19432Y15000D01*
G01X19430Y14995D01*
G01X19429Y14989D01*
G01X19428Y14984D01*
G01X19427Y14978D01*
G01X19426Y14972D01*
G01X19425Y14967D01*
G01X19425Y14961D01*
G01X19425Y14955D01*
G01X19425Y14950D01*
G01X19425Y14450D01*
G01X19425Y14444D01*
G01X19425Y14438D01*
G01X19425Y14432D01*
G01X19426Y14427D01*
G01X19427Y14421D01*
G01X19428Y14415D01*
G01X19429Y14410D01*
G01X19430Y14404D01*
G01X19432Y14399D01*
G01X19434Y14393D01*
G01X19436Y14388D01*
G01X19438Y14383D01*
G01X19440Y14377D01*
G01X19443Y14372D01*
G01X19445Y14367D01*
G01X19448Y14362D01*
G01X19451Y14357D01*
G01X19454Y14352D01*
G01X19457Y14348D01*
G01X19461Y14343D01*
G01X19464Y14338D01*
G01X19468Y14334D01*
G01X19472Y14330D01*
G01X19476Y14326D01*
G01X19589Y14212D01*
G01X19571Y14220D01*
G01X19534Y14233D01*
G01X19495Y14242D01*
G01X19456Y14247D01*
G01X19417Y14248D01*
G01X19377Y14245D01*
G01X19339Y14238D01*
G01X19301Y14227D01*
G01X19264Y14213D01*
G01X19229Y14195D01*
G01X19196Y14173D01*
G01X19165Y14149D01*
G01X19137Y14121D01*
G01X19111Y14091D01*
G01X19089Y14059D01*
G01X19070Y14024D01*
G01X19055Y13988D01*
G01X19043Y13950D01*
G01X19036Y13911D01*
G01X19032Y13872D01*
G01X19032Y13833D01*
G01X19036Y13794D01*
G01X19043Y13755D01*
G01X19055Y13717D01*
G01X19070Y13681D01*
G01X19089Y13646D01*
G01X19111Y13614D01*
G01X19137Y13584D01*
G01X19165Y13556D01*
G01X19196Y13532D01*
G01X19229Y13510D01*
G01X19264Y13492D01*
G01X19301Y13478D01*
G01X19339Y13467D01*
G01X19377Y13460D01*
G01X19417Y13457D01*
G01X19456Y13458D01*
G01X19495Y13463D01*
G01X19534Y13472D01*
G01X19571Y13485D01*
G01X19607Y13501D01*
G01X19641Y13520D01*
G01X19673Y13543D01*
G01X19702Y13570D01*
G01X19729Y13598D01*
G01X19753Y13630D01*
G01X19774Y13663D01*
G01X19791Y13699D01*
G01X19804Y13736D01*
G01X19814Y13774D01*
G01X19820Y13813D01*
G01X19822Y13853D01*
G01X19820Y13892D01*
G01X19814Y13931D01*
G01X19804Y13969D01*
G01X19791Y14006D01*
G01X19786Y14015D01*
G01X19925Y13877D01*
G01X19925Y13000D01*
G01X19925Y12994D01*
G01X19925Y12988D01*
G01X19925Y12982D01*
G01X19926Y12977D01*
G01X19927Y12971D01*
G01X19928Y12965D01*
G01X19929Y12960D01*
G01X19930Y12954D01*
G01X19932Y12949D01*
G01X19934Y12943D01*
G01X19936Y12938D01*
G01X19938Y12933D01*
G01X19940Y12927D01*
G01X19943Y12922D01*
G01X19945Y12917D01*
G01X19948Y12912D01*
G01X19951Y12907D01*
G01X19954Y12902D01*
G01X19957Y12898D01*
G01X19961Y12893D01*
G01X19964Y12888D01*
G01X19968Y12884D01*
G01X19972Y12880D01*
G01X19976Y12876D01*
G01X20076Y12776D01*
G01X20080Y12772D01*
G01X20084Y12768D01*
G01X20088Y12764D01*
G01X20093Y12761D01*
G01X20098Y12757D01*
G01X20102Y12754D01*
G01X20107Y12751D01*
G01X20112Y12748D01*
G01X20117Y12745D01*
G01X20122Y12743D01*
G01X20127Y12740D01*
G01X20133Y12738D01*
G01X20138Y12736D01*
G01X20143Y12734D01*
G01X20149Y12732D01*
G01X20154Y12730D01*
G01X20160Y12729D01*
G01X20165Y12728D01*
G01X20171Y12727D01*
G01X20177Y12726D01*
G01X20182Y12725D01*
G01X20188Y12725D01*
G01X20194Y12725D01*
G01X20200Y12725D01*
G01X20827Y12725D01*
G01X20875Y12677D01*
G01X20875Y11759D01*
G01X20869Y11763D01*
G01X20865Y11766D01*
G01X20854Y11773D01*
G01X20850Y11775D01*
G01X20839Y11782D01*
G01X20835Y11784D01*
G01X20823Y11790D01*
G01X20819Y11792D01*
G01X20807Y11798D01*
G01X20803Y11799D01*
G01X20791Y11804D01*
G01X20786Y11806D01*
G01X20774Y11810D01*
G01X20769Y11811D01*
G01X20757Y11815D01*
G01X20752Y11816D01*
G01X20740Y11819D01*
G01X20735Y11820D01*
G01X20722Y11822D01*
G01X20717Y11823D01*
G01X20705Y11824D01*
G01X20700Y11825D01*
G01X20687Y11826D01*
G01X20682Y11826D01*
G01X20669Y11826D01*
G01X20667Y11826D01*
G01X20312Y11826D01*
G01X20310Y11826D01*
G01X20297Y11826D01*
G01X20292Y11826D01*
G01X20279Y11825D01*
G01X20274Y11824D01*
G01X20262Y11823D01*
G01X20257Y11822D01*
G01X20244Y11820D01*
G01X20239Y11819D01*
G01X20227Y11816D01*
G01X20222Y11815D01*
G01X20210Y11811D01*
G01X20205Y11810D01*
G01X20193Y11806D01*
G01X20188Y11804D01*
G01X20176Y11799D01*
G01X20172Y11798D01*
G01X20160Y11792D01*
G01X20156Y11790D01*
G01X20144Y11784D01*
G01X20140Y11782D01*
G01X20129Y11775D01*
G01X20125Y11773D01*
G01X20114Y11766D01*
G01X20110Y11763D01*
G01X20099Y11756D01*
G01X20096Y11753D01*
G01X20086Y11745D01*
G01X20082Y11742D01*
G01X20072Y11733D01*
G01X20068Y11730D01*
G01X20059Y11721D01*
G01X20056Y11717D01*
G01X20047Y11708D01*
G01X20044Y11704D01*
G01X20036Y11694D01*
G01X20033Y11690D01*
G01X20025Y11680D01*
G01X20022Y11676D01*
G01X20015Y11666D01*
G01X20012Y11661D01*
G01X20005Y11651D01*
G01X20003Y11646D01*
G01X19997Y11635D01*
G01X19994Y11631D01*
G01X19989Y11619D01*
G01X19987Y11615D01*
G01X19982Y11603D01*
G01X19980Y11598D01*
G01X19976Y11586D01*
G01X19974Y11582D01*
G01X19970Y11569D01*
G01X19969Y11564D01*
G01X19966Y11552D01*
G01X19965Y11547D01*
G01X19962Y11535D01*
G01X19961Y11530D01*
G01X19960Y11517D01*
G01X19959Y11512D01*
G01X19958Y11500D01*
G01X19957Y11495D01*
G01X19957Y11482D01*
G01X19956Y11477D01*
G01X19956Y11464D01*
G01X19957Y11459D01*
G01X19957Y11446D01*
G01X19958Y11441D01*
G01X19959Y11429D01*
G01X19960Y11424D01*
G01X19961Y11411D01*
G01X19962Y11406D01*
G01X19965Y11394D01*
G01X19966Y11389D01*
G01X19969Y11377D01*
G01X19970Y11372D01*
G01X19974Y11359D01*
G01X19976Y11355D01*
G01X19980Y11343D01*
G01X19982Y11338D01*
G01X19987Y11326D01*
G01X19989Y11322D01*
G01X19994Y11310D01*
G01X19997Y11306D01*
G01X20003Y11295D01*
G01X20005Y11290D01*
G01X20012Y11280D01*
G01X20015Y11275D01*
G01X20022Y11265D01*
G01X20025Y11261D01*
G01X20033Y11251D01*
G01X20036Y11247D01*
G01X20044Y11237D01*
G01X20047Y11233D01*
G01X20056Y11224D01*
G01X20059Y11220D01*
G01X20068Y11211D01*
G01X20072Y11208D01*
G01X20082Y11199D01*
G01X20086Y11196D01*
G01X20096Y11188D01*
G01X20099Y11185D01*
G01X20110Y11178D01*
G01X20114Y11175D01*
G01X20125Y11168D01*
G01X20129Y11166D01*
G01X20140Y11159D01*
G01X20144Y11157D01*
G01X20156Y11151D01*
G01X20160Y11149D01*
G01X20172Y11144D01*
G01X20176Y11142D01*
G01X20188Y11137D01*
G01X20193Y11135D01*
G01X20205Y11131D01*
G01X20210Y11130D01*
G01X20222Y11126D01*
G01X20227Y11125D01*
G01X20239Y11122D01*
G01X20244Y11121D01*
G01X20257Y11119D01*
G01X20262Y11118D01*
G01X20274Y11117D01*
G01X20279Y11116D01*
G01X20292Y11115D01*
G01X20297Y11115D01*
G01X20310Y11115D01*
G01X20312Y11115D01*
G01X20667Y11115D01*
G01X20669Y11115D01*
G01X20682Y11115D01*
G01X20687Y11115D01*
G01X20700Y11116D01*
G01X20705Y11117D01*
G01X20717Y11118D01*
G01X20722Y11119D01*
G01X20735Y11121D01*
G01X20740Y11122D01*
G01X20752Y11125D01*
G01X20757Y11126D01*
G01X20769Y11130D01*
G01X20774Y11131D01*
G01X20786Y11135D01*
G01X20791Y11137D01*
G01X20803Y11142D01*
G01X20807Y11144D01*
G01X20819Y11149D01*
G01X20823Y11151D01*
G01X20835Y11157D01*
G01X20839Y11159D01*
G01X20850Y11166D01*
G01X20854Y11168D01*
G01X20865Y11175D01*
G01X20869Y11178D01*
G01X20875Y11182D01*
G01X20875Y10075D01*
G01X19372Y10075D01*
G01X19223Y10223D01*
G01X19219Y10227D01*
G01X19215Y10231D01*
G01X19211Y10235D01*
G01X19206Y10238D01*
G01X19201Y10242D01*
G01X19197Y10245D01*
G01X19192Y10248D01*
G01X19187Y10251D01*
G01X19182Y10254D01*
G01X19177Y10256D01*
G01X19172Y10259D01*
G01X19166Y10261D01*
G01X19161Y10263D01*
G01X19156Y10265D01*
G01X19150Y10267D01*
G01X19145Y10269D01*
G01X19139Y10270D01*
G01X19134Y10271D01*
G01X19128Y10272D01*
G01X19122Y10273D01*
G01X19117Y10274D01*
G01X19111Y10274D01*
G01X19105Y10274D01*
G01X19100Y10275D01*
G01X17450Y10275D01*
G01X17444Y10274D01*
G01X17438Y10274D01*
G01X17432Y10274D01*
G01X17427Y10273D01*
G01X17421Y10272D01*
G01X17415Y10271D01*
G01X17410Y10270D01*
G01X17404Y10269D01*
G01X17399Y10267D01*
G01X17393Y10265D01*
G01X17388Y10263D01*
G01X17383Y10261D01*
G01X17377Y10259D01*
G01X17372Y10256D01*
G01X17367Y10254D01*
G01X17362Y10251D01*
G01X17357Y10248D01*
G01X17352Y10245D01*
G01X17348Y10242D01*
G01X17343Y10238D01*
G01X17338Y10235D01*
G01X17334Y10231D01*
G01X17330Y10227D01*
G01X17326Y10223D01*
G01X17150Y10047D01*
G01X17150Y10817D01*
G01X17232Y10900D01*
G01X17450Y10900D01*
G01X17456Y10900D01*
G01X17462Y10900D01*
G01X17468Y10900D01*
G01X17474Y10901D01*
G01X17480Y10902D01*
G01X17486Y10903D01*
G01X17491Y10904D01*
G01X17497Y10905D01*
G01X17503Y10907D01*
G01X17509Y10909D01*
G01X17515Y10910D01*
G01X17520Y10913D01*
G01X17526Y10915D01*
G01X17532Y10917D01*
G01X17537Y10920D01*
G01X17542Y10922D01*
G01X17548Y10925D01*
G01X17553Y10928D01*
G01X17558Y10932D01*
G01X17563Y10935D01*
G01X17568Y10938D01*
G01X17573Y10942D01*
G01X17578Y10946D01*
G01X17582Y10950D01*
G01X17587Y10954D01*
G01X17591Y10958D01*
G01X17841Y11208D01*
G01X17845Y11212D01*
G01X17849Y11217D01*
G01X17853Y11221D01*
G01X17857Y11226D01*
G01X17861Y11231D01*
G01X17864Y11236D01*
G01X17867Y11241D01*
G01X17871Y11246D01*
G01X17874Y11251D01*
G01X17877Y11257D01*
G01X17879Y11262D01*
G01X17882Y11267D01*
G01X17884Y11273D01*
G01X17886Y11279D01*
G01X17889Y11284D01*
G01X17890Y11290D01*
G01X17892Y11296D01*
G01X17894Y11302D01*
G01X17895Y11308D01*
G01X17896Y11313D01*
G01X17897Y11319D01*
G01X17898Y11325D01*
G01X17899Y11331D01*
G01X17899Y11337D01*
G01X17899Y11343D01*
G01X17900Y11350D01*
G01X17900Y12450D01*
G01X17899Y12456D01*
G01X17899Y12462D01*
G01X17899Y12468D01*
G01X17898Y12474D01*
G01X17897Y12480D01*
G01X17896Y12486D01*
G01X17895Y12491D01*
G01X17894Y12497D01*
G01X17892Y12503D01*
G01X17890Y12509D01*
G01X17889Y12515D01*
G01X17886Y12520D01*
G01X17884Y12526D01*
G01X17882Y12532D01*
G01X17879Y12537D01*
G01X17877Y12542D01*
G01X17874Y12548D01*
G01X17871Y12553D01*
G01X17867Y12558D01*
G01X17864Y12563D01*
G01X17861Y12568D01*
G01X17857Y12573D01*
G01X17853Y12578D01*
G01X17849Y12582D01*
G01X17845Y12587D01*
G01X17841Y12591D01*
G01X17750Y12682D01*
G01X17750Y14032D01*
G01X18097Y14225D01*
G01X18102Y14228D01*
G01X18107Y14231D01*
G01X18112Y14234D01*
G01X18117Y14237D01*
G01X18121Y14241D01*
G01X18126Y14245D01*
G01X18130Y14248D01*
G01X18135Y14252D01*
G01X18139Y14256D01*
G01X18143Y14261D01*
G01X18147Y14265D01*
G01X18151Y14269D01*
G01X18155Y14274D01*
G01X18159Y14278D01*
G01X18162Y14283D01*
G01X18166Y14288D01*
G01X18169Y14293D01*
G01X18172Y14298D01*
G01X18175Y14303D01*
G01X18178Y14308D01*
G01X18180Y14314D01*
G01X18183Y14319D01*
G01X18185Y14325D01*
G01X18187Y14330D01*
G01X18189Y14336D01*
G01X18191Y14341D01*
G01X18192Y14347D01*
G01X18194Y14353D01*
G01X18195Y14358D01*
G01X18196Y14364D01*
G01X18197Y14370D01*
G01X18198Y14376D01*
G01X18199Y14382D01*
G01X18199Y14388D01*
G01X18199Y14394D01*
G01X18200Y14400D01*
G01X18200Y14904D01*
G01X18204Y14913D01*
G01X18212Y14934D01*
G01X18217Y14956D01*
G01X18220Y14977D01*
G01X18222Y15000D01*
G01X18220Y15022D01*
G01X18217Y15043D01*
G01X18212Y15065D01*
G01X18204Y15086D01*
G01X18194Y15106D01*
G01X18183Y15125D01*
G01X18170Y15142D01*
G01X18155Y15158D01*
G01X18138Y15173D01*
G01X18120Y15186D01*
G01X18101Y15197D01*
G01X18081Y15206D01*
G01X18060Y15213D01*
G01X18038Y15218D01*
G01X18016Y15221D01*
G01X17994Y15221D01*
G01X17972Y15220D01*
G01X17950Y15216D01*
G01X17929Y15210D01*
G01X17908Y15202D01*
G01X17889Y15192D01*
G01X17870Y15180D01*
G01X17853Y15166D01*
G01X17837Y15151D01*
G01X17823Y15134D01*
G01X17810Y15115D01*
G01X17799Y15096D01*
G01X17791Y15075D01*
G01X17784Y15054D01*
G01X17780Y15033D01*
G01X17778Y15011D01*
G01X17778Y15007D01*
G01X17760Y15013D01*
G01X17738Y15018D01*
G01X17716Y15021D01*
G01X17694Y15021D01*
G01X17672Y15020D01*
G01X17650Y15016D01*
G01X17629Y15010D01*
G01X17608Y15002D01*
G01X17589Y14992D01*
G01X17570Y14980D01*
G01X17553Y14966D01*
G01X17537Y14951D01*
G01X17523Y14934D01*
G01X17510Y14915D01*
G01X17499Y14896D01*
G01X17491Y14875D01*
G01X17484Y14854D01*
G01X17480Y14833D01*
G01X17478Y14811D01*
G01X17478Y14788D01*
G01X17480Y14766D01*
G01X17484Y14745D01*
G01X17491Y14724D01*
G01X17499Y14703D01*
G01X17510Y14684D01*
G01X17515Y14677D01*
G01X17437Y14600D01*
G01X16850Y14600D01*
G01X16844Y14599D01*
G01X16839Y14599D01*
G01X16834Y14599D01*
G01X16829Y14598D01*
G01X16824Y14597D01*
G01X16819Y14596D01*
G01X16814Y14595D01*
G01X16809Y14594D01*
G01X16804Y14592D01*
G01X16799Y14591D01*
G01X16794Y14589D01*
G01X16790Y14587D01*
G01X16785Y14585D01*
G01X16780Y14583D01*
G01X16776Y14580D01*
G01X16772Y14578D01*
G01X16767Y14575D01*
G01X16763Y14572D01*
G01X16759Y14569D01*
G01X16755Y14566D01*
G01X16751Y14563D01*
G01X16747Y14559D01*
G01X16743Y14556D01*
G01X16587Y14400D01*
G01X15850Y14400D01*
G01X15844Y14399D01*
G01X15839Y14399D01*
G01X15834Y14399D01*
G01X15829Y14398D01*
G01X15824Y14397D01*
G01X15819Y14396D01*
G01X15814Y14395D01*
G01X15809Y14394D01*
G01X15804Y14392D01*
G01X15799Y14391D01*
G01X15794Y14389D01*
G01X15790Y14387D01*
G01X15785Y14385D01*
G01X15780Y14383D01*
G01X15776Y14380D01*
G01X15772Y14378D01*
G01X15767Y14375D01*
G01X15763Y14372D01*
G01X15759Y14369D01*
G01X15755Y14366D01*
G01X15751Y14363D01*
G01X15747Y14359D01*
G01X15743Y14356D01*
G01X15643Y14256D01*
G01X15642Y14254D01*
G01X15640Y14252D01*
G01X15639Y14251D01*
G01X15638Y14250D01*
G01X15637Y14248D01*
G01X15635Y14246D01*
G01X15634Y14245D01*
G01X15633Y14244D01*
G01X15632Y14242D01*
G01X15630Y14240D01*
G01X15629Y14239D01*
G01X15629Y14239D01*
G01X15627Y14236D01*
G01X15626Y14234D01*
G01X15625Y14233D01*
G01X15625Y14232D01*
G01X15623Y14230D01*
G01X15622Y14228D01*
G01X15621Y14227D01*
G01X15621Y14226D01*
G01X15619Y14224D01*
G01X15618Y14221D01*
G01X15617Y14220D01*
G01X15617Y14220D01*
G01X15616Y14217D01*
G01X15614Y14215D01*
G01X15614Y14214D01*
G01X15614Y14213D01*
G01X15612Y14210D01*
G01X15611Y14208D01*
G01X15611Y14207D01*
G01X15611Y14206D01*
G01X15609Y14203D01*
G01X15609Y14201D01*
G01X15608Y14200D01*
G01X15608Y14199D01*
G01X15607Y14196D01*
G01X15606Y14194D01*
G01X15606Y14193D01*
G01X15606Y14192D01*
G01X15605Y14189D01*
G01X15604Y14187D01*
G01X15604Y14186D01*
G01X15604Y14185D01*
G01X15603Y14182D01*
G01X15602Y14179D01*
G01X15602Y14178D01*
G01X15602Y14177D01*
G01X15602Y14175D01*
G01X15601Y14172D01*
G01X15601Y14171D01*
G01X15601Y14170D01*
G01X15601Y14167D01*
G01X15600Y14164D01*
G01X15600Y14164D01*
G01X15600Y14163D01*
G01X15600Y14160D01*
G01X15600Y14157D01*
G01X15600Y14156D01*
G01X15600Y14155D01*
G01X15600Y14152D01*
G01X15600Y14150D01*
G01X15600Y12562D01*
G01X15587Y12550D01*
G01X12350Y12550D01*
G01X12344Y12549D01*
G01X12339Y12549D01*
G01X12334Y12549D01*
G01X12329Y12548D01*
G01X12324Y12547D01*
G01X12319Y12546D01*
G01X12314Y12545D01*
G01X12309Y12544D01*
G01X12304Y12542D01*
G01X12299Y12541D01*
G01X12294Y12539D01*
G01X12290Y12537D01*
G01X12285Y12535D01*
G01X12280Y12533D01*
G01X12276Y12530D01*
G01X12272Y12528D01*
G01X12267Y12525D01*
G01X12263Y12522D01*
G01X12259Y12519D01*
G01X12255Y12516D01*
G01X12251Y12513D01*
G01X12247Y12509D01*
G01X12243Y12506D01*
G01X12143Y12406D01*
G01X12140Y12402D01*
G01X12136Y12398D01*
G01X12133Y12394D01*
G01X12130Y12390D01*
G01X12127Y12386D01*
G01X12124Y12382D01*
G01X12121Y12377D01*
G01X12119Y12373D01*
G01X12116Y12369D01*
G01X12114Y12364D01*
G01X12112Y12359D01*
G01X12110Y12355D01*
G01X12108Y12350D01*
G01X12107Y12345D01*
G01X12105Y12340D01*
G01X12104Y12335D01*
G01X12103Y12330D01*
G01X12102Y12325D01*
G01X12101Y12320D01*
G01X12100Y12315D01*
G01X12100Y12310D01*
G01X12100Y12305D01*
G01X12100Y12300D01*
G01X12100Y11963D01*
G01X12087Y11951D01*
G01X12073Y11934D01*
G01X12060Y11915D01*
G01X12049Y11896D01*
G01X12041Y11875D01*
G01X12034Y11854D01*
G01X12030Y11833D01*
G01X12028Y11811D01*
G01X12028Y11788D01*
G01X12030Y11766D01*
G01X12034Y11745D01*
G01X12041Y11724D01*
G01X12049Y11703D01*
G01X12060Y11684D01*
G01X12073Y11665D01*
G01X12087Y11648D01*
G01X12103Y11633D01*
G01X12120Y11619D01*
G01X12139Y11607D01*
G01X12158Y11597D01*
G01X12179Y11589D01*
G01X12200Y11583D01*
G01X12222Y11579D01*
G01X12244Y11578D01*
G01X12266Y11578D01*
G01X12288Y11581D01*
G01X12310Y11586D01*
G01X12331Y11593D01*
G01X12351Y11602D01*
G01X12370Y11613D01*
G01X12388Y11626D01*
G01X12405Y11641D01*
G01X12420Y11657D01*
G01X12433Y11674D01*
G01X12444Y11693D01*
G01X12454Y11713D01*
G01X12462Y11734D01*
G01X12467Y11756D01*
G01X12470Y11777D01*
G01X12472Y11800D01*
G01X12470Y11822D01*
G01X12467Y11843D01*
G01X12462Y11865D01*
G01X12454Y11886D01*
G01X12444Y11906D01*
G01X12433Y11925D01*
G01X12420Y11942D01*
G01X12405Y11958D01*
G01X12400Y11963D01*
G01X12400Y12237D01*
G01X12412Y12250D01*
G01X15650Y12250D01*
G01X15655Y12250D01*
G01X15660Y12250D01*
G01X15665Y12250D01*
G01X15670Y12251D01*
G01X15675Y12252D01*
G01X15680Y12253D01*
G01X15685Y12254D01*
G01X15690Y12255D01*
G01X15695Y12257D01*
G01X15700Y12258D01*
G01X15705Y12260D01*
G01X15709Y12262D01*
G01X15714Y12264D01*
G01X15719Y12266D01*
G01X15723Y12269D01*
G01X15727Y12271D01*
G01X15732Y12274D01*
G01X15736Y12277D01*
G01X15740Y12280D01*
G01X15744Y12283D01*
G01X15748Y12286D01*
G01X15752Y12290D01*
G01X15756Y12293D01*
G01X15856Y12393D01*
G01X15859Y12397D01*
G01X15863Y12401D01*
G01X15866Y12405D01*
G01X15869Y12409D01*
G01X15872Y12413D01*
G01X15875Y12417D01*
G01X15878Y12422D01*
G01X15880Y12426D01*
G01X15883Y12430D01*
G01X15885Y12435D01*
G01X15887Y12440D01*
G01X15889Y12444D01*
G01X15891Y12449D01*
G01X15892Y12454D01*
G01X15894Y12459D01*
G01X15895Y12464D01*
G01X15896Y12469D01*
G01X15897Y12474D01*
G01X15898Y12479D01*
G01X15899Y12484D01*
G01X15899Y12489D01*
G01X15899Y12494D01*
G01X15900Y12500D01*
G01X15900Y14087D01*
G01X15912Y14100D01*
G01X16650Y14100D01*
G01X16655Y14100D01*
G01X16660Y14100D01*
G01X16665Y14100D01*
G01X16670Y14101D01*
G01X16675Y14102D01*
G01X16680Y14103D01*
G01X16685Y14104D01*
G01X16690Y14105D01*
G01X16695Y14107D01*
G01X16700Y14108D01*
G01X16705Y14110D01*
G01X16709Y14112D01*
G01X16714Y14114D01*
G01X16719Y14116D01*
G01X16723Y14119D01*
G01X16727Y14121D01*
G01X16732Y14124D01*
G01X16736Y14127D01*
G01X16740Y14130D01*
G01X16744Y14133D01*
G01X16748Y14136D01*
G01X16752Y14140D01*
G01X16756Y14143D01*
G01X16912Y14300D01*
G01X17417Y14300D01*
G01X17414Y14297D01*
G01X17410Y14293D01*
G01X17406Y14288D01*
G01X17402Y14284D01*
G01X17398Y14280D01*
G01X17394Y14275D01*
G01X17390Y14271D01*
G01X17387Y14266D01*
G01X17383Y14261D01*
G01X17380Y14256D01*
G01X17377Y14251D01*
G01X17374Y14246D01*
G01X17371Y14241D01*
G01X17369Y14235D01*
G01X17366Y14230D01*
G01X17364Y14224D01*
G01X17362Y14219D01*
G01X17360Y14213D01*
G01X17358Y14208D01*
G01X17357Y14202D01*
G01X17355Y14196D01*
G01X17354Y14191D01*
G01X17353Y14185D01*
G01X17352Y14179D01*
G01X17351Y14173D01*
G01X17350Y14167D01*
G01X17350Y14161D01*
G01X17350Y14155D01*
G01X17350Y14150D01*
G01X17350Y12600D01*
G01X17350Y12593D01*
G01X17350Y12587D01*
G01X17350Y12581D01*
G01X17351Y12575D01*
G01X17352Y12569D01*
G01X17353Y12563D01*
G01X17354Y12558D01*
G01X17355Y12552D01*
G01X17357Y12546D01*
G01X17359Y12540D01*
G01X17360Y12534D01*
G01X17363Y12529D01*
G01X17365Y12523D01*
G01X17367Y12517D01*
G01X17370Y12512D01*
G01X17372Y12507D01*
G01X17375Y12501D01*
G01X17378Y12496D01*
G01X17382Y12491D01*
G01X17385Y12486D01*
G01X17388Y12481D01*
G01X17392Y12476D01*
G01X17396Y12471D01*
G01X17400Y12467D01*
G01X17404Y12462D01*
G01X17408Y12458D01*
G01X17500Y12367D01*
G01X17500Y11432D01*
G01X17367Y11300D01*
G01X17150Y11300D01*
G01X17143Y11299D01*
G01X17137Y11299D01*
G01X17131Y11299D01*
G01X17125Y11298D01*
G01X17119Y11297D01*
G01X17113Y11296D01*
G01X17108Y11295D01*
G01X17102Y11294D01*
G01X17096Y11292D01*
G01X17090Y11290D01*
G01X17084Y11289D01*
G01X17079Y11286D01*
G01X17073Y11284D01*
G01X17067Y11282D01*
G01X17062Y11279D01*
G01X17057Y11277D01*
G01X17051Y11274D01*
G01X17046Y11271D01*
G01X17041Y11267D01*
G01X17036Y11264D01*
G01X17031Y11261D01*
G01X17026Y11257D01*
G01X17021Y11253D01*
G01X17017Y11249D01*
G01X17012Y11245D01*
G01X17008Y11241D01*
G01X16808Y11041D01*
G01X16804Y11037D01*
G01X16800Y11032D01*
G01X16796Y11028D01*
G01X16792Y11023D01*
G01X16788Y11018D01*
G01X16785Y11013D01*
G01X16782Y11008D01*
G01X16778Y11003D01*
G01X16775Y10998D01*
G01X16772Y10992D01*
G01X16770Y10987D01*
G01X16767Y10982D01*
G01X16765Y10976D01*
G01X16763Y10970D01*
G01X16760Y10965D01*
G01X16759Y10959D01*
G01X16757Y10953D01*
G01X16755Y10947D01*
G01X16754Y10941D01*
G01X16753Y10936D01*
G01X16752Y10930D01*
G01X16751Y10924D01*
G01X16750Y10918D01*
G01X16750Y10912D01*
G01X16750Y10906D01*
G01X16750Y10900D01*
G01X16750Y8982D01*
G01X16667Y8900D01*
G01X16657Y8900D01*
G01X16638Y8930D01*
G01X16614Y8963D01*
G01X16586Y8993D01*
G01X16555Y9020D01*
G01X16522Y9044D01*
G01X16487Y9064D01*
G01X16449Y9081D01*
G01X16411Y9094D01*
G01X16371Y9103D01*
G01X16330Y9108D01*
G01X16289Y9109D01*
G01X16249Y9106D01*
G01X16208Y9099D01*
G01X16169Y9088D01*
G01X16131Y9073D01*
G01X16094Y9055D01*
G01X16060Y9032D01*
G01X16028Y9007D01*
G01X15999Y8978D01*
G01X15973Y8947D01*
G01X15950Y8913D01*
G01X15930Y8877D01*
G01X15914Y8840D01*
G01X15902Y8801D01*
G01X15894Y8761D01*
G01X15890Y8720D01*
G01X15890Y8679D01*
G01X15894Y8638D01*
G01X15902Y8598D01*
G01X15914Y8559D01*
G01X15930Y8522D01*
G01X15950Y8486D01*
G01X15973Y8452D01*
G01X15999Y8421D01*
G01X16028Y8392D01*
G01X16060Y8367D01*
G01X16094Y8344D01*
G01X16131Y8326D01*
G01X16169Y8311D01*
G01X16208Y8300D01*
G01X16249Y8293D01*
G01X16289Y8290D01*
G37*
G36*
G01X10089Y8290D02*
G01X10130Y8291D01*
G01X10171Y8296D01*
G01X10211Y8305D01*
G01X10249Y8318D01*
G01X10287Y8335D01*
G01X10322Y8355D01*
G01X10355Y8379D01*
G01X10386Y8406D01*
G01X10414Y8436D01*
G01X10438Y8469D01*
G01X10460Y8503D01*
G01X10477Y8540D01*
G01X10491Y8579D01*
G01X10501Y8618D01*
G01X10507Y8659D01*
G01X10510Y8700D01*
G01X10507Y8740D01*
G01X10501Y8781D01*
G01X10491Y8820D01*
G01X10477Y8859D01*
G01X10460Y8896D01*
G01X10438Y8930D01*
G01X10414Y8963D01*
G01X10386Y8993D01*
G01X10355Y9020D01*
G01X10322Y9044D01*
G01X10287Y9064D01*
G01X10249Y9081D01*
G01X10211Y9094D01*
G01X10171Y9103D01*
G01X10130Y9108D01*
G01X10089Y9109D01*
G01X10049Y9106D01*
G01X10008Y9099D01*
G01X9969Y9088D01*
G01X9931Y9073D01*
G01X9894Y9055D01*
G01X9860Y9032D01*
G01X9828Y9007D01*
G01X9799Y8978D01*
G01X9773Y8947D01*
G01X9750Y8913D01*
G01X9730Y8877D01*
G01X9714Y8840D01*
G01X9702Y8801D01*
G01X9694Y8761D01*
G01X9690Y8720D01*
G01X9690Y8679D01*
G01X9694Y8638D01*
G01X9702Y8598D01*
G01X9714Y8559D01*
G01X9730Y8522D01*
G01X9750Y8486D01*
G01X9773Y8452D01*
G01X9799Y8421D01*
G01X9828Y8392D01*
G01X9860Y8367D01*
G01X9894Y8344D01*
G01X9931Y8326D01*
G01X9969Y8311D01*
G01X10008Y8300D01*
G01X10049Y8293D01*
G01X10089Y8290D01*
G37*
G36*
G01X12489Y8290D02*
G01X12530Y8291D01*
G01X12571Y8296D01*
G01X12611Y8305D01*
G01X12649Y8318D01*
G01X12687Y8335D01*
G01X12722Y8355D01*
G01X12755Y8379D01*
G01X12786Y8406D01*
G01X12814Y8436D01*
G01X12838Y8469D01*
G01X12860Y8503D01*
G01X12877Y8540D01*
G01X12891Y8579D01*
G01X12901Y8618D01*
G01X12907Y8659D01*
G01X12910Y8700D01*
G01X12907Y8740D01*
G01X12901Y8781D01*
G01X12891Y8820D01*
G01X12877Y8859D01*
G01X12860Y8896D01*
G01X12838Y8930D01*
G01X12814Y8963D01*
G01X12786Y8993D01*
G01X12755Y9020D01*
G01X12722Y9044D01*
G01X12687Y9064D01*
G01X12649Y9081D01*
G01X12611Y9094D01*
G01X12571Y9103D01*
G01X12530Y9108D01*
G01X12489Y9109D01*
G01X12449Y9106D01*
G01X12408Y9099D01*
G01X12369Y9088D01*
G01X12331Y9073D01*
G01X12294Y9055D01*
G01X12260Y9032D01*
G01X12228Y9007D01*
G01X12199Y8978D01*
G01X12173Y8947D01*
G01X12150Y8913D01*
G01X12130Y8877D01*
G01X12114Y8840D01*
G01X12102Y8801D01*
G01X12094Y8761D01*
G01X12090Y8720D01*
G01X12090Y8679D01*
G01X12094Y8638D01*
G01X12102Y8598D01*
G01X12114Y8559D01*
G01X12130Y8522D01*
G01X12150Y8486D01*
G01X12173Y8452D01*
G01X12199Y8421D01*
G01X12228Y8392D01*
G01X12260Y8367D01*
G01X12294Y8344D01*
G01X12331Y8326D01*
G01X12369Y8311D01*
G01X12408Y8300D01*
G01X12449Y8293D01*
G01X12489Y8290D01*
G37*
G36*
G01X13489Y8290D02*
G01X13530Y8291D01*
G01X13571Y8296D01*
G01X13611Y8305D01*
G01X13649Y8318D01*
G01X13687Y8335D01*
G01X13722Y8355D01*
G01X13755Y8379D01*
G01X13786Y8406D01*
G01X13814Y8436D01*
G01X13838Y8469D01*
G01X13860Y8503D01*
G01X13877Y8540D01*
G01X13891Y8579D01*
G01X13901Y8618D01*
G01X13907Y8659D01*
G01X13910Y8700D01*
G01X13907Y8740D01*
G01X13901Y8781D01*
G01X13891Y8820D01*
G01X13877Y8859D01*
G01X13860Y8896D01*
G01X13838Y8930D01*
G01X13814Y8963D01*
G01X13786Y8993D01*
G01X13755Y9020D01*
G01X13722Y9044D01*
G01X13687Y9064D01*
G01X13649Y9081D01*
G01X13611Y9094D01*
G01X13571Y9103D01*
G01X13530Y9108D01*
G01X13489Y9109D01*
G01X13449Y9106D01*
G01X13408Y9099D01*
G01X13369Y9088D01*
G01X13331Y9073D01*
G01X13294Y9055D01*
G01X13260Y9032D01*
G01X13228Y9007D01*
G01X13199Y8978D01*
G01X13173Y8947D01*
G01X13150Y8913D01*
G01X13130Y8877D01*
G01X13114Y8840D01*
G01X13102Y8801D01*
G01X13094Y8761D01*
G01X13090Y8720D01*
G01X13090Y8679D01*
G01X13094Y8638D01*
G01X13102Y8598D01*
G01X13114Y8559D01*
G01X13130Y8522D01*
G01X13150Y8486D01*
G01X13173Y8452D01*
G01X13199Y8421D01*
G01X13228Y8392D01*
G01X13260Y8367D01*
G01X13294Y8344D01*
G01X13331Y8326D01*
G01X13369Y8311D01*
G01X13408Y8300D01*
G01X13449Y8293D01*
G01X13489Y8290D01*
G37*
G36*
G01X4446Y24097D02*
G01X4487Y24098D01*
G01X4528Y24103D01*
G01X4568Y24112D01*
G01X4606Y24125D01*
G01X4644Y24142D01*
G01X4679Y24162D01*
G01X4712Y24186D01*
G01X4743Y24213D01*
G01X4771Y24243D01*
G01X4795Y24276D01*
G01X4817Y24310D01*
G01X4834Y24347D01*
G01X4848Y24386D01*
G01X4858Y24425D01*
G01X4864Y24466D01*
G01X4867Y24507D01*
G01X4864Y24547D01*
G01X4858Y24588D01*
G01X4848Y24627D01*
G01X4834Y24666D01*
G01X4817Y24703D01*
G01X4795Y24737D01*
G01X4771Y24770D01*
G01X4743Y24800D01*
G01X4712Y24827D01*
G01X4679Y24851D01*
G01X4644Y24871D01*
G01X4606Y24888D01*
G01X4568Y24901D01*
G01X4528Y24910D01*
G01X4487Y24915D01*
G01X4446Y24916D01*
G01X4406Y24913D01*
G01X4365Y24906D01*
G01X4326Y24895D01*
G01X4288Y24880D01*
G01X4252Y24862D01*
G01X4217Y24839D01*
G01X4185Y24814D01*
G01X4156Y24785D01*
G01X4130Y24754D01*
G01X4107Y24720D01*
G01X4087Y24684D01*
G01X4071Y24647D01*
G01X4059Y24608D01*
G01X4051Y24568D01*
G01X4047Y24527D01*
G01X4047Y24486D01*
G01X4051Y24445D01*
G01X4059Y24405D01*
G01X4071Y24366D01*
G01X4087Y24329D01*
G01X4107Y24293D01*
G01X4130Y24259D01*
G01X4156Y24228D01*
G01X4185Y24199D01*
G01X4217Y24174D01*
G01X4252Y24151D01*
G01X4288Y24133D01*
G01X4326Y24118D01*
G01X4365Y24107D01*
G01X4406Y24100D01*
G01X4446Y24097D01*
G37*
G36*
G01X24500Y24061D02*
G01X24504Y24061D01*
G01X24508Y24062D01*
G01X24512Y24062D01*
G01X24516Y24063D01*
G01X24520Y24064D01*
G01X24524Y24064D01*
G01X24528Y24066D01*
G01X24532Y24067D01*
G01X24536Y24068D01*
G01X24540Y24070D01*
G01X24543Y24072D01*
G01X24547Y24073D01*
G01X24551Y24075D01*
G01X24554Y24078D01*
G01X24558Y24080D01*
G01X24561Y24082D01*
G01X24564Y24085D01*
G01X24567Y24088D01*
G01X24570Y24091D01*
G01X25009Y24529D01*
G01X25011Y24532D01*
G01X25014Y24535D01*
G01X25017Y24538D01*
G01X25019Y24542D01*
G01X25022Y24545D01*
G01X25024Y24549D01*
G01X25026Y24552D01*
G01X25028Y24556D01*
G01X25029Y24560D01*
G01X25031Y24563D01*
G01X25032Y24567D01*
G01X25034Y24571D01*
G01X25035Y24575D01*
G01X25036Y24579D01*
G01X25037Y24583D01*
G01X25037Y24587D01*
G01X25038Y24592D01*
G01X25038Y24596D01*
G01X25038Y24600D01*
G01X25038Y24604D01*
G01X25038Y24608D01*
G01X25037Y24612D01*
G01X25037Y24616D01*
G01X25036Y24620D01*
G01X25035Y24624D01*
G01X25034Y24628D01*
G01X25032Y24632D01*
G01X25031Y24636D01*
G01X25029Y24640D01*
G01X25028Y24644D01*
G01X25026Y24647D01*
G01X25024Y24651D01*
G01X25022Y24654D01*
G01X25019Y24658D01*
G01X25017Y24661D01*
G01X25014Y24664D01*
G01X25011Y24668D01*
G01X25009Y24671D01*
G01X24570Y25109D01*
G01X24567Y25112D01*
G01X24564Y25115D01*
G01X24561Y25117D01*
G01X24558Y25120D01*
G01X24554Y25122D01*
G01X24551Y25124D01*
G01X24547Y25126D01*
G01X24543Y25128D01*
G01X24540Y25130D01*
G01X24536Y25131D01*
G01X24532Y25133D01*
G01X24528Y25134D01*
G01X24524Y25135D01*
G01X24520Y25136D01*
G01X24516Y25137D01*
G01X24512Y25137D01*
G01X24508Y25138D01*
G01X24504Y25138D01*
G01X24500Y25138D01*
G01X24495Y25138D01*
G01X24491Y25138D01*
G01X24487Y25137D01*
G01X24483Y25137D01*
G01X24479Y25136D01*
G01X24475Y25135D01*
G01X24471Y25134D01*
G01X24467Y25133D01*
G01X24463Y25131D01*
G01X24459Y25130D01*
G01X24456Y25128D01*
G01X24452Y25126D01*
G01X24448Y25124D01*
G01X24445Y25122D01*
G01X24441Y25120D01*
G01X24438Y25117D01*
G01X24435Y25115D01*
G01X24432Y25112D01*
G01X24429Y25109D01*
G01X23990Y24671D01*
G01X23988Y24668D01*
G01X23985Y24664D01*
G01X23982Y24661D01*
G01X23980Y24658D01*
G01X23977Y24654D01*
G01X23975Y24651D01*
G01X23973Y24647D01*
G01X23971Y24644D01*
G01X23970Y24640D01*
G01X23968Y24636D01*
G01X23967Y24632D01*
G01X23965Y24628D01*
G01X23964Y24624D01*
G01X23963Y24620D01*
G01X23962Y24616D01*
G01X23962Y24612D01*
G01X23961Y24608D01*
G01X23961Y24604D01*
G01X23961Y24600D01*
G01X23961Y24596D01*
G01X23961Y24592D01*
G01X23962Y24587D01*
G01X23962Y24583D01*
G01X23963Y24579D01*
G01X23964Y24575D01*
G01X23965Y24571D01*
G01X23967Y24567D01*
G01X23968Y24563D01*
G01X23970Y24560D01*
G01X23971Y24556D01*
G01X23973Y24552D01*
G01X23975Y24549D01*
G01X23977Y24545D01*
G01X23980Y24542D01*
G01X23982Y24538D01*
G01X23985Y24535D01*
G01X23988Y24532D01*
G01X23990Y24529D01*
G01X24429Y24091D01*
G01X24432Y24088D01*
G01X24435Y24085D01*
G01X24438Y24082D01*
G01X24441Y24080D01*
G01X24445Y24078D01*
G01X24448Y24075D01*
G01X24452Y24073D01*
G01X24456Y24072D01*
G01X24459Y24070D01*
G01X24463Y24068D01*
G01X24467Y24067D01*
G01X24471Y24066D01*
G01X24475Y24064D01*
G01X24479Y24064D01*
G01X24483Y24063D01*
G01X24487Y24062D01*
G01X24491Y24062D01*
G01X24495Y24061D01*
G01X24500Y24061D01*
G37*
G36*
G01X15455Y8855D02*
G01X15710Y8855D01*
G01X15710Y9009D01*
G01X15709Y9014D01*
G01X15709Y9018D01*
G01X15709Y9022D01*
G01X15708Y9026D01*
G01X15707Y9030D01*
G01X15706Y9034D01*
G01X15705Y9038D01*
G01X15704Y9042D01*
G01X15703Y9046D01*
G01X15701Y9050D01*
G01X15699Y9053D01*
G01X15697Y9057D01*
G01X15695Y9061D01*
G01X15693Y9064D01*
G01X15691Y9068D01*
G01X15688Y9071D01*
G01X15686Y9074D01*
G01X15683Y9077D01*
G01X15680Y9080D01*
G01X15677Y9083D01*
G01X15674Y9086D01*
G01X15671Y9088D01*
G01X15668Y9091D01*
G01X15664Y9093D01*
G01X15661Y9095D01*
G01X15657Y9097D01*
G01X15653Y9099D01*
G01X15650Y9101D01*
G01X15646Y9103D01*
G01X15642Y9104D01*
G01X15638Y9105D01*
G01X15634Y9106D01*
G01X15630Y9107D01*
G01X15626Y9108D01*
G01X15622Y9109D01*
G01X15618Y9109D01*
G01X15614Y9109D01*
G01X15610Y9109D01*
G01X15455Y9109D01*
G01X15455Y8855D01*
G37*
G36*
G01X14889Y8855D02*
G01X15144Y8855D01*
G01X15144Y9109D01*
G01X14989Y9109D01*
G01X14985Y9109D01*
G01X14981Y9109D01*
G01X14977Y9109D01*
G01X14973Y9108D01*
G01X14969Y9107D01*
G01X14965Y9106D01*
G01X14961Y9105D01*
G01X14957Y9104D01*
G01X14953Y9103D01*
G01X14949Y9101D01*
G01X14946Y9099D01*
G01X14942Y9097D01*
G01X14938Y9095D01*
G01X14935Y9093D01*
G01X14931Y9091D01*
G01X14928Y9088D01*
G01X14925Y9086D01*
G01X14922Y9083D01*
G01X14919Y9080D01*
G01X14916Y9077D01*
G01X14913Y9074D01*
G01X14911Y9071D01*
G01X14908Y9068D01*
G01X14906Y9064D01*
G01X14904Y9061D01*
G01X14902Y9057D01*
G01X14900Y9053D01*
G01X14898Y9050D01*
G01X14896Y9046D01*
G01X14895Y9042D01*
G01X14894Y9038D01*
G01X14893Y9034D01*
G01X14892Y9030D01*
G01X14891Y9026D01*
G01X14890Y9022D01*
G01X14890Y9018D01*
G01X14890Y9014D01*
G01X14889Y9009D01*
G01X14889Y8855D01*
G37*
G36*
G01X11655Y8855D02*
G01X11910Y8855D01*
G01X11910Y9009D01*
G01X11909Y9014D01*
G01X11909Y9018D01*
G01X11909Y9022D01*
G01X11908Y9026D01*
G01X11907Y9030D01*
G01X11906Y9034D01*
G01X11905Y9038D01*
G01X11904Y9042D01*
G01X11903Y9046D01*
G01X11901Y9050D01*
G01X11899Y9053D01*
G01X11897Y9057D01*
G01X11895Y9061D01*
G01X11893Y9064D01*
G01X11891Y9068D01*
G01X11888Y9071D01*
G01X11886Y9074D01*
G01X11883Y9077D01*
G01X11880Y9080D01*
G01X11877Y9083D01*
G01X11874Y9086D01*
G01X11871Y9088D01*
G01X11868Y9091D01*
G01X11864Y9093D01*
G01X11861Y9095D01*
G01X11857Y9097D01*
G01X11853Y9099D01*
G01X11850Y9101D01*
G01X11846Y9103D01*
G01X11842Y9104D01*
G01X11838Y9105D01*
G01X11834Y9106D01*
G01X11830Y9107D01*
G01X11826Y9108D01*
G01X11822Y9109D01*
G01X11818Y9109D01*
G01X11814Y9109D01*
G01X11810Y9109D01*
G01X11655Y9109D01*
G01X11655Y8855D01*
G37*
G36*
G01X11089Y8855D02*
G01X11344Y8855D01*
G01X11344Y9109D01*
G01X11189Y9109D01*
G01X11185Y9109D01*
G01X11181Y9109D01*
G01X11177Y9109D01*
G01X11173Y9108D01*
G01X11169Y9107D01*
G01X11165Y9106D01*
G01X11161Y9105D01*
G01X11157Y9104D01*
G01X11153Y9103D01*
G01X11149Y9101D01*
G01X11146Y9099D01*
G01X11142Y9097D01*
G01X11138Y9095D01*
G01X11135Y9093D01*
G01X11131Y9091D01*
G01X11128Y9088D01*
G01X11125Y9086D01*
G01X11122Y9083D01*
G01X11119Y9080D01*
G01X11116Y9077D01*
G01X11113Y9074D01*
G01X11111Y9071D01*
G01X11108Y9068D01*
G01X11106Y9064D01*
G01X11104Y9061D01*
G01X11102Y9057D01*
G01X11100Y9053D01*
G01X11098Y9050D01*
G01X11096Y9046D01*
G01X11095Y9042D01*
G01X11094Y9038D01*
G01X11093Y9034D01*
G01X11092Y9030D01*
G01X11091Y9026D01*
G01X11090Y9022D01*
G01X11090Y9018D01*
G01X11090Y9014D01*
G01X11089Y9009D01*
G01X11089Y8855D01*
G37*
G36*
G01X25196Y23483D02*
G01X25237Y23484D01*
G01X25278Y23489D01*
G01X25318Y23498D01*
G01X25356Y23511D01*
G01X25394Y23528D01*
G01X25429Y23548D01*
G01X25462Y23572D01*
G01X25493Y23599D01*
G01X25521Y23629D01*
G01X25545Y23662D01*
G01X25567Y23696D01*
G01X25584Y23733D01*
G01X25598Y23772D01*
G01X25608Y23811D01*
G01X25614Y23852D01*
G01X25617Y23892D01*
G01X25614Y23933D01*
G01X25608Y23974D01*
G01X25598Y24013D01*
G01X25584Y24052D01*
G01X25567Y24089D01*
G01X25545Y24123D01*
G01X25521Y24156D01*
G01X25493Y24186D01*
G01X25462Y24213D01*
G01X25429Y24237D01*
G01X25394Y24257D01*
G01X25356Y24274D01*
G01X25318Y24287D01*
G01X25278Y24296D01*
G01X25237Y24301D01*
G01X25196Y24302D01*
G01X25156Y24299D01*
G01X25115Y24292D01*
G01X25076Y24281D01*
G01X25038Y24266D01*
G01X25002Y24248D01*
G01X24967Y24225D01*
G01X24935Y24200D01*
G01X24906Y24171D01*
G01X24880Y24140D01*
G01X24857Y24106D01*
G01X24837Y24070D01*
G01X24821Y24033D01*
G01X24809Y23994D01*
G01X24801Y23954D01*
G01X24797Y23913D01*
G01X24797Y23872D01*
G01X24801Y23831D01*
G01X24809Y23791D01*
G01X24821Y23752D01*
G01X24837Y23715D01*
G01X24857Y23679D01*
G01X24880Y23645D01*
G01X24906Y23614D01*
G01X24935Y23585D01*
G01X24967Y23560D01*
G01X25002Y23537D01*
G01X25038Y23519D01*
G01X25076Y23504D01*
G01X25115Y23493D01*
G01X25156Y23486D01*
G01X25196Y23483D01*
G37*
G36*
G01X3749Y23261D02*
G01X3753Y23261D01*
G01X3757Y23262D01*
G01X3762Y23262D01*
G01X3766Y23263D01*
G01X3770Y23263D01*
G01X3774Y23264D01*
G01X3778Y23265D01*
G01X3782Y23267D01*
G01X3786Y23268D01*
G01X3789Y23270D01*
G01X3793Y23271D01*
G01X3797Y23273D01*
G01X3800Y23275D01*
G01X3804Y23278D01*
G01X3807Y23280D01*
G01X3811Y23282D01*
G01X3814Y23285D01*
G01X3817Y23288D01*
G01X3820Y23291D01*
G01X4258Y23729D01*
G01X4261Y23732D01*
G01X4264Y23735D01*
G01X4267Y23738D01*
G01X4269Y23742D01*
G01X4271Y23745D01*
G01X4274Y23749D01*
G01X4276Y23752D01*
G01X4277Y23756D01*
G01X4279Y23760D01*
G01X4281Y23763D01*
G01X4282Y23767D01*
G01X4283Y23771D01*
G01X4285Y23775D01*
G01X4285Y23779D01*
G01X4286Y23783D01*
G01X4287Y23787D01*
G01X4287Y23791D01*
G01X4288Y23796D01*
G01X4288Y23800D01*
G01X4288Y23804D01*
G01X4287Y23808D01*
G01X4287Y23812D01*
G01X4286Y23816D01*
G01X4285Y23820D01*
G01X4285Y23824D01*
G01X4283Y23828D01*
G01X4282Y23832D01*
G01X4281Y23836D01*
G01X4279Y23840D01*
G01X4277Y23844D01*
G01X4276Y23847D01*
G01X4274Y23851D01*
G01X4271Y23854D01*
G01X4269Y23858D01*
G01X4267Y23861D01*
G01X4264Y23864D01*
G01X4261Y23867D01*
G01X4258Y23870D01*
G01X3820Y24309D01*
G01X3817Y24312D01*
G01X3814Y24314D01*
G01X3811Y24317D01*
G01X3807Y24319D01*
G01X3804Y24322D01*
G01X3800Y24324D01*
G01X3797Y24326D01*
G01X3793Y24328D01*
G01X3789Y24330D01*
G01X3786Y24331D01*
G01X3782Y24333D01*
G01X3778Y24334D01*
G01X3774Y24335D01*
G01X3770Y24336D01*
G01X3766Y24337D01*
G01X3762Y24337D01*
G01X3757Y24338D01*
G01X3753Y24338D01*
G01X3749Y24338D01*
G01X3745Y24338D01*
G01X3741Y24338D01*
G01X3737Y24337D01*
G01X3733Y24337D01*
G01X3729Y24336D01*
G01X3725Y24335D01*
G01X3721Y24334D01*
G01X3717Y24333D01*
G01X3713Y24331D01*
G01X3709Y24330D01*
G01X3705Y24328D01*
G01X3702Y24326D01*
G01X3698Y24324D01*
G01X3695Y24322D01*
G01X3691Y24319D01*
G01X3688Y24317D01*
G01X3685Y24314D01*
G01X3681Y24312D01*
G01X3678Y24309D01*
G01X3240Y23870D01*
G01X3237Y23867D01*
G01X3234Y23864D01*
G01X3232Y23861D01*
G01X3229Y23858D01*
G01X3227Y23854D01*
G01X3225Y23851D01*
G01X3223Y23847D01*
G01X3221Y23844D01*
G01X3219Y23840D01*
G01X3218Y23836D01*
G01X3216Y23832D01*
G01X3215Y23828D01*
G01X3214Y23824D01*
G01X3213Y23820D01*
G01X3212Y23816D01*
G01X3212Y23812D01*
G01X3211Y23808D01*
G01X3211Y23804D01*
G01X3211Y23800D01*
G01X3211Y23796D01*
G01X3211Y23791D01*
G01X3212Y23787D01*
G01X3212Y23783D01*
G01X3213Y23779D01*
G01X3214Y23775D01*
G01X3215Y23771D01*
G01X3216Y23767D01*
G01X3218Y23763D01*
G01X3219Y23760D01*
G01X3221Y23756D01*
G01X3223Y23752D01*
G01X3225Y23749D01*
G01X3227Y23745D01*
G01X3229Y23742D01*
G01X3232Y23738D01*
G01X3234Y23735D01*
G01X3237Y23732D01*
G01X3240Y23729D01*
G01X3678Y23291D01*
G01X3681Y23288D01*
G01X3685Y23285D01*
G01X3688Y23282D01*
G01X3691Y23280D01*
G01X3695Y23278D01*
G01X3698Y23275D01*
G01X3702Y23273D01*
G01X3705Y23271D01*
G01X3709Y23270D01*
G01X3713Y23268D01*
G01X3717Y23267D01*
G01X3721Y23265D01*
G01X3725Y23264D01*
G01X3729Y23263D01*
G01X3733Y23263D01*
G01X3737Y23262D01*
G01X3741Y23262D01*
G01X3745Y23261D01*
G01X3749Y23261D01*
G37*
G36*
G01X18048Y19156D02*
G01X18067Y19157D01*
G01X18087Y19159D01*
G01X18106Y19163D01*
G01X18125Y19170D01*
G01X18143Y19178D01*
G01X18160Y19188D01*
G01X18176Y19199D01*
G01X18191Y19212D01*
G01X18205Y19227D01*
G01X18217Y19243D01*
G01X18227Y19260D01*
G01X18235Y19277D01*
G01X18242Y19296D01*
G01X18247Y19315D01*
G01X18250Y19332D01*
G01X18250Y19325D01*
G01X18254Y19306D01*
G01X18260Y19287D01*
G01X18268Y19268D01*
G01X18277Y19251D01*
G01X18288Y19235D01*
G01X18301Y19219D01*
G01X18315Y19206D01*
G01X18331Y19193D01*
G01X18347Y19183D01*
G01X18365Y19174D01*
G01X18383Y19166D01*
G01X18402Y19161D01*
G01X18422Y19158D01*
G01X18442Y19156D01*
G01X18461Y19157D01*
G01X18481Y19159D01*
G01X18500Y19163D01*
G01X18519Y19170D01*
G01X18537Y19178D01*
G01X18554Y19188D01*
G01X18570Y19199D01*
G01X18585Y19212D01*
G01X18599Y19227D01*
G01X18611Y19243D01*
G01X18621Y19260D01*
G01X18629Y19277D01*
G01X18636Y19296D01*
G01X18641Y19315D01*
G01X18644Y19335D01*
G01X18645Y19355D01*
G01X18644Y19374D01*
G01X18641Y19394D01*
G01X18636Y19413D01*
G01X18629Y19432D01*
G01X18621Y19449D01*
G01X18611Y19466D01*
G01X18599Y19482D01*
G01X18585Y19497D01*
G01X18570Y19510D01*
G01X18554Y19521D01*
G01X18537Y19531D01*
G01X18519Y19539D01*
G01X18500Y19546D01*
G01X18481Y19550D01*
G01X18461Y19552D01*
G01X18442Y19553D01*
G01X18422Y19551D01*
G01X18424Y19555D01*
G01X18432Y19572D01*
G01X18439Y19591D01*
G01X18444Y19610D01*
G01X18447Y19630D01*
G01X18448Y19650D01*
G01X18447Y19669D01*
G01X18444Y19689D01*
G01X18439Y19708D01*
G01X18432Y19727D01*
G01X18424Y19744D01*
G01X18422Y19748D01*
G01X18442Y19746D01*
G01X18461Y19747D01*
G01X18481Y19749D01*
G01X18500Y19753D01*
G01X18519Y19760D01*
G01X18537Y19768D01*
G01X18554Y19778D01*
G01X18570Y19789D01*
G01X18585Y19802D01*
G01X18599Y19817D01*
G01X18611Y19833D01*
G01X18621Y19850D01*
G01X18629Y19867D01*
G01X18636Y19886D01*
G01X18641Y19905D01*
G01X18644Y19925D01*
G01X18645Y19944D01*
G01X18644Y19964D01*
G01X18641Y19984D01*
G01X18636Y20003D01*
G01X18629Y20022D01*
G01X18621Y20039D01*
G01X18611Y20056D01*
G01X18599Y20072D01*
G01X18585Y20087D01*
G01X18570Y20100D01*
G01X18554Y20111D01*
G01X18537Y20121D01*
G01X18519Y20129D01*
G01X18500Y20136D01*
G01X18481Y20140D01*
G01X18461Y20142D01*
G01X18442Y20143D01*
G01X18422Y20141D01*
G01X18402Y20138D01*
G01X18383Y20133D01*
G01X18365Y20125D01*
G01X18347Y20116D01*
G01X18331Y20106D01*
G01X18315Y20093D01*
G01X18301Y20080D01*
G01X18288Y20064D01*
G01X18277Y20048D01*
G01X18268Y20031D01*
G01X18260Y20012D01*
G01X18254Y19993D01*
G01X18250Y19974D01*
G01X18250Y19967D01*
G01X18247Y19984D01*
G01X18242Y20003D01*
G01X18235Y20022D01*
G01X18227Y20039D01*
G01X18217Y20056D01*
G01X18205Y20072D01*
G01X18191Y20087D01*
G01X18176Y20100D01*
G01X18160Y20111D01*
G01X18143Y20121D01*
G01X18125Y20129D01*
G01X18106Y20136D01*
G01X18087Y20140D01*
G01X18067Y20142D01*
G01X18048Y20143D01*
G01X18028Y20141D01*
G01X18008Y20138D01*
G01X17989Y20133D01*
G01X17971Y20125D01*
G01X17953Y20116D01*
G01X17937Y20106D01*
G01X17921Y20093D01*
G01X17907Y20080D01*
G01X17894Y20064D01*
G01X17883Y20048D01*
G01X17874Y20031D01*
G01X17866Y20012D01*
G01X17860Y19993D01*
G01X17856Y19974D01*
G01X17854Y19954D01*
G01X17854Y19935D01*
G01X17856Y19915D01*
G01X17860Y19896D01*
G01X17866Y19877D01*
G01X17874Y19858D01*
G01X17883Y19841D01*
G01X17894Y19825D01*
G01X17907Y19809D01*
G01X17921Y19796D01*
G01X17937Y19783D01*
G01X17953Y19773D01*
G01X17971Y19764D01*
G01X17989Y19756D01*
G01X18008Y19751D01*
G01X18028Y19748D01*
G01X18048Y19746D01*
G01X18067Y19747D01*
G01X18077Y19748D01*
G01X18071Y19736D01*
G01X18063Y19717D01*
G01X18057Y19698D01*
G01X18053Y19679D01*
G01X18051Y19659D01*
G01X18051Y19640D01*
G01X18053Y19620D01*
G01X18057Y19601D01*
G01X18063Y19582D01*
G01X18071Y19563D01*
G01X18077Y19551D01*
G01X18067Y19552D01*
G01X18048Y19553D01*
G01X18028Y19551D01*
G01X18008Y19548D01*
G01X17989Y19543D01*
G01X17971Y19535D01*
G01X17953Y19526D01*
G01X17937Y19516D01*
G01X17921Y19503D01*
G01X17907Y19490D01*
G01X17894Y19474D01*
G01X17883Y19458D01*
G01X17874Y19441D01*
G01X17866Y19422D01*
G01X17860Y19403D01*
G01X17856Y19384D01*
G01X17854Y19364D01*
G01X17854Y19345D01*
G01X17856Y19325D01*
G01X17860Y19306D01*
G01X17866Y19287D01*
G01X17874Y19268D01*
G01X17883Y19251D01*
G01X17894Y19235D01*
G01X17907Y19219D01*
G01X17921Y19206D01*
G01X17937Y19193D01*
G01X17953Y19183D01*
G01X17971Y19174D01*
G01X17989Y19166D01*
G01X18008Y19161D01*
G01X18028Y19158D01*
G01X18048Y19156D01*
G37*
G36*
G01X7720Y17405D02*
G01X7944Y17405D01*
G01X7944Y17629D01*
G01X7931Y17623D01*
G01X7894Y17605D01*
G01X7860Y17582D01*
G01X7828Y17557D01*
G01X7799Y17528D01*
G01X7773Y17497D01*
G01X7750Y17463D01*
G01X7730Y17427D01*
G01X7720Y17405D01*
G37*
G36*
G01X18048Y16996D02*
G01X18067Y16997D01*
G01X18087Y16999D01*
G01X18106Y17003D01*
G01X18125Y17010D01*
G01X18143Y17018D01*
G01X18160Y17028D01*
G01X18176Y17039D01*
G01X18191Y17052D01*
G01X18205Y17067D01*
G01X18217Y17083D01*
G01X18227Y17100D01*
G01X18235Y17117D01*
G01X18242Y17136D01*
G01X18247Y17155D01*
G01X18250Y17172D01*
G01X18250Y17165D01*
G01X18254Y17146D01*
G01X18260Y17127D01*
G01X18268Y17108D01*
G01X18277Y17091D01*
G01X18288Y17075D01*
G01X18301Y17059D01*
G01X18315Y17046D01*
G01X18331Y17033D01*
G01X18347Y17023D01*
G01X18365Y17014D01*
G01X18383Y17006D01*
G01X18402Y17001D01*
G01X18422Y16998D01*
G01X18442Y16996D01*
G01X18461Y16997D01*
G01X18481Y16999D01*
G01X18500Y17003D01*
G01X18519Y17010D01*
G01X18537Y17018D01*
G01X18554Y17028D01*
G01X18570Y17039D01*
G01X18585Y17052D01*
G01X18599Y17067D01*
G01X18611Y17083D01*
G01X18621Y17100D01*
G01X18629Y17117D01*
G01X18636Y17136D01*
G01X18641Y17155D01*
G01X18644Y17175D01*
G01X18645Y17194D01*
G01X18644Y17214D01*
G01X18641Y17234D01*
G01X18636Y17253D01*
G01X18629Y17272D01*
G01X18621Y17289D01*
G01X18611Y17306D01*
G01X18599Y17322D01*
G01X18585Y17337D01*
G01X18570Y17350D01*
G01X18554Y17361D01*
G01X18537Y17371D01*
G01X18519Y17379D01*
G01X18500Y17386D01*
G01X18481Y17390D01*
G01X18461Y17392D01*
G01X18442Y17393D01*
G01X18422Y17391D01*
G01X18402Y17388D01*
G01X18383Y17383D01*
G01X18365Y17375D01*
G01X18347Y17366D01*
G01X18331Y17356D01*
G01X18315Y17343D01*
G01X18301Y17330D01*
G01X18288Y17314D01*
G01X18277Y17298D01*
G01X18268Y17281D01*
G01X18260Y17262D01*
G01X18254Y17243D01*
G01X18250Y17224D01*
G01X18250Y17217D01*
G01X18247Y17234D01*
G01X18242Y17253D01*
G01X18235Y17272D01*
G01X18227Y17289D01*
G01X18217Y17306D01*
G01X18205Y17322D01*
G01X18191Y17337D01*
G01X18176Y17350D01*
G01X18160Y17361D01*
G01X18143Y17371D01*
G01X18125Y17379D01*
G01X18106Y17386D01*
G01X18087Y17390D01*
G01X18067Y17392D01*
G01X18048Y17393D01*
G01X18028Y17391D01*
G01X18008Y17388D01*
G01X17989Y17383D01*
G01X17971Y17375D01*
G01X17953Y17366D01*
G01X17937Y17356D01*
G01X17921Y17343D01*
G01X17907Y17330D01*
G01X17894Y17314D01*
G01X17883Y17298D01*
G01X17874Y17281D01*
G01X17866Y17262D01*
G01X17860Y17243D01*
G01X17856Y17224D01*
G01X17854Y17204D01*
G01X17854Y17185D01*
G01X17856Y17165D01*
G01X17860Y17146D01*
G01X17866Y17127D01*
G01X17874Y17108D01*
G01X17883Y17091D01*
G01X17894Y17075D01*
G01X17907Y17059D01*
G01X17921Y17046D01*
G01X17937Y17033D01*
G01X17953Y17023D01*
G01X17971Y17014D01*
G01X17989Y17006D01*
G01X18008Y17001D01*
G01X18028Y16998D01*
G01X18048Y16996D01*
G37*
G36*
G01X8144Y9628D02*
G01X8166Y9628D01*
G01X8188Y9631D01*
G01X8210Y9636D01*
G01X8231Y9643D01*
G01X8251Y9652D01*
G01X8270Y9663D01*
G01X8288Y9676D01*
G01X8305Y9691D01*
G01X8320Y9707D01*
G01X8333Y9724D01*
G01X8344Y9743D01*
G01X8354Y9763D01*
G01X8362Y9784D01*
G01X8366Y9800D01*
G01X9700Y9800D01*
G01X9705Y9800D01*
G01X9710Y9800D01*
G01X9715Y9800D01*
G01X9720Y9801D01*
G01X9725Y9802D01*
G01X9730Y9803D01*
G01X9735Y9804D01*
G01X9740Y9805D01*
G01X9745Y9807D01*
G01X9750Y9808D01*
G01X9755Y9810D01*
G01X9759Y9812D01*
G01X9764Y9814D01*
G01X9769Y9816D01*
G01X9773Y9819D01*
G01X9777Y9821D01*
G01X9782Y9824D01*
G01X9786Y9827D01*
G01X9790Y9830D01*
G01X9794Y9833D01*
G01X9798Y9836D01*
G01X9802Y9840D01*
G01X9806Y9843D01*
G01X9956Y9993D01*
G01X9959Y9997D01*
G01X9963Y10001D01*
G01X9966Y10005D01*
G01X9969Y10009D01*
G01X9972Y10013D01*
G01X9975Y10017D01*
G01X9978Y10022D01*
G01X9980Y10026D01*
G01X9983Y10030D01*
G01X9985Y10035D01*
G01X9987Y10040D01*
G01X9989Y10044D01*
G01X9991Y10049D01*
G01X9992Y10054D01*
G01X9994Y10059D01*
G01X9995Y10064D01*
G01X9996Y10069D01*
G01X9997Y10074D01*
G01X9998Y10079D01*
G01X9999Y10084D01*
G01X9999Y10089D01*
G01X9999Y10094D01*
G01X10000Y10100D01*
G01X10000Y10636D01*
G01X10005Y10641D01*
G01X10020Y10657D01*
G01X10033Y10674D01*
G01X10044Y10693D01*
G01X10054Y10713D01*
G01X10062Y10734D01*
G01X10067Y10756D01*
G01X10070Y10777D01*
G01X10072Y10800D01*
G01X10070Y10822D01*
G01X10067Y10843D01*
G01X10062Y10865D01*
G01X10054Y10886D01*
G01X10044Y10906D01*
G01X10033Y10925D01*
G01X10020Y10942D01*
G01X10005Y10958D01*
G01X9988Y10973D01*
G01X9970Y10986D01*
G01X9951Y10997D01*
G01X9931Y11006D01*
G01X9910Y11013D01*
G01X9888Y11018D01*
G01X9866Y11021D01*
G01X9844Y11021D01*
G01X9822Y11020D01*
G01X9800Y11016D01*
G01X9779Y11010D01*
G01X9758Y11002D01*
G01X9739Y10992D01*
G01X9720Y10980D01*
G01X9703Y10966D01*
G01X9687Y10951D01*
G01X9673Y10934D01*
G01X9660Y10915D01*
G01X9649Y10896D01*
G01X9641Y10875D01*
G01X9634Y10854D01*
G01X9630Y10833D01*
G01X9628Y10811D01*
G01X9628Y10788D01*
G01X9630Y10766D01*
G01X9634Y10745D01*
G01X9641Y10724D01*
G01X9649Y10703D01*
G01X9660Y10684D01*
G01X9673Y10665D01*
G01X9687Y10648D01*
G01X9700Y10636D01*
G01X9700Y10162D01*
G01X9637Y10100D01*
G01X8250Y10100D01*
G01X8244Y10099D01*
G01X8239Y10099D01*
G01X8234Y10099D01*
G01X8229Y10098D01*
G01X8224Y10097D01*
G01X8219Y10096D01*
G01X8214Y10095D01*
G01X8209Y10094D01*
G01X8204Y10092D01*
G01X8199Y10091D01*
G01X8194Y10089D01*
G01X8190Y10087D01*
G01X8185Y10085D01*
G01X8180Y10083D01*
G01X8176Y10080D01*
G01X8172Y10078D01*
G01X8167Y10075D01*
G01X8163Y10072D01*
G01X8162Y10071D01*
G01X8144Y10071D01*
G01X8122Y10070D01*
G01X8100Y10066D01*
G01X8079Y10060D01*
G01X8058Y10052D01*
G01X8039Y10042D01*
G01X8020Y10030D01*
G01X8003Y10016D01*
G01X7987Y10001D01*
G01X7973Y9984D01*
G01X7960Y9965D01*
G01X7949Y9946D01*
G01X7941Y9925D01*
G01X7934Y9904D01*
G01X7930Y9883D01*
G01X7928Y9861D01*
G01X7928Y9838D01*
G01X7930Y9816D01*
G01X7934Y9795D01*
G01X7941Y9774D01*
G01X7949Y9753D01*
G01X7960Y9734D01*
G01X7973Y9715D01*
G01X7987Y9698D01*
G01X8003Y9683D01*
G01X8020Y9669D01*
G01X8039Y9657D01*
G01X8058Y9647D01*
G01X8079Y9639D01*
G01X8100Y9633D01*
G01X8122Y9629D01*
G01X8144Y9628D01*
G37*
G36*
G01X7944Y16870D02*
G01X7944Y17094D01*
G01X7720Y17094D01*
G01X7730Y17072D01*
G01X7750Y17036D01*
G01X7773Y17002D01*
G01X7799Y16971D01*
G01X7828Y16942D01*
G01X7860Y16917D01*
G01X7894Y16894D01*
G01X7931Y16876D01*
G01X7944Y16870D01*
G37*
G36*
G01X18048Y16406D02*
G01X18067Y16407D01*
G01X18087Y16409D01*
G01X18106Y16413D01*
G01X18125Y16420D01*
G01X18143Y16428D01*
G01X18160Y16438D01*
G01X18176Y16449D01*
G01X18191Y16462D01*
G01X18205Y16477D01*
G01X18217Y16493D01*
G01X18227Y16510D01*
G01X18235Y16527D01*
G01X18242Y16546D01*
G01X18247Y16565D01*
G01X18250Y16582D01*
G01X18250Y16575D01*
G01X18254Y16556D01*
G01X18260Y16537D01*
G01X18268Y16518D01*
G01X18277Y16501D01*
G01X18288Y16485D01*
G01X18301Y16469D01*
G01X18315Y16456D01*
G01X18331Y16443D01*
G01X18347Y16433D01*
G01X18365Y16424D01*
G01X18383Y16416D01*
G01X18402Y16411D01*
G01X18422Y16408D01*
G01X18442Y16406D01*
G01X18461Y16407D01*
G01X18481Y16409D01*
G01X18500Y16413D01*
G01X18519Y16420D01*
G01X18537Y16428D01*
G01X18554Y16438D01*
G01X18570Y16449D01*
G01X18585Y16462D01*
G01X18599Y16477D01*
G01X18611Y16493D01*
G01X18621Y16510D01*
G01X18629Y16527D01*
G01X18636Y16546D01*
G01X18641Y16565D01*
G01X18644Y16585D01*
G01X18645Y16605D01*
G01X18644Y16624D01*
G01X18641Y16644D01*
G01X18636Y16663D01*
G01X18629Y16682D01*
G01X18621Y16699D01*
G01X18611Y16716D01*
G01X18599Y16732D01*
G01X18585Y16747D01*
G01X18570Y16760D01*
G01X18554Y16771D01*
G01X18537Y16781D01*
G01X18519Y16789D01*
G01X18500Y16796D01*
G01X18481Y16800D01*
G01X18461Y16802D01*
G01X18442Y16803D01*
G01X18422Y16801D01*
G01X18402Y16798D01*
G01X18383Y16793D01*
G01X18365Y16785D01*
G01X18347Y16776D01*
G01X18331Y16766D01*
G01X18315Y16753D01*
G01X18301Y16740D01*
G01X18288Y16724D01*
G01X18277Y16708D01*
G01X18268Y16691D01*
G01X18260Y16672D01*
G01X18254Y16653D01*
G01X18250Y16634D01*
G01X18250Y16627D01*
G01X18247Y16644D01*
G01X18242Y16663D01*
G01X18235Y16682D01*
G01X18227Y16699D01*
G01X18217Y16716D01*
G01X18205Y16732D01*
G01X18191Y16747D01*
G01X18176Y16760D01*
G01X18160Y16771D01*
G01X18143Y16781D01*
G01X18125Y16789D01*
G01X18106Y16796D01*
G01X18087Y16800D01*
G01X18067Y16802D01*
G01X18048Y16803D01*
G01X18028Y16801D01*
G01X18008Y16798D01*
G01X17989Y16793D01*
G01X17971Y16785D01*
G01X17953Y16776D01*
G01X17937Y16766D01*
G01X17921Y16753D01*
G01X17907Y16740D01*
G01X17894Y16724D01*
G01X17883Y16708D01*
G01X17874Y16691D01*
G01X17866Y16672D01*
G01X17860Y16653D01*
G01X17856Y16634D01*
G01X17854Y16614D01*
G01X17854Y16595D01*
G01X17856Y16575D01*
G01X17860Y16556D01*
G01X17866Y16537D01*
G01X17874Y16518D01*
G01X17883Y16501D01*
G01X17894Y16485D01*
G01X17907Y16469D01*
G01X17921Y16456D01*
G01X17937Y16443D01*
G01X17953Y16433D01*
G01X17971Y16424D01*
G01X17989Y16416D01*
G01X18008Y16411D01*
G01X18028Y16408D01*
G01X18048Y16406D01*
G37*
G36*
G01X20589Y15940D02*
G01X20630Y15941D01*
G01X20671Y15946D01*
G01X20711Y15955D01*
G01X20749Y15968D01*
G01X20787Y15985D01*
G01X20822Y16005D01*
G01X20855Y16029D01*
G01X20886Y16056D01*
G01X20914Y16086D01*
G01X20938Y16119D01*
G01X20960Y16153D01*
G01X20977Y16190D01*
G01X20991Y16229D01*
G01X21001Y16268D01*
G01X21007Y16309D01*
G01X21010Y16350D01*
G01X21007Y16390D01*
G01X21001Y16431D01*
G01X20991Y16470D01*
G01X20977Y16509D01*
G01X20960Y16546D01*
G01X20938Y16580D01*
G01X20914Y16613D01*
G01X20886Y16643D01*
G01X20855Y16670D01*
G01X20822Y16694D01*
G01X20787Y16714D01*
G01X20749Y16731D01*
G01X20711Y16744D01*
G01X20671Y16753D01*
G01X20630Y16758D01*
G01X20589Y16759D01*
G01X20549Y16756D01*
G01X20508Y16749D01*
G01X20469Y16738D01*
G01X20431Y16723D01*
G01X20394Y16705D01*
G01X20360Y16682D01*
G01X20328Y16657D01*
G01X20299Y16628D01*
G01X20273Y16597D01*
G01X20250Y16563D01*
G01X20230Y16527D01*
G01X20214Y16490D01*
G01X20202Y16451D01*
G01X20194Y16411D01*
G01X20190Y16370D01*
G01X20190Y16329D01*
G01X20194Y16288D01*
G01X20202Y16248D01*
G01X20214Y16209D01*
G01X20230Y16172D01*
G01X20250Y16136D01*
G01X20273Y16102D01*
G01X20299Y16071D01*
G01X20328Y16042D01*
G01X20360Y16017D01*
G01X20394Y15994D01*
G01X20431Y15976D01*
G01X20469Y15961D01*
G01X20508Y15950D01*
G01X20549Y15943D01*
G01X20589Y15940D01*
G37*
G36*
G01X20189Y15505D02*
G01X20444Y15505D01*
G01X20444Y15759D01*
G01X20289Y15759D01*
G01X20285Y15759D01*
G01X20281Y15759D01*
G01X20277Y15759D01*
G01X20273Y15758D01*
G01X20269Y15757D01*
G01X20265Y15756D01*
G01X20261Y15755D01*
G01X20257Y15754D01*
G01X20253Y15753D01*
G01X20249Y15751D01*
G01X20246Y15749D01*
G01X20242Y15747D01*
G01X20238Y15745D01*
G01X20235Y15743D01*
G01X20231Y15741D01*
G01X20228Y15738D01*
G01X20225Y15736D01*
G01X20222Y15733D01*
G01X20219Y15730D01*
G01X20216Y15727D01*
G01X20213Y15724D01*
G01X20211Y15721D01*
G01X20208Y15718D01*
G01X20206Y15714D01*
G01X20204Y15711D01*
G01X20202Y15707D01*
G01X20200Y15703D01*
G01X20198Y15700D01*
G01X20196Y15696D01*
G01X20195Y15692D01*
G01X20194Y15688D01*
G01X20193Y15684D01*
G01X20192Y15680D01*
G01X20191Y15676D01*
G01X20190Y15672D01*
G01X20190Y15668D01*
G01X20190Y15664D01*
G01X20189Y15659D01*
G01X20189Y15505D01*
G37*
G36*
G01X8255Y10690D02*
G01X8410Y10690D01*
G01X8414Y10690D01*
G01X8418Y10690D01*
G01X8422Y10690D01*
G01X8426Y10691D01*
G01X8430Y10692D01*
G01X8434Y10693D01*
G01X8438Y10694D01*
G01X8442Y10695D01*
G01X8446Y10696D01*
G01X8450Y10698D01*
G01X8453Y10700D01*
G01X8457Y10702D01*
G01X8461Y10704D01*
G01X8464Y10706D01*
G01X8468Y10708D01*
G01X8471Y10711D01*
G01X8474Y10713D01*
G01X8477Y10716D01*
G01X8480Y10719D01*
G01X8483Y10722D01*
G01X8486Y10725D01*
G01X8488Y10728D01*
G01X8491Y10731D01*
G01X8493Y10735D01*
G01X8495Y10738D01*
G01X8497Y10742D01*
G01X8499Y10746D01*
G01X8501Y10749D01*
G01X8503Y10753D01*
G01X8504Y10757D01*
G01X8505Y10761D01*
G01X8506Y10765D01*
G01X8507Y10769D01*
G01X8508Y10773D01*
G01X8509Y10777D01*
G01X8509Y10781D01*
G01X8509Y10785D01*
G01X8510Y10790D01*
G01X8510Y10944D01*
G01X8255Y10944D01*
G01X8255Y10690D01*
G37*
G36*
G01X20755Y15505D02*
G01X21010Y15505D01*
G01X21010Y15659D01*
G01X21009Y15664D01*
G01X21009Y15668D01*
G01X21009Y15672D01*
G01X21008Y15676D01*
G01X21007Y15680D01*
G01X21006Y15684D01*
G01X21005Y15688D01*
G01X21004Y15692D01*
G01X21003Y15696D01*
G01X21001Y15700D01*
G01X20999Y15703D01*
G01X20997Y15707D01*
G01X20995Y15711D01*
G01X20993Y15714D01*
G01X20991Y15718D01*
G01X20988Y15721D01*
G01X20986Y15724D01*
G01X20983Y15727D01*
G01X20980Y15730D01*
G01X20977Y15733D01*
G01X20974Y15736D01*
G01X20971Y15738D01*
G01X20968Y15741D01*
G01X20964Y15743D01*
G01X20961Y15745D01*
G01X20957Y15747D01*
G01X20953Y15749D01*
G01X20950Y15751D01*
G01X20946Y15753D01*
G01X20942Y15754D01*
G01X20938Y15755D01*
G01X20934Y15756D01*
G01X20930Y15757D01*
G01X20926Y15758D01*
G01X20922Y15759D01*
G01X20918Y15759D01*
G01X20914Y15759D01*
G01X20910Y15759D01*
G01X20755Y15759D01*
G01X20755Y15505D01*
G37*
G36*
G01X20289Y14940D02*
G01X20444Y14940D01*
G01X20444Y15194D01*
G01X20189Y15194D01*
G01X20189Y15040D01*
G01X20190Y15035D01*
G01X20190Y15031D01*
G01X20190Y15027D01*
G01X20191Y15023D01*
G01X20192Y15019D01*
G01X20193Y15015D01*
G01X20194Y15011D01*
G01X20195Y15007D01*
G01X20196Y15003D01*
G01X20198Y14999D01*
G01X20200Y14996D01*
G01X20202Y14992D01*
G01X20204Y14988D01*
G01X20206Y14985D01*
G01X20208Y14981D01*
G01X20211Y14978D01*
G01X20213Y14975D01*
G01X20216Y14972D01*
G01X20219Y14969D01*
G01X20222Y14966D01*
G01X20225Y14963D01*
G01X20228Y14961D01*
G01X20231Y14958D01*
G01X20235Y14956D01*
G01X20238Y14954D01*
G01X20242Y14952D01*
G01X20246Y14950D01*
G01X20249Y14948D01*
G01X20253Y14946D01*
G01X20257Y14945D01*
G01X20261Y14944D01*
G01X20265Y14943D01*
G01X20269Y14942D01*
G01X20273Y14941D01*
G01X20277Y14940D01*
G01X20281Y14940D01*
G01X20285Y14940D01*
G01X20289Y14940D01*
G37*
G36*
G01X20755Y14940D02*
G01X20910Y14940D01*
G01X20914Y14940D01*
G01X20918Y14940D01*
G01X20922Y14940D01*
G01X20926Y14941D01*
G01X20930Y14942D01*
G01X20934Y14943D01*
G01X20938Y14944D01*
G01X20942Y14945D01*
G01X20946Y14946D01*
G01X20950Y14948D01*
G01X20953Y14950D01*
G01X20957Y14952D01*
G01X20961Y14954D01*
G01X20964Y14956D01*
G01X20968Y14958D01*
G01X20971Y14961D01*
G01X20974Y14963D01*
G01X20977Y14966D01*
G01X20980Y14969D01*
G01X20983Y14972D01*
G01X20986Y14975D01*
G01X20988Y14978D01*
G01X20991Y14981D01*
G01X20993Y14985D01*
G01X20995Y14988D01*
G01X20997Y14992D01*
G01X20999Y14996D01*
G01X21001Y14999D01*
G01X21003Y15003D01*
G01X21004Y15007D01*
G01X21005Y15011D01*
G01X21006Y15015D01*
G01X21007Y15019D01*
G01X21008Y15023D01*
G01X21009Y15027D01*
G01X21009Y15031D01*
G01X21009Y15035D01*
G01X21010Y15040D01*
G01X21010Y15194D01*
G01X20755Y15194D01*
G01X20755Y14940D01*
G37*
G36*
G01X12594Y11078D02*
G01X12616Y11078D01*
G01X12638Y11081D01*
G01X12660Y11086D01*
G01X12681Y11093D01*
G01X12701Y11102D01*
G01X12720Y11113D01*
G01X12738Y11126D01*
G01X12755Y11141D01*
G01X12770Y11157D01*
G01X12783Y11174D01*
G01X12794Y11193D01*
G01X12804Y11213D01*
G01X12812Y11234D01*
G01X12817Y11256D01*
G01X12820Y11277D01*
G01X12822Y11300D01*
G01X15586Y11300D01*
G01X15587Y11298D01*
G01X15603Y11283D01*
G01X15620Y11269D01*
G01X15639Y11257D01*
G01X15658Y11247D01*
G01X15679Y11239D01*
G01X15700Y11233D01*
G01X15722Y11229D01*
G01X15744Y11228D01*
G01X15766Y11228D01*
G01X15788Y11231D01*
G01X15810Y11236D01*
G01X15831Y11243D01*
G01X15851Y11252D01*
G01X15870Y11263D01*
G01X15888Y11276D01*
G01X15905Y11291D01*
G01X15920Y11307D01*
G01X15933Y11324D01*
G01X15944Y11343D01*
G01X15954Y11363D01*
G01X15962Y11384D01*
G01X15967Y11406D01*
G01X15970Y11427D01*
G01X15972Y11450D01*
G01X15970Y11472D01*
G01X15967Y11493D01*
G01X15962Y11515D01*
G01X15954Y11536D01*
G01X15944Y11556D01*
G01X15933Y11575D01*
G01X15920Y11592D01*
G01X15905Y11608D01*
G01X15888Y11623D01*
G01X15870Y11636D01*
G01X15851Y11647D01*
G01X15831Y11656D01*
G01X15810Y11663D01*
G01X15788Y11668D01*
G01X15766Y11671D01*
G01X15744Y11671D01*
G01X15722Y11670D01*
G01X15700Y11666D01*
G01X15679Y11660D01*
G01X15658Y11652D01*
G01X15639Y11642D01*
G01X15620Y11630D01*
G01X15603Y11616D01*
G01X15587Y11601D01*
G01X15586Y11600D01*
G01X12750Y11600D01*
G01X12744Y11599D01*
G01X12739Y11599D01*
G01X12734Y11599D01*
G01X12729Y11598D01*
G01X12724Y11597D01*
G01X12719Y11596D01*
G01X12714Y11595D01*
G01X12709Y11594D01*
G01X12704Y11592D01*
G01X12699Y11591D01*
G01X12694Y11589D01*
G01X12690Y11587D01*
G01X12685Y11585D01*
G01X12680Y11583D01*
G01X12676Y11580D01*
G01X12672Y11578D01*
G01X12667Y11575D01*
G01X12663Y11572D01*
G01X12659Y11569D01*
G01X12655Y11566D01*
G01X12651Y11563D01*
G01X12647Y11559D01*
G01X12643Y11556D01*
G01X12609Y11521D01*
G01X12594Y11521D01*
G01X12572Y11520D01*
G01X12550Y11516D01*
G01X12529Y11510D01*
G01X12508Y11502D01*
G01X12489Y11492D01*
G01X12470Y11480D01*
G01X12453Y11466D01*
G01X12437Y11451D01*
G01X12423Y11434D01*
G01X12410Y11415D01*
G01X12399Y11396D01*
G01X12391Y11375D01*
G01X12384Y11354D01*
G01X12380Y11333D01*
G01X12378Y11311D01*
G01X12378Y11288D01*
G01X12380Y11266D01*
G01X12384Y11245D01*
G01X12391Y11224D01*
G01X12399Y11203D01*
G01X12410Y11184D01*
G01X12423Y11165D01*
G01X12437Y11148D01*
G01X12453Y11133D01*
G01X12470Y11119D01*
G01X12489Y11107D01*
G01X12508Y11097D01*
G01X12529Y11089D01*
G01X12550Y11083D01*
G01X12572Y11079D01*
G01X12594Y11078D01*
G37*
G36*
G01X19417Y11551D02*
G01X19456Y11552D01*
G01X19495Y11557D01*
G01X19534Y11566D01*
G01X19571Y11579D01*
G01X19607Y11595D01*
G01X19641Y11614D01*
G01X19673Y11637D01*
G01X19702Y11664D01*
G01X19729Y11692D01*
G01X19753Y11724D01*
G01X19774Y11757D01*
G01X19791Y11793D01*
G01X19804Y11830D01*
G01X19814Y11868D01*
G01X19820Y11907D01*
G01X19822Y11946D01*
G01X19820Y11986D01*
G01X19814Y12025D01*
G01X19804Y12063D01*
G01X19791Y12100D01*
G01X19774Y12136D01*
G01X19753Y12169D01*
G01X19729Y12201D01*
G01X19702Y12229D01*
G01X19673Y12256D01*
G01X19641Y12279D01*
G01X19607Y12298D01*
G01X19571Y12314D01*
G01X19534Y12327D01*
G01X19495Y12336D01*
G01X19456Y12341D01*
G01X19417Y12342D01*
G01X19377Y12339D01*
G01X19339Y12332D01*
G01X19301Y12321D01*
G01X19264Y12307D01*
G01X19229Y12289D01*
G01X19196Y12267D01*
G01X19165Y12243D01*
G01X19137Y12215D01*
G01X19111Y12185D01*
G01X19089Y12153D01*
G01X19070Y12118D01*
G01X19055Y12082D01*
G01X19043Y12044D01*
G01X19036Y12005D01*
G01X19032Y11966D01*
G01X19032Y11927D01*
G01X19036Y11888D01*
G01X19043Y11849D01*
G01X19055Y11811D01*
G01X19070Y11775D01*
G01X19089Y11740D01*
G01X19111Y11708D01*
G01X19137Y11678D01*
G01X19165Y11650D01*
G01X19196Y11626D01*
G01X19229Y11604D01*
G01X19264Y11586D01*
G01X19301Y11572D01*
G01X19339Y11561D01*
G01X19377Y11554D01*
G01X19417Y11551D01*
G37*
G36*
G01X8255Y11255D02*
G01X8510Y11255D01*
G01X8510Y11409D01*
G01X8509Y11414D01*
G01X8509Y11418D01*
G01X8509Y11422D01*
G01X8508Y11426D01*
G01X8507Y11430D01*
G01X8506Y11434D01*
G01X8505Y11438D01*
G01X8504Y11442D01*
G01X8503Y11446D01*
G01X8501Y11450D01*
G01X8499Y11453D01*
G01X8497Y11457D01*
G01X8495Y11461D01*
G01X8493Y11464D01*
G01X8491Y11468D01*
G01X8488Y11471D01*
G01X8486Y11474D01*
G01X8483Y11477D01*
G01X8480Y11480D01*
G01X8477Y11483D01*
G01X8474Y11486D01*
G01X8471Y11488D01*
G01X8468Y11491D01*
G01X8464Y11493D01*
G01X8461Y11495D01*
G01X8457Y11497D01*
G01X8453Y11499D01*
G01X8450Y11501D01*
G01X8446Y11503D01*
G01X8442Y11504D01*
G01X8438Y11505D01*
G01X8434Y11506D01*
G01X8430Y11507D01*
G01X8426Y11508D01*
G01X8422Y11509D01*
G01X8418Y11509D01*
G01X8414Y11509D01*
G01X8410Y11509D01*
G01X8255Y11509D01*
G01X8255Y11255D01*
G37*

%LPD*%
G54D10*
G01X8100Y16250D02*
G01X8300Y16250D01*
G01X8650Y15900D01*
G01X10650Y15900D01*
G01X10950Y16200D01*
G01X11300Y16200D01*
G01X11700Y16600D01*
G01X11700Y17100D01*
G01X11800Y17200D01*
G01X12650Y17200D01*
G01X12750Y17100D01*
G01X12750Y16900D01*
G01X12900Y16750D01*
G01X15250Y16750D01*
G01X15430Y16930D01*
G01X9750Y19400D02*
G01X11600Y19400D01*
G01X11700Y19300D01*
G01X11700Y18350D01*
G01X11900Y18150D01*
G01X13100Y18150D01*
G01X13550Y17700D01*
G01X13550Y17450D01*
G54D11*
G01X13000Y17000D02*
G01X14650Y17000D01*
G01X14750Y17100D01*
G01X14750Y18200D01*
G01X14850Y18300D01*
G01X15100Y18300D01*
G01X15250Y18450D01*
G01X15250Y20250D01*
G01X15450Y20450D01*
G01X17200Y20450D01*
G01X18000Y15000D02*
G01X18000Y14400D01*
G01X17550Y14150D01*
G01X17550Y12600D01*
G01X17700Y12450D01*
G01X17700Y11350D01*
G01X17450Y11100D01*
G01X17150Y11100D01*
G01X16950Y10900D01*
G01X16950Y8900D01*
G01X16750Y8700D01*
G01X16300Y8700D01*
G54D10*
G01X8100Y13250D02*
G01X8550Y13250D01*
G01X8750Y13450D01*
G01X8750Y14050D01*
G01X9000Y14300D01*
G01X10750Y14300D01*
G01X11350Y14900D01*
G01X11350Y15750D01*
G01X11412Y15800D01*
G01X12450Y15800D01*
G01X12650Y15600D01*
G01X15650Y15600D01*
G01X8100Y15250D02*
G01X8450Y15250D01*
G01X8600Y15400D01*
G01X10750Y15400D01*
G01X10850Y15500D01*
G01X10850Y15850D01*
G01X10980Y15980D01*
G01X12768Y15980D01*
G01X12950Y15800D01*
G01X15200Y15800D01*
G01X15350Y15900D01*
G01X16850Y15900D01*
G01X16900Y15850D01*
G01X16900Y15350D01*
G01X8100Y14250D02*
G01X8250Y14250D01*
G01X8500Y14500D01*
G01X10650Y14500D01*
G01X10850Y14700D01*
G01X10850Y15050D01*
G01X15750Y11450D02*
G01X12750Y11450D01*
G01X12600Y11300D01*
G01X21350Y8850D02*
G01X20050Y8850D01*
G01X19750Y8550D01*
G01X18350Y8550D01*
G01X18300Y8500D01*
G01X17500Y8500D01*
G01X17250Y8250D01*
G01X17100Y8100D01*
G01X11000Y8100D01*
G01X10750Y8350D01*
G01X10750Y9400D01*
G01X10600Y9550D01*
G01X10600Y11350D01*
G01X10700Y11450D01*
G01X10700Y13300D01*
G01X10800Y13750D02*
G01X10800Y14050D01*
G01X11600Y14850D01*
G01X16400Y14850D01*
G01X16750Y14850D01*
G01X16750Y14850D02*
G01X17150Y15250D01*
G01X17150Y15950D01*
G01X16950Y16150D01*
G01X16000Y16150D01*
G01X15900Y16250D01*
G01X15900Y17650D01*
G01X16000Y17750D01*
G01X19000Y17750D01*
G01X19100Y17650D01*
G01X20400Y17650D01*
G01X20700Y17950D01*
G01X20700Y19850D01*
G01X21250Y20400D01*
G01X11950Y18450D02*
G01X11950Y19550D01*
G01X11750Y19750D01*
G01X10300Y19750D01*
G01X10100Y19950D01*
G01X10100Y20500D01*
G01X10000Y20600D01*
G01X8350Y20600D01*
G01X8200Y20450D01*
G01X8200Y19000D01*
G01X8550Y18650D01*
G01X8550Y16800D01*
G01X8450Y16700D01*
G01X7750Y16700D01*
G01X7650Y16600D01*
G01X7650Y9400D01*
G01X7750Y9300D01*
G01X9800Y9300D01*
G01X10200Y9700D01*
G01X9000Y11200D02*
G01X10050Y11200D01*
G01X10250Y11150D01*
G54D11*
G01X15430Y16930D02*
G01X15300Y17100D01*
G01X15300Y18050D01*
G01X15650Y18400D01*
G01X15650Y18400D02*
G01X17150Y18400D01*
G54D10*
G01X9850Y10800D02*
G01X9850Y10100D01*
G01X9700Y9950D01*
G01X8250Y9950D01*
G01X8150Y9850D01*
G01X6550Y5150D02*
G01X6550Y7200D01*
G01X8000Y8650D01*
G01X12250Y11800D02*
G01X12250Y12300D01*
G01X12350Y12400D01*
G01X15650Y12400D01*
G01X15750Y12500D01*
G01X15750Y14150D01*
G01X15750Y14150D02*
G01X15850Y14250D01*
G01X16650Y14250D01*
G01X16850Y14450D01*
G01X17500Y14450D01*
G01X17700Y14650D01*
G01X17700Y14650D02*
G01X17700Y14800D01*
G54D12*
G01X17250Y9400D02*
G01X17250Y9900D01*
G01X17450Y10100D01*
G01X19100Y10100D01*
G01X19300Y9900D01*
G01X20950Y9900D01*
G01X21050Y10000D01*
G01X21050Y12750D01*
G01X20900Y12900D01*
G01X20200Y12900D01*
G01X20100Y13000D01*
G01X20100Y13950D01*
G01X19600Y14450D01*
G01X19600Y14950D01*
G01X20000Y15350D01*
G01X20000Y16950D01*
G01X20550Y17500D01*
G01X20750Y17500D01*
G54D10*
G01X12800Y15350D02*
G01X15100Y15350D01*
G54D38*
G01X8100Y13250D03*
G01X8100Y14250D03*
G01X8100Y15250D03*
G01X8100Y16250D03*
G01X8100Y17250D03*
G54D39*
G01X8100Y18250D03*
G54D38*
G01X13500Y8700D03*
G01X12500Y8700D03*
G54D39*
G01X11500Y8700D03*
G01X8100Y11100D03*
G54D38*
G01X8100Y12100D03*
G54D39*
G01X20600Y15350D03*
G54D38*
G01X20600Y16350D03*
G54D39*
G01X9100Y8700D03*
G54D38*
G01X10100Y8700D03*
G54D39*
G01X15300Y8700D03*
G54D38*
G01X16300Y8700D03*
G54D40*
G01X19427Y11946D03*
G01X19427Y13853D03*
G36*
G01X24061Y3549D02*
G01X24500Y3988D01*
G01X24938Y3549D01*
G01X24500Y3111D01*
G01X24061Y3549D01*
G37*
G54D38*
G01X25206Y4257D03*
G36*
G01X24500Y25038D02*
G01X24938Y24600D01*
G01X24500Y24161D01*
G01X24061Y24600D01*
G01X24500Y25038D01*
G37*
G01X25206Y23892D03*
G36*
G01X3950Y4887D02*
G01X4388Y4449D01*
G01X3950Y4011D01*
G01X3511Y4449D01*
G01X3950Y4887D01*
G37*
G01X4656Y3742D03*
G36*
G01X3311Y23800D02*
G01X3749Y24238D01*
G01X4188Y23800D01*
G01X3749Y23361D01*
G01X3311Y23800D01*
G37*
G01X4456Y24507D03*
G54D16*
G01X10700Y13300D03*
G01X10800Y13750D03*
G01X9750Y19400D03*
G01X13550Y17450D03*
G01X13000Y17000D03*
G01X17200Y20450D03*
G01X15430Y16930D03*
G01X15650Y15600D03*
G01X16900Y15350D03*
G01X18000Y15000D03*
G01X10850Y15050D03*
G01X15750Y11450D03*
G01X12600Y11300D03*
G01X21350Y8850D03*
G01X21250Y20400D03*
G01X11950Y18450D03*
G01X10200Y9700D03*
G01X9000Y11200D03*
G01X10250Y11150D03*
G01X9850Y16400D03*
G01X9850Y16150D03*
G01X17150Y18400D03*
G01X9850Y10800D03*
G01X8150Y9850D03*
G01X8000Y8650D03*
G01X6550Y5150D03*
G01X12250Y11800D03*
G01X17700Y14800D03*
G01X17250Y9400D03*
G01X20750Y17500D03*
G01X15100Y15350D03*
G01X12800Y15350D03*
G01X12900Y11050D03*
G01X12900Y10800D03*
G01X13150Y11050D03*
G01X13150Y10800D03*
G01X13400Y11050D03*
G01X13400Y10800D03*
G01X13650Y11050D03*
G01X13650Y10800D03*
G01X12000Y11050D03*
G01X12000Y10800D03*
G01X12250Y11050D03*
G01X12250Y10800D03*
G01X11000Y11800D03*
G01X11000Y11550D03*
G01X11250Y11800D03*
G01X11250Y11550D03*
G01X11500Y11800D03*
G01X11500Y11550D03*
G01X11750Y11800D03*
G01X11250Y12050D03*
G01X11500Y12050D03*
G01X11750Y12050D03*
G01X8000Y10450D03*
G01X8000Y10200D03*
G01X8250Y10450D03*
G01X8250Y10200D03*
G01X9450Y12450D03*
G01X9700Y12450D03*
G01X9250Y13350D03*
G01X9500Y13350D03*
G01X9600Y11480D03*
G01X11150Y17850D03*
G01X11400Y17850D03*
G01X10400Y20300D03*
G01X10650Y20300D03*
G01X10650Y20050D03*
G01X10900Y20300D03*
G01X10900Y20050D03*
G01X11150Y20300D03*
G01X11150Y20050D03*
G01X11400Y20300D03*
G01X11400Y20050D03*
G01X11650Y20300D03*
G01X11650Y20050D03*
G01X11900Y20300D03*
G01X11900Y20050D03*
G01X11660Y16219D03*
G01X15650Y17550D03*
G01X15650Y17300D03*
G01X15900Y18800D03*
G01X16150Y18800D03*
G01X16400Y18800D03*
G01X16650Y18800D03*
G01X16900Y18800D03*
G01X17150Y18800D03*
G01X11910Y16230D03*
G54D17*
G01X18250Y19650D03*
G01X18447Y19944D03*
G01X18052Y19944D03*
G01X18052Y19355D03*
G01X18447Y19355D03*
G01X18250Y16900D03*
G01X18447Y17194D03*
G01X18052Y17194D03*
G01X18052Y16605D03*
G01X18447Y16605D03*
G54D41*
G01X20312Y14321D02*
G01X20667Y14321D01*
G01X20312Y11471D02*
G01X20667Y11471D01*
M00*
M02*
