G04 ---------------------------- Layer name :TOP SILK LAYER*
G04 EasyEDA v5.7.24, Wed, 12 Sep 2018 16:40:19 GMT*
G04 788ae3d0f2e84f31b98fff910f9a6f2a*
G04 Gerber Generator version 0.2*
G04 Scale: 100 percent, Rotated: No, Reflected: No *
G04 Dimensions in inches *
G04 leading zeros omitted , absolute positions ,2 integer and 4 decimal *
%FSLAX24Y24*%
%MOIN*%
G90*
G70D02*

%ADD10C,0.010000*%
%ADD45C,0.007874*%
%ADD46C,0.007900*%
%ADD47C,0.007870*%
%ADD48C,0.008000*%
%ADD49C,0.007992*%
%ADD50C,0.009842*%
%ADD51C,0.003900*%
%ADD52C,0.023622*%
%ADD53C,0.011811*%
%ADD54C,0.005000*%
%ADD55C,0.006000*%

%LPD*%
G54D45*
G01X9614Y14372D02*
G01X9614Y13938D01*
G01X8984Y13938D01*
G01X8984Y14372D01*
G01X9614Y14686D02*
G01X9614Y15120D01*
G01X9221Y15120D01*
G01X8984Y15120D01*
G01X8984Y14686D01*
G01X8984Y15915D02*
G01X8984Y16350D01*
G01X9614Y16350D01*
G01X9614Y15915D01*
G01X8984Y15601D02*
G01X8984Y15167D01*
G01X9378Y15167D01*
G01X9614Y15167D01*
G01X9614Y15601D01*
G01X16985Y15765D02*
G01X16985Y16200D01*
G01X17614Y16200D01*
G01X17614Y15765D01*
G01X16985Y15451D02*
G01X16985Y15017D01*
G01X17378Y15017D01*
G01X17614Y15017D01*
G01X17614Y15451D01*
G01X13985Y17715D02*
G01X13985Y18150D01*
G01X14614Y18150D01*
G01X14614Y17715D01*
G01X13985Y17402D02*
G01X13985Y16967D01*
G01X14378Y16967D01*
G01X14614Y16967D01*
G01X14614Y17402D01*
G01X18514Y10272D02*
G01X18514Y9838D01*
G01X17885Y9838D01*
G01X17885Y10272D01*
G01X18514Y10586D02*
G01X18514Y11020D01*
G01X18121Y11020D01*
G01X17885Y11020D01*
G01X17885Y10586D01*
G54D10*
G01X10776Y16496D02*
G01X11130Y16496D01*
G01X11130Y13878D01*
G01X10776Y13878D01*
G01X10223Y13878D02*
G01X9869Y13878D01*
G01X9869Y16496D01*
G01X10223Y16496D01*
G54D45*
G01X9103Y19282D02*
G01X9103Y19440D01*
G01X9261Y19440D01*
G01X10639Y19440D02*
G01X10797Y19440D01*
G01X10797Y19282D01*
G01X10639Y17747D02*
G01X10797Y17747D01*
G01X10797Y17905D01*
G01X9261Y17747D02*
G01X9103Y17747D01*
G01X9103Y17905D01*
G01X12031Y19403D02*
G01X12465Y19403D01*
G01X12465Y18774D01*
G01X12031Y18774D01*
G01X11718Y19403D02*
G01X11284Y19403D01*
G01X11284Y19009D01*
G01X11284Y18774D01*
G01X11718Y18774D01*
G01X11677Y17928D02*
G01X11243Y17928D01*
G01X11243Y18559D01*
G01X11677Y18559D01*
G01X11992Y17928D02*
G01X12426Y17928D01*
G01X12426Y18323D01*
G01X12426Y18559D01*
G01X11992Y18559D01*
G01X10227Y16778D02*
G01X9793Y16778D01*
G01X9793Y17409D01*
G01X10227Y17409D01*
G01X10542Y16778D02*
G01X10976Y16778D01*
G01X10976Y17173D01*
G01X10976Y17409D01*
G01X10542Y17409D01*
G01X11377Y19528D02*
G01X10943Y19528D01*
G01X10943Y20159D01*
G01X11377Y20159D01*
G01X11692Y19528D02*
G01X12126Y19528D01*
G01X12126Y19923D01*
G01X12126Y20159D01*
G01X11692Y20159D01*
G54D46*
G01X8930Y11647D02*
G01X8930Y11863D01*
G01X8994Y11863D01*
G01X8930Y10740D02*
G01X8930Y10525D01*
G01X8994Y10525D01*
G01X10268Y10740D02*
G01X10268Y10525D01*
G01X10206Y10525D01*
G01X10206Y11863D02*
G01X10268Y11863D01*
G01X10268Y11647D01*
G54D10*
G01X9015Y13334D02*
G01X10196Y13334D01*
G01X10196Y12153D01*
G01X9015Y12153D01*
G01X9015Y13334D01*
G54D45*
G01X11314Y11272D02*
G01X11314Y10838D01*
G01X10685Y10838D01*
G01X10685Y11272D01*
G01X11314Y11586D02*
G01X11314Y12020D01*
G01X10921Y12020D01*
G01X10685Y12020D01*
G01X10685Y11586D01*
G01X10327Y9578D02*
G01X9893Y9578D01*
G01X9893Y10209D01*
G01X10327Y10209D01*
G01X10642Y9578D02*
G01X11076Y9578D01*
G01X11076Y9973D01*
G01X11076Y10209D01*
G01X10642Y10209D01*
G54D10*
G01X13681Y20044D02*
G01X13072Y20044D01*
G01X13072Y19244D01*
G01X13681Y19244D01*
G01X13992Y20053D02*
G01X14572Y20053D01*
G01X14731Y19894D01*
G01X14731Y19394D01*
G01X14581Y19244D01*
G01X13981Y19244D01*
G01X13771Y19840D02*
G01X13771Y19447D01*
G01X13771Y19447D01*
G01X13968Y19644D01*
G01X13968Y19644D01*
G01X13771Y19840D01*
G01X14636Y19959D02*
G01X14636Y19328D01*
G01X7450Y8288D02*
G01X7265Y8473D01*
G01X7450Y8288D01*
G01X7265Y8473D01*
G01X7492Y8700D01*
G01X8305Y7886D02*
G01X8078Y7659D01*
G01X7894Y7844D01*
G54D45*
G01X8188Y8415D02*
G01X8021Y8582D01*
G54D10*
G01X21250Y20499D02*
G01X21434Y20315D01*
G01X21250Y20499D01*
G01X21434Y20315D01*
G01X21206Y20088D01*
G01X20393Y20901D02*
G01X20621Y21128D01*
G01X20805Y20944D01*
G54D45*
G01X20511Y20373D02*
G01X20678Y20205D01*
G54D10*
G01X6850Y5725D02*
G01X7919Y6794D01*
G01X5680Y6894D02*
G01X6750Y7963D01*
G01X6853Y5728D02*
G01X5684Y6898D01*
G01X6746Y7959D02*
G01X7915Y6790D01*
G01X6959Y5834D02*
G01X5790Y7003D01*
G01X7809Y6684D02*
G01X6640Y7853D01*
G01X6411Y6172D02*
G01X6517Y6278D01*
G01X6128Y6455D02*
G01X6234Y6561D01*
G01X21850Y23063D02*
G01X20781Y21994D01*
G01X23018Y21894D02*
G01X21950Y20825D01*
G01X21846Y23059D02*
G01X23014Y21890D01*
G01X21953Y20828D02*
G01X20785Y21998D01*
G01X21739Y22953D02*
G01X22909Y21784D01*
G01X20890Y22103D02*
G01X22060Y20934D01*
G01X22289Y22615D02*
G01X22182Y22509D01*
G01X22572Y22332D02*
G01X22465Y22227D01*
G01X11543Y9459D02*
G01X11543Y9719D01*
G01X11543Y9459D01*
G01X11543Y9719D01*
G01X11864Y9719D01*
G01X11864Y8569D02*
G01X11543Y8569D01*
G01X11543Y8828D01*
G54D45*
G01X12153Y9026D02*
G01X12153Y9261D01*
G54D10*
G01X11600Y11376D02*
G01X11600Y10765D01*
G01X12400Y10765D01*
G01X12400Y11376D01*
G01X11589Y11686D02*
G01X11589Y12265D01*
G01X11750Y12426D01*
G01X12250Y12426D01*
G01X12400Y12276D01*
G01X12400Y11676D01*
G01X11802Y11465D02*
G01X12197Y11465D01*
G01X12197Y11465D01*
G01X12000Y11661D01*
G01X12000Y11661D01*
G01X11802Y11465D01*
G01X11685Y12330D02*
G01X12314Y12330D01*
G01X15360Y9844D02*
G01X13039Y9844D01*
G01X13039Y8984D01*
G01X13269Y8984D01*
G01X13269Y8624D01*
G01X13039Y8624D01*
G01X13039Y8074D01*
G01X14039Y8074D01*
G01X14360Y8074D01*
G01X15360Y8074D01*
G01X15360Y8624D01*
G01X15130Y8624D01*
G01X15130Y8984D01*
G01X15360Y8984D01*
G01X15360Y9844D01*
G01X15360Y8984D02*
G01X15360Y8624D01*
G01X13039Y8984D02*
G01X13039Y8624D01*
G01X13269Y8984D02*
G01X13269Y9613D01*
G01X15130Y9613D01*
G01X15130Y8984D01*
G01X13269Y8624D02*
G01X13269Y8313D01*
G01X14039Y8313D01*
G01X14039Y8074D01*
G01X15130Y8624D02*
G01X15130Y8313D01*
G01X14360Y8313D01*
G01X14360Y8074D01*
G54D45*
G01X8442Y9055D02*
G01X8136Y9361D01*
G01X8582Y9807D01*
G01X8888Y9501D01*
G01X8665Y8832D02*
G01X8971Y8526D01*
G01X9251Y8805D01*
G01X9418Y8972D01*
G01X9111Y9278D01*
G01X20202Y19767D02*
G01X20507Y19461D01*
G01X20063Y19015D01*
G01X19756Y19322D01*
G01X19978Y19990D02*
G01X19672Y20297D01*
G01X19393Y20017D01*
G01X19227Y19851D01*
G01X19534Y19545D01*
G01X7144Y19705D02*
G01X6836Y20011D01*
G01X7282Y20457D01*
G01X7588Y20150D01*
G01X7365Y19482D02*
G01X7671Y19176D01*
G01X7951Y19455D01*
G01X8117Y19622D01*
G01X7811Y19928D01*
G01X9271Y17109D02*
G01X9706Y17109D01*
G01X9706Y16478D01*
G01X9271Y16478D01*
G01X8957Y17109D02*
G01X8523Y17109D01*
G01X8523Y16715D01*
G01X8523Y16478D01*
G01X8957Y16478D01*
G54D10*
G01X18247Y15119D02*
G01X20506Y15119D01*
G01X18243Y15119D02*
G01X18243Y11969D01*
G01X18243Y11969D02*
G01X20502Y11969D01*
G01X20510Y15119D02*
G01X20510Y11969D01*
G01X20231Y14878D02*
G01X20231Y12213D01*
G01X20510Y15111D02*
G01X20464Y15111D01*
G01X20231Y14878D01*
G01X20502Y11980D02*
G01X20464Y11980D01*
G01X20231Y12213D01*
G54D45*
G01X16777Y16878D02*
G01X16343Y16878D01*
G01X16343Y17509D01*
G01X16777Y17509D01*
G01X17092Y16878D02*
G01X17526Y16878D01*
G01X17526Y17273D01*
G01X17526Y17509D01*
G01X17092Y17509D01*
G01X15588Y17488D02*
G01X15155Y17488D01*
G01X15155Y18119D01*
G01X15588Y18119D01*
G01X15902Y17488D02*
G01X16335Y17488D01*
G01X16335Y17882D01*
G01X16335Y18119D01*
G01X15902Y18119D01*
G54D10*
G01X20550Y7494D02*
G01X20365Y7309D01*
G01X20550Y7494D01*
G01X20365Y7309D01*
G01X20139Y7536D01*
G01X20952Y8350D02*
G01X21178Y8123D01*
G01X20994Y7938D01*
G54D45*
G01X20423Y8232D02*
G01X20256Y8065D01*
G54D10*
G01X22918Y6694D02*
G01X21850Y7763D01*
G01X21750Y5525D02*
G01X20681Y6594D01*
G01X22914Y6698D02*
G01X21746Y5528D01*
G01X20685Y6590D02*
G01X21853Y7759D01*
G01X22809Y6803D02*
G01X21639Y5634D01*
G01X21960Y7653D02*
G01X20790Y6484D01*
G01X22472Y6255D02*
G01X22365Y6361D01*
G01X22189Y5972D02*
G01X22082Y6078D01*
G54D45*
G01X19793Y8447D02*
G01X19486Y8140D01*
G01X19042Y8586D01*
G01X19347Y8892D01*
G01X20015Y8670D02*
G01X20322Y8976D01*
G01X20043Y9255D01*
G01X19877Y9422D01*
G01X19571Y9115D01*
G01X16027Y12567D02*
G01X12522Y12567D01*
G01X12522Y16071D01*
G01X16027Y16071D01*
G01X16027Y12567D01*
G54D47*
G01X11393Y16825D02*
G01X11393Y16305D01*
G01X12207Y16305D01*
G01X12207Y16825D01*
G01X11393Y17271D02*
G01X11393Y17790D01*
G01X12207Y17790D01*
G01X12207Y17271D01*
G54D45*
G01X17022Y12509D02*
G01X17456Y12509D01*
G01X17456Y11878D01*
G01X17022Y11878D01*
G01X16707Y12509D02*
G01X16273Y12509D01*
G01X16273Y12115D01*
G01X16273Y11878D01*
G01X16707Y11878D01*
G01X16777Y10078D02*
G01X16344Y10078D01*
G01X16344Y10709D01*
G01X16777Y10709D01*
G01X17093Y10078D02*
G01X17526Y10078D01*
G01X17526Y10473D01*
G01X17526Y10709D01*
G01X17093Y10709D01*
G54D10*
G01X7538Y21900D02*
G01X7723Y22084D01*
G01X7538Y21900D01*
G01X7723Y22084D01*
G01X7950Y21857D01*
G01X7136Y21044D02*
G01X6909Y21271D01*
G01X7094Y21455D01*
G54D45*
G01X7665Y21161D02*
G01X7832Y21328D01*
G54D10*
G01X4930Y22544D02*
G01X6000Y21475D01*
G01X6100Y23713D02*
G01X7169Y22644D01*
G01X4934Y22540D02*
G01X6103Y23709D01*
G01X7165Y22648D02*
G01X5996Y21478D01*
G01X5040Y22434D02*
G01X6209Y23603D01*
G01X5890Y21584D02*
G01X7059Y22753D01*
G01X5378Y22982D02*
G01X5484Y22877D01*
G01X5661Y23265D02*
G01X5767Y23159D01*
G54D45*
G01X8369Y20782D02*
G01X8676Y21088D01*
G01X9121Y20642D01*
G01X8815Y20336D01*
G01X8148Y20559D02*
G01X7840Y20253D01*
G01X8119Y19974D01*
G01X8286Y19807D01*
G01X8592Y20113D01*
G54D48*
G01X17900Y8194D02*
G01X18650Y8194D01*
G01X18650Y9194D01*
G01X15650Y9194D01*
G01X15650Y8194D01*
G54D49*
G01X15650Y8194D02*
G01X17900Y8194D01*
G54D48*
G01X15950Y19144D02*
G01X14950Y19144D01*
G01X14950Y20144D01*
G01X15950Y20144D01*
G01X15950Y19394D01*
G54D49*
G01X15950Y19144D02*
G01X15950Y19394D01*
G54D54*
G01X8668Y14286D02*
G01X8640Y14272D01*
G01X8613Y14245D01*
G01X8599Y14217D01*
G01X8599Y14163D01*
G01X8613Y14136D01*
G01X8640Y14108D01*
G01X8668Y14095D01*
G01X8708Y14081D01*
G01X8777Y14081D01*
G01X8818Y14095D01*
G01X8845Y14108D01*
G01X8872Y14136D01*
G01X8886Y14163D01*
G01X8886Y14217D01*
G01X8872Y14245D01*
G01X8845Y14272D01*
G01X8818Y14286D01*
G01X8654Y14376D02*
G01X8640Y14403D01*
G01X8599Y14444D01*
G01X8886Y14444D01*
G01X8669Y16013D02*
G01X8641Y15999D01*
G01X8614Y15972D01*
G01X8600Y15944D01*
G01X8600Y15890D01*
G01X8614Y15863D01*
G01X8641Y15835D01*
G01X8669Y15822D01*
G01X8709Y15808D01*
G01X8778Y15808D01*
G01X8819Y15822D01*
G01X8846Y15835D01*
G01X8873Y15863D01*
G01X8887Y15890D01*
G01X8887Y15944D01*
G01X8873Y15972D01*
G01X8846Y15999D01*
G01X8819Y16013D01*
G01X8669Y16116D02*
G01X8655Y16116D01*
G01X8628Y16130D01*
G01X8614Y16143D01*
G01X8600Y16171D01*
G01X8600Y16225D01*
G01X8614Y16253D01*
G01X8628Y16266D01*
G01X8655Y16280D01*
G01X8682Y16280D01*
G01X8709Y16266D01*
G01X8750Y16239D01*
G01X8887Y16103D01*
G01X8887Y16293D01*
G01X17789Y15926D02*
G01X17761Y15911D01*
G01X17734Y15884D01*
G01X17720Y15857D01*
G01X17720Y15803D01*
G01X17734Y15776D01*
G01X17761Y15748D01*
G01X17789Y15734D01*
G01X17829Y15721D01*
G01X17898Y15721D01*
G01X17939Y15734D01*
G01X17966Y15748D01*
G01X17993Y15776D01*
G01X18007Y15803D01*
G01X18007Y15857D01*
G01X17993Y15884D01*
G01X17966Y15911D01*
G01X17939Y15926D01*
G01X17720Y16042D02*
G01X17720Y16192D01*
G01X17829Y16111D01*
G01X17829Y16151D01*
G01X17843Y16178D01*
G01X17857Y16192D01*
G01X17898Y16205D01*
G01X17925Y16205D01*
G01X17966Y16192D01*
G01X17993Y16165D01*
G01X18007Y16125D01*
G01X18007Y16084D01*
G01X17993Y16042D01*
G01X17979Y16028D01*
G01X17952Y16015D01*
G01X14219Y18440D02*
G01X14205Y18467D01*
G01X14178Y18495D01*
G01X14150Y18509D01*
G01X14096Y18509D01*
G01X14069Y18495D01*
G01X14041Y18467D01*
G01X14028Y18440D01*
G01X14014Y18400D01*
G01X14014Y18330D01*
G01X14028Y18290D01*
G01X14041Y18263D01*
G01X14069Y18236D01*
G01X14096Y18222D01*
G01X14150Y18222D01*
G01X14178Y18236D01*
G01X14205Y18263D01*
G01X14219Y18290D01*
G01X14445Y18509D02*
G01X14309Y18317D01*
G01X14513Y18317D01*
G01X14445Y18509D02*
G01X14445Y18222D01*
G01X18069Y11331D02*
G01X18055Y11359D01*
G01X18028Y11386D01*
G01X18000Y11400D01*
G01X17946Y11400D01*
G01X17919Y11386D01*
G01X17891Y11359D01*
G01X17878Y11331D01*
G01X17864Y11291D01*
G01X17864Y11222D01*
G01X17878Y11181D01*
G01X17891Y11154D01*
G01X17919Y11127D01*
G01X17946Y11113D01*
G01X18000Y11113D01*
G01X18028Y11127D01*
G01X18055Y11154D01*
G01X18069Y11181D01*
G01X18159Y11345D02*
G01X18186Y11359D01*
G01X18227Y11400D01*
G01X18227Y11113D01*
G01X18453Y11400D02*
G01X18317Y11209D01*
G01X18521Y11209D01*
G01X18453Y11400D02*
G01X18453Y11113D01*
G01X10385Y14980D02*
G01X10672Y15171D01*
G01X10385Y15171D02*
G01X10672Y14980D01*
G01X10440Y15261D02*
G01X10426Y15288D01*
G01X10385Y15329D01*
G01X10672Y15329D01*
G01X9900Y20107D02*
G01X9900Y19903D01*
G01X9914Y19861D01*
G01X9940Y19834D01*
G01X9981Y19821D01*
G01X10009Y19821D01*
G01X10050Y19834D01*
G01X10077Y19861D01*
G01X10090Y19903D01*
G01X10090Y20107D01*
G01X10194Y20038D02*
G01X10194Y20053D01*
G01X10207Y20080D01*
G01X10222Y20094D01*
G01X10248Y20107D01*
G01X10303Y20107D01*
G01X10331Y20094D01*
G01X10344Y20080D01*
G01X10357Y20053D01*
G01X10357Y20026D01*
G01X10344Y19999D01*
G01X10317Y19957D01*
G01X10181Y19821D01*
G01X10372Y19821D01*
G01X12654Y18984D02*
G01X12626Y18970D01*
G01X12599Y18943D01*
G01X12585Y18915D01*
G01X12585Y18861D01*
G01X12599Y18834D01*
G01X12626Y18806D01*
G01X12654Y18793D01*
G01X12694Y18779D01*
G01X12763Y18779D01*
G01X12804Y18793D01*
G01X12831Y18806D01*
G01X12858Y18834D01*
G01X12872Y18861D01*
G01X12872Y18915D01*
G01X12858Y18943D01*
G01X12831Y18970D01*
G01X12804Y18984D01*
G01X12640Y19074D02*
G01X12626Y19101D01*
G01X12585Y19142D01*
G01X12872Y19142D01*
G01X12585Y19395D02*
G01X12585Y19259D01*
G01X12708Y19245D01*
G01X12694Y19259D01*
G01X12681Y19300D01*
G01X12681Y19341D01*
G01X12694Y19382D01*
G01X12722Y19409D01*
G01X12763Y19423D01*
G01X12790Y19423D01*
G01X12831Y19409D01*
G01X12858Y19382D01*
G01X12872Y19341D01*
G01X12872Y19300D01*
G01X12858Y19259D01*
G01X12844Y19245D01*
G01X12817Y19232D01*
G01X12619Y18105D02*
G01X12591Y18091D01*
G01X12564Y18064D01*
G01X12550Y18036D01*
G01X12550Y17982D01*
G01X12564Y17955D01*
G01X12591Y17927D01*
G01X12619Y17914D01*
G01X12659Y17900D01*
G01X12728Y17900D01*
G01X12769Y17914D01*
G01X12796Y17927D01*
G01X12823Y17955D01*
G01X12837Y17982D01*
G01X12837Y18036D01*
G01X12823Y18064D01*
G01X12796Y18091D01*
G01X12769Y18105D01*
G01X12605Y18195D02*
G01X12591Y18222D01*
G01X12550Y18263D01*
G01X12837Y18263D01*
G01X12619Y18366D02*
G01X12605Y18366D01*
G01X12578Y18380D01*
G01X12564Y18394D01*
G01X12550Y18421D01*
G01X12550Y18475D01*
G01X12564Y18503D01*
G01X12578Y18516D01*
G01X12605Y18530D01*
G01X12632Y18530D01*
G01X12659Y18516D01*
G01X12700Y18489D01*
G01X12837Y18353D01*
G01X12837Y18544D01*
G01X11120Y16978D02*
G01X11098Y16967D01*
G01X11075Y16944D01*
G01X11064Y16922D01*
G01X11064Y16876D01*
G01X11075Y16853D01*
G01X11098Y16830D01*
G01X11120Y16819D01*
G01X11155Y16807D01*
G01X11211Y16807D01*
G01X11245Y16819D01*
G01X11268Y16830D01*
G01X11291Y16853D01*
G01X11302Y16876D01*
G01X11302Y16922D01*
G01X11291Y16944D01*
G01X11268Y16967D01*
G01X11245Y16978D01*
G01X11109Y17053D02*
G01X11098Y17076D01*
G01X11064Y17109D01*
G01X11302Y17109D01*
G01X11064Y17207D02*
G01X11064Y17332D01*
G01X11155Y17265D01*
G01X11155Y17299D01*
G01X11166Y17322D01*
G01X11177Y17332D01*
G01X11211Y17344D01*
G01X11234Y17344D01*
G01X11268Y17332D01*
G01X11291Y17309D01*
G01X11302Y17276D01*
G01X11302Y17242D01*
G01X11291Y17207D01*
G01X11280Y17197D01*
G01X11257Y17184D01*
G01X12255Y19785D02*
G01X12227Y19771D01*
G01X12200Y19744D01*
G01X12185Y19716D01*
G01X12185Y19662D01*
G01X12200Y19635D01*
G01X12227Y19607D01*
G01X12255Y19594D01*
G01X12294Y19580D01*
G01X12364Y19580D01*
G01X12405Y19594D01*
G01X12431Y19607D01*
G01X12459Y19635D01*
G01X12472Y19662D01*
G01X12472Y19716D01*
G01X12459Y19744D01*
G01X12431Y19771D01*
G01X12405Y19785D01*
G01X12240Y19875D02*
G01X12227Y19902D01*
G01X12185Y19943D01*
G01X12472Y19943D01*
G01X12240Y20033D02*
G01X12227Y20060D01*
G01X12185Y20101D01*
G01X12472Y20101D01*
G01X10300Y10958D02*
G01X10505Y10958D01*
G01X10546Y10972D01*
G01X10573Y10999D01*
G01X10587Y11040D01*
G01X10587Y11067D01*
G01X10573Y11108D01*
G01X10546Y11135D01*
G01X10505Y11149D01*
G01X10300Y11149D01*
G01X10300Y11375D02*
G01X10491Y11239D01*
G01X10491Y11443D01*
G01X10300Y11375D02*
G01X10587Y11375D01*
G01X9446Y12480D02*
G01X9732Y12480D01*
G01X9732Y12480D02*
G01X9732Y12644D01*
G01X9501Y12734D02*
G01X9486Y12761D01*
G01X9446Y12802D01*
G01X9732Y12802D01*
G01X11018Y12353D02*
G01X11004Y12381D01*
G01X10977Y12408D01*
G01X10949Y12422D01*
G01X10895Y12422D01*
G01X10868Y12408D01*
G01X10840Y12381D01*
G01X10827Y12353D01*
G01X10813Y12313D01*
G01X10813Y12244D01*
G01X10827Y12203D01*
G01X10840Y12176D01*
G01X10868Y12149D01*
G01X10895Y12135D01*
G01X10949Y12135D01*
G01X10977Y12149D01*
G01X11004Y12176D01*
G01X11018Y12203D01*
G01X11298Y12422D02*
G01X11162Y12135D01*
G01X11108Y12422D02*
G01X11298Y12422D01*
G01X10205Y9425D02*
G01X10190Y9453D01*
G01X10164Y9480D01*
G01X10135Y9494D01*
G01X10081Y9494D01*
G01X10055Y9480D01*
G01X10027Y9453D01*
G01X10014Y9425D01*
G01X10000Y9385D01*
G01X10000Y9316D01*
G01X10014Y9275D01*
G01X10027Y9248D01*
G01X10055Y9221D01*
G01X10081Y9207D01*
G01X10135Y9207D01*
G01X10164Y9221D01*
G01X10190Y9248D01*
G01X10205Y9275D01*
G01X10363Y9494D02*
G01X10322Y9480D01*
G01X10307Y9453D01*
G01X10307Y9425D01*
G01X10322Y9398D01*
G01X10348Y9385D01*
G01X10403Y9371D01*
G01X10444Y9357D01*
G01X10472Y9330D01*
G01X10485Y9303D01*
G01X10485Y9262D01*
G01X10472Y9235D01*
G01X10457Y9221D01*
G01X10417Y9207D01*
G01X10363Y9207D01*
G01X10322Y9221D01*
G01X10307Y9235D01*
G01X10294Y9262D01*
G01X10294Y9303D01*
G01X10307Y9330D01*
G01X10335Y9357D01*
G01X10376Y9371D01*
G01X10431Y9385D01*
G01X10457Y9398D01*
G01X10472Y9425D01*
G01X10472Y9453D01*
G01X10457Y9480D01*
G01X10417Y9494D01*
G01X10363Y9494D01*
G01X13650Y19094D02*
G01X13650Y18807D01*
G01X13650Y18807D02*
G01X13814Y18807D01*
G01X13903Y19094D02*
G01X13903Y18807D01*
G01X13903Y19094D02*
G01X14081Y19094D01*
G01X13903Y18957D02*
G01X14013Y18957D01*
G01X13903Y18807D02*
G01X14081Y18807D01*
G01X14171Y19094D02*
G01X14171Y18807D01*
G01X14171Y19094D02*
G01X14265Y19094D01*
G01X14306Y19080D01*
G01X14335Y19053D01*
G01X14347Y19025D01*
G01X14361Y18985D01*
G01X14361Y18916D01*
G01X14347Y18875D01*
G01X14335Y18848D01*
G01X14306Y18821D01*
G01X14265Y18807D01*
G01X14171Y18807D01*
G01X14478Y19094D02*
G01X14628Y19094D01*
G01X14547Y18985D01*
G01X14588Y18985D01*
G01X14614Y18971D01*
G01X14628Y18957D01*
G01X14643Y18916D01*
G01X14643Y18889D01*
G01X14628Y18848D01*
G01X14602Y18821D01*
G01X14560Y18807D01*
G01X14519Y18807D01*
G01X14478Y18821D01*
G01X14464Y18835D01*
G01X14452Y18862D01*
G01X7887Y8053D02*
G01X7916Y8044D01*
G01X7955Y8043D01*
G01X7984Y8054D01*
G01X8022Y8072D01*
G01X8071Y8121D01*
G01X8090Y8160D01*
G01X8100Y8188D01*
G01X8099Y8227D01*
G01X8090Y8256D01*
G01X8051Y8295D01*
G01X8022Y8304D01*
G01X7984Y8304D01*
G01X7955Y8295D01*
G01X7916Y8275D01*
G01X7868Y8227D01*
G01X7848Y8189D01*
G01X7839Y8159D01*
G01X7839Y8121D01*
G01X7848Y8092D01*
G01X7887Y8053D01*
G01X8022Y8246D02*
G01X8022Y8362D01*
G01X7708Y8232D02*
G01X7602Y8338D01*
G01X7736Y8358D01*
G01X7707Y8387D01*
G01X7698Y8416D01*
G01X7699Y8435D01*
G01X7718Y8474D01*
G01X7737Y8493D01*
G01X7776Y8512D01*
G01X7814Y8512D01*
G01X7853Y8493D01*
G01X7882Y8464D01*
G01X7901Y8425D01*
G01X7900Y8406D01*
G01X7891Y8377D01*
G01X20792Y20734D02*
G01X20763Y20743D01*
G01X20724Y20744D01*
G01X20695Y20733D01*
G01X20657Y20715D01*
G01X20608Y20666D01*
G01X20589Y20627D01*
G01X20579Y20599D01*
G01X20579Y20560D01*
G01X20589Y20531D01*
G01X20627Y20492D01*
G01X20657Y20483D01*
G01X20695Y20483D01*
G01X20724Y20492D01*
G01X20762Y20512D01*
G01X20811Y20560D01*
G01X20830Y20598D01*
G01X20840Y20628D01*
G01X20840Y20666D01*
G01X20830Y20695D01*
G01X20792Y20734D01*
G01X20657Y20541D02*
G01X20657Y20425D01*
G01X20913Y20535D02*
G01X20942Y20526D01*
G01X21000Y20526D01*
G01X20797Y20323D01*
G01X11700Y8945D02*
G01X11987Y8945D01*
G01X11700Y8945D02*
G01X11700Y9040D01*
G01X11714Y9080D01*
G01X11741Y9109D01*
G01X11769Y9122D01*
G01X11809Y9136D01*
G01X11878Y9136D01*
G01X11919Y9122D01*
G01X11946Y9109D01*
G01X11973Y9080D01*
G01X11987Y9040D01*
G01X11987Y8945D01*
G01X11755Y9226D02*
G01X11741Y9253D01*
G01X11700Y9294D01*
G01X11987Y9294D01*
G01X12499Y10773D02*
G01X12786Y10773D01*
G01X12786Y10773D02*
G01X12786Y10937D01*
G01X12499Y11027D02*
G01X12786Y11027D01*
G01X12499Y11027D02*
G01X12499Y11204D01*
G01X12636Y11027D02*
G01X12636Y11136D01*
G01X12786Y11027D02*
G01X12786Y11204D01*
G01X12499Y11294D02*
G01X12786Y11294D01*
G01X12499Y11294D02*
G01X12499Y11389D01*
G01X12513Y11430D01*
G01X12540Y11458D01*
G01X12568Y11471D01*
G01X12608Y11485D01*
G01X12677Y11485D01*
G01X12718Y11471D01*
G01X12745Y11458D01*
G01X12772Y11430D01*
G01X12786Y11389D01*
G01X12786Y11294D01*
G01X12554Y11575D02*
G01X12540Y11602D01*
G01X12499Y11643D01*
G01X12786Y11643D01*
G54D55*
G01X13750Y7688D02*
G01X13777Y7702D01*
G01X13818Y7743D01*
G01X13818Y7456D01*
G54D54*
G01X9099Y8549D02*
G01X9302Y8346D01*
G01X9099Y8549D02*
G01X9186Y8636D01*
G01X9225Y8655D01*
G01X9244Y8654D01*
G01X9273Y8645D01*
G01X9293Y8626D01*
G01X9302Y8597D01*
G01X9302Y8578D01*
G01X9283Y8539D01*
G01X9196Y8452D01*
G01X9264Y8519D02*
G01X9437Y8481D01*
G01X9443Y8834D02*
G01X9414Y8844D01*
G01X9375Y8824D01*
G01X9356Y8805D01*
G01X9337Y8766D01*
G01X9347Y8718D01*
G01X9385Y8660D01*
G01X9433Y8612D01*
G01X9482Y8583D01*
G01X9520Y8583D01*
G01X9559Y8602D01*
G01X9568Y8612D01*
G01X9587Y8650D01*
G01X9588Y8689D01*
G01X9568Y8728D01*
G01X9558Y8737D01*
G01X9520Y8757D01*
G01X9481Y8757D01*
G01X9442Y8737D01*
G01X9433Y8728D01*
G01X9414Y8689D01*
G01X9414Y8651D01*
G01X9433Y8612D01*
G01X19000Y20210D02*
G01X19202Y20007D01*
G01X19000Y20210D02*
G01X19086Y20297D01*
G01X19125Y20316D01*
G01X19144Y20315D01*
G01X19173Y20306D01*
G01X19193Y20287D01*
G01X19202Y20258D01*
G01X19202Y20239D01*
G01X19183Y20200D01*
G01X19096Y20113D01*
G01X19164Y20180D02*
G01X19338Y20142D01*
G01X19333Y20544D02*
G01X19439Y20244D01*
G01X19198Y20408D02*
G01X19333Y20544D01*
G01X6598Y20387D02*
G01X6800Y20185D01*
G01X6598Y20387D02*
G01X6684Y20474D01*
G01X6723Y20494D01*
G01X6742Y20493D01*
G01X6771Y20484D01*
G01X6791Y20465D01*
G01X6800Y20436D01*
G01X6800Y20416D01*
G01X6781Y20378D01*
G01X6694Y20291D01*
G01X6762Y20358D02*
G01X6936Y20320D01*
G01X6844Y20634D02*
G01X6825Y20595D01*
G01X6835Y20567D01*
G01X6855Y20547D01*
G01X6883Y20537D01*
G01X6911Y20547D01*
G01X6960Y20576D01*
G01X6999Y20595D01*
G01X7037Y20595D01*
G01X7066Y20586D01*
G01X7095Y20557D01*
G01X7105Y20528D01*
G01X7105Y20509D01*
G01X7086Y20470D01*
G01X7047Y20431D01*
G01X7008Y20412D01*
G01X6989Y20413D01*
G01X6960Y20422D01*
G01X6931Y20451D01*
G01X6922Y20480D01*
G01X6922Y20518D01*
G01X6941Y20557D01*
G01X6969Y20605D01*
G01X6980Y20634D01*
G01X6970Y20663D01*
G01X6950Y20682D01*
G01X6922Y20692D01*
G01X6883Y20673D01*
G01X6844Y20634D01*
G01X8199Y16536D02*
G01X8486Y16536D01*
G01X8199Y16536D02*
G01X8199Y16659D01*
G01X8213Y16700D01*
G01X8227Y16713D01*
G01X8254Y16727D01*
G01X8281Y16727D01*
G01X8308Y16713D01*
G01X8322Y16700D01*
G01X8336Y16659D01*
G01X8336Y16536D01*
G01X8336Y16630D02*
G01X8486Y16727D01*
G01X8295Y16994D02*
G01X8336Y16980D01*
G01X8363Y16953D01*
G01X8377Y16911D01*
G01X8377Y16899D01*
G01X8363Y16857D01*
G01X8336Y16830D01*
G01X8295Y16817D01*
G01X8281Y16817D01*
G01X8240Y16830D01*
G01X8213Y16857D01*
G01X8199Y16899D01*
G01X8199Y16911D01*
G01X8213Y16953D01*
G01X8240Y16980D01*
G01X8295Y16994D01*
G01X8363Y16994D01*
G01X8431Y16980D01*
G01X8472Y16953D01*
G01X8486Y16911D01*
G01X8486Y16884D01*
G01X8472Y16844D01*
G01X8445Y16830D01*
G01X19100Y13032D02*
G01X19305Y13032D01*
G01X19346Y13046D01*
G01X19373Y13073D01*
G01X19387Y13114D01*
G01X19387Y13141D01*
G01X19373Y13182D01*
G01X19346Y13209D01*
G01X19305Y13223D01*
G01X19100Y13223D01*
G01X19141Y13504D02*
G01X19114Y13477D01*
G01X19100Y13436D01*
G01X19100Y13381D01*
G01X19114Y13340D01*
G01X19141Y13313D01*
G01X19169Y13313D01*
G01X19196Y13327D01*
G01X19209Y13340D01*
G01X19223Y13367D01*
G01X19250Y13449D01*
G01X19264Y13477D01*
G01X19278Y13490D01*
G01X19305Y13504D01*
G01X19346Y13504D01*
G01X19373Y13477D01*
G01X19387Y13436D01*
G01X19387Y13381D01*
G01X19373Y13340D01*
G01X19346Y13313D01*
G01X19100Y13594D02*
G01X19387Y13594D01*
G01X19100Y13594D02*
G01X19100Y13717D01*
G01X19114Y13757D01*
G01X19128Y13771D01*
G01X19155Y13785D01*
G01X19182Y13785D01*
G01X19209Y13771D01*
G01X19223Y13757D01*
G01X19237Y13717D01*
G01X19237Y13594D02*
G01X19237Y13717D01*
G01X19250Y13757D01*
G01X19264Y13771D01*
G01X19291Y13785D01*
G01X19332Y13785D01*
G01X19359Y13771D01*
G01X19373Y13757D01*
G01X19387Y13717D01*
G01X19387Y13594D01*
G01X19155Y13875D02*
G01X19141Y13902D01*
G01X19100Y13943D01*
G01X19387Y13943D01*
G01X16450Y17844D02*
G01X16450Y17557D01*
G01X16450Y17844D02*
G01X16572Y17844D01*
G01X16614Y17830D01*
G01X16627Y17816D01*
G01X16640Y17789D01*
G01X16640Y17762D01*
G01X16627Y17735D01*
G01X16614Y17721D01*
G01X16572Y17707D01*
G01X16450Y17707D01*
G01X16544Y17707D02*
G01X16640Y17557D01*
G01X16744Y17775D02*
G01X16744Y17789D01*
G01X16757Y17816D01*
G01X16772Y17830D01*
G01X16798Y17844D01*
G01X16853Y17844D01*
G01X16881Y17830D01*
G01X16894Y17816D01*
G01X16907Y17789D01*
G01X16907Y17762D01*
G01X16894Y17735D01*
G01X16867Y17694D01*
G01X16731Y17557D01*
G01X16922Y17557D01*
G01X15149Y18494D02*
G01X15149Y18207D01*
G01X15149Y18494D02*
G01X15272Y18494D01*
G01X15313Y18480D01*
G01X15326Y18465D01*
G01X15340Y18438D01*
G01X15340Y18411D01*
G01X15326Y18384D01*
G01X15313Y18371D01*
G01X15272Y18357D01*
G01X15149Y18357D01*
G01X15244Y18357D02*
G01X15340Y18207D01*
G01X15457Y18494D02*
G01X15607Y18494D01*
G01X15525Y18384D01*
G01X15566Y18384D01*
G01X15594Y18371D01*
G01X15607Y18357D01*
G01X15621Y18315D01*
G01X15621Y18288D01*
G01X15607Y18248D01*
G01X15580Y18221D01*
G01X15539Y18207D01*
G01X15498Y18207D01*
G01X15457Y18221D01*
G01X15444Y18234D01*
G01X15430Y18261D01*
G01X20775Y7890D02*
G01X20785Y7919D01*
G01X20785Y7958D01*
G01X20775Y7987D01*
G01X20756Y8025D01*
G01X20708Y8074D01*
G01X20669Y8093D01*
G01X20640Y8103D01*
G01X20601Y8102D01*
G01X20572Y8093D01*
G01X20534Y8054D01*
G01X20524Y8025D01*
G01X20524Y7987D01*
G01X20534Y7958D01*
G01X20553Y7919D01*
G01X20602Y7871D01*
G01X20640Y7852D01*
G01X20669Y7842D01*
G01X20708Y7842D01*
G01X20737Y7852D01*
G01X20775Y7890D01*
G01X20582Y8025D02*
G01X20466Y8025D01*
G01X20557Y7769D02*
G01X20567Y7759D01*
G01X20577Y7731D01*
G01X20577Y7711D01*
G01X20568Y7682D01*
G01X20529Y7643D01*
G01X20500Y7634D01*
G01X20480Y7634D01*
G01X20452Y7644D01*
G01X20432Y7663D01*
G01X20423Y7691D01*
G01X20413Y7739D01*
G01X20413Y7933D01*
G01X20278Y7798D01*
G01X20215Y9596D02*
G01X20013Y9393D01*
G01X20215Y9596D02*
G01X20302Y9509D01*
G01X20322Y9470D01*
G01X20321Y9451D01*
G01X20312Y9422D01*
G01X20293Y9402D01*
G01X20264Y9393D01*
G01X20244Y9393D01*
G01X20206Y9412D01*
G01X20119Y9499D01*
G01X20186Y9431D02*
G01X20148Y9257D01*
G01X20530Y9281D02*
G01X20433Y9378D01*
G01X20337Y9300D01*
G01X20356Y9301D01*
G01X20394Y9281D01*
G01X20423Y9252D01*
G01X20443Y9214D01*
G01X20442Y9175D01*
G01X20423Y9136D01*
G01X20404Y9117D01*
G01X20365Y9098D01*
G01X20327Y9098D01*
G01X20288Y9117D01*
G01X20259Y9146D01*
G01X20240Y9185D01*
G01X20241Y9204D01*
G01X20250Y9233D01*
G01X12300Y17345D02*
G01X12587Y17345D01*
G01X12300Y17345D02*
G01X12300Y17467D01*
G01X12314Y17509D01*
G01X12328Y17522D01*
G01X12355Y17536D01*
G01X12382Y17536D01*
G01X12409Y17522D01*
G01X12423Y17509D01*
G01X12437Y17467D01*
G01X12437Y17345D01*
G01X12437Y17440D02*
G01X12587Y17536D01*
G01X12355Y17626D02*
G01X12341Y17653D01*
G01X12300Y17694D01*
G01X12587Y17694D01*
G01X17555Y12185D02*
G01X17527Y12171D01*
G01X17500Y12144D01*
G01X17485Y12116D01*
G01X17485Y12062D01*
G01X17500Y12035D01*
G01X17527Y12007D01*
G01X17555Y11994D01*
G01X17594Y11980D01*
G01X17664Y11980D01*
G01X17705Y11994D01*
G01X17731Y12007D01*
G01X17759Y12035D01*
G01X17772Y12062D01*
G01X17772Y12116D01*
G01X17759Y12144D01*
G01X17731Y12171D01*
G01X17705Y12185D01*
G01X17485Y12438D02*
G01X17485Y12302D01*
G01X17609Y12288D01*
G01X17594Y12302D01*
G01X17581Y12343D01*
G01X17581Y12384D01*
G01X17594Y12425D01*
G01X17622Y12452D01*
G01X17664Y12465D01*
G01X17690Y12465D01*
G01X17731Y12452D01*
G01X17759Y12425D01*
G01X17772Y12384D01*
G01X17772Y12343D01*
G01X17759Y12302D01*
G01X17744Y12288D01*
G01X17718Y12275D01*
G01X17219Y9917D02*
G01X17205Y9945D01*
G01X17178Y9972D01*
G01X17150Y9986D01*
G01X17096Y9986D01*
G01X17069Y9972D01*
G01X17041Y9945D01*
G01X17028Y9917D01*
G01X17014Y9876D01*
G01X17014Y9807D01*
G01X17028Y9767D01*
G01X17041Y9740D01*
G01X17069Y9713D01*
G01X17096Y9699D01*
G01X17150Y9699D01*
G01X17178Y9713D01*
G01X17205Y9740D01*
G01X17219Y9767D01*
G01X17472Y9945D02*
G01X17459Y9972D01*
G01X17418Y9986D01*
G01X17390Y9986D01*
G01X17349Y9972D01*
G01X17322Y9930D01*
G01X17309Y9863D01*
G01X17309Y9795D01*
G01X17322Y9740D01*
G01X17349Y9713D01*
G01X17390Y9699D01*
G01X17404Y9699D01*
G01X17445Y9713D01*
G01X17472Y9740D01*
G01X17486Y9780D01*
G01X17486Y9795D01*
G01X17472Y9836D01*
G01X17445Y9863D01*
G01X17404Y9876D01*
G01X17390Y9876D01*
G01X17349Y9863D01*
G01X17322Y9836D01*
G01X17309Y9795D01*
G01X7309Y21437D02*
G01X7300Y21408D01*
G01X7300Y21369D01*
G01X7310Y21340D01*
G01X7328Y21302D01*
G01X7377Y21253D01*
G01X7416Y21234D01*
G01X7444Y21224D01*
G01X7483Y21225D01*
G01X7512Y21234D01*
G01X7551Y21272D01*
G01X7560Y21302D01*
G01X7560Y21340D01*
G01X7551Y21369D01*
G01X7531Y21407D01*
G01X7483Y21456D01*
G01X7445Y21475D01*
G01X7415Y21485D01*
G01X7377Y21485D01*
G01X7348Y21475D01*
G01X7309Y21437D01*
G01X7502Y21302D02*
G01X7618Y21302D01*
G01X7566Y21693D02*
G01X7604Y21462D01*
G01X7749Y21607D01*
G01X7566Y21693D02*
G01X7769Y21491D01*
G01X9005Y21294D02*
G01X8802Y21091D01*
G01X9005Y21294D02*
G01X9092Y21207D01*
G01X9111Y21168D01*
G01X9110Y21149D01*
G01X9101Y21120D01*
G01X9082Y21100D01*
G01X9053Y21091D01*
G01X9034Y21091D01*
G01X8995Y21110D01*
G01X8908Y21197D01*
G01X8975Y21129D02*
G01X8937Y20956D01*
G01X9299Y20999D02*
G01X9068Y20960D01*
G01X9213Y20816D01*
G01X9299Y20999D02*
G01X9097Y20796D01*
G01X15940Y9553D02*
G01X15914Y9580D01*
G01X15872Y9594D01*
G01X15818Y9594D01*
G01X15777Y9580D01*
G01X15750Y9553D01*
G01X15750Y9525D01*
G01X15764Y9498D01*
G01X15777Y9485D01*
G01X15805Y9471D01*
G01X15885Y9444D01*
G01X15914Y9430D01*
G01X15927Y9416D01*
G01X15940Y9389D01*
G01X15940Y9348D01*
G01X15914Y9321D01*
G01X15872Y9307D01*
G01X15818Y9307D01*
G01X15777Y9321D01*
G01X15750Y9348D01*
G01X16031Y9594D02*
G01X16031Y9307D01*
G01X16031Y9594D02*
G01X16153Y9594D01*
G01X16194Y9580D01*
G01X16207Y9566D01*
G01X16222Y9539D01*
G01X16222Y9512D01*
G01X16207Y9485D01*
G01X16194Y9471D01*
G01X16153Y9457D01*
G01X16031Y9457D01*
G01X16126Y9457D02*
G01X16222Y9307D01*
G01X16311Y9594D02*
G01X16502Y9307D01*
G01X16502Y9594D02*
G01X16311Y9307D01*
G54D50*
G75*
G01X8976Y19381D02*
G3X8976Y19381INaNJNaND01*
G01*
G54D51*
G75*
G01X10206Y12001D02*
G3X10206Y12001INaNJNaND01*
G01*
G54D52*
G75*
G01X15633Y15559D02*
G3X15631Y15559I-1J118D01*
G01*
G54D53*
G75*
G01X16135Y16593D02*
G3X16134Y16593I-1J59D01*
G01*
M00*
M02*
