G04 ---------------------------- Layer name :BOTTOM LAYER*
G04 EasyEDA v5.7.24, Wed, 12 Sep 2018 16:40:19 GMT*
G04 788ae3d0f2e84f31b98fff910f9a6f2a*
G04 Gerber Generator version 0.2*
G04 Scale: 100 percent, Rotated: No, Reflected: No *
G04 Dimensions in inches *
G04 leading zeros omitted , absolute positions ,2 integer and 4 decimal *
%FSLAX24Y24*%
%MOIN*%
G90*
G70D02*

%ADD11C,0.012000*%
%ADD13C,0.018000*%
%ADD15C,0.024000*%
%ADD18C,0.022000*%
%ADD24C,0.019700*%
%ADD25C,0.024400*%
%ADD41C,0.039370*%
%ADD42R,0.066000X0.066000*%
%ADD43C,0.059055*%
%ADD44C,0.051181*%

%LPD*%
G36*
G01X27800Y0D02*
G01X27300Y0D01*
G01X26650Y650D01*
G01X25150Y650D01*
G01X23850Y1950D01*
G01X23850Y2563D01*
G01X18350Y8063D01*
G01X10050Y8063D01*
G01X4550Y2563D01*
G01X4550Y1963D01*
G01X3200Y613D01*
G01X1750Y613D01*
G01X1150Y13D01*
G01X600Y13D01*
G01X0Y613D01*
G01X0Y1113D01*
G01X650Y1763D01*
G01X650Y3263D01*
G01X1950Y4563D01*
G01X2550Y4563D01*
G01X8050Y10063D01*
G01X8050Y18480D01*
G01X3248Y23282D01*
G01X2536Y23994D01*
G01X1950Y23994D01*
G01X600Y25344D01*
G01X600Y26794D01*
G01X0Y27394D01*
G01X0Y27944D01*
G01X600Y28544D01*
G01X1100Y28544D01*
G01X1750Y27894D01*
G01X3250Y27894D01*
G01X4550Y26594D01*
G01X4550Y25980D01*
G01X10050Y20463D01*
G01X18335Y20463D01*
G01X23138Y25265D01*
G01X23850Y25978D01*
G01X23850Y26563D01*
G01X25200Y27913D01*
G01X26650Y27913D01*
G01X27250Y28513D01*
G01X27800Y28513D01*
G01X28400Y27913D01*
G01X28400Y27413D01*
G01X27750Y26763D01*
G01X27750Y25263D01*
G01X26450Y23963D01*
G01X25835Y23963D01*
G01X20350Y18484D01*
G01X20350Y10063D01*
G01X25151Y5261D01*
G01X25864Y4550D01*
G01X26450Y4550D01*
G01X27800Y3200D01*
G01X27800Y1750D01*
G01X28400Y1150D01*
G01X28400Y600D01*
G01X27800Y0D01*
G37*

%LPC*%
G36*
G01X737Y27240D02*
G01X787Y27237D01*
G01X837Y27238D01*
G01X886Y27244D01*
G01X935Y27255D01*
G01X983Y27271D01*
G01X1028Y27292D01*
G01X1071Y27317D01*
G01X1112Y27346D01*
G01X1149Y27379D01*
G01X1183Y27415D01*
G01X1213Y27455D01*
G01X1239Y27498D01*
G01X1261Y27543D01*
G01X1278Y27590D01*
G01X1291Y27638D01*
G01X1298Y27688D01*
G01X1301Y27738D01*
G01X1298Y27787D01*
G01X1291Y27837D01*
G01X1278Y27885D01*
G01X1261Y27932D01*
G01X1239Y27977D01*
G01X1213Y28020D01*
G01X1183Y28060D01*
G01X1149Y28096D01*
G01X1112Y28129D01*
G01X1071Y28158D01*
G01X1028Y28183D01*
G01X983Y28204D01*
G01X935Y28220D01*
G01X886Y28231D01*
G01X837Y28237D01*
G01X787Y28238D01*
G01X737Y28235D01*
G01X688Y28226D01*
G01X640Y28212D01*
G01X593Y28194D01*
G01X549Y28171D01*
G01X507Y28144D01*
G01X468Y28113D01*
G01X432Y28078D01*
G01X400Y28040D01*
G01X372Y27999D01*
G01X348Y27955D01*
G01X329Y27909D01*
G01X314Y27861D01*
G01X304Y27812D01*
G01X299Y27762D01*
G01X299Y27713D01*
G01X304Y27663D01*
G01X314Y27614D01*
G01X329Y27566D01*
G01X348Y27520D01*
G01X372Y27476D01*
G01X400Y27435D01*
G01X432Y27397D01*
G01X468Y27362D01*
G01X507Y27331D01*
G01X549Y27304D01*
G01X593Y27281D01*
G01X640Y27263D01*
G01X688Y27249D01*
G01X737Y27240D01*
G37*
G36*
G01X27537Y296D02*
G01X27587Y293D01*
G01X27637Y294D01*
G01X27686Y300D01*
G01X27735Y311D01*
G01X27783Y327D01*
G01X27828Y348D01*
G01X27871Y373D01*
G01X27912Y402D01*
G01X27949Y435D01*
G01X27983Y471D01*
G01X28013Y511D01*
G01X28039Y554D01*
G01X28061Y599D01*
G01X28078Y646D01*
G01X28091Y694D01*
G01X28098Y744D01*
G01X28101Y794D01*
G01X28098Y843D01*
G01X28091Y893D01*
G01X28078Y941D01*
G01X28061Y988D01*
G01X28039Y1033D01*
G01X28013Y1076D01*
G01X27983Y1116D01*
G01X27949Y1152D01*
G01X27912Y1185D01*
G01X27871Y1214D01*
G01X27828Y1239D01*
G01X27783Y1260D01*
G01X27735Y1276D01*
G01X27686Y1287D01*
G01X27637Y1293D01*
G01X27587Y1294D01*
G01X27537Y1291D01*
G01X27488Y1282D01*
G01X27440Y1268D01*
G01X27393Y1250D01*
G01X27349Y1227D01*
G01X27307Y1200D01*
G01X27268Y1169D01*
G01X27232Y1134D01*
G01X27200Y1096D01*
G01X27172Y1055D01*
G01X27148Y1011D01*
G01X27129Y965D01*
G01X27114Y917D01*
G01X27104Y868D01*
G01X27099Y818D01*
G01X27099Y769D01*
G01X27104Y719D01*
G01X27114Y670D01*
G01X27129Y622D01*
G01X27148Y576D01*
G01X27172Y532D01*
G01X27200Y491D01*
G01X27232Y453D01*
G01X27268Y418D01*
G01X27307Y387D01*
G01X27349Y360D01*
G01X27393Y337D01*
G01X27440Y319D01*
G01X27488Y305D01*
G01X27537Y296D01*
G37*
G36*
G01X723Y310D02*
G01X773Y307D01*
G01X823Y308D01*
G01X873Y314D01*
G01X921Y325D01*
G01X969Y341D01*
G01X1014Y362D01*
G01X1057Y387D01*
G01X1098Y416D01*
G01X1135Y449D01*
G01X1169Y485D01*
G01X1199Y525D01*
G01X1225Y568D01*
G01X1247Y613D01*
G01X1264Y660D01*
G01X1277Y708D01*
G01X1284Y758D01*
G01X1286Y807D01*
G01X1284Y857D01*
G01X1277Y907D01*
G01X1264Y955D01*
G01X1247Y1002D01*
G01X1225Y1047D01*
G01X1199Y1090D01*
G01X1169Y1130D01*
G01X1135Y1166D01*
G01X1098Y1199D01*
G01X1057Y1228D01*
G01X1014Y1253D01*
G01X969Y1274D01*
G01X921Y1290D01*
G01X873Y1301D01*
G01X823Y1307D01*
G01X773Y1308D01*
G01X723Y1305D01*
G01X674Y1296D01*
G01X626Y1282D01*
G01X579Y1264D01*
G01X535Y1241D01*
G01X493Y1214D01*
G01X454Y1183D01*
G01X418Y1148D01*
G01X386Y1110D01*
G01X358Y1069D01*
G01X334Y1025D01*
G01X315Y979D01*
G01X300Y931D01*
G01X290Y882D01*
G01X285Y832D01*
G01X285Y783D01*
G01X290Y733D01*
G01X300Y684D01*
G01X315Y636D01*
G01X334Y590D01*
G01X358Y546D01*
G01X386Y505D01*
G01X418Y467D01*
G01X454Y432D01*
G01X493Y401D01*
G01X535Y374D01*
G01X579Y351D01*
G01X626Y333D01*
G01X674Y319D01*
G01X723Y310D01*
G37*
G36*
G01X25613Y1104D02*
G01X25762Y1093D01*
G01X25912Y1097D01*
G01X26060Y1115D01*
G01X26206Y1149D01*
G01X26348Y1196D01*
G01X26484Y1258D01*
G01X26614Y1333D01*
G01X26735Y1420D01*
G01X26848Y1519D01*
G01X26949Y1629D01*
G01X27040Y1748D01*
G01X27118Y1876D01*
G01X27183Y2010D01*
G01X27234Y2151D01*
G01X27271Y2296D01*
G01X27293Y2444D01*
G01X27301Y2594D01*
G01X27293Y2743D01*
G01X27271Y2891D01*
G01X27234Y3036D01*
G01X27183Y3177D01*
G01X27118Y3311D01*
G01X27040Y3439D01*
G01X26949Y3558D01*
G01X26848Y3668D01*
G01X26735Y3767D01*
G01X26614Y3854D01*
G01X26484Y3929D01*
G01X26348Y3991D01*
G01X26206Y4038D01*
G01X26060Y4072D01*
G01X25912Y4090D01*
G01X25762Y4094D01*
G01X25613Y4083D01*
G01X25465Y4057D01*
G01X25321Y4016D01*
G01X25182Y3962D01*
G01X25049Y3893D01*
G01X24923Y3812D01*
G01X24806Y3719D01*
G01X24699Y3614D01*
G01X24603Y3500D01*
G01X24519Y3376D01*
G01X24447Y3245D01*
G01X24389Y3107D01*
G01X24345Y2964D01*
G01X24315Y2817D01*
G01X24300Y2668D01*
G01X24300Y2519D01*
G01X24315Y2370D01*
G01X24345Y2223D01*
G01X24389Y2080D01*
G01X24447Y1942D01*
G01X24519Y1811D01*
G01X24603Y1687D01*
G01X24699Y1573D01*
G01X24806Y1468D01*
G01X24923Y1375D01*
G01X25049Y1294D01*
G01X25182Y1225D01*
G01X25321Y1171D01*
G01X25465Y1130D01*
G01X25613Y1104D01*
G37*
G36*
G01X2399Y1118D02*
G01X2548Y1107D01*
G01X2698Y1111D01*
G01X2846Y1129D01*
G01X2992Y1163D01*
G01X3134Y1210D01*
G01X3270Y1272D01*
G01X3400Y1347D01*
G01X3521Y1434D01*
G01X3634Y1533D01*
G01X3735Y1643D01*
G01X3826Y1762D01*
G01X3904Y1890D01*
G01X3969Y2024D01*
G01X4020Y2165D01*
G01X4057Y2310D01*
G01X4079Y2458D01*
G01X4086Y2607D01*
G01X4079Y2757D01*
G01X4057Y2905D01*
G01X4020Y3050D01*
G01X3969Y3191D01*
G01X3904Y3325D01*
G01X3826Y3453D01*
G01X3735Y3572D01*
G01X3634Y3682D01*
G01X3521Y3781D01*
G01X3400Y3868D01*
G01X3270Y3943D01*
G01X3134Y4005D01*
G01X2992Y4052D01*
G01X2846Y4086D01*
G01X2698Y4104D01*
G01X2548Y4108D01*
G01X2399Y4097D01*
G01X2251Y4071D01*
G01X2107Y4030D01*
G01X1968Y3976D01*
G01X1835Y3907D01*
G01X1709Y3826D01*
G01X1592Y3733D01*
G01X1485Y3628D01*
G01X1389Y3514D01*
G01X1305Y3390D01*
G01X1233Y3259D01*
G01X1175Y3121D01*
G01X1131Y2978D01*
G01X1101Y2831D01*
G01X1086Y2682D01*
G01X1086Y2533D01*
G01X1101Y2384D01*
G01X1131Y2237D01*
G01X1175Y2094D01*
G01X1233Y1956D01*
G01X1305Y1825D01*
G01X1389Y1701D01*
G01X1485Y1587D01*
G01X1592Y1482D01*
G01X1709Y1389D01*
G01X1835Y1308D01*
G01X1968Y1239D01*
G01X2107Y1185D01*
G01X2251Y1144D01*
G01X2399Y1118D01*
G37*
G36*
G01X21584Y6170D02*
G01X21614Y6168D01*
G01X21644Y6168D01*
G01X21673Y6172D01*
G01X21702Y6179D01*
G01X21730Y6188D01*
G01X21757Y6200D01*
G01X21783Y6215D01*
G01X21807Y6232D01*
G01X21829Y6252D01*
G01X21849Y6274D01*
G01X21867Y6298D01*
G01X21883Y6323D01*
G01X21896Y6350D01*
G01X21906Y6378D01*
G01X21913Y6406D01*
G01X21918Y6436D01*
G01X21919Y6465D01*
G01X21918Y6495D01*
G01X21913Y6524D01*
G01X21911Y6531D01*
G01X21941Y6526D01*
G01X21970Y6524D01*
G01X22000Y6525D01*
G01X22029Y6528D01*
G01X22058Y6535D01*
G01X22087Y6544D01*
G01X22114Y6557D01*
G01X22139Y6572D01*
G01X22163Y6589D01*
G01X22186Y6608D01*
G01X22206Y6630D01*
G01X22224Y6654D01*
G01X22239Y6679D01*
G01X22252Y6706D01*
G01X22262Y6734D01*
G01X22270Y6763D01*
G01X22274Y6792D01*
G01X22276Y6822D01*
G01X22274Y6851D01*
G01X22270Y6881D01*
G01X22262Y6909D01*
G01X22252Y6937D01*
G01X22239Y6964D01*
G01X22224Y6989D01*
G01X22206Y7013D01*
G01X22186Y7035D01*
G01X22163Y7055D01*
G01X22139Y7072D01*
G01X22114Y7087D01*
G01X22087Y7099D01*
G01X22058Y7108D01*
G01X22029Y7115D01*
G01X22000Y7119D01*
G01X21970Y7119D01*
G01X21941Y7117D01*
G01X21911Y7112D01*
G01X21883Y7104D01*
G01X21855Y7093D01*
G01X21829Y7080D01*
G01X21804Y7064D01*
G01X21781Y7045D01*
G01X21759Y7024D01*
G01X21740Y7002D01*
G01X21724Y6977D01*
G01X21709Y6951D01*
G01X21698Y6924D01*
G01X21689Y6895D01*
G01X21683Y6866D01*
G01X21680Y6837D01*
G01X21680Y6807D01*
G01X21683Y6777D01*
G01X21688Y6755D01*
G01X21673Y6759D01*
G01X21644Y6762D01*
G01X21614Y6763D01*
G01X21584Y6761D01*
G01X21555Y6756D01*
G01X21526Y6748D01*
G01X21499Y6737D01*
G01X21472Y6723D01*
G01X21447Y6707D01*
G01X21424Y6689D01*
G01X21403Y6668D01*
G01X21384Y6645D01*
G01X21367Y6621D01*
G01X21353Y6595D01*
G01X21341Y6567D01*
G01X21333Y6539D01*
G01X21327Y6510D01*
G01X21324Y6480D01*
G01X21324Y6450D01*
G01X21327Y6421D01*
G01X21333Y6392D01*
G01X21341Y6363D01*
G01X21353Y6336D01*
G01X21367Y6310D01*
G01X21384Y6285D01*
G01X21403Y6263D01*
G01X21424Y6242D01*
G01X21447Y6223D01*
G01X21472Y6207D01*
G01X21499Y6194D01*
G01X21526Y6183D01*
G01X21555Y6175D01*
G01X21584Y6170D01*
G37*
G36*
G01X6941Y6370D02*
G01X6970Y6368D01*
G01X7000Y6368D01*
G01X7029Y6372D01*
G01X7058Y6379D01*
G01X7087Y6388D01*
G01X7114Y6400D01*
G01X7139Y6415D01*
G01X7163Y6432D01*
G01X7186Y6452D01*
G01X7206Y6474D01*
G01X7224Y6498D01*
G01X7239Y6523D01*
G01X7252Y6550D01*
G01X7262Y6578D01*
G01X7270Y6606D01*
G01X7274Y6636D01*
G01X7276Y6665D01*
G01X7274Y6695D01*
G01X7270Y6724D01*
G01X7262Y6753D01*
G01X7252Y6781D01*
G01X7239Y6808D01*
G01X7224Y6833D01*
G01X7206Y6857D01*
G01X7186Y6879D01*
G01X7163Y6898D01*
G01X7139Y6915D01*
G01X7114Y6930D01*
G01X7087Y6943D01*
G01X7058Y6952D01*
G01X7029Y6959D01*
G01X7000Y6962D01*
G01X6970Y6963D01*
G01X6941Y6961D01*
G01X6911Y6956D01*
G01X6913Y6963D01*
G01X6918Y6992D01*
G01X6919Y7022D01*
G01X6918Y7051D01*
G01X6913Y7081D01*
G01X6906Y7109D01*
G01X6896Y7137D01*
G01X6883Y7164D01*
G01X6867Y7189D01*
G01X6849Y7213D01*
G01X6829Y7235D01*
G01X6807Y7255D01*
G01X6783Y7272D01*
G01X6757Y7287D01*
G01X6730Y7299D01*
G01X6702Y7308D01*
G01X6673Y7315D01*
G01X6644Y7319D01*
G01X6614Y7319D01*
G01X6584Y7317D01*
G01X6555Y7312D01*
G01X6526Y7304D01*
G01X6499Y7293D01*
G01X6472Y7280D01*
G01X6447Y7264D01*
G01X6424Y7245D01*
G01X6403Y7224D01*
G01X6384Y7202D01*
G01X6367Y7177D01*
G01X6353Y7151D01*
G01X6341Y7124D01*
G01X6333Y7095D01*
G01X6327Y7066D01*
G01X6324Y7037D01*
G01X6324Y7007D01*
G01X6327Y6977D01*
G01X6333Y6948D01*
G01X6341Y6920D01*
G01X6353Y6892D01*
G01X6367Y6866D01*
G01X6384Y6842D01*
G01X6403Y6819D01*
G01X6424Y6798D01*
G01X6447Y6780D01*
G01X6472Y6764D01*
G01X6499Y6750D01*
G01X6526Y6739D01*
G01X6555Y6731D01*
G01X6584Y6726D01*
G01X6614Y6724D01*
G01X6644Y6725D01*
G01X6673Y6728D01*
G01X6688Y6732D01*
G01X6683Y6710D01*
G01X6680Y6680D01*
G01X6680Y6650D01*
G01X6683Y6621D01*
G01X6689Y6592D01*
G01X6698Y6563D01*
G01X6709Y6536D01*
G01X6724Y6510D01*
G01X6740Y6485D01*
G01X6759Y6463D01*
G01X6781Y6442D01*
G01X6804Y6423D01*
G01X6829Y6407D01*
G01X6855Y6394D01*
G01X6883Y6383D01*
G01X6911Y6375D01*
G01X6941Y6370D01*
G37*
G36*
G01X27537Y27210D02*
G01X27587Y27207D01*
G01X27637Y27208D01*
G01X27686Y27214D01*
G01X27735Y27225D01*
G01X27783Y27241D01*
G01X27828Y27262D01*
G01X27871Y27287D01*
G01X27912Y27316D01*
G01X27949Y27349D01*
G01X27983Y27385D01*
G01X28013Y27425D01*
G01X28039Y27468D01*
G01X28061Y27513D01*
G01X28078Y27560D01*
G01X28091Y27608D01*
G01X28098Y27658D01*
G01X28101Y27707D01*
G01X28098Y27757D01*
G01X28091Y27807D01*
G01X28078Y27855D01*
G01X28061Y27902D01*
G01X28039Y27947D01*
G01X28013Y27990D01*
G01X27983Y28030D01*
G01X27949Y28066D01*
G01X27912Y28099D01*
G01X27871Y28128D01*
G01X27828Y28153D01*
G01X27783Y28174D01*
G01X27735Y28190D01*
G01X27686Y28201D01*
G01X27637Y28207D01*
G01X27587Y28208D01*
G01X27537Y28205D01*
G01X27488Y28196D01*
G01X27440Y28182D01*
G01X27393Y28164D01*
G01X27349Y28141D01*
G01X27307Y28114D01*
G01X27268Y28083D01*
G01X27232Y28048D01*
G01X27200Y28010D01*
G01X27172Y27969D01*
G01X27148Y27925D01*
G01X27129Y27879D01*
G01X27114Y27831D01*
G01X27104Y27782D01*
G01X27099Y27732D01*
G01X27099Y27683D01*
G01X27104Y27633D01*
G01X27114Y27584D01*
G01X27129Y27536D01*
G01X27148Y27490D01*
G01X27172Y27446D01*
G01X27200Y27405D01*
G01X27232Y27367D01*
G01X27268Y27332D01*
G01X27307Y27301D01*
G01X27349Y27274D01*
G01X27393Y27251D01*
G01X27440Y27233D01*
G01X27488Y27219D01*
G01X27537Y27210D01*
G37*
G36*
G01X2413Y24448D02*
G01X2562Y24437D01*
G01X2712Y24441D01*
G01X2860Y24459D01*
G01X3006Y24493D01*
G01X3148Y24540D01*
G01X3284Y24602D01*
G01X3414Y24677D01*
G01X3535Y24764D01*
G01X3648Y24863D01*
G01X3749Y24973D01*
G01X3840Y25092D01*
G01X3918Y25220D01*
G01X3983Y25354D01*
G01X4034Y25495D01*
G01X4071Y25640D01*
G01X4093Y25788D01*
G01X4101Y25938D01*
G01X4093Y26087D01*
G01X4071Y26235D01*
G01X4034Y26380D01*
G01X3983Y26521D01*
G01X3918Y26655D01*
G01X3840Y26783D01*
G01X3749Y26902D01*
G01X3648Y27012D01*
G01X3535Y27111D01*
G01X3414Y27198D01*
G01X3284Y27273D01*
G01X3148Y27335D01*
G01X3006Y27382D01*
G01X2860Y27416D01*
G01X2712Y27434D01*
G01X2562Y27438D01*
G01X2413Y27427D01*
G01X2265Y27401D01*
G01X2121Y27360D01*
G01X1982Y27306D01*
G01X1849Y27237D01*
G01X1723Y27156D01*
G01X1606Y27063D01*
G01X1499Y26958D01*
G01X1403Y26844D01*
G01X1319Y26720D01*
G01X1247Y26589D01*
G01X1189Y26451D01*
G01X1145Y26308D01*
G01X1115Y26161D01*
G01X1100Y26012D01*
G01X1100Y25863D01*
G01X1115Y25714D01*
G01X1145Y25567D01*
G01X1189Y25424D01*
G01X1247Y25286D01*
G01X1319Y25155D01*
G01X1403Y25031D01*
G01X1499Y24917D01*
G01X1606Y24812D01*
G01X1723Y24719D01*
G01X1849Y24638D01*
G01X1982Y24569D01*
G01X2121Y24515D01*
G01X2265Y24474D01*
G01X2413Y24448D01*
G37*
G36*
G01X25613Y24418D02*
G01X25762Y24407D01*
G01X25912Y24411D01*
G01X26060Y24429D01*
G01X26206Y24463D01*
G01X26348Y24510D01*
G01X26484Y24572D01*
G01X26614Y24647D01*
G01X26735Y24734D01*
G01X26848Y24833D01*
G01X26949Y24943D01*
G01X27040Y25062D01*
G01X27118Y25190D01*
G01X27183Y25324D01*
G01X27234Y25465D01*
G01X27271Y25610D01*
G01X27293Y25758D01*
G01X27301Y25907D01*
G01X27293Y26057D01*
G01X27271Y26205D01*
G01X27234Y26350D01*
G01X27183Y26491D01*
G01X27118Y26625D01*
G01X27040Y26753D01*
G01X26949Y26872D01*
G01X26848Y26982D01*
G01X26735Y27081D01*
G01X26614Y27168D01*
G01X26484Y27243D01*
G01X26348Y27305D01*
G01X26206Y27352D01*
G01X26060Y27386D01*
G01X25912Y27404D01*
G01X25762Y27408D01*
G01X25613Y27397D01*
G01X25465Y27371D01*
G01X25321Y27330D01*
G01X25182Y27276D01*
G01X25049Y27207D01*
G01X24923Y27126D01*
G01X24806Y27033D01*
G01X24699Y26928D01*
G01X24603Y26814D01*
G01X24519Y26690D01*
G01X24447Y26559D01*
G01X24389Y26421D01*
G01X24345Y26278D01*
G01X24315Y26131D01*
G01X24300Y25982D01*
G01X24300Y25833D01*
G01X24315Y25684D01*
G01X24345Y25537D01*
G01X24389Y25394D01*
G01X24447Y25256D01*
G01X24519Y25125D01*
G01X24603Y25001D01*
G01X24699Y24887D01*
G01X24806Y24782D01*
G01X24923Y24689D01*
G01X25049Y24608D01*
G01X25182Y24539D01*
G01X25321Y24485D01*
G01X25465Y24444D01*
G01X25613Y24418D01*
G37*
G36*
G01X8272Y19072D02*
G01X8294Y19071D01*
G01X8316Y19071D01*
G01X8338Y19074D01*
G01X8360Y19079D01*
G01X8381Y19086D01*
G01X8401Y19095D01*
G01X8420Y19106D01*
G01X8439Y19119D01*
G01X8455Y19134D01*
G01X8580Y19134D01*
G01X8585Y19134D01*
G01X8590Y19134D01*
G01X8596Y19134D01*
G01X8601Y19135D01*
G01X8607Y19136D01*
G01X8612Y19137D01*
G01X8617Y19138D01*
G01X8623Y19139D01*
G01X8628Y19141D01*
G01X8633Y19143D01*
G01X8638Y19145D01*
G01X8643Y19147D01*
G01X8648Y19149D01*
G01X8653Y19151D01*
G01X8658Y19154D01*
G01X8663Y19157D01*
G01X8667Y19160D01*
G01X8672Y19163D01*
G01X8676Y19166D01*
G01X8680Y19169D01*
G01X8685Y19173D01*
G01X8689Y19177D01*
G01X8693Y19180D01*
G01X8973Y19461D01*
G01X8986Y19461D01*
G01X9008Y19464D01*
G01X9030Y19469D01*
G01X9051Y19476D01*
G01X9071Y19485D01*
G01X9090Y19496D01*
G01X9109Y19509D01*
G01X9125Y19524D01*
G01X9140Y19540D01*
G01X9154Y19558D01*
G01X9165Y19577D01*
G01X9175Y19597D01*
G01X9183Y19618D01*
G01X9188Y19639D01*
G01X9191Y19661D01*
G01X9192Y19684D01*
G01X9191Y19706D01*
G01X9188Y19728D01*
G01X9183Y19749D01*
G01X9175Y19770D01*
G01X9165Y19790D01*
G01X9154Y19809D01*
G01X9140Y19827D01*
G01X9125Y19843D01*
G01X9109Y19858D01*
G01X9090Y19871D01*
G01X9071Y19882D01*
G01X9051Y19891D01*
G01X9030Y19898D01*
G01X9008Y19903D01*
G01X8986Y19906D01*
G01X8964Y19906D01*
G01X8942Y19905D01*
G01X8920Y19901D01*
G01X8898Y19895D01*
G01X8878Y19887D01*
G01X8858Y19877D01*
G01X8839Y19865D01*
G01X8822Y19851D01*
G01X8806Y19835D01*
G01X8792Y19818D01*
G01X8779Y19800D01*
G01X8769Y19780D01*
G01X8760Y19760D01*
G01X8753Y19739D01*
G01X8749Y19717D01*
G01X8747Y19695D01*
G01X8747Y19687D01*
G01X8513Y19453D01*
G01X8455Y19453D01*
G01X8439Y19468D01*
G01X8420Y19481D01*
G01X8401Y19492D01*
G01X8381Y19501D01*
G01X8360Y19508D01*
G01X8338Y19513D01*
G01X8316Y19516D01*
G01X8294Y19516D01*
G01X8272Y19515D01*
G01X8250Y19511D01*
G01X8228Y19505D01*
G01X8208Y19497D01*
G01X8188Y19487D01*
G01X8169Y19475D01*
G01X8152Y19461D01*
G01X8136Y19445D01*
G01X8122Y19428D01*
G01X8109Y19410D01*
G01X8099Y19390D01*
G01X8090Y19370D01*
G01X8083Y19349D01*
G01X8079Y19327D01*
G01X8077Y19305D01*
G01X8077Y19282D01*
G01X8079Y19260D01*
G01X8083Y19238D01*
G01X8090Y19217D01*
G01X8099Y19197D01*
G01X8109Y19177D01*
G01X8122Y19159D01*
G01X8136Y19142D01*
G01X8152Y19126D01*
G01X8169Y19112D01*
G01X8188Y19100D01*
G01X8208Y19090D01*
G01X8228Y19082D01*
G01X8250Y19076D01*
G01X8272Y19072D01*
G37*
G36*
G01X14755Y8578D02*
G01X14755Y8313D01*
G01X14919Y8313D01*
G01X14924Y8314D01*
G01X14928Y8314D01*
G01X14932Y8314D01*
G01X14936Y8315D01*
G01X14940Y8316D01*
G01X14944Y8317D01*
G01X14948Y8318D01*
G01X14952Y8319D01*
G01X14956Y8320D01*
G01X14960Y8322D01*
G01X14963Y8324D01*
G01X14967Y8326D01*
G01X14971Y8328D01*
G01X14974Y8330D01*
G01X14978Y8332D01*
G01X14981Y8335D01*
G01X14984Y8337D01*
G01X14987Y8340D01*
G01X14990Y8343D01*
G01X14993Y8346D01*
G01X14996Y8349D01*
G01X14998Y8352D01*
G01X15001Y8355D01*
G01X15003Y8359D01*
G01X15005Y8362D01*
G01X15007Y8366D01*
G01X15009Y8370D01*
G01X15011Y8373D01*
G01X15013Y8377D01*
G01X15014Y8381D01*
G01X15015Y8385D01*
G01X15016Y8389D01*
G01X15017Y8393D01*
G01X15018Y8397D01*
G01X15019Y8401D01*
G01X15019Y8405D01*
G01X15019Y8409D01*
G01X15019Y8413D01*
G01X15019Y8578D01*
G01X14755Y8578D01*
G37*
G36*
G01X13475Y8314D02*
G01X13480Y8313D01*
G01X14139Y8313D01*
G01X14144Y8314D01*
G01X14148Y8314D01*
G01X14152Y8314D01*
G01X14156Y8315D01*
G01X14160Y8316D01*
G01X14164Y8317D01*
G01X14168Y8318D01*
G01X14172Y8319D01*
G01X14176Y8320D01*
G01X14180Y8322D01*
G01X14183Y8324D01*
G01X14187Y8326D01*
G01X14191Y8328D01*
G01X14194Y8330D01*
G01X14198Y8332D01*
G01X14200Y8334D01*
G01X14201Y8332D01*
G01X14205Y8330D01*
G01X14208Y8328D01*
G01X14212Y8326D01*
G01X14216Y8324D01*
G01X14219Y8322D01*
G01X14223Y8320D01*
G01X14227Y8319D01*
G01X14231Y8318D01*
G01X14235Y8317D01*
G01X14239Y8316D01*
G01X14243Y8315D01*
G01X14247Y8314D01*
G01X14251Y8314D01*
G01X14255Y8314D01*
G01X14260Y8313D01*
G01X14425Y8313D01*
G01X14425Y8578D01*
G01X14239Y8578D01*
G01X14239Y8909D01*
G01X14425Y8909D01*
G01X14425Y9174D01*
G01X14260Y9174D01*
G01X14255Y9173D01*
G01X14251Y9173D01*
G01X14247Y9173D01*
G01X14243Y9172D01*
G01X14239Y9171D01*
G01X14235Y9170D01*
G01X14231Y9169D01*
G01X14227Y9168D01*
G01X14223Y9167D01*
G01X14219Y9165D01*
G01X14216Y9163D01*
G01X14212Y9161D01*
G01X14208Y9159D01*
G01X14205Y9157D01*
G01X14201Y9155D01*
G01X14200Y9153D01*
G01X14198Y9155D01*
G01X14194Y9157D01*
G01X14191Y9159D01*
G01X14187Y9161D01*
G01X14183Y9163D01*
G01X14180Y9165D01*
G01X14176Y9167D01*
G01X14172Y9168D01*
G01X14168Y9169D01*
G01X14164Y9170D01*
G01X14160Y9171D01*
G01X14156Y9172D01*
G01X14152Y9173D01*
G01X14148Y9173D01*
G01X14144Y9173D01*
G01X14139Y9174D01*
G01X13480Y9174D01*
G01X13475Y9173D01*
G01X13471Y9173D01*
G01X13467Y9173D01*
G01X13463Y9172D01*
G01X13459Y9171D01*
G01X13455Y9170D01*
G01X13451Y9169D01*
G01X13447Y9168D01*
G01X13443Y9167D01*
G01X13439Y9165D01*
G01X13436Y9163D01*
G01X13432Y9161D01*
G01X13428Y9159D01*
G01X13425Y9157D01*
G01X13421Y9155D01*
G01X13418Y9152D01*
G01X13415Y9150D01*
G01X13412Y9147D01*
G01X13409Y9144D01*
G01X13406Y9141D01*
G01X13403Y9138D01*
G01X13401Y9135D01*
G01X13398Y9132D01*
G01X13396Y9128D01*
G01X13394Y9125D01*
G01X13392Y9121D01*
G01X13390Y9117D01*
G01X13388Y9114D01*
G01X13386Y9110D01*
G01X13385Y9106D01*
G01X13384Y9102D01*
G01X13383Y9098D01*
G01X13382Y9094D01*
G01X13381Y9090D01*
G01X13380Y9086D01*
G01X13380Y9082D01*
G01X13380Y9078D01*
G01X13380Y9074D01*
G01X13380Y8413D01*
G01X13380Y8409D01*
G01X13380Y8405D01*
G01X13380Y8401D01*
G01X13381Y8397D01*
G01X13382Y8393D01*
G01X13383Y8389D01*
G01X13384Y8385D01*
G01X13385Y8381D01*
G01X13386Y8377D01*
G01X13388Y8373D01*
G01X13390Y8370D01*
G01X13392Y8366D01*
G01X13394Y8362D01*
G01X13396Y8359D01*
G01X13398Y8355D01*
G01X13401Y8352D01*
G01X13403Y8349D01*
G01X13406Y8346D01*
G01X13409Y8343D01*
G01X13412Y8340D01*
G01X13415Y8337D01*
G01X13418Y8335D01*
G01X13421Y8332D01*
G01X13425Y8330D01*
G01X13428Y8328D01*
G01X13432Y8326D01*
G01X13436Y8324D01*
G01X13439Y8322D01*
G01X13443Y8320D01*
G01X13447Y8319D01*
G01X13451Y8318D01*
G01X13455Y8317D01*
G01X13459Y8316D01*
G01X13463Y8315D01*
G01X13467Y8314D01*
G01X13471Y8314D01*
G01X13475Y8314D01*
G37*
G36*
G01X10372Y11772D02*
G01X10394Y11771D01*
G01X10416Y11771D01*
G01X10438Y11774D01*
G01X10460Y11779D01*
G01X10481Y11786D01*
G01X10501Y11795D01*
G01X10520Y11806D01*
G01X10539Y11819D01*
G01X10555Y11834D01*
G01X10570Y11850D01*
G01X10584Y11868D01*
G01X10595Y11887D01*
G01X10605Y11907D01*
G01X10613Y11928D01*
G01X10618Y11949D01*
G01X10621Y11971D01*
G01X10622Y11994D01*
G01X10621Y12016D01*
G01X10618Y12038D01*
G01X10613Y12059D01*
G01X10610Y12068D01*
G01X10610Y13344D01*
G01X10609Y13350D01*
G01X10609Y13356D01*
G01X10609Y13362D01*
G01X10608Y13368D01*
G01X10607Y13374D01*
G01X10606Y13380D01*
G01X10605Y13386D01*
G01X10604Y13392D01*
G01X10602Y13398D01*
G01X10601Y13404D01*
G01X10599Y13410D01*
G01X10597Y13415D01*
G01X10595Y13421D01*
G01X10592Y13427D01*
G01X10590Y13432D01*
G01X10587Y13438D01*
G01X10584Y13443D01*
G01X10581Y13449D01*
G01X10578Y13454D01*
G01X10575Y13459D01*
G01X10572Y13464D01*
G01X10568Y13469D01*
G01X10564Y13474D01*
G01X10560Y13478D01*
G01X10556Y13483D01*
G01X10552Y13488D01*
G01X10548Y13492D01*
G01X10398Y13642D01*
G01X10394Y13646D01*
G01X10389Y13650D01*
G01X10384Y13654D01*
G01X10380Y13658D01*
G01X10375Y13662D01*
G01X10370Y13666D01*
G01X10365Y13669D01*
G01X10360Y13672D01*
G01X10355Y13675D01*
G01X10349Y13678D01*
G01X10344Y13681D01*
G01X10338Y13684D01*
G01X10333Y13686D01*
G01X10327Y13689D01*
G01X10321Y13691D01*
G01X10316Y13693D01*
G01X10310Y13695D01*
G01X10304Y13696D01*
G01X10298Y13698D01*
G01X10292Y13699D01*
G01X10286Y13700D01*
G01X10280Y13701D01*
G01X10274Y13702D01*
G01X10268Y13703D01*
G01X10262Y13703D01*
G01X10256Y13703D01*
G01X10250Y13703D01*
G01X9036Y13703D01*
G01X9009Y13730D01*
G01X9009Y16207D01*
G01X9384Y16581D01*
G01X9400Y16576D01*
G01X9422Y16572D01*
G01X9444Y16571D01*
G01X9466Y16571D01*
G01X9488Y16574D01*
G01X9510Y16579D01*
G01X9531Y16586D01*
G01X9551Y16595D01*
G01X9570Y16606D01*
G01X9589Y16619D01*
G01X9605Y16634D01*
G01X9620Y16650D01*
G01X9634Y16668D01*
G01X9645Y16687D01*
G01X9655Y16707D01*
G01X9663Y16728D01*
G01X9668Y16749D01*
G01X9671Y16771D01*
G01X9672Y16794D01*
G01X9671Y16816D01*
G01X9668Y16838D01*
G01X9663Y16859D01*
G01X9655Y16880D01*
G01X9645Y16900D01*
G01X9634Y16919D01*
G01X9620Y16937D01*
G01X9605Y16953D01*
G01X9589Y16968D01*
G01X9570Y16981D01*
G01X9551Y16992D01*
G01X9531Y17001D01*
G01X9510Y17008D01*
G01X9488Y17013D01*
G01X9466Y17016D01*
G01X9444Y17016D01*
G01X9422Y17015D01*
G01X9400Y17011D01*
G01X9378Y17005D01*
G01X9375Y17003D01*
G01X9300Y17003D01*
G01X9293Y17003D01*
G01X9287Y17003D01*
G01X9281Y17003D01*
G01X9275Y17002D01*
G01X9269Y17001D01*
G01X9263Y17000D01*
G01X9257Y16999D01*
G01X9251Y16998D01*
G01X9245Y16996D01*
G01X9239Y16995D01*
G01X9233Y16993D01*
G01X9228Y16991D01*
G01X9222Y16989D01*
G01X9216Y16986D01*
G01X9211Y16984D01*
G01X9205Y16981D01*
G01X9200Y16978D01*
G01X9194Y16975D01*
G01X9189Y16972D01*
G01X9184Y16969D01*
G01X9179Y16966D01*
G01X9174Y16962D01*
G01X9169Y16958D01*
G01X9165Y16954D01*
G01X9160Y16950D01*
G01X9155Y16946D01*
G01X9151Y16942D01*
G01X8651Y16442D01*
G01X8647Y16438D01*
G01X8643Y16433D01*
G01X8639Y16428D01*
G01X8635Y16424D01*
G01X8631Y16419D01*
G01X8627Y16414D01*
G01X8624Y16409D01*
G01X8621Y16404D01*
G01X8618Y16399D01*
G01X8615Y16393D01*
G01X8612Y16388D01*
G01X8609Y16382D01*
G01X8607Y16377D01*
G01X8604Y16371D01*
G01X8602Y16365D01*
G01X8600Y16360D01*
G01X8598Y16354D01*
G01X8597Y16348D01*
G01X8595Y16342D01*
G01X8594Y16336D01*
G01X8593Y16330D01*
G01X8592Y16324D01*
G01X8591Y16318D01*
G01X8590Y16312D01*
G01X8590Y16306D01*
G01X8590Y16300D01*
G01X8590Y16294D01*
G01X8590Y13644D01*
G01X8590Y13637D01*
G01X8590Y13631D01*
G01X8590Y13625D01*
G01X8591Y13619D01*
G01X8592Y13613D01*
G01X8593Y13607D01*
G01X8594Y13601D01*
G01X8595Y13595D01*
G01X8597Y13589D01*
G01X8598Y13583D01*
G01X8600Y13577D01*
G01X8602Y13572D01*
G01X8604Y13566D01*
G01X8607Y13560D01*
G01X8609Y13555D01*
G01X8612Y13549D01*
G01X8615Y13544D01*
G01X8618Y13538D01*
G01X8621Y13533D01*
G01X8624Y13528D01*
G01X8627Y13523D01*
G01X8631Y13518D01*
G01X8635Y13513D01*
G01X8639Y13509D01*
G01X8643Y13504D01*
G01X8647Y13499D01*
G01X8651Y13495D01*
G01X8801Y13345D01*
G01X8805Y13341D01*
G01X8810Y13337D01*
G01X8815Y13333D01*
G01X8819Y13329D01*
G01X8824Y13325D01*
G01X8829Y13321D01*
G01X8834Y13318D01*
G01X8839Y13315D01*
G01X8844Y13312D01*
G01X8850Y13309D01*
G01X8855Y13306D01*
G01X8861Y13303D01*
G01X8866Y13301D01*
G01X8872Y13298D01*
G01X8878Y13296D01*
G01X8883Y13294D01*
G01X8889Y13292D01*
G01X8895Y13291D01*
G01X8901Y13289D01*
G01X8907Y13288D01*
G01X8913Y13287D01*
G01X8919Y13286D01*
G01X8925Y13285D01*
G01X8931Y13284D01*
G01X8937Y13284D01*
G01X8943Y13284D01*
G01X8950Y13284D01*
G01X10163Y13284D01*
G01X10189Y13257D01*
G01X10189Y12068D01*
G01X10183Y12049D01*
G01X10179Y12027D01*
G01X10177Y12005D01*
G01X10177Y11982D01*
G01X10179Y11960D01*
G01X10183Y11938D01*
G01X10190Y11917D01*
G01X10199Y11897D01*
G01X10209Y11877D01*
G01X10222Y11859D01*
G01X10236Y11842D01*
G01X10252Y11826D01*
G01X10269Y11812D01*
G01X10288Y11800D01*
G01X10308Y11790D01*
G01X10328Y11782D01*
G01X10350Y11776D01*
G01X10372Y11772D01*
G37*
G36*
G01X15722Y8472D02*
G01X15744Y8471D01*
G01X15766Y8471D01*
G01X15788Y8474D01*
G01X15810Y8479D01*
G01X15831Y8486D01*
G01X15851Y8495D01*
G01X15870Y8506D01*
G01X15889Y8519D01*
G01X15905Y8534D01*
G01X15920Y8550D01*
G01X15934Y8568D01*
G01X15945Y8587D01*
G01X15955Y8607D01*
G01X15963Y8628D01*
G01X15968Y8649D01*
G01X15971Y8671D01*
G01X15972Y8694D01*
G01X15971Y8716D01*
G01X15968Y8738D01*
G01X15963Y8759D01*
G01X15955Y8780D01*
G01X15945Y8800D01*
G01X15939Y8810D01*
G01X15939Y9544D01*
G01X15939Y9549D01*
G01X15939Y9555D01*
G01X15939Y9561D01*
G01X15938Y9566D01*
G01X15937Y9572D01*
G01X15936Y9578D01*
G01X15935Y9583D01*
G01X15934Y9589D01*
G01X15933Y9595D01*
G01X15931Y9600D01*
G01X15929Y9605D01*
G01X15927Y9611D01*
G01X15925Y9616D01*
G01X15923Y9621D01*
G01X15920Y9627D01*
G01X15918Y9632D01*
G01X15915Y9637D01*
G01X15912Y9642D01*
G01X15909Y9647D01*
G01X15906Y9651D01*
G01X15903Y9656D01*
G01X15899Y9661D01*
G01X15895Y9665D01*
G01X15892Y9669D01*
G01X15888Y9674D01*
G01X15884Y9678D01*
G01X14658Y10903D01*
G01X14671Y10903D01*
G01X16460Y9115D01*
G01X16460Y8960D01*
G01X16459Y8960D01*
G01X16449Y8940D01*
G01X16440Y8920D01*
G01X16433Y8899D01*
G01X16429Y8877D01*
G01X16427Y8855D01*
G01X16427Y8832D01*
G01X16429Y8810D01*
G01X16433Y8788D01*
G01X16440Y8767D01*
G01X16449Y8747D01*
G01X16459Y8727D01*
G01X16472Y8709D01*
G01X16486Y8692D01*
G01X16502Y8676D01*
G01X16519Y8662D01*
G01X16538Y8650D01*
G01X16558Y8640D01*
G01X16578Y8632D01*
G01X16600Y8626D01*
G01X16622Y8622D01*
G01X16644Y8621D01*
G01X16666Y8621D01*
G01X16688Y8624D01*
G01X16710Y8629D01*
G01X16731Y8636D01*
G01X16751Y8645D01*
G01X16770Y8656D01*
G01X16789Y8669D01*
G01X16805Y8684D01*
G01X16820Y8700D01*
G01X16834Y8718D01*
G01X16845Y8737D01*
G01X16855Y8757D01*
G01X16863Y8778D01*
G01X16868Y8799D01*
G01X16871Y8821D01*
G01X16872Y8844D01*
G01X16871Y8866D01*
G01X16868Y8888D01*
G01X16863Y8909D01*
G01X16855Y8930D01*
G01X16845Y8950D01*
G01X16839Y8960D01*
G01X16839Y9194D01*
G01X16839Y9199D01*
G01X16839Y9205D01*
G01X16839Y9211D01*
G01X16838Y9216D01*
G01X16837Y9222D01*
G01X16836Y9228D01*
G01X16835Y9233D01*
G01X16834Y9239D01*
G01X16833Y9245D01*
G01X16831Y9250D01*
G01X16829Y9255D01*
G01X16827Y9261D01*
G01X16825Y9266D01*
G01X16823Y9271D01*
G01X16820Y9277D01*
G01X16818Y9282D01*
G01X16815Y9287D01*
G01X16812Y9292D01*
G01X16809Y9297D01*
G01X16806Y9301D01*
G01X16803Y9306D01*
G01X16799Y9311D01*
G01X16795Y9315D01*
G01X16792Y9319D01*
G01X16788Y9324D01*
G01X16784Y9328D01*
G01X14884Y11228D01*
G01X14880Y11232D01*
G01X14875Y11236D01*
G01X14871Y11239D01*
G01X14867Y11243D01*
G01X14862Y11247D01*
G01X14857Y11250D01*
G01X14853Y11253D01*
G01X14848Y11256D01*
G01X14843Y11259D01*
G01X14838Y11262D01*
G01X14833Y11264D01*
G01X14827Y11267D01*
G01X14822Y11269D01*
G01X14817Y11271D01*
G01X14811Y11273D01*
G01X14806Y11275D01*
G01X14801Y11277D01*
G01X14795Y11278D01*
G01X14789Y11279D01*
G01X14784Y11280D01*
G01X14778Y11281D01*
G01X14772Y11282D01*
G01X14767Y11283D01*
G01X14761Y11283D01*
G01X14755Y11283D01*
G01X14750Y11284D01*
G01X14120Y11284D01*
G01X14130Y11295D01*
G01X14144Y11313D01*
G01X14155Y11332D01*
G01X14165Y11352D01*
G01X14173Y11373D01*
G01X14178Y11394D01*
G01X14181Y11416D01*
G01X14182Y11438D01*
G01X14181Y11461D01*
G01X14178Y11483D01*
G01X14173Y11504D01*
G01X14165Y11525D01*
G01X14155Y11545D01*
G01X14144Y11564D01*
G01X14130Y11582D01*
G01X14115Y11598D01*
G01X14099Y11613D01*
G01X14080Y11626D01*
G01X14061Y11637D01*
G01X14041Y11646D01*
G01X14020Y11653D01*
G01X13998Y11658D01*
G01X13976Y11661D01*
G01X13954Y11661D01*
G01X13932Y11660D01*
G01X13910Y11656D01*
G01X13888Y11650D01*
G01X13868Y11642D01*
G01X13848Y11632D01*
G01X13843Y11628D01*
G01X12773Y11628D01*
G01X12756Y11636D01*
G01X12735Y11643D01*
G01X12713Y11648D01*
G01X12691Y11651D01*
G01X12669Y11651D01*
G01X12647Y11650D01*
G01X12625Y11646D01*
G01X12603Y11640D01*
G01X12583Y11632D01*
G01X12563Y11622D01*
G01X12544Y11610D01*
G01X12527Y11596D01*
G01X12511Y11580D01*
G01X12497Y11563D01*
G01X12484Y11545D01*
G01X12474Y11525D01*
G01X12465Y11505D01*
G01X12458Y11484D01*
G01X12454Y11462D01*
G01X12452Y11440D01*
G01X12452Y11417D01*
G01X12454Y11395D01*
G01X12458Y11373D01*
G01X12465Y11352D01*
G01X12474Y11332D01*
G01X12484Y11312D01*
G01X12497Y11294D01*
G01X12505Y11284D01*
G01X12167Y11284D01*
G01X12155Y11296D01*
G01X12139Y11311D01*
G01X12120Y11324D01*
G01X12101Y11335D01*
G01X12081Y11344D01*
G01X12060Y11351D01*
G01X12038Y11356D01*
G01X12016Y11359D01*
G01X11994Y11359D01*
G01X11972Y11358D01*
G01X11950Y11354D01*
G01X11928Y11348D01*
G01X11908Y11340D01*
G01X11888Y11330D01*
G01X11869Y11318D01*
G01X11852Y11304D01*
G01X11836Y11288D01*
G01X11822Y11271D01*
G01X11809Y11253D01*
G01X11799Y11233D01*
G01X11790Y11213D01*
G01X11783Y11192D01*
G01X11779Y11170D01*
G01X11777Y11148D01*
G01X11777Y11125D01*
G01X11779Y11103D01*
G01X11783Y11081D01*
G01X11790Y11060D01*
G01X11799Y11040D01*
G01X11809Y11020D01*
G01X11822Y11002D01*
G01X11836Y10985D01*
G01X11837Y10984D01*
G01X11828Y10984D01*
G01X11639Y11172D01*
G01X11639Y12977D01*
G01X11645Y12987D01*
G01X11655Y13007D01*
G01X11663Y13028D01*
G01X11668Y13049D01*
G01X11671Y13071D01*
G01X11672Y13094D01*
G01X11671Y13116D01*
G01X11668Y13138D01*
G01X11663Y13159D01*
G01X11655Y13180D01*
G01X11645Y13200D01*
G01X11634Y13219D01*
G01X11620Y13237D01*
G01X11605Y13253D01*
G01X11589Y13268D01*
G01X11570Y13281D01*
G01X11551Y13292D01*
G01X11531Y13301D01*
G01X11510Y13308D01*
G01X11488Y13313D01*
G01X11466Y13316D01*
G01X11444Y13316D01*
G01X11422Y13315D01*
G01X11400Y13311D01*
G01X11378Y13305D01*
G01X11358Y13297D01*
G01X11338Y13287D01*
G01X11319Y13275D01*
G01X11302Y13261D01*
G01X11286Y13245D01*
G01X11272Y13228D01*
G01X11259Y13210D01*
G01X11249Y13190D01*
G01X11240Y13170D01*
G01X11233Y13149D01*
G01X11229Y13127D01*
G01X11227Y13105D01*
G01X11227Y13082D01*
G01X11229Y13060D01*
G01X11233Y13038D01*
G01X11240Y13017D01*
G01X11249Y12997D01*
G01X11259Y12977D01*
G01X11260Y12977D01*
G01X11260Y11094D01*
G01X11260Y11088D01*
G01X11260Y11082D01*
G01X11260Y11076D01*
G01X11261Y11071D01*
G01X11262Y11065D01*
G01X11263Y11059D01*
G01X11264Y11054D01*
G01X11265Y11048D01*
G01X11266Y11042D01*
G01X11268Y11037D01*
G01X11270Y11032D01*
G01X11272Y11026D01*
G01X11274Y11021D01*
G01X11276Y11016D01*
G01X11279Y11010D01*
G01X11281Y11005D01*
G01X11284Y11000D01*
G01X11287Y10995D01*
G01X11290Y10990D01*
G01X11293Y10986D01*
G01X11296Y10981D01*
G01X11300Y10976D01*
G01X11304Y10972D01*
G01X11307Y10968D01*
G01X11311Y10963D01*
G01X11315Y10959D01*
G01X11615Y10659D01*
G01X11619Y10655D01*
G01X11624Y10651D01*
G01X11628Y10648D01*
G01X11632Y10644D01*
G01X11637Y10640D01*
G01X11642Y10637D01*
G01X11646Y10634D01*
G01X11651Y10631D01*
G01X11656Y10628D01*
G01X11661Y10625D01*
G01X11666Y10623D01*
G01X11672Y10620D01*
G01X11677Y10618D01*
G01X11682Y10616D01*
G01X11688Y10614D01*
G01X11693Y10612D01*
G01X11698Y10610D01*
G01X11704Y10609D01*
G01X11710Y10608D01*
G01X11715Y10607D01*
G01X11721Y10606D01*
G01X11727Y10605D01*
G01X11732Y10604D01*
G01X11738Y10604D01*
G01X11744Y10604D01*
G01X11750Y10603D01*
G01X11947Y10603D01*
G01X11946Y10603D01*
G01X11942Y10600D01*
G01X11937Y10597D01*
G01X11932Y10593D01*
G01X11928Y10589D01*
G01X11924Y10586D01*
G01X11919Y10582D01*
G01X11915Y10578D01*
G01X11665Y10328D01*
G01X11661Y10324D01*
G01X11657Y10319D01*
G01X11654Y10315D01*
G01X11650Y10311D01*
G01X11646Y10306D01*
G01X11643Y10301D01*
G01X11640Y10297D01*
G01X11637Y10292D01*
G01X11634Y10287D01*
G01X11631Y10282D01*
G01X11629Y10277D01*
G01X11626Y10271D01*
G01X11624Y10266D01*
G01X11622Y10261D01*
G01X11620Y10255D01*
G01X11618Y10250D01*
G01X11616Y10245D01*
G01X11615Y10239D01*
G01X11614Y10233D01*
G01X11613Y10228D01*
G01X11612Y10222D01*
G01X11611Y10216D01*
G01X11610Y10211D01*
G01X11610Y10205D01*
G01X11610Y10199D01*
G01X11610Y10194D01*
G01X11610Y9072D01*
G01X11471Y8934D01*
G01X9916Y8934D01*
G01X9901Y8942D01*
G01X9881Y8951D01*
G01X9860Y8958D01*
G01X9838Y8963D01*
G01X9816Y8966D01*
G01X9794Y8966D01*
G01X9772Y8965D01*
G01X9750Y8961D01*
G01X9728Y8955D01*
G01X9708Y8947D01*
G01X9688Y8937D01*
G01X9669Y8925D01*
G01X9652Y8911D01*
G01X9636Y8895D01*
G01X9622Y8878D01*
G01X9609Y8860D01*
G01X9599Y8840D01*
G01X9590Y8820D01*
G01X9583Y8799D01*
G01X9579Y8777D01*
G01X9577Y8755D01*
G01X9577Y8732D01*
G01X9579Y8710D01*
G01X9583Y8688D01*
G01X9590Y8667D01*
G01X9599Y8647D01*
G01X9609Y8627D01*
G01X9622Y8609D01*
G01X9636Y8592D01*
G01X9652Y8576D01*
G01X9669Y8562D01*
G01X9688Y8550D01*
G01X9708Y8540D01*
G01X9728Y8532D01*
G01X9750Y8526D01*
G01X9772Y8522D01*
G01X9794Y8521D01*
G01X9816Y8521D01*
G01X9838Y8524D01*
G01X9860Y8529D01*
G01X9881Y8536D01*
G01X9901Y8545D01*
G01X9916Y8553D01*
G01X11550Y8553D01*
G01X11555Y8554D01*
G01X11561Y8554D01*
G01X11567Y8554D01*
G01X11572Y8555D01*
G01X11578Y8556D01*
G01X11584Y8557D01*
G01X11589Y8558D01*
G01X11595Y8559D01*
G01X11601Y8560D01*
G01X11606Y8562D01*
G01X11611Y8564D01*
G01X11617Y8566D01*
G01X11622Y8568D01*
G01X11627Y8570D01*
G01X11633Y8573D01*
G01X11638Y8575D01*
G01X11643Y8578D01*
G01X11648Y8581D01*
G01X11653Y8584D01*
G01X11657Y8587D01*
G01X11662Y8590D01*
G01X11667Y8594D01*
G01X11671Y8598D01*
G01X11675Y8601D01*
G01X11680Y8605D01*
G01X11684Y8609D01*
G01X11934Y8859D01*
G01X11938Y8863D01*
G01X11942Y8868D01*
G01X11945Y8872D01*
G01X11949Y8876D01*
G01X11953Y8881D01*
G01X11956Y8886D01*
G01X11959Y8890D01*
G01X11962Y8895D01*
G01X11965Y8900D01*
G01X11968Y8905D01*
G01X11970Y8910D01*
G01X11973Y8916D01*
G01X11975Y8921D01*
G01X11977Y8926D01*
G01X11979Y8932D01*
G01X11981Y8937D01*
G01X11983Y8942D01*
G01X11984Y8948D01*
G01X11985Y8954D01*
G01X11986Y8959D01*
G01X11987Y8965D01*
G01X11988Y8971D01*
G01X11989Y8976D01*
G01X11989Y8982D01*
G01X11989Y8988D01*
G01X11989Y8994D01*
G01X11989Y10115D01*
G01X12128Y10253D01*
G01X13433Y10253D01*
G01X13438Y10250D01*
G01X13458Y10240D01*
G01X13478Y10232D01*
G01X13500Y10226D01*
G01X13522Y10222D01*
G01X13544Y10221D01*
G01X13566Y10221D01*
G01X13588Y10224D01*
G01X13610Y10229D01*
G01X13631Y10236D01*
G01X13651Y10245D01*
G01X13670Y10256D01*
G01X13689Y10269D01*
G01X13705Y10284D01*
G01X13720Y10300D01*
G01X13734Y10318D01*
G01X13745Y10337D01*
G01X13755Y10357D01*
G01X13763Y10378D01*
G01X13768Y10399D01*
G01X13771Y10421D01*
G01X13772Y10444D01*
G01X13771Y10466D01*
G01X13768Y10488D01*
G01X13763Y10509D01*
G01X13755Y10530D01*
G01X13745Y10550D01*
G01X13734Y10569D01*
G01X13720Y10587D01*
G01X13705Y10603D01*
G01X13705Y10603D01*
G01X14421Y10603D01*
G01X15560Y9465D01*
G01X15560Y8810D01*
G01X15559Y8810D01*
G01X15549Y8790D01*
G01X15540Y8770D01*
G01X15533Y8749D01*
G01X15529Y8727D01*
G01X15527Y8705D01*
G01X15527Y8682D01*
G01X15529Y8660D01*
G01X15533Y8638D01*
G01X15540Y8617D01*
G01X15549Y8597D01*
G01X15559Y8577D01*
G01X15572Y8559D01*
G01X15586Y8542D01*
G01X15602Y8526D01*
G01X15619Y8512D01*
G01X15638Y8500D01*
G01X15658Y8490D01*
G01X15678Y8482D01*
G01X15700Y8476D01*
G01X15722Y8472D01*
G37*
G36*
G01X9280Y10799D02*
G01X9300Y10797D01*
G01X9319Y10798D01*
G01X9339Y10800D01*
G01X9359Y10804D01*
G01X9377Y10811D01*
G01X9396Y10819D01*
G01X9413Y10829D01*
G01X9429Y10841D01*
G01X9444Y10854D01*
G01X9457Y10868D01*
G01X9469Y10884D01*
G01X9480Y10901D01*
G01X9488Y10919D01*
G01X9495Y10938D01*
G01X9500Y10957D01*
G01X9503Y10977D01*
G01X9504Y10997D01*
G01X9503Y11016D01*
G01X9503Y11019D01*
G01X9517Y11012D01*
G01X9536Y11004D01*
G01X9555Y10999D01*
G01X9575Y10996D01*
G01X9595Y10994D01*
G01X9614Y10995D01*
G01X9634Y10997D01*
G01X9654Y11001D01*
G01X9672Y11008D01*
G01X9691Y11016D01*
G01X9697Y11019D01*
G01X9695Y11006D01*
G01X9695Y10987D01*
G01X9697Y10967D01*
G01X9701Y10947D01*
G01X9707Y10928D01*
G01X9715Y10910D01*
G01X9724Y10892D01*
G01X9735Y10876D01*
G01X9748Y10861D01*
G01X9762Y10847D01*
G01X9778Y10835D01*
G01X9795Y10824D01*
G01X9812Y10815D01*
G01X9831Y10807D01*
G01X9850Y10802D01*
G01X9870Y10799D01*
G01X9890Y10797D01*
G01X9909Y10798D01*
G01X9929Y10800D01*
G01X9949Y10804D01*
G01X9967Y10811D01*
G01X9986Y10819D01*
G01X10003Y10829D01*
G01X10019Y10841D01*
G01X10034Y10854D01*
G01X10047Y10868D01*
G01X10059Y10884D01*
G01X10070Y10901D01*
G01X10078Y10919D01*
G01X10085Y10938D01*
G01X10090Y10957D01*
G01X10093Y10977D01*
G01X10094Y10997D01*
G01X10093Y11016D01*
G01X10090Y11036D01*
G01X10085Y11055D01*
G01X10078Y11074D01*
G01X10070Y11092D01*
G01X10059Y11109D01*
G01X10047Y11125D01*
G01X10034Y11139D01*
G01X10019Y11152D01*
G01X10003Y11164D01*
G01X9986Y11174D01*
G01X9967Y11182D01*
G01X9949Y11189D01*
G01X9929Y11193D01*
G01X9925Y11194D01*
G01X9929Y11194D01*
G01X9949Y11198D01*
G01X9967Y11205D01*
G01X9986Y11213D01*
G01X10003Y11223D01*
G01X10019Y11235D01*
G01X10034Y11248D01*
G01X10047Y11262D01*
G01X10059Y11278D01*
G01X10070Y11295D01*
G01X10078Y11313D01*
G01X10085Y11332D01*
G01X10090Y11351D01*
G01X10093Y11371D01*
G01X10094Y11390D01*
G01X10093Y11410D01*
G01X10090Y11430D01*
G01X10085Y11449D01*
G01X10078Y11468D01*
G01X10070Y11486D01*
G01X10059Y11503D01*
G01X10047Y11519D01*
G01X10034Y11533D01*
G01X10019Y11546D01*
G01X10003Y11558D01*
G01X9986Y11568D01*
G01X9967Y11576D01*
G01X9949Y11583D01*
G01X9929Y11587D01*
G01X9909Y11589D01*
G01X9890Y11590D01*
G01X9870Y11588D01*
G01X9850Y11585D01*
G01X9831Y11580D01*
G01X9812Y11572D01*
G01X9795Y11563D01*
G01X9778Y11552D01*
G01X9762Y11540D01*
G01X9748Y11526D01*
G01X9735Y11511D01*
G01X9724Y11495D01*
G01X9715Y11477D01*
G01X9707Y11459D01*
G01X9701Y11440D01*
G01X9697Y11420D01*
G01X9695Y11400D01*
G01X9695Y11381D01*
G01X9697Y11368D01*
G01X9691Y11371D01*
G01X9672Y11379D01*
G01X9654Y11386D01*
G01X9634Y11390D01*
G01X9614Y11392D01*
G01X9595Y11393D01*
G01X9575Y11391D01*
G01X9555Y11388D01*
G01X9536Y11383D01*
G01X9517Y11375D01*
G01X9503Y11368D01*
G01X9503Y11371D01*
G01X9504Y11390D01*
G01X9503Y11410D01*
G01X9500Y11430D01*
G01X9495Y11449D01*
G01X9488Y11468D01*
G01X9480Y11486D01*
G01X9469Y11503D01*
G01X9457Y11519D01*
G01X9444Y11533D01*
G01X9429Y11546D01*
G01X9413Y11558D01*
G01X9396Y11568D01*
G01X9377Y11576D01*
G01X9359Y11583D01*
G01X9339Y11587D01*
G01X9319Y11589D01*
G01X9300Y11590D01*
G01X9280Y11588D01*
G01X9260Y11585D01*
G01X9241Y11580D01*
G01X9222Y11572D01*
G01X9205Y11563D01*
G01X9188Y11552D01*
G01X9172Y11540D01*
G01X9158Y11526D01*
G01X9145Y11511D01*
G01X9134Y11495D01*
G01X9125Y11477D01*
G01X9117Y11459D01*
G01X9111Y11440D01*
G01X9107Y11420D01*
G01X9105Y11400D01*
G01X9105Y11381D01*
G01X9107Y11361D01*
G01X9111Y11341D01*
G01X9117Y11322D01*
G01X9125Y11304D01*
G01X9134Y11286D01*
G01X9145Y11270D01*
G01X9158Y11255D01*
G01X9172Y11241D01*
G01X9188Y11229D01*
G01X9205Y11218D01*
G01X9222Y11209D01*
G01X9241Y11201D01*
G01X9260Y11196D01*
G01X9274Y11194D01*
G01X9260Y11191D01*
G01X9241Y11186D01*
G01X9222Y11178D01*
G01X9205Y11169D01*
G01X9188Y11158D01*
G01X9172Y11146D01*
G01X9158Y11132D01*
G01X9145Y11117D01*
G01X9134Y11101D01*
G01X9125Y11083D01*
G01X9117Y11065D01*
G01X9111Y11046D01*
G01X9107Y11026D01*
G01X9105Y11006D01*
G01X9105Y10987D01*
G01X9107Y10967D01*
G01X9111Y10947D01*
G01X9117Y10928D01*
G01X9125Y10910D01*
G01X9134Y10892D01*
G01X9145Y10876D01*
G01X9158Y10861D01*
G01X9172Y10847D01*
G01X9188Y10835D01*
G01X9205Y10824D01*
G01X9222Y10815D01*
G01X9241Y10807D01*
G01X9260Y10802D01*
G01X9280Y10799D01*
G37*
G36*
G01X19422Y9522D02*
G01X19444Y9521D01*
G01X19466Y9521D01*
G01X19488Y9524D01*
G01X19510Y9529D01*
G01X19531Y9536D01*
G01X19551Y9545D01*
G01X19570Y9556D01*
G01X19589Y9569D01*
G01X19605Y9584D01*
G01X19620Y9600D01*
G01X19634Y9618D01*
G01X19645Y9637D01*
G01X19655Y9657D01*
G01X19663Y9678D01*
G01X19668Y9699D01*
G01X19671Y9721D01*
G01X19672Y9744D01*
G01X19671Y9766D01*
G01X19668Y9788D01*
G01X19663Y9809D01*
G01X19655Y9830D01*
G01X19645Y9850D01*
G01X19639Y9860D01*
G01X19639Y11194D01*
G01X19639Y11199D01*
G01X19639Y11205D01*
G01X19639Y11211D01*
G01X19638Y11216D01*
G01X19637Y11222D01*
G01X19636Y11228D01*
G01X19635Y11233D01*
G01X19634Y11239D01*
G01X19633Y11245D01*
G01X19631Y11250D01*
G01X19629Y11255D01*
G01X19627Y11261D01*
G01X19625Y11266D01*
G01X19623Y11271D01*
G01X19620Y11277D01*
G01X19618Y11282D01*
G01X19615Y11287D01*
G01X19612Y11292D01*
G01X19609Y11297D01*
G01X19606Y11301D01*
G01X19603Y11306D01*
G01X19599Y11311D01*
G01X19595Y11315D01*
G01X19592Y11319D01*
G01X19588Y11324D01*
G01X19584Y11328D01*
G01X19434Y11478D01*
G01X19430Y11482D01*
G01X19425Y11486D01*
G01X19421Y11489D01*
G01X19417Y11493D01*
G01X19412Y11497D01*
G01X19407Y11500D01*
G01X19403Y11503D01*
G01X19398Y11506D01*
G01X19393Y11509D01*
G01X19388Y11512D01*
G01X19383Y11514D01*
G01X19377Y11517D01*
G01X19372Y11519D01*
G01X19367Y11521D01*
G01X19361Y11523D01*
G01X19356Y11525D01*
G01X19351Y11527D01*
G01X19345Y11528D01*
G01X19339Y11529D01*
G01X19334Y11530D01*
G01X19328Y11531D01*
G01X19322Y11532D01*
G01X19317Y11533D01*
G01X19311Y11533D01*
G01X19305Y11533D01*
G01X19300Y11534D01*
G01X18573Y11534D01*
G01X19163Y12123D01*
G01X19163Y12112D01*
G01X19163Y12107D01*
G01X19163Y12094D01*
G01X19164Y12089D01*
G01X19165Y12077D01*
G01X19166Y12072D01*
G01X19167Y12059D01*
G01X19168Y12054D01*
G01X19171Y12042D01*
G01X19172Y12037D01*
G01X19175Y12025D01*
G01X19176Y12020D01*
G01X19180Y12007D01*
G01X19182Y12003D01*
G01X19186Y11991D01*
G01X19188Y11986D01*
G01X19193Y11974D01*
G01X19195Y11970D01*
G01X19200Y11958D01*
G01X19203Y11954D01*
G01X19209Y11943D01*
G01X19211Y11938D01*
G01X19218Y11928D01*
G01X19221Y11923D01*
G01X19228Y11913D01*
G01X19231Y11909D01*
G01X19239Y11899D01*
G01X19242Y11895D01*
G01X19250Y11885D01*
G01X19253Y11881D01*
G01X19262Y11872D01*
G01X19265Y11868D01*
G01X19274Y11859D01*
G01X19278Y11856D01*
G01X19288Y11847D01*
G01X19292Y11844D01*
G01X19302Y11836D01*
G01X19305Y11833D01*
G01X19316Y11826D01*
G01X19320Y11823D01*
G01X19331Y11816D01*
G01X19335Y11814D01*
G01X19346Y11807D01*
G01X19350Y11805D01*
G01X19362Y11799D01*
G01X19366Y11797D01*
G01X19378Y11792D01*
G01X19382Y11790D01*
G01X19394Y11785D01*
G01X19399Y11783D01*
G01X19411Y11779D01*
G01X19416Y11778D01*
G01X19428Y11774D01*
G01X19433Y11773D01*
G01X19445Y11770D01*
G01X19450Y11769D01*
G01X19463Y11767D01*
G01X19468Y11766D01*
G01X19480Y11765D01*
G01X19485Y11764D01*
G01X19498Y11763D01*
G01X19503Y11763D01*
G01X19516Y11763D01*
G01X19518Y11763D01*
G01X19873Y11763D01*
G01X19875Y11763D01*
G01X19888Y11763D01*
G01X19893Y11763D01*
G01X19906Y11764D01*
G01X19911Y11765D01*
G01X19923Y11766D01*
G01X19928Y11767D01*
G01X19941Y11769D01*
G01X19946Y11770D01*
G01X19958Y11773D01*
G01X19963Y11774D01*
G01X19975Y11778D01*
G01X19980Y11779D01*
G01X19992Y11783D01*
G01X19997Y11785D01*
G01X20009Y11790D01*
G01X20013Y11792D01*
G01X20025Y11797D01*
G01X20029Y11799D01*
G01X20041Y11805D01*
G01X20045Y11807D01*
G01X20056Y11814D01*
G01X20060Y11816D01*
G01X20071Y11823D01*
G01X20075Y11826D01*
G01X20086Y11833D01*
G01X20089Y11836D01*
G01X20099Y11844D01*
G01X20103Y11847D01*
G01X20113Y11856D01*
G01X20117Y11859D01*
G01X20126Y11868D01*
G01X20129Y11872D01*
G01X20138Y11881D01*
G01X20141Y11885D01*
G01X20149Y11895D01*
G01X20152Y11899D01*
G01X20160Y11909D01*
G01X20163Y11913D01*
G01X20170Y11923D01*
G01X20173Y11928D01*
G01X20180Y11938D01*
G01X20182Y11943D01*
G01X20188Y11954D01*
G01X20191Y11958D01*
G01X20196Y11970D01*
G01X20198Y11974D01*
G01X20203Y11986D01*
G01X20205Y11991D01*
G01X20209Y12003D01*
G01X20211Y12007D01*
G01X20215Y12020D01*
G01X20216Y12025D01*
G01X20219Y12037D01*
G01X20220Y12042D01*
G01X20223Y12054D01*
G01X20224Y12059D01*
G01X20225Y12072D01*
G01X20226Y12077D01*
G01X20227Y12089D01*
G01X20228Y12094D01*
G01X20228Y12107D01*
G01X20228Y12112D01*
G01X20228Y12125D01*
G01X20228Y12130D01*
G01X20228Y12143D01*
G01X20227Y12148D01*
G01X20226Y12160D01*
G01X20225Y12165D01*
G01X20224Y12178D01*
G01X20223Y12183D01*
G01X20220Y12195D01*
G01X20219Y12200D01*
G01X20216Y12212D01*
G01X20215Y12217D01*
G01X20211Y12230D01*
G01X20209Y12234D01*
G01X20205Y12246D01*
G01X20203Y12251D01*
G01X20198Y12263D01*
G01X20196Y12267D01*
G01X20191Y12279D01*
G01X20188Y12283D01*
G01X20182Y12294D01*
G01X20180Y12299D01*
G01X20173Y12309D01*
G01X20170Y12314D01*
G01X20163Y12324D01*
G01X20160Y12328D01*
G01X20152Y12338D01*
G01X20149Y12342D01*
G01X20141Y12352D01*
G01X20138Y12356D01*
G01X20129Y12365D01*
G01X20126Y12369D01*
G01X20117Y12378D01*
G01X20113Y12381D01*
G01X20103Y12390D01*
G01X20099Y12393D01*
G01X20089Y12401D01*
G01X20086Y12404D01*
G01X20075Y12411D01*
G01X20071Y12414D01*
G01X20060Y12421D01*
G01X20056Y12423D01*
G01X20045Y12430D01*
G01X20041Y12432D01*
G01X20029Y12438D01*
G01X20025Y12440D01*
G01X20013Y12446D01*
G01X20009Y12447D01*
G01X19997Y12452D01*
G01X19992Y12454D01*
G01X19980Y12458D01*
G01X19975Y12459D01*
G01X19963Y12463D01*
G01X19958Y12464D01*
G01X19946Y12467D01*
G01X19941Y12468D01*
G01X19928Y12470D01*
G01X19923Y12471D01*
G01X19911Y12472D01*
G01X19906Y12473D01*
G01X19893Y12474D01*
G01X19888Y12474D01*
G01X19875Y12474D01*
G01X19873Y12474D01*
G01X19518Y12474D01*
G01X19516Y12474D01*
G01X19514Y12474D01*
G01X19534Y12494D01*
G01X19538Y12498D01*
G01X19542Y12503D01*
G01X19545Y12507D01*
G01X19549Y12511D01*
G01X19553Y12516D01*
G01X19556Y12521D01*
G01X19559Y12525D01*
G01X19562Y12530D01*
G01X19565Y12535D01*
G01X19568Y12540D01*
G01X19570Y12545D01*
G01X19573Y12551D01*
G01X19575Y12556D01*
G01X19577Y12561D01*
G01X19579Y12567D01*
G01X19581Y12572D01*
G01X19583Y12577D01*
G01X19584Y12583D01*
G01X19585Y12589D01*
G01X19586Y12594D01*
G01X19587Y12600D01*
G01X19588Y12606D01*
G01X19589Y12611D01*
G01X19589Y12617D01*
G01X19589Y12623D01*
G01X19589Y12628D01*
G01X19589Y14494D01*
G01X19589Y14499D01*
G01X19589Y14505D01*
G01X19589Y14511D01*
G01X19588Y14516D01*
G01X19587Y14522D01*
G01X19586Y14528D01*
G01X19585Y14533D01*
G01X19584Y14539D01*
G01X19583Y14545D01*
G01X19581Y14550D01*
G01X19579Y14555D01*
G01X19577Y14561D01*
G01X19575Y14566D01*
G01X19573Y14571D01*
G01X19570Y14577D01*
G01X19568Y14582D01*
G01X19565Y14587D01*
G01X19562Y14592D01*
G01X19559Y14597D01*
G01X19556Y14601D01*
G01X19553Y14606D01*
G01X19549Y14611D01*
G01X19548Y14613D01*
G01X19873Y14613D01*
G01X19875Y14613D01*
G01X19888Y14613D01*
G01X19893Y14613D01*
G01X19906Y14614D01*
G01X19911Y14615D01*
G01X19923Y14616D01*
G01X19928Y14617D01*
G01X19941Y14619D01*
G01X19946Y14620D01*
G01X19958Y14623D01*
G01X19963Y14624D01*
G01X19975Y14628D01*
G01X19980Y14629D01*
G01X19992Y14633D01*
G01X19997Y14635D01*
G01X20009Y14640D01*
G01X20013Y14642D01*
G01X20025Y14647D01*
G01X20029Y14649D01*
G01X20041Y14655D01*
G01X20045Y14657D01*
G01X20056Y14664D01*
G01X20060Y14666D01*
G01X20071Y14673D01*
G01X20075Y14676D01*
G01X20086Y14683D01*
G01X20089Y14686D01*
G01X20099Y14694D01*
G01X20103Y14697D01*
G01X20113Y14706D01*
G01X20117Y14709D01*
G01X20126Y14718D01*
G01X20129Y14722D01*
G01X20138Y14731D01*
G01X20141Y14735D01*
G01X20149Y14745D01*
G01X20152Y14749D01*
G01X20160Y14759D01*
G01X20163Y14763D01*
G01X20170Y14773D01*
G01X20173Y14778D01*
G01X20180Y14788D01*
G01X20182Y14793D01*
G01X20188Y14804D01*
G01X20191Y14808D01*
G01X20196Y14820D01*
G01X20198Y14824D01*
G01X20203Y14836D01*
G01X20205Y14841D01*
G01X20209Y14853D01*
G01X20211Y14857D01*
G01X20215Y14870D01*
G01X20216Y14875D01*
G01X20219Y14887D01*
G01X20220Y14892D01*
G01X20223Y14904D01*
G01X20224Y14909D01*
G01X20225Y14922D01*
G01X20226Y14927D01*
G01X20227Y14939D01*
G01X20228Y14944D01*
G01X20228Y14957D01*
G01X20228Y14962D01*
G01X20228Y14975D01*
G01X20228Y14980D01*
G01X20228Y14993D01*
G01X20227Y14998D01*
G01X20226Y15010D01*
G01X20225Y15015D01*
G01X20224Y15028D01*
G01X20223Y15033D01*
G01X20220Y15045D01*
G01X20219Y15050D01*
G01X20216Y15062D01*
G01X20215Y15067D01*
G01X20211Y15080D01*
G01X20209Y15084D01*
G01X20205Y15096D01*
G01X20203Y15101D01*
G01X20198Y15113D01*
G01X20196Y15117D01*
G01X20191Y15129D01*
G01X20188Y15133D01*
G01X20182Y15144D01*
G01X20180Y15149D01*
G01X20173Y15159D01*
G01X20170Y15164D01*
G01X20163Y15174D01*
G01X20160Y15178D01*
G01X20152Y15188D01*
G01X20149Y15192D01*
G01X20141Y15202D01*
G01X20138Y15206D01*
G01X20129Y15215D01*
G01X20126Y15219D01*
G01X20117Y15228D01*
G01X20113Y15231D01*
G01X20103Y15240D01*
G01X20099Y15243D01*
G01X20089Y15251D01*
G01X20086Y15254D01*
G01X20075Y15261D01*
G01X20071Y15264D01*
G01X20060Y15271D01*
G01X20056Y15273D01*
G01X20045Y15280D01*
G01X20041Y15282D01*
G01X20029Y15288D01*
G01X20025Y15290D01*
G01X20013Y15296D01*
G01X20009Y15297D01*
G01X19997Y15302D01*
G01X19992Y15304D01*
G01X19980Y15308D01*
G01X19975Y15309D01*
G01X19963Y15313D01*
G01X19958Y15314D01*
G01X19946Y15317D01*
G01X19941Y15318D01*
G01X19928Y15320D01*
G01X19923Y15321D01*
G01X19911Y15322D01*
G01X19906Y15323D01*
G01X19893Y15324D01*
G01X19888Y15324D01*
G01X19875Y15324D01*
G01X19873Y15324D01*
G01X19518Y15324D01*
G01X19516Y15324D01*
G01X19503Y15324D01*
G01X19498Y15324D01*
G01X19485Y15323D01*
G01X19480Y15322D01*
G01X19468Y15321D01*
G01X19463Y15320D01*
G01X19450Y15318D01*
G01X19445Y15317D01*
G01X19433Y15314D01*
G01X19428Y15313D01*
G01X19416Y15309D01*
G01X19411Y15308D01*
G01X19399Y15304D01*
G01X19394Y15302D01*
G01X19382Y15297D01*
G01X19378Y15296D01*
G01X19366Y15290D01*
G01X19362Y15288D01*
G01X19350Y15282D01*
G01X19346Y15280D01*
G01X19335Y15273D01*
G01X19331Y15271D01*
G01X19320Y15264D01*
G01X19316Y15261D01*
G01X19305Y15254D01*
G01X19302Y15251D01*
G01X19292Y15243D01*
G01X19289Y15241D01*
G01X19289Y19265D01*
G01X19352Y19327D01*
G01X19360Y19329D01*
G01X19381Y19336D01*
G01X19401Y19345D01*
G01X19420Y19356D01*
G01X19439Y19369D01*
G01X19455Y19384D01*
G01X19470Y19400D01*
G01X19484Y19418D01*
G01X19495Y19437D01*
G01X19505Y19457D01*
G01X19513Y19478D01*
G01X19518Y19499D01*
G01X19521Y19521D01*
G01X19522Y19544D01*
G01X19521Y19566D01*
G01X19518Y19588D01*
G01X19513Y19609D01*
G01X19505Y19630D01*
G01X19495Y19650D01*
G01X19484Y19669D01*
G01X19470Y19687D01*
G01X19455Y19703D01*
G01X19439Y19718D01*
G01X19420Y19731D01*
G01X19401Y19742D01*
G01X19381Y19751D01*
G01X19360Y19758D01*
G01X19338Y19763D01*
G01X19316Y19766D01*
G01X19294Y19766D01*
G01X19272Y19765D01*
G01X19250Y19761D01*
G01X19228Y19755D01*
G01X19208Y19747D01*
G01X19188Y19737D01*
G01X19169Y19725D01*
G01X19152Y19711D01*
G01X19136Y19695D01*
G01X19122Y19678D01*
G01X19109Y19660D01*
G01X19099Y19640D01*
G01X19090Y19620D01*
G01X19083Y19599D01*
G01X19083Y19595D01*
G01X18965Y19478D01*
G01X18961Y19474D01*
G01X18957Y19469D01*
G01X18956Y19468D01*
G01X18955Y19472D01*
G01X18953Y19478D01*
G01X18950Y19483D01*
G01X18948Y19489D01*
G01X18945Y19494D01*
G01X18942Y19500D01*
G01X18939Y19505D01*
G01X18936Y19511D01*
G01X18932Y19516D01*
G01X18929Y19521D01*
G01X18925Y19526D01*
G01X18922Y19531D01*
G01X18918Y19535D01*
G01X18914Y19540D01*
G01X18909Y19545D01*
G01X18905Y19549D01*
G01X18491Y19963D01*
G01X19039Y19963D01*
G01X19046Y19964D01*
G01X19052Y19964D01*
G01X19058Y19964D01*
G01X19064Y19965D01*
G01X19070Y19966D01*
G01X19076Y19967D01*
G01X19082Y19968D01*
G01X19088Y19969D01*
G01X19094Y19970D01*
G01X19100Y19972D01*
G01X19106Y19974D01*
G01X19112Y19976D01*
G01X19118Y19978D01*
G01X19124Y19980D01*
G01X19129Y19983D01*
G01X19135Y19985D01*
G01X19140Y19988D01*
G01X19146Y19991D01*
G01X19151Y19994D01*
G01X19157Y19997D01*
G01X19162Y20001D01*
G01X19167Y20004D01*
G01X19172Y20008D01*
G01X19177Y20011D01*
G01X19181Y20015D01*
G01X19186Y20019D01*
G01X19191Y20024D01*
G01X19195Y20028D01*
G01X21091Y21924D01*
G01X21499Y21924D01*
G01X21503Y21919D01*
G01X21524Y21898D01*
G01X21547Y21880D01*
G01X21572Y21864D01*
G01X21599Y21850D01*
G01X21626Y21839D01*
G01X21655Y21831D01*
G01X21684Y21826D01*
G01X21714Y21824D01*
G01X21744Y21825D01*
G01X21773Y21828D01*
G01X21788Y21832D01*
G01X21783Y21810D01*
G01X21780Y21780D01*
G01X21780Y21750D01*
G01X21783Y21721D01*
G01X21789Y21692D01*
G01X21798Y21663D01*
G01X21809Y21636D01*
G01X21824Y21610D01*
G01X21840Y21585D01*
G01X21859Y21563D01*
G01X21881Y21542D01*
G01X21904Y21523D01*
G01X21929Y21507D01*
G01X21955Y21494D01*
G01X21983Y21483D01*
G01X22011Y21475D01*
G01X22041Y21470D01*
G01X22070Y21468D01*
G01X22100Y21468D01*
G01X22129Y21472D01*
G01X22158Y21479D01*
G01X22187Y21488D01*
G01X22214Y21500D01*
G01X22239Y21515D01*
G01X22263Y21532D01*
G01X22286Y21552D01*
G01X22306Y21574D01*
G01X22324Y21598D01*
G01X22339Y21623D01*
G01X22352Y21650D01*
G01X22362Y21678D01*
G01X22370Y21706D01*
G01X22374Y21736D01*
G01X22376Y21765D01*
G01X22374Y21795D01*
G01X22370Y21824D01*
G01X22362Y21853D01*
G01X22352Y21881D01*
G01X22339Y21908D01*
G01X22324Y21933D01*
G01X22306Y21957D01*
G01X22286Y21979D01*
G01X22263Y21998D01*
G01X22239Y22015D01*
G01X22214Y22030D01*
G01X22187Y22043D01*
G01X22158Y22052D01*
G01X22129Y22059D01*
G01X22100Y22062D01*
G01X22070Y22063D01*
G01X22041Y22061D01*
G01X22011Y22056D01*
G01X22013Y22063D01*
G01X22018Y22092D01*
G01X22019Y22122D01*
G01X22018Y22151D01*
G01X22013Y22181D01*
G01X22006Y22209D01*
G01X21996Y22237D01*
G01X21983Y22264D01*
G01X21967Y22289D01*
G01X21949Y22313D01*
G01X21929Y22335D01*
G01X21907Y22355D01*
G01X21883Y22372D01*
G01X21857Y22387D01*
G01X21830Y22399D01*
G01X21802Y22408D01*
G01X21773Y22415D01*
G01X21744Y22419D01*
G01X21714Y22419D01*
G01X21684Y22417D01*
G01X21655Y22412D01*
G01X21626Y22404D01*
G01X21599Y22393D01*
G01X21572Y22380D01*
G01X21547Y22364D01*
G01X21547Y22363D01*
G01X21000Y22363D01*
G01X20993Y22363D01*
G01X20987Y22363D01*
G01X20981Y22363D01*
G01X20975Y22362D01*
G01X20969Y22361D01*
G01X20963Y22360D01*
G01X20957Y22359D01*
G01X20951Y22358D01*
G01X20945Y22357D01*
G01X20939Y22355D01*
G01X20933Y22353D01*
G01X20927Y22351D01*
G01X20921Y22349D01*
G01X20915Y22347D01*
G01X20910Y22344D01*
G01X20904Y22342D01*
G01X20899Y22339D01*
G01X20893Y22336D01*
G01X20888Y22333D01*
G01X20882Y22330D01*
G01X20877Y22326D01*
G01X20872Y22323D01*
G01X20867Y22319D01*
G01X20862Y22315D01*
G01X20858Y22312D01*
G01X20853Y22308D01*
G01X20848Y22303D01*
G01X20844Y22299D01*
G01X18948Y20403D01*
G01X12802Y20403D01*
G01X12796Y20403D01*
G01X12790Y20403D01*
G01X12784Y20403D01*
G01X12778Y20402D01*
G01X12772Y20401D01*
G01X12766Y20400D01*
G01X12760Y20399D01*
G01X12754Y20398D01*
G01X12748Y20397D01*
G01X12742Y20395D01*
G01X12736Y20393D01*
G01X12730Y20391D01*
G01X12724Y20389D01*
G01X12719Y20387D01*
G01X12713Y20385D01*
G01X12708Y20382D01*
G01X12702Y20379D01*
G01X12697Y20376D01*
G01X12691Y20373D01*
G01X12686Y20370D01*
G01X12681Y20367D01*
G01X12676Y20363D01*
G01X12671Y20360D01*
G01X12666Y20356D01*
G01X12661Y20352D01*
G01X12657Y20348D01*
G01X12652Y20344D01*
G01X12648Y20340D01*
G01X12643Y20335D01*
G01X12639Y20331D01*
G01X12635Y20326D01*
G01X12631Y20321D01*
G01X12544Y20213D01*
G01X10111Y20213D01*
G01X7725Y22599D01*
G01X7721Y22603D01*
G01X7716Y22608D01*
G01X7711Y22612D01*
G01X7707Y22615D01*
G01X7702Y22619D01*
G01X7697Y22623D01*
G01X7692Y22626D01*
G01X7687Y22630D01*
G01X7681Y22633D01*
G01X7676Y22636D01*
G01X7670Y22639D01*
G01X7665Y22642D01*
G01X7659Y22644D01*
G01X7654Y22647D01*
G01X7648Y22649D01*
G01X7642Y22651D01*
G01X7636Y22653D01*
G01X7630Y22655D01*
G01X7624Y22657D01*
G01X7618Y22658D01*
G01X7612Y22659D01*
G01X7606Y22660D01*
G01X7600Y22661D01*
G01X7594Y22662D01*
G01X7588Y22663D01*
G01X7582Y22663D01*
G01X7576Y22663D01*
G01X7569Y22663D01*
G01X6950Y22663D01*
G01X6943Y22663D01*
G01X6937Y22663D01*
G01X6931Y22663D01*
G01X6925Y22662D01*
G01X6919Y22661D01*
G01X6913Y22660D01*
G01X6907Y22659D01*
G01X6901Y22658D01*
G01X6895Y22657D01*
G01X6889Y22655D01*
G01X6883Y22653D01*
G01X6877Y22651D01*
G01X6871Y22649D01*
G01X6865Y22647D01*
G01X6860Y22644D01*
G01X6854Y22642D01*
G01X6849Y22639D01*
G01X6843Y22636D01*
G01X6838Y22633D01*
G01X6832Y22630D01*
G01X6827Y22626D01*
G01X6822Y22623D01*
G01X6817Y22619D01*
G01X6812Y22615D01*
G01X6808Y22612D01*
G01X6803Y22608D01*
G01X6798Y22603D01*
G01X6794Y22599D01*
G01X6458Y22263D01*
G01X6340Y22263D01*
G01X6168Y22432D01*
G01X6168Y22445D01*
G01X6163Y22474D01*
G01X6161Y22481D01*
G01X6191Y22476D01*
G01X6220Y22474D01*
G01X6250Y22475D01*
G01X6279Y22478D01*
G01X6308Y22485D01*
G01X6337Y22494D01*
G01X6364Y22507D01*
G01X6389Y22522D01*
G01X6413Y22539D01*
G01X6436Y22558D01*
G01X6456Y22580D01*
G01X6474Y22604D01*
G01X6489Y22629D01*
G01X6502Y22656D01*
G01X6512Y22684D01*
G01X6520Y22713D01*
G01X6524Y22742D01*
G01X6526Y22772D01*
G01X6524Y22801D01*
G01X6520Y22831D01*
G01X6512Y22859D01*
G01X6502Y22887D01*
G01X6489Y22914D01*
G01X6474Y22939D01*
G01X6456Y22963D01*
G01X6436Y22985D01*
G01X6413Y23005D01*
G01X6389Y23022D01*
G01X6364Y23037D01*
G01X6337Y23049D01*
G01X6308Y23058D01*
G01X6279Y23065D01*
G01X6250Y23069D01*
G01X6220Y23069D01*
G01X6191Y23067D01*
G01X6161Y23062D01*
G01X6133Y23054D01*
G01X6105Y23043D01*
G01X6079Y23030D01*
G01X6054Y23014D01*
G01X6031Y22995D01*
G01X6009Y22974D01*
G01X5990Y22952D01*
G01X5974Y22927D01*
G01X5959Y22901D01*
G01X5948Y22874D01*
G01X5939Y22845D01*
G01X5933Y22816D01*
G01X5930Y22787D01*
G01X5930Y22757D01*
G01X5933Y22727D01*
G01X5938Y22705D01*
G01X5923Y22709D01*
G01X5894Y22712D01*
G01X5864Y22713D01*
G01X5834Y22711D01*
G01X5805Y22706D01*
G01X5776Y22698D01*
G01X5749Y22687D01*
G01X5722Y22673D01*
G01X5697Y22657D01*
G01X5674Y22639D01*
G01X5653Y22618D01*
G01X5634Y22595D01*
G01X5617Y22571D01*
G01X5603Y22545D01*
G01X5591Y22517D01*
G01X5583Y22489D01*
G01X5577Y22460D01*
G01X5574Y22430D01*
G01X5574Y22400D01*
G01X5577Y22371D01*
G01X5583Y22342D01*
G01X5591Y22313D01*
G01X5603Y22286D01*
G01X5617Y22260D01*
G01X5634Y22235D01*
G01X5653Y22213D01*
G01X5674Y22192D01*
G01X5697Y22173D01*
G01X5722Y22157D01*
G01X5749Y22144D01*
G01X5776Y22133D01*
G01X5805Y22125D01*
G01X5834Y22120D01*
G01X5860Y22118D01*
G01X6095Y21887D01*
G01X6100Y21882D01*
G01X6104Y21878D01*
G01X6109Y21874D01*
G01X6114Y21870D01*
G01X6119Y21866D01*
G01X6124Y21863D01*
G01X6130Y21859D01*
G01X6135Y21856D01*
G01X6141Y21852D01*
G01X6146Y21849D01*
G01X6152Y21846D01*
G01X6157Y21844D01*
G01X6163Y21841D01*
G01X6169Y21839D01*
G01X6175Y21836D01*
G01X6181Y21834D01*
G01X6187Y21833D01*
G01X6193Y21831D01*
G01X6199Y21829D01*
G01X6205Y21828D01*
G01X6212Y21827D01*
G01X6218Y21826D01*
G01X6224Y21825D01*
G01X6231Y21824D01*
G01X6237Y21824D01*
G01X6243Y21824D01*
G01X6250Y21824D01*
G01X6550Y21824D01*
G01X6556Y21824D01*
G01X6562Y21824D01*
G01X6568Y21824D01*
G01X6574Y21825D01*
G01X6580Y21826D01*
G01X6586Y21827D01*
G01X6592Y21828D01*
G01X6598Y21829D01*
G01X6604Y21830D01*
G01X6610Y21832D01*
G01X6616Y21834D01*
G01X6622Y21836D01*
G01X6628Y21838D01*
G01X6634Y21840D01*
G01X6639Y21843D01*
G01X6645Y21845D01*
G01X6650Y21848D01*
G01X6656Y21851D01*
G01X6661Y21854D01*
G01X6667Y21857D01*
G01X6672Y21861D01*
G01X6677Y21864D01*
G01X6682Y21868D01*
G01X6687Y21872D01*
G01X6691Y21875D01*
G01X6696Y21879D01*
G01X6701Y21884D01*
G01X6705Y21888D01*
G01X7041Y22224D01*
G01X7478Y22224D01*
G01X9864Y19838D01*
G01X9868Y19834D01*
G01X9873Y19829D01*
G01X9878Y19825D01*
G01X9882Y19822D01*
G01X9887Y19818D01*
G01X9892Y19814D01*
G01X9897Y19811D01*
G01X9902Y19807D01*
G01X9908Y19804D01*
G01X9913Y19801D01*
G01X9919Y19798D01*
G01X9924Y19795D01*
G01X9930Y19793D01*
G01X9935Y19790D01*
G01X9941Y19788D01*
G01X9947Y19786D01*
G01X9953Y19784D01*
G01X9959Y19782D01*
G01X9965Y19780D01*
G01X9971Y19779D01*
G01X9977Y19778D01*
G01X9983Y19777D01*
G01X9989Y19776D01*
G01X9995Y19775D01*
G01X10001Y19774D01*
G01X10007Y19774D01*
G01X10013Y19774D01*
G01X10019Y19774D01*
G01X12650Y19774D01*
G01X12656Y19774D01*
G01X12662Y19774D01*
G01X12668Y19774D01*
G01X12674Y19775D01*
G01X12680Y19776D01*
G01X12686Y19777D01*
G01X12692Y19778D01*
G01X12698Y19779D01*
G01X12704Y19780D01*
G01X12710Y19782D01*
G01X12716Y19784D01*
G01X12722Y19786D01*
G01X12728Y19788D01*
G01X12733Y19790D01*
G01X12739Y19792D01*
G01X12744Y19795D01*
G01X12750Y19798D01*
G01X12755Y19801D01*
G01X12761Y19804D01*
G01X12766Y19807D01*
G01X12771Y19810D01*
G01X12776Y19814D01*
G01X12781Y19817D01*
G01X12786Y19821D01*
G01X12791Y19825D01*
G01X12795Y19829D01*
G01X12800Y19833D01*
G01X12804Y19837D01*
G01X12809Y19842D01*
G01X12813Y19846D01*
G01X12817Y19851D01*
G01X12821Y19856D01*
G01X12908Y19963D01*
G01X17870Y19963D01*
G01X17873Y19960D01*
G01X17877Y19955D01*
G01X17882Y19950D01*
G01X17886Y19946D01*
G01X18530Y19302D01*
G01X18530Y15435D01*
G01X18308Y15213D01*
G01X17500Y15213D01*
G01X17493Y15213D01*
G01X17487Y15213D01*
G01X17481Y15213D01*
G01X17475Y15212D01*
G01X17469Y15211D01*
G01X17463Y15210D01*
G01X17457Y15209D01*
G01X17451Y15208D01*
G01X17445Y15207D01*
G01X17439Y15205D01*
G01X17433Y15203D01*
G01X17427Y15201D01*
G01X17421Y15199D01*
G01X17415Y15197D01*
G01X17410Y15194D01*
G01X17404Y15192D01*
G01X17399Y15189D01*
G01X17393Y15186D01*
G01X17388Y15183D01*
G01X17382Y15180D01*
G01X17377Y15176D01*
G01X17372Y15173D01*
G01X17367Y15169D01*
G01X17362Y15165D01*
G01X17358Y15162D01*
G01X17353Y15158D01*
G01X17348Y15153D01*
G01X17344Y15149D01*
G01X16944Y14749D01*
G01X16940Y14745D01*
G01X16935Y14740D01*
G01X16931Y14735D01*
G01X16927Y14731D01*
G01X16924Y14726D01*
G01X16920Y14721D01*
G01X16917Y14716D01*
G01X16913Y14711D01*
G01X16910Y14705D01*
G01X16907Y14700D01*
G01X16904Y14694D01*
G01X16901Y14689D01*
G01X16899Y14683D01*
G01X16896Y14678D01*
G01X16894Y14672D01*
G01X16892Y14666D01*
G01X16890Y14660D01*
G01X16888Y14654D01*
G01X16886Y14648D01*
G01X16885Y14642D01*
G01X16884Y14636D01*
G01X16883Y14630D01*
G01X16882Y14624D01*
G01X16881Y14618D01*
G01X16880Y14612D01*
G01X16880Y14606D01*
G01X16880Y14600D01*
G01X16880Y14594D01*
G01X16880Y13344D01*
G01X16880Y13337D01*
G01X16880Y13331D01*
G01X16880Y13325D01*
G01X16881Y13319D01*
G01X16882Y13313D01*
G01X16883Y13307D01*
G01X16884Y13301D01*
G01X16885Y13295D01*
G01X16886Y13289D01*
G01X16888Y13283D01*
G01X16890Y13277D01*
G01X16892Y13271D01*
G01X16894Y13265D01*
G01X16896Y13259D01*
G01X16899Y13254D01*
G01X16901Y13248D01*
G01X16904Y13243D01*
G01X16907Y13237D01*
G01X16910Y13232D01*
G01X16913Y13226D01*
G01X16917Y13221D01*
G01X16920Y13216D01*
G01X16924Y13211D01*
G01X16927Y13206D01*
G01X16931Y13202D01*
G01X16935Y13197D01*
G01X16940Y13192D01*
G01X16944Y13188D01*
G01X17830Y12302D01*
G01X17830Y12079D01*
G01X17829Y12077D01*
G01X17827Y12055D01*
G01X17827Y12032D01*
G01X17829Y12010D01*
G01X17833Y11988D01*
G01X17840Y11967D01*
G01X17849Y11947D01*
G01X17859Y11927D01*
G01X17872Y11909D01*
G01X17886Y11892D01*
G01X17902Y11876D01*
G01X17919Y11862D01*
G01X17938Y11850D01*
G01X17958Y11840D01*
G01X17975Y11834D01*
G01X16416Y11834D01*
G01X16401Y11842D01*
G01X16381Y11851D01*
G01X16360Y11858D01*
G01X16338Y11863D01*
G01X16316Y11866D01*
G01X16294Y11866D01*
G01X16272Y11865D01*
G01X16250Y11861D01*
G01X16228Y11855D01*
G01X16208Y11847D01*
G01X16188Y11837D01*
G01X16169Y11825D01*
G01X16152Y11811D01*
G01X16136Y11795D01*
G01X16122Y11778D01*
G01X16109Y11760D01*
G01X16099Y11740D01*
G01X16090Y11720D01*
G01X16083Y11699D01*
G01X16079Y11677D01*
G01X16077Y11655D01*
G01X16077Y11632D01*
G01X16079Y11610D01*
G01X16083Y11588D01*
G01X16090Y11567D01*
G01X16099Y11547D01*
G01X16106Y11534D01*
G01X15516Y11534D01*
G01X15501Y11542D01*
G01X15481Y11551D01*
G01X15460Y11558D01*
G01X15438Y11563D01*
G01X15416Y11566D01*
G01X15394Y11566D01*
G01X15372Y11565D01*
G01X15350Y11561D01*
G01X15328Y11555D01*
G01X15308Y11547D01*
G01X15288Y11537D01*
G01X15269Y11525D01*
G01X15252Y11511D01*
G01X15236Y11495D01*
G01X15222Y11478D01*
G01X15209Y11460D01*
G01X15199Y11440D01*
G01X15190Y11420D01*
G01X15183Y11399D01*
G01X15179Y11377D01*
G01X15177Y11355D01*
G01X15177Y11332D01*
G01X15179Y11310D01*
G01X15183Y11288D01*
G01X15190Y11267D01*
G01X15199Y11247D01*
G01X15209Y11227D01*
G01X15222Y11209D01*
G01X15236Y11192D01*
G01X15252Y11176D01*
G01X15269Y11162D01*
G01X15288Y11150D01*
G01X15308Y11140D01*
G01X15328Y11132D01*
G01X15350Y11126D01*
G01X15372Y11122D01*
G01X15394Y11121D01*
G01X15416Y11121D01*
G01X15438Y11124D01*
G01X15460Y11129D01*
G01X15481Y11136D01*
G01X15501Y11145D01*
G01X15516Y11153D01*
G01X19221Y11153D01*
G01X19260Y11115D01*
G01X19260Y9860D01*
G01X19259Y9860D01*
G01X19249Y9840D01*
G01X19240Y9820D01*
G01X19233Y9799D01*
G01X19229Y9777D01*
G01X19227Y9755D01*
G01X19227Y9732D01*
G01X19229Y9710D01*
G01X19233Y9688D01*
G01X19240Y9667D01*
G01X19249Y9647D01*
G01X19259Y9627D01*
G01X19272Y9609D01*
G01X19286Y9592D01*
G01X19302Y9576D01*
G01X19319Y9562D01*
G01X19338Y9550D01*
G01X19358Y9540D01*
G01X19378Y9532D01*
G01X19400Y9526D01*
G01X19422Y9522D01*
G37*
G36*
G01X9319Y9344D02*
G01X9325Y9344D01*
G01X10760Y9344D01*
G01X10765Y9344D01*
G01X10770Y9344D01*
G01X10776Y9344D01*
G01X10781Y9345D01*
G01X10787Y9346D01*
G01X10792Y9347D01*
G01X10797Y9348D01*
G01X10803Y9349D01*
G01X10808Y9351D01*
G01X10813Y9353D01*
G01X10818Y9355D01*
G01X10823Y9357D01*
G01X10828Y9359D01*
G01X10833Y9361D01*
G01X10838Y9364D01*
G01X10843Y9367D01*
G01X10847Y9370D01*
G01X10852Y9373D01*
G01X10856Y9376D01*
G01X10860Y9379D01*
G01X10865Y9383D01*
G01X10869Y9387D01*
G01X10873Y9390D01*
G01X11363Y9880D01*
G01X11366Y9884D01*
G01X11370Y9888D01*
G01X11374Y9893D01*
G01X11377Y9897D01*
G01X11380Y9901D01*
G01X11383Y9906D01*
G01X11386Y9910D01*
G01X11389Y9915D01*
G01X11392Y9920D01*
G01X11394Y9925D01*
G01X11396Y9930D01*
G01X11398Y9935D01*
G01X11400Y9940D01*
G01X11402Y9945D01*
G01X11404Y9950D01*
G01X11405Y9956D01*
G01X11406Y9961D01*
G01X11407Y9966D01*
G01X11408Y9972D01*
G01X11409Y9977D01*
G01X11409Y9983D01*
G01X11409Y9988D01*
G01X11410Y9994D01*
G01X11410Y10038D01*
G01X11420Y10050D01*
G01X11434Y10068D01*
G01X11445Y10087D01*
G01X11455Y10107D01*
G01X11463Y10128D01*
G01X11468Y10149D01*
G01X11471Y10171D01*
G01X11472Y10194D01*
G01X11471Y10216D01*
G01X11468Y10238D01*
G01X11463Y10259D01*
G01X11455Y10280D01*
G01X11445Y10300D01*
G01X11434Y10319D01*
G01X11420Y10337D01*
G01X11405Y10353D01*
G01X11389Y10368D01*
G01X11370Y10381D01*
G01X11351Y10392D01*
G01X11331Y10401D01*
G01X11310Y10408D01*
G01X11288Y10413D01*
G01X11266Y10416D01*
G01X11244Y10416D01*
G01X11222Y10415D01*
G01X11200Y10411D01*
G01X11178Y10405D01*
G01X11158Y10397D01*
G01X11138Y10387D01*
G01X11119Y10375D01*
G01X11102Y10361D01*
G01X11086Y10345D01*
G01X11072Y10328D01*
G01X11059Y10310D01*
G01X11049Y10290D01*
G01X11040Y10270D01*
G01X11033Y10249D01*
G01X11029Y10227D01*
G01X11027Y10205D01*
G01X11027Y10182D01*
G01X11029Y10160D01*
G01X11033Y10138D01*
G01X11040Y10117D01*
G01X11049Y10097D01*
G01X11059Y10077D01*
G01X11072Y10059D01*
G01X11079Y10050D01*
G01X10693Y9663D01*
G01X9391Y9663D01*
G01X8555Y10495D01*
G01X8555Y18549D01*
G01X8554Y18554D01*
G01X8554Y18559D01*
G01X8554Y18565D01*
G01X8553Y18570D01*
G01X8552Y18576D01*
G01X8551Y18581D01*
G01X8550Y18586D01*
G01X8549Y18592D01*
G01X8547Y18597D01*
G01X8545Y18602D01*
G01X8543Y18607D01*
G01X8541Y18612D01*
G01X8539Y18617D01*
G01X8537Y18622D01*
G01X8534Y18627D01*
G01X8531Y18632D01*
G01X8528Y18636D01*
G01X8525Y18641D01*
G01X8522Y18645D01*
G01X8519Y18649D01*
G01X8515Y18654D01*
G01X8511Y18658D01*
G01X8508Y18662D01*
G01X8059Y19110D01*
G01X8059Y19827D01*
G01X8239Y20007D01*
G01X8257Y20006D01*
G01X8279Y20006D01*
G01X8301Y20009D01*
G01X8323Y20014D01*
G01X8344Y20021D01*
G01X8364Y20030D01*
G01X8383Y20041D01*
G01X8402Y20054D01*
G01X8418Y20069D01*
G01X8433Y20085D01*
G01X8447Y20103D01*
G01X8458Y20122D01*
G01X8468Y20142D01*
G01X8476Y20163D01*
G01X8481Y20184D01*
G01X8484Y20206D01*
G01X8486Y20228D01*
G01X8485Y20237D01*
G01X8591Y20130D01*
G01X8595Y20127D01*
G01X8599Y20123D01*
G01X8604Y20119D01*
G01X8608Y20116D01*
G01X8612Y20113D01*
G01X8617Y20110D01*
G01X8621Y20107D01*
G01X8626Y20104D01*
G01X8631Y20101D01*
G01X8636Y20099D01*
G01X8641Y20097D01*
G01X8646Y20095D01*
G01X8651Y20093D01*
G01X8656Y20091D01*
G01X8661Y20089D01*
G01X8667Y20088D01*
G01X8672Y20087D01*
G01X8677Y20086D01*
G01X8683Y20085D01*
G01X8688Y20084D01*
G01X8694Y20084D01*
G01X8699Y20084D01*
G01X8705Y20084D01*
G01X8885Y20084D01*
G01X8899Y20072D01*
G01X8918Y20060D01*
G01X8938Y20050D01*
G01X8958Y20042D01*
G01X8980Y20036D01*
G01X9002Y20032D01*
G01X9024Y20031D01*
G01X9046Y20031D01*
G01X9068Y20034D01*
G01X9090Y20039D01*
G01X9111Y20046D01*
G01X9131Y20055D01*
G01X9150Y20066D01*
G01X9169Y20079D01*
G01X9185Y20094D01*
G01X9200Y20110D01*
G01X9214Y20128D01*
G01X9225Y20147D01*
G01X9235Y20167D01*
G01X9243Y20188D01*
G01X9248Y20209D01*
G01X9251Y20231D01*
G01X9253Y20253D01*
G01X9251Y20276D01*
G01X9248Y20298D01*
G01X9243Y20319D01*
G01X9235Y20340D01*
G01X9225Y20360D01*
G01X9214Y20379D01*
G01X9200Y20397D01*
G01X9185Y20413D01*
G01X9169Y20428D01*
G01X9150Y20441D01*
G01X9131Y20452D01*
G01X9111Y20461D01*
G01X9090Y20468D01*
G01X9068Y20473D01*
G01X9046Y20476D01*
G01X9024Y20476D01*
G01X9002Y20475D01*
G01X8980Y20471D01*
G01X8958Y20465D01*
G01X8938Y20457D01*
G01X8918Y20447D01*
G01X8899Y20435D01*
G01X8882Y20421D01*
G01X8866Y20405D01*
G01X8865Y20403D01*
G01X8771Y20403D01*
G01X8318Y20857D01*
G01X8314Y20860D01*
G01X8310Y20864D01*
G01X8305Y20868D01*
G01X8301Y20871D01*
G01X8297Y20874D01*
G01X8292Y20877D01*
G01X8288Y20880D01*
G01X8283Y20883D01*
G01X8278Y20886D01*
G01X8273Y20888D01*
G01X8268Y20890D01*
G01X8263Y20892D01*
G01X8258Y20894D01*
G01X8253Y20896D01*
G01X8248Y20898D01*
G01X8242Y20899D01*
G01X8237Y20900D01*
G01X8232Y20901D01*
G01X8226Y20902D01*
G01X8221Y20903D01*
G01X8215Y20903D01*
G01X8210Y20903D01*
G01X8205Y20903D01*
G01X7950Y20903D01*
G01X7944Y20903D01*
G01X7939Y20903D01*
G01X7933Y20903D01*
G01X7928Y20902D01*
G01X7922Y20901D01*
G01X7917Y20900D01*
G01X7912Y20899D01*
G01X7906Y20898D01*
G01X7901Y20896D01*
G01X7896Y20894D01*
G01X7891Y20892D01*
G01X7886Y20890D01*
G01X7881Y20888D01*
G01X7876Y20886D01*
G01X7871Y20883D01*
G01X7866Y20880D01*
G01X7862Y20877D01*
G01X7857Y20874D01*
G01X7853Y20871D01*
G01X7849Y20868D01*
G01X7844Y20864D01*
G01X7840Y20860D01*
G01X7836Y20857D01*
G01X7246Y20266D01*
G01X7244Y20266D01*
G01X7222Y20265D01*
G01X7200Y20261D01*
G01X7178Y20255D01*
G01X7158Y20247D01*
G01X7138Y20237D01*
G01X7119Y20225D01*
G01X7102Y20211D01*
G01X7086Y20195D01*
G01X7072Y20178D01*
G01X7059Y20160D01*
G01X7049Y20140D01*
G01X7040Y20120D01*
G01X7033Y20099D01*
G01X7029Y20077D01*
G01X7027Y20055D01*
G01X7027Y20032D01*
G01X7029Y20010D01*
G01X7033Y19988D01*
G01X7040Y19967D01*
G01X7049Y19947D01*
G01X7059Y19927D01*
G01X7072Y19909D01*
G01X7086Y19892D01*
G01X7102Y19876D01*
G01X7119Y19862D01*
G01X7138Y19850D01*
G01X7158Y19840D01*
G01X7178Y19832D01*
G01X7200Y19826D01*
G01X7222Y19822D01*
G01X7244Y19821D01*
G01X7266Y19821D01*
G01X7288Y19824D01*
G01X7310Y19829D01*
G01X7331Y19836D01*
G01X7351Y19845D01*
G01X7370Y19856D01*
G01X7389Y19869D01*
G01X7405Y19884D01*
G01X7420Y19900D01*
G01X7434Y19918D01*
G01X7445Y19937D01*
G01X7455Y19957D01*
G01X7463Y19978D01*
G01X7468Y19999D01*
G01X7471Y20021D01*
G01X7472Y20040D01*
G01X8016Y20584D01*
G01X8138Y20584D01*
G01X8271Y20451D01*
G01X8257Y20451D01*
G01X8235Y20450D01*
G01X8213Y20446D01*
G01X8191Y20440D01*
G01X8171Y20432D01*
G01X8151Y20422D01*
G01X8132Y20410D01*
G01X8115Y20396D01*
G01X8099Y20380D01*
G01X8085Y20363D01*
G01X8072Y20345D01*
G01X8062Y20325D01*
G01X8053Y20305D01*
G01X8046Y20284D01*
G01X8042Y20262D01*
G01X7786Y20007D01*
G01X7783Y20003D01*
G01X7779Y19999D01*
G01X7775Y19994D01*
G01X7772Y19990D01*
G01X7769Y19986D01*
G01X7766Y19981D01*
G01X7763Y19977D01*
G01X7760Y19972D01*
G01X7757Y19967D01*
G01X7755Y19962D01*
G01X7753Y19957D01*
G01X7751Y19952D01*
G01X7749Y19947D01*
G01X7747Y19942D01*
G01X7745Y19937D01*
G01X7744Y19931D01*
G01X7743Y19926D01*
G01X7742Y19921D01*
G01X7741Y19915D01*
G01X7740Y19910D01*
G01X7740Y19904D01*
G01X7740Y19899D01*
G01X7740Y19894D01*
G01X7740Y19044D01*
G01X7740Y19038D01*
G01X7740Y19033D01*
G01X7740Y19027D01*
G01X7741Y19022D01*
G01X7742Y19016D01*
G01X7743Y19011D01*
G01X7744Y19006D01*
G01X7745Y19000D01*
G01X7747Y18995D01*
G01X7749Y18990D01*
G01X7751Y18985D01*
G01X7753Y18980D01*
G01X7755Y18975D01*
G01X7757Y18970D01*
G01X7760Y18965D01*
G01X7763Y18960D01*
G01X7766Y18956D01*
G01X7769Y18951D01*
G01X7772Y18947D01*
G01X7775Y18943D01*
G01X7779Y18938D01*
G01X7783Y18934D01*
G01X7786Y18930D01*
G01X8234Y18482D01*
G01X8234Y10428D01*
G01X8235Y10423D01*
G01X8235Y10418D01*
G01X8235Y10412D01*
G01X8236Y10407D01*
G01X8237Y10401D01*
G01X8238Y10396D01*
G01X8239Y10390D01*
G01X8240Y10385D01*
G01X8242Y10380D01*
G01X8244Y10375D01*
G01X8246Y10370D01*
G01X8248Y10365D01*
G01X8250Y10360D01*
G01X8253Y10355D01*
G01X8255Y10350D01*
G01X8258Y10345D01*
G01X8261Y10340D01*
G01X8264Y10336D01*
G01X8267Y10332D01*
G01X8271Y10327D01*
G01X8274Y10323D01*
G01X8278Y10319D01*
G01X8282Y10315D01*
G01X9212Y9390D01*
G01X9216Y9386D01*
G01X9220Y9383D01*
G01X9224Y9379D01*
G01X9228Y9376D01*
G01X9233Y9373D01*
G01X9237Y9370D01*
G01X9242Y9367D01*
G01X9246Y9364D01*
G01X9251Y9361D01*
G01X9256Y9359D01*
G01X9261Y9357D01*
G01X9266Y9355D01*
G01X9271Y9353D01*
G01X9276Y9351D01*
G01X9281Y9349D01*
G01X9287Y9348D01*
G01X9292Y9347D01*
G01X9297Y9346D01*
G01X9303Y9345D01*
G01X9308Y9344D01*
G01X9314Y9344D01*
G01X9319Y9344D01*
G37*
G36*
G01X14755Y9174D02*
G01X14755Y8909D01*
G01X15019Y8909D01*
G01X15019Y9074D01*
G01X15019Y9078D01*
G01X15019Y9082D01*
G01X15019Y9086D01*
G01X15018Y9090D01*
G01X15017Y9094D01*
G01X15016Y9098D01*
G01X15015Y9102D01*
G01X15014Y9106D01*
G01X15013Y9110D01*
G01X15011Y9114D01*
G01X15009Y9117D01*
G01X15007Y9121D01*
G01X15005Y9125D01*
G01X15003Y9128D01*
G01X15001Y9132D01*
G01X14998Y9135D01*
G01X14996Y9138D01*
G01X14993Y9141D01*
G01X14990Y9144D01*
G01X14987Y9147D01*
G01X14984Y9150D01*
G01X14981Y9152D01*
G01X14978Y9155D01*
G01X14974Y9157D01*
G01X14971Y9159D01*
G01X14967Y9161D01*
G01X14963Y9163D01*
G01X14960Y9165D01*
G01X14956Y9167D01*
G01X14952Y9168D01*
G01X14948Y9169D01*
G01X14944Y9170D01*
G01X14940Y9171D01*
G01X14936Y9172D01*
G01X14932Y9173D01*
G01X14928Y9173D01*
G01X14924Y9173D01*
G01X14919Y9174D01*
G01X14755Y9174D01*
G37*

%LPD*%
G54D11*
G01X8300Y19294D02*
G01X8580Y19294D01*
G01X8969Y19684D01*
G54D18*
G01X10400Y11994D02*
G01X10400Y13344D01*
G01X10250Y13494D01*
G01X8950Y13494D01*
G01X8800Y13644D01*
G01X8800Y16294D01*
G01X9300Y16794D01*
G01X9435Y16794D01*
G54D13*
G01X15400Y11344D02*
G01X19300Y11344D01*
G01X19450Y11194D01*
G01X19450Y9744D01*
G01X16300Y11644D02*
G01X18414Y11644D01*
G01X19400Y12628D01*
G01X19400Y14494D01*
G01X19100Y14794D01*
G01X19100Y19344D01*
G01X19300Y19544D01*
G01X13550Y10444D02*
G01X12050Y10444D01*
G01X11800Y10194D01*
G01X11800Y8994D01*
G01X11550Y8744D01*
G01X9800Y8744D01*
G01X16650Y8844D02*
G01X16650Y9194D01*
G01X14750Y11094D01*
G01X12000Y11094D01*
G01X15750Y8694D02*
G01X15750Y9544D01*
G01X14850Y10444D01*
G01X11450Y13094D02*
G01X11450Y11094D01*
G01X11750Y10794D01*
G01X14500Y10794D01*
G01X14850Y10444D01*
G01X13960Y11438D02*
G01X12685Y11438D01*
G01X12670Y11424D01*
G54D11*
G01X11250Y10194D02*
G01X11250Y9994D01*
G01X10760Y9503D01*
G01X9325Y9503D01*
G01X8394Y10428D01*
G01X8394Y18549D01*
G01X7900Y19044D01*
G01X7900Y19894D01*
G01X8250Y20244D01*
G54D15*
G01X5871Y22415D02*
G01X6250Y22044D01*
G01X6550Y22044D01*
G01X6950Y22444D01*
G01X7569Y22444D01*
G01X10019Y19994D01*
G01X12650Y19994D01*
G01X12802Y20184D01*
G01X19039Y20184D01*
G01X21000Y22144D01*
G01X21700Y22144D01*
G01X21722Y22122D01*
G01X18042Y20184D02*
G01X18042Y20102D01*
G01X18750Y19394D01*
G01X18750Y15894D01*
G01X18750Y15894D02*
G01X18750Y15344D01*
G01X18400Y14994D01*
G01X17500Y14994D01*
G01X17100Y14594D01*
G01X17100Y13794D01*
G01X17100Y13794D02*
G01X17100Y13344D01*
G01X18050Y12394D01*
G01X18050Y12044D01*
G54D11*
G01X9030Y20253D02*
G01X9030Y20244D01*
G01X8705Y20244D01*
G01X8205Y20744D01*
G01X7950Y20744D01*
G01X7250Y20044D01*
G54D41*
G01X6978Y6665D03*
G01X6621Y7022D03*
G01X21721Y22122D03*
G01X22078Y21765D03*
G54D42*
G01X13810Y8744D03*
G01X14589Y8744D03*
G54D43*
G01X18632Y12595D03*
G01X18632Y14501D03*
G54D41*
G01X21978Y6822D03*
G01X21621Y6465D03*
G01X5871Y22415D03*
G01X6228Y22772D03*
G54D24*
G01X9600Y11194D03*
G01X9894Y10997D03*
G01X9894Y11390D03*
G01X9305Y11390D03*
G01X9305Y10997D03*
G54D25*
G01X14850Y18044D03*
G01X14850Y17744D03*
G01X19450Y9744D03*
G01X8300Y19294D03*
G01X8969Y19684D03*
G01X10400Y11994D03*
G01X9450Y16794D03*
G01X11450Y13094D03*
G01X16550Y16244D03*
G01X16550Y16544D03*
G01X16850Y16544D03*
G01X17150Y16544D03*
G01X16250Y16244D03*
G01X17450Y16544D03*
G01X15400Y11344D03*
G01X16300Y11644D03*
G01X19300Y19544D03*
G01X13550Y10444D03*
G01X9800Y8744D03*
G01X15750Y8694D03*
G01X16650Y8844D03*
G01X12000Y11136D03*
G01X13960Y11438D03*
G01X11500Y15294D03*
G01X11500Y14994D03*
G01X16150Y12144D03*
G01X13200Y15344D03*
G01X13500Y15344D03*
G01X13800Y15344D03*
G01X14100Y15344D03*
G01X14400Y15344D03*
G01X14700Y15344D03*
G01X15000Y15344D03*
G01X15300Y15344D03*
G01X13200Y15044D03*
G01X13500Y15044D03*
G01X13800Y15044D03*
G01X14100Y15044D03*
G01X14400Y15044D03*
G01X14700Y15044D03*
G01X15000Y15044D03*
G01X15300Y15044D03*
G01X13200Y14744D03*
G01X13500Y14744D03*
G01X13800Y14744D03*
G01X14100Y14744D03*
G01X14400Y14744D03*
G01X14700Y14744D03*
G01X15000Y14744D03*
G01X15300Y14744D03*
G01X13200Y14444D03*
G01X13500Y14444D03*
G01X13800Y14444D03*
G01X14100Y14444D03*
G01X14400Y14444D03*
G01X14700Y14444D03*
G01X15000Y14444D03*
G01X15300Y14444D03*
G01X13200Y14144D03*
G01X13500Y14144D03*
G01X13800Y14144D03*
G01X14100Y14144D03*
G01X14400Y14144D03*
G01X14700Y14144D03*
G01X15000Y14144D03*
G01X15300Y14144D03*
G01X13200Y13844D03*
G01X13500Y13844D03*
G01X13800Y13844D03*
G01X14100Y13844D03*
G01X14400Y13844D03*
G01X14750Y13844D03*
G01X15000Y13844D03*
G01X15300Y13844D03*
G01X13200Y13544D03*
G01X13500Y13544D03*
G01X13800Y13544D03*
G01X14100Y13544D03*
G01X14400Y13544D03*
G01X14700Y13544D03*
G01X15000Y13544D03*
G01X15300Y13544D03*
G01X13200Y13244D03*
G01X13500Y13244D03*
G01X13800Y13244D03*
G01X14100Y13244D03*
G01X14400Y13244D03*
G01X14700Y13244D03*
G01X15000Y13244D03*
G01X15300Y13244D03*
G01X12675Y11428D03*
G01X11250Y10194D03*
G01X8263Y20228D03*
G01X18050Y12044D03*
G01X9300Y15444D03*
G01X9300Y14844D03*
G01X17250Y10394D03*
G01X18100Y9644D03*
G01X18400Y9644D03*
G01X18700Y9644D03*
G01X18700Y9944D03*
G01X17150Y8844D03*
G01X17150Y8544D03*
G01X8850Y17294D03*
G01X9150Y17294D03*
G01X11100Y19344D03*
G01X9030Y20253D03*
G01X7250Y20044D03*
G01X10050Y17094D03*
G01X8750Y20694D03*
G54D44*
G01X19518Y14969D02*
G01X19873Y14969D01*
G01X19518Y12119D02*
G01X19873Y12119D01*
M00*
M02*
