G04 ---------------------------- Layer name :BOTTOM LAYER*
G04 EasyEDA v5.6.15, Thu, 26 Jul 2018 23:31:00 GMT*
G04 524904d139c848fcb6349d0702f66ca3*
G04 Gerber Generator version 0.2*
G04 Scale: 100 percent, Rotated: No, Reflected: No *
G04 Dimensions in inches *
G04 leading zeros omitted , absolute positions ,2 integer and 4 decimal *
%FSLAX24Y24*%
%MOIN*%
G90*
G70D02*

%ADD11C,0.012000*%
%ADD13C,0.018000*%
%ADD15C,0.024000*%
%ADD18C,0.022000*%
%ADD24C,0.019700*%
%ADD25C,0.024400*%
%ADD41C,0.039370*%
%ADD42R,0.066000X0.066000*%
%ADD43C,0.059055*%
%ADD44C,0.051181*%

%LPD*%
G36*
G01X27300Y0D02*
G01X26650Y650D01*
G01X25150Y650D01*
G01X23850Y1950D01*
G01X23850Y2563D01*
G01X18350Y8063D01*
G01X10050Y8063D01*
G01X4550Y2563D01*
G01X4550Y1963D01*
G01X3200Y613D01*
G01X1750Y613D01*
G01X1150Y13D01*
G01X600Y13D01*
G01X0Y613D01*
G01X0Y1113D01*
G01X650Y1763D01*
G01X650Y3263D01*
G01X1950Y4563D01*
G01X2550Y4563D01*
G01X8050Y10063D01*
G01X8050Y18480D01*
G01X3248Y23282D01*
G01X2536Y23994D01*
G01X1950Y23994D01*
G01X600Y25344D01*
G01X600Y26794D01*
G01X0Y27394D01*
G01X0Y27944D01*
G01X600Y28544D01*
G01X1100Y28544D01*
G01X1750Y27894D01*
G01X3250Y27894D01*
G01X4550Y26594D01*
G01X4550Y25980D01*
G01X10050Y20463D01*
G01X18335Y20463D01*
G01X23138Y25265D01*
G01X23850Y25978D01*
G01X23850Y26563D01*
G01X25200Y27913D01*
G01X26650Y27913D01*
G01X27250Y28513D01*
G01X27800Y28513D01*
G01X28400Y27913D01*
G01X28400Y27413D01*
G01X27750Y26763D01*
G01X27750Y25263D01*
G01X26450Y23963D01*
G01X25835Y23963D01*
G01X20350Y18484D01*
G01X20350Y10063D01*
G01X25151Y5261D01*
G01X25864Y4550D01*
G01X26450Y4550D01*
G01X27800Y3200D01*
G01X27800Y1750D01*
G01X28400Y1150D01*
G01X28400Y600D01*
G01X27800Y0D01*
G01X27300Y0D01*
G37*

%LPC*%
G36*
G01X787Y27238D02*
G01X837Y27239D01*
G01X886Y27245D01*
G01X935Y27256D01*
G01X982Y27272D01*
G01X1028Y27293D01*
G01X1071Y27317D01*
G01X1111Y27347D01*
G01X1149Y27380D01*
G01X1183Y27416D01*
G01X1213Y27456D01*
G01X1239Y27498D01*
G01X1260Y27543D01*
G01X1277Y27590D01*
G01X1290Y27638D01*
G01X1297Y27688D01*
G01X1300Y27738D01*
G01X1297Y27787D01*
G01X1290Y27837D01*
G01X1277Y27885D01*
G01X1260Y27932D01*
G01X1239Y27977D01*
G01X1213Y28019D01*
G01X1183Y28059D01*
G01X1149Y28095D01*
G01X1111Y28128D01*
G01X1071Y28158D01*
G01X1028Y28182D01*
G01X982Y28203D01*
G01X935Y28219D01*
G01X886Y28230D01*
G01X837Y28236D01*
G01X787Y28237D01*
G01X737Y28234D01*
G01X688Y28225D01*
G01X640Y28211D01*
G01X594Y28193D01*
G01X550Y28171D01*
G01X508Y28143D01*
G01X469Y28112D01*
G01X433Y28078D01*
G01X401Y28039D01*
G01X373Y27998D01*
G01X349Y27954D01*
G01X330Y27909D01*
G01X315Y27861D01*
G01X305Y27812D01*
G01X300Y27762D01*
G01X300Y27713D01*
G01X305Y27663D01*
G01X315Y27614D01*
G01X330Y27566D01*
G01X349Y27521D01*
G01X373Y27477D01*
G01X401Y27436D01*
G01X433Y27397D01*
G01X469Y27363D01*
G01X508Y27332D01*
G01X550Y27304D01*
G01X594Y27282D01*
G01X640Y27264D01*
G01X688Y27250D01*
G01X737Y27241D01*
G01X787Y27238D01*
G37*
G36*
G01X27587Y294D02*
G01X27637Y295D01*
G01X27686Y301D01*
G01X27735Y312D01*
G01X27782Y328D01*
G01X27828Y349D01*
G01X27871Y373D01*
G01X27911Y403D01*
G01X27949Y436D01*
G01X27983Y472D01*
G01X28013Y512D01*
G01X28039Y554D01*
G01X28060Y599D01*
G01X28077Y646D01*
G01X28090Y694D01*
G01X28097Y744D01*
G01X28100Y794D01*
G01X28097Y843D01*
G01X28090Y893D01*
G01X28077Y941D01*
G01X28060Y988D01*
G01X28039Y1033D01*
G01X28013Y1075D01*
G01X27983Y1115D01*
G01X27949Y1151D01*
G01X27911Y1184D01*
G01X27871Y1214D01*
G01X27828Y1238D01*
G01X27782Y1259D01*
G01X27735Y1275D01*
G01X27686Y1286D01*
G01X27637Y1292D01*
G01X27587Y1293D01*
G01X27537Y1290D01*
G01X27488Y1281D01*
G01X27440Y1267D01*
G01X27394Y1249D01*
G01X27350Y1227D01*
G01X27308Y1199D01*
G01X27269Y1168D01*
G01X27233Y1134D01*
G01X27201Y1095D01*
G01X27173Y1054D01*
G01X27149Y1010D01*
G01X27130Y965D01*
G01X27115Y917D01*
G01X27105Y868D01*
G01X27100Y818D01*
G01X27100Y769D01*
G01X27105Y719D01*
G01X27115Y670D01*
G01X27130Y622D01*
G01X27149Y577D01*
G01X27173Y533D01*
G01X27201Y492D01*
G01X27233Y453D01*
G01X27269Y419D01*
G01X27308Y388D01*
G01X27350Y360D01*
G01X27394Y338D01*
G01X27440Y320D01*
G01X27488Y306D01*
G01X27537Y297D01*
G01X27587Y294D01*
G37*
G36*
G01X773Y308D02*
G01X823Y309D01*
G01X872Y315D01*
G01X921Y326D01*
G01X968Y342D01*
G01X1014Y363D01*
G01X1057Y387D01*
G01X1097Y417D01*
G01X1135Y450D01*
G01X1169Y486D01*
G01X1199Y526D01*
G01X1225Y568D01*
G01X1246Y613D01*
G01X1263Y660D01*
G01X1276Y708D01*
G01X1283Y758D01*
G01X1286Y807D01*
G01X1283Y857D01*
G01X1276Y907D01*
G01X1263Y955D01*
G01X1246Y1002D01*
G01X1225Y1047D01*
G01X1199Y1089D01*
G01X1169Y1129D01*
G01X1135Y1165D01*
G01X1097Y1198D01*
G01X1057Y1228D01*
G01X1014Y1252D01*
G01X968Y1273D01*
G01X921Y1289D01*
G01X872Y1300D01*
G01X823Y1306D01*
G01X773Y1307D01*
G01X723Y1304D01*
G01X674Y1295D01*
G01X626Y1281D01*
G01X580Y1263D01*
G01X536Y1241D01*
G01X494Y1213D01*
G01X455Y1182D01*
G01X419Y1148D01*
G01X387Y1109D01*
G01X359Y1068D01*
G01X335Y1024D01*
G01X316Y979D01*
G01X301Y931D01*
G01X291Y882D01*
G01X286Y832D01*
G01X286Y783D01*
G01X291Y733D01*
G01X301Y684D01*
G01X316Y636D01*
G01X335Y591D01*
G01X359Y547D01*
G01X387Y506D01*
G01X419Y467D01*
G01X455Y433D01*
G01X494Y402D01*
G01X536Y374D01*
G01X580Y352D01*
G01X626Y334D01*
G01X674Y320D01*
G01X723Y311D01*
G01X773Y308D01*
G37*
G36*
G01X25762Y1094D02*
G01X25912Y1098D01*
G01X26060Y1116D01*
G01X26206Y1150D01*
G01X26348Y1197D01*
G01X26484Y1259D01*
G01X26613Y1333D01*
G01X26735Y1421D01*
G01X26847Y1520D01*
G01X26949Y1629D01*
G01X27039Y1749D01*
G01X27117Y1876D01*
G01X27182Y2011D01*
G01X27233Y2151D01*
G01X27270Y2296D01*
G01X27292Y2444D01*
G01X27300Y2594D01*
G01X27292Y2743D01*
G01X27270Y2891D01*
G01X27233Y3036D01*
G01X27182Y3176D01*
G01X27117Y3311D01*
G01X27039Y3438D01*
G01X26949Y3558D01*
G01X26847Y3667D01*
G01X26735Y3766D01*
G01X26613Y3854D01*
G01X26484Y3928D01*
G01X26348Y3990D01*
G01X26206Y4037D01*
G01X26060Y4071D01*
G01X25912Y4089D01*
G01X25762Y4093D01*
G01X25613Y4082D01*
G01X25466Y4056D01*
G01X25322Y4015D01*
G01X25183Y3961D01*
G01X25050Y3893D01*
G01X24924Y3811D01*
G01X24807Y3718D01*
G01X24700Y3614D01*
G01X24604Y3499D01*
G01X24520Y3376D01*
G01X24448Y3244D01*
G01X24390Y3107D01*
G01X24346Y2964D01*
G01X24316Y2817D01*
G01X24301Y2668D01*
G01X24301Y2519D01*
G01X24316Y2370D01*
G01X24346Y2223D01*
G01X24390Y2080D01*
G01X24448Y1943D01*
G01X24520Y1811D01*
G01X24604Y1688D01*
G01X24700Y1573D01*
G01X24807Y1469D01*
G01X24924Y1376D01*
G01X25050Y1294D01*
G01X25183Y1226D01*
G01X25322Y1172D01*
G01X25466Y1131D01*
G01X25613Y1105D01*
G01X25762Y1094D01*
G37*
G36*
G01X2548Y1108D02*
G01X2698Y1112D01*
G01X2846Y1130D01*
G01X2992Y1164D01*
G01X3134Y1211D01*
G01X3270Y1273D01*
G01X3399Y1347D01*
G01X3521Y1435D01*
G01X3633Y1534D01*
G01X3735Y1643D01*
G01X3825Y1763D01*
G01X3903Y1890D01*
G01X3968Y2025D01*
G01X4019Y2165D01*
G01X4056Y2310D01*
G01X4078Y2458D01*
G01X4086Y2607D01*
G01X4078Y2757D01*
G01X4056Y2905D01*
G01X4019Y3050D01*
G01X3968Y3190D01*
G01X3903Y3325D01*
G01X3825Y3452D01*
G01X3735Y3572D01*
G01X3633Y3681D01*
G01X3521Y3780D01*
G01X3399Y3868D01*
G01X3270Y3942D01*
G01X3134Y4004D01*
G01X2992Y4051D01*
G01X2846Y4085D01*
G01X2698Y4103D01*
G01X2548Y4107D01*
G01X2399Y4096D01*
G01X2252Y4070D01*
G01X2108Y4029D01*
G01X1969Y3975D01*
G01X1836Y3907D01*
G01X1710Y3825D01*
G01X1593Y3732D01*
G01X1486Y3628D01*
G01X1390Y3513D01*
G01X1306Y3390D01*
G01X1234Y3258D01*
G01X1176Y3121D01*
G01X1132Y2978D01*
G01X1102Y2831D01*
G01X1087Y2682D01*
G01X1087Y2533D01*
G01X1102Y2384D01*
G01X1132Y2237D01*
G01X1176Y2094D01*
G01X1234Y1957D01*
G01X1306Y1825D01*
G01X1390Y1702D01*
G01X1486Y1587D01*
G01X1593Y1483D01*
G01X1710Y1390D01*
G01X1836Y1308D01*
G01X1969Y1240D01*
G01X2108Y1186D01*
G01X2252Y1145D01*
G01X2399Y1119D01*
G01X2548Y1108D01*
G37*
G36*
G01X21614Y6169D02*
G01X21643Y6169D01*
G01X21673Y6173D01*
G01X21702Y6180D01*
G01X21730Y6189D01*
G01X21757Y6201D01*
G01X21782Y6216D01*
G01X21806Y6233D01*
G01X21829Y6253D01*
G01X21849Y6274D01*
G01X21867Y6298D01*
G01X21882Y6323D01*
G01X21895Y6350D01*
G01X21905Y6378D01*
G01X21912Y6406D01*
G01X21917Y6436D01*
G01X21918Y6465D01*
G01X21917Y6495D01*
G01X21912Y6524D01*
G01X21910Y6533D01*
G01X21912Y6532D01*
G01X21941Y6527D01*
G01X21970Y6525D01*
G01X22000Y6526D01*
G01X22029Y6529D01*
G01X22058Y6536D01*
G01X22086Y6545D01*
G01X22113Y6558D01*
G01X22139Y6572D01*
G01X22163Y6590D01*
G01X22185Y6609D01*
G01X22205Y6631D01*
G01X22223Y6654D01*
G01X22238Y6680D01*
G01X22251Y6706D01*
G01X22261Y6734D01*
G01X22269Y6763D01*
G01X22273Y6792D01*
G01X22275Y6822D01*
G01X22273Y6851D01*
G01X22269Y6881D01*
G01X22261Y6909D01*
G01X22251Y6937D01*
G01X22238Y6964D01*
G01X22223Y6989D01*
G01X22205Y7013D01*
G01X22185Y7034D01*
G01X22163Y7054D01*
G01X22139Y7071D01*
G01X22113Y7086D01*
G01X22086Y7098D01*
G01X22058Y7107D01*
G01X22029Y7114D01*
G01X22000Y7118D01*
G01X21970Y7118D01*
G01X21941Y7116D01*
G01X21912Y7111D01*
G01X21883Y7103D01*
G01X21856Y7092D01*
G01X21829Y7079D01*
G01X21804Y7063D01*
G01X21781Y7044D01*
G01X21760Y7024D01*
G01X21741Y7001D01*
G01X21724Y6976D01*
G01X21710Y6951D01*
G01X21699Y6923D01*
G01X21690Y6895D01*
G01X21684Y6866D01*
G01X21681Y6836D01*
G01X21681Y6807D01*
G01X21684Y6777D01*
G01X21689Y6754D01*
G01X21673Y6758D01*
G01X21643Y6761D01*
G01X21614Y6762D01*
G01X21584Y6760D01*
G01X21555Y6755D01*
G01X21527Y6747D01*
G01X21499Y6736D01*
G01X21473Y6722D01*
G01X21448Y6706D01*
G01X21425Y6688D01*
G01X21404Y6667D01*
G01X21385Y6645D01*
G01X21368Y6620D01*
G01X21354Y6594D01*
G01X21342Y6567D01*
G01X21334Y6539D01*
G01X21328Y6510D01*
G01X21325Y6480D01*
G01X21325Y6451D01*
G01X21328Y6421D01*
G01X21334Y6392D01*
G01X21342Y6364D01*
G01X21354Y6336D01*
G01X21368Y6311D01*
G01X21385Y6286D01*
G01X21404Y6263D01*
G01X21425Y6243D01*
G01X21448Y6224D01*
G01X21473Y6208D01*
G01X21499Y6195D01*
G01X21527Y6184D01*
G01X21555Y6176D01*
G01X21584Y6171D01*
G01X21614Y6169D01*
G37*
G36*
G01X6970Y6369D02*
G01X7000Y6369D01*
G01X7029Y6373D01*
G01X7058Y6380D01*
G01X7086Y6389D01*
G01X7113Y6401D01*
G01X7139Y6416D01*
G01X7163Y6433D01*
G01X7185Y6453D01*
G01X7205Y6474D01*
G01X7223Y6498D01*
G01X7238Y6523D01*
G01X7251Y6550D01*
G01X7261Y6578D01*
G01X7269Y6606D01*
G01X7273Y6636D01*
G01X7275Y6665D01*
G01X7273Y6695D01*
G01X7269Y6724D01*
G01X7261Y6753D01*
G01X7251Y6781D01*
G01X7238Y6807D01*
G01X7223Y6833D01*
G01X7205Y6856D01*
G01X7185Y6878D01*
G01X7163Y6897D01*
G01X7139Y6915D01*
G01X7113Y6929D01*
G01X7086Y6942D01*
G01X7058Y6951D01*
G01X7029Y6958D01*
G01X7000Y6961D01*
G01X6970Y6962D01*
G01X6941Y6960D01*
G01X6912Y6955D01*
G01X6910Y6954D01*
G01X6912Y6963D01*
G01X6917Y6992D01*
G01X6918Y7022D01*
G01X6917Y7051D01*
G01X6912Y7081D01*
G01X6905Y7109D01*
G01X6895Y7137D01*
G01X6882Y7164D01*
G01X6867Y7189D01*
G01X6849Y7213D01*
G01X6829Y7234D01*
G01X6806Y7254D01*
G01X6782Y7271D01*
G01X6757Y7286D01*
G01X6730Y7298D01*
G01X6702Y7307D01*
G01X6673Y7314D01*
G01X6643Y7318D01*
G01X6614Y7318D01*
G01X6584Y7316D01*
G01X6555Y7311D01*
G01X6527Y7303D01*
G01X6499Y7292D01*
G01X6473Y7279D01*
G01X6448Y7263D01*
G01X6425Y7244D01*
G01X6404Y7224D01*
G01X6385Y7201D01*
G01X6368Y7176D01*
G01X6354Y7151D01*
G01X6342Y7123D01*
G01X6334Y7095D01*
G01X6328Y7066D01*
G01X6325Y7036D01*
G01X6325Y7007D01*
G01X6328Y6977D01*
G01X6334Y6948D01*
G01X6342Y6920D01*
G01X6354Y6893D01*
G01X6368Y6867D01*
G01X6385Y6842D01*
G01X6404Y6820D01*
G01X6425Y6799D01*
G01X6448Y6781D01*
G01X6473Y6765D01*
G01X6499Y6751D01*
G01X6527Y6740D01*
G01X6555Y6732D01*
G01X6584Y6727D01*
G01X6614Y6725D01*
G01X6643Y6726D01*
G01X6673Y6729D01*
G01X6689Y6733D01*
G01X6684Y6710D01*
G01X6681Y6680D01*
G01X6681Y6651D01*
G01X6684Y6621D01*
G01X6690Y6592D01*
G01X6699Y6564D01*
G01X6710Y6536D01*
G01X6724Y6511D01*
G01X6741Y6486D01*
G01X6760Y6463D01*
G01X6781Y6443D01*
G01X6804Y6424D01*
G01X6829Y6408D01*
G01X6856Y6395D01*
G01X6883Y6384D01*
G01X6912Y6376D01*
G01X6941Y6371D01*
G01X6970Y6369D01*
G37*
G36*
G01X27587Y27208D02*
G01X27637Y27209D01*
G01X27686Y27215D01*
G01X27735Y27226D01*
G01X27782Y27242D01*
G01X27828Y27263D01*
G01X27871Y27287D01*
G01X27911Y27317D01*
G01X27949Y27350D01*
G01X27983Y27386D01*
G01X28013Y27426D01*
G01X28039Y27468D01*
G01X28060Y27513D01*
G01X28077Y27560D01*
G01X28090Y27608D01*
G01X28097Y27658D01*
G01X28100Y27707D01*
G01X28097Y27757D01*
G01X28090Y27807D01*
G01X28077Y27855D01*
G01X28060Y27902D01*
G01X28039Y27947D01*
G01X28013Y27989D01*
G01X27983Y28029D01*
G01X27949Y28065D01*
G01X27911Y28098D01*
G01X27871Y28128D01*
G01X27828Y28152D01*
G01X27782Y28173D01*
G01X27735Y28189D01*
G01X27686Y28200D01*
G01X27637Y28206D01*
G01X27587Y28207D01*
G01X27537Y28204D01*
G01X27488Y28195D01*
G01X27440Y28181D01*
G01X27394Y28163D01*
G01X27350Y28141D01*
G01X27308Y28113D01*
G01X27269Y28082D01*
G01X27233Y28048D01*
G01X27201Y28009D01*
G01X27173Y27968D01*
G01X27149Y27924D01*
G01X27130Y27879D01*
G01X27115Y27831D01*
G01X27105Y27782D01*
G01X27100Y27732D01*
G01X27100Y27683D01*
G01X27105Y27633D01*
G01X27115Y27584D01*
G01X27130Y27536D01*
G01X27149Y27491D01*
G01X27173Y27447D01*
G01X27201Y27406D01*
G01X27233Y27367D01*
G01X27269Y27333D01*
G01X27308Y27302D01*
G01X27350Y27274D01*
G01X27394Y27252D01*
G01X27440Y27234D01*
G01X27488Y27220D01*
G01X27537Y27211D01*
G01X27587Y27208D01*
G37*
G36*
G01X2562Y24438D02*
G01X2712Y24442D01*
G01X2860Y24460D01*
G01X3006Y24494D01*
G01X3148Y24541D01*
G01X3284Y24603D01*
G01X3413Y24677D01*
G01X3535Y24765D01*
G01X3647Y24864D01*
G01X3749Y24973D01*
G01X3839Y25093D01*
G01X3917Y25220D01*
G01X3982Y25355D01*
G01X4033Y25495D01*
G01X4070Y25640D01*
G01X4092Y25788D01*
G01X4100Y25938D01*
G01X4092Y26087D01*
G01X4070Y26235D01*
G01X4033Y26380D01*
G01X3982Y26520D01*
G01X3917Y26655D01*
G01X3839Y26782D01*
G01X3749Y26902D01*
G01X3647Y27011D01*
G01X3535Y27110D01*
G01X3413Y27198D01*
G01X3284Y27272D01*
G01X3148Y27334D01*
G01X3006Y27381D01*
G01X2860Y27415D01*
G01X2712Y27433D01*
G01X2562Y27437D01*
G01X2413Y27426D01*
G01X2266Y27400D01*
G01X2122Y27359D01*
G01X1983Y27305D01*
G01X1850Y27237D01*
G01X1724Y27155D01*
G01X1607Y27062D01*
G01X1500Y26958D01*
G01X1404Y26843D01*
G01X1320Y26720D01*
G01X1248Y26588D01*
G01X1190Y26451D01*
G01X1146Y26308D01*
G01X1116Y26161D01*
G01X1101Y26012D01*
G01X1101Y25863D01*
G01X1116Y25714D01*
G01X1146Y25567D01*
G01X1190Y25424D01*
G01X1248Y25287D01*
G01X1320Y25155D01*
G01X1404Y25032D01*
G01X1500Y24917D01*
G01X1607Y24813D01*
G01X1724Y24720D01*
G01X1850Y24638D01*
G01X1983Y24570D01*
G01X2122Y24516D01*
G01X2266Y24475D01*
G01X2413Y24449D01*
G01X2562Y24438D01*
G37*
G36*
G01X25762Y24408D02*
G01X25912Y24412D01*
G01X26060Y24430D01*
G01X26206Y24464D01*
G01X26348Y24511D01*
G01X26484Y24573D01*
G01X26613Y24647D01*
G01X26735Y24735D01*
G01X26847Y24834D01*
G01X26949Y24943D01*
G01X27039Y25063D01*
G01X27117Y25190D01*
G01X27182Y25325D01*
G01X27233Y25465D01*
G01X27270Y25610D01*
G01X27292Y25758D01*
G01X27300Y25907D01*
G01X27292Y26057D01*
G01X27270Y26205D01*
G01X27233Y26350D01*
G01X27182Y26490D01*
G01X27117Y26625D01*
G01X27039Y26752D01*
G01X26949Y26872D01*
G01X26847Y26981D01*
G01X26735Y27080D01*
G01X26613Y27168D01*
G01X26484Y27242D01*
G01X26348Y27304D01*
G01X26206Y27351D01*
G01X26060Y27385D01*
G01X25912Y27403D01*
G01X25762Y27407D01*
G01X25613Y27396D01*
G01X25466Y27370D01*
G01X25322Y27329D01*
G01X25183Y27275D01*
G01X25050Y27207D01*
G01X24924Y27125D01*
G01X24807Y27032D01*
G01X24700Y26928D01*
G01X24604Y26813D01*
G01X24520Y26690D01*
G01X24448Y26558D01*
G01X24390Y26421D01*
G01X24346Y26278D01*
G01X24316Y26131D01*
G01X24301Y25982D01*
G01X24301Y25833D01*
G01X24316Y25684D01*
G01X24346Y25537D01*
G01X24390Y25394D01*
G01X24448Y25257D01*
G01X24520Y25125D01*
G01X24604Y25002D01*
G01X24700Y24887D01*
G01X24807Y24783D01*
G01X24924Y24690D01*
G01X25050Y24608D01*
G01X25183Y24540D01*
G01X25322Y24486D01*
G01X25466Y24445D01*
G01X25613Y24419D01*
G01X25762Y24408D01*
G37*
G36*
G01X8294Y19072D02*
G01X8316Y19072D01*
G01X8338Y19075D01*
G01X8360Y19080D01*
G01X8381Y19087D01*
G01X8401Y19096D01*
G01X8420Y19107D01*
G01X8438Y19120D01*
G01X8453Y19134D01*
G01X8600Y19134D01*
G01X8605Y19134D01*
G01X8610Y19134D01*
G01X8616Y19134D01*
G01X8621Y19135D01*
G01X8627Y19136D01*
G01X8632Y19137D01*
G01X8637Y19138D01*
G01X8643Y19139D01*
G01X8648Y19141D01*
G01X8653Y19143D01*
G01X8658Y19145D01*
G01X8663Y19147D01*
G01X8668Y19149D01*
G01X8673Y19151D01*
G01X8678Y19154D01*
G01X8683Y19157D01*
G01X8687Y19160D01*
G01X8692Y19163D01*
G01X8696Y19166D01*
G01X8700Y19169D01*
G01X8705Y19173D01*
G01X8709Y19177D01*
G01X8713Y19180D01*
G01X9054Y19522D01*
G01X9066Y19522D01*
G01X9088Y19525D01*
G01X9110Y19530D01*
G01X9131Y19537D01*
G01X9151Y19546D01*
G01X9170Y19557D01*
G01X9188Y19570D01*
G01X9205Y19585D01*
G01X9220Y19601D01*
G01X9233Y19618D01*
G01X9244Y19637D01*
G01X9254Y19657D01*
G01X9262Y19678D01*
G01X9267Y19700D01*
G01X9270Y19721D01*
G01X9271Y19744D01*
G01X9270Y19766D01*
G01X9267Y19787D01*
G01X9262Y19809D01*
G01X9254Y19830D01*
G01X9244Y19850D01*
G01X9233Y19869D01*
G01X9220Y19886D01*
G01X9205Y19902D01*
G01X9188Y19917D01*
G01X9170Y19930D01*
G01X9151Y19941D01*
G01X9131Y19950D01*
G01X9110Y19957D01*
G01X9088Y19962D01*
G01X9066Y19965D01*
G01X9044Y19965D01*
G01X9022Y19964D01*
G01X9000Y19960D01*
G01X8979Y19954D01*
G01X8958Y19946D01*
G01X8938Y19936D01*
G01X8920Y19924D01*
G01X8903Y19910D01*
G01X8887Y19895D01*
G01X8873Y19878D01*
G01X8860Y19859D01*
G01X8849Y19840D01*
G01X8841Y19819D01*
G01X8834Y19798D01*
G01X8830Y19777D01*
G01X8828Y19755D01*
G01X8828Y19748D01*
G01X8533Y19453D01*
G01X8453Y19453D01*
G01X8438Y19467D01*
G01X8420Y19480D01*
G01X8401Y19491D01*
G01X8381Y19500D01*
G01X8360Y19507D01*
G01X8338Y19512D01*
G01X8316Y19515D01*
G01X8294Y19515D01*
G01X8272Y19514D01*
G01X8250Y19510D01*
G01X8229Y19504D01*
G01X8208Y19496D01*
G01X8188Y19486D01*
G01X8170Y19474D01*
G01X8153Y19460D01*
G01X8137Y19445D01*
G01X8123Y19428D01*
G01X8110Y19409D01*
G01X8099Y19390D01*
G01X8091Y19369D01*
G01X8084Y19348D01*
G01X8080Y19327D01*
G01X8078Y19305D01*
G01X8078Y19282D01*
G01X8080Y19260D01*
G01X8084Y19239D01*
G01X8091Y19218D01*
G01X8099Y19197D01*
G01X8110Y19178D01*
G01X8123Y19159D01*
G01X8137Y19142D01*
G01X8153Y19127D01*
G01X8170Y19113D01*
G01X8188Y19101D01*
G01X8208Y19091D01*
G01X8229Y19083D01*
G01X8250Y19077D01*
G01X8272Y19073D01*
G01X8294Y19072D01*
G37*
G36*
G01X14755Y8313D02*
G01X14919Y8313D01*
G01X14924Y8314D01*
G01X14928Y8314D01*
G01X14932Y8314D01*
G01X14936Y8315D01*
G01X14940Y8316D01*
G01X14944Y8317D01*
G01X14948Y8318D01*
G01X14952Y8319D01*
G01X14956Y8320D01*
G01X14960Y8322D01*
G01X14963Y8324D01*
G01X14967Y8326D01*
G01X14971Y8328D01*
G01X14974Y8330D01*
G01X14978Y8332D01*
G01X14981Y8335D01*
G01X14984Y8337D01*
G01X14987Y8340D01*
G01X14990Y8343D01*
G01X14993Y8346D01*
G01X14996Y8349D01*
G01X14998Y8352D01*
G01X15001Y8355D01*
G01X15003Y8359D01*
G01X15005Y8362D01*
G01X15007Y8366D01*
G01X15009Y8370D01*
G01X15011Y8373D01*
G01X15013Y8377D01*
G01X15014Y8381D01*
G01X15015Y8385D01*
G01X15016Y8389D01*
G01X15017Y8393D01*
G01X15018Y8397D01*
G01X15019Y8401D01*
G01X15019Y8405D01*
G01X15019Y8409D01*
G01X15019Y8413D01*
G01X15019Y8578D01*
G01X14755Y8578D01*
G01X14755Y8313D01*
G37*
G36*
G01X13480Y8313D02*
G01X14139Y8313D01*
G01X14144Y8314D01*
G01X14148Y8314D01*
G01X14152Y8314D01*
G01X14156Y8315D01*
G01X14160Y8316D01*
G01X14164Y8317D01*
G01X14168Y8318D01*
G01X14172Y8319D01*
G01X14176Y8320D01*
G01X14180Y8322D01*
G01X14183Y8324D01*
G01X14187Y8326D01*
G01X14191Y8328D01*
G01X14194Y8330D01*
G01X14198Y8332D01*
G01X14200Y8334D01*
G01X14201Y8332D01*
G01X14205Y8330D01*
G01X14208Y8328D01*
G01X14212Y8326D01*
G01X14216Y8324D01*
G01X14219Y8322D01*
G01X14223Y8320D01*
G01X14227Y8319D01*
G01X14231Y8318D01*
G01X14235Y8317D01*
G01X14239Y8316D01*
G01X14243Y8315D01*
G01X14247Y8314D01*
G01X14251Y8314D01*
G01X14255Y8314D01*
G01X14260Y8313D01*
G01X14425Y8313D01*
G01X14425Y8578D01*
G01X14239Y8578D01*
G01X14239Y8909D01*
G01X14425Y8909D01*
G01X14425Y9174D01*
G01X14260Y9174D01*
G01X14255Y9173D01*
G01X14251Y9173D01*
G01X14247Y9173D01*
G01X14243Y9172D01*
G01X14239Y9171D01*
G01X14235Y9170D01*
G01X14231Y9169D01*
G01X14227Y9168D01*
G01X14223Y9167D01*
G01X14219Y9165D01*
G01X14216Y9163D01*
G01X14212Y9161D01*
G01X14208Y9159D01*
G01X14205Y9157D01*
G01X14201Y9155D01*
G01X14200Y9153D01*
G01X14198Y9155D01*
G01X14194Y9157D01*
G01X14191Y9159D01*
G01X14187Y9161D01*
G01X14183Y9163D01*
G01X14180Y9165D01*
G01X14176Y9167D01*
G01X14172Y9168D01*
G01X14168Y9169D01*
G01X14164Y9170D01*
G01X14160Y9171D01*
G01X14156Y9172D01*
G01X14152Y9173D01*
G01X14148Y9173D01*
G01X14144Y9173D01*
G01X14139Y9174D01*
G01X13480Y9174D01*
G01X13475Y9173D01*
G01X13471Y9173D01*
G01X13467Y9173D01*
G01X13463Y9172D01*
G01X13459Y9171D01*
G01X13455Y9170D01*
G01X13451Y9169D01*
G01X13447Y9168D01*
G01X13443Y9167D01*
G01X13439Y9165D01*
G01X13436Y9163D01*
G01X13432Y9161D01*
G01X13428Y9159D01*
G01X13425Y9157D01*
G01X13421Y9155D01*
G01X13418Y9152D01*
G01X13415Y9150D01*
G01X13412Y9147D01*
G01X13409Y9144D01*
G01X13406Y9141D01*
G01X13403Y9138D01*
G01X13401Y9135D01*
G01X13398Y9132D01*
G01X13396Y9128D01*
G01X13394Y9125D01*
G01X13392Y9121D01*
G01X13390Y9117D01*
G01X13388Y9114D01*
G01X13386Y9110D01*
G01X13385Y9106D01*
G01X13384Y9102D01*
G01X13383Y9098D01*
G01X13382Y9094D01*
G01X13381Y9090D01*
G01X13380Y9086D01*
G01X13380Y9082D01*
G01X13380Y9078D01*
G01X13380Y9074D01*
G01X13380Y8413D01*
G01X13380Y8409D01*
G01X13380Y8405D01*
G01X13380Y8401D01*
G01X13381Y8397D01*
G01X13382Y8393D01*
G01X13383Y8389D01*
G01X13384Y8385D01*
G01X13385Y8381D01*
G01X13386Y8377D01*
G01X13388Y8373D01*
G01X13390Y8370D01*
G01X13392Y8366D01*
G01X13394Y8362D01*
G01X13396Y8359D01*
G01X13398Y8355D01*
G01X13401Y8352D01*
G01X13403Y8349D01*
G01X13406Y8346D01*
G01X13409Y8343D01*
G01X13412Y8340D01*
G01X13415Y8337D01*
G01X13418Y8335D01*
G01X13421Y8332D01*
G01X13425Y8330D01*
G01X13428Y8328D01*
G01X13432Y8326D01*
G01X13436Y8324D01*
G01X13439Y8322D01*
G01X13443Y8320D01*
G01X13447Y8319D01*
G01X13451Y8318D01*
G01X13455Y8317D01*
G01X13459Y8316D01*
G01X13463Y8315D01*
G01X13467Y8314D01*
G01X13471Y8314D01*
G01X13475Y8314D01*
G01X13480Y8313D01*
G37*
G36*
G01X10394Y11772D02*
G01X10416Y11772D01*
G01X10438Y11775D01*
G01X10460Y11780D01*
G01X10481Y11787D01*
G01X10501Y11796D01*
G01X10520Y11807D01*
G01X10538Y11820D01*
G01X10555Y11835D01*
G01X10570Y11851D01*
G01X10583Y11868D01*
G01X10594Y11887D01*
G01X10604Y11907D01*
G01X10612Y11928D01*
G01X10617Y11950D01*
G01X10620Y11971D01*
G01X10622Y11994D01*
G01X10620Y12016D01*
G01X10617Y12037D01*
G01X10612Y12059D01*
G01X10610Y12065D01*
G01X10610Y13344D01*
G01X10609Y13350D01*
G01X10609Y13356D01*
G01X10609Y13362D01*
G01X10608Y13368D01*
G01X10607Y13374D01*
G01X10606Y13380D01*
G01X10605Y13386D01*
G01X10604Y13392D01*
G01X10602Y13398D01*
G01X10601Y13404D01*
G01X10599Y13410D01*
G01X10597Y13415D01*
G01X10595Y13421D01*
G01X10592Y13427D01*
G01X10590Y13432D01*
G01X10587Y13438D01*
G01X10584Y13443D01*
G01X10581Y13449D01*
G01X10578Y13454D01*
G01X10575Y13459D01*
G01X10572Y13464D01*
G01X10568Y13469D01*
G01X10564Y13474D01*
G01X10560Y13478D01*
G01X10556Y13483D01*
G01X10552Y13488D01*
G01X10548Y13492D01*
G01X10398Y13642D01*
G01X10394Y13646D01*
G01X10389Y13650D01*
G01X10384Y13654D01*
G01X10380Y13658D01*
G01X10375Y13662D01*
G01X10370Y13666D01*
G01X10365Y13669D01*
G01X10360Y13672D01*
G01X10355Y13675D01*
G01X10349Y13678D01*
G01X10344Y13681D01*
G01X10338Y13684D01*
G01X10333Y13686D01*
G01X10327Y13689D01*
G01X10321Y13691D01*
G01X10316Y13693D01*
G01X10310Y13695D01*
G01X10304Y13696D01*
G01X10298Y13698D01*
G01X10292Y13699D01*
G01X10286Y13700D01*
G01X10280Y13701D01*
G01X10274Y13702D01*
G01X10268Y13703D01*
G01X10262Y13703D01*
G01X10256Y13703D01*
G01X10250Y13703D01*
G01X9036Y13703D01*
G01X9009Y13730D01*
G01X9009Y16207D01*
G01X9384Y16581D01*
G01X9400Y16577D01*
G01X9422Y16573D01*
G01X9444Y16572D01*
G01X9466Y16572D01*
G01X9488Y16575D01*
G01X9510Y16580D01*
G01X9531Y16587D01*
G01X9551Y16596D01*
G01X9570Y16607D01*
G01X9588Y16620D01*
G01X9605Y16635D01*
G01X9620Y16651D01*
G01X9633Y16668D01*
G01X9644Y16687D01*
G01X9654Y16707D01*
G01X9662Y16728D01*
G01X9667Y16750D01*
G01X9670Y16771D01*
G01X9672Y16794D01*
G01X9670Y16816D01*
G01X9667Y16837D01*
G01X9662Y16859D01*
G01X9654Y16880D01*
G01X9644Y16900D01*
G01X9633Y16919D01*
G01X9620Y16936D01*
G01X9605Y16952D01*
G01X9588Y16967D01*
G01X9570Y16980D01*
G01X9551Y16991D01*
G01X9531Y17000D01*
G01X9510Y17007D01*
G01X9488Y17012D01*
G01X9466Y17015D01*
G01X9444Y17015D01*
G01X9422Y17014D01*
G01X9400Y17010D01*
G01X9379Y17004D01*
G01X9378Y17003D01*
G01X9300Y17003D01*
G01X9293Y17003D01*
G01X9287Y17003D01*
G01X9281Y17003D01*
G01X9275Y17002D01*
G01X9269Y17001D01*
G01X9263Y17000D01*
G01X9257Y16999D01*
G01X9251Y16998D01*
G01X9245Y16996D01*
G01X9239Y16995D01*
G01X9233Y16993D01*
G01X9228Y16991D01*
G01X9222Y16989D01*
G01X9216Y16986D01*
G01X9211Y16984D01*
G01X9205Y16981D01*
G01X9200Y16978D01*
G01X9194Y16975D01*
G01X9189Y16972D01*
G01X9184Y16969D01*
G01X9179Y16966D01*
G01X9174Y16962D01*
G01X9169Y16958D01*
G01X9165Y16954D01*
G01X9160Y16950D01*
G01X9155Y16946D01*
G01X9151Y16942D01*
G01X8651Y16442D01*
G01X8647Y16438D01*
G01X8643Y16433D01*
G01X8639Y16428D01*
G01X8635Y16424D01*
G01X8631Y16419D01*
G01X8627Y16414D01*
G01X8624Y16409D01*
G01X8621Y16404D01*
G01X8618Y16399D01*
G01X8615Y16393D01*
G01X8612Y16388D01*
G01X8609Y16382D01*
G01X8607Y16377D01*
G01X8604Y16371D01*
G01X8602Y16365D01*
G01X8600Y16360D01*
G01X8598Y16354D01*
G01X8597Y16348D01*
G01X8595Y16342D01*
G01X8594Y16336D01*
G01X8593Y16330D01*
G01X8592Y16324D01*
G01X8591Y16318D01*
G01X8590Y16312D01*
G01X8590Y16306D01*
G01X8590Y16300D01*
G01X8590Y16294D01*
G01X8590Y13644D01*
G01X8590Y13637D01*
G01X8590Y13631D01*
G01X8590Y13625D01*
G01X8591Y13619D01*
G01X8592Y13613D01*
G01X8593Y13607D01*
G01X8594Y13601D01*
G01X8595Y13595D01*
G01X8597Y13589D01*
G01X8598Y13583D01*
G01X8600Y13577D01*
G01X8602Y13572D01*
G01X8604Y13566D01*
G01X8607Y13560D01*
G01X8609Y13555D01*
G01X8612Y13549D01*
G01X8615Y13544D01*
G01X8618Y13538D01*
G01X8621Y13533D01*
G01X8624Y13528D01*
G01X8627Y13523D01*
G01X8631Y13518D01*
G01X8635Y13513D01*
G01X8639Y13509D01*
G01X8643Y13504D01*
G01X8647Y13499D01*
G01X8651Y13495D01*
G01X8801Y13345D01*
G01X8805Y13341D01*
G01X8810Y13337D01*
G01X8815Y13333D01*
G01X8819Y13329D01*
G01X8824Y13325D01*
G01X8829Y13321D01*
G01X8834Y13318D01*
G01X8839Y13315D01*
G01X8844Y13312D01*
G01X8850Y13309D01*
G01X8855Y13306D01*
G01X8861Y13303D01*
G01X8866Y13301D01*
G01X8872Y13298D01*
G01X8878Y13296D01*
G01X8883Y13294D01*
G01X8889Y13292D01*
G01X8895Y13291D01*
G01X8901Y13289D01*
G01X8907Y13288D01*
G01X8913Y13287D01*
G01X8919Y13286D01*
G01X8925Y13285D01*
G01X8931Y13284D01*
G01X8937Y13284D01*
G01X8943Y13284D01*
G01X8950Y13284D01*
G01X10163Y13284D01*
G01X10189Y13257D01*
G01X10189Y12065D01*
G01X10184Y12048D01*
G01X10180Y12027D01*
G01X10178Y12005D01*
G01X10178Y11982D01*
G01X10180Y11960D01*
G01X10184Y11939D01*
G01X10191Y11918D01*
G01X10199Y11897D01*
G01X10210Y11878D01*
G01X10223Y11859D01*
G01X10237Y11842D01*
G01X10253Y11827D01*
G01X10270Y11813D01*
G01X10289Y11801D01*
G01X10308Y11791D01*
G01X10329Y11783D01*
G01X10350Y11777D01*
G01X10372Y11773D01*
G01X10394Y11772D01*
G37*
G36*
G01X15744Y8472D02*
G01X15766Y8472D01*
G01X15788Y8475D01*
G01X15810Y8480D01*
G01X15831Y8487D01*
G01X15851Y8496D01*
G01X15870Y8507D01*
G01X15888Y8520D01*
G01X15905Y8535D01*
G01X15920Y8551D01*
G01X15933Y8568D01*
G01X15944Y8587D01*
G01X15954Y8607D01*
G01X15962Y8628D01*
G01X15967Y8650D01*
G01X15970Y8671D01*
G01X15972Y8694D01*
G01X15970Y8716D01*
G01X15967Y8737D01*
G01X15962Y8759D01*
G01X15954Y8780D01*
G01X15944Y8800D01*
G01X15939Y8808D01*
G01X15939Y9544D01*
G01X15939Y9549D01*
G01X15939Y9555D01*
G01X15939Y9561D01*
G01X15938Y9566D01*
G01X15937Y9572D01*
G01X15936Y9578D01*
G01X15935Y9583D01*
G01X15934Y9589D01*
G01X15933Y9595D01*
G01X15931Y9600D01*
G01X15929Y9605D01*
G01X15927Y9611D01*
G01X15925Y9616D01*
G01X15923Y9621D01*
G01X15920Y9627D01*
G01X15918Y9632D01*
G01X15915Y9637D01*
G01X15912Y9642D01*
G01X15909Y9647D01*
G01X15906Y9651D01*
G01X15903Y9656D01*
G01X15899Y9661D01*
G01X15895Y9665D01*
G01X15892Y9669D01*
G01X15888Y9674D01*
G01X15884Y9678D01*
G01X14658Y10903D01*
G01X14671Y10903D01*
G01X16460Y9115D01*
G01X16460Y8958D01*
G01X16449Y8940D01*
G01X16441Y8919D01*
G01X16434Y8898D01*
G01X16430Y8877D01*
G01X16428Y8855D01*
G01X16428Y8832D01*
G01X16430Y8810D01*
G01X16434Y8789D01*
G01X16441Y8768D01*
G01X16449Y8747D01*
G01X16460Y8728D01*
G01X16473Y8709D01*
G01X16487Y8692D01*
G01X16503Y8677D01*
G01X16520Y8663D01*
G01X16539Y8651D01*
G01X16558Y8641D01*
G01X16579Y8633D01*
G01X16600Y8627D01*
G01X16622Y8623D01*
G01X16644Y8622D01*
G01X16666Y8622D01*
G01X16688Y8625D01*
G01X16710Y8630D01*
G01X16731Y8637D01*
G01X16751Y8646D01*
G01X16770Y8657D01*
G01X16788Y8670D01*
G01X16805Y8685D01*
G01X16820Y8701D01*
G01X16833Y8718D01*
G01X16844Y8737D01*
G01X16854Y8757D01*
G01X16862Y8778D01*
G01X16867Y8800D01*
G01X16870Y8821D01*
G01X16872Y8844D01*
G01X16870Y8866D01*
G01X16867Y8887D01*
G01X16862Y8909D01*
G01X16854Y8930D01*
G01X16844Y8950D01*
G01X16839Y8958D01*
G01X16839Y9194D01*
G01X16839Y9199D01*
G01X16839Y9205D01*
G01X16839Y9211D01*
G01X16838Y9216D01*
G01X16837Y9222D01*
G01X16836Y9228D01*
G01X16835Y9233D01*
G01X16834Y9239D01*
G01X16833Y9245D01*
G01X16831Y9250D01*
G01X16829Y9255D01*
G01X16827Y9261D01*
G01X16825Y9266D01*
G01X16823Y9271D01*
G01X16820Y9277D01*
G01X16818Y9282D01*
G01X16815Y9287D01*
G01X16812Y9292D01*
G01X16809Y9297D01*
G01X16806Y9301D01*
G01X16803Y9306D01*
G01X16799Y9311D01*
G01X16795Y9315D01*
G01X16792Y9319D01*
G01X16788Y9324D01*
G01X16784Y9328D01*
G01X14884Y11228D01*
G01X14880Y11232D01*
G01X14875Y11236D01*
G01X14871Y11239D01*
G01X14867Y11243D01*
G01X14862Y11247D01*
G01X14857Y11250D01*
G01X14853Y11253D01*
G01X14848Y11256D01*
G01X14843Y11259D01*
G01X14838Y11262D01*
G01X14833Y11264D01*
G01X14827Y11267D01*
G01X14822Y11269D01*
G01X14817Y11271D01*
G01X14811Y11273D01*
G01X14806Y11275D01*
G01X14801Y11277D01*
G01X14795Y11278D01*
G01X14789Y11279D01*
G01X14784Y11280D01*
G01X14778Y11281D01*
G01X14772Y11282D01*
G01X14767Y11283D01*
G01X14761Y11283D01*
G01X14755Y11283D01*
G01X14750Y11284D01*
G01X14442Y11284D01*
G01X14445Y11286D01*
G01X14458Y11303D01*
G01X14469Y11322D01*
G01X14479Y11342D01*
G01X14487Y11363D01*
G01X14492Y11385D01*
G01X14495Y11406D01*
G01X14497Y11428D01*
G01X14495Y11451D01*
G01X14492Y11472D01*
G01X14487Y11494D01*
G01X14479Y11515D01*
G01X14469Y11535D01*
G01X14458Y11554D01*
G01X14445Y11571D01*
G01X14430Y11587D01*
G01X14413Y11602D01*
G01X14395Y11615D01*
G01X14376Y11626D01*
G01X14356Y11635D01*
G01X14335Y11642D01*
G01X14313Y11647D01*
G01X14291Y11650D01*
G01X14269Y11650D01*
G01X14247Y11649D01*
G01X14225Y11645D01*
G01X14204Y11639D01*
G01X14183Y11631D01*
G01X14164Y11621D01*
G01X14160Y11619D01*
G01X12789Y11619D01*
G01X12776Y11626D01*
G01X12756Y11635D01*
G01X12735Y11642D01*
G01X12713Y11647D01*
G01X12691Y11650D01*
G01X12669Y11650D01*
G01X12647Y11649D01*
G01X12625Y11645D01*
G01X12604Y11639D01*
G01X12583Y11631D01*
G01X12564Y11621D01*
G01X12545Y11609D01*
G01X12528Y11595D01*
G01X12512Y11580D01*
G01X12498Y11563D01*
G01X12485Y11544D01*
G01X12474Y11525D01*
G01X12466Y11504D01*
G01X12459Y11483D01*
G01X12455Y11462D01*
G01X12453Y11440D01*
G01X12453Y11417D01*
G01X12455Y11395D01*
G01X12459Y11374D01*
G01X12466Y11353D01*
G01X12474Y11332D01*
G01X12485Y11313D01*
G01X12498Y11294D01*
G01X12507Y11284D01*
G01X12166Y11284D01*
G01X12155Y11295D01*
G01X12138Y11310D01*
G01X12120Y11323D01*
G01X12101Y11334D01*
G01X12081Y11343D01*
G01X12060Y11350D01*
G01X12038Y11355D01*
G01X12016Y11358D01*
G01X11994Y11358D01*
G01X11972Y11357D01*
G01X11950Y11353D01*
G01X11929Y11347D01*
G01X11908Y11339D01*
G01X11889Y11329D01*
G01X11870Y11317D01*
G01X11853Y11303D01*
G01X11837Y11288D01*
G01X11823Y11271D01*
G01X11810Y11252D01*
G01X11799Y11233D01*
G01X11791Y11212D01*
G01X11784Y11191D01*
G01X11780Y11170D01*
G01X11778Y11148D01*
G01X11778Y11125D01*
G01X11780Y11103D01*
G01X11784Y11082D01*
G01X11791Y11061D01*
G01X11799Y11040D01*
G01X11810Y11021D01*
G01X11823Y11002D01*
G01X11837Y10986D01*
G01X11839Y10984D01*
G01X11828Y10984D01*
G01X11639Y11172D01*
G01X11639Y12979D01*
G01X11644Y12987D01*
G01X11654Y13007D01*
G01X11662Y13028D01*
G01X11667Y13050D01*
G01X11670Y13071D01*
G01X11672Y13094D01*
G01X11670Y13116D01*
G01X11667Y13137D01*
G01X11662Y13159D01*
G01X11654Y13180D01*
G01X11644Y13200D01*
G01X11633Y13219D01*
G01X11620Y13236D01*
G01X11605Y13252D01*
G01X11588Y13267D01*
G01X11570Y13280D01*
G01X11551Y13291D01*
G01X11531Y13300D01*
G01X11510Y13307D01*
G01X11488Y13312D01*
G01X11466Y13315D01*
G01X11444Y13315D01*
G01X11422Y13314D01*
G01X11400Y13310D01*
G01X11379Y13304D01*
G01X11358Y13296D01*
G01X11339Y13286D01*
G01X11320Y13274D01*
G01X11303Y13260D01*
G01X11287Y13245D01*
G01X11273Y13228D01*
G01X11260Y13209D01*
G01X11249Y13190D01*
G01X11241Y13169D01*
G01X11234Y13148D01*
G01X11230Y13127D01*
G01X11228Y13105D01*
G01X11228Y13082D01*
G01X11230Y13060D01*
G01X11234Y13039D01*
G01X11241Y13018D01*
G01X11249Y12997D01*
G01X11260Y12979D01*
G01X11260Y11094D01*
G01X11260Y11088D01*
G01X11260Y11082D01*
G01X11260Y11076D01*
G01X11261Y11071D01*
G01X11262Y11065D01*
G01X11263Y11059D01*
G01X11264Y11054D01*
G01X11265Y11048D01*
G01X11266Y11042D01*
G01X11268Y11037D01*
G01X11270Y11032D01*
G01X11272Y11026D01*
G01X11274Y11021D01*
G01X11276Y11016D01*
G01X11279Y11010D01*
G01X11281Y11005D01*
G01X11284Y11000D01*
G01X11287Y10995D01*
G01X11290Y10990D01*
G01X11293Y10986D01*
G01X11296Y10981D01*
G01X11300Y10976D01*
G01X11304Y10972D01*
G01X11307Y10968D01*
G01X11311Y10963D01*
G01X11315Y10959D01*
G01X11615Y10659D01*
G01X11619Y10655D01*
G01X11624Y10651D01*
G01X11628Y10648D01*
G01X11632Y10644D01*
G01X11637Y10640D01*
G01X11642Y10637D01*
G01X11646Y10634D01*
G01X11651Y10631D01*
G01X11656Y10628D01*
G01X11661Y10625D01*
G01X11666Y10623D01*
G01X11672Y10620D01*
G01X11677Y10618D01*
G01X11682Y10616D01*
G01X11688Y10614D01*
G01X11693Y10612D01*
G01X11698Y10610D01*
G01X11704Y10609D01*
G01X11710Y10608D01*
G01X11715Y10607D01*
G01X11721Y10606D01*
G01X11727Y10605D01*
G01X11732Y10604D01*
G01X11738Y10604D01*
G01X11744Y10604D01*
G01X11750Y10603D01*
G01X11947Y10603D01*
G01X11946Y10603D01*
G01X11942Y10600D01*
G01X11937Y10597D01*
G01X11932Y10593D01*
G01X11928Y10589D01*
G01X11924Y10586D01*
G01X11919Y10582D01*
G01X11915Y10578D01*
G01X11665Y10328D01*
G01X11661Y10324D01*
G01X11657Y10319D01*
G01X11654Y10315D01*
G01X11650Y10311D01*
G01X11646Y10306D01*
G01X11643Y10301D01*
G01X11640Y10297D01*
G01X11637Y10292D01*
G01X11634Y10287D01*
G01X11631Y10282D01*
G01X11629Y10277D01*
G01X11626Y10271D01*
G01X11624Y10266D01*
G01X11622Y10261D01*
G01X11620Y10255D01*
G01X11618Y10250D01*
G01X11616Y10245D01*
G01X11615Y10239D01*
G01X11614Y10233D01*
G01X11613Y10228D01*
G01X11612Y10222D01*
G01X11611Y10216D01*
G01X11610Y10211D01*
G01X11610Y10205D01*
G01X11610Y10199D01*
G01X11610Y10194D01*
G01X11610Y9072D01*
G01X11471Y8934D01*
G01X9914Y8934D01*
G01X9901Y8941D01*
G01X9881Y8950D01*
G01X9860Y8957D01*
G01X9838Y8962D01*
G01X9816Y8965D01*
G01X9794Y8965D01*
G01X9772Y8964D01*
G01X9750Y8960D01*
G01X9729Y8954D01*
G01X9708Y8946D01*
G01X9689Y8936D01*
G01X9670Y8924D01*
G01X9653Y8910D01*
G01X9637Y8895D01*
G01X9623Y8878D01*
G01X9610Y8859D01*
G01X9599Y8840D01*
G01X9591Y8819D01*
G01X9584Y8798D01*
G01X9580Y8777D01*
G01X9578Y8755D01*
G01X9578Y8732D01*
G01X9580Y8710D01*
G01X9584Y8689D01*
G01X9591Y8668D01*
G01X9599Y8647D01*
G01X9610Y8628D01*
G01X9623Y8609D01*
G01X9637Y8592D01*
G01X9653Y8577D01*
G01X9670Y8563D01*
G01X9689Y8551D01*
G01X9708Y8541D01*
G01X9729Y8533D01*
G01X9750Y8527D01*
G01X9772Y8523D01*
G01X9794Y8522D01*
G01X9816Y8522D01*
G01X9838Y8525D01*
G01X9860Y8530D01*
G01X9881Y8537D01*
G01X9901Y8546D01*
G01X9914Y8553D01*
G01X11550Y8553D01*
G01X11555Y8554D01*
G01X11561Y8554D01*
G01X11567Y8554D01*
G01X11572Y8555D01*
G01X11578Y8556D01*
G01X11584Y8557D01*
G01X11589Y8558D01*
G01X11595Y8559D01*
G01X11601Y8560D01*
G01X11606Y8562D01*
G01X11611Y8564D01*
G01X11617Y8566D01*
G01X11622Y8568D01*
G01X11627Y8570D01*
G01X11633Y8573D01*
G01X11638Y8575D01*
G01X11643Y8578D01*
G01X11648Y8581D01*
G01X11653Y8584D01*
G01X11657Y8587D01*
G01X11662Y8590D01*
G01X11667Y8594D01*
G01X11671Y8598D01*
G01X11675Y8601D01*
G01X11680Y8605D01*
G01X11684Y8609D01*
G01X11934Y8859D01*
G01X11938Y8863D01*
G01X11942Y8868D01*
G01X11945Y8872D01*
G01X11949Y8876D01*
G01X11953Y8881D01*
G01X11956Y8886D01*
G01X11959Y8890D01*
G01X11962Y8895D01*
G01X11965Y8900D01*
G01X11968Y8905D01*
G01X11970Y8910D01*
G01X11973Y8916D01*
G01X11975Y8921D01*
G01X11977Y8926D01*
G01X11979Y8932D01*
G01X11981Y8937D01*
G01X11983Y8942D01*
G01X11984Y8948D01*
G01X11985Y8954D01*
G01X11986Y8959D01*
G01X11987Y8965D01*
G01X11988Y8971D01*
G01X11989Y8976D01*
G01X11989Y8982D01*
G01X11989Y8988D01*
G01X11989Y8994D01*
G01X11989Y10115D01*
G01X12128Y10253D01*
G01X13435Y10253D01*
G01X13439Y10251D01*
G01X13458Y10241D01*
G01X13479Y10233D01*
G01X13500Y10227D01*
G01X13522Y10223D01*
G01X13544Y10222D01*
G01X13566Y10222D01*
G01X13588Y10225D01*
G01X13610Y10230D01*
G01X13631Y10237D01*
G01X13651Y10246D01*
G01X13670Y10257D01*
G01X13688Y10270D01*
G01X13705Y10285D01*
G01X13720Y10301D01*
G01X13733Y10318D01*
G01X13744Y10337D01*
G01X13754Y10357D01*
G01X13762Y10378D01*
G01X13767Y10400D01*
G01X13770Y10421D01*
G01X13772Y10444D01*
G01X13770Y10466D01*
G01X13767Y10487D01*
G01X13762Y10509D01*
G01X13754Y10530D01*
G01X13744Y10550D01*
G01X13733Y10569D01*
G01X13720Y10586D01*
G01X13705Y10602D01*
G01X13703Y10603D01*
G01X14421Y10603D01*
G01X15560Y9465D01*
G01X15560Y8808D01*
G01X15549Y8790D01*
G01X15541Y8769D01*
G01X15534Y8748D01*
G01X15530Y8727D01*
G01X15528Y8705D01*
G01X15528Y8682D01*
G01X15530Y8660D01*
G01X15534Y8639D01*
G01X15541Y8618D01*
G01X15549Y8597D01*
G01X15560Y8578D01*
G01X15573Y8559D01*
G01X15587Y8542D01*
G01X15603Y8527D01*
G01X15620Y8513D01*
G01X15639Y8501D01*
G01X15658Y8491D01*
G01X15679Y8483D01*
G01X15700Y8477D01*
G01X15722Y8473D01*
G01X15744Y8472D01*
G37*
G36*
G01X9300Y10798D02*
G01X9319Y10799D01*
G01X9339Y10801D01*
G01X9358Y10805D01*
G01X9377Y10812D01*
G01X9395Y10820D01*
G01X9412Y10830D01*
G01X9428Y10841D01*
G01X9443Y10854D01*
G01X9457Y10869D01*
G01X9469Y10885D01*
G01X9479Y10902D01*
G01X9487Y10919D01*
G01X9494Y10938D01*
G01X9499Y10957D01*
G01X9502Y10977D01*
G01X9503Y10997D01*
G01X9502Y11016D01*
G01X9501Y11021D01*
G01X9518Y11013D01*
G01X9536Y11005D01*
G01X9555Y11000D01*
G01X9575Y10997D01*
G01X9595Y10995D01*
G01X9614Y10996D01*
G01X9634Y10998D01*
G01X9653Y11002D01*
G01X9672Y11009D01*
G01X9690Y11017D01*
G01X9698Y11021D01*
G01X9696Y11006D01*
G01X9696Y10987D01*
G01X9698Y10967D01*
G01X9702Y10948D01*
G01X9708Y10929D01*
G01X9716Y10910D01*
G01X9725Y10893D01*
G01X9736Y10877D01*
G01X9749Y10861D01*
G01X9763Y10848D01*
G01X9779Y10835D01*
G01X9795Y10825D01*
G01X9813Y10816D01*
G01X9831Y10808D01*
G01X9850Y10803D01*
G01X9870Y10800D01*
G01X9890Y10798D01*
G01X9909Y10799D01*
G01X9929Y10801D01*
G01X9948Y10805D01*
G01X9967Y10812D01*
G01X9985Y10820D01*
G01X10002Y10830D01*
G01X10018Y10841D01*
G01X10033Y10854D01*
G01X10047Y10869D01*
G01X10059Y10885D01*
G01X10069Y10902D01*
G01X10077Y10919D01*
G01X10084Y10938D01*
G01X10089Y10957D01*
G01X10092Y10977D01*
G01X10093Y10997D01*
G01X10092Y11016D01*
G01X10089Y11036D01*
G01X10084Y11055D01*
G01X10077Y11074D01*
G01X10069Y11091D01*
G01X10059Y11108D01*
G01X10047Y11124D01*
G01X10033Y11139D01*
G01X10018Y11152D01*
G01X10002Y11163D01*
G01X9985Y11173D01*
G01X9967Y11181D01*
G01X9948Y11188D01*
G01X9929Y11192D01*
G01X9917Y11194D01*
G01X9929Y11195D01*
G01X9948Y11199D01*
G01X9967Y11206D01*
G01X9985Y11214D01*
G01X10002Y11224D01*
G01X10018Y11235D01*
G01X10033Y11248D01*
G01X10047Y11263D01*
G01X10059Y11279D01*
G01X10069Y11296D01*
G01X10077Y11313D01*
G01X10084Y11332D01*
G01X10089Y11351D01*
G01X10092Y11371D01*
G01X10093Y11390D01*
G01X10092Y11410D01*
G01X10089Y11430D01*
G01X10084Y11449D01*
G01X10077Y11468D01*
G01X10069Y11485D01*
G01X10059Y11502D01*
G01X10047Y11518D01*
G01X10033Y11533D01*
G01X10018Y11546D01*
G01X10002Y11557D01*
G01X9985Y11567D01*
G01X9967Y11575D01*
G01X9948Y11582D01*
G01X9929Y11586D01*
G01X9909Y11588D01*
G01X9890Y11589D01*
G01X9870Y11587D01*
G01X9850Y11584D01*
G01X9831Y11579D01*
G01X9813Y11571D01*
G01X9795Y11562D01*
G01X9779Y11552D01*
G01X9763Y11539D01*
G01X9749Y11526D01*
G01X9736Y11510D01*
G01X9725Y11494D01*
G01X9716Y11477D01*
G01X9708Y11458D01*
G01X9702Y11439D01*
G01X9698Y11420D01*
G01X9696Y11400D01*
G01X9696Y11381D01*
G01X9698Y11366D01*
G01X9690Y11370D01*
G01X9672Y11378D01*
G01X9653Y11385D01*
G01X9634Y11389D01*
G01X9614Y11391D01*
G01X9595Y11392D01*
G01X9575Y11390D01*
G01X9555Y11387D01*
G01X9536Y11382D01*
G01X9518Y11374D01*
G01X9501Y11366D01*
G01X9502Y11371D01*
G01X9503Y11390D01*
G01X9502Y11410D01*
G01X9499Y11430D01*
G01X9494Y11449D01*
G01X9487Y11468D01*
G01X9479Y11485D01*
G01X9469Y11502D01*
G01X9457Y11518D01*
G01X9443Y11533D01*
G01X9428Y11546D01*
G01X9412Y11557D01*
G01X9395Y11567D01*
G01X9377Y11575D01*
G01X9358Y11582D01*
G01X9339Y11586D01*
G01X9319Y11588D01*
G01X9300Y11589D01*
G01X9280Y11587D01*
G01X9260Y11584D01*
G01X9241Y11579D01*
G01X9223Y11571D01*
G01X9205Y11562D01*
G01X9189Y11552D01*
G01X9173Y11539D01*
G01X9159Y11526D01*
G01X9146Y11510D01*
G01X9135Y11494D01*
G01X9126Y11477D01*
G01X9118Y11458D01*
G01X9112Y11439D01*
G01X9108Y11420D01*
G01X9106Y11400D01*
G01X9106Y11381D01*
G01X9108Y11361D01*
G01X9112Y11342D01*
G01X9118Y11323D01*
G01X9126Y11304D01*
G01X9135Y11287D01*
G01X9146Y11271D01*
G01X9159Y11255D01*
G01X9173Y11242D01*
G01X9189Y11229D01*
G01X9205Y11219D01*
G01X9223Y11210D01*
G01X9241Y11202D01*
G01X9260Y11197D01*
G01X9280Y11194D01*
G01X9280Y11194D01*
G01X9280Y11193D01*
G01X9260Y11190D01*
G01X9241Y11185D01*
G01X9223Y11177D01*
G01X9205Y11168D01*
G01X9189Y11158D01*
G01X9173Y11145D01*
G01X9159Y11132D01*
G01X9146Y11116D01*
G01X9135Y11100D01*
G01X9126Y11083D01*
G01X9118Y11064D01*
G01X9112Y11045D01*
G01X9108Y11026D01*
G01X9106Y11006D01*
G01X9106Y10987D01*
G01X9108Y10967D01*
G01X9112Y10948D01*
G01X9118Y10929D01*
G01X9126Y10910D01*
G01X9135Y10893D01*
G01X9146Y10877D01*
G01X9159Y10861D01*
G01X9173Y10848D01*
G01X9189Y10835D01*
G01X9205Y10825D01*
G01X9223Y10816D01*
G01X9241Y10808D01*
G01X9260Y10803D01*
G01X9280Y10800D01*
G01X9300Y10798D01*
G37*
G36*
G01X19444Y9522D02*
G01X19466Y9522D01*
G01X19488Y9525D01*
G01X19510Y9530D01*
G01X19531Y9537D01*
G01X19551Y9546D01*
G01X19570Y9557D01*
G01X19588Y9570D01*
G01X19605Y9585D01*
G01X19620Y9601D01*
G01X19633Y9618D01*
G01X19644Y9637D01*
G01X19654Y9657D01*
G01X19662Y9678D01*
G01X19667Y9700D01*
G01X19670Y9721D01*
G01X19672Y9744D01*
G01X19670Y9766D01*
G01X19667Y9787D01*
G01X19662Y9809D01*
G01X19654Y9830D01*
G01X19644Y9850D01*
G01X19639Y9858D01*
G01X19639Y11194D01*
G01X19639Y11199D01*
G01X19639Y11205D01*
G01X19639Y11211D01*
G01X19638Y11216D01*
G01X19637Y11222D01*
G01X19636Y11228D01*
G01X19635Y11233D01*
G01X19634Y11239D01*
G01X19633Y11245D01*
G01X19631Y11250D01*
G01X19629Y11255D01*
G01X19627Y11261D01*
G01X19625Y11266D01*
G01X19623Y11271D01*
G01X19620Y11277D01*
G01X19618Y11282D01*
G01X19615Y11287D01*
G01X19612Y11292D01*
G01X19609Y11297D01*
G01X19606Y11301D01*
G01X19603Y11306D01*
G01X19599Y11311D01*
G01X19595Y11315D01*
G01X19592Y11319D01*
G01X19588Y11324D01*
G01X19584Y11328D01*
G01X19434Y11478D01*
G01X19430Y11482D01*
G01X19425Y11486D01*
G01X19421Y11489D01*
G01X19417Y11493D01*
G01X19412Y11497D01*
G01X19407Y11500D01*
G01X19403Y11503D01*
G01X19398Y11506D01*
G01X19393Y11509D01*
G01X19388Y11512D01*
G01X19383Y11514D01*
G01X19377Y11517D01*
G01X19372Y11519D01*
G01X19367Y11521D01*
G01X19361Y11523D01*
G01X19356Y11525D01*
G01X19351Y11527D01*
G01X19345Y11528D01*
G01X19339Y11529D01*
G01X19334Y11530D01*
G01X19328Y11531D01*
G01X19322Y11532D01*
G01X19317Y11533D01*
G01X19311Y11533D01*
G01X19305Y11533D01*
G01X19300Y11534D01*
G01X18573Y11534D01*
G01X19163Y12123D01*
G01X19163Y12112D01*
G01X19163Y12107D01*
G01X19163Y12094D01*
G01X19164Y12089D01*
G01X19165Y12077D01*
G01X19166Y12072D01*
G01X19167Y12059D01*
G01X19168Y12054D01*
G01X19171Y12042D01*
G01X19172Y12037D01*
G01X19175Y12025D01*
G01X19176Y12020D01*
G01X19180Y12007D01*
G01X19182Y12003D01*
G01X19186Y11991D01*
G01X19188Y11986D01*
G01X19193Y11974D01*
G01X19195Y11970D01*
G01X19200Y11958D01*
G01X19203Y11954D01*
G01X19209Y11943D01*
G01X19211Y11938D01*
G01X19218Y11928D01*
G01X19221Y11923D01*
G01X19228Y11913D01*
G01X19231Y11909D01*
G01X19239Y11899D01*
G01X19242Y11895D01*
G01X19250Y11885D01*
G01X19253Y11881D01*
G01X19262Y11872D01*
G01X19265Y11868D01*
G01X19274Y11859D01*
G01X19278Y11856D01*
G01X19288Y11847D01*
G01X19292Y11844D01*
G01X19302Y11836D01*
G01X19305Y11833D01*
G01X19316Y11826D01*
G01X19320Y11823D01*
G01X19331Y11816D01*
G01X19335Y11814D01*
G01X19346Y11807D01*
G01X19350Y11805D01*
G01X19362Y11799D01*
G01X19366Y11797D01*
G01X19378Y11792D01*
G01X19382Y11790D01*
G01X19394Y11785D01*
G01X19399Y11783D01*
G01X19411Y11779D01*
G01X19416Y11778D01*
G01X19428Y11774D01*
G01X19433Y11773D01*
G01X19445Y11770D01*
G01X19450Y11769D01*
G01X19463Y11767D01*
G01X19468Y11766D01*
G01X19480Y11765D01*
G01X19485Y11764D01*
G01X19498Y11763D01*
G01X19503Y11763D01*
G01X19516Y11763D01*
G01X19518Y11763D01*
G01X19873Y11763D01*
G01X19875Y11763D01*
G01X19888Y11763D01*
G01X19893Y11763D01*
G01X19906Y11764D01*
G01X19911Y11765D01*
G01X19923Y11766D01*
G01X19928Y11767D01*
G01X19941Y11769D01*
G01X19946Y11770D01*
G01X19958Y11773D01*
G01X19963Y11774D01*
G01X19975Y11778D01*
G01X19980Y11779D01*
G01X19992Y11783D01*
G01X19997Y11785D01*
G01X20009Y11790D01*
G01X20013Y11792D01*
G01X20025Y11797D01*
G01X20029Y11799D01*
G01X20041Y11805D01*
G01X20045Y11807D01*
G01X20056Y11814D01*
G01X20060Y11816D01*
G01X20071Y11823D01*
G01X20075Y11826D01*
G01X20086Y11833D01*
G01X20089Y11836D01*
G01X20099Y11844D01*
G01X20103Y11847D01*
G01X20113Y11856D01*
G01X20117Y11859D01*
G01X20126Y11868D01*
G01X20129Y11872D01*
G01X20138Y11881D01*
G01X20141Y11885D01*
G01X20149Y11895D01*
G01X20152Y11899D01*
G01X20160Y11909D01*
G01X20163Y11913D01*
G01X20170Y11923D01*
G01X20173Y11928D01*
G01X20180Y11938D01*
G01X20182Y11943D01*
G01X20188Y11954D01*
G01X20191Y11958D01*
G01X20196Y11970D01*
G01X20198Y11974D01*
G01X20203Y11986D01*
G01X20205Y11991D01*
G01X20209Y12003D01*
G01X20211Y12007D01*
G01X20215Y12020D01*
G01X20216Y12025D01*
G01X20219Y12037D01*
G01X20220Y12042D01*
G01X20223Y12054D01*
G01X20224Y12059D01*
G01X20225Y12072D01*
G01X20226Y12077D01*
G01X20227Y12089D01*
G01X20228Y12094D01*
G01X20228Y12107D01*
G01X20228Y12112D01*
G01X20228Y12125D01*
G01X20228Y12130D01*
G01X20228Y12143D01*
G01X20227Y12148D01*
G01X20226Y12160D01*
G01X20225Y12165D01*
G01X20224Y12178D01*
G01X20223Y12183D01*
G01X20220Y12195D01*
G01X20219Y12200D01*
G01X20216Y12212D01*
G01X20215Y12217D01*
G01X20211Y12230D01*
G01X20209Y12234D01*
G01X20205Y12246D01*
G01X20203Y12251D01*
G01X20198Y12263D01*
G01X20196Y12267D01*
G01X20191Y12279D01*
G01X20188Y12283D01*
G01X20182Y12294D01*
G01X20180Y12299D01*
G01X20173Y12309D01*
G01X20170Y12314D01*
G01X20163Y12324D01*
G01X20160Y12328D01*
G01X20152Y12338D01*
G01X20149Y12342D01*
G01X20141Y12352D01*
G01X20138Y12356D01*
G01X20129Y12365D01*
G01X20126Y12369D01*
G01X20117Y12378D01*
G01X20113Y12381D01*
G01X20103Y12390D01*
G01X20099Y12393D01*
G01X20089Y12401D01*
G01X20086Y12404D01*
G01X20075Y12411D01*
G01X20071Y12414D01*
G01X20060Y12421D01*
G01X20056Y12423D01*
G01X20045Y12430D01*
G01X20041Y12432D01*
G01X20029Y12438D01*
G01X20025Y12440D01*
G01X20013Y12446D01*
G01X20009Y12447D01*
G01X19997Y12452D01*
G01X19992Y12454D01*
G01X19980Y12458D01*
G01X19975Y12459D01*
G01X19963Y12463D01*
G01X19958Y12464D01*
G01X19946Y12467D01*
G01X19941Y12468D01*
G01X19928Y12470D01*
G01X19923Y12471D01*
G01X19911Y12472D01*
G01X19906Y12473D01*
G01X19893Y12474D01*
G01X19888Y12474D01*
G01X19875Y12474D01*
G01X19873Y12474D01*
G01X19518Y12474D01*
G01X19516Y12474D01*
G01X19514Y12474D01*
G01X19534Y12494D01*
G01X19538Y12498D01*
G01X19542Y12503D01*
G01X19545Y12507D01*
G01X19549Y12511D01*
G01X19553Y12516D01*
G01X19556Y12521D01*
G01X19559Y12525D01*
G01X19562Y12530D01*
G01X19565Y12535D01*
G01X19568Y12540D01*
G01X19570Y12545D01*
G01X19573Y12551D01*
G01X19575Y12556D01*
G01X19577Y12561D01*
G01X19579Y12567D01*
G01X19581Y12572D01*
G01X19583Y12577D01*
G01X19584Y12583D01*
G01X19585Y12589D01*
G01X19586Y12594D01*
G01X19587Y12600D01*
G01X19588Y12606D01*
G01X19589Y12611D01*
G01X19589Y12617D01*
G01X19589Y12623D01*
G01X19589Y12628D01*
G01X19589Y14494D01*
G01X19589Y14499D01*
G01X19589Y14505D01*
G01X19589Y14511D01*
G01X19588Y14516D01*
G01X19587Y14522D01*
G01X19586Y14528D01*
G01X19585Y14533D01*
G01X19584Y14539D01*
G01X19583Y14545D01*
G01X19581Y14550D01*
G01X19579Y14555D01*
G01X19577Y14561D01*
G01X19575Y14566D01*
G01X19573Y14571D01*
G01X19570Y14577D01*
G01X19568Y14582D01*
G01X19565Y14587D01*
G01X19562Y14592D01*
G01X19559Y14597D01*
G01X19556Y14601D01*
G01X19553Y14606D01*
G01X19549Y14611D01*
G01X19548Y14613D01*
G01X19873Y14613D01*
G01X19875Y14613D01*
G01X19888Y14613D01*
G01X19893Y14613D01*
G01X19906Y14614D01*
G01X19911Y14615D01*
G01X19923Y14616D01*
G01X19928Y14617D01*
G01X19941Y14619D01*
G01X19946Y14620D01*
G01X19958Y14623D01*
G01X19963Y14624D01*
G01X19975Y14628D01*
G01X19980Y14629D01*
G01X19992Y14633D01*
G01X19997Y14635D01*
G01X20009Y14640D01*
G01X20013Y14642D01*
G01X20025Y14647D01*
G01X20029Y14649D01*
G01X20041Y14655D01*
G01X20045Y14657D01*
G01X20056Y14664D01*
G01X20060Y14666D01*
G01X20071Y14673D01*
G01X20075Y14676D01*
G01X20086Y14683D01*
G01X20089Y14686D01*
G01X20099Y14694D01*
G01X20103Y14697D01*
G01X20113Y14706D01*
G01X20117Y14709D01*
G01X20126Y14718D01*
G01X20129Y14722D01*
G01X20138Y14731D01*
G01X20141Y14735D01*
G01X20149Y14745D01*
G01X20152Y14749D01*
G01X20160Y14759D01*
G01X20163Y14763D01*
G01X20170Y14773D01*
G01X20173Y14778D01*
G01X20180Y14788D01*
G01X20182Y14793D01*
G01X20188Y14804D01*
G01X20191Y14808D01*
G01X20196Y14820D01*
G01X20198Y14824D01*
G01X20203Y14836D01*
G01X20205Y14841D01*
G01X20209Y14853D01*
G01X20211Y14857D01*
G01X20215Y14870D01*
G01X20216Y14875D01*
G01X20219Y14887D01*
G01X20220Y14892D01*
G01X20223Y14904D01*
G01X20224Y14909D01*
G01X20225Y14922D01*
G01X20226Y14927D01*
G01X20227Y14939D01*
G01X20228Y14944D01*
G01X20228Y14957D01*
G01X20228Y14962D01*
G01X20228Y14975D01*
G01X20228Y14980D01*
G01X20228Y14993D01*
G01X20227Y14998D01*
G01X20226Y15010D01*
G01X20225Y15015D01*
G01X20224Y15028D01*
G01X20223Y15033D01*
G01X20220Y15045D01*
G01X20219Y15050D01*
G01X20216Y15062D01*
G01X20215Y15067D01*
G01X20211Y15080D01*
G01X20209Y15084D01*
G01X20205Y15096D01*
G01X20203Y15101D01*
G01X20198Y15113D01*
G01X20196Y15117D01*
G01X20191Y15129D01*
G01X20188Y15133D01*
G01X20182Y15144D01*
G01X20180Y15149D01*
G01X20173Y15159D01*
G01X20170Y15164D01*
G01X20163Y15174D01*
G01X20160Y15178D01*
G01X20152Y15188D01*
G01X20149Y15192D01*
G01X20141Y15202D01*
G01X20138Y15206D01*
G01X20129Y15215D01*
G01X20126Y15219D01*
G01X20117Y15228D01*
G01X20113Y15231D01*
G01X20103Y15240D01*
G01X20099Y15243D01*
G01X20089Y15251D01*
G01X20086Y15254D01*
G01X20075Y15261D01*
G01X20071Y15264D01*
G01X20060Y15271D01*
G01X20056Y15273D01*
G01X20045Y15280D01*
G01X20041Y15282D01*
G01X20029Y15288D01*
G01X20025Y15290D01*
G01X20013Y15296D01*
G01X20009Y15297D01*
G01X19997Y15302D01*
G01X19992Y15304D01*
G01X19980Y15308D01*
G01X19975Y15309D01*
G01X19963Y15313D01*
G01X19958Y15314D01*
G01X19946Y15317D01*
G01X19941Y15318D01*
G01X19928Y15320D01*
G01X19923Y15321D01*
G01X19911Y15322D01*
G01X19906Y15323D01*
G01X19893Y15324D01*
G01X19888Y15324D01*
G01X19875Y15324D01*
G01X19873Y15324D01*
G01X19518Y15324D01*
G01X19516Y15324D01*
G01X19503Y15324D01*
G01X19498Y15324D01*
G01X19485Y15323D01*
G01X19480Y15322D01*
G01X19468Y15321D01*
G01X19463Y15320D01*
G01X19450Y15318D01*
G01X19445Y15317D01*
G01X19433Y15314D01*
G01X19428Y15313D01*
G01X19416Y15309D01*
G01X19411Y15308D01*
G01X19399Y15304D01*
G01X19394Y15302D01*
G01X19382Y15297D01*
G01X19378Y15296D01*
G01X19366Y15290D01*
G01X19362Y15288D01*
G01X19350Y15282D01*
G01X19346Y15280D01*
G01X19335Y15273D01*
G01X19331Y15271D01*
G01X19320Y15264D01*
G01X19316Y15261D01*
G01X19305Y15254D01*
G01X19302Y15251D01*
G01X19292Y15243D01*
G01X19289Y15241D01*
G01X19289Y19265D01*
G01X19353Y19328D01*
G01X19360Y19330D01*
G01X19381Y19337D01*
G01X19401Y19346D01*
G01X19420Y19357D01*
G01X19438Y19370D01*
G01X19455Y19385D01*
G01X19470Y19401D01*
G01X19483Y19418D01*
G01X19494Y19437D01*
G01X19504Y19457D01*
G01X19512Y19478D01*
G01X19517Y19500D01*
G01X19520Y19521D01*
G01X19522Y19544D01*
G01X19520Y19566D01*
G01X19517Y19587D01*
G01X19512Y19609D01*
G01X19504Y19630D01*
G01X19494Y19650D01*
G01X19483Y19669D01*
G01X19470Y19686D01*
G01X19455Y19702D01*
G01X19438Y19717D01*
G01X19420Y19730D01*
G01X19401Y19741D01*
G01X19381Y19750D01*
G01X19360Y19757D01*
G01X19338Y19762D01*
G01X19316Y19765D01*
G01X19294Y19765D01*
G01X19272Y19764D01*
G01X19250Y19760D01*
G01X19229Y19754D01*
G01X19208Y19746D01*
G01X19189Y19736D01*
G01X19170Y19724D01*
G01X19153Y19710D01*
G01X19137Y19695D01*
G01X19123Y19678D01*
G01X19110Y19659D01*
G01X19099Y19640D01*
G01X19091Y19619D01*
G01X19084Y19598D01*
G01X19084Y19597D01*
G01X18965Y19478D01*
G01X18961Y19474D01*
G01X18957Y19469D01*
G01X18956Y19468D01*
G01X18955Y19472D01*
G01X18953Y19478D01*
G01X18950Y19483D01*
G01X18948Y19489D01*
G01X18945Y19494D01*
G01X18942Y19500D01*
G01X18939Y19505D01*
G01X18936Y19511D01*
G01X18932Y19516D01*
G01X18929Y19521D01*
G01X18925Y19526D01*
G01X18922Y19531D01*
G01X18918Y19535D01*
G01X18914Y19540D01*
G01X18909Y19545D01*
G01X18905Y19549D01*
G01X18491Y19963D01*
G01X19039Y19963D01*
G01X19046Y19964D01*
G01X19052Y19964D01*
G01X19058Y19964D01*
G01X19064Y19965D01*
G01X19070Y19966D01*
G01X19076Y19967D01*
G01X19082Y19968D01*
G01X19088Y19969D01*
G01X19094Y19970D01*
G01X19100Y19972D01*
G01X19106Y19974D01*
G01X19112Y19976D01*
G01X19118Y19978D01*
G01X19124Y19980D01*
G01X19129Y19983D01*
G01X19135Y19985D01*
G01X19140Y19988D01*
G01X19146Y19991D01*
G01X19151Y19994D01*
G01X19157Y19997D01*
G01X19162Y20001D01*
G01X19167Y20004D01*
G01X19172Y20008D01*
G01X19177Y20011D01*
G01X19181Y20015D01*
G01X19186Y20019D01*
G01X19191Y20024D01*
G01X19195Y20028D01*
G01X21091Y21924D01*
G01X21501Y21924D01*
G01X21504Y21920D01*
G01X21525Y21899D01*
G01X21548Y21881D01*
G01X21573Y21865D01*
G01X21599Y21851D01*
G01X21627Y21840D01*
G01X21655Y21832D01*
G01X21684Y21827D01*
G01X21714Y21825D01*
G01X21743Y21826D01*
G01X21773Y21829D01*
G01X21789Y21833D01*
G01X21784Y21810D01*
G01X21781Y21780D01*
G01X21781Y21751D01*
G01X21784Y21721D01*
G01X21790Y21692D01*
G01X21799Y21664D01*
G01X21810Y21636D01*
G01X21824Y21611D01*
G01X21841Y21586D01*
G01X21860Y21563D01*
G01X21881Y21543D01*
G01X21904Y21524D01*
G01X21929Y21508D01*
G01X21956Y21495D01*
G01X21983Y21484D01*
G01X22012Y21476D01*
G01X22041Y21471D01*
G01X22070Y21469D01*
G01X22100Y21469D01*
G01X22129Y21473D01*
G01X22158Y21480D01*
G01X22186Y21489D01*
G01X22213Y21501D01*
G01X22239Y21516D01*
G01X22263Y21533D01*
G01X22285Y21553D01*
G01X22305Y21574D01*
G01X22323Y21598D01*
G01X22338Y21623D01*
G01X22351Y21650D01*
G01X22361Y21678D01*
G01X22369Y21706D01*
G01X22373Y21736D01*
G01X22375Y21765D01*
G01X22373Y21795D01*
G01X22369Y21824D01*
G01X22361Y21853D01*
G01X22351Y21881D01*
G01X22338Y21907D01*
G01X22323Y21933D01*
G01X22305Y21956D01*
G01X22285Y21978D01*
G01X22263Y21997D01*
G01X22239Y22015D01*
G01X22213Y22029D01*
G01X22186Y22042D01*
G01X22158Y22051D01*
G01X22129Y22058D01*
G01X22100Y22061D01*
G01X22070Y22062D01*
G01X22041Y22060D01*
G01X22012Y22055D01*
G01X22010Y22054D01*
G01X22012Y22063D01*
G01X22017Y22092D01*
G01X22018Y22122D01*
G01X22017Y22151D01*
G01X22012Y22181D01*
G01X22005Y22209D01*
G01X21995Y22237D01*
G01X21982Y22264D01*
G01X21967Y22289D01*
G01X21949Y22313D01*
G01X21929Y22334D01*
G01X21906Y22354D01*
G01X21882Y22371D01*
G01X21857Y22386D01*
G01X21830Y22398D01*
G01X21802Y22407D01*
G01X21773Y22414D01*
G01X21743Y22418D01*
G01X21714Y22418D01*
G01X21684Y22416D01*
G01X21655Y22411D01*
G01X21627Y22403D01*
G01X21599Y22392D01*
G01X21573Y22379D01*
G01X21549Y22363D01*
G01X21000Y22363D01*
G01X20993Y22363D01*
G01X20987Y22363D01*
G01X20981Y22363D01*
G01X20975Y22362D01*
G01X20969Y22361D01*
G01X20963Y22360D01*
G01X20957Y22359D01*
G01X20951Y22358D01*
G01X20945Y22357D01*
G01X20939Y22355D01*
G01X20933Y22353D01*
G01X20927Y22351D01*
G01X20921Y22349D01*
G01X20915Y22347D01*
G01X20910Y22344D01*
G01X20904Y22342D01*
G01X20899Y22339D01*
G01X20893Y22336D01*
G01X20888Y22333D01*
G01X20882Y22330D01*
G01X20877Y22326D01*
G01X20872Y22323D01*
G01X20867Y22319D01*
G01X20862Y22315D01*
G01X20858Y22312D01*
G01X20853Y22308D01*
G01X20848Y22303D01*
G01X20844Y22299D01*
G01X18948Y20403D01*
G01X12802Y20403D01*
G01X12796Y20403D01*
G01X12790Y20403D01*
G01X12784Y20403D01*
G01X12778Y20402D01*
G01X12772Y20401D01*
G01X12766Y20400D01*
G01X12760Y20399D01*
G01X12754Y20398D01*
G01X12748Y20397D01*
G01X12742Y20395D01*
G01X12736Y20393D01*
G01X12730Y20391D01*
G01X12724Y20389D01*
G01X12719Y20387D01*
G01X12713Y20385D01*
G01X12708Y20382D01*
G01X12702Y20379D01*
G01X12697Y20376D01*
G01X12691Y20373D01*
G01X12686Y20370D01*
G01X12681Y20367D01*
G01X12676Y20363D01*
G01X12671Y20360D01*
G01X12666Y20356D01*
G01X12661Y20352D01*
G01X12657Y20348D01*
G01X12652Y20344D01*
G01X12648Y20340D01*
G01X12643Y20335D01*
G01X12639Y20331D01*
G01X12635Y20326D01*
G01X12631Y20321D01*
G01X12544Y20213D01*
G01X10191Y20213D01*
G01X7805Y22599D01*
G01X7801Y22603D01*
G01X7796Y22608D01*
G01X7791Y22612D01*
G01X7787Y22615D01*
G01X7782Y22619D01*
G01X7777Y22623D01*
G01X7772Y22626D01*
G01X7767Y22630D01*
G01X7761Y22633D01*
G01X7756Y22636D01*
G01X7750Y22639D01*
G01X7745Y22642D01*
G01X7739Y22644D01*
G01X7734Y22647D01*
G01X7728Y22649D01*
G01X7722Y22651D01*
G01X7716Y22653D01*
G01X7710Y22655D01*
G01X7704Y22657D01*
G01X7698Y22658D01*
G01X7692Y22659D01*
G01X7686Y22660D01*
G01X7680Y22661D01*
G01X7674Y22662D01*
G01X7668Y22663D01*
G01X7662Y22663D01*
G01X7656Y22663D01*
G01X7650Y22663D01*
G01X6950Y22663D01*
G01X6943Y22663D01*
G01X6937Y22663D01*
G01X6931Y22663D01*
G01X6925Y22662D01*
G01X6919Y22661D01*
G01X6913Y22660D01*
G01X6907Y22659D01*
G01X6901Y22658D01*
G01X6895Y22657D01*
G01X6889Y22655D01*
G01X6883Y22653D01*
G01X6877Y22651D01*
G01X6871Y22649D01*
G01X6865Y22647D01*
G01X6860Y22644D01*
G01X6854Y22642D01*
G01X6849Y22639D01*
G01X6843Y22636D01*
G01X6838Y22633D01*
G01X6832Y22630D01*
G01X6827Y22626D01*
G01X6822Y22623D01*
G01X6817Y22619D01*
G01X6812Y22615D01*
G01X6808Y22612D01*
G01X6803Y22608D01*
G01X6798Y22603D01*
G01X6794Y22599D01*
G01X6458Y22263D01*
G01X6340Y22263D01*
G01X6167Y22433D01*
G01X6167Y22445D01*
G01X6162Y22474D01*
G01X6160Y22483D01*
G01X6162Y22482D01*
G01X6191Y22477D01*
G01X6220Y22475D01*
G01X6250Y22476D01*
G01X6279Y22479D01*
G01X6308Y22486D01*
G01X6336Y22495D01*
G01X6363Y22508D01*
G01X6389Y22522D01*
G01X6413Y22540D01*
G01X6435Y22559D01*
G01X6455Y22581D01*
G01X6473Y22604D01*
G01X6488Y22630D01*
G01X6501Y22656D01*
G01X6511Y22684D01*
G01X6519Y22713D01*
G01X6523Y22742D01*
G01X6525Y22772D01*
G01X6523Y22801D01*
G01X6519Y22831D01*
G01X6511Y22859D01*
G01X6501Y22887D01*
G01X6488Y22914D01*
G01X6473Y22939D01*
G01X6455Y22963D01*
G01X6435Y22984D01*
G01X6413Y23004D01*
G01X6389Y23021D01*
G01X6363Y23036D01*
G01X6336Y23048D01*
G01X6308Y23057D01*
G01X6279Y23064D01*
G01X6250Y23068D01*
G01X6220Y23068D01*
G01X6191Y23066D01*
G01X6162Y23061D01*
G01X6133Y23053D01*
G01X6106Y23042D01*
G01X6079Y23029D01*
G01X6054Y23013D01*
G01X6031Y22994D01*
G01X6010Y22974D01*
G01X5991Y22951D01*
G01X5974Y22926D01*
G01X5960Y22901D01*
G01X5949Y22873D01*
G01X5940Y22845D01*
G01X5934Y22816D01*
G01X5931Y22786D01*
G01X5931Y22757D01*
G01X5934Y22727D01*
G01X5939Y22704D01*
G01X5923Y22708D01*
G01X5893Y22711D01*
G01X5864Y22712D01*
G01X5834Y22710D01*
G01X5805Y22705D01*
G01X5777Y22697D01*
G01X5749Y22686D01*
G01X5723Y22672D01*
G01X5698Y22656D01*
G01X5675Y22638D01*
G01X5654Y22617D01*
G01X5635Y22595D01*
G01X5618Y22570D01*
G01X5604Y22544D01*
G01X5592Y22517D01*
G01X5584Y22489D01*
G01X5578Y22460D01*
G01X5575Y22430D01*
G01X5575Y22401D01*
G01X5578Y22371D01*
G01X5584Y22342D01*
G01X5592Y22314D01*
G01X5604Y22286D01*
G01X5618Y22261D01*
G01X5635Y22236D01*
G01X5654Y22213D01*
G01X5675Y22193D01*
G01X5698Y22174D01*
G01X5723Y22158D01*
G01X5749Y22145D01*
G01X5777Y22134D01*
G01X5805Y22126D01*
G01X5834Y22121D01*
G01X5859Y22119D01*
G01X6095Y21887D01*
G01X6100Y21882D01*
G01X6104Y21878D01*
G01X6109Y21874D01*
G01X6114Y21870D01*
G01X6119Y21866D01*
G01X6124Y21863D01*
G01X6130Y21859D01*
G01X6135Y21856D01*
G01X6141Y21852D01*
G01X6146Y21849D01*
G01X6152Y21846D01*
G01X6157Y21844D01*
G01X6163Y21841D01*
G01X6169Y21839D01*
G01X6175Y21836D01*
G01X6181Y21834D01*
G01X6187Y21833D01*
G01X6193Y21831D01*
G01X6199Y21829D01*
G01X6205Y21828D01*
G01X6212Y21827D01*
G01X6218Y21826D01*
G01X6224Y21825D01*
G01X6231Y21824D01*
G01X6237Y21824D01*
G01X6243Y21824D01*
G01X6250Y21824D01*
G01X6550Y21824D01*
G01X6556Y21824D01*
G01X6562Y21824D01*
G01X6568Y21824D01*
G01X6574Y21825D01*
G01X6580Y21826D01*
G01X6586Y21827D01*
G01X6592Y21828D01*
G01X6598Y21829D01*
G01X6604Y21830D01*
G01X6610Y21832D01*
G01X6616Y21834D01*
G01X6622Y21836D01*
G01X6628Y21838D01*
G01X6634Y21840D01*
G01X6639Y21843D01*
G01X6645Y21845D01*
G01X6650Y21848D01*
G01X6656Y21851D01*
G01X6661Y21854D01*
G01X6667Y21857D01*
G01X6672Y21861D01*
G01X6677Y21864D01*
G01X6682Y21868D01*
G01X6687Y21872D01*
G01X6691Y21875D01*
G01X6696Y21879D01*
G01X6701Y21884D01*
G01X6705Y21888D01*
G01X7041Y22224D01*
G01X7558Y22224D01*
G01X9944Y19838D01*
G01X9948Y19834D01*
G01X9953Y19829D01*
G01X9958Y19825D01*
G01X9962Y19822D01*
G01X9967Y19818D01*
G01X9972Y19814D01*
G01X9977Y19811D01*
G01X9982Y19807D01*
G01X9988Y19804D01*
G01X9993Y19801D01*
G01X9999Y19798D01*
G01X10004Y19795D01*
G01X10010Y19793D01*
G01X10015Y19790D01*
G01X10021Y19788D01*
G01X10027Y19786D01*
G01X10033Y19784D01*
G01X10039Y19782D01*
G01X10045Y19780D01*
G01X10051Y19779D01*
G01X10057Y19778D01*
G01X10063Y19777D01*
G01X10069Y19776D01*
G01X10075Y19775D01*
G01X10081Y19774D01*
G01X10087Y19774D01*
G01X10093Y19774D01*
G01X10100Y19774D01*
G01X12650Y19774D01*
G01X12656Y19774D01*
G01X12662Y19774D01*
G01X12668Y19774D01*
G01X12674Y19775D01*
G01X12680Y19776D01*
G01X12686Y19777D01*
G01X12692Y19778D01*
G01X12698Y19779D01*
G01X12704Y19780D01*
G01X12710Y19782D01*
G01X12716Y19784D01*
G01X12722Y19786D01*
G01X12728Y19788D01*
G01X12733Y19790D01*
G01X12739Y19792D01*
G01X12744Y19795D01*
G01X12750Y19798D01*
G01X12755Y19801D01*
G01X12761Y19804D01*
G01X12766Y19807D01*
G01X12771Y19810D01*
G01X12776Y19814D01*
G01X12781Y19817D01*
G01X12786Y19821D01*
G01X12791Y19825D01*
G01X12795Y19829D01*
G01X12800Y19833D01*
G01X12804Y19837D01*
G01X12809Y19842D01*
G01X12813Y19846D01*
G01X12817Y19851D01*
G01X12821Y19856D01*
G01X12908Y19963D01*
G01X17870Y19963D01*
G01X17873Y19960D01*
G01X17877Y19955D01*
G01X17882Y19950D01*
G01X17886Y19946D01*
G01X18530Y19302D01*
G01X18530Y15435D01*
G01X18308Y15213D01*
G01X17500Y15213D01*
G01X17493Y15213D01*
G01X17487Y15213D01*
G01X17481Y15213D01*
G01X17475Y15212D01*
G01X17469Y15211D01*
G01X17463Y15210D01*
G01X17457Y15209D01*
G01X17451Y15208D01*
G01X17445Y15207D01*
G01X17439Y15205D01*
G01X17433Y15203D01*
G01X17427Y15201D01*
G01X17421Y15199D01*
G01X17415Y15197D01*
G01X17410Y15194D01*
G01X17404Y15192D01*
G01X17399Y15189D01*
G01X17393Y15186D01*
G01X17388Y15183D01*
G01X17382Y15180D01*
G01X17377Y15176D01*
G01X17372Y15173D01*
G01X17367Y15169D01*
G01X17362Y15165D01*
G01X17358Y15162D01*
G01X17353Y15158D01*
G01X17348Y15153D01*
G01X17344Y15149D01*
G01X16944Y14749D01*
G01X16940Y14745D01*
G01X16935Y14740D01*
G01X16931Y14735D01*
G01X16927Y14731D01*
G01X16924Y14726D01*
G01X16920Y14721D01*
G01X16917Y14716D01*
G01X16913Y14711D01*
G01X16910Y14705D01*
G01X16907Y14700D01*
G01X16904Y14694D01*
G01X16901Y14689D01*
G01X16899Y14683D01*
G01X16896Y14678D01*
G01X16894Y14672D01*
G01X16892Y14666D01*
G01X16890Y14660D01*
G01X16888Y14654D01*
G01X16886Y14648D01*
G01X16885Y14642D01*
G01X16884Y14636D01*
G01X16883Y14630D01*
G01X16882Y14624D01*
G01X16881Y14618D01*
G01X16880Y14612D01*
G01X16880Y14606D01*
G01X16880Y14600D01*
G01X16880Y14594D01*
G01X16880Y13344D01*
G01X16880Y13337D01*
G01X16880Y13331D01*
G01X16880Y13325D01*
G01X16881Y13319D01*
G01X16882Y13313D01*
G01X16883Y13307D01*
G01X16884Y13301D01*
G01X16885Y13295D01*
G01X16886Y13289D01*
G01X16888Y13283D01*
G01X16890Y13277D01*
G01X16892Y13271D01*
G01X16894Y13265D01*
G01X16896Y13259D01*
G01X16899Y13254D01*
G01X16901Y13248D01*
G01X16904Y13243D01*
G01X16907Y13237D01*
G01X16910Y13232D01*
G01X16913Y13226D01*
G01X16917Y13221D01*
G01X16920Y13216D01*
G01X16924Y13211D01*
G01X16927Y13206D01*
G01X16931Y13202D01*
G01X16935Y13197D01*
G01X16940Y13192D01*
G01X16944Y13188D01*
G01X17830Y12302D01*
G01X17830Y12072D01*
G01X17828Y12055D01*
G01X17828Y12032D01*
G01X17830Y12010D01*
G01X17834Y11989D01*
G01X17841Y11968D01*
G01X17849Y11947D01*
G01X17860Y11928D01*
G01X17873Y11909D01*
G01X17887Y11892D01*
G01X17903Y11877D01*
G01X17920Y11863D01*
G01X17939Y11851D01*
G01X17958Y11841D01*
G01X17978Y11834D01*
G01X16414Y11834D01*
G01X16401Y11841D01*
G01X16381Y11850D01*
G01X16360Y11857D01*
G01X16338Y11862D01*
G01X16316Y11865D01*
G01X16294Y11865D01*
G01X16272Y11864D01*
G01X16250Y11860D01*
G01X16229Y11854D01*
G01X16208Y11846D01*
G01X16189Y11836D01*
G01X16170Y11824D01*
G01X16153Y11810D01*
G01X16137Y11795D01*
G01X16123Y11778D01*
G01X16110Y11759D01*
G01X16099Y11740D01*
G01X16091Y11719D01*
G01X16084Y11698D01*
G01X16080Y11677D01*
G01X16078Y11655D01*
G01X16078Y11632D01*
G01X16080Y11610D01*
G01X16084Y11589D01*
G01X16091Y11568D01*
G01X16099Y11547D01*
G01X16107Y11534D01*
G01X15514Y11534D01*
G01X15501Y11541D01*
G01X15481Y11550D01*
G01X15460Y11557D01*
G01X15438Y11562D01*
G01X15416Y11565D01*
G01X15394Y11565D01*
G01X15372Y11564D01*
G01X15350Y11560D01*
G01X15329Y11554D01*
G01X15308Y11546D01*
G01X15289Y11536D01*
G01X15270Y11524D01*
G01X15253Y11510D01*
G01X15237Y11495D01*
G01X15223Y11478D01*
G01X15210Y11459D01*
G01X15199Y11440D01*
G01X15191Y11419D01*
G01X15184Y11398D01*
G01X15180Y11377D01*
G01X15178Y11355D01*
G01X15178Y11332D01*
G01X15180Y11310D01*
G01X15184Y11289D01*
G01X15191Y11268D01*
G01X15199Y11247D01*
G01X15210Y11228D01*
G01X15223Y11209D01*
G01X15237Y11192D01*
G01X15253Y11177D01*
G01X15270Y11163D01*
G01X15289Y11151D01*
G01X15308Y11141D01*
G01X15329Y11133D01*
G01X15350Y11127D01*
G01X15372Y11123D01*
G01X15394Y11122D01*
G01X15416Y11122D01*
G01X15438Y11125D01*
G01X15460Y11130D01*
G01X15481Y11137D01*
G01X15501Y11146D01*
G01X15514Y11153D01*
G01X19221Y11153D01*
G01X19260Y11115D01*
G01X19260Y9858D01*
G01X19249Y9840D01*
G01X19241Y9819D01*
G01X19234Y9798D01*
G01X19230Y9777D01*
G01X19228Y9755D01*
G01X19228Y9732D01*
G01X19230Y9710D01*
G01X19234Y9689D01*
G01X19241Y9668D01*
G01X19249Y9647D01*
G01X19260Y9628D01*
G01X19273Y9609D01*
G01X19287Y9592D01*
G01X19303Y9577D01*
G01X19320Y9563D01*
G01X19339Y9551D01*
G01X19358Y9541D01*
G01X19379Y9533D01*
G01X19400Y9527D01*
G01X19422Y9523D01*
G01X19444Y9522D01*
G37*
G36*
G01X9325Y9344D02*
G01X10760Y9344D01*
G01X10765Y9344D01*
G01X10770Y9344D01*
G01X10776Y9344D01*
G01X10781Y9345D01*
G01X10787Y9346D01*
G01X10792Y9347D01*
G01X10797Y9348D01*
G01X10803Y9349D01*
G01X10808Y9351D01*
G01X10813Y9353D01*
G01X10818Y9355D01*
G01X10823Y9357D01*
G01X10828Y9359D01*
G01X10833Y9361D01*
G01X10838Y9364D01*
G01X10843Y9367D01*
G01X10847Y9370D01*
G01X10852Y9373D01*
G01X10856Y9376D01*
G01X10860Y9379D01*
G01X10865Y9383D01*
G01X10869Y9387D01*
G01X10873Y9390D01*
G01X11363Y9880D01*
G01X11366Y9884D01*
G01X11370Y9888D01*
G01X11374Y9893D01*
G01X11377Y9897D01*
G01X11380Y9901D01*
G01X11383Y9906D01*
G01X11386Y9910D01*
G01X11389Y9915D01*
G01X11392Y9920D01*
G01X11394Y9925D01*
G01X11396Y9930D01*
G01X11398Y9935D01*
G01X11400Y9940D01*
G01X11402Y9945D01*
G01X11404Y9950D01*
G01X11405Y9956D01*
G01X11406Y9961D01*
G01X11407Y9966D01*
G01X11408Y9972D01*
G01X11409Y9977D01*
G01X11409Y9983D01*
G01X11409Y9988D01*
G01X11410Y9994D01*
G01X11410Y10040D01*
G01X11420Y10051D01*
G01X11433Y10068D01*
G01X11444Y10087D01*
G01X11454Y10107D01*
G01X11462Y10128D01*
G01X11467Y10150D01*
G01X11470Y10171D01*
G01X11472Y10194D01*
G01X11470Y10216D01*
G01X11467Y10237D01*
G01X11462Y10259D01*
G01X11454Y10280D01*
G01X11444Y10300D01*
G01X11433Y10319D01*
G01X11420Y10336D01*
G01X11405Y10352D01*
G01X11388Y10367D01*
G01X11370Y10380D01*
G01X11351Y10391D01*
G01X11331Y10400D01*
G01X11310Y10407D01*
G01X11288Y10412D01*
G01X11266Y10415D01*
G01X11244Y10415D01*
G01X11222Y10414D01*
G01X11200Y10410D01*
G01X11179Y10404D01*
G01X11158Y10396D01*
G01X11139Y10386D01*
G01X11120Y10374D01*
G01X11103Y10360D01*
G01X11087Y10345D01*
G01X11073Y10328D01*
G01X11060Y10309D01*
G01X11049Y10290D01*
G01X11041Y10269D01*
G01X11034Y10248D01*
G01X11030Y10227D01*
G01X11028Y10205D01*
G01X11028Y10182D01*
G01X11030Y10160D01*
G01X11034Y10139D01*
G01X11041Y10118D01*
G01X11049Y10097D01*
G01X11060Y10078D01*
G01X11073Y10059D01*
G01X11080Y10050D01*
G01X10693Y9663D01*
G01X9391Y9663D01*
G01X8555Y10495D01*
G01X8555Y18549D01*
G01X8554Y18554D01*
G01X8554Y18559D01*
G01X8554Y18565D01*
G01X8553Y18570D01*
G01X8552Y18576D01*
G01X8551Y18581D01*
G01X8550Y18586D01*
G01X8549Y18592D01*
G01X8547Y18597D01*
G01X8545Y18602D01*
G01X8543Y18607D01*
G01X8541Y18612D01*
G01X8539Y18617D01*
G01X8537Y18622D01*
G01X8534Y18627D01*
G01X8531Y18632D01*
G01X8528Y18636D01*
G01X8525Y18641D01*
G01X8522Y18645D01*
G01X8519Y18649D01*
G01X8515Y18654D01*
G01X8511Y18658D01*
G01X8508Y18662D01*
G01X8059Y19110D01*
G01X8059Y19827D01*
G01X8240Y20008D01*
G01X8257Y20007D01*
G01X8279Y20007D01*
G01X8301Y20010D01*
G01X8323Y20015D01*
G01X8344Y20022D01*
G01X8364Y20031D01*
G01X8383Y20042D01*
G01X8401Y20055D01*
G01X8418Y20070D01*
G01X8433Y20086D01*
G01X8446Y20103D01*
G01X8457Y20122D01*
G01X8467Y20142D01*
G01X8475Y20163D01*
G01X8480Y20185D01*
G01X8483Y20206D01*
G01X8484Y20228D01*
G01X8483Y20251D01*
G01X8480Y20272D01*
G01X8475Y20291D01*
G01X8636Y20130D01*
G01X8640Y20127D01*
G01X8644Y20123D01*
G01X8649Y20119D01*
G01X8653Y20116D01*
G01X8657Y20113D01*
G01X8662Y20110D01*
G01X8666Y20107D01*
G01X8671Y20104D01*
G01X8676Y20101D01*
G01X8681Y20099D01*
G01X8686Y20097D01*
G01X8691Y20095D01*
G01X8696Y20093D01*
G01X8701Y20091D01*
G01X8706Y20089D01*
G01X8712Y20088D01*
G01X8717Y20087D01*
G01X8722Y20086D01*
G01X8728Y20085D01*
G01X8733Y20084D01*
G01X8739Y20084D01*
G01X8744Y20084D01*
G01X8750Y20084D01*
G01X9000Y20084D01*
G01X9005Y20084D01*
G01X9010Y20084D01*
G01X9016Y20084D01*
G01X9021Y20085D01*
G01X9027Y20086D01*
G01X9032Y20087D01*
G01X9037Y20088D01*
G01X9043Y20089D01*
G01X9048Y20091D01*
G01X9053Y20093D01*
G01X9058Y20095D01*
G01X9063Y20097D01*
G01X9068Y20099D01*
G01X9073Y20101D01*
G01X9078Y20104D01*
G01X9083Y20107D01*
G01X9087Y20110D01*
G01X9092Y20113D01*
G01X9096Y20116D01*
G01X9100Y20119D01*
G01X9103Y20122D01*
G01X9116Y20122D01*
G01X9138Y20125D01*
G01X9160Y20130D01*
G01X9181Y20137D01*
G01X9201Y20146D01*
G01X9220Y20157D01*
G01X9238Y20170D01*
G01X9255Y20185D01*
G01X9270Y20201D01*
G01X9283Y20218D01*
G01X9294Y20237D01*
G01X9304Y20257D01*
G01X9312Y20278D01*
G01X9317Y20300D01*
G01X9320Y20321D01*
G01X9322Y20344D01*
G01X9320Y20366D01*
G01X9317Y20387D01*
G01X9312Y20409D01*
G01X9304Y20430D01*
G01X9294Y20450D01*
G01X9283Y20469D01*
G01X9270Y20486D01*
G01X9255Y20502D01*
G01X9238Y20517D01*
G01X9220Y20530D01*
G01X9201Y20541D01*
G01X9181Y20550D01*
G01X9160Y20557D01*
G01X9138Y20562D01*
G01X9116Y20565D01*
G01X9094Y20565D01*
G01X9072Y20564D01*
G01X9050Y20560D01*
G01X9029Y20554D01*
G01X9008Y20546D01*
G01X8988Y20536D01*
G01X8970Y20524D01*
G01X8953Y20510D01*
G01X8937Y20495D01*
G01X8923Y20478D01*
G01X8910Y20459D01*
G01X8899Y20440D01*
G01X8891Y20419D01*
G01X8886Y20403D01*
G01X8816Y20403D01*
G01X8363Y20857D01*
G01X8359Y20860D01*
G01X8355Y20864D01*
G01X8350Y20868D01*
G01X8346Y20871D01*
G01X8342Y20874D01*
G01X8337Y20877D01*
G01X8333Y20880D01*
G01X8328Y20883D01*
G01X8323Y20886D01*
G01X8318Y20888D01*
G01X8313Y20890D01*
G01X8308Y20892D01*
G01X8303Y20894D01*
G01X8298Y20896D01*
G01X8293Y20898D01*
G01X8287Y20899D01*
G01X8282Y20900D01*
G01X8277Y20901D01*
G01X8271Y20902D01*
G01X8266Y20903D01*
G01X8260Y20903D01*
G01X8255Y20903D01*
G01X8250Y20903D01*
G01X7950Y20903D01*
G01X7944Y20903D01*
G01X7939Y20903D01*
G01X7933Y20903D01*
G01X7928Y20902D01*
G01X7922Y20901D01*
G01X7917Y20900D01*
G01X7912Y20899D01*
G01X7906Y20898D01*
G01X7901Y20896D01*
G01X7896Y20894D01*
G01X7891Y20892D01*
G01X7886Y20890D01*
G01X7881Y20888D01*
G01X7876Y20886D01*
G01X7871Y20883D01*
G01X7866Y20880D01*
G01X7862Y20877D01*
G01X7857Y20874D01*
G01X7853Y20871D01*
G01X7849Y20868D01*
G01X7844Y20864D01*
G01X7840Y20860D01*
G01X7836Y20857D01*
G01X7245Y20265D01*
G01X7244Y20265D01*
G01X7222Y20264D01*
G01X7200Y20260D01*
G01X7179Y20254D01*
G01X7158Y20246D01*
G01X7138Y20236D01*
G01X7120Y20224D01*
G01X7103Y20210D01*
G01X7087Y20195D01*
G01X7073Y20178D01*
G01X7060Y20159D01*
G01X7049Y20140D01*
G01X7041Y20119D01*
G01X7034Y20098D01*
G01X7030Y20077D01*
G01X7028Y20055D01*
G01X7028Y20032D01*
G01X7030Y20010D01*
G01X7034Y19989D01*
G01X7041Y19968D01*
G01X7049Y19947D01*
G01X7060Y19928D01*
G01X7073Y19909D01*
G01X7087Y19892D01*
G01X7103Y19877D01*
G01X7120Y19863D01*
G01X7138Y19851D01*
G01X7158Y19841D01*
G01X7179Y19833D01*
G01X7200Y19827D01*
G01X7222Y19823D01*
G01X7244Y19822D01*
G01X7266Y19822D01*
G01X7288Y19825D01*
G01X7310Y19830D01*
G01X7331Y19837D01*
G01X7351Y19846D01*
G01X7370Y19857D01*
G01X7388Y19870D01*
G01X7405Y19885D01*
G01X7420Y19901D01*
G01X7433Y19918D01*
G01X7444Y19937D01*
G01X7454Y19957D01*
G01X7462Y19978D01*
G01X7467Y20000D01*
G01X7470Y20021D01*
G01X7471Y20039D01*
G01X8016Y20584D01*
G01X8183Y20584D01*
G01X8325Y20441D01*
G01X8323Y20442D01*
G01X8301Y20447D01*
G01X8279Y20450D01*
G01X8257Y20450D01*
G01X8235Y20449D01*
G01X8213Y20445D01*
G01X8192Y20439D01*
G01X8171Y20431D01*
G01X8151Y20421D01*
G01X8133Y20409D01*
G01X8116Y20395D01*
G01X8100Y20380D01*
G01X8086Y20363D01*
G01X8073Y20344D01*
G01X8062Y20325D01*
G01X8054Y20304D01*
G01X8047Y20283D01*
G01X8043Y20264D01*
G01X7786Y20007D01*
G01X7783Y20003D01*
G01X7779Y19999D01*
G01X7775Y19994D01*
G01X7772Y19990D01*
G01X7769Y19986D01*
G01X7766Y19981D01*
G01X7763Y19977D01*
G01X7760Y19972D01*
G01X7757Y19967D01*
G01X7755Y19962D01*
G01X7753Y19957D01*
G01X7751Y19952D01*
G01X7749Y19947D01*
G01X7747Y19942D01*
G01X7745Y19937D01*
G01X7744Y19931D01*
G01X7743Y19926D01*
G01X7742Y19921D01*
G01X7741Y19915D01*
G01X7740Y19910D01*
G01X7740Y19904D01*
G01X7740Y19899D01*
G01X7740Y19894D01*
G01X7740Y19044D01*
G01X7740Y19038D01*
G01X7740Y19033D01*
G01X7740Y19027D01*
G01X7741Y19022D01*
G01X7742Y19016D01*
G01X7743Y19011D01*
G01X7744Y19006D01*
G01X7745Y19000D01*
G01X7747Y18995D01*
G01X7749Y18990D01*
G01X7751Y18985D01*
G01X7753Y18980D01*
G01X7755Y18975D01*
G01X7757Y18970D01*
G01X7760Y18965D01*
G01X7763Y18960D01*
G01X7766Y18956D01*
G01X7769Y18951D01*
G01X7772Y18947D01*
G01X7775Y18943D01*
G01X7779Y18938D01*
G01X7783Y18934D01*
G01X7786Y18930D01*
G01X8234Y18482D01*
G01X8234Y10428D01*
G01X8235Y10423D01*
G01X8235Y10418D01*
G01X8235Y10412D01*
G01X8236Y10407D01*
G01X8237Y10401D01*
G01X8238Y10396D01*
G01X8239Y10390D01*
G01X8240Y10385D01*
G01X8242Y10380D01*
G01X8244Y10375D01*
G01X8246Y10370D01*
G01X8248Y10365D01*
G01X8250Y10360D01*
G01X8253Y10355D01*
G01X8255Y10350D01*
G01X8258Y10345D01*
G01X8261Y10340D01*
G01X8264Y10336D01*
G01X8267Y10332D01*
G01X8271Y10327D01*
G01X8274Y10323D01*
G01X8278Y10319D01*
G01X8282Y10315D01*
G01X9212Y9390D01*
G01X9216Y9386D01*
G01X9220Y9383D01*
G01X9224Y9379D01*
G01X9228Y9376D01*
G01X9233Y9373D01*
G01X9237Y9370D01*
G01X9242Y9367D01*
G01X9246Y9364D01*
G01X9251Y9361D01*
G01X9256Y9359D01*
G01X9261Y9357D01*
G01X9266Y9355D01*
G01X9271Y9353D01*
G01X9276Y9351D01*
G01X9281Y9349D01*
G01X9287Y9348D01*
G01X9292Y9347D01*
G01X9297Y9346D01*
G01X9303Y9345D01*
G01X9308Y9344D01*
G01X9314Y9344D01*
G01X9319Y9344D01*
G01X9325Y9344D01*
G37*
G36*
G01X14755Y8909D02*
G01X15019Y8909D01*
G01X15019Y9074D01*
G01X15019Y9078D01*
G01X15019Y9082D01*
G01X15019Y9086D01*
G01X15018Y9090D01*
G01X15017Y9094D01*
G01X15016Y9098D01*
G01X15015Y9102D01*
G01X15014Y9106D01*
G01X15013Y9110D01*
G01X15011Y9114D01*
G01X15009Y9117D01*
G01X15007Y9121D01*
G01X15005Y9125D01*
G01X15003Y9128D01*
G01X15001Y9132D01*
G01X14998Y9135D01*
G01X14996Y9138D01*
G01X14993Y9141D01*
G01X14990Y9144D01*
G01X14987Y9147D01*
G01X14984Y9150D01*
G01X14981Y9152D01*
G01X14978Y9155D01*
G01X14974Y9157D01*
G01X14971Y9159D01*
G01X14967Y9161D01*
G01X14963Y9163D01*
G01X14960Y9165D01*
G01X14956Y9167D01*
G01X14952Y9168D01*
G01X14948Y9169D01*
G01X14944Y9170D01*
G01X14940Y9171D01*
G01X14936Y9172D01*
G01X14932Y9173D01*
G01X14928Y9173D01*
G01X14924Y9173D01*
G01X14919Y9174D01*
G01X14755Y9174D01*
G01X14755Y8909D01*
G37*

%LPD*%
G54D11*
G01X8300Y19294D02*
G01X8600Y19294D01*
G01X9050Y19744D01*
G54D18*
G01X10400Y11994D02*
G01X10400Y13344D01*
G01X10250Y13494D01*
G01X8950Y13494D01*
G01X8800Y13644D01*
G01X8800Y16294D01*
G01X9300Y16794D01*
G01X9435Y16794D01*
G54D13*
G01X15400Y11344D02*
G01X19300Y11344D01*
G01X19450Y11194D01*
G01X19450Y9744D01*
G01X16300Y11644D02*
G01X18414Y11644D01*
G01X19400Y12628D01*
G01X19400Y14494D01*
G01X19100Y14794D01*
G01X19100Y19344D01*
G01X19300Y19544D01*
G01X13550Y10444D02*
G01X12050Y10444D01*
G01X11800Y10194D01*
G01X11800Y8994D01*
G01X11550Y8744D01*
G01X9800Y8744D01*
G01X16650Y8844D02*
G01X16650Y9194D01*
G01X14750Y11094D01*
G01X12000Y11094D01*
G01X15750Y8694D02*
G01X15750Y9544D01*
G01X14850Y10444D01*
G01X11450Y13094D02*
G01X11450Y11094D01*
G01X11750Y10794D01*
G01X14500Y10794D01*
G01X14850Y10444D01*
G01X14275Y11428D02*
G01X12675Y11428D01*
G01X12669Y11424D01*
G54D11*
G01X11250Y10194D02*
G01X11250Y9994D01*
G01X10760Y9503D01*
G01X9325Y9503D01*
G01X8394Y10428D01*
G01X8394Y18549D01*
G01X7900Y19044D01*
G01X7900Y19894D01*
G01X8250Y20244D01*
G54D15*
G01X5871Y22415D02*
G01X6250Y22044D01*
G01X6550Y22044D01*
G01X6950Y22444D01*
G01X7650Y22444D01*
G01X10100Y19994D01*
G01X12650Y19994D01*
G01X12802Y20184D01*
G01X19039Y20184D01*
G01X21000Y22144D01*
G01X21700Y22144D01*
G01X21722Y22122D01*
G01X18042Y20184D02*
G01X18042Y20102D01*
G01X18750Y19394D01*
G01X18750Y15894D01*
G01X18750Y15894D02*
G01X18750Y15344D01*
G01X18400Y14994D01*
G01X17500Y14994D01*
G01X17100Y14594D01*
G01X17100Y13794D01*
G01X17100Y13794D02*
G01X17100Y13344D01*
G01X18050Y12394D01*
G01X18050Y12044D01*
G54D11*
G01X9100Y20344D02*
G01X9000Y20244D01*
G01X8750Y20244D01*
G01X8250Y20744D01*
G01X7950Y20744D01*
G01X7250Y20044D01*
G54D41*
G01X6978Y6665D03*
G01X6621Y7022D03*
G01X21721Y22122D03*
G01X22078Y21765D03*
G54D42*
G01X13810Y8744D03*
G01X14589Y8744D03*
G54D43*
G01X18632Y12595D03*
G01X18632Y14501D03*
G54D41*
G01X21978Y6822D03*
G01X21621Y6465D03*
G01X5871Y22415D03*
G01X6228Y22772D03*
G54D24*
G01X9600Y11194D03*
G01X9894Y10997D03*
G01X9894Y11390D03*
G01X9305Y11390D03*
G01X9305Y10997D03*
G54D25*
G01X14850Y18044D03*
G01X14850Y17744D03*
G01X19450Y9744D03*
G01X8300Y19294D03*
G01X9050Y19744D03*
G01X10400Y11994D03*
G01X9450Y16794D03*
G01X11450Y13094D03*
G01X16550Y16244D03*
G01X16550Y16544D03*
G01X16850Y16544D03*
G01X17150Y16544D03*
G01X16250Y16244D03*
G01X17450Y16544D03*
G01X15400Y11344D03*
G01X16300Y11644D03*
G01X19300Y19544D03*
G01X13550Y10444D03*
G01X9800Y8744D03*
G01X15750Y8694D03*
G01X16650Y8844D03*
G01X12000Y11136D03*
G01X14275Y11428D03*
G01X11500Y15294D03*
G01X11500Y14994D03*
G01X16150Y12144D03*
G01X13200Y15344D03*
G01X13500Y15344D03*
G01X13800Y15344D03*
G01X14100Y15344D03*
G01X14400Y15344D03*
G01X14700Y15344D03*
G01X15000Y15344D03*
G01X15300Y15344D03*
G01X13200Y15044D03*
G01X13500Y15044D03*
G01X13800Y15044D03*
G01X14100Y15044D03*
G01X14400Y15044D03*
G01X14700Y15044D03*
G01X15000Y15044D03*
G01X15300Y15044D03*
G01X13200Y14744D03*
G01X13500Y14744D03*
G01X13800Y14744D03*
G01X14100Y14744D03*
G01X14400Y14744D03*
G01X14700Y14744D03*
G01X15000Y14744D03*
G01X15300Y14744D03*
G01X13200Y14444D03*
G01X13500Y14444D03*
G01X13800Y14444D03*
G01X14100Y14444D03*
G01X14400Y14444D03*
G01X14700Y14444D03*
G01X15000Y14444D03*
G01X15300Y14444D03*
G01X13200Y14144D03*
G01X13500Y14144D03*
G01X13800Y14144D03*
G01X14100Y14144D03*
G01X14400Y14144D03*
G01X14700Y14144D03*
G01X15000Y14144D03*
G01X15300Y14144D03*
G01X13200Y13844D03*
G01X13500Y13844D03*
G01X13800Y13844D03*
G01X14100Y13844D03*
G01X14400Y13844D03*
G01X14750Y13844D03*
G01X15000Y13844D03*
G01X15300Y13844D03*
G01X13200Y13544D03*
G01X13500Y13544D03*
G01X13800Y13544D03*
G01X14100Y13544D03*
G01X14400Y13544D03*
G01X14700Y13544D03*
G01X15000Y13544D03*
G01X15300Y13544D03*
G01X13200Y13244D03*
G01X13500Y13244D03*
G01X13800Y13244D03*
G01X14100Y13244D03*
G01X14400Y13244D03*
G01X14700Y13244D03*
G01X15000Y13244D03*
G01X15300Y13244D03*
G01X12675Y11428D03*
G01X11250Y10194D03*
G01X8263Y20228D03*
G01X18050Y12044D03*
G01X9300Y15444D03*
G01X9300Y14844D03*
G01X17250Y10394D03*
G01X18100Y9644D03*
G01X18400Y9644D03*
G01X18700Y9644D03*
G01X18700Y9944D03*
G01X17150Y8844D03*
G01X17150Y8544D03*
G01X8850Y17294D03*
G01X9150Y17294D03*
G01X11100Y19344D03*
G01X9100Y20344D03*
G01X7250Y20044D03*
G01X10050Y17094D03*
G54D44*
G01X19518Y14969D02*
G01X19873Y14969D01*
G01X19518Y12119D02*
G01X19873Y12119D01*
M00*
M02*
