G04 ---------------------------- Layer name :TOP PASTER LAYER*
G04 EasyEDA v5.7.24, Wed, 12 Sep 2018 16:40:19 GMT*
G04 788ae3d0f2e84f31b98fff910f9a6f2a*
G04 Gerber Generator version 0.2*
G04 Scale: 100 percent, Rotated: No, Reflected: No *
G04 Dimensions in inches *
G04 leading zeros omitted , absolute positions ,2 integer and 4 decimal *
%FSLAX24Y24*%
%MOIN*%
G90*
G70D02*

%ADD20C,0.011024*%
%ADD21C,0.016535*%
%ADD22C,0.032000*%
%ADD23C,0.040000*%
%ADD26R,0.043307X0.039370*%
%ADD27R,0.094488X0.074803*%
%ADD28R,0.105512X0.105512*%
%ADD29R,0.039370X0.043307*%
%ADD30R,0.095500X0.065500*%
%ADD31R,0.011500X0.034500*%
%ADD32R,0.031496X0.106300*%
%ADD33R,0.051200X0.055100*%
%ADD35R,0.049213X0.027559*%
%ADD36R,0.055100X0.051200*%
%ADD37R,0.078740X0.017717*%
%ADD38R,0.047240X0.062992*%
%ADD39R,0.057870X0.045670*%
%ADD40R,0.032000X0.062000*%

%LPD*%
G54D20*
G01X9017Y19084D02*
G01X9222Y19084D01*
G01X9017Y18886D02*
G01X9222Y18886D01*
G01X9017Y18690D02*
G01X9222Y18690D01*
G01X9017Y18494D02*
G01X9222Y18494D01*
G01X9017Y18297D02*
G01X9222Y18297D01*
G01X9017Y18100D02*
G01X9222Y18100D01*
G01X9460Y17866D02*
G01X9460Y17661D01*
G01X9656Y17866D02*
G01X9656Y17661D01*
G01X9853Y17866D02*
G01X9853Y17661D01*
G01X10050Y17866D02*
G01X10050Y17661D01*
G01X10247Y17866D02*
G01X10247Y17661D01*
G01X10443Y17866D02*
G01X10443Y17661D01*
G01X10677Y18103D02*
G01X10882Y18103D01*
G01X10677Y18301D02*
G01X10882Y18301D01*
G01X10677Y18498D02*
G01X10882Y18498D01*
G01X10677Y18694D02*
G01X10882Y18694D01*
G01X10677Y18890D02*
G01X10882Y18890D01*
G01X10677Y19088D02*
G01X10882Y19088D01*
G01X10450Y19536D02*
G01X10450Y19331D01*
G01X10252Y19536D02*
G01X10252Y19331D01*
G01X10056Y19536D02*
G01X10056Y19331D01*
G01X9860Y19536D02*
G01X9860Y19331D01*
G01X9663Y19536D02*
G01X9663Y19331D01*
G01X9465Y19536D02*
G01X9465Y19331D01*
G54D21*
G01X15849Y16776D02*
G01X15849Y16311D01*
G01X15534Y16776D02*
G01X15534Y16311D01*
G01X15219Y16776D02*
G01X15219Y16311D01*
G01X14904Y16776D02*
G01X14904Y16311D01*
G01X14589Y16776D02*
G01X14589Y16311D01*
G01X14274Y16776D02*
G01X14274Y16311D01*
G01X13959Y16776D02*
G01X13959Y16311D01*
G01X13644Y16776D02*
G01X13644Y16311D01*
G01X13329Y16776D02*
G01X13329Y16311D01*
G01X13014Y16776D02*
G01X13014Y16311D01*
G01X12700Y16776D02*
G01X12700Y16311D01*
G01X12282Y15894D02*
G01X11818Y15894D01*
G01X12282Y15579D02*
G01X11818Y15579D01*
G01X12282Y15264D02*
G01X11818Y15264D01*
G01X12282Y14949D02*
G01X11818Y14949D01*
G01X12282Y14634D02*
G01X11818Y14634D01*
G01X12282Y14319D02*
G01X11818Y14319D01*
G01X12282Y14004D02*
G01X11818Y14004D01*
G01X12282Y13689D02*
G01X11818Y13689D01*
G01X12282Y13374D02*
G01X11818Y13374D01*
G01X12282Y13059D02*
G01X11818Y13059D01*
G01X12282Y12744D02*
G01X11818Y12744D01*
G01X12700Y12327D02*
G01X12700Y11862D01*
G01X13014Y12327D02*
G01X13014Y11862D01*
G01X13329Y12327D02*
G01X13329Y11862D01*
G01X13644Y12327D02*
G01X13644Y11862D01*
G01X13959Y12327D02*
G01X13959Y11862D01*
G01X14274Y12327D02*
G01X14274Y11862D01*
G01X14589Y12327D02*
G01X14589Y11862D01*
G01X14904Y12327D02*
G01X14904Y11862D01*
G01X15219Y12327D02*
G01X15219Y11862D01*
G01X15534Y12327D02*
G01X15534Y11862D01*
G01X15849Y12327D02*
G01X15849Y11862D01*
G01X16731Y12744D02*
G01X16266Y12744D01*
G01X16731Y13059D02*
G01X16266Y13059D01*
G01X16731Y13374D02*
G01X16266Y13374D01*
G01X16731Y13689D02*
G01X16266Y13689D01*
G01X16731Y14004D02*
G01X16266Y14004D01*
G01X16731Y14319D02*
G01X16266Y14319D01*
G01X16731Y14634D02*
G01X16266Y14634D01*
G01X16731Y14949D02*
G01X16266Y14949D01*
G01X16731Y15264D02*
G01X16266Y15264D01*
G01X16731Y15579D02*
G01X16266Y15579D01*
G01X16731Y15894D02*
G01X16266Y15894D01*
G54D22*
G01X16150Y8544D02*
G01X16150Y8844D01*
G01X16650Y8544D02*
G01X16650Y8844D01*
G54D23*
G01X15450Y19753D02*
G01X15450Y19534D01*
G54D26*
G01X9299Y14838D03*
G01X9299Y14207D03*
G01X9300Y15450D03*
G01X9300Y16080D03*
G01X17300Y15300D03*
G01X17300Y15930D03*
G01X14300Y17250D03*
G01X14300Y17880D03*
G01X18199Y10738D03*
G01X18199Y10107D03*
G54D27*
G01X10500Y15994D03*
G01X10500Y14380D03*
G54D28*
G01X9950Y18594D03*
G54D29*
G01X11565Y19088D03*
G01X12196Y19088D03*
G01X12143Y18244D03*
G01X11514Y18244D03*
G01X10693Y17094D03*
G01X10064Y17094D03*
G01X11843Y19844D03*
G01X11214Y19844D03*
G54D30*
G01X9600Y11193D03*
G54D31*
G01X9990Y11773D03*
G01X9800Y11773D03*
G01X9600Y11773D03*
G01X9400Y11773D03*
G01X9210Y11773D03*
G01X9210Y10613D03*
G01X9400Y10613D03*
G01X9600Y10613D03*
G01X9800Y10613D03*
G01X9990Y10613D03*
G54D32*
G01X9211Y12743D03*
G01X9998Y12743D03*
G54D26*
G01X10999Y11738D03*
G01X10999Y11107D03*
G54D29*
G01X10793Y9894D03*
G01X10164Y9894D03*
G54D33*
G01X13443Y19643D03*
G01X14269Y19643D03*
G36*
G01X7582Y8171D02*
G01X7776Y7976D01*
G01X7428Y7628D01*
G01X7234Y7823D01*
G01X7582Y8171D01*
G37*
G36*
G01X8013Y9130D02*
G01X8207Y8936D01*
G01X7859Y8588D01*
G01X7665Y8782D01*
G01X8013Y9130D01*
G37*
G36*
G01X8542Y8601D02*
G01X8736Y8407D01*
G01X8388Y8059D01*
G01X8194Y8253D01*
G01X8542Y8601D01*
G37*
G36*
G01X21118Y20617D02*
G01X20922Y20811D01*
G01X21271Y21159D01*
G01X21465Y20965D01*
G01X21118Y20617D01*
G37*
G36*
G01X20685Y19657D02*
G01X20492Y19852D01*
G01X20839Y20200D01*
G01X21034Y20005D01*
G01X20685Y19657D01*
G37*
G36*
G01X20157Y20186D02*
G01X19963Y20380D01*
G01X20310Y20728D01*
G01X20506Y20534D01*
G01X20157Y20186D01*
G37*
G54D35*
G01X11307Y9144D03*
G01X12292Y9517D03*
G01X12292Y8770D03*
G54D36*
G01X12000Y11136D03*
G01X12000Y11963D03*
G36*
G01X8703Y8934D02*
G01X9009Y9240D01*
G01X9288Y8961D01*
G01X8982Y8655D01*
G01X8703Y8934D01*
G37*
G36*
G01X8257Y9380D02*
G01X8563Y9686D01*
G01X8842Y9407D01*
G01X8536Y9101D01*
G01X8257Y9380D01*
G37*
G36*
G01X19940Y19888D02*
G01X19635Y19582D01*
G01X19356Y19861D01*
G01X19663Y20167D01*
G01X19940Y19888D01*
G37*
G36*
G01X20386Y19442D02*
G01X20081Y19136D01*
G01X19802Y19415D01*
G01X20107Y19722D01*
G01X20386Y19442D01*
G37*
G36*
G01X7403Y19584D02*
G01X7709Y19890D01*
G01X7988Y19611D01*
G01X7682Y19305D01*
G01X7403Y19584D01*
G37*
G36*
G01X6957Y20030D02*
G01X7263Y20336D01*
G01X7542Y20057D01*
G01X7236Y19752D01*
G01X6957Y20030D01*
G37*
G54D29*
G01X8805Y16793D03*
G01X9435Y16793D03*
G54D37*
G01X18323Y14051D03*
G01X18323Y13795D03*
G01X18323Y13539D03*
G01X18323Y13284D03*
G01X18323Y13028D03*
G54D38*
G01X20022Y14172D03*
G01X20015Y12880D03*
G54D29*
G01X17243Y17194D03*
G01X16614Y17194D03*
G01X16053Y17804D03*
G01X15423Y17804D03*
G36*
G01X20668Y7626D02*
G01X20863Y7821D01*
G01X21210Y7473D01*
G01X21015Y7278D01*
G01X20668Y7626D01*
G37*
G36*
G01X19707Y8057D02*
G01X19902Y8251D01*
G01X20251Y7903D01*
G01X20056Y7709D01*
G01X19707Y8057D01*
G37*
G36*
G01X20236Y8586D02*
G01X20431Y8780D01*
G01X20778Y8432D01*
G01X20585Y8238D01*
G01X20236Y8586D01*
G37*
G36*
G01X19914Y8707D02*
G01X19607Y9013D01*
G01X19886Y9292D01*
G01X20193Y8986D01*
G01X19914Y8707D01*
G37*
G36*
G01X19468Y8261D02*
G01X19163Y8567D01*
G01X19440Y8847D01*
G01X19747Y8540D01*
G01X19468Y8261D01*
G37*
G54D39*
G01X11800Y17444D03*
G01X11800Y16644D03*
G54D29*
G01X16556Y12193D03*
G01X17185Y12193D03*
G01X17243Y10394D03*
G01X16614Y10394D03*
G36*
G01X7421Y21767D02*
G01X7226Y21573D01*
G01X6878Y21921D01*
G01X7073Y22115D01*
G01X7421Y21767D01*
G37*
G36*
G01X8380Y21336D02*
G01X8186Y21142D01*
G01X7838Y21490D01*
G01X8032Y21684D01*
G01X8380Y21336D01*
G37*
G36*
G01X7851Y20807D02*
G01X7657Y20613D01*
G01X7309Y20961D01*
G01X7503Y21155D01*
G01X7851Y20807D01*
G37*
G36*
G01X8248Y20521D02*
G01X8555Y20215D01*
G01X8276Y19936D01*
G01X7971Y20242D01*
G01X8248Y20521D01*
G37*
G36*
G01X8694Y20967D02*
G01X9001Y20661D01*
G01X8723Y20382D01*
G01X8415Y20688D01*
G01X8694Y20967D01*
G37*
G54D40*
G01X17150Y8694D03*
M00*
M02*
