;PTH Drill file created by EasyEDA 
M48
INCH,LZ
;Holesize 1 = 0.008 INCH
T01C0.008
;Holesize 2 = 0.012 INCH
T02C0.012
;Holesize 3 = 0.024 INCH
T03C0.024
;Holesize 4 = 0.028 INCH
T04C0.028
;Holesize 5 = 0.032 INCH
T05C0.032
;Holesize 6 = 0.035 INCH
T06C0.035
%
G05
G90
T01
X009600Y011194
X009894Y010997
X009894Y011390
X009305Y011390
X009305Y010997
T02
X014850Y018044
X014850Y017744
X019450Y009744
X008300Y019294
X009050Y019744
X010400Y011994
X009450Y016794
X011450Y013094
X016550Y016244
X016550Y016544
X016850Y016544
X017150Y016544
X016250Y016244
X017450Y016544
X015400Y011344
X016300Y011644
X019300Y019544
X013550Y010444
X009800Y008744
X015750Y008694
X016650Y008844
X012000Y011136
X014275Y011428
X011500Y015294
X011500Y014994
X016150Y012144
X013200Y015344
X013500Y015344
X013800Y015344
X014100Y015344
X014400Y015344
X014700Y015344
X015000Y015344
X015300Y015344
X013200Y015044
X013500Y015044
X013800Y015044
X014100Y015044
X014400Y015044
X014700Y015044
X015000Y015044
X015300Y015044
X013200Y014744
X013500Y014744
X013800Y014744
X014100Y014744
X014400Y014744
X014700Y014744
X015000Y014744
X015300Y014744
X013200Y014444
X013500Y014444
X013800Y014444
X014100Y014444
X014400Y014444
X014700Y014444
X015000Y014444
X015300Y014444
X013200Y014144
X013500Y014144
X013800Y014144
X014100Y014144
X014400Y014144
X014700Y014144
X015000Y014144
X015300Y014144
X013200Y013844
X013500Y013844
X013800Y013844
X014100Y013844
X014400Y013844
X014750Y013844
X015000Y013844
X015300Y013844
X013200Y013544
X013500Y013544
X013800Y013544
X014100Y013544
X014400Y013544
X014700Y013544
X015000Y013544
X015300Y013544
X013200Y013244
X013500Y013244
X013800Y013244
X014100Y013244
X014400Y013244
X014700Y013244
X015000Y013244
X015300Y013244
X012675Y011428
X011250Y010194
X008263Y020228
X018050Y012044
X009300Y015444
X009300Y014844
X017250Y010394
X018100Y009644
X018400Y009644
X018700Y009644
X018700Y009944
X017150Y008844
X017150Y008544
X008850Y017294
X009150Y017294
X011100Y019344
X009100Y020344
X007250Y020044
X010050Y017094
T03
X006978Y006665
X006621Y007022
X021721Y022122
X022078Y021765
X021978Y006822
X021621Y006465
X005871Y022415
X006228Y022772
T04
X019853Y014969G85X019539Y014969
X019853Y012119G85X019539Y012119
T05
X013810Y008744
X014589Y008744
T06
X018632Y012595
X018632Y014501
M30
