G04 ---------------------------- Layer name :TOP SOLDER LAYER*
G04 EasyEDA v5.5.12, Thu, 07 Jun 2018 12:22:22 GMT*
G04 1a2565b9f4c04a008b83b97b08c39867*
G04 Gerber Generator version 0.2*
G04 Scale: 100 percent, Rotated: No, Reflected: No *
G04 Dimensions in inches *
G04 leading zeros omitted , absolute positions ,2 integer and 4 decimal *
%FSLAX24Y24*%
%MOIN*%
G90*
G70D02*

%ADD14C,0.019024*%
%ADD15C,0.024535*%
%ADD18R,0.059200X0.063100*%
%ADD19R,0.113512X0.113512*%
%ADD20R,0.082803X0.102488*%
%ADD21R,0.044610X0.046580*%
%ADD22R,0.047370X0.057212*%
%ADD23R,0.046580X0.044610*%
%ADD24R,0.086740X0.025716*%
%ADD25R,0.055240X0.070992*%
%ADD26R,0.057212X0.047370*%
%ADD27R,0.063100X0.059200*%
%ADD28R,0.073500X0.103500*%
%ADD29R,0.042500X0.019500*%
%ADD30R,0.033591X0.049732*%
%ADD31R,0.114300X0.039496*%
%ADD35R,0.057213X0.035559*%
%ADD36R,0.048000X0.053000*%
%ADD37R,0.033000X0.058000*%
%ADD38C,0.070000*%
%ADD39R,0.070000X0.070000*%
%ADD40C,0.067055*%
%ADD41C,0.059181*%

%LPD*%
G54D14*
G01X8917Y18340D02*
G01X9122Y18340D01*
G01X8917Y18142D02*
G01X9122Y18142D01*
G01X8917Y17946D02*
G01X9122Y17946D01*
G01X8917Y17750D02*
G01X9122Y17750D01*
G01X8917Y17553D02*
G01X9122Y17553D01*
G01X8917Y17355D02*
G01X9122Y17355D01*
G01X9360Y17122D02*
G01X9360Y16917D01*
G01X9556Y17122D02*
G01X9556Y16917D01*
G01X9753Y17122D02*
G01X9753Y16917D01*
G01X9950Y17122D02*
G01X9950Y16917D01*
G01X10147Y17122D02*
G01X10147Y16917D01*
G01X10343Y17122D02*
G01X10343Y16917D01*
G01X10577Y17359D02*
G01X10782Y17359D01*
G01X10577Y17557D02*
G01X10782Y17557D01*
G01X10577Y17753D02*
G01X10782Y17753D01*
G01X10577Y17950D02*
G01X10782Y17950D01*
G01X10577Y18146D02*
G01X10782Y18146D01*
G01X10577Y18344D02*
G01X10782Y18344D01*
G01X10350Y18792D02*
G01X10350Y18587D01*
G01X10152Y18792D02*
G01X10152Y18587D01*
G01X9956Y18792D02*
G01X9956Y18587D01*
G01X9760Y18792D02*
G01X9760Y18587D01*
G01X9563Y18792D02*
G01X9563Y18587D01*
G01X9365Y18792D02*
G01X9365Y18587D01*
G54D15*
G01X16632Y12500D02*
G01X16167Y12500D01*
G01X16632Y12815D02*
G01X16167Y12815D01*
G01X16632Y13130D02*
G01X16167Y13130D01*
G01X16632Y13444D02*
G01X16167Y13444D01*
G01X16632Y13759D02*
G01X16167Y13759D01*
G01X16632Y14075D02*
G01X16167Y14075D01*
G01X16632Y14390D02*
G01X16167Y14390D01*
G01X16632Y14705D02*
G01X16167Y14705D01*
G01X16632Y15019D02*
G01X16167Y15019D01*
G01X16632Y15334D02*
G01X16167Y15334D01*
G01X16632Y15650D02*
G01X16167Y15650D01*
G01X15751Y16066D02*
G01X15751Y16531D01*
G01X15435Y16066D02*
G01X15435Y16531D01*
G01X15121Y16066D02*
G01X15121Y16531D01*
G01X14806Y16066D02*
G01X14806Y16531D01*
G01X14490Y16066D02*
G01X14490Y16531D01*
G01X14176Y16066D02*
G01X14176Y16531D01*
G01X13860Y16066D02*
G01X13860Y16531D01*
G01X13546Y16066D02*
G01X13546Y16531D01*
G01X13231Y16066D02*
G01X13231Y16531D01*
G01X12915Y16066D02*
G01X12915Y16531D01*
G01X12601Y16066D02*
G01X12601Y16531D01*
G01X12184Y15650D02*
G01X11719Y15650D01*
G01X12184Y15334D02*
G01X11719Y15334D01*
G01X12184Y15019D02*
G01X11719Y15019D01*
G01X12184Y14705D02*
G01X11719Y14705D01*
G01X12184Y14390D02*
G01X11719Y14390D01*
G01X12184Y14075D02*
G01X11719Y14075D01*
G01X12184Y13759D02*
G01X11719Y13759D01*
G01X12184Y13444D02*
G01X11719Y13444D01*
G01X12184Y13130D02*
G01X11719Y13130D01*
G01X12184Y12815D02*
G01X11719Y12815D01*
G01X12184Y12500D02*
G01X11719Y12500D01*
G01X12601Y11618D02*
G01X12601Y12083D01*
G01X12915Y11618D02*
G01X12915Y12083D01*
G01X13231Y11618D02*
G01X13231Y12083D01*
G01X13546Y11618D02*
G01X13546Y12083D01*
G01X13860Y11618D02*
G01X13860Y12083D01*
G01X14176Y11618D02*
G01X14176Y12083D01*
G01X14490Y11618D02*
G01X14490Y12083D01*
G01X14806Y11618D02*
G01X14806Y12083D01*
G01X15121Y11618D02*
G01X15121Y12083D01*
G01X15435Y11618D02*
G01X15435Y12083D01*
G01X15751Y11618D02*
G01X15751Y12083D01*
G54D41*
G01X20312Y14321D02*
G01X20667Y14321D01*
G01X20312Y11471D02*
G01X20667Y11471D01*
G54D38*
G01X8100Y13250D03*
G01X8100Y14250D03*
G01X8100Y15250D03*
G01X8100Y16250D03*
G01X8100Y17250D03*
G54D39*
G01X8100Y18250D03*
G54D38*
G01X13500Y8700D03*
G01X12500Y8700D03*
G54D39*
G01X11500Y8700D03*
G01X8100Y11100D03*
G54D38*
G01X8100Y12100D03*
G54D39*
G01X20600Y15350D03*
G54D38*
G01X20600Y16350D03*
G54D39*
G01X9100Y8700D03*
G54D38*
G01X10100Y8700D03*
G54D39*
G01X15300Y8700D03*
G54D38*
G01X16300Y8700D03*
G54D18*
G01X12000Y9850D03*
G01X11252Y9850D03*
G54D19*
G01X9850Y17850D03*
G54D20*
G01X14500Y19100D03*
G01X12885Y19100D03*
G54D21*
G01X12600Y20200D03*
G01X13206Y20200D03*
G01X14600Y20200D03*
G01X13994Y20200D03*
G54D22*
G01X18823Y18400D03*
G01X18036Y18400D03*
G54D23*
G01X14700Y10449D03*
G01X14700Y11055D03*
G01X17200Y13549D03*
G01X17200Y14155D03*
G54D24*
G01X19118Y13403D03*
G01X19118Y13147D03*
G01X19118Y12891D03*
G01X19118Y12636D03*
G01X19118Y12380D03*
G54D40*
G01X19427Y11946D03*
G01X19427Y13853D03*
G54D25*
G01X20815Y13524D03*
G01X20809Y12233D03*
G54D26*
G01X18000Y13693D03*
G01X18000Y12906D03*
G54D22*
G01X18111Y12011D03*
G01X17324Y12011D03*
G54D27*
G01X12100Y17550D03*
G01X12100Y16802D03*
G54D23*
G01X16200Y11050D03*
G01X16200Y10444D03*
G01X15450Y11050D03*
G01X15450Y10444D03*
G54D28*
G01X18250Y19650D03*
G54D29*
G01X17669Y20040D03*
G01X17669Y19850D03*
G01X17669Y19650D03*
G01X17669Y19450D03*
G01X17669Y19259D03*
G01X18830Y19259D03*
G01X18830Y19450D03*
G01X18830Y19650D03*
G01X18830Y19850D03*
G01X18830Y20040D03*
G54D30*
G01X18800Y8100D03*
G01X19174Y8100D03*
G01X19548Y8100D03*
G01X19548Y8965D03*
G01X18800Y8965D03*
G54D31*
G01X16589Y19245D03*
G01X16589Y20032D03*
G54D21*
G01X19550Y20150D03*
G01X20156Y20150D03*
G54D27*
G01X17900Y10500D03*
G01X17900Y9751D03*
G54D23*
G01X19600Y18699D03*
G01X19600Y19305D03*
G01X9100Y16400D03*
G01X9100Y15794D03*
G01X11300Y17350D03*
G01X11300Y16744D03*
G01X10300Y15799D03*
G01X10300Y16405D03*
G01X11300Y18950D03*
G01X11300Y18344D03*
G54D22*
G01X8556Y19400D03*
G01X9343Y19400D03*
G54D28*
G01X18250Y16900D03*
G54D29*
G01X17669Y17290D03*
G01X17669Y17100D03*
G01X17669Y16900D03*
G01X17669Y16700D03*
G01X17669Y16509D03*
G01X18830Y16509D03*
G01X18830Y16700D03*
G01X18830Y16900D03*
G01X18830Y17100D03*
G01X18830Y17290D03*
G54D23*
G01X19600Y17349D03*
G01X19600Y17955D03*
G01X19610Y16690D03*
G01X19610Y16084D03*
G54D31*
G01X16610Y16515D03*
G01X16610Y17302D03*
G54D26*
G01X18800Y10493D03*
G01X18800Y9706D03*
G54D21*
G01X19550Y9550D03*
G01X20156Y9550D03*
G54D26*
G01X17900Y8893D03*
G01X17900Y8106D03*
G54D21*
G01X20250Y8300D03*
G01X20856Y8300D03*
G01X20150Y10250D03*
G01X19544Y10250D03*
G36*
G01X23994Y22856D02*
G01X24125Y22987D01*
G01X24337Y22775D01*
G01X24206Y22644D01*
G01X23994Y22856D01*
G37*
G36*
G01X24150Y23079D02*
G01X24468Y23397D01*
G01X24747Y23118D01*
G01X24429Y22800D01*
G01X24150Y23079D01*
G37*
G36*
G01X23795Y23070D02*
G01X23911Y23187D01*
G01X24028Y23070D01*
G01X23911Y22954D01*
G01X23795Y23070D01*
G37*
G36*
G01X23978Y23254D02*
G01X24095Y23371D01*
G01X24212Y23254D01*
G01X24095Y23137D01*
G01X23978Y23254D01*
G37*
G36*
G01X24162Y23438D02*
G01X24279Y23555D01*
G01X24396Y23438D01*
G01X24279Y23321D01*
G01X24162Y23438D01*
G37*
G36*
G01X24671Y22929D02*
G01X24788Y23046D01*
G01X24905Y22929D01*
G01X24788Y22812D01*
G01X24671Y22929D01*
G37*
G36*
G01X24488Y22745D02*
G01X24604Y22862D01*
G01X24721Y22745D01*
G01X24604Y22628D01*
G01X24488Y22745D01*
G37*
G36*
G01X24304Y22561D02*
G01X24420Y22678D01*
G01X24537Y22561D01*
G01X24420Y22444D01*
G01X24304Y22561D01*
G37*
G36*
G01X24156Y5755D02*
G01X24287Y5625D01*
G01X24075Y5412D01*
G01X23944Y5543D01*
G01X24156Y5755D01*
G37*
G36*
G01X24378Y5599D02*
G01X24697Y5281D01*
G01X24418Y5003D01*
G01X24100Y5321D01*
G01X24378Y5599D01*
G37*
G36*
G01X24370Y5955D02*
G01X24487Y5838D01*
G01X24370Y5722D01*
G01X24253Y5838D01*
G01X24370Y5955D01*
G37*
G36*
G01X24554Y5771D02*
G01X24671Y5655D01*
G01X24554Y5538D01*
G01X24437Y5655D01*
G01X24554Y5771D01*
G37*
G36*
G01X24738Y5587D02*
G01X24854Y5471D01*
G01X24738Y5354D01*
G01X24621Y5471D01*
G01X24738Y5587D01*
G37*
G36*
G01X24228Y5078D02*
G01X24345Y4962D01*
G01X24228Y4845D01*
G01X24112Y4962D01*
G01X24228Y5078D01*
G37*
G36*
G01X24045Y5262D02*
G01X24161Y5145D01*
G01X24045Y5029D01*
G01X23928Y5145D01*
G01X24045Y5262D01*
G37*
G36*
G01X23861Y5446D02*
G01X23977Y5329D01*
G01X23861Y5213D01*
G01X23744Y5329D01*
G01X23861Y5446D01*
G37*
G36*
G01X5693Y23094D02*
G01X5562Y23225D01*
G01X5774Y23437D01*
G01X5905Y23306D01*
G01X5693Y23094D01*
G37*
G36*
G01X5471Y23250D02*
G01X5152Y23568D01*
G01X5431Y23846D01*
G01X5749Y23528D01*
G01X5471Y23250D01*
G37*
G36*
G01X5479Y22894D02*
G01X5362Y23011D01*
G01X5479Y23127D01*
G01X5596Y23011D01*
G01X5479Y22894D01*
G37*
G36*
G01X5295Y23078D02*
G01X5178Y23194D01*
G01X5295Y23311D01*
G01X5412Y23194D01*
G01X5295Y23078D01*
G37*
G36*
G01X5111Y23262D02*
G01X4995Y23378D01*
G01X5111Y23495D01*
G01X5228Y23378D01*
G01X5111Y23262D01*
G37*
G36*
G01X5620Y23771D02*
G01X5504Y23887D01*
G01X5620Y24004D01*
G01X5737Y23887D01*
G01X5620Y23771D01*
G37*
G36*
G01X5804Y23587D02*
G01X5688Y23704D01*
G01X5804Y23820D01*
G01X5921Y23704D01*
G01X5804Y23587D01*
G37*
G36*
G01X5988Y23403D02*
G01X5871Y23520D01*
G01X5988Y23636D01*
G01X6105Y23520D01*
G01X5988Y23403D01*
G37*
G36*
G01X6055Y4943D02*
G01X5924Y4812D01*
G01X5712Y5024D01*
G01X5843Y5155D01*
G01X6055Y4943D01*
G37*
G36*
G01X5899Y4720D02*
G01X5581Y4402D01*
G01X5302Y4681D01*
G01X5620Y4999D01*
G01X5899Y4720D01*
G37*
G36*
G01X6255Y4729D02*
G01X6138Y4612D01*
G01X6021Y4729D01*
G01X6138Y4845D01*
G01X6255Y4729D01*
G37*
G36*
G01X6071Y4545D02*
G01X5954Y4428D01*
G01X5837Y4545D01*
G01X5954Y4661D01*
G01X6071Y4545D01*
G37*
G36*
G01X5887Y4361D02*
G01X5770Y4244D01*
G01X5654Y4361D01*
G01X5770Y4478D01*
G01X5887Y4361D01*
G37*
G36*
G01X5378Y4870D02*
G01X5261Y4753D01*
G01X5144Y4870D01*
G01X5261Y4987D01*
G01X5378Y4870D01*
G37*
G36*
G01X5562Y5054D02*
G01X5445Y4937D01*
G01X5328Y5054D01*
G01X5445Y5171D01*
G01X5562Y5054D01*
G37*
G36*
G01X5746Y5238D02*
G01X5629Y5121D01*
G01X5512Y5238D01*
G01X5629Y5355D01*
G01X5746Y5238D01*
G37*
G54D22*
G01X10393Y12000D03*
G01X9606Y12000D03*
G01X10193Y13800D03*
G01X9406Y13800D03*
G01X9893Y14900D03*
G01X9106Y14900D03*
G01X10193Y12900D03*
G01X9406Y12900D03*
G36*
G01X24061Y3549D02*
G01X24500Y3988D01*
G01X24938Y3549D01*
G01X24500Y3111D01*
G01X24061Y3549D01*
G37*
G54D38*
G01X25206Y4257D03*
G36*
G01X24500Y25038D02*
G01X24938Y24600D01*
G01X24500Y24161D01*
G01X24061Y24600D01*
G01X24500Y25038D01*
G37*
G01X25206Y23892D03*
G36*
G01X3950Y4887D02*
G01X4388Y4449D01*
G01X3950Y4011D01*
G01X3511Y4449D01*
G01X3950Y4887D01*
G37*
G01X4656Y3742D03*
G36*
G01X3311Y23800D02*
G01X3749Y24238D01*
G01X4188Y23800D01*
G01X3749Y23361D01*
G01X3311Y23800D01*
G37*
G01X4456Y24507D03*
G54D35*
G01X18007Y15400D03*
G01X18992Y15773D03*
G01X18992Y15026D03*
G54D36*
G01X9100Y9600D03*
G01X8750Y10400D03*
G01X9450Y10400D03*
G54D37*
G01X13850Y9700D03*
G01X13500Y9700D03*
G01X13150Y9700D03*
G54D22*
G01X8856Y20150D03*
G01X9643Y20150D03*
M00*
M02*
