G04 ---------------------------- Layer name :TOP SOLDER LAYER*
G04 EasyEDA v5.5.12, Thu, 07 Jun 2018 12:22:22 GMT*
G04 57f62d747bd94b0b94c3b91961ed7a1b*
G04 Gerber Generator version 0.2*
G04 Scale: 100 percent, Rotated: No, Reflected: No *
G04 Dimensions in inches *
G04 leading zeros omitted , absolute positions ,2 integer and 4 decimal *
%FSLAX24Y24*%
%MOIN*%
G90*
G70D02*

%ADD20C,0.019024*%
%ADD21C,0.024535*%
%ADD24R,0.114300X0.039496*%
%ADD25R,0.035559X0.057213*%
%ADD26R,0.059181X0.035560*%
%ADD27R,0.035560X0.019810*%
%ADD28R,0.047370X0.051307*%
%ADD29R,0.051307X0.047370*%
%ADD30R,0.082803X0.102488*%
%ADD31R,0.053670X0.065870*%
%ADD32R,0.065870X0.053670*%
%ADD33R,0.039496X0.114300*%
%ADD34R,0.063100X0.059200*%
%ADD35R,0.059200X0.063100*%
%ADD36R,0.113512X0.113512*%
%ADD37R,0.025717X0.086740*%
%ADD38R,0.070992X0.055240*%
%ADD39R,0.103500X0.073500*%
%ADD40R,0.019500X0.042500*%
%ADD41R,0.073500X0.103500*%
%ADD42R,0.042500X0.019500*%
%ADD43R,0.070000X0.070000*%
%ADD44C,0.070000*%
%ADD45C,0.047370*%
%ADD46R,0.074000X0.074000*%
%ADD47C,0.067055*%
%ADD48C,0.059181*%

%LPD*%
G54D20*
G01X17932Y9203D02*
G01X17727Y9203D01*
G01X17932Y9401D02*
G01X17727Y9401D01*
G01X17932Y9598D02*
G01X17727Y9598D01*
G01X17932Y9794D02*
G01X17727Y9794D01*
G01X17932Y9990D02*
G01X17727Y9990D01*
G01X17932Y10188D02*
G01X17727Y10188D01*
G01X17489Y10421D02*
G01X17489Y10626D01*
G01X17293Y10421D02*
G01X17293Y10626D01*
G01X17096Y10421D02*
G01X17096Y10626D01*
G01X16900Y10421D02*
G01X16900Y10626D01*
G01X16702Y10421D02*
G01X16702Y10626D01*
G01X16506Y10421D02*
G01X16506Y10626D01*
G01X16272Y10184D02*
G01X16067Y10184D01*
G01X16272Y9986D02*
G01X16067Y9986D01*
G01X16272Y9790D02*
G01X16067Y9790D01*
G01X16272Y9594D02*
G01X16067Y9594D01*
G01X16272Y9397D02*
G01X16067Y9397D01*
G01X16272Y9200D02*
G01X16067Y9200D01*
G01X16500Y8751D02*
G01X16500Y8956D01*
G01X16697Y8751D02*
G01X16697Y8956D01*
G01X16893Y8751D02*
G01X16893Y8956D01*
G01X17089Y8751D02*
G01X17089Y8956D01*
G01X17286Y8751D02*
G01X17286Y8956D01*
G01X17484Y8751D02*
G01X17484Y8956D01*
G54D48*
G01X14025Y19412D02*
G01X14025Y19767D01*
G01X16875Y19412D02*
G01X16875Y19767D01*
G54D21*
G01X11567Y15943D02*
G01X12031Y15943D01*
G01X11567Y15628D02*
G01X12031Y15628D01*
G01X11567Y15313D02*
G01X12031Y15313D01*
G01X11567Y14998D02*
G01X12031Y14998D01*
G01X11567Y14684D02*
G01X12031Y14684D01*
G01X11567Y14369D02*
G01X12031Y14369D01*
G01X11567Y14053D02*
G01X12031Y14053D01*
G01X11567Y13739D02*
G01X12031Y13739D01*
G01X11567Y13424D02*
G01X12031Y13424D01*
G01X11567Y13109D02*
G01X12031Y13109D01*
G01X11567Y12794D02*
G01X12031Y12794D01*
G01X12449Y12376D02*
G01X12449Y11912D01*
G01X12764Y12376D02*
G01X12764Y11912D01*
G01X13079Y12376D02*
G01X13079Y11912D01*
G01X13394Y12376D02*
G01X13394Y11912D01*
G01X13709Y12376D02*
G01X13709Y11912D01*
G01X14023Y12376D02*
G01X14023Y11912D01*
G01X14339Y12376D02*
G01X14339Y11912D01*
G01X14653Y12376D02*
G01X14653Y11912D01*
G01X14968Y12376D02*
G01X14968Y11912D01*
G01X15283Y12376D02*
G01X15283Y11912D01*
G01X15598Y12376D02*
G01X15598Y11912D01*
G01X16016Y12794D02*
G01X16480Y12794D01*
G01X16016Y13109D02*
G01X16480Y13109D01*
G01X16016Y13424D02*
G01X16480Y13424D01*
G01X16016Y13739D02*
G01X16480Y13739D01*
G01X16016Y14053D02*
G01X16480Y14053D01*
G01X16016Y14369D02*
G01X16480Y14369D01*
G01X16016Y14684D02*
G01X16480Y14684D01*
G01X16016Y14998D02*
G01X16480Y14998D01*
G01X16016Y15313D02*
G01X16480Y15313D01*
G01X16016Y15628D02*
G01X16480Y15628D01*
G01X16016Y15943D02*
G01X16480Y15943D01*
G01X15598Y16825D02*
G01X15598Y16361D01*
G01X15283Y16825D02*
G01X15283Y16361D01*
G01X14968Y16825D02*
G01X14968Y16361D01*
G01X14653Y16825D02*
G01X14653Y16361D01*
G01X14339Y16825D02*
G01X14339Y16361D01*
G01X14023Y16825D02*
G01X14023Y16361D01*
G01X13709Y16825D02*
G01X13709Y16361D01*
G01X13394Y16825D02*
G01X13394Y16361D01*
G01X13079Y16825D02*
G01X13079Y16361D01*
G01X12764Y16825D02*
G01X12764Y16361D01*
G01X12449Y16825D02*
G01X12449Y16361D01*
G54D24*
G01X12800Y19192D03*
G01X12800Y18405D03*
G36*
G01X6977Y21311D02*
G01X6782Y21116D01*
G01X6434Y21464D01*
G01X6629Y21659D01*
G01X6977Y21311D01*
G37*
G36*
G01X7937Y20880D02*
G01X7742Y20685D01*
G01X7394Y21033D01*
G01X7589Y21228D01*
G01X7937Y20880D01*
G37*
G36*
G01X7408Y20351D02*
G01X7213Y20156D01*
G01X6865Y20504D01*
G01X7060Y20699D01*
G01X7408Y20351D01*
G37*
G54D25*
G01X19400Y17352D03*
G01X19026Y18336D03*
G01X19773Y18336D03*
G54D26*
G01X11547Y8450D03*
G01X11547Y9237D03*
G01X10052Y8450D03*
G01X10052Y9237D03*
G54D27*
G01X10800Y8244D03*
G01X10800Y9444D03*
G54D28*
G01X13756Y9543D03*
G01X14385Y9543D03*
G01X13134Y9544D03*
G01X12504Y9544D03*
G01X16756Y16893D03*
G01X17385Y16893D03*
G54D29*
G01X11199Y12137D03*
G01X11199Y11508D03*
G54D28*
G01X16756Y17643D03*
G01X17385Y17643D03*
G54D30*
G01X12600Y10594D03*
G01X14214Y10594D03*
G54D28*
G01X18543Y11044D03*
G01X17914Y11044D03*
G01X15793Y10994D03*
G01X15164Y10994D03*
G54D29*
G01X15199Y10087D03*
G01X15199Y9458D03*
G54D31*
G01X14350Y8793D03*
G01X15150Y8793D03*
G54D32*
G01X18650Y10043D03*
G01X18650Y9243D03*
G54D33*
G01X10348Y13144D03*
G01X9561Y13144D03*
G54D29*
G01X8719Y15187D03*
G01X8719Y14558D03*
G54D34*
G01X8700Y13700D03*
G01X8700Y12873D03*
G54D29*
G01X10300Y17050D03*
G01X10300Y17679D03*
G54D28*
G01X14293Y17544D03*
G01X13664Y17544D03*
G01X12893Y17744D03*
G01X12264Y17744D03*
G54D43*
G01X19550Y16594D03*
G54D44*
G01X19550Y15594D03*
G01X19550Y12494D03*
G01X19550Y13494D03*
G54D43*
G01X19550Y14494D03*
G01X8750Y10594D03*
G54D44*
G01X8750Y11594D03*
G36*
G01X8032Y7871D02*
G01X8227Y7676D01*
G01X7879Y7328D01*
G01X7684Y7523D01*
G01X8032Y7871D01*
G37*
G36*
G01X8463Y8831D02*
G01X8658Y8636D01*
G01X8310Y8288D01*
G01X8115Y8483D01*
G01X8463Y8831D01*
G37*
G36*
G01X8992Y8302D02*
G01X9187Y8107D01*
G01X8839Y7759D01*
G01X8644Y7954D01*
G01X8992Y8302D01*
G37*
G36*
G01X21167Y21566D02*
G01X20972Y21761D01*
G01X21320Y22109D01*
G01X21515Y21914D01*
G01X21167Y21566D01*
G37*
G36*
G01X20736Y20606D02*
G01X20541Y20801D01*
G01X20889Y21149D01*
G01X21084Y20954D01*
G01X20736Y20606D01*
G37*
G36*
G01X20207Y21135D02*
G01X20012Y21330D01*
G01X20360Y21678D01*
G01X20555Y21483D01*
G01X20207Y21135D01*
G37*
G54D31*
G01X17400Y14043D03*
G01X18200Y14043D03*
G01X17400Y14993D03*
G01X18200Y14993D03*
G01X17400Y13243D03*
G01X18200Y13243D03*
G54D45*
G01X21422Y6765D03*
G01X21777Y7122D03*
G01X6571Y6922D03*
G01X6928Y6565D03*
G01X22427Y22315D03*
G01X22072Y22672D03*
G01X6228Y22572D03*
G01X5871Y22215D03*
G36*
G01X9572Y18826D02*
G01X9767Y19021D01*
G01X10115Y18673D01*
G01X9920Y18478D01*
G01X9572Y18826D01*
G37*
G36*
G01X8612Y19257D02*
G01X8807Y19452D01*
G01X9155Y19104D01*
G01X8960Y18909D01*
G01X8612Y19257D01*
G37*
G36*
G01X9141Y19786D02*
G01X9336Y19981D01*
G01X9684Y19633D01*
G01X9489Y19438D01*
G01X9141Y19786D01*
G37*
G54D35*
G01X18206Y12044D03*
G01X17379Y12044D03*
G54D46*
G01X9200Y16453D03*
G01X9200Y17234D03*
G54D29*
G01X19600Y9200D03*
G01X19600Y9829D03*
G54D36*
G01X17000Y9694D03*
G54D37*
G01X14942Y18218D03*
G01X15198Y18218D03*
G01X15454Y18218D03*
G01X15710Y18218D03*
G01X15965Y18218D03*
G54D47*
G01X16398Y18527D03*
G01X14493Y18527D03*
G54D38*
G01X14821Y19915D03*
G01X16112Y19909D03*
G54D31*
G01X17400Y15943D03*
G01X18200Y15943D03*
G36*
G01X20672Y8026D02*
G01X20867Y8221D01*
G01X21215Y7873D01*
G01X21020Y7678D01*
G01X20672Y8026D01*
G37*
G36*
G01X19712Y8457D02*
G01X19907Y8652D01*
G01X20255Y8304D01*
G01X20060Y8109D01*
G01X19712Y8457D01*
G37*
G36*
G01X20241Y8986D02*
G01X20436Y9181D01*
G01X20784Y8833D01*
G01X20589Y8638D01*
G01X20241Y8986D01*
G37*
G54D39*
G01X10000Y14594D03*
G54D40*
G01X9610Y14013D03*
G01X9800Y14013D03*
G01X10000Y14013D03*
G01X10200Y14013D03*
G01X10389Y14013D03*
G01X10389Y15174D03*
G01X10200Y15174D03*
G01X10000Y15174D03*
G01X9800Y15174D03*
G01X9610Y15174D03*
G54D41*
G01X11250Y18744D03*
G54D42*
G01X11830Y18353D03*
G01X11830Y18544D03*
G01X11830Y18744D03*
G01X11830Y18944D03*
G01X11830Y19134D03*
G01X10669Y19134D03*
G01X10669Y18944D03*
G01X10669Y18744D03*
G01X10669Y18544D03*
G01X10669Y18353D03*
G54D31*
G01X10750Y10193D03*
G01X11550Y10193D03*
G36*
G01X9290Y9790D02*
G01X9596Y9484D01*
G01X9318Y9205D01*
G01X9012Y9512D01*
G01X9290Y9790D01*
G37*
G36*
G01X9735Y10235D02*
G01X10041Y9929D01*
G01X9763Y9651D01*
G01X9457Y9957D01*
G01X9735Y10235D01*
G37*
G54D29*
G01X10150Y11000D03*
G01X10150Y11629D03*
G01X10309Y16397D03*
G01X10309Y15768D03*
G01X11250Y16950D03*
G01X11250Y17579D03*
M00*
M02*
