G04 ---------------------------- Layer name :TOP SILK LAYER*
G04 EasyEDA v5.5.12, Thu, 07 Jun 2018 12:22:22 GMT*
G04 57f62d747bd94b0b94c3b91961ed7a1b*
G04 Gerber Generator version 0.2*
G04 Scale: 100 percent, Rotated: No, Reflected: No *
G04 Dimensions in inches *
G04 leading zeros omitted , absolute positions ,2 integer and 4 decimal *
%FSLAX24Y24*%
%MOIN*%
G90*
G70D02*

%ADD10C,0.010000*%
%ADD49C,0.007874*%
%ADD50C,0.003937*%
%ADD51C,0.007870*%
%ADD52C,0.008000*%
%ADD53C,0.007992*%
%ADD54C,0.007900*%
%ADD55C,0.009842*%
%ADD56C,0.003900*%
%ADD57C,0.023622*%
%ADD58C,0.011811*%
%ADD59C,0.005000*%
%ADD60C,0.006000*%

%LPD*%
G54D10*
G01X13390Y19389D02*
G01X13390Y18208D01*
G01X12209Y18208D01*
G01X12209Y19389D01*
G01X13390Y19389D01*
G01X7095Y21444D02*
G01X7279Y21627D01*
G01X7095Y21444D01*
G01X7279Y21627D01*
G01X7505Y21400D01*
G01X6693Y20588D02*
G01X6466Y20814D01*
G01X6649Y20998D01*
G54D49*
G01X7220Y20706D02*
G01X7387Y20873D01*
G54D10*
G01X19085Y17588D02*
G01X18825Y17588D01*
G01X19085Y17588D01*
G01X18825Y17588D01*
G01X18825Y17909D01*
G01X19974Y17909D02*
G01X19974Y17588D01*
G01X19714Y17588D01*
G54D49*
G01X19518Y18198D02*
G01X19281Y18198D01*
G54D50*
G01X11200Y8244D02*
G01X10400Y8244D01*
G01X10400Y9444D01*
G01X11200Y9444D01*
G01X11200Y8244D01*
G54D49*
G01X14222Y9859D02*
G01X14655Y9859D01*
G01X14655Y9228D01*
G01X14222Y9228D01*
G01X13907Y9859D02*
G01X13474Y9859D01*
G01X13474Y9465D01*
G01X13474Y9228D01*
G01X13907Y9228D01*
G01X12667Y9228D02*
G01X12234Y9228D01*
G01X12234Y9859D01*
G01X12667Y9859D01*
G01X12982Y9228D02*
G01X13415Y9228D01*
G01X13415Y9622D01*
G01X13415Y9859D01*
G01X12982Y9859D01*
G01X17222Y17209D02*
G01X17655Y17209D01*
G01X17655Y16578D01*
G01X17222Y16578D01*
G01X16907Y17209D02*
G01X16474Y17209D01*
G01X16474Y16815D01*
G01X16474Y16578D01*
G01X16907Y16578D01*
G01X11514Y11671D02*
G01X11514Y11238D01*
G01X10885Y11238D01*
G01X10885Y11671D01*
G01X11514Y11986D02*
G01X11514Y12419D01*
G01X11121Y12419D01*
G01X10885Y12419D01*
G01X10885Y11986D01*
G01X17222Y17959D02*
G01X17655Y17959D01*
G01X17655Y17328D01*
G01X17222Y17328D01*
G01X16907Y17959D02*
G01X16474Y17959D01*
G01X16474Y17565D01*
G01X16474Y17328D01*
G01X16907Y17328D01*
G54D10*
G01X12098Y10869D02*
G01X12098Y11224D01*
G01X14716Y11224D01*
G01X14716Y10869D01*
G01X14716Y10318D02*
G01X14716Y9964D01*
G01X12098Y9964D01*
G01X12098Y10318D01*
G54D49*
G01X18077Y10728D02*
G01X17644Y10728D01*
G01X17644Y11359D01*
G01X18077Y11359D01*
G01X18392Y10728D02*
G01X18825Y10728D01*
G01X18825Y11122D01*
G01X18825Y11359D01*
G01X18392Y11359D01*
G01X15327Y10678D02*
G01X14894Y10678D01*
G01X14894Y11309D01*
G01X15327Y11309D01*
G01X15642Y10678D02*
G01X16075Y10678D01*
G01X16075Y11072D01*
G01X16075Y11309D01*
G01X15642Y11309D01*
G01X15514Y9621D02*
G01X15514Y9188D01*
G01X14885Y9188D01*
G01X14885Y9621D01*
G01X15514Y9936D02*
G01X15514Y10369D01*
G01X15121Y10369D01*
G01X14885Y10369D01*
G01X14885Y9936D01*
G54D51*
G01X14968Y8386D02*
G01X15488Y8386D01*
G01X15488Y9201D01*
G01X14968Y9201D01*
G01X14522Y8386D02*
G01X14003Y8386D01*
G01X14003Y9201D01*
G01X14522Y9201D01*
G01X18242Y9425D02*
G01X18242Y8905D01*
G01X19057Y8905D01*
G01X19057Y9425D01*
G01X18242Y9871D02*
G01X18242Y10390D01*
G01X19057Y10390D01*
G01X19057Y9871D01*
G54D10*
G01X10545Y12553D02*
G01X9364Y12553D01*
G01X9364Y13734D01*
G01X10545Y13734D01*
G01X10545Y12553D01*
G54D49*
G01X9034Y14721D02*
G01X9034Y14288D01*
G01X8405Y14288D01*
G01X8405Y14721D01*
G01X9034Y15036D02*
G01X9034Y15469D01*
G01X8641Y15469D01*
G01X8405Y15469D01*
G01X8405Y15036D01*
G54D10*
G01X9100Y13461D02*
G01X9100Y14071D01*
G01X8300Y14071D01*
G01X8300Y13461D01*
G01X9109Y13151D02*
G01X9109Y12571D01*
G01X8950Y12411D01*
G01X8450Y12411D01*
G01X8300Y12561D01*
G01X8300Y13161D01*
G01X8896Y13372D02*
G01X8503Y13372D01*
G01X8503Y13372D01*
G01X8700Y13175D01*
G01X8700Y13175D01*
G01X8896Y13372D01*
G01X9015Y12506D02*
G01X8384Y12506D01*
G54D49*
G01X9985Y17516D02*
G01X9985Y17949D01*
G01X10614Y17949D01*
G01X10614Y17516D01*
G01X9985Y17201D02*
G01X9985Y16768D01*
G01X10378Y16768D01*
G01X10614Y16768D01*
G01X10614Y17201D01*
G01X13827Y17228D02*
G01X13394Y17228D01*
G01X13394Y17859D01*
G01X13827Y17859D01*
G01X14142Y17228D02*
G01X14575Y17228D01*
G01X14575Y17622D01*
G01X14575Y17859D01*
G01X14142Y17859D01*
G01X12427Y17428D02*
G01X11994Y17428D01*
G01X11994Y18059D01*
G01X12427Y18059D01*
G01X12742Y17428D02*
G01X13175Y17428D01*
G01X13175Y17822D01*
G01X13175Y18059D01*
G01X12742Y18059D01*
G54D52*
G01X20050Y15094D02*
G01X19050Y15094D01*
G01X19050Y17094D01*
G01X20050Y17094D01*
G01X20050Y16344D01*
G54D53*
G01X20050Y15094D02*
G01X20050Y16344D01*
G54D52*
G01X20050Y14244D02*
G01X20050Y14994D01*
G01X19050Y14994D01*
G01X19050Y11994D01*
G01X20050Y11994D01*
G54D53*
G01X20050Y11994D02*
G01X20050Y14244D01*
G54D52*
G01X8250Y12094D02*
G01X9250Y12094D01*
G01X9250Y10094D01*
G01X8250Y10094D01*
G01X8250Y10844D01*
G54D53*
G01X8250Y12094D02*
G01X8250Y10844D01*
G54D10*
G01X7899Y7989D02*
G01X7716Y8173D01*
G01X7899Y7989D01*
G01X7716Y8173D01*
G01X7943Y8399D01*
G01X8755Y7587D02*
G01X8529Y7360D01*
G01X8345Y7543D01*
G54D49*
G01X8637Y8114D02*
G01X8470Y8281D01*
G54D10*
G01X21300Y21448D02*
G01X21483Y21264D01*
G01X21300Y21448D01*
G01X21483Y21264D01*
G01X21256Y21038D01*
G01X20444Y21850D02*
G01X20670Y22077D01*
G01X20854Y21894D01*
G54D49*
G01X20562Y21323D02*
G01X20729Y21156D01*
G54D51*
G01X18018Y13636D02*
G01X18538Y13636D01*
G01X18538Y14451D01*
G01X18018Y14451D01*
G01X17572Y13636D02*
G01X17053Y13636D01*
G01X17053Y14451D01*
G01X17572Y14451D01*
G01X18018Y14586D02*
G01X18538Y14586D01*
G01X18538Y15401D01*
G01X18018Y15401D01*
G01X17572Y14586D02*
G01X17053Y14586D01*
G01X17053Y15401D01*
G01X17572Y15401D01*
G01X18018Y12836D02*
G01X18538Y12836D01*
G01X18538Y13651D01*
G01X18018Y13651D01*
G01X17572Y12836D02*
G01X17053Y12836D01*
G01X17053Y13651D01*
G01X17572Y13651D01*
G54D10*
G01X20480Y6893D02*
G01X21549Y5824D01*
G01X21650Y8063D02*
G01X22719Y6994D01*
G01X20485Y6889D02*
G01X21654Y8058D01*
G01X22714Y6998D02*
G01X21545Y5829D01*
G01X20591Y6783D02*
G01X21760Y7952D01*
G01X21439Y5935D02*
G01X22608Y7104D01*
G01X20928Y7332D02*
G01X21034Y7226D01*
G01X21211Y7615D02*
G01X21317Y7509D01*
G01X6699Y7863D02*
G01X5630Y6794D01*
G01X7869Y6693D02*
G01X6800Y5624D01*
G01X6695Y7858D02*
G01X7864Y6689D01*
G01X6804Y5629D02*
G01X5635Y6798D01*
G01X6589Y7752D02*
G01X7758Y6583D01*
G01X5741Y6904D02*
G01X6910Y5735D01*
G01X7138Y7415D02*
G01X7032Y7309D01*
G01X7421Y7132D02*
G01X7315Y7026D01*
G01X22300Y21374D02*
G01X23369Y22443D01*
G01X21130Y22544D02*
G01X22199Y23613D01*
G01X22304Y21379D02*
G01X21135Y22548D01*
G01X22195Y23608D02*
G01X23364Y22439D01*
G01X22410Y21485D02*
G01X21241Y22654D01*
G01X23258Y22333D02*
G01X22089Y23502D01*
G01X21861Y21822D02*
G01X21967Y21928D01*
G01X21578Y22105D02*
G01X21684Y22211D01*
G01X7169Y22444D02*
G01X6100Y23513D01*
G01X5999Y21274D02*
G01X4930Y22343D01*
G01X7164Y22448D02*
G01X5995Y21279D01*
G01X4935Y22339D02*
G01X6104Y23508D01*
G01X7058Y22554D02*
G01X5889Y21385D01*
G01X6210Y23402D02*
G01X5041Y22233D01*
G01X6721Y22005D02*
G01X6615Y22111D01*
G01X6438Y21722D02*
G01X6332Y21828D01*
G01X9454Y18693D02*
G01X9270Y18510D01*
G01X9454Y18693D01*
G01X9270Y18510D01*
G01X9044Y18737D01*
G01X9856Y19549D02*
G01X10083Y19323D01*
G01X9900Y19139D01*
G54D49*
G01X9329Y19431D02*
G01X9162Y19264D01*
G54D10*
G01X17967Y11644D02*
G01X18577Y11644D01*
G01X18577Y12444D01*
G01X17967Y12444D01*
G01X17657Y11634D02*
G01X17077Y11634D01*
G01X16917Y11794D01*
G01X16917Y12294D01*
G01X17067Y12444D01*
G01X17667Y12444D01*
G01X17878Y11847D02*
G01X17878Y12240D01*
G01X17878Y12240D01*
G01X17681Y12044D01*
G01X17681Y12044D01*
G01X17878Y11847D01*
G01X17012Y11728D02*
G01X17012Y12359D01*
G01X8100Y18003D02*
G01X8100Y15684D01*
G01X8959Y15684D01*
G01X8959Y15913D01*
G01X9319Y15913D01*
G01X9319Y15684D01*
G01X9869Y15684D01*
G01X9869Y16684D01*
G01X9869Y17003D01*
G01X9869Y18003D01*
G01X9319Y18003D01*
G01X9319Y17774D01*
G01X8959Y17774D01*
G01X8959Y18003D01*
G01X8100Y18003D01*
G01X8959Y18003D02*
G01X9319Y18003D01*
G01X8959Y15684D02*
G01X9319Y15684D01*
G01X8959Y15913D02*
G01X8330Y15913D01*
G01X8330Y17774D01*
G01X8959Y17774D01*
G01X9319Y15913D02*
G01X9630Y15913D01*
G01X9630Y16684D01*
G01X9869Y16684D01*
G01X9319Y17774D02*
G01X9630Y17774D01*
G01X9630Y17003D01*
G01X9869Y17003D01*
G54D49*
G01X19285Y9666D02*
G01X19285Y10099D01*
G01X19914Y10099D01*
G01X19914Y9666D01*
G01X19285Y9351D02*
G01X19285Y8918D01*
G01X19678Y8918D01*
G01X19914Y8918D01*
G01X19914Y9351D01*
G01X17846Y9005D02*
G01X17846Y8847D01*
G01X17689Y8847D01*
G01X16310Y8847D02*
G01X16153Y8847D01*
G01X16153Y9005D01*
G01X16310Y10540D02*
G01X16153Y10540D01*
G01X16153Y10382D01*
G01X17689Y10540D02*
G01X17846Y10540D01*
G01X17846Y10382D01*
G54D10*
G01X13875Y18141D02*
G01X13875Y20401D01*
G01X13875Y18137D02*
G01X17024Y18137D01*
G01X17024Y18137D02*
G01X17024Y20397D01*
G01X13875Y20405D02*
G01X17024Y20405D01*
G01X14115Y20125D02*
G01X16780Y20125D01*
G01X13883Y20405D02*
G01X13883Y20357D01*
G01X14115Y20125D01*
G01X17013Y20397D02*
G01X17013Y20357D01*
G01X16780Y20125D01*
G54D51*
G01X18018Y15536D02*
G01X18538Y15536D01*
G01X18538Y16351D01*
G01X18018Y16351D01*
G01X17572Y15536D02*
G01X17053Y15536D01*
G01X17053Y16351D01*
G01X17572Y16351D01*
G54D10*
G01X20554Y7893D02*
G01X20370Y7710D01*
G01X20554Y7893D01*
G01X20370Y7710D01*
G01X20144Y7937D01*
G01X20956Y8749D02*
G01X21183Y8523D01*
G01X21000Y8339D01*
G54D49*
G01X20429Y8631D02*
G01X20262Y8464D01*
G54D54*
G01X10668Y14140D02*
G01X10668Y13925D01*
G01X10606Y13925D01*
G01X10668Y15047D02*
G01X10668Y15263D01*
G01X10606Y15263D01*
G01X9330Y15047D02*
G01X9330Y15263D01*
G01X9394Y15263D01*
G01X9394Y13925D02*
G01X9330Y13925D01*
G01X9330Y14140D01*
G01X11702Y19413D02*
G01X11918Y19413D01*
G01X11918Y19350D01*
G01X10797Y19413D02*
G01X10581Y19413D01*
G01X10581Y19350D01*
G01X10797Y18075D02*
G01X10581Y18075D01*
G01X10581Y18138D01*
G01X11918Y18138D02*
G01X11918Y18075D01*
G01X11702Y18075D01*
G54D51*
G01X11368Y9786D02*
G01X11888Y9786D01*
G01X11888Y10601D01*
G01X11368Y10601D01*
G01X10922Y9786D02*
G01X10403Y9786D01*
G01X10403Y10601D01*
G01X10922Y10601D01*
G54D49*
G01X9411Y10050D02*
G01X9717Y10357D01*
G01X10163Y9911D01*
G01X9856Y9605D01*
G01X9188Y9828D02*
G01X8882Y9521D01*
G01X9160Y9243D01*
G01X9327Y9076D01*
G01X9634Y9382D01*
G01X9835Y11466D02*
G01X9835Y11899D01*
G01X10464Y11899D01*
G01X10464Y11466D01*
G01X9835Y11151D02*
G01X9835Y10718D01*
G01X10228Y10718D01*
G01X10464Y10718D01*
G01X10464Y11151D01*
G01X10625Y15931D02*
G01X10625Y15498D01*
G01X9994Y15498D01*
G01X9994Y15931D01*
G01X10625Y16246D02*
G01X10625Y16679D01*
G01X10231Y16679D01*
G01X9994Y16679D01*
G01X9994Y16246D01*
G01X10935Y17416D02*
G01X10935Y17849D01*
G01X11564Y17849D01*
G01X11564Y17416D01*
G01X10935Y17101D02*
G01X10935Y16668D01*
G01X11328Y16668D01*
G01X11564Y16668D01*
G01X11564Y17101D01*
G01X15775Y16120D02*
G01X15775Y12617D01*
G01X12272Y12617D01*
G01X12272Y16120D01*
G01X15775Y16120D01*
G54D59*
G01X12513Y18902D02*
G01X12513Y18615D01*
G01X12513Y18615D02*
G01X12677Y18615D01*
G01X12780Y18833D02*
G01X12780Y18847D01*
G01X12794Y18874D01*
G01X12808Y18888D01*
G01X12835Y18902D01*
G01X12889Y18902D01*
G01X12917Y18888D01*
G01X12930Y18874D01*
G01X12944Y18847D01*
G01X12944Y18820D01*
G01X12930Y18793D01*
G01X12903Y18752D01*
G01X12767Y18615D01*
G01X12958Y18615D01*
G01X7982Y19902D02*
G01X7955Y19888D01*
G01X7926Y19861D01*
G01X7913Y19833D01*
G01X7900Y19793D01*
G01X7900Y19724D01*
G01X7913Y19683D01*
G01X7926Y19656D01*
G01X7955Y19629D01*
G01X7982Y19615D01*
G01X8036Y19615D01*
G01X8063Y19629D01*
G01X8090Y19656D01*
G01X8105Y19683D01*
G01X8117Y19724D01*
G01X8117Y19793D01*
G01X8105Y19833D01*
G01X8090Y19861D01*
G01X8063Y19888D01*
G01X8036Y19902D01*
G01X7982Y19902D01*
G01X8023Y19670D02*
G01X8105Y19588D01*
G01X8207Y19847D02*
G01X8234Y19861D01*
G01X8276Y19902D01*
G01X8276Y19615D01*
G01X19281Y18003D02*
G01X19255Y17988D01*
G01X19227Y17961D01*
G01X19214Y17934D01*
G01X19200Y17894D01*
G01X19200Y17825D01*
G01X19214Y17784D01*
G01X19227Y17757D01*
G01X19255Y17730D01*
G01X19281Y17715D01*
G01X19335Y17715D01*
G01X19364Y17730D01*
G01X19390Y17757D01*
G01X19405Y17784D01*
G01X19418Y17825D01*
G01X19418Y17894D01*
G01X19405Y17934D01*
G01X19390Y17961D01*
G01X19364Y17988D01*
G01X19335Y18003D01*
G01X19281Y18003D01*
G01X19322Y17771D02*
G01X19405Y17688D01*
G01X19672Y18003D02*
G01X19535Y18003D01*
G01X19522Y17880D01*
G01X19535Y17894D01*
G01X19576Y17907D01*
G01X19617Y17907D01*
G01X19657Y17894D01*
G01X19685Y17865D01*
G01X19698Y17825D01*
G01X19698Y17798D01*
G01X19685Y17757D01*
G01X19657Y17730D01*
G01X19617Y17715D01*
G01X19576Y17715D01*
G01X19535Y17730D01*
G01X19522Y17744D01*
G01X19507Y17771D01*
G01X10677Y8620D02*
G01X10650Y8593D01*
G01X10635Y8552D01*
G01X10635Y8497D01*
G01X10650Y8456D01*
G01X10677Y8429D01*
G01X10705Y8429D01*
G01X10731Y8443D01*
G01X10744Y8456D01*
G01X10759Y8484D01*
G01X10785Y8565D01*
G01X10800Y8593D01*
G01X10814Y8606D01*
G01X10840Y8620D01*
G01X10881Y8620D01*
G01X10909Y8593D01*
G01X10922Y8552D01*
G01X10922Y8497D01*
G01X10909Y8456D01*
G01X10881Y8429D01*
G01X10635Y8710D02*
G01X10922Y8778D01*
G01X10635Y8846D02*
G01X10922Y8778D01*
G01X10635Y8846D02*
G01X10922Y8914D01*
G01X10635Y8983D02*
G01X10922Y8914D01*
G01X10677Y9236D02*
G01X10650Y9223D01*
G01X10635Y9182D01*
G01X10635Y9154D01*
G01X10650Y9114D01*
G01X10690Y9086D01*
G01X10759Y9073D01*
G01X10827Y9073D01*
G01X10881Y9086D01*
G01X10909Y9114D01*
G01X10922Y9154D01*
G01X10922Y9168D01*
G01X10909Y9209D01*
G01X10881Y9236D01*
G01X10840Y9250D01*
G01X10827Y9250D01*
G01X10785Y9236D01*
G01X10759Y9209D01*
G01X10744Y9168D01*
G01X10744Y9154D01*
G01X10759Y9114D01*
G01X10785Y9086D01*
G01X10827Y9073D01*
G54D60*
G01X13708Y8926D02*
G01X13722Y8898D01*
G01X13749Y8871D01*
G01X13777Y8857D01*
G01X13831Y8857D01*
G01X13858Y8871D01*
G01X13886Y8898D01*
G01X13899Y8926D01*
G01X13913Y8966D01*
G01X13913Y9035D01*
G01X13899Y9076D01*
G01X13886Y9103D01*
G01X13858Y9130D01*
G01X13831Y9144D01*
G01X13777Y9144D01*
G01X13749Y9130D01*
G01X13722Y9103D01*
G01X13708Y9076D01*
G01X13618Y8912D02*
G01X13591Y8898D01*
G01X13550Y8857D01*
G01X13550Y9144D01*
G01X12459Y8913D02*
G01X12473Y8885D01*
G01X12500Y8858D01*
G01X12528Y8844D01*
G01X12582Y8844D01*
G01X12609Y8858D01*
G01X12637Y8885D01*
G01X12650Y8913D01*
G01X12664Y8953D01*
G01X12664Y9022D01*
G01X12650Y9063D01*
G01X12637Y9090D01*
G01X12609Y9117D01*
G01X12582Y9131D01*
G01X12528Y9131D01*
G01X12500Y9117D01*
G01X12473Y9090D01*
G01X12459Y9063D01*
G01X12356Y8913D02*
G01X12356Y8899D01*
G01X12342Y8872D01*
G01X12329Y8858D01*
G01X12301Y8844D01*
G01X12247Y8844D01*
G01X12219Y8858D01*
G01X12206Y8872D01*
G01X12192Y8899D01*
G01X12192Y8926D01*
G01X12206Y8953D01*
G01X12233Y8994D01*
G01X12369Y9131D01*
G01X12179Y9131D01*
G54D59*
G01X17805Y16834D02*
G01X17777Y16820D01*
G01X17750Y16793D01*
G01X17735Y16765D01*
G01X17735Y16711D01*
G01X17750Y16684D01*
G01X17777Y16656D01*
G01X17805Y16643D01*
G01X17844Y16629D01*
G01X17914Y16629D01*
G01X17955Y16643D01*
G01X17981Y16656D01*
G01X18009Y16684D01*
G01X18022Y16711D01*
G01X18022Y16765D01*
G01X18009Y16793D01*
G01X17981Y16820D01*
G01X17955Y16834D01*
G01X17735Y16951D02*
G01X17735Y17101D01*
G01X17844Y17019D01*
G01X17844Y17060D01*
G01X17859Y17087D01*
G01X17872Y17101D01*
G01X17914Y17114D01*
G01X17940Y17114D01*
G01X17981Y17101D01*
G01X18009Y17074D01*
G01X18022Y17033D01*
G01X18022Y16992D01*
G01X18009Y16951D01*
G01X17994Y16937D01*
G01X17968Y16924D01*
G01X12005Y12049D02*
G01X11977Y12034D01*
G01X11950Y12007D01*
G01X11935Y11980D01*
G01X11935Y11926D01*
G01X11950Y11899D01*
G01X11977Y11871D01*
G01X12005Y11857D01*
G01X12044Y11844D01*
G01X12114Y11844D01*
G01X12155Y11857D01*
G01X12181Y11871D01*
G01X12209Y11899D01*
G01X12222Y11926D01*
G01X12222Y11980D01*
G01X12209Y12007D01*
G01X12181Y12034D01*
G01X12155Y12049D01*
G01X11935Y12275D02*
G01X12127Y12138D01*
G01X12127Y12342D01*
G01X11935Y12275D02*
G01X12222Y12275D01*
G01X17804Y17535D02*
G01X17776Y17521D01*
G01X17749Y17494D01*
G01X17735Y17466D01*
G01X17735Y17412D01*
G01X17749Y17385D01*
G01X17776Y17357D01*
G01X17804Y17344D01*
G01X17844Y17330D01*
G01X17913Y17330D01*
G01X17954Y17344D01*
G01X17981Y17357D01*
G01X18008Y17385D01*
G01X18022Y17412D01*
G01X18022Y17466D01*
G01X18008Y17494D01*
G01X17981Y17521D01*
G01X17954Y17535D01*
G01X17790Y17625D02*
G01X17776Y17652D01*
G01X17735Y17693D01*
G01X18022Y17693D01*
G01X17735Y17919D02*
G01X17926Y17783D01*
G01X17926Y17987D01*
G01X17735Y17919D02*
G01X18022Y17919D01*
G54D60*
G01X13764Y10180D02*
G01X13573Y10467D01*
G01X13573Y10180D02*
G01X13764Y10467D01*
G01X13483Y10236D02*
G01X13456Y10222D01*
G01X13415Y10180D01*
G01X13415Y10467D01*
G54D59*
G01X19005Y10934D02*
G01X18977Y10920D01*
G01X18950Y10893D01*
G01X18935Y10865D01*
G01X18935Y10811D01*
G01X18950Y10784D01*
G01X18977Y10756D01*
G01X19005Y10743D01*
G01X19044Y10729D01*
G01X19114Y10729D01*
G01X19155Y10743D01*
G01X19181Y10756D01*
G01X19209Y10784D01*
G01X19222Y10811D01*
G01X19222Y10865D01*
G01X19209Y10893D01*
G01X19181Y10920D01*
G01X19155Y10934D01*
G01X18990Y11024D02*
G01X18977Y11051D01*
G01X18935Y11092D01*
G01X19222Y11092D01*
G01X18935Y11345D02*
G01X18935Y11209D01*
G01X19059Y11195D01*
G01X19044Y11209D01*
G01X19031Y11250D01*
G01X19031Y11291D01*
G01X19044Y11332D01*
G01X19072Y11359D01*
G01X19114Y11373D01*
G01X19140Y11373D01*
G01X19181Y11359D01*
G01X19209Y11332D01*
G01X19222Y11291D01*
G01X19222Y11250D01*
G01X19209Y11209D01*
G01X19194Y11195D01*
G01X19168Y11182D01*
G01X16219Y10855D02*
G01X16191Y10841D01*
G01X16164Y10814D01*
G01X16150Y10786D01*
G01X16150Y10732D01*
G01X16164Y10705D01*
G01X16191Y10677D01*
G01X16219Y10664D01*
G01X16259Y10650D01*
G01X16328Y10650D01*
G01X16369Y10664D01*
G01X16396Y10677D01*
G01X16423Y10705D01*
G01X16437Y10732D01*
G01X16437Y10786D01*
G01X16423Y10814D01*
G01X16396Y10841D01*
G01X16369Y10855D01*
G01X16205Y10945D02*
G01X16191Y10972D01*
G01X16150Y11013D01*
G01X16437Y11013D01*
G01X16150Y11130D02*
G01X16150Y11280D01*
G01X16259Y11198D01*
G01X16259Y11239D01*
G01X16273Y11266D01*
G01X16287Y11280D01*
G01X16328Y11294D01*
G01X16355Y11294D01*
G01X16396Y11280D01*
G01X16423Y11253D01*
G01X16437Y11212D01*
G01X16437Y11171D01*
G01X16423Y11130D01*
G01X16409Y11116D01*
G01X16382Y11103D01*
G01X15668Y9928D02*
G01X15640Y9913D01*
G01X15614Y9886D01*
G01X15600Y9859D01*
G01X15600Y9805D01*
G01X15614Y9778D01*
G01X15640Y9750D01*
G01X15668Y9736D01*
G01X15709Y9723D01*
G01X15777Y9723D01*
G01X15818Y9736D01*
G01X15846Y9750D01*
G01X15872Y9778D01*
G01X15886Y9805D01*
G01X15886Y9859D01*
G01X15872Y9886D01*
G01X15846Y9913D01*
G01X15818Y9928D01*
G01X15655Y10017D02*
G01X15640Y10045D01*
G01X15600Y10086D01*
G01X15886Y10086D01*
G01X15655Y10176D02*
G01X15640Y10203D01*
G01X15600Y10244D01*
G01X15886Y10244D01*
G01X14585Y8480D02*
G01X14872Y8480D01*
G01X14585Y8480D02*
G01X14585Y8603D01*
G01X14600Y8644D01*
G01X14614Y8657D01*
G01X14640Y8671D01*
G01X14668Y8671D01*
G01X14694Y8657D01*
G01X14709Y8644D01*
G01X14722Y8603D01*
G01X14722Y8480D01*
G01X14722Y8575D02*
G01X14872Y8671D01*
G01X14640Y8761D02*
G01X14627Y8788D01*
G01X14585Y8829D01*
G01X14872Y8829D01*
G01X14681Y9096D02*
G01X14722Y9083D01*
G01X14750Y9055D01*
G01X14764Y9015D01*
G01X14764Y9001D01*
G01X14750Y8960D01*
G01X14722Y8933D01*
G01X14681Y8919D01*
G01X14668Y8919D01*
G01X14627Y8933D01*
G01X14600Y8960D01*
G01X14585Y9001D01*
G01X14585Y9015D01*
G01X14600Y9055D01*
G01X14627Y9083D01*
G01X14681Y9096D01*
G01X14750Y9096D01*
G01X14818Y9083D01*
G01X14859Y9055D01*
G01X14872Y9015D01*
G01X14872Y8987D01*
G01X14859Y8946D01*
G01X14831Y8933D01*
G01X18263Y9805D02*
G01X18263Y9517D01*
G01X18263Y9805D02*
G01X18386Y9805D01*
G01X18427Y9790D01*
G01X18440Y9776D01*
G01X18454Y9750D01*
G01X18454Y9723D01*
G01X18440Y9696D01*
G01X18427Y9682D01*
G01X18386Y9667D01*
G01X18263Y9667D01*
G01X18358Y9667D02*
G01X18454Y9517D01*
G01X18558Y9736D02*
G01X18558Y9750D01*
G01X18571Y9776D01*
G01X18585Y9790D01*
G01X18612Y9805D01*
G01X18667Y9805D01*
G01X18694Y9790D01*
G01X18708Y9776D01*
G01X18721Y9750D01*
G01X18721Y9723D01*
G01X18708Y9696D01*
G01X18680Y9655D01*
G01X18544Y9517D01*
G01X18735Y9517D01*
G01X18907Y9805D02*
G01X18866Y9790D01*
G01X18838Y9750D01*
G01X18825Y9682D01*
G01X18825Y9640D01*
G01X18838Y9573D01*
G01X18866Y9532D01*
G01X18907Y9517D01*
G01X18934Y9517D01*
G01X18975Y9532D01*
G01X19002Y9573D01*
G01X19016Y9640D01*
G01X19016Y9682D01*
G01X19002Y9750D01*
G01X18975Y9790D01*
G01X18934Y9805D01*
G01X18907Y9805D01*
G54D60*
G01X9785Y12929D02*
G01X10072Y12929D01*
G01X10072Y12929D02*
G01X10072Y13093D01*
G01X9840Y13183D02*
G01X9826Y13210D01*
G01X9785Y13251D01*
G01X10072Y13251D01*
G54D59*
G01X8689Y14153D02*
G01X8675Y14181D01*
G01X8648Y14208D01*
G01X8620Y14222D01*
G01X8566Y14222D01*
G01X8539Y14208D01*
G01X8511Y14181D01*
G01X8498Y14153D01*
G01X8484Y14113D01*
G01X8484Y14044D01*
G01X8498Y14003D01*
G01X8511Y13976D01*
G01X8539Y13949D01*
G01X8566Y13935D01*
G01X8620Y13935D01*
G01X8648Y13949D01*
G01X8675Y13976D01*
G01X8689Y14003D01*
G01X8969Y14222D02*
G01X8833Y13935D01*
G01X8779Y14222D02*
G01X8969Y14222D01*
G01X10118Y18267D02*
G01X10104Y18295D01*
G01X10077Y18322D01*
G01X10049Y18336D01*
G01X9995Y18336D01*
G01X9968Y18322D01*
G01X9940Y18295D01*
G01X9927Y18267D01*
G01X9913Y18227D01*
G01X9913Y18158D01*
G01X9927Y18117D01*
G01X9940Y18090D01*
G01X9968Y18063D01*
G01X9995Y18049D01*
G01X10049Y18049D01*
G01X10077Y18063D01*
G01X10104Y18090D01*
G01X10118Y18117D01*
G01X10385Y18240D02*
G01X10371Y18199D01*
G01X10344Y18172D01*
G01X10303Y18158D01*
G01X10289Y18158D01*
G01X10248Y18172D01*
G01X10221Y18199D01*
G01X10208Y18240D01*
G01X10208Y18254D01*
G01X10221Y18295D01*
G01X10248Y18322D01*
G01X10289Y18336D01*
G01X10303Y18336D01*
G01X10344Y18322D01*
G01X10371Y18295D01*
G01X10385Y18240D01*
G01X10385Y18172D01*
G01X10371Y18104D01*
G01X10344Y18063D01*
G01X10303Y18049D01*
G01X10276Y18049D01*
G01X10235Y18063D01*
G01X10221Y18090D01*
G01X14649Y17222D02*
G01X14936Y17222D01*
G01X14649Y17222D02*
G01X14649Y17345D01*
G01X14663Y17386D01*
G01X14677Y17399D01*
G01X14704Y17413D01*
G01X14731Y17413D01*
G01X14758Y17399D01*
G01X14772Y17386D01*
G01X14786Y17345D01*
G01X14786Y17222D01*
G01X14786Y17317D02*
G01X14936Y17413D01*
G01X14718Y17517D02*
G01X14704Y17517D01*
G01X14677Y17530D01*
G01X14663Y17544D01*
G01X14649Y17571D01*
G01X14649Y17626D01*
G01X14663Y17653D01*
G01X14677Y17667D01*
G01X14704Y17680D01*
G01X14731Y17680D01*
G01X14758Y17667D01*
G01X14799Y17638D01*
G01X14936Y17503D01*
G01X14936Y17694D01*
G01X11650Y17422D02*
G01X11936Y17422D01*
G01X11650Y17422D02*
G01X11650Y17545D01*
G01X11664Y17586D01*
G01X11677Y17599D01*
G01X11705Y17613D01*
G01X11731Y17613D01*
G01X11759Y17599D01*
G01X11772Y17586D01*
G01X11786Y17545D01*
G01X11786Y17422D01*
G01X11786Y17517D02*
G01X11936Y17613D01*
G01X11650Y17730D02*
G01X11650Y17880D01*
G01X11759Y17798D01*
G01X11759Y17839D01*
G01X11772Y17867D01*
G01X11786Y17880D01*
G01X11827Y17894D01*
G01X11855Y17894D01*
G01X11896Y17880D01*
G01X11922Y17853D01*
G01X11936Y17812D01*
G01X11936Y17771D01*
G01X11922Y17730D01*
G01X11909Y17717D01*
G01X11881Y17703D01*
G01X18650Y15109D02*
G01X18937Y15109D01*
G01X18650Y15109D02*
G01X18650Y15232D01*
G01X18664Y15273D01*
G01X18678Y15286D01*
G01X18705Y15300D01*
G01X18732Y15300D01*
G01X18759Y15286D01*
G01X18773Y15273D01*
G01X18787Y15232D01*
G01X18787Y15109D02*
G01X18787Y15232D01*
G01X18800Y15273D01*
G01X18814Y15286D01*
G01X18841Y15300D01*
G01X18882Y15300D01*
G01X18909Y15286D01*
G01X18923Y15273D01*
G01X18937Y15232D01*
G01X18937Y15109D01*
G01X18650Y15390D02*
G01X18855Y15390D01*
G01X18896Y15404D01*
G01X18923Y15431D01*
G01X18937Y15472D01*
G01X18937Y15499D01*
G01X18923Y15540D01*
G01X18896Y15567D01*
G01X18855Y15581D01*
G01X18650Y15581D01*
G01X18650Y15862D02*
G01X18937Y15671D01*
G01X18650Y15671D02*
G01X18650Y15862D01*
G01X18937Y15671D02*
G01X18937Y15862D01*
G01X18650Y16143D02*
G01X18937Y15952D01*
G01X18650Y15952D02*
G01X18650Y16143D01*
G01X18937Y15952D02*
G01X18937Y16143D01*
G54D60*
G01X18699Y12028D02*
G01X18986Y12028D01*
G01X18699Y12028D02*
G01X18699Y12151D01*
G01X18713Y12192D01*
G01X18727Y12205D01*
G01X18754Y12219D01*
G01X18781Y12219D01*
G01X18808Y12205D01*
G01X18822Y12192D01*
G01X18836Y12151D01*
G01X18836Y12028D01*
G01X18836Y12123D02*
G01X18986Y12219D01*
G01X18699Y12309D02*
G01X18986Y12309D01*
G01X18699Y12309D02*
G01X18699Y12486D01*
G01X18836Y12309D02*
G01X18836Y12418D01*
G01X18986Y12309D02*
G01X18986Y12486D01*
G01X18768Y12781D02*
G01X18740Y12767D01*
G01X18713Y12740D01*
G01X18699Y12713D01*
G01X18699Y12658D01*
G01X18713Y12631D01*
G01X18740Y12603D01*
G01X18768Y12590D01*
G01X18808Y12576D01*
G01X18877Y12576D01*
G01X18918Y12590D01*
G01X18945Y12603D01*
G01X18972Y12631D01*
G01X18986Y12658D01*
G01X18986Y12713D01*
G01X18972Y12740D01*
G01X18945Y12767D01*
G01X18918Y12781D01*
G01X18699Y12871D02*
G01X18986Y12871D01*
G01X18699Y12871D02*
G01X18699Y13048D01*
G01X18836Y12871D02*
G01X18836Y12980D01*
G01X18986Y12871D02*
G01X18986Y13048D01*
G01X18699Y13138D02*
G01X18986Y13138D01*
G01X18699Y13228D02*
G01X18986Y13337D01*
G01X18699Y13446D02*
G01X18986Y13337D01*
G01X18699Y13536D02*
G01X18986Y13536D01*
G01X18699Y13536D02*
G01X18699Y13713D01*
G01X18836Y13536D02*
G01X18836Y13645D01*
G01X18986Y13536D02*
G01X18986Y13713D01*
G01X18699Y13803D02*
G01X18986Y13803D01*
G01X18699Y13803D02*
G01X18699Y13926D01*
G01X18713Y13967D01*
G01X18727Y13981D01*
G01X18754Y13994D01*
G01X18781Y13994D01*
G01X18808Y13981D01*
G01X18822Y13967D01*
G01X18836Y13926D01*
G01X18836Y13803D01*
G01X18836Y13899D02*
G01X18986Y13994D01*
G54D59*
G01X9686Y12094D02*
G01X9399Y12094D01*
G01X9686Y12094D02*
G01X9686Y11971D01*
G01X9672Y11930D01*
G01X9658Y11917D01*
G01X9631Y11903D01*
G01X9604Y11903D01*
G01X9577Y11917D01*
G01X9563Y11930D01*
G01X9549Y11971D01*
G01X9549Y12094D02*
G01X9549Y11971D01*
G01X9536Y11930D01*
G01X9522Y11917D01*
G01X9495Y11903D01*
G01X9454Y11903D01*
G01X9427Y11917D01*
G01X9413Y11930D01*
G01X9399Y11971D01*
G01X9399Y12094D01*
G01X9686Y11813D02*
G01X9399Y11813D01*
G01X9686Y11723D02*
G01X9399Y11723D01*
G01X9686Y11723D02*
G01X9399Y11532D01*
G01X9686Y11532D02*
G01X9399Y11532D01*
G01X9686Y11442D02*
G01X9399Y11442D01*
G01X9686Y11442D02*
G01X9686Y11347D01*
G01X9672Y11306D01*
G01X9645Y11279D01*
G01X9617Y11265D01*
G01X9577Y11251D01*
G01X9508Y11251D01*
G01X9467Y11265D01*
G01X9440Y11279D01*
G01X9413Y11306D01*
G01X9399Y11347D01*
G01X9399Y11442D01*
G01X8150Y7776D02*
G01X8163Y7750D01*
G01X8190Y7722D01*
G01X8219Y7709D01*
G01X8259Y7695D01*
G01X8328Y7695D01*
G01X8369Y7709D01*
G01X8396Y7722D01*
G01X8423Y7750D01*
G01X8436Y7776D01*
G01X8436Y7830D01*
G01X8423Y7859D01*
G01X8396Y7886D01*
G01X8369Y7900D01*
G01X8328Y7913D01*
G01X8259Y7913D01*
G01X8219Y7900D01*
G01X8190Y7886D01*
G01X8163Y7859D01*
G01X8150Y7830D01*
G01X8150Y7776D01*
G01X8382Y7817D02*
G01X8463Y7900D01*
G01X8219Y8017D02*
G01X8205Y8017D01*
G01X8178Y8030D01*
G01X8163Y8044D01*
G01X8150Y8071D01*
G01X8150Y8126D01*
G01X8163Y8153D01*
G01X8178Y8167D01*
G01X8205Y8180D01*
G01X8232Y8180D01*
G01X8259Y8167D01*
G01X8300Y8140D01*
G01X8436Y8003D01*
G01X8436Y8194D01*
G01X21481Y21013D02*
G01X21455Y20999D01*
G01X21427Y20972D01*
G01X21414Y20944D01*
G01X21400Y20903D01*
G01X21400Y20834D01*
G01X21414Y20794D01*
G01X21427Y20767D01*
G01X21455Y20740D01*
G01X21481Y20726D01*
G01X21535Y20726D01*
G01X21564Y20740D01*
G01X21590Y20767D01*
G01X21605Y20794D01*
G01X21618Y20834D01*
G01X21618Y20903D01*
G01X21605Y20944D01*
G01X21590Y20972D01*
G01X21564Y20999D01*
G01X21535Y21013D01*
G01X21481Y21013D01*
G01X21522Y20780D02*
G01X21605Y20699D01*
G01X21735Y21013D02*
G01X21885Y21013D01*
G01X21803Y20903D01*
G01X21844Y20903D01*
G01X21872Y20890D01*
G01X21885Y20876D01*
G01X21898Y20834D01*
G01X21898Y20807D01*
G01X21885Y20767D01*
G01X21857Y20740D01*
G01X21817Y20726D01*
G01X21776Y20726D01*
G01X21735Y20740D01*
G01X21722Y20753D01*
G01X21707Y20780D01*
G01X17636Y13780D02*
G01X17923Y13780D01*
G01X17636Y13780D02*
G01X17636Y13903D01*
G01X17650Y13944D01*
G01X17664Y13957D01*
G01X17691Y13971D01*
G01X17718Y13971D01*
G01X17745Y13957D01*
G01X17759Y13944D01*
G01X17773Y13903D01*
G01X17773Y13780D01*
G01X17773Y13875D02*
G01X17923Y13971D01*
G01X17691Y14061D02*
G01X17677Y14088D01*
G01X17636Y14129D01*
G01X17923Y14129D01*
G01X17636Y14301D02*
G01X17650Y14260D01*
G01X17691Y14233D01*
G01X17759Y14219D01*
G01X17800Y14219D01*
G01X17868Y14233D01*
G01X17909Y14260D01*
G01X17923Y14301D01*
G01X17923Y14328D01*
G01X17909Y14369D01*
G01X17868Y14396D01*
G01X17800Y14410D01*
G01X17759Y14410D01*
G01X17691Y14396D01*
G01X17650Y14369D01*
G01X17636Y14328D01*
G01X17636Y14301D01*
G01X17636Y14780D02*
G01X17923Y14780D01*
G01X17636Y14780D02*
G01X17636Y14903D01*
G01X17650Y14944D01*
G01X17664Y14957D01*
G01X17691Y14971D01*
G01X17718Y14971D01*
G01X17745Y14957D01*
G01X17759Y14944D01*
G01X17773Y14903D01*
G01X17773Y14780D01*
G01X17773Y14875D02*
G01X17923Y14971D01*
G01X17691Y15061D02*
G01X17677Y15088D01*
G01X17636Y15129D01*
G01X17923Y15129D01*
G01X17691Y15219D02*
G01X17677Y15246D01*
G01X17636Y15287D01*
G01X17923Y15287D01*
G01X17636Y13030D02*
G01X17923Y13030D01*
G01X17636Y13030D02*
G01X17636Y13153D01*
G01X17650Y13194D01*
G01X17664Y13207D01*
G01X17691Y13221D01*
G01X17718Y13221D01*
G01X17745Y13207D01*
G01X17759Y13194D01*
G01X17773Y13153D01*
G01X17773Y13030D01*
G01X17773Y13125D02*
G01X17923Y13221D01*
G01X17732Y13488D02*
G01X17773Y13475D01*
G01X17800Y13447D01*
G01X17814Y13406D01*
G01X17814Y13393D01*
G01X17800Y13352D01*
G01X17773Y13325D01*
G01X17732Y13311D01*
G01X17718Y13311D01*
G01X17677Y13325D01*
G01X17650Y13352D01*
G01X17636Y13393D01*
G01X17636Y13406D01*
G01X17650Y13447D01*
G01X17677Y13475D01*
G01X17732Y13488D01*
G01X17800Y13488D01*
G01X17868Y13475D01*
G01X17909Y13447D01*
G01X17923Y13406D01*
G01X17923Y13379D01*
G01X17909Y13338D01*
G01X17882Y13325D01*
G01X9349Y19294D02*
G01X9349Y19007D01*
G01X9349Y19294D02*
G01X9444Y19294D01*
G01X9485Y19280D01*
G01X9513Y19253D01*
G01X9526Y19225D01*
G01X9540Y19184D01*
G01X9540Y19115D01*
G01X9526Y19075D01*
G01X9513Y19048D01*
G01X9485Y19021D01*
G01X9444Y19007D01*
G01X9349Y19007D01*
G01X9630Y19238D02*
G01X9657Y19253D01*
G01X9698Y19294D01*
G01X9698Y19007D01*
G01X16536Y11629D02*
G01X16823Y11629D01*
G01X16823Y11629D02*
G01X16823Y11793D01*
G01X16536Y11883D02*
G01X16823Y11883D01*
G01X16536Y11883D02*
G01X16536Y12060D01*
G01X16673Y11883D02*
G01X16673Y11992D01*
G01X16823Y11883D02*
G01X16823Y12060D01*
G01X16536Y12150D02*
G01X16823Y12150D01*
G01X16536Y12150D02*
G01X16536Y12245D01*
G01X16550Y12286D01*
G01X16577Y12314D01*
G01X16605Y12327D01*
G01X16645Y12341D01*
G01X16714Y12341D01*
G01X16755Y12327D01*
G01X16782Y12314D01*
G01X16809Y12286D01*
G01X16823Y12245D01*
G01X16823Y12150D01*
G01X16591Y12431D02*
G01X16577Y12458D01*
G01X16536Y12499D01*
G01X16823Y12499D01*
G54D60*
G01X10471Y17194D02*
G01X10456Y17221D01*
G01X10415Y17261D01*
G01X10702Y17261D01*
G54D59*
G01X19468Y10395D02*
G01X19455Y10423D01*
G01X19427Y10450D01*
G01X19400Y10464D01*
G01X19346Y10464D01*
G01X19318Y10450D01*
G01X19290Y10423D01*
G01X19277Y10395D01*
G01X19264Y10355D01*
G01X19264Y10286D01*
G01X19277Y10245D01*
G01X19290Y10218D01*
G01X19318Y10191D01*
G01X19346Y10177D01*
G01X19400Y10177D01*
G01X19427Y10191D01*
G01X19455Y10218D01*
G01X19468Y10245D01*
G01X19559Y10409D02*
G01X19585Y10423D01*
G01X19627Y10464D01*
G01X19627Y10177D01*
G01X19730Y10395D02*
G01X19730Y10409D01*
G01X19743Y10436D01*
G01X19757Y10450D01*
G01X19785Y10464D01*
G01X19839Y10464D01*
G01X19867Y10450D01*
G01X19880Y10436D01*
G01X19893Y10409D01*
G01X19893Y10382D01*
G01X19880Y10355D01*
G01X19852Y10314D01*
G01X19717Y10177D01*
G01X19907Y10177D01*
G01X18050Y8416D02*
G01X18050Y8621D01*
G01X18035Y8662D01*
G01X18009Y8689D01*
G01X17968Y8703D01*
G01X17940Y8703D01*
G01X17900Y8689D01*
G01X17872Y8662D01*
G01X17859Y8621D01*
G01X17859Y8416D01*
G01X17755Y8485D02*
G01X17755Y8471D01*
G01X17742Y8444D01*
G01X17727Y8430D01*
G01X17701Y8416D01*
G01X17646Y8416D01*
G01X17618Y8430D01*
G01X17605Y8444D01*
G01X17592Y8471D01*
G01X17592Y8498D01*
G01X17605Y8525D01*
G01X17632Y8566D01*
G01X17768Y8703D01*
G01X17577Y8703D01*
G01X14794Y19342D02*
G01X14794Y19136D01*
G01X14809Y19096D01*
G01X14835Y19069D01*
G01X14877Y19055D01*
G01X14903Y19055D01*
G01X14944Y19069D01*
G01X14972Y19096D01*
G01X14985Y19136D01*
G01X14985Y19342D01*
G01X15267Y19301D02*
G01X15239Y19328D01*
G01X15198Y19342D01*
G01X15143Y19342D01*
G01X15102Y19328D01*
G01X15076Y19301D01*
G01X15076Y19273D01*
G01X15089Y19246D01*
G01X15102Y19232D01*
G01X15130Y19219D01*
G01X15211Y19192D01*
G01X15239Y19178D01*
G01X15252Y19163D01*
G01X15267Y19136D01*
G01X15267Y19096D01*
G01X15239Y19069D01*
G01X15198Y19055D01*
G01X15143Y19055D01*
G01X15102Y19069D01*
G01X15076Y19096D01*
G01X15356Y19342D02*
G01X15356Y19055D01*
G01X15356Y19342D02*
G01X15480Y19342D01*
G01X15519Y19328D01*
G01X15534Y19313D01*
G01X15547Y19286D01*
G01X15547Y19259D01*
G01X15534Y19232D01*
G01X15519Y19219D01*
G01X15480Y19205D01*
G01X15356Y19205D02*
G01X15480Y19205D01*
G01X15519Y19192D01*
G01X15534Y19178D01*
G01X15547Y19151D01*
G01X15547Y19109D01*
G01X15534Y19082D01*
G01X15519Y19069D01*
G01X15480Y19055D01*
G01X15356Y19055D01*
G01X15638Y19286D02*
G01X15664Y19301D01*
G01X15706Y19342D01*
G01X15706Y19055D01*
G01X17636Y15700D02*
G01X17923Y15700D01*
G01X17636Y15700D02*
G01X17636Y15823D01*
G01X17650Y15864D01*
G01X17664Y15877D01*
G01X17691Y15891D01*
G01X17718Y15891D01*
G01X17745Y15877D01*
G01X17759Y15864D01*
G01X17773Y15823D01*
G01X17773Y15700D01*
G01X17773Y15795D02*
G01X17923Y15891D01*
G01X17636Y16049D02*
G01X17650Y16008D01*
G01X17677Y15995D01*
G01X17705Y15995D01*
G01X17732Y16008D01*
G01X17745Y16035D01*
G01X17759Y16090D01*
G01X17773Y16131D01*
G01X17800Y16158D01*
G01X17827Y16172D01*
G01X17868Y16172D01*
G01X17895Y16158D01*
G01X17909Y16145D01*
G01X17923Y16104D01*
G01X17923Y16049D01*
G01X17909Y16008D01*
G01X17895Y15995D01*
G01X17868Y15981D01*
G01X17827Y15981D01*
G01X17800Y15995D01*
G01X17773Y16022D01*
G01X17759Y16063D01*
G01X17745Y16117D01*
G01X17732Y16145D01*
G01X17705Y16158D01*
G01X17677Y16158D01*
G01X17650Y16145D01*
G01X17636Y16104D01*
G01X17636Y16049D01*
G01X19981Y7853D02*
G01X19955Y7838D01*
G01X19927Y7811D01*
G01X19914Y7784D01*
G01X19900Y7744D01*
G01X19900Y7675D01*
G01X19914Y7634D01*
G01X19927Y7607D01*
G01X19955Y7580D01*
G01X19981Y7565D01*
G01X20035Y7565D01*
G01X20064Y7580D01*
G01X20090Y7607D01*
G01X20105Y7634D01*
G01X20118Y7675D01*
G01X20118Y7744D01*
G01X20105Y7784D01*
G01X20090Y7811D01*
G01X20064Y7838D01*
G01X20035Y7853D01*
G01X19981Y7853D01*
G01X20022Y7621D02*
G01X20105Y7538D01*
G01X20344Y7853D02*
G01X20207Y7661D01*
G01X20413Y7661D01*
G01X20344Y7853D02*
G01X20344Y7565D01*
G01X9149Y14359D02*
G01X9354Y14359D01*
G01X9395Y14373D01*
G01X9422Y14400D01*
G01X9436Y14440D01*
G01X9436Y14467D01*
G01X9422Y14509D01*
G01X9395Y14536D01*
G01X9354Y14550D01*
G01X9149Y14550D01*
G01X9149Y14776D02*
G01X9340Y14640D01*
G01X9340Y14844D01*
G01X9149Y14776D02*
G01X9436Y14776D01*
G01X11471Y19507D02*
G01X11471Y19712D01*
G01X11457Y19753D01*
G01X11430Y19780D01*
G01X11389Y19794D01*
G01X11362Y19794D01*
G01X11321Y19780D01*
G01X11294Y19753D01*
G01X11280Y19712D01*
G01X11280Y19507D01*
G01X11163Y19507D02*
G01X11013Y19507D01*
G01X11095Y19616D01*
G01X11054Y19616D01*
G01X11026Y19630D01*
G01X11013Y19644D01*
G01X10999Y19685D01*
G01X10999Y19712D01*
G01X11013Y19753D01*
G01X11040Y19780D01*
G01X11081Y19794D01*
G01X11122Y19794D01*
G01X11163Y19780D01*
G01X11176Y19766D01*
G01X11190Y19739D01*
G54D60*
G01X10985Y9980D02*
G01X11272Y9980D01*
G01X10985Y9980D02*
G01X10985Y10103D01*
G01X11000Y10144D01*
G01X11014Y10157D01*
G01X11040Y10171D01*
G01X11068Y10171D01*
G01X11094Y10157D01*
G01X11109Y10144D01*
G01X11122Y10103D01*
G01X11122Y9980D01*
G01X11122Y10075D02*
G01X11272Y10171D01*
G01X11040Y10261D02*
G01X11027Y10288D01*
G01X10985Y10329D01*
G01X11272Y10329D01*
G54D59*
G01X8951Y9198D02*
G01X8960Y9228D01*
G01X8960Y9266D01*
G01X8951Y9295D01*
G01X8912Y9334D01*
G01X8883Y9343D01*
G01X8844Y9343D01*
G01X8815Y9333D01*
G01X8777Y9315D01*
G01X8728Y9266D01*
G01X8709Y9227D01*
G01X8700Y9199D01*
G01X8700Y9160D01*
G01X8709Y9131D01*
G01X8748Y9092D01*
G01X8777Y9083D01*
G01X8815Y9083D01*
G01X8844Y9092D01*
G01X9178Y9068D02*
G01X9082Y9164D01*
G01X8985Y9087D01*
G01X9005Y9087D01*
G01X9043Y9067D01*
G01X9072Y9038D01*
G01X9092Y9000D01*
G01X9091Y8961D01*
G01X9071Y8923D01*
G01X9052Y8904D01*
G01X9014Y8884D01*
G01X8976Y8884D01*
G01X8937Y8903D01*
G01X8908Y8932D01*
G01X8889Y8971D01*
G01X8889Y8991D01*
G01X8899Y9019D01*
G01X10119Y12166D02*
G01X10105Y12194D01*
G01X10078Y12221D01*
G01X10050Y12235D01*
G01X9996Y12235D01*
G01X9969Y12221D01*
G01X9941Y12194D01*
G01X9928Y12166D01*
G01X9914Y12126D01*
G01X9914Y12057D01*
G01X9928Y12016D01*
G01X9941Y11989D01*
G01X9969Y11962D01*
G01X9996Y11948D01*
G01X10050Y11948D01*
G01X10078Y11962D01*
G01X10105Y11989D01*
G01X10119Y12016D01*
G01X10372Y12194D02*
G01X10359Y12221D01*
G01X10318Y12235D01*
G01X10290Y12235D01*
G01X10249Y12221D01*
G01X10222Y12180D01*
G01X10209Y12112D01*
G01X10209Y12044D01*
G01X10222Y11989D01*
G01X10249Y11962D01*
G01X10290Y11948D01*
G01X10304Y11948D01*
G01X10345Y11962D01*
G01X10372Y11989D01*
G01X10386Y12030D01*
G01X10386Y12044D01*
G01X10372Y12085D01*
G01X10345Y12112D01*
G01X10304Y12126D01*
G01X10290Y12126D01*
G01X10249Y12112D01*
G01X10222Y12085D01*
G01X10209Y12044D01*
G01X10768Y15663D02*
G01X10740Y15649D01*
G01X10713Y15622D01*
G01X10699Y15594D01*
G01X10699Y15540D01*
G01X10713Y15513D01*
G01X10740Y15485D01*
G01X10768Y15472D01*
G01X10808Y15458D01*
G01X10877Y15458D01*
G01X10918Y15472D01*
G01X10945Y15485D01*
G01X10972Y15513D01*
G01X10986Y15540D01*
G01X10986Y15594D01*
G01X10972Y15622D01*
G01X10945Y15649D01*
G01X10918Y15663D01*
G01X10699Y15821D02*
G01X10713Y15780D01*
G01X10740Y15766D01*
G01X10768Y15766D01*
G01X10795Y15780D01*
G01X10808Y15807D01*
G01X10822Y15862D01*
G01X10836Y15903D01*
G01X10863Y15930D01*
G01X10890Y15943D01*
G01X10931Y15943D01*
G01X10958Y15930D01*
G01X10972Y15916D01*
G01X10986Y15875D01*
G01X10986Y15821D01*
G01X10972Y15780D01*
G01X10958Y15766D01*
G01X10931Y15753D01*
G01X10890Y15753D01*
G01X10863Y15766D01*
G01X10836Y15793D01*
G01X10822Y15834D01*
G01X10808Y15889D01*
G01X10795Y15916D01*
G01X10768Y15930D01*
G01X10740Y15930D01*
G01X10713Y15916D01*
G01X10699Y15875D01*
G01X10699Y15821D01*
G01X11118Y16495D02*
G01X11104Y16523D01*
G01X11077Y16550D01*
G01X11049Y16564D01*
G01X10995Y16564D01*
G01X10968Y16550D01*
G01X10940Y16523D01*
G01X10927Y16495D01*
G01X10913Y16455D01*
G01X10913Y16386D01*
G01X10927Y16345D01*
G01X10940Y16318D01*
G01X10968Y16291D01*
G01X10995Y16277D01*
G01X11049Y16277D01*
G01X11077Y16291D01*
G01X11104Y16318D01*
G01X11118Y16345D01*
G01X11208Y16509D02*
G01X11235Y16523D01*
G01X11276Y16564D01*
G01X11276Y16277D01*
G01X11448Y16564D02*
G01X11407Y16550D01*
G01X11379Y16509D01*
G01X11366Y16441D01*
G01X11366Y16400D01*
G01X11379Y16332D01*
G01X11407Y16291D01*
G01X11448Y16277D01*
G01X11475Y16277D01*
G01X11516Y16291D01*
G01X11543Y16332D01*
G01X11557Y16400D01*
G01X11557Y16441D01*
G01X11543Y16509D01*
G01X11516Y16550D01*
G01X11475Y16564D01*
G01X11448Y16564D01*
G54D55*
G75*
G01X17974Y8907D02*
G3X17974Y8907INaNJNaND01*
G01*
G54D56*
G75*
G01X9394Y13787D02*
G3X9394Y13787INaNJNaND01*
G01*
G75*
G01X12057Y18138D02*
G3X12057Y18138INaNJNaND01*
G01*
G54D57*
G75*
G01X12784Y15727D02*
G3X12784Y15725I-118J-1D01*
G01*
G54D58*
G75*
G01X11750Y16229D02*
G3X11750Y16228I-59J0D01*
G01*
M00*
M02*
