;PTH Drill file created by EasyEDA 
M48
INCH,LZ
;Holesize 1 = 0.008 INCH
T01C0.008
;Holesize 2 = 0.012 INCH
T02C0.012
;Holesize 3 = 0.028 INCH
T03C0.028
;Holesize 4 = 0.035 INCH
T04C0.035
;Holesize 5 = 0.035 INCH
T05C0.035
%
G05
G90
T01
X018250Y019650
X018447Y019944
X018052Y019944
X018052Y019355
X018447Y019355
X018250Y016900
X018447Y017194
X018052Y017194
X018052Y016605
X018447Y016605
T02
X010700Y013300
X010800Y013750
X009750Y019400
X013550Y017450
X013000Y017000
X017200Y020450
X015430Y016930
X015650Y015600
X016900Y015350
X018000Y015000
X010850Y015050
X015750Y011450
X012600Y011300
X021350Y008850
X021250Y020400
X011950Y018450
X010200Y009700
X009000Y011200
X010250Y011150
X009850Y016400
X009850Y016150
X017150Y018400
X009850Y010800
X008150Y009850
X008000Y008650
X006550Y005150
X012250Y011800
X017700Y014800
X017250Y009400
X020750Y017500
X015100Y015350
X012800Y015350
X012900Y011050
X012900Y010800
X013150Y011050
X013150Y010800
X013400Y011050
X013400Y010800
X013650Y011050
X013650Y010800
X012000Y011050
X012000Y010800
X012250Y011050
X012250Y010800
X011000Y011800
X011000Y011550
X011250Y011800
X011250Y011550
X011500Y011800
X011500Y011550
X011750Y011800
X011250Y012050
X011500Y012050
X011750Y012050
X008000Y010450
X008000Y010200
X008250Y010450
X008250Y010200
X009450Y012450
X009700Y012450
X009250Y013350
X009500Y013350
X009600Y011480
X011150Y017850
X011400Y017850
X010400Y020300
X010650Y020300
X010650Y020050
X010900Y020300
X010900Y020050
X011150Y020300
X011150Y020050
X011400Y020300
X011400Y020050
X011650Y020300
X011650Y020050
X011900Y020300
X011900Y020050
X011660Y016219
X015650Y017550
X015650Y017300
X015900Y018800
X016150Y018800
X016400Y018800
X016650Y018800
X016900Y018800
X017150Y018800
X011910Y016230
T03
X020647Y014321G85X020332Y014321
X020647Y011471G85X020332Y011471
T04
X008100Y013250
X008100Y014250
X008100Y015250
X008100Y016250
X008100Y017250
X008100Y018250
X013500Y008700
X012500Y008700
X011500Y008700
X008100Y011100
X008100Y012100
X020600Y015350
X020600Y016350
X009100Y008700
X010100Y008700
X015300Y008700
X016300Y008700
X024500Y003549
X025206Y004257
X024500Y024600
X025206Y023892
X003950Y004449
X004656Y003742
X003749Y023800
X004456Y024507
T05
X019427Y011946
X019427Y013853
M30
