G04 ---------------------------- Layer name :KeepOutLayer*
G04 EasyEDA v5.7.24, Wed, 12 Sep 2018 16:49:18 GMT*
G04 4f4d465e801a4545b0c1db8b9bb63b57*
G04 Gerber Generator version 0.2*
G04 Scale: 100 percent, Rotated: No, Reflected: No *
G04 Dimensions in millimeters *
G04 leading zeros omitted , absolute positions ,3 integer and 3 decimal *
%FSLAX33Y33*%
%MOMM*%
G90*
G71D02*

%ADD10C,0.254000*%
G54D10*
G01X70612Y0D02*
G01X69342Y0D01*
G01X64897Y1651D02*
G01X64897Y1651D01*
G01X63881Y1651D01*
G01X60579Y4953D01*
G01X60579Y4953D02*
G01X60579Y6512D01*
G01X46609Y20482D01*
G01X72136Y2794D02*
G01X72136Y1524D01*
G01X51689Y25562D02*
G01X63883Y13365D01*
G01X65694Y11557D01*
G01X67183Y11557D01*
G01X70612Y8128D01*
G01X70612Y7366D01*
G01X72136Y1524D02*
G01X70612Y0D01*
G01X70612Y4445D02*
G01X72136Y2921D01*
G01X72136Y2794D01*
G01X69342Y0D02*
G01X67691Y1651D01*
G01X67691Y1651D02*
G01X67183Y1651D01*
G01X64897Y1651D01*
G01X70612Y7366D02*
G01X70612Y4953D01*
G01X70612Y4445D01*
G01X1524Y72501D02*
G01X2794Y72501D01*
G01X7239Y70850D02*
G01X7239Y70850D01*
G01X8255Y70850D01*
G01X11557Y67548D01*
G01X11557Y67548D02*
G01X11557Y65989D01*
G01X25527Y51978D01*
G01X0Y69707D02*
G01X0Y70977D01*
G01X20447Y46939D02*
G01X8252Y59136D01*
G01X6441Y60944D01*
G01X4953Y60944D01*
G01X1524Y64373D01*
G01X1524Y65135D01*
G01X0Y70977D02*
G01X1524Y72501D01*
G01X1524Y68056D02*
G01X0Y69580D01*
G01X0Y69707D01*
G01X2794Y72501D02*
G01X4445Y70850D01*
G01X4445Y70850D02*
G01X4953Y70850D01*
G01X7239Y70850D01*
G01X1524Y65135D02*
G01X1524Y67548D01*
G01X1524Y68056D01*
G01X72136Y70901D02*
G01X72136Y69631D01*
G01X70485Y65186D02*
G01X70485Y65186D01*
G01X70485Y64170D01*
G01X67183Y60868D01*
G01X67183Y60868D02*
G01X65623Y60868D01*
G01X51689Y46949D01*
G01X69342Y72425D02*
G01X70612Y72425D01*
G01X46573Y51978D02*
G01X58770Y64173D01*
G01X60579Y65984D01*
G01X60579Y67472D01*
G01X64008Y70901D01*
G01X64770Y70901D01*
G01X70612Y72425D02*
G01X72136Y70901D01*
G01X67691Y70901D02*
G01X69215Y72425D01*
G01X69342Y72425D01*
G01X72136Y69631D02*
G01X70485Y67980D01*
G01X70485Y67980D02*
G01X70485Y67472D01*
G01X70485Y65186D01*
G01X64770Y70901D02*
G01X67183Y70901D01*
G01X67691Y70901D01*
G01X20447Y25562D02*
G01X20447Y46898D01*
G01X46609Y20482D02*
G01X25527Y20482D01*
G01X51689Y46949D02*
G01X51689Y25562D01*
G01X25527Y51978D02*
G01X46583Y51978D01*
G01X25527Y20482D02*
G01X11557Y6512D01*
G01X11557Y4988D01*
G01X8128Y1559D01*
G01X4445Y1559D01*
G01X2921Y35D01*
G01X1524Y35D01*
G01X0Y1559D01*
G01X0Y2829D01*
G01X1651Y4480D01*
G01X1651Y8290D01*
G01X4953Y11592D01*
G01X6477Y11592D01*
G01X20447Y25562D01*

%LPD*%
M00*
M02*
