G04 ---------------------------- Layer name :BOTTOM SILK LAYER*
G04 EasyEDA v5.6.15, Thu, 26 Jul 2018 23:30:40 GMT*
G04 3f3d84fbcde042cdb59b76facc9dedd5*
G04 Gerber Generator version 0.2*
G04 Scale: 100 percent, Rotated: No, Reflected: No *
G04 Dimensions in millimeters *
G04 leading zeros omitted , absolute positions ,3 integer and 3 decimal *
%FSLAX33Y33*%
%MOMM*%
G90*
G71D02*

%ADD52C,0.203200*%

%LPD*%

%LPD*%
G36*
G01X36703Y43545D02*
G01X36703Y43545D01*
G01X36703Y43545D01*
G01X36709Y43537D01*
G01X36718Y43519D01*
G01X36728Y43492D01*
G01X36739Y43457D01*
G01X36751Y43414D01*
G01X36765Y43364D01*
G01X36780Y43308D01*
G01X36795Y43244D01*
G01X36811Y43176D01*
G01X36828Y43101D01*
G01X36846Y43022D01*
G01X36863Y42939D01*
G01X36882Y42852D01*
G01X36900Y42761D01*
G01X36918Y42668D01*
G01X36936Y42573D01*
G01X36936Y42573D01*
G01X36954Y42477D01*
G01X36973Y42384D01*
G01X36990Y42294D01*
G01X37008Y42207D01*
G01X37025Y42124D01*
G01X37041Y42045D01*
G01X37057Y41971D01*
G01X37072Y41902D01*
G01X37086Y41840D01*
G01X37099Y41783D01*
G01X37111Y41733D01*
G01X37122Y41691D01*
G01X37131Y41656D01*
G01X37139Y41630D01*
G01X37146Y41613D01*
G01X37151Y41605D01*
G01X37151Y41605D01*
G01X37162Y41598D01*
G01X37183Y41587D01*
G01X37215Y41572D01*
G01X37256Y41553D01*
G01X37305Y41531D01*
G01X37362Y41507D01*
G01X37426Y41479D01*
G01X37496Y41450D01*
G01X37571Y41418D01*
G01X37650Y41386D01*
G01X37732Y41351D01*
G01X37818Y41317D01*
G01X37818Y41317D01*
G01X37903Y41282D01*
G01X37986Y41249D01*
G01X38066Y41217D01*
G01X38142Y41188D01*
G01X38212Y41161D01*
G01X38277Y41136D01*
G01X38335Y41114D01*
G01X38386Y41096D01*
G01X38428Y41081D01*
G01X38462Y41070D01*
G01X38485Y41063D01*
G01X38498Y41061D01*
G01X38498Y41061D01*
G01X38507Y41064D01*
G01X38524Y41072D01*
G01X38547Y41084D01*
G01X38577Y41102D01*
G01X38613Y41124D01*
G01X38655Y41150D01*
G01X38703Y41180D01*
G01X38755Y41214D01*
G01X38812Y41250D01*
G01X38873Y41290D01*
G01X38937Y41333D01*
G01X39005Y41379D01*
G01X39076Y41426D01*
G01X39149Y41476D01*
G01X39224Y41527D01*
G01X39301Y41580D01*
G01X39301Y41580D01*
G01X39378Y41633D01*
G01X39454Y41685D01*
G01X39528Y41734D01*
G01X39599Y41782D01*
G01X39668Y41827D01*
G01X39734Y41870D01*
G01X39796Y41910D01*
G01X39855Y41947D01*
G01X39909Y41981D01*
G01X39958Y42011D01*
G01X40003Y42037D01*
G01X40041Y42059D01*
G01X40074Y42076D01*
G01X40100Y42089D01*
G01X40119Y42097D01*
G01X40131Y42100D01*
G01X40131Y42100D01*
G01X40142Y42096D01*
G01X40159Y42087D01*
G01X40182Y42071D01*
G01X40211Y42050D01*
G01X40244Y42023D01*
G01X40282Y41991D01*
G01X40324Y41955D01*
G01X40371Y41914D01*
G01X40421Y41869D01*
G01X40474Y41821D01*
G01X40529Y41769D01*
G01X40588Y41713D01*
G01X40648Y41656D01*
G01X40710Y41595D01*
G01X40774Y41533D01*
G01X40839Y41468D01*
G01X40839Y41468D01*
G01X40903Y41404D01*
G01X40965Y41340D01*
G01X41025Y41279D01*
G01X41083Y41219D01*
G01X41138Y41161D01*
G01X41190Y41106D01*
G01X41239Y41055D01*
G01X41284Y41006D01*
G01X41324Y40961D01*
G01X41361Y40920D01*
G01X41392Y40884D01*
G01X41419Y40853D01*
G01X41440Y40826D01*
G01X41456Y40805D01*
G01X41465Y40790D01*
G01X41469Y40781D01*
G01X41469Y40781D01*
G01X41466Y40771D01*
G01X41458Y40754D01*
G01X41445Y40730D01*
G01X41428Y40700D01*
G01X41406Y40663D01*
G01X41380Y40620D01*
G01X41350Y40572D01*
G01X41316Y40520D01*
G01X41279Y40462D01*
G01X41239Y40401D01*
G01X41196Y40336D01*
G01X41151Y40268D01*
G01X41103Y40197D01*
G01X41054Y40123D01*
G01X41002Y40048D01*
G01X40949Y39970D01*
G01X40949Y39970D01*
G01X40896Y39893D01*
G01X40845Y39818D01*
G01X40795Y39744D01*
G01X40748Y39673D01*
G01X40702Y39605D01*
G01X40660Y39540D01*
G01X40620Y39479D01*
G01X40583Y39422D01*
G01X40550Y39369D01*
G01X40520Y39321D01*
G01X40494Y39279D01*
G01X40472Y39242D01*
G01X40455Y39212D01*
G01X40442Y39188D01*
G01X40435Y39171D01*
G01X40432Y39162D01*
G01X40432Y39162D01*
G01X40435Y39148D01*
G01X40443Y39123D01*
G01X40456Y39088D01*
G01X40473Y39043D01*
G01X40494Y38989D01*
G01X40519Y38927D01*
G01X40546Y38858D01*
G01X40577Y38783D01*
G01X40611Y38703D01*
G01X40646Y38618D01*
G01X40684Y38530D01*
G01X40723Y38440D01*
G01X41010Y37772D01*
G01X41846Y37609D01*
G01X41846Y37609D01*
G01X41931Y37593D01*
G01X42016Y37576D01*
G01X42098Y37560D01*
G01X42179Y37544D01*
G01X42256Y37529D01*
G01X42331Y37514D01*
G01X42402Y37500D01*
G01X42468Y37487D01*
G01X42530Y37475D01*
G01X42587Y37464D01*
G01X42638Y37454D01*
G01X42683Y37445D01*
G01X42721Y37437D01*
G01X42753Y37431D01*
G01X42777Y37426D01*
G01X42792Y37423D01*
G01X42792Y37423D01*
G01X42812Y37418D01*
G01X42829Y37413D01*
G01X42844Y37405D01*
G01X42856Y37393D01*
G01X42867Y37377D01*
G01X42876Y37353D01*
G01X42883Y37321D01*
G01X42889Y37280D01*
G01X42894Y37228D01*
G01X42898Y37164D01*
G01X42900Y37086D01*
G01X42902Y36992D01*
G01X42903Y36882D01*
G01X42903Y36754D01*
G01X42903Y36607D01*
G01X42904Y36439D01*
G01X42904Y36439D01*
G01X42903Y36284D01*
G01X42903Y36147D01*
G01X42902Y36026D01*
G01X42901Y35920D01*
G01X42899Y35828D01*
G01X42897Y35750D01*
G01X42894Y35683D01*
G01X42890Y35628D01*
G01X42885Y35582D01*
G01X42879Y35545D01*
G01X42872Y35516D01*
G01X42864Y35494D01*
G01X42854Y35478D01*
G01X42843Y35467D01*
G01X42831Y35459D01*
G01X42817Y35454D01*
G01X42817Y35454D01*
G01X42798Y35449D01*
G01X42767Y35442D01*
G01X42725Y35434D01*
G01X42672Y35423D01*
G01X42609Y35411D01*
G01X42538Y35398D01*
G01X42459Y35383D01*
G01X42374Y35368D01*
G01X42283Y35352D01*
G01X42188Y35335D01*
G01X42089Y35317D01*
G01X41988Y35299D01*
G01X41988Y35299D01*
G01X41887Y35282D01*
G01X41788Y35264D01*
G01X41692Y35246D01*
G01X41601Y35229D01*
G01X41515Y35212D01*
G01X41435Y35196D01*
G01X41362Y35181D01*
G01X41298Y35168D01*
G01X41243Y35156D01*
G01X41199Y35145D01*
G01X41166Y35136D01*
G01X41146Y35129D01*
G01X41146Y35129D01*
G01X41127Y35118D01*
G01X41107Y35098D01*
G01X41084Y35070D01*
G01X41059Y35032D01*
G01X41032Y34985D01*
G01X41002Y34928D01*
G01X40969Y34861D01*
G01X40933Y34783D01*
G01X40894Y34695D01*
G01X40852Y34596D01*
G01X40807Y34486D01*
G01X40758Y34364D01*
G01X40758Y34364D01*
G01X40719Y34266D01*
G01X40682Y34170D01*
G01X40648Y34078D01*
G01X40616Y33991D01*
G01X40587Y33910D01*
G01X40561Y33835D01*
G01X40539Y33768D01*
G01X40521Y33709D01*
G01X40507Y33660D01*
G01X40498Y33621D01*
G01X40494Y33594D01*
G01X40494Y33579D01*
G01X40494Y33579D01*
G01X40499Y33569D01*
G01X40509Y33553D01*
G01X40523Y33530D01*
G01X40542Y33501D01*
G01X40564Y33466D01*
G01X40590Y33427D01*
G01X40619Y33382D01*
G01X40652Y33333D01*
G01X40687Y33280D01*
G01X40725Y33223D01*
G01X40765Y33164D01*
G01X40808Y33101D01*
G01X40852Y33035D01*
G01X40898Y32968D01*
G01X40946Y32898D01*
G01X40994Y32828D01*
G01X40994Y32828D01*
G01X41058Y32734D01*
G01X41120Y32643D01*
G01X41178Y32556D01*
G01X41233Y32473D01*
G01X41284Y32396D01*
G01X41329Y32325D01*
G01X41369Y32261D01*
G01X41404Y32206D01*
G01X41431Y32160D01*
G01X41452Y32124D01*
G01X41464Y32099D01*
G01X41469Y32085D01*
G01X41469Y32085D01*
G01X41465Y32076D01*
G01X41455Y32061D01*
G01X41439Y32040D01*
G01X41417Y32013D01*
G01X41389Y31980D01*
G01X41355Y31943D01*
G01X41317Y31901D01*
G01X41275Y31855D01*
G01X41228Y31804D01*
G01X41177Y31751D01*
G01X41122Y31694D01*
G01X41065Y31634D01*
G01X41004Y31572D01*
G01X40941Y31507D01*
G01X40875Y31441D01*
G01X40808Y31374D01*
G01X40147Y30715D01*
G01X39415Y31214D01*
G01X39415Y31214D01*
G01X39340Y31265D01*
G01X39266Y31314D01*
G01X39195Y31362D01*
G01X39126Y31407D01*
G01X39059Y31451D01*
G01X38996Y31492D01*
G01X38936Y31531D01*
G01X38881Y31566D01*
G01X38829Y31598D01*
G01X38783Y31627D01*
G01X38742Y31652D01*
G01X38706Y31673D01*
G01X38676Y31690D01*
G01X38652Y31703D01*
G01X38636Y31710D01*
G01X38626Y31713D01*
G01X38626Y31713D01*
G01X38609Y31709D01*
G01X38579Y31699D01*
G01X38540Y31683D01*
G01X38491Y31662D01*
G01X38436Y31636D01*
G01X38376Y31607D01*
G01X38311Y31574D01*
G01X38245Y31540D01*
G01X38245Y31540D01*
G01X38158Y31494D01*
G01X38085Y31459D01*
G01X38026Y31433D01*
G01X37977Y31416D01*
G01X37939Y31407D01*
G01X37909Y31407D01*
G01X37887Y31414D01*
G01X37871Y31428D01*
G01X37871Y31428D01*
G01X37859Y31447D01*
G01X37842Y31478D01*
G01X37822Y31518D01*
G01X37799Y31566D01*
G01X37774Y31622D01*
G01X37748Y31682D01*
G01X37721Y31746D01*
G01X37695Y31812D01*
G01X37695Y31812D01*
G01X37685Y31836D01*
G01X37673Y31866D01*
G01X37659Y31899D01*
G01X37644Y31938D01*
G01X37626Y31980D01*
G01X37607Y32026D01*
G01X37587Y32076D01*
G01X37565Y32130D01*
G01X37542Y32186D01*
G01X37517Y32246D01*
G01X37492Y32308D01*
G01X37465Y32373D01*
G01X37437Y32440D01*
G01X37409Y32510D01*
G01X37379Y32581D01*
G01X37349Y32654D01*
G01X37318Y32728D01*
G01X37287Y32804D01*
G01X37255Y32880D01*
G01X37223Y32958D01*
G01X37191Y33036D01*
G01X37158Y33114D01*
G01X37126Y33192D01*
G01X37093Y33271D01*
G01X37093Y33271D01*
G01X37055Y33364D01*
G01X37017Y33456D01*
G01X36980Y33545D01*
G01X36944Y33633D01*
G01X36910Y33718D01*
G01X36877Y33801D01*
G01X36845Y33880D01*
G01X36815Y33956D01*
G01X36786Y34028D01*
G01X36760Y34096D01*
G01X36735Y34160D01*
G01X36712Y34219D01*
G01X36692Y34273D01*
G01X36674Y34321D01*
G01X36658Y34364D01*
G01X36645Y34401D01*
G01X36635Y34432D01*
G01X36628Y34456D01*
G01X36623Y34473D01*
G01X36621Y34483D01*
G01X36621Y34483D01*
G01X36638Y34521D01*
G01X36682Y34571D01*
G01X36746Y34627D01*
G01X36825Y34680D01*
G01X36825Y34680D01*
G01X36870Y34711D01*
G01X36922Y34749D01*
G01X36978Y34793D01*
G01X37036Y34843D01*
G01X37096Y34896D01*
G01X37154Y34951D01*
G01X37210Y35006D01*
G01X37261Y35060D01*
G01X37261Y35060D01*
G01X37311Y35116D01*
G01X37361Y35177D01*
G01X37410Y35241D01*
G01X37458Y35307D01*
G01X37503Y35372D01*
G01X37543Y35434D01*
G01X37577Y35492D01*
G01X37603Y35543D01*
G01X37603Y35543D01*
G01X37625Y35594D01*
G01X37649Y35652D01*
G01X37672Y35714D01*
G01X37695Y35779D01*
G01X37716Y35845D01*
G01X37735Y35909D01*
G01X37752Y35971D01*
G01X37765Y36027D01*
G01X37765Y36027D01*
G01X37776Y36087D01*
G01X37784Y36155D01*
G01X37791Y36230D01*
G01X37795Y36309D01*
G01X37797Y36391D01*
G01X37797Y36474D01*
G01X37794Y36554D01*
G01X37788Y36632D01*
G01X37788Y36632D01*
G01X37782Y36691D01*
G01X37775Y36749D01*
G01X37765Y36806D01*
G01X37754Y36862D01*
G01X37742Y36916D01*
G01X37728Y36971D01*
G01X37712Y37024D01*
G01X37695Y37078D01*
G01X37675Y37131D01*
G01X37654Y37183D01*
G01X37631Y37236D01*
G01X37606Y37289D01*
G01X37606Y37289D01*
G01X37583Y37333D01*
G01X37557Y37380D01*
G01X37529Y37428D01*
G01X37498Y37478D01*
G01X37464Y37528D01*
G01X37430Y37579D01*
G01X37394Y37628D01*
G01X37358Y37676D01*
G01X37322Y37722D01*
G01X37287Y37765D01*
G01X37252Y37805D01*
G01X37219Y37841D01*
G01X37219Y37841D01*
G01X37166Y37892D01*
G01X37108Y37945D01*
G01X37045Y37997D01*
G01X36980Y38048D01*
G01X36915Y38095D01*
G01X36852Y38138D01*
G01X36793Y38175D01*
G01X36739Y38204D01*
G01X36739Y38204D01*
G01X36686Y38230D01*
G01X36627Y38256D01*
G01X36564Y38282D01*
G01X36499Y38308D01*
G01X36435Y38332D01*
G01X36374Y38354D01*
G01X36316Y38373D01*
G01X36264Y38388D01*
G01X36264Y38388D01*
G01X36209Y38401D01*
G01X36144Y38411D01*
G01X36073Y38420D01*
G01X35996Y38427D01*
G01X35915Y38431D01*
G01X35833Y38433D01*
G01X35751Y38432D01*
G01X35671Y38429D01*
G01X35671Y38429D01*
G01X35617Y38425D01*
G01X35562Y38419D01*
G01X35505Y38411D01*
G01X35447Y38403D01*
G01X35388Y38392D01*
G01X35330Y38381D01*
G01X35273Y38369D01*
G01X35217Y38355D01*
G01X35164Y38341D01*
G01X35113Y38326D01*
G01X35066Y38311D01*
G01X35023Y38295D01*
G01X35023Y38295D01*
G01X34977Y38276D01*
G01X34929Y38254D01*
G01X34881Y38229D01*
G01X34832Y38202D01*
G01X34783Y38172D01*
G01X34733Y38140D01*
G01X34683Y38106D01*
G01X34633Y38070D01*
G01X34583Y38032D01*
G01X34534Y37992D01*
G01X34485Y37950D01*
G01X34438Y37907D01*
G01X34438Y37907D01*
G01X34393Y37865D01*
G01X34349Y37821D01*
G01X34306Y37775D01*
G01X34264Y37728D01*
G01X34223Y37679D01*
G01X34183Y37631D01*
G01X34146Y37582D01*
G01X34110Y37534D01*
G01X34078Y37487D01*
G01X34048Y37441D01*
G01X34022Y37397D01*
G01X34000Y37355D01*
G01X34000Y37355D01*
G01X33971Y37294D01*
G01X33941Y37225D01*
G01X33912Y37151D01*
G01X33884Y37074D01*
G01X33858Y36996D01*
G01X33835Y36921D01*
G01X33815Y36850D01*
G01X33800Y36785D01*
G01X33800Y36785D01*
G01X33788Y36719D01*
G01X33778Y36649D01*
G01X33771Y36575D01*
G01X33766Y36499D01*
G01X33763Y36425D01*
G01X33762Y36354D01*
G01X33765Y36287D01*
G01X33770Y36227D01*
G01X33770Y36227D01*
G01X33778Y36170D01*
G01X33789Y36107D01*
G01X33803Y36040D01*
G01X33818Y35972D01*
G01X33836Y35904D01*
G01X33854Y35839D01*
G01X33873Y35779D01*
G01X33892Y35726D01*
G01X33892Y35726D01*
G01X33913Y35673D01*
G01X33939Y35615D01*
G01X33970Y35553D01*
G01X34003Y35489D01*
G01X34037Y35426D01*
G01X34073Y35364D01*
G01X34108Y35307D01*
G01X34142Y35255D01*
G01X34142Y35255D01*
G01X34179Y35205D01*
G01X34222Y35151D01*
G01X34271Y35094D01*
G01X34323Y35038D01*
G01X34377Y34982D01*
G01X34432Y34929D01*
G01X34485Y34881D01*
G01X34535Y34840D01*
G01X34535Y34840D01*
G01X34584Y34801D01*
G01X34634Y34762D01*
G01X34684Y34724D01*
G01X34733Y34688D01*
G01X34778Y34654D01*
G01X34819Y34625D01*
G01X34853Y34600D01*
G01X34881Y34581D01*
G01X34993Y34507D01*
G01X34348Y32955D01*
G01X34348Y32955D01*
G01X34310Y32864D01*
G01X34273Y32774D01*
G01X34236Y32686D01*
G01X34200Y32599D01*
G01X34165Y32514D01*
G01X34130Y32431D01*
G01X34096Y32350D01*
G01X34063Y32271D01*
G01X34031Y32194D01*
G01X33999Y32120D01*
G01X33969Y32049D01*
G01X33940Y31980D01*
G01X33912Y31914D01*
G01X33886Y31851D01*
G01X33860Y31792D01*
G01X33837Y31735D01*
G01X33814Y31683D01*
G01X33793Y31634D01*
G01X33774Y31588D01*
G01X33756Y31547D01*
G01X33740Y31510D01*
G01X33725Y31477D01*
G01X33713Y31449D01*
G01X33702Y31425D01*
G01X33694Y31406D01*
G01X33687Y31392D01*
G01X33682Y31382D01*
G01X33680Y31378D01*
G01X33680Y31378D01*
G01X33668Y31377D01*
G01X33645Y31383D01*
G01X33611Y31396D01*
G01X33567Y31414D01*
G01X33516Y31438D01*
G01X33459Y31466D01*
G01X33396Y31498D01*
G01X33330Y31534D01*
G01X33330Y31534D01*
G01X33264Y31570D01*
G01X33199Y31603D01*
G01X33137Y31634D01*
G01X33081Y31660D01*
G01X33032Y31682D01*
G01X32991Y31699D01*
G01X32959Y31709D01*
G01X32940Y31713D01*
G01X32940Y31713D01*
G01X32899Y31702D01*
G01X32837Y31672D01*
G01X32762Y31628D01*
G01X32682Y31574D01*
G01X32682Y31574D01*
G01X32651Y31552D01*
G01X32611Y31525D01*
G01X32565Y31492D01*
G01X32511Y31455D01*
G01X32452Y31414D01*
G01X32388Y31369D01*
G01X32321Y31322D01*
G01X32250Y31274D01*
G01X32177Y31223D01*
G01X32103Y31172D01*
G01X32028Y31121D01*
G01X31954Y31071D01*
G01X31420Y30705D01*
G01X30755Y31369D01*
G01X30755Y31369D01*
G01X30687Y31437D01*
G01X30621Y31503D01*
G01X30557Y31568D01*
G01X30496Y31630D01*
G01X30438Y31690D01*
G01X30383Y31747D01*
G01X30332Y31800D01*
G01X30284Y31850D01*
G01X30241Y31896D01*
G01X30203Y31937D01*
G01X30170Y31974D01*
G01X30141Y32006D01*
G01X30119Y32032D01*
G01X30103Y32052D01*
G01X30092Y32066D01*
G01X30089Y32074D01*
G01X30089Y32074D01*
G01X30091Y32082D01*
G01X30099Y32097D01*
G01X30111Y32119D01*
G01X30128Y32147D01*
G01X30149Y32181D01*
G01X30174Y32221D01*
G01X30202Y32266D01*
G01X30234Y32315D01*
G01X30269Y32369D01*
G01X30308Y32427D01*
G01X30348Y32489D01*
G01X30392Y32554D01*
G01X30437Y32622D01*
G01X30484Y32692D01*
G01X30533Y32764D01*
G01X30584Y32838D01*
G01X30584Y32838D01*
G01X30634Y32912D01*
G01X30683Y32984D01*
G01X30730Y33055D01*
G01X30776Y33124D01*
G01X30819Y33189D01*
G01X30860Y33252D01*
G01X30898Y33312D01*
G01X30933Y33367D01*
G01X30965Y33419D01*
G01X30994Y33465D01*
G01X31019Y33507D01*
G01X31040Y33543D01*
G01X31056Y33574D01*
G01X31068Y33598D01*
G01X31076Y33615D01*
G01X31079Y33626D01*
G01X31079Y33626D01*
G01X31076Y33641D01*
G01X31069Y33668D01*
G01X31057Y33706D01*
G01X31040Y33754D01*
G01X31020Y33811D01*
G01X30997Y33876D01*
G01X30970Y33949D01*
G01X30940Y34028D01*
G01X30908Y34112D01*
G01X30874Y34201D01*
G01X30837Y34293D01*
G01X30800Y34388D01*
G01X30800Y34388D01*
G01X30751Y34508D01*
G01X30706Y34616D01*
G01X30665Y34713D01*
G01X30627Y34798D01*
G01X30592Y34872D01*
G01X30560Y34936D01*
G01X30531Y34990D01*
G01X30504Y35034D01*
G01X30480Y35069D01*
G01X30457Y35096D01*
G01X30436Y35115D01*
G01X30416Y35127D01*
G01X30416Y35127D01*
G01X30395Y35133D01*
G01X30363Y35142D01*
G01X30319Y35153D01*
G01X30265Y35165D01*
G01X30202Y35179D01*
G01X30132Y35194D01*
G01X30054Y35210D01*
G01X29970Y35226D01*
G01X29881Y35244D01*
G01X29788Y35261D01*
G01X29692Y35279D01*
G01X29594Y35297D01*
G01X29594Y35297D01*
G01X29496Y35314D01*
G01X29400Y35331D01*
G01X29307Y35348D01*
G01X29218Y35364D01*
G01X29133Y35380D01*
G01X29055Y35394D01*
G01X28983Y35407D01*
G01X28920Y35419D01*
G01X28865Y35429D01*
G01X28821Y35438D01*
G01X28787Y35445D01*
G01X28765Y35449D01*
G01X28765Y35449D01*
G01X28746Y35454D01*
G01X28729Y35459D01*
G01X28714Y35467D01*
G01X28701Y35479D01*
G01X28691Y35496D01*
G01X28682Y35520D01*
G01X28674Y35551D01*
G01X28668Y35593D01*
G01X28664Y35645D01*
G01X28660Y35710D01*
G01X28658Y35788D01*
G01X28656Y35882D01*
G01X28655Y35992D01*
G01X28654Y36120D01*
G01X28654Y36268D01*
G01X28654Y36437D01*
G01X28654Y36437D01*
G01X28654Y36535D01*
G01X28654Y36631D01*
G01X28655Y36723D01*
G01X28655Y36811D01*
G01X28656Y36896D01*
G01X28656Y36975D01*
G01X28657Y37049D01*
G01X28658Y37118D01*
G01X28659Y37180D01*
G01X28660Y37236D01*
G01X28661Y37284D01*
G01X28662Y37325D01*
G01X28663Y37357D01*
G01X28664Y37381D01*
G01X28665Y37396D01*
G01X28666Y37401D01*
G01X28666Y37401D01*
G01X28672Y37402D01*
G01X28688Y37404D01*
G01X28711Y37409D01*
G01X28743Y37414D01*
G01X28783Y37422D01*
G01X28829Y37430D01*
G01X28883Y37440D01*
G01X28943Y37451D01*
G01X29008Y37463D01*
G01X29079Y37476D01*
G01X29155Y37490D01*
G01X29235Y37505D01*
G01X29319Y37521D01*
G01X29406Y37537D01*
G01X29496Y37554D01*
G01X29589Y37571D01*
G01X29589Y37571D01*
G01X29682Y37589D01*
G01X29773Y37607D01*
G01X29861Y37624D01*
G01X29946Y37641D01*
G01X30027Y37657D01*
G01X30104Y37673D01*
G01X30176Y37689D01*
G01X30243Y37703D01*
G01X30305Y37717D01*
G01X30360Y37730D01*
G01X30409Y37742D01*
G01X30451Y37753D01*
G01X30485Y37762D01*
G01X30511Y37770D01*
G01X30529Y37777D01*
G01X30538Y37782D01*
G01X30538Y37782D01*
G01X30545Y37793D01*
G01X30558Y37815D01*
G01X30574Y37847D01*
G01X30595Y37888D01*
G01X30619Y37938D01*
G01X30646Y37996D01*
G01X30676Y38060D01*
G01X30708Y38131D01*
G01X30742Y38206D01*
G01X30778Y38286D01*
G01X30814Y38370D01*
G01X30852Y38456D01*
G01X30852Y38456D01*
G01X30889Y38542D01*
G01X30925Y38627D01*
G01X30959Y38708D01*
G01X30991Y38785D01*
G01X31020Y38858D01*
G01X31047Y38925D01*
G01X31070Y38986D01*
G01X31090Y39040D01*
G01X31106Y39085D01*
G01X31118Y39121D01*
G01X31125Y39148D01*
G01X31128Y39163D01*
G01X31128Y39163D01*
G01X31125Y39175D01*
G01X31117Y39193D01*
G01X31105Y39219D01*
G01X31087Y39252D01*
G01X31065Y39290D01*
G01X31039Y39334D01*
G01X31009Y39384D01*
G01X30975Y39438D01*
G01X30938Y39497D01*
G01X30898Y39560D01*
G01X30856Y39626D01*
G01X30810Y39696D01*
G01X30763Y39768D01*
G01X30713Y39842D01*
G01X30661Y39919D01*
G01X30609Y39996D01*
G01X30609Y39996D01*
G01X30556Y40074D01*
G01X30504Y40150D01*
G01X30454Y40224D01*
G01X30407Y40295D01*
G01X30361Y40363D01*
G01X30319Y40428D01*
G01X30278Y40489D01*
G01X30242Y40546D01*
G01X30208Y40598D01*
G01X30178Y40645D01*
G01X30152Y40687D01*
G01X30130Y40723D01*
G01X30112Y40753D01*
G01X30100Y40776D01*
G01X30092Y40791D01*
G01X30089Y40800D01*
G01X30089Y40800D01*
G01X30092Y40808D01*
G01X30103Y40822D01*
G01X30119Y40842D01*
G01X30141Y40869D01*
G01X30170Y40900D01*
G01X30203Y40937D01*
G01X30241Y40978D01*
G01X30284Y41024D01*
G01X30332Y41073D01*
G01X30383Y41127D01*
G01X30438Y41183D01*
G01X30496Y41242D01*
G01X30557Y41304D01*
G01X30620Y41368D01*
G01X30686Y41434D01*
G01X30754Y41501D01*
G01X31419Y42160D01*
G01X32190Y41633D01*
G01X32190Y41633D01*
G01X32269Y41579D01*
G01X32347Y41527D01*
G01X32422Y41476D01*
G01X32496Y41426D01*
G01X32566Y41379D01*
G01X32633Y41334D01*
G01X32697Y41292D01*
G01X32756Y41253D01*
G01X32811Y41217D01*
G01X32861Y41184D01*
G01X32906Y41156D01*
G01X32945Y41131D01*
G01X32977Y41111D01*
G01X33003Y41095D01*
G01X33022Y41084D01*
G01X33034Y41079D01*
G01X33034Y41079D01*
G01X33049Y41077D01*
G01X33075Y41081D01*
G01X33111Y41088D01*
G01X33156Y41100D01*
G01X33209Y41116D01*
G01X33270Y41135D01*
G01X33337Y41158D01*
G01X33409Y41183D01*
G01X33486Y41212D01*
G01X33567Y41242D01*
G01X33651Y41275D01*
G01X33737Y41310D01*
G01X33737Y41310D01*
G01X33823Y41346D01*
G01X33906Y41381D01*
G01X33986Y41415D01*
G01X34062Y41449D01*
G01X34133Y41481D01*
G01X34198Y41511D01*
G01X34257Y41539D01*
G01X34308Y41565D01*
G01X34351Y41587D01*
G01X34384Y41606D01*
G01X34408Y41621D01*
G01X34421Y41632D01*
G01X34421Y41632D01*
G01X34427Y41643D01*
G01X34434Y41663D01*
G01X34443Y41691D01*
G01X34454Y41726D01*
G01X34465Y41769D01*
G01X34478Y41819D01*
G01X34491Y41874D01*
G01X34505Y41936D01*
G01X34521Y42003D01*
G01X34536Y42074D01*
G01X34552Y42150D01*
G01X34569Y42230D01*
G01X34586Y42313D01*
G01X34603Y42399D01*
G01X34620Y42487D01*
G01X34637Y42578D01*
G01X34637Y42578D01*
G01X34654Y42668D01*
G01X34671Y42756D01*
G01X34688Y42842D01*
G01X34705Y42925D01*
G01X34721Y43005D01*
G01X34737Y43081D01*
G01X34753Y43152D01*
G01X34768Y43219D01*
G01X34782Y43280D01*
G01X34795Y43336D01*
G01X34808Y43385D01*
G01X34819Y43428D01*
G01X34829Y43464D01*
G01X34838Y43491D01*
G01X34845Y43511D01*
G01X34851Y43522D01*
G01X34851Y43522D01*
G01X34860Y43530D01*
G01X34875Y43537D01*
G01X34895Y43544D01*
G01X34920Y43550D01*
G01X34952Y43556D01*
G01X34990Y43561D01*
G01X35034Y43566D01*
G01X35086Y43569D01*
G01X35144Y43573D01*
G01X35210Y43576D01*
G01X35283Y43578D01*
G01X35364Y43580D01*
G01X35453Y43581D01*
G01X35551Y43582D01*
G01X35657Y43583D01*
G01X35773Y43583D01*
G01X35773Y43583D01*
G01X35862Y43583D01*
G01X35949Y43582D01*
G01X36034Y43581D01*
G01X36116Y43580D01*
G01X36194Y43578D01*
G01X36269Y43576D01*
G01X36340Y43574D01*
G01X36405Y43571D01*
G01X36466Y43569D01*
G01X36521Y43566D01*
G01X36569Y43563D01*
G01X36611Y43560D01*
G01X36646Y43556D01*
G01X36673Y43553D01*
G01X36692Y43549D01*
G01X36703Y43545D01*
G37*

%LPD*%
G54D52*
G01X49560Y25592D02*
G01X49560Y24622D01*
G01X49560Y25592D02*
G01X49144Y25592D01*
G01X49005Y25546D01*
G01X48959Y25500D01*
G01X48913Y25407D01*
G01X48913Y25315D01*
G01X48959Y25223D01*
G01X49005Y25176D01*
G01X49144Y25130D01*
G01X49560Y25130D02*
G01X49144Y25130D01*
G01X49005Y25084D01*
G01X48959Y25038D01*
G01X48913Y24946D01*
G01X48913Y24807D01*
G01X48959Y24715D01*
G01X49005Y24668D01*
G01X49144Y24622D01*
G01X49560Y24622D01*
G01X48608Y25269D02*
G01X48608Y24622D01*
G01X48608Y24992D02*
G01X48562Y25130D01*
G01X48470Y25223D01*
G01X48377Y25269D01*
G01X48239Y25269D01*
G01X47934Y25269D02*
G01X47934Y24807D01*
G01X47888Y24668D01*
G01X47795Y24622D01*
G01X47657Y24622D01*
G01X47564Y24668D01*
G01X47426Y24807D01*
G01X47426Y25269D02*
G01X47426Y24622D01*
G01X46613Y25130D02*
G01X46659Y25223D01*
G01X46798Y25269D01*
G01X46936Y25269D01*
G01X47075Y25223D01*
G01X47121Y25130D01*
G01X47075Y25038D01*
G01X46983Y24992D01*
G01X46752Y24946D01*
G01X46659Y24899D01*
G01X46613Y24807D01*
G01X46613Y24761D01*
G01X46659Y24668D01*
G01X46798Y24622D01*
G01X46936Y24622D01*
G01X47075Y24668D01*
G01X47121Y24761D01*
G01X46308Y25592D02*
G01X46308Y24622D01*
G01X46308Y25084D02*
G01X46170Y25223D01*
G01X46077Y25269D01*
G01X45939Y25269D01*
G01X45847Y25223D01*
G01X45800Y25084D01*
G01X45800Y24622D01*
G01X45496Y24992D02*
G01X44941Y24992D01*
G01X44941Y25084D01*
G01X44988Y25176D01*
G01X45034Y25223D01*
G01X45126Y25269D01*
G01X45265Y25269D01*
G01X45357Y25223D01*
G01X45449Y25130D01*
G01X45496Y24992D01*
G01X45496Y24899D01*
G01X45449Y24761D01*
G01X45357Y24668D01*
G01X45265Y24622D01*
G01X45126Y24622D01*
G01X45034Y24668D01*
G01X44941Y24761D01*
G01X44082Y25592D02*
G01X44082Y24622D01*
G01X44082Y25130D02*
G01X44175Y25223D01*
G01X44267Y25269D01*
G01X44406Y25269D01*
G01X44498Y25223D01*
G01X44590Y25130D01*
G01X44637Y24992D01*
G01X44637Y24899D01*
G01X44590Y24761D01*
G01X44498Y24668D01*
G01X44406Y24622D01*
G01X44267Y24622D01*
G01X44175Y24668D01*
G01X44082Y24761D01*
G01X42789Y25592D02*
G01X42882Y25546D01*
G01X42974Y25454D01*
G01X43020Y25361D01*
G01X43066Y25223D01*
G01X43066Y24992D01*
G01X43020Y24853D01*
G01X42974Y24761D01*
G01X42882Y24668D01*
G01X42789Y24622D01*
G01X42605Y24622D01*
G01X42512Y24668D01*
G01X42420Y24761D01*
G01X42374Y24853D01*
G01X42327Y24992D01*
G01X42327Y25223D01*
G01X42374Y25361D01*
G01X42420Y25454D01*
G01X42512Y25546D01*
G01X42605Y25592D01*
G01X42789Y25592D01*
G01X42651Y24807D02*
G01X42374Y24530D01*
G01X42023Y25269D02*
G01X42023Y24807D01*
G01X41976Y24668D01*
G01X41884Y24622D01*
G01X41746Y24622D01*
G01X41653Y24668D01*
G01X41515Y24807D01*
G01X41515Y25269D02*
G01X41515Y24622D01*
G01X40656Y25269D02*
G01X40656Y24622D01*
G01X40656Y25130D02*
G01X40748Y25223D01*
G01X40840Y25269D01*
G01X40979Y25269D01*
G01X41071Y25223D01*
G01X41164Y25130D01*
G01X41210Y24992D01*
G01X41210Y24899D01*
G01X41164Y24761D01*
G01X41071Y24668D01*
G01X40979Y24622D01*
G01X40840Y24622D01*
G01X40748Y24668D01*
G01X40656Y24761D01*
G01X39797Y25592D02*
G01X39797Y24622D01*
G01X39797Y25130D02*
G01X39889Y25223D01*
G01X39981Y25269D01*
G01X40120Y25269D01*
G01X40212Y25223D01*
G01X40305Y25130D01*
G01X40351Y24992D01*
G01X40351Y24899D01*
G01X40305Y24761D01*
G01X40212Y24668D01*
G01X40120Y24622D01*
G01X39981Y24622D01*
G01X39889Y24668D01*
G01X39797Y24761D01*
G01X38938Y25130D02*
G01X39030Y25223D01*
G01X39122Y25269D01*
G01X39261Y25269D01*
G01X39353Y25223D01*
G01X39446Y25130D01*
G01X39492Y24992D01*
G01X39492Y24899D01*
G01X39446Y24761D01*
G01X39353Y24668D01*
G01X39261Y24622D01*
G01X39122Y24622D01*
G01X39030Y24668D01*
G01X38938Y24761D01*
G01X38402Y25269D02*
G01X38494Y25223D01*
G01X38587Y25130D01*
G01X38633Y24992D01*
G01X38633Y24899D01*
G01X38587Y24761D01*
G01X38494Y24668D01*
G01X38402Y24622D01*
G01X38263Y24622D01*
G01X38171Y24668D01*
G01X38079Y24761D01*
G01X38033Y24899D01*
G01X38033Y24992D01*
G01X38079Y25130D01*
G01X38171Y25223D01*
G01X38263Y25269D01*
G01X38402Y25269D01*
G01X37728Y25269D02*
G01X37728Y24299D01*
G01X37728Y25130D02*
G01X37635Y25223D01*
G01X37543Y25269D01*
G01X37404Y25269D01*
G01X37312Y25223D01*
G01X37220Y25130D01*
G01X37174Y24992D01*
G01X37174Y24899D01*
G01X37220Y24761D01*
G01X37312Y24668D01*
G01X37404Y24622D01*
G01X37543Y24622D01*
G01X37635Y24668D01*
G01X37728Y24761D01*
G01X36730Y25592D02*
G01X36730Y24807D01*
G01X36684Y24668D01*
G01X36592Y24622D01*
G01X36499Y24622D01*
G01X36869Y25269D02*
G01X36546Y25269D01*
G01X36195Y24992D02*
G01X35640Y24992D01*
G01X35640Y25084D01*
G01X35687Y25176D01*
G01X35733Y25223D01*
G01X35825Y25269D01*
G01X35964Y25269D01*
G01X36056Y25223D01*
G01X36148Y25130D01*
G01X36195Y24992D01*
G01X36195Y24899D01*
G01X36148Y24761D01*
G01X36056Y24668D01*
G01X35964Y24622D01*
G01X35825Y24622D01*
G01X35733Y24668D01*
G01X35640Y24761D01*
G01X35336Y25269D02*
G01X35336Y24622D01*
G01X35336Y24992D02*
G01X35289Y25130D01*
G01X35197Y25223D01*
G01X35105Y25269D01*
G01X34966Y25269D01*
G01X33950Y25592D02*
G01X33950Y24622D01*
G01X33950Y25592D02*
G01X33350Y25592D01*
G01X33950Y25130D02*
G01X33581Y25130D01*
G01X33045Y25592D02*
G01X33045Y24622D01*
G01X32740Y25592D02*
G01X32694Y25546D01*
G01X32648Y25592D01*
G01X32694Y25638D01*
G01X32740Y25592D01*
G01X32694Y25269D02*
G01X32694Y24622D01*
G01X31789Y25269D02*
G01X31789Y24530D01*
G01X31835Y24391D01*
G01X31881Y24345D01*
G01X31974Y24299D01*
G01X32112Y24299D01*
G01X32204Y24345D01*
G01X31789Y25130D02*
G01X31881Y25223D01*
G01X31974Y25269D01*
G01X32112Y25269D01*
G01X32204Y25223D01*
G01X32297Y25130D01*
G01X32343Y24992D01*
G01X32343Y24899D01*
G01X32297Y24761D01*
G01X32204Y24668D01*
G01X32112Y24622D01*
G01X31974Y24622D01*
G01X31881Y24668D01*
G01X31789Y24761D01*
G01X31484Y25592D02*
G01X31484Y24622D01*
G01X31484Y25084D02*
G01X31345Y25223D01*
G01X31253Y25269D01*
G01X31115Y25269D01*
G01X31022Y25223D01*
G01X30976Y25084D01*
G01X30976Y24622D01*
G01X30533Y25592D02*
G01X30533Y24807D01*
G01X30486Y24668D01*
G01X30394Y24622D01*
G01X30302Y24622D01*
G01X30671Y25269D02*
G01X30348Y25269D01*
G01X28593Y25361D02*
G01X28639Y25454D01*
G01X28732Y25546D01*
G01X28824Y25592D01*
G01X29009Y25592D01*
G01X29101Y25546D01*
G01X29193Y25454D01*
G01X29240Y25361D01*
G01X29286Y25223D01*
G01X29286Y24992D01*
G01X29240Y24853D01*
G01X29193Y24761D01*
G01X29101Y24668D01*
G01X29009Y24622D01*
G01X28824Y24622D01*
G01X28732Y24668D01*
G01X28639Y24761D01*
G01X28593Y24853D01*
G01X28057Y25269D02*
G01X28150Y25223D01*
G01X28242Y25130D01*
G01X28288Y24992D01*
G01X28288Y24899D01*
G01X28242Y24761D01*
G01X28150Y24668D01*
G01X28057Y24622D01*
G01X27919Y24622D01*
G01X27826Y24668D01*
G01X27734Y24761D01*
G01X27688Y24899D01*
G01X27688Y24992D01*
G01X27734Y25130D01*
G01X27826Y25223D01*
G01X27919Y25269D01*
G01X28057Y25269D01*
G01X27383Y25269D02*
G01X27383Y24622D01*
G01X27383Y25084D02*
G01X27244Y25223D01*
G01X27152Y25269D01*
G01X27014Y25269D01*
G01X26921Y25223D01*
G01X26875Y25084D01*
G01X26875Y24622D01*
G01X26432Y25592D02*
G01X26432Y24807D01*
G01X26386Y24668D01*
G01X26293Y24622D01*
G01X26201Y24622D01*
G01X26570Y25269D02*
G01X26247Y25269D01*
G01X25896Y25269D02*
G01X25896Y24622D01*
G01X25896Y24992D02*
G01X25850Y25130D01*
G01X25757Y25223D01*
G01X25665Y25269D01*
G01X25527Y25269D01*
G01X24991Y25269D02*
G01X25083Y25223D01*
G01X25176Y25130D01*
G01X25222Y24992D01*
G01X25222Y24899D01*
G01X25176Y24761D01*
G01X25083Y24668D01*
G01X24991Y24622D01*
G01X24852Y24622D01*
G01X24760Y24668D01*
G01X24668Y24761D01*
G01X24621Y24899D01*
G01X24621Y24992D01*
G01X24668Y25130D01*
G01X24760Y25223D01*
G01X24852Y25269D01*
G01X24991Y25269D01*
G01X24317Y25592D02*
G01X24317Y24622D01*
G01X24012Y25592D02*
G01X24012Y24622D01*
G01X23707Y24992D02*
G01X23153Y24992D01*
G01X23153Y25084D01*
G01X23199Y25176D01*
G01X23245Y25223D01*
G01X23338Y25269D01*
G01X23476Y25269D01*
G01X23568Y25223D01*
G01X23661Y25130D01*
G01X23707Y24992D01*
G01X23707Y24899D01*
G01X23661Y24761D01*
G01X23568Y24668D01*
G01X23476Y24622D01*
G01X23338Y24622D01*
G01X23245Y24668D01*
G01X23153Y24761D01*
G01X22848Y25269D02*
G01X22848Y24622D01*
G01X22848Y24992D02*
G01X22802Y25130D01*
G01X22709Y25223D01*
G01X22617Y25269D01*
G01X22479Y25269D01*
G01X49560Y23560D02*
G01X49560Y22590D01*
G01X49560Y23560D02*
G01X49236Y23560D01*
G01X49098Y23514D01*
G01X49005Y23422D01*
G01X48959Y23329D01*
G01X48913Y23191D01*
G01X48913Y22960D01*
G01X48959Y22821D01*
G01X49005Y22729D01*
G01X49098Y22636D01*
G01X49236Y22590D01*
G01X49560Y22590D01*
G01X48608Y22960D02*
G01X48054Y22960D01*
G01X48054Y23052D01*
G01X48100Y23144D01*
G01X48146Y23191D01*
G01X48239Y23237D01*
G01X48377Y23237D01*
G01X48470Y23191D01*
G01X48562Y23098D01*
G01X48608Y22960D01*
G01X48608Y22867D01*
G01X48562Y22729D01*
G01X48470Y22636D01*
G01X48377Y22590D01*
G01X48239Y22590D01*
G01X48146Y22636D01*
G01X48054Y22729D01*
G01X47241Y23098D02*
G01X47287Y23191D01*
G01X47426Y23237D01*
G01X47564Y23237D01*
G01X47703Y23191D01*
G01X47749Y23098D01*
G01X47703Y23006D01*
G01X47611Y22960D01*
G01X47380Y22914D01*
G01X47287Y22867D01*
G01X47241Y22775D01*
G01X47241Y22729D01*
G01X47287Y22636D01*
G01X47426Y22590D01*
G01X47564Y22590D01*
G01X47703Y22636D01*
G01X47749Y22729D01*
G01X46936Y23560D02*
G01X46890Y23514D01*
G01X46844Y23560D01*
G01X46890Y23606D01*
G01X46936Y23560D01*
G01X46890Y23237D02*
G01X46890Y22590D01*
G01X45985Y23237D02*
G01X45985Y22498D01*
G01X46031Y22359D01*
G01X46077Y22313D01*
G01X46170Y22267D01*
G01X46308Y22267D01*
G01X46401Y22313D01*
G01X45985Y23098D02*
G01X46077Y23191D01*
G01X46170Y23237D01*
G01X46308Y23237D01*
G01X46401Y23191D01*
G01X46493Y23098D01*
G01X46539Y22960D01*
G01X46539Y22867D01*
G01X46493Y22729D01*
G01X46401Y22636D01*
G01X46308Y22590D01*
G01X46170Y22590D01*
G01X46077Y22636D01*
G01X45985Y22729D01*
G01X45680Y23237D02*
G01X45680Y22590D01*
G01X45680Y23052D02*
G01X45542Y23191D01*
G01X45449Y23237D01*
G01X45311Y23237D01*
G01X45218Y23191D01*
G01X45172Y23052D01*
G01X45172Y22590D01*
G01X44867Y22960D02*
G01X44313Y22960D01*
G01X44313Y23052D01*
G01X44359Y23144D01*
G01X44406Y23191D01*
G01X44498Y23237D01*
G01X44637Y23237D01*
G01X44729Y23191D01*
G01X44821Y23098D01*
G01X44867Y22960D01*
G01X44867Y22867D01*
G01X44821Y22729D01*
G01X44729Y22636D01*
G01X44637Y22590D01*
G01X44498Y22590D01*
G01X44406Y22636D01*
G01X44313Y22729D01*
G01X43454Y23560D02*
G01X43454Y22590D01*
G01X43454Y23098D02*
G01X43547Y23191D01*
G01X43639Y23237D01*
G01X43778Y23237D01*
G01X43870Y23191D01*
G01X43962Y23098D01*
G01X44008Y22960D01*
G01X44008Y22867D01*
G01X43962Y22729D01*
G01X43870Y22636D01*
G01X43778Y22590D01*
G01X43639Y22590D01*
G01X43547Y22636D01*
G01X43454Y22729D01*
G01X42438Y23560D02*
G01X42438Y22590D01*
G01X42438Y23098D02*
G01X42346Y23191D01*
G01X42254Y23237D01*
G01X42115Y23237D01*
G01X42023Y23191D01*
G01X41930Y23098D01*
G01X41884Y22960D01*
G01X41884Y22867D01*
G01X41930Y22729D01*
G01X42023Y22636D01*
G01X42115Y22590D01*
G01X42254Y22590D01*
G01X42346Y22636D01*
G01X42438Y22729D01*
G01X41533Y23237D02*
G01X41256Y22590D01*
G01X40979Y23237D02*
G01X41256Y22590D01*
G01X41348Y22406D01*
G01X41441Y22313D01*
G01X41533Y22267D01*
G01X41579Y22267D01*
G01X39963Y23560D02*
G01X39963Y22590D01*
G01X39963Y23560D02*
G01X39594Y22590D01*
G01X39224Y23560D02*
G01X39594Y22590D01*
G01X39224Y23560D02*
G01X39224Y22590D01*
G01X38919Y23560D02*
G01X38873Y23514D01*
G01X38827Y23560D01*
G01X38873Y23606D01*
G01X38919Y23560D01*
G01X38873Y23237D02*
G01X38873Y22590D01*
G01X37968Y23098D02*
G01X38060Y23191D01*
G01X38153Y23237D01*
G01X38291Y23237D01*
G01X38384Y23191D01*
G01X38476Y23098D01*
G01X38522Y22960D01*
G01X38522Y22867D01*
G01X38476Y22729D01*
G01X38384Y22636D01*
G01X38291Y22590D01*
G01X38153Y22590D01*
G01X38060Y22636D01*
G01X37968Y22729D01*
G01X37663Y23560D02*
G01X37663Y22590D01*
G01X37663Y23052D02*
G01X37525Y23191D01*
G01X37432Y23237D01*
G01X37294Y23237D01*
G01X37201Y23191D01*
G01X37155Y23052D01*
G01X37155Y22590D01*
G01X36296Y23237D02*
G01X36296Y22590D01*
G01X36296Y23098D02*
G01X36388Y23191D01*
G01X36481Y23237D01*
G01X36619Y23237D01*
G01X36712Y23191D01*
G01X36804Y23098D01*
G01X36850Y22960D01*
G01X36850Y22867D01*
G01X36804Y22729D01*
G01X36712Y22636D01*
G01X36619Y22590D01*
G01X36481Y22590D01*
G01X36388Y22636D01*
G01X36296Y22729D01*
G01X35991Y22960D02*
G01X35437Y22960D01*
G01X35437Y23052D01*
G01X35483Y23144D01*
G01X35530Y23191D01*
G01X35622Y23237D01*
G01X35760Y23237D01*
G01X35853Y23191D01*
G01X35945Y23098D01*
G01X35991Y22960D01*
G01X35991Y22867D01*
G01X35945Y22729D01*
G01X35853Y22636D01*
G01X35760Y22590D01*
G01X35622Y22590D01*
G01X35530Y22636D01*
G01X35437Y22729D01*
G01X35132Y23560D02*
G01X35132Y22590D01*
G01X34116Y23560D02*
G01X34116Y22590D01*
G01X34116Y23560D02*
G01X33793Y23560D01*
G01X33655Y23514D01*
G01X33562Y23422D01*
G01X33516Y23329D01*
G01X33470Y23191D01*
G01X33470Y22960D01*
G01X33516Y22821D01*
G01X33562Y22729D01*
G01X33655Y22636D01*
G01X33793Y22590D01*
G01X34116Y22590D01*
G01X33165Y22960D02*
G01X32611Y22960D01*
G01X32611Y23052D01*
G01X32657Y23144D01*
G01X32703Y23191D01*
G01X32796Y23237D01*
G01X32934Y23237D01*
G01X33026Y23191D01*
G01X33119Y23098D01*
G01X33165Y22960D01*
G01X33165Y22867D01*
G01X33119Y22729D01*
G01X33026Y22636D01*
G01X32934Y22590D01*
G01X32796Y22590D01*
G01X32703Y22636D01*
G01X32611Y22729D01*
G01X32306Y23560D02*
G01X32306Y22590D01*
G01X31447Y23237D02*
G01X31447Y22590D01*
G01X31447Y23098D02*
G01X31539Y23191D01*
G01X31632Y23237D01*
G01X31770Y23237D01*
G01X31863Y23191D01*
G01X31955Y23098D01*
G01X32001Y22960D01*
G01X32001Y22867D01*
G01X31955Y22729D01*
G01X31863Y22636D01*
G01X31770Y22590D01*
G01X31632Y22590D01*
G01X31539Y22636D01*
G01X31447Y22729D01*
G01X31142Y23237D02*
G01X31142Y22590D01*
G01X31142Y23052D02*
G01X31004Y23191D01*
G01X30911Y23237D01*
G01X30773Y23237D01*
G01X30680Y23191D01*
G01X30634Y23052D01*
G01X30634Y22590D01*
G01X30329Y22960D02*
G01X29775Y22960D01*
G01X29775Y23052D01*
G01X29821Y23144D01*
G01X29868Y23191D01*
G01X29960Y23237D01*
G01X30099Y23237D01*
G01X30191Y23191D01*
G01X30283Y23098D01*
G01X30329Y22960D01*
G01X30329Y22867D01*
G01X30283Y22729D01*
G01X30191Y22636D01*
G01X30099Y22590D01*
G01X29960Y22590D01*
G01X29868Y22636D01*
G01X29775Y22729D01*
G01X29424Y23237D02*
G01X29147Y22590D01*
G01X28870Y23237D02*
G01X29147Y22590D01*
G01X29240Y22406D01*
G01X29332Y22313D01*
G01X29424Y22267D01*
G01X29470Y22267D01*
M00*
M02*
