G04 ---------------------------- Layer name :BOTTOM LAYER*
G04 EasyEDA v5.5.12, Thu, 07 Jun 2018 12:22:22 GMT*
G04 57f62d747bd94b0b94c3b91961ed7a1b*
G04 Gerber Generator version 0.2*
G04 Scale: 100 percent, Rotated: No, Reflected: No *
G04 Dimensions in inches *
G04 leading zeros omitted , absolute positions ,2 integer and 4 decimal *
%FSLAX24Y24*%
%MOIN*%
G90*
G70D02*

%ADD11C,0.015000*%
%ADD12C,0.012000*%
%ADD13C,0.018000*%
%ADD14C,0.016000*%
%ADD15C,0.028000*%
%ADD17C,0.020000*%
%ADD18C,0.025000*%
%ADD22C,0.019700*%
%ADD23C,0.024400*%
%ADD43R,0.062000X0.062000*%
%ADD44C,0.062000*%
%ADD45C,0.039370*%
%ADD46R,0.066000X0.066000*%
%ADD47C,0.059055*%
%ADD48C,0.051181*%

%LPD*%
G36*
G01X27300Y0D02*
G01X26650Y650D01*
G01X25150Y650D01*
G01X23850Y1950D01*
G01X23850Y2563D01*
G01X18350Y8063D01*
G01X10050Y8063D01*
G01X4550Y2563D01*
G01X4550Y1963D01*
G01X3200Y613D01*
G01X1750Y613D01*
G01X1150Y13D01*
G01X600Y13D01*
G01X0Y613D01*
G01X0Y1113D01*
G01X650Y1763D01*
G01X650Y3263D01*
G01X1950Y4563D01*
G01X2550Y4563D01*
G01X8050Y10063D01*
G01X8050Y18480D01*
G01X3248Y23282D01*
G01X2536Y23994D01*
G01X1950Y23994D01*
G01X600Y25344D01*
G01X600Y26794D01*
G01X0Y27394D01*
G01X0Y27944D01*
G01X600Y28544D01*
G01X1100Y28544D01*
G01X1750Y27894D01*
G01X3250Y27894D01*
G01X4550Y26594D01*
G01X4550Y25980D01*
G01X10050Y20463D01*
G01X18335Y20463D01*
G01X23138Y25265D01*
G01X23850Y25978D01*
G01X23850Y26563D01*
G01X25200Y27913D01*
G01X26650Y27913D01*
G01X27250Y28513D01*
G01X27800Y28513D01*
G01X28400Y27913D01*
G01X28400Y27413D01*
G01X27750Y26763D01*
G01X27750Y25263D01*
G01X26450Y23963D01*
G01X25835Y23963D01*
G01X20350Y18484D01*
G01X20350Y10063D01*
G01X25151Y5261D01*
G01X25864Y4550D01*
G01X26450Y4550D01*
G01X27800Y3200D01*
G01X27800Y1750D01*
G01X28400Y1150D01*
G01X28400Y600D01*
G01X27800Y0D01*
G01X27300Y0D01*
G37*

%LPC*%
G36*
G01X787Y27238D02*
G01X837Y27239D01*
G01X886Y27245D01*
G01X935Y27256D01*
G01X982Y27272D01*
G01X1028Y27293D01*
G01X1071Y27317D01*
G01X1111Y27347D01*
G01X1149Y27380D01*
G01X1183Y27416D01*
G01X1213Y27456D01*
G01X1239Y27498D01*
G01X1260Y27543D01*
G01X1277Y27590D01*
G01X1290Y27638D01*
G01X1297Y27688D01*
G01X1300Y27738D01*
G01X1297Y27787D01*
G01X1290Y27837D01*
G01X1277Y27885D01*
G01X1260Y27932D01*
G01X1239Y27977D01*
G01X1213Y28019D01*
G01X1183Y28059D01*
G01X1149Y28095D01*
G01X1111Y28128D01*
G01X1071Y28158D01*
G01X1028Y28182D01*
G01X982Y28203D01*
G01X935Y28219D01*
G01X886Y28230D01*
G01X837Y28236D01*
G01X787Y28237D01*
G01X737Y28234D01*
G01X688Y28225D01*
G01X640Y28211D01*
G01X594Y28193D01*
G01X550Y28171D01*
G01X508Y28143D01*
G01X469Y28112D01*
G01X433Y28078D01*
G01X401Y28039D01*
G01X373Y27998D01*
G01X349Y27954D01*
G01X330Y27909D01*
G01X315Y27861D01*
G01X305Y27812D01*
G01X300Y27762D01*
G01X300Y27713D01*
G01X305Y27663D01*
G01X315Y27614D01*
G01X330Y27566D01*
G01X349Y27521D01*
G01X373Y27477D01*
G01X401Y27436D01*
G01X433Y27397D01*
G01X469Y27363D01*
G01X508Y27332D01*
G01X550Y27304D01*
G01X594Y27282D01*
G01X640Y27264D01*
G01X688Y27250D01*
G01X737Y27241D01*
G01X787Y27238D01*
G37*
G36*
G01X27587Y294D02*
G01X27637Y295D01*
G01X27686Y301D01*
G01X27735Y312D01*
G01X27782Y328D01*
G01X27828Y349D01*
G01X27871Y373D01*
G01X27911Y403D01*
G01X27949Y436D01*
G01X27983Y472D01*
G01X28013Y512D01*
G01X28039Y554D01*
G01X28060Y599D01*
G01X28077Y646D01*
G01X28090Y694D01*
G01X28097Y744D01*
G01X28100Y794D01*
G01X28097Y843D01*
G01X28090Y893D01*
G01X28077Y941D01*
G01X28060Y988D01*
G01X28039Y1033D01*
G01X28013Y1075D01*
G01X27983Y1115D01*
G01X27949Y1151D01*
G01X27911Y1184D01*
G01X27871Y1214D01*
G01X27828Y1238D01*
G01X27782Y1259D01*
G01X27735Y1275D01*
G01X27686Y1286D01*
G01X27637Y1292D01*
G01X27587Y1293D01*
G01X27537Y1290D01*
G01X27488Y1281D01*
G01X27440Y1267D01*
G01X27394Y1249D01*
G01X27350Y1227D01*
G01X27308Y1199D01*
G01X27269Y1168D01*
G01X27233Y1134D01*
G01X27201Y1095D01*
G01X27173Y1054D01*
G01X27149Y1010D01*
G01X27130Y965D01*
G01X27115Y917D01*
G01X27105Y868D01*
G01X27100Y818D01*
G01X27100Y769D01*
G01X27105Y719D01*
G01X27115Y670D01*
G01X27130Y622D01*
G01X27149Y577D01*
G01X27173Y533D01*
G01X27201Y492D01*
G01X27233Y453D01*
G01X27269Y419D01*
G01X27308Y388D01*
G01X27350Y360D01*
G01X27394Y338D01*
G01X27440Y320D01*
G01X27488Y306D01*
G01X27537Y297D01*
G01X27587Y294D01*
G37*
G36*
G01X773Y308D02*
G01X823Y309D01*
G01X872Y315D01*
G01X921Y326D01*
G01X968Y342D01*
G01X1014Y363D01*
G01X1057Y387D01*
G01X1097Y417D01*
G01X1135Y450D01*
G01X1169Y486D01*
G01X1199Y526D01*
G01X1225Y568D01*
G01X1246Y613D01*
G01X1263Y660D01*
G01X1276Y708D01*
G01X1283Y758D01*
G01X1286Y807D01*
G01X1283Y857D01*
G01X1276Y907D01*
G01X1263Y955D01*
G01X1246Y1002D01*
G01X1225Y1047D01*
G01X1199Y1089D01*
G01X1169Y1129D01*
G01X1135Y1165D01*
G01X1097Y1198D01*
G01X1057Y1228D01*
G01X1014Y1252D01*
G01X968Y1273D01*
G01X921Y1289D01*
G01X872Y1300D01*
G01X823Y1306D01*
G01X773Y1307D01*
G01X723Y1304D01*
G01X674Y1295D01*
G01X626Y1281D01*
G01X580Y1263D01*
G01X536Y1241D01*
G01X494Y1213D01*
G01X455Y1182D01*
G01X419Y1148D01*
G01X387Y1109D01*
G01X359Y1068D01*
G01X335Y1024D01*
G01X316Y979D01*
G01X301Y931D01*
G01X291Y882D01*
G01X286Y832D01*
G01X286Y783D01*
G01X291Y733D01*
G01X301Y684D01*
G01X316Y636D01*
G01X335Y591D01*
G01X359Y547D01*
G01X387Y506D01*
G01X419Y467D01*
G01X455Y433D01*
G01X494Y402D01*
G01X536Y374D01*
G01X580Y352D01*
G01X626Y334D01*
G01X674Y320D01*
G01X723Y311D01*
G01X773Y308D01*
G37*
G36*
G01X25762Y1094D02*
G01X25912Y1098D01*
G01X26060Y1116D01*
G01X26206Y1150D01*
G01X26348Y1197D01*
G01X26484Y1259D01*
G01X26613Y1333D01*
G01X26735Y1421D01*
G01X26847Y1520D01*
G01X26949Y1629D01*
G01X27039Y1749D01*
G01X27117Y1876D01*
G01X27182Y2011D01*
G01X27233Y2151D01*
G01X27270Y2296D01*
G01X27292Y2444D01*
G01X27300Y2594D01*
G01X27292Y2743D01*
G01X27270Y2891D01*
G01X27233Y3036D01*
G01X27182Y3176D01*
G01X27117Y3311D01*
G01X27039Y3438D01*
G01X26949Y3558D01*
G01X26847Y3667D01*
G01X26735Y3766D01*
G01X26613Y3854D01*
G01X26484Y3928D01*
G01X26348Y3990D01*
G01X26206Y4037D01*
G01X26060Y4071D01*
G01X25912Y4089D01*
G01X25762Y4093D01*
G01X25613Y4082D01*
G01X25466Y4056D01*
G01X25322Y4015D01*
G01X25183Y3961D01*
G01X25050Y3893D01*
G01X24924Y3811D01*
G01X24807Y3718D01*
G01X24700Y3614D01*
G01X24604Y3499D01*
G01X24520Y3376D01*
G01X24448Y3244D01*
G01X24390Y3107D01*
G01X24346Y2964D01*
G01X24316Y2817D01*
G01X24301Y2668D01*
G01X24301Y2519D01*
G01X24316Y2370D01*
G01X24346Y2223D01*
G01X24390Y2080D01*
G01X24448Y1943D01*
G01X24520Y1811D01*
G01X24604Y1688D01*
G01X24700Y1573D01*
G01X24807Y1469D01*
G01X24924Y1376D01*
G01X25050Y1294D01*
G01X25183Y1226D01*
G01X25322Y1172D01*
G01X25466Y1131D01*
G01X25613Y1105D01*
G01X25762Y1094D01*
G37*
G36*
G01X2548Y1108D02*
G01X2698Y1112D01*
G01X2846Y1130D01*
G01X2992Y1164D01*
G01X3134Y1211D01*
G01X3270Y1273D01*
G01X3399Y1347D01*
G01X3521Y1435D01*
G01X3633Y1534D01*
G01X3735Y1643D01*
G01X3825Y1763D01*
G01X3903Y1890D01*
G01X3968Y2025D01*
G01X4019Y2165D01*
G01X4056Y2310D01*
G01X4078Y2458D01*
G01X4086Y2607D01*
G01X4078Y2757D01*
G01X4056Y2905D01*
G01X4019Y3050D01*
G01X3968Y3190D01*
G01X3903Y3325D01*
G01X3825Y3452D01*
G01X3735Y3572D01*
G01X3633Y3681D01*
G01X3521Y3780D01*
G01X3399Y3868D01*
G01X3270Y3942D01*
G01X3134Y4004D01*
G01X2992Y4051D01*
G01X2846Y4085D01*
G01X2698Y4103D01*
G01X2548Y4107D01*
G01X2399Y4096D01*
G01X2252Y4070D01*
G01X2108Y4029D01*
G01X1969Y3975D01*
G01X1836Y3907D01*
G01X1710Y3825D01*
G01X1593Y3732D01*
G01X1486Y3628D01*
G01X1390Y3513D01*
G01X1306Y3390D01*
G01X1234Y3258D01*
G01X1176Y3121D01*
G01X1132Y2978D01*
G01X1102Y2831D01*
G01X1087Y2682D01*
G01X1087Y2533D01*
G01X1102Y2384D01*
G01X1132Y2237D01*
G01X1176Y2094D01*
G01X1234Y1957D01*
G01X1306Y1825D01*
G01X1390Y1702D01*
G01X1486Y1587D01*
G01X1593Y1483D01*
G01X1710Y1390D01*
G01X1836Y1308D01*
G01X1969Y1240D01*
G01X2108Y1186D01*
G01X2252Y1145D01*
G01X2399Y1119D01*
G01X2548Y1108D01*
G37*
G36*
G01X6920Y6269D02*
G01X6950Y6269D01*
G01X6979Y6273D01*
G01X7008Y6280D01*
G01X7036Y6289D01*
G01X7063Y6301D01*
G01X7089Y6316D01*
G01X7113Y6333D01*
G01X7135Y6353D01*
G01X7155Y6375D01*
G01X7173Y6398D01*
G01X7188Y6424D01*
G01X7201Y6450D01*
G01X7211Y6478D01*
G01X7218Y6507D01*
G01X7223Y6536D01*
G01X7224Y6565D01*
G01X7223Y6595D01*
G01X7218Y6624D01*
G01X7211Y6653D01*
G01X7201Y6681D01*
G01X7188Y6707D01*
G01X7173Y6733D01*
G01X7155Y6756D01*
G01X7135Y6778D01*
G01X7113Y6798D01*
G01X7089Y6815D01*
G01X7063Y6830D01*
G01X7036Y6842D01*
G01X7008Y6851D01*
G01X6979Y6858D01*
G01X6950Y6862D01*
G01X6920Y6862D01*
G01X6891Y6860D01*
G01X6861Y6855D01*
G01X6860Y6855D01*
G01X6862Y6863D01*
G01X6867Y6892D01*
G01X6868Y6922D01*
G01X6867Y6951D01*
G01X6862Y6980D01*
G01X6855Y7009D01*
G01X6845Y7037D01*
G01X6832Y7063D01*
G01X6817Y7089D01*
G01X6799Y7112D01*
G01X6796Y7115D01*
G01X6796Y7372D01*
G01X7700Y8275D01*
G01X7701Y8276D01*
G01X7712Y8281D01*
G01X7722Y8287D01*
G01X7732Y8294D01*
G01X7742Y8300D01*
G01X7751Y8308D01*
G01X7761Y8316D01*
G01X7769Y8324D01*
G01X9469Y10024D01*
G01X9474Y10028D01*
G01X9478Y10033D01*
G01X9482Y10038D01*
G01X9487Y10043D01*
G01X9491Y10048D01*
G01X9494Y10053D01*
G01X9498Y10059D01*
G01X9502Y10064D01*
G01X9505Y10070D01*
G01X9508Y10075D01*
G01X9512Y10081D01*
G01X9515Y10087D01*
G01X9517Y10093D01*
G01X9520Y10099D01*
G01X9522Y10105D01*
G01X9525Y10111D01*
G01X9527Y10117D01*
G01X9529Y10123D01*
G01X9531Y10129D01*
G01X9532Y10136D01*
G01X9534Y10142D01*
G01X9535Y10148D01*
G01X9536Y10155D01*
G01X9537Y10161D01*
G01X9538Y10168D01*
G01X9539Y10174D01*
G01X9539Y10181D01*
G01X9539Y10187D01*
G01X9539Y10194D01*
G01X9539Y11994D01*
G01X9539Y12000D01*
G01X9539Y12006D01*
G01X9539Y12013D01*
G01X9538Y12019D01*
G01X9537Y12026D01*
G01X9536Y12032D01*
G01X9535Y12039D01*
G01X9534Y12045D01*
G01X9532Y12051D01*
G01X9531Y12058D01*
G01X9529Y12064D01*
G01X9527Y12070D01*
G01X9525Y12076D01*
G01X9522Y12082D01*
G01X9520Y12088D01*
G01X9517Y12094D01*
G01X9515Y12100D01*
G01X9512Y12106D01*
G01X9508Y12112D01*
G01X9505Y12117D01*
G01X9502Y12123D01*
G01X9498Y12128D01*
G01X9494Y12134D01*
G01X9491Y12139D01*
G01X9487Y12144D01*
G01X9482Y12149D01*
G01X9478Y12154D01*
G01X9474Y12159D01*
G01X9469Y12163D01*
G01X9219Y12413D01*
G01X9215Y12418D01*
G01X9210Y12422D01*
G01X9205Y12426D01*
G01X9200Y12431D01*
G01X9195Y12435D01*
G01X9190Y12438D01*
G01X9184Y12442D01*
G01X9179Y12446D01*
G01X9173Y12449D01*
G01X9168Y12452D01*
G01X9162Y12456D01*
G01X9156Y12459D01*
G01X9150Y12461D01*
G01X9144Y12464D01*
G01X9138Y12466D01*
G01X9132Y12469D01*
G01X9126Y12471D01*
G01X9120Y12473D01*
G01X9114Y12475D01*
G01X9107Y12476D01*
G01X9101Y12478D01*
G01X9095Y12479D01*
G01X9088Y12480D01*
G01X9082Y12481D01*
G01X9075Y12482D01*
G01X9069Y12483D01*
G01X9062Y12483D01*
G01X9056Y12483D01*
G01X9050Y12484D01*
G01X8549Y12484D01*
G01X8540Y12493D01*
G01X8540Y15944D01*
G01X8769Y16174D01*
G01X8769Y16124D01*
G01X8770Y16119D01*
G01X8770Y16115D01*
G01X8770Y16111D01*
G01X8771Y16107D01*
G01X8772Y16103D01*
G01X8773Y16099D01*
G01X8774Y16095D01*
G01X8775Y16091D01*
G01X8776Y16087D01*
G01X8778Y16083D01*
G01X8780Y16080D01*
G01X8782Y16076D01*
G01X8784Y16072D01*
G01X8786Y16069D01*
G01X8788Y16065D01*
G01X8791Y16062D01*
G01X8793Y16059D01*
G01X8796Y16056D01*
G01X8799Y16053D01*
G01X8802Y16050D01*
G01X8805Y16047D01*
G01X8808Y16045D01*
G01X8811Y16042D01*
G01X8815Y16040D01*
G01X8818Y16038D01*
G01X8822Y16036D01*
G01X8826Y16034D01*
G01X8829Y16032D01*
G01X8833Y16030D01*
G01X8837Y16029D01*
G01X8841Y16028D01*
G01X8845Y16027D01*
G01X8849Y16026D01*
G01X8853Y16025D01*
G01X8857Y16024D01*
G01X8861Y16024D01*
G01X8865Y16024D01*
G01X8869Y16024D01*
G01X9530Y16024D01*
G01X9534Y16024D01*
G01X9538Y16024D01*
G01X9542Y16024D01*
G01X9546Y16025D01*
G01X9550Y16026D01*
G01X9554Y16027D01*
G01X9558Y16028D01*
G01X9562Y16029D01*
G01X9566Y16030D01*
G01X9570Y16032D01*
G01X9573Y16034D01*
G01X9577Y16036D01*
G01X9581Y16038D01*
G01X9584Y16040D01*
G01X9588Y16042D01*
G01X9591Y16045D01*
G01X9594Y16047D01*
G01X9597Y16050D01*
G01X9600Y16053D01*
G01X9603Y16056D01*
G01X9606Y16059D01*
G01X9608Y16062D01*
G01X9611Y16065D01*
G01X9613Y16069D01*
G01X9615Y16072D01*
G01X9617Y16076D01*
G01X9619Y16080D01*
G01X9621Y16083D01*
G01X9623Y16087D01*
G01X9624Y16091D01*
G01X9625Y16095D01*
G01X9626Y16099D01*
G01X9627Y16103D01*
G01X9628Y16107D01*
G01X9629Y16111D01*
G01X9629Y16115D01*
G01X9629Y16119D01*
G01X9630Y16124D01*
G01X9630Y16784D01*
G01X9629Y16788D01*
G01X9629Y16792D01*
G01X9629Y16796D01*
G01X9628Y16800D01*
G01X9627Y16804D01*
G01X9626Y16808D01*
G01X9625Y16812D01*
G01X9624Y16816D01*
G01X9623Y16820D01*
G01X9621Y16824D01*
G01X9619Y16827D01*
G01X9617Y16831D01*
G01X9615Y16835D01*
G01X9613Y16838D01*
G01X9611Y16842D01*
G01X9609Y16844D01*
G01X9611Y16845D01*
G01X9613Y16849D01*
G01X9615Y16852D01*
G01X9617Y16856D01*
G01X9619Y16860D01*
G01X9621Y16863D01*
G01X9623Y16867D01*
G01X9624Y16871D01*
G01X9625Y16875D01*
G01X9626Y16879D01*
G01X9627Y16883D01*
G01X9628Y16887D01*
G01X9629Y16891D01*
G01X9629Y16895D01*
G01X9629Y16899D01*
G01X9630Y16903D01*
G01X9630Y17069D01*
G01X9365Y17069D01*
G01X9365Y16884D01*
G01X9034Y16884D01*
G01X9034Y17069D01*
G01X8769Y17069D01*
G01X8769Y16903D01*
G01X8770Y16899D01*
G01X8770Y16895D01*
G01X8770Y16891D01*
G01X8771Y16887D01*
G01X8772Y16883D01*
G01X8773Y16879D01*
G01X8774Y16875D01*
G01X8775Y16871D01*
G01X8776Y16867D01*
G01X8778Y16863D01*
G01X8780Y16860D01*
G01X8782Y16856D01*
G01X8784Y16852D01*
G01X8786Y16849D01*
G01X8788Y16845D01*
G01X8790Y16844D01*
G01X8788Y16842D01*
G01X8786Y16838D01*
G01X8784Y16835D01*
G01X8782Y16831D01*
G01X8780Y16827D01*
G01X8778Y16824D01*
G01X8776Y16820D01*
G01X8775Y16816D01*
G01X8774Y16812D01*
G01X8773Y16808D01*
G01X8772Y16804D01*
G01X8771Y16800D01*
G01X8770Y16796D01*
G01X8770Y16792D01*
G01X8770Y16788D01*
G01X8769Y16784D01*
G01X8769Y16694D01*
G01X8709Y16694D01*
G01X8703Y16693D01*
G01X8697Y16693D01*
G01X8690Y16693D01*
G01X8684Y16692D01*
G01X8677Y16691D01*
G01X8671Y16690D01*
G01X8664Y16689D01*
G01X8658Y16688D01*
G01X8652Y16686D01*
G01X8645Y16685D01*
G01X8639Y16683D01*
G01X8633Y16681D01*
G01X8627Y16679D01*
G01X8621Y16676D01*
G01X8615Y16674D01*
G01X8609Y16671D01*
G01X8603Y16669D01*
G01X8597Y16666D01*
G01X8591Y16662D01*
G01X8586Y16659D01*
G01X8580Y16656D01*
G01X8575Y16652D01*
G01X8569Y16648D01*
G01X8564Y16645D01*
G01X8559Y16641D01*
G01X8554Y16636D01*
G01X8549Y16632D01*
G01X8544Y16628D01*
G01X8540Y16623D01*
G01X8130Y16213D01*
G01X8125Y16209D01*
G01X8121Y16204D01*
G01X8117Y16199D01*
G01X8112Y16194D01*
G01X8108Y16189D01*
G01X8105Y16184D01*
G01X8101Y16178D01*
G01X8097Y16173D01*
G01X8094Y16167D01*
G01X8091Y16162D01*
G01X8087Y16156D01*
G01X8084Y16150D01*
G01X8082Y16144D01*
G01X8079Y16138D01*
G01X8077Y16132D01*
G01X8074Y16126D01*
G01X8072Y16120D01*
G01X8070Y16114D01*
G01X8068Y16108D01*
G01X8067Y16101D01*
G01X8065Y16095D01*
G01X8064Y16089D01*
G01X8063Y16082D01*
G01X8062Y16076D01*
G01X8061Y16069D01*
G01X8060Y16063D01*
G01X8060Y16056D01*
G01X8060Y16050D01*
G01X8059Y16044D01*
G01X8059Y12394D01*
G01X8060Y12387D01*
G01X8060Y12381D01*
G01X8060Y12374D01*
G01X8061Y12368D01*
G01X8062Y12361D01*
G01X8063Y12355D01*
G01X8064Y12348D01*
G01X8065Y12342D01*
G01X8067Y12336D01*
G01X8068Y12329D01*
G01X8070Y12323D01*
G01X8072Y12317D01*
G01X8074Y12311D01*
G01X8077Y12305D01*
G01X8079Y12299D01*
G01X8082Y12293D01*
G01X8084Y12287D01*
G01X8087Y12281D01*
G01X8091Y12275D01*
G01X8094Y12270D01*
G01X8097Y12264D01*
G01X8101Y12259D01*
G01X8105Y12253D01*
G01X8108Y12248D01*
G01X8112Y12243D01*
G01X8117Y12238D01*
G01X8121Y12233D01*
G01X8125Y12228D01*
G01X8130Y12224D01*
G01X8280Y12074D01*
G01X8284Y12069D01*
G01X8289Y12065D01*
G01X8294Y12061D01*
G01X8299Y12056D01*
G01X8304Y12052D01*
G01X8309Y12049D01*
G01X8315Y12045D01*
G01X8320Y12041D01*
G01X8326Y12038D01*
G01X8331Y12035D01*
G01X8337Y12031D01*
G01X8343Y12028D01*
G01X8349Y12026D01*
G01X8355Y12023D01*
G01X8361Y12021D01*
G01X8367Y12018D01*
G01X8373Y12016D01*
G01X8379Y12014D01*
G01X8385Y12012D01*
G01X8392Y12011D01*
G01X8398Y12009D01*
G01X8404Y12008D01*
G01X8411Y12007D01*
G01X8417Y12006D01*
G01X8424Y12005D01*
G01X8430Y12004D01*
G01X8437Y12004D01*
G01X8443Y12004D01*
G01X8450Y12003D01*
G01X8950Y12003D01*
G01X9059Y11894D01*
G01X9059Y11861D01*
G01X9036Y11887D01*
G01X9005Y11914D01*
G01X8972Y11938D01*
G01X8937Y11958D01*
G01X8899Y11975D01*
G01X8861Y11988D01*
G01X8821Y11997D01*
G01X8780Y12002D01*
G01X8739Y12003D01*
G01X8699Y12000D01*
G01X8658Y11993D01*
G01X8619Y11982D01*
G01X8581Y11967D01*
G01X8544Y11949D01*
G01X8510Y11926D01*
G01X8478Y11901D01*
G01X8449Y11872D01*
G01X8423Y11841D01*
G01X8400Y11807D01*
G01X8380Y11771D01*
G01X8364Y11734D01*
G01X8352Y11695D01*
G01X8344Y11655D01*
G01X8340Y11614D01*
G01X8340Y11573D01*
G01X8344Y11532D01*
G01X8352Y11492D01*
G01X8364Y11453D01*
G01X8380Y11416D01*
G01X8400Y11380D01*
G01X8423Y11346D01*
G01X8449Y11315D01*
G01X8478Y11286D01*
G01X8510Y11261D01*
G01X8544Y11238D01*
G01X8581Y11220D01*
G01X8619Y11205D01*
G01X8658Y11194D01*
G01X8699Y11187D01*
G01X8739Y11184D01*
G01X8780Y11185D01*
G01X8821Y11190D01*
G01X8861Y11199D01*
G01X8899Y11212D01*
G01X8937Y11229D01*
G01X8972Y11249D01*
G01X9005Y11273D01*
G01X9036Y11300D01*
G01X9059Y11326D01*
G01X9059Y11003D01*
G01X8905Y11003D01*
G01X8905Y10749D01*
G01X9059Y10749D01*
G01X9059Y10438D01*
G01X8905Y10438D01*
G01X8905Y10184D01*
G01X8950Y10184D01*
G01X7430Y8663D01*
G01X7422Y8655D01*
G01X7414Y8645D01*
G01X7406Y8636D01*
G01X7400Y8626D01*
G01X7393Y8616D01*
G01X7387Y8606D01*
G01X7382Y8595D01*
G01X7381Y8594D01*
G01X6412Y7625D01*
G01X6408Y7620D01*
G01X6404Y7615D01*
G01X6400Y7611D01*
G01X6396Y7606D01*
G01X6392Y7601D01*
G01X6388Y7596D01*
G01X6384Y7590D01*
G01X6381Y7585D01*
G01X6378Y7580D01*
G01X6375Y7574D01*
G01X6372Y7569D01*
G01X6369Y7563D01*
G01X6366Y7557D01*
G01X6364Y7552D01*
G01X6361Y7546D01*
G01X6359Y7540D01*
G01X6357Y7534D01*
G01X6355Y7528D01*
G01X6354Y7522D01*
G01X6352Y7516D01*
G01X6351Y7509D01*
G01X6350Y7503D01*
G01X6349Y7497D01*
G01X6348Y7491D01*
G01X6347Y7484D01*
G01X6347Y7478D01*
G01X6347Y7472D01*
G01X6346Y7465D01*
G01X6346Y7115D01*
G01X6335Y7101D01*
G01X6318Y7076D01*
G01X6304Y7050D01*
G01X6293Y7023D01*
G01X6284Y6995D01*
G01X6278Y6966D01*
G01X6275Y6936D01*
G01X6275Y6907D01*
G01X6278Y6877D01*
G01X6284Y6848D01*
G01X6293Y6820D01*
G01X6304Y6793D01*
G01X6318Y6767D01*
G01X6335Y6742D01*
G01X6354Y6720D01*
G01X6375Y6699D01*
G01X6398Y6680D01*
G01X6423Y6664D01*
G01X6449Y6651D01*
G01X6477Y6640D01*
G01X6505Y6632D01*
G01X6535Y6627D01*
G01X6564Y6625D01*
G01X6594Y6625D01*
G01X6623Y6629D01*
G01X6639Y6633D01*
G01X6634Y6610D01*
G01X6631Y6580D01*
G01X6631Y6551D01*
G01X6634Y6521D01*
G01X6640Y6492D01*
G01X6649Y6464D01*
G01X6660Y6437D01*
G01X6674Y6411D01*
G01X6691Y6386D01*
G01X6710Y6364D01*
G01X6731Y6343D01*
G01X6754Y6324D01*
G01X6779Y6308D01*
G01X6805Y6295D01*
G01X6833Y6284D01*
G01X6861Y6276D01*
G01X6891Y6271D01*
G01X6920Y6269D01*
G37*
G36*
G01X21414Y6469D02*
G01X21444Y6469D01*
G01X21473Y6473D01*
G01X21502Y6480D01*
G01X21530Y6489D01*
G01X21557Y6501D01*
G01X21583Y6516D01*
G01X21607Y6533D01*
G01X21629Y6553D01*
G01X21649Y6575D01*
G01X21667Y6598D01*
G01X21682Y6624D01*
G01X21695Y6650D01*
G01X21705Y6678D01*
G01X21712Y6707D01*
G01X21717Y6736D01*
G01X21718Y6765D01*
G01X21717Y6795D01*
G01X21712Y6824D01*
G01X21710Y6832D01*
G01X21711Y6832D01*
G01X21741Y6827D01*
G01X21770Y6825D01*
G01X21800Y6825D01*
G01X21829Y6829D01*
G01X21858Y6836D01*
G01X21886Y6845D01*
G01X21913Y6857D01*
G01X21939Y6872D01*
G01X21963Y6889D01*
G01X21985Y6909D01*
G01X22005Y6931D01*
G01X22023Y6954D01*
G01X22038Y6980D01*
G01X22051Y7006D01*
G01X22061Y7034D01*
G01X22068Y7063D01*
G01X22073Y7092D01*
G01X22074Y7122D01*
G01X22073Y7151D01*
G01X22068Y7180D01*
G01X22061Y7209D01*
G01X22051Y7237D01*
G01X22038Y7263D01*
G01X22023Y7289D01*
G01X22005Y7312D01*
G01X21985Y7334D01*
G01X21963Y7354D01*
G01X21939Y7371D01*
G01X21913Y7386D01*
G01X21886Y7398D01*
G01X21858Y7407D01*
G01X21829Y7414D01*
G01X21800Y7418D01*
G01X21770Y7418D01*
G01X21741Y7416D01*
G01X21711Y7411D01*
G01X21683Y7403D01*
G01X21655Y7392D01*
G01X21629Y7379D01*
G01X21604Y7363D01*
G01X21581Y7344D01*
G01X21560Y7323D01*
G01X21541Y7301D01*
G01X21524Y7276D01*
G01X21510Y7250D01*
G01X21499Y7223D01*
G01X21490Y7195D01*
G01X21484Y7166D01*
G01X21481Y7136D01*
G01X21481Y7107D01*
G01X21484Y7077D01*
G01X21489Y7054D01*
G01X21473Y7058D01*
G01X21444Y7062D01*
G01X21414Y7062D01*
G01X21385Y7060D01*
G01X21355Y7055D01*
G01X21327Y7047D01*
G01X21299Y7036D01*
G01X21273Y7023D01*
G01X21248Y7007D01*
G01X21225Y6988D01*
G01X21204Y6967D01*
G01X21185Y6945D01*
G01X21168Y6920D01*
G01X21154Y6894D01*
G01X21143Y6867D01*
G01X21134Y6839D01*
G01X21128Y6810D01*
G01X21125Y6780D01*
G01X21125Y6751D01*
G01X21128Y6721D01*
G01X21134Y6692D01*
G01X21143Y6664D01*
G01X21154Y6637D01*
G01X21168Y6611D01*
G01X21185Y6586D01*
G01X21204Y6564D01*
G01X21225Y6543D01*
G01X21248Y6524D01*
G01X21273Y6508D01*
G01X21299Y6495D01*
G01X21327Y6484D01*
G01X21355Y6476D01*
G01X21385Y6471D01*
G01X21414Y6469D01*
G37*
G36*
G01X27587Y27208D02*
G01X27637Y27209D01*
G01X27686Y27215D01*
G01X27735Y27226D01*
G01X27782Y27242D01*
G01X27828Y27263D01*
G01X27871Y27287D01*
G01X27911Y27317D01*
G01X27949Y27350D01*
G01X27983Y27386D01*
G01X28013Y27426D01*
G01X28039Y27468D01*
G01X28060Y27513D01*
G01X28077Y27560D01*
G01X28090Y27608D01*
G01X28097Y27658D01*
G01X28100Y27707D01*
G01X28097Y27757D01*
G01X28090Y27807D01*
G01X28077Y27855D01*
G01X28060Y27902D01*
G01X28039Y27947D01*
G01X28013Y27989D01*
G01X27983Y28029D01*
G01X27949Y28065D01*
G01X27911Y28098D01*
G01X27871Y28128D01*
G01X27828Y28152D01*
G01X27782Y28173D01*
G01X27735Y28189D01*
G01X27686Y28200D01*
G01X27637Y28206D01*
G01X27587Y28207D01*
G01X27537Y28204D01*
G01X27488Y28195D01*
G01X27440Y28181D01*
G01X27394Y28163D01*
G01X27350Y28141D01*
G01X27308Y28113D01*
G01X27269Y28082D01*
G01X27233Y28048D01*
G01X27201Y28009D01*
G01X27173Y27968D01*
G01X27149Y27924D01*
G01X27130Y27879D01*
G01X27115Y27831D01*
G01X27105Y27782D01*
G01X27100Y27732D01*
G01X27100Y27683D01*
G01X27105Y27633D01*
G01X27115Y27584D01*
G01X27130Y27536D01*
G01X27149Y27491D01*
G01X27173Y27447D01*
G01X27201Y27406D01*
G01X27233Y27367D01*
G01X27269Y27333D01*
G01X27308Y27302D01*
G01X27350Y27274D01*
G01X27394Y27252D01*
G01X27440Y27234D01*
G01X27488Y27220D01*
G01X27537Y27211D01*
G01X27587Y27208D01*
G37*
G36*
G01X2562Y24438D02*
G01X2712Y24442D01*
G01X2860Y24460D01*
G01X3006Y24494D01*
G01X3148Y24541D01*
G01X3284Y24603D01*
G01X3413Y24677D01*
G01X3535Y24765D01*
G01X3647Y24864D01*
G01X3749Y24973D01*
G01X3839Y25093D01*
G01X3917Y25220D01*
G01X3982Y25355D01*
G01X4033Y25495D01*
G01X4070Y25640D01*
G01X4092Y25788D01*
G01X4100Y25938D01*
G01X4092Y26087D01*
G01X4070Y26235D01*
G01X4033Y26380D01*
G01X3982Y26520D01*
G01X3917Y26655D01*
G01X3839Y26782D01*
G01X3749Y26902D01*
G01X3647Y27011D01*
G01X3535Y27110D01*
G01X3413Y27198D01*
G01X3284Y27272D01*
G01X3148Y27334D01*
G01X3006Y27381D01*
G01X2860Y27415D01*
G01X2712Y27433D01*
G01X2562Y27437D01*
G01X2413Y27426D01*
G01X2266Y27400D01*
G01X2122Y27359D01*
G01X1983Y27305D01*
G01X1850Y27237D01*
G01X1724Y27155D01*
G01X1607Y27062D01*
G01X1500Y26958D01*
G01X1404Y26843D01*
G01X1320Y26720D01*
G01X1248Y26588D01*
G01X1190Y26451D01*
G01X1146Y26308D01*
G01X1116Y26161D01*
G01X1101Y26012D01*
G01X1101Y25863D01*
G01X1116Y25714D01*
G01X1146Y25567D01*
G01X1190Y25424D01*
G01X1248Y25287D01*
G01X1320Y25155D01*
G01X1404Y25032D01*
G01X1500Y24917D01*
G01X1607Y24813D01*
G01X1724Y24720D01*
G01X1850Y24638D01*
G01X1983Y24570D01*
G01X2122Y24516D01*
G01X2266Y24475D01*
G01X2413Y24449D01*
G01X2562Y24438D01*
G37*
G36*
G01X25762Y24408D02*
G01X25912Y24412D01*
G01X26060Y24430D01*
G01X26206Y24464D01*
G01X26348Y24511D01*
G01X26484Y24573D01*
G01X26613Y24647D01*
G01X26735Y24735D01*
G01X26847Y24834D01*
G01X26949Y24943D01*
G01X27039Y25063D01*
G01X27117Y25190D01*
G01X27182Y25325D01*
G01X27233Y25465D01*
G01X27270Y25610D01*
G01X27292Y25758D01*
G01X27300Y25907D01*
G01X27292Y26057D01*
G01X27270Y26205D01*
G01X27233Y26350D01*
G01X27182Y26490D01*
G01X27117Y26625D01*
G01X27039Y26752D01*
G01X26949Y26872D01*
G01X26847Y26981D01*
G01X26735Y27080D01*
G01X26613Y27168D01*
G01X26484Y27242D01*
G01X26348Y27304D01*
G01X26206Y27351D01*
G01X26060Y27385D01*
G01X25912Y27403D01*
G01X25762Y27407D01*
G01X25613Y27396D01*
G01X25466Y27370D01*
G01X25322Y27329D01*
G01X25183Y27275D01*
G01X25050Y27207D01*
G01X24924Y27125D01*
G01X24807Y27032D01*
G01X24700Y26928D01*
G01X24604Y26813D01*
G01X24520Y26690D01*
G01X24448Y26558D01*
G01X24390Y26421D01*
G01X24346Y26278D01*
G01X24316Y26131D01*
G01X24301Y25982D01*
G01X24301Y25833D01*
G01X24316Y25684D01*
G01X24346Y25537D01*
G01X24390Y25394D01*
G01X24448Y25257D01*
G01X24520Y25125D01*
G01X24604Y25002D01*
G01X24700Y24887D01*
G01X24807Y24783D01*
G01X24924Y24690D01*
G01X25050Y24608D01*
G01X25183Y24540D01*
G01X25322Y24486D01*
G01X25466Y24445D01*
G01X25613Y24419D01*
G01X25762Y24408D01*
G37*
G36*
G01X22420Y22019D02*
G01X22450Y22019D01*
G01X22479Y22023D01*
G01X22508Y22030D01*
G01X22536Y22039D01*
G01X22563Y22051D01*
G01X22589Y22066D01*
G01X22613Y22083D01*
G01X22635Y22103D01*
G01X22655Y22125D01*
G01X22673Y22148D01*
G01X22688Y22174D01*
G01X22701Y22200D01*
G01X22711Y22228D01*
G01X22718Y22257D01*
G01X22723Y22286D01*
G01X22724Y22315D01*
G01X22723Y22345D01*
G01X22718Y22374D01*
G01X22711Y22403D01*
G01X22701Y22431D01*
G01X22688Y22457D01*
G01X22673Y22483D01*
G01X22655Y22506D01*
G01X22635Y22528D01*
G01X22613Y22548D01*
G01X22589Y22565D01*
G01X22563Y22580D01*
G01X22536Y22592D01*
G01X22508Y22601D01*
G01X22479Y22608D01*
G01X22450Y22612D01*
G01X22420Y22612D01*
G01X22391Y22610D01*
G01X22361Y22605D01*
G01X22360Y22605D01*
G01X22362Y22613D01*
G01X22367Y22642D01*
G01X22368Y22672D01*
G01X22367Y22701D01*
G01X22362Y22730D01*
G01X22355Y22759D01*
G01X22345Y22787D01*
G01X22332Y22813D01*
G01X22317Y22839D01*
G01X22299Y22862D01*
G01X22279Y22884D01*
G01X22257Y22904D01*
G01X22233Y22921D01*
G01X22207Y22936D01*
G01X22180Y22948D01*
G01X22152Y22957D01*
G01X22123Y22964D01*
G01X22094Y22968D01*
G01X22064Y22968D01*
G01X22035Y22966D01*
G01X22005Y22961D01*
G01X21977Y22953D01*
G01X21949Y22942D01*
G01X21923Y22929D01*
G01X21898Y22913D01*
G01X21875Y22894D01*
G01X21854Y22873D01*
G01X21835Y22851D01*
G01X21818Y22826D01*
G01X21804Y22800D01*
G01X21793Y22773D01*
G01X21784Y22745D01*
G01X21778Y22716D01*
G01X21775Y22686D01*
G01X21775Y22657D01*
G01X21778Y22627D01*
G01X21784Y22598D01*
G01X21793Y22570D01*
G01X21804Y22543D01*
G01X21818Y22517D01*
G01X21835Y22492D01*
G01X21854Y22470D01*
G01X21875Y22449D01*
G01X21898Y22430D01*
G01X21923Y22414D01*
G01X21949Y22401D01*
G01X21977Y22390D01*
G01X22005Y22382D01*
G01X22035Y22377D01*
G01X22064Y22375D01*
G01X22094Y22375D01*
G01X22123Y22379D01*
G01X22139Y22383D01*
G01X22134Y22360D01*
G01X22131Y22330D01*
G01X22131Y22301D01*
G01X22134Y22271D01*
G01X22140Y22242D01*
G01X22149Y22214D01*
G01X22160Y22187D01*
G01X22174Y22161D01*
G01X22191Y22136D01*
G01X22210Y22114D01*
G01X22231Y22093D01*
G01X22254Y22074D01*
G01X22279Y22058D01*
G01X22305Y22045D01*
G01X22333Y22034D01*
G01X22361Y22026D01*
G01X22391Y22021D01*
G01X22420Y22019D01*
G37*
G36*
G01X9224Y8132D02*
G01X9246Y8132D01*
G01X9268Y8135D01*
G01X9290Y8140D01*
G01X9311Y8147D01*
G01X9331Y8156D01*
G01X9350Y8167D01*
G01X9368Y8180D01*
G01X9385Y8195D01*
G01X9400Y8211D01*
G01X9413Y8228D01*
G01X9424Y8247D01*
G01X9434Y8267D01*
G01X9442Y8288D01*
G01X9447Y8310D01*
G01X9448Y8318D01*
G01X9794Y8663D01*
G01X12350Y8663D01*
G01X12355Y8664D01*
G01X12361Y8664D01*
G01X12366Y8664D01*
G01X12372Y8665D01*
G01X12378Y8666D01*
G01X12383Y8667D01*
G01X12389Y8668D01*
G01X12394Y8669D01*
G01X12400Y8671D01*
G01X12405Y8672D01*
G01X12410Y8674D01*
G01X12416Y8676D01*
G01X12421Y8678D01*
G01X12426Y8681D01*
G01X12431Y8683D01*
G01X12436Y8686D01*
G01X12441Y8689D01*
G01X12446Y8692D01*
G01X12451Y8695D01*
G01X12455Y8698D01*
G01X12460Y8701D01*
G01X12464Y8705D01*
G01X12469Y8708D01*
G01X12473Y8712D01*
G01X12477Y8716D01*
G01X12674Y8913D01*
G01X14163Y8913D01*
G01X14160Y8909D01*
G01X14149Y8890D01*
G01X14141Y8869D01*
G01X14134Y8848D01*
G01X14130Y8827D01*
G01X14128Y8805D01*
G01X14128Y8782D01*
G01X14130Y8760D01*
G01X14134Y8739D01*
G01X14141Y8718D01*
G01X14149Y8697D01*
G01X14160Y8678D01*
G01X14173Y8659D01*
G01X14187Y8642D01*
G01X14203Y8627D01*
G01X14220Y8613D01*
G01X14239Y8601D01*
G01X14258Y8591D01*
G01X14279Y8583D01*
G01X14300Y8577D01*
G01X14322Y8573D01*
G01X14344Y8572D01*
G01X14366Y8572D01*
G01X14388Y8575D01*
G01X14410Y8580D01*
G01X14431Y8587D01*
G01X14451Y8596D01*
G01X14470Y8607D01*
G01X14479Y8613D01*
G01X15600Y8613D01*
G01X15605Y8614D01*
G01X15611Y8614D01*
G01X15616Y8614D01*
G01X15622Y8615D01*
G01X15628Y8616D01*
G01X15633Y8617D01*
G01X15639Y8618D01*
G01X15644Y8619D01*
G01X15650Y8621D01*
G01X15655Y8622D01*
G01X15660Y8624D01*
G01X15666Y8626D01*
G01X15671Y8628D01*
G01X15676Y8631D01*
G01X15681Y8633D01*
G01X15686Y8636D01*
G01X15691Y8639D01*
G01X15696Y8642D01*
G01X15701Y8645D01*
G01X15705Y8648D01*
G01X15710Y8651D01*
G01X15714Y8655D01*
G01X15719Y8658D01*
G01X15723Y8662D01*
G01X15727Y8666D01*
G01X15987Y8926D01*
G01X15991Y8930D01*
G01X15995Y8934D01*
G01X15998Y8939D01*
G01X16002Y8943D01*
G01X16005Y8948D01*
G01X16008Y8952D01*
G01X16011Y8957D01*
G01X16014Y8962D01*
G01X16017Y8967D01*
G01X16020Y8972D01*
G01X16022Y8977D01*
G01X16025Y8982D01*
G01X16027Y8987D01*
G01X16029Y8993D01*
G01X16031Y8998D01*
G01X16032Y9003D01*
G01X16034Y9009D01*
G01X16035Y9014D01*
G01X16036Y9020D01*
G01X16037Y9025D01*
G01X16038Y9031D01*
G01X16039Y9037D01*
G01X16039Y9042D01*
G01X16039Y9048D01*
G01X16039Y9053D01*
G01X16039Y10274D01*
G01X16043Y10278D01*
G01X16054Y10297D01*
G01X16064Y10317D01*
G01X16072Y10338D01*
G01X16077Y10360D01*
G01X16078Y10368D01*
G01X16624Y10913D01*
G01X17370Y10913D01*
G01X17370Y10913D01*
G01X17389Y10901D01*
G01X17408Y10891D01*
G01X17429Y10883D01*
G01X17450Y10877D01*
G01X17472Y10873D01*
G01X17494Y10872D01*
G01X17516Y10872D01*
G01X17538Y10875D01*
G01X17560Y10880D01*
G01X17581Y10887D01*
G01X17601Y10896D01*
G01X17620Y10907D01*
G01X17638Y10920D01*
G01X17655Y10935D01*
G01X17670Y10951D01*
G01X17683Y10968D01*
G01X17694Y10987D01*
G01X17704Y11007D01*
G01X17712Y11028D01*
G01X17717Y11050D01*
G01X17720Y11071D01*
G01X17722Y11094D01*
G01X17720Y11116D01*
G01X17717Y11137D01*
G01X17712Y11159D01*
G01X17704Y11180D01*
G01X17694Y11200D01*
G01X17683Y11219D01*
G01X17672Y11234D01*
G01X18133Y11234D01*
G01X18239Y11127D01*
G01X18239Y10594D01*
G01X18240Y10588D01*
G01X18240Y10583D01*
G01X18240Y10577D01*
G01X18241Y10572D01*
G01X18242Y10566D01*
G01X18243Y10561D01*
G01X18244Y10556D01*
G01X18245Y10550D01*
G01X18247Y10545D01*
G01X18249Y10540D01*
G01X18251Y10535D01*
G01X18253Y10530D01*
G01X18255Y10525D01*
G01X18257Y10520D01*
G01X18260Y10515D01*
G01X18263Y10510D01*
G01X18266Y10506D01*
G01X18269Y10501D01*
G01X18272Y10497D01*
G01X18275Y10493D01*
G01X18279Y10488D01*
G01X18283Y10484D01*
G01X18286Y10480D01*
G01X18386Y10380D01*
G01X18390Y10377D01*
G01X18394Y10373D01*
G01X18399Y10369D01*
G01X18403Y10366D01*
G01X18407Y10363D01*
G01X18412Y10360D01*
G01X18416Y10357D01*
G01X18421Y10354D01*
G01X18426Y10351D01*
G01X18431Y10349D01*
G01X18436Y10347D01*
G01X18441Y10345D01*
G01X18446Y10343D01*
G01X18451Y10341D01*
G01X18456Y10339D01*
G01X18462Y10338D01*
G01X18467Y10337D01*
G01X18472Y10336D01*
G01X18478Y10335D01*
G01X18483Y10334D01*
G01X18489Y10334D01*
G01X18494Y10334D01*
G01X18500Y10334D01*
G01X19083Y10334D01*
G01X19089Y10327D01*
G01X19089Y9410D01*
G01X19083Y9403D01*
G01X18803Y9403D01*
G01X18788Y9417D01*
G01X18770Y9430D01*
G01X18751Y9441D01*
G01X18731Y9450D01*
G01X18710Y9457D01*
G01X18688Y9462D01*
G01X18666Y9465D01*
G01X18644Y9465D01*
G01X18622Y9464D01*
G01X18600Y9460D01*
G01X18579Y9454D01*
G01X18558Y9446D01*
G01X18539Y9436D01*
G01X18520Y9424D01*
G01X18503Y9410D01*
G01X18487Y9395D01*
G01X18473Y9378D01*
G01X18460Y9359D01*
G01X18449Y9340D01*
G01X18441Y9319D01*
G01X18434Y9298D01*
G01X18430Y9277D01*
G01X18428Y9255D01*
G01X18428Y9232D01*
G01X18430Y9210D01*
G01X18434Y9189D01*
G01X18441Y9168D01*
G01X18449Y9147D01*
G01X18460Y9128D01*
G01X18473Y9109D01*
G01X18487Y9092D01*
G01X18503Y9077D01*
G01X18520Y9063D01*
G01X18539Y9051D01*
G01X18558Y9041D01*
G01X18579Y9033D01*
G01X18600Y9027D01*
G01X18622Y9023D01*
G01X18644Y9022D01*
G01X18666Y9022D01*
G01X18688Y9025D01*
G01X18710Y9030D01*
G01X18731Y9037D01*
G01X18751Y9046D01*
G01X18770Y9057D01*
G01X18788Y9070D01*
G01X18803Y9084D01*
G01X19150Y9084D01*
G01X19155Y9084D01*
G01X19160Y9084D01*
G01X19166Y9084D01*
G01X19171Y9085D01*
G01X19177Y9086D01*
G01X19182Y9087D01*
G01X19187Y9088D01*
G01X19193Y9089D01*
G01X19198Y9091D01*
G01X19203Y9093D01*
G01X19208Y9095D01*
G01X19213Y9097D01*
G01X19218Y9099D01*
G01X19223Y9101D01*
G01X19228Y9104D01*
G01X19233Y9107D01*
G01X19237Y9110D01*
G01X19242Y9113D01*
G01X19246Y9116D01*
G01X19250Y9119D01*
G01X19255Y9123D01*
G01X19259Y9127D01*
G01X19263Y9130D01*
G01X19363Y9230D01*
G01X19366Y9234D01*
G01X19370Y9238D01*
G01X19374Y9243D01*
G01X19377Y9247D01*
G01X19380Y9251D01*
G01X19383Y9256D01*
G01X19386Y9260D01*
G01X19389Y9265D01*
G01X19392Y9270D01*
G01X19394Y9275D01*
G01X19396Y9280D01*
G01X19398Y9285D01*
G01X19400Y9290D01*
G01X19402Y9295D01*
G01X19404Y9300D01*
G01X19405Y9306D01*
G01X19406Y9311D01*
G01X19407Y9316D01*
G01X19408Y9322D01*
G01X19409Y9327D01*
G01X19409Y9333D01*
G01X19409Y9338D01*
G01X19410Y9344D01*
G01X19410Y10394D01*
G01X19409Y10399D01*
G01X19409Y10404D01*
G01X19409Y10410D01*
G01X19408Y10415D01*
G01X19407Y10421D01*
G01X19406Y10426D01*
G01X19405Y10431D01*
G01X19404Y10437D01*
G01X19402Y10442D01*
G01X19400Y10447D01*
G01X19398Y10452D01*
G01X19396Y10457D01*
G01X19394Y10462D01*
G01X19392Y10467D01*
G01X19389Y10472D01*
G01X19386Y10477D01*
G01X19383Y10481D01*
G01X19380Y10486D01*
G01X19377Y10490D01*
G01X19374Y10494D01*
G01X19370Y10499D01*
G01X19366Y10503D01*
G01X19363Y10507D01*
G01X19263Y10607D01*
G01X19259Y10610D01*
G01X19255Y10614D01*
G01X19250Y10618D01*
G01X19246Y10621D01*
G01X19242Y10624D01*
G01X19237Y10627D01*
G01X19233Y10630D01*
G01X19228Y10633D01*
G01X19223Y10636D01*
G01X19218Y10638D01*
G01X19213Y10640D01*
G01X19208Y10642D01*
G01X19203Y10644D01*
G01X19198Y10646D01*
G01X19193Y10648D01*
G01X19187Y10649D01*
G01X19182Y10650D01*
G01X19177Y10651D01*
G01X19171Y10652D01*
G01X19166Y10653D01*
G01X19160Y10653D01*
G01X19155Y10653D01*
G01X19150Y10653D01*
G01X18566Y10653D01*
G01X18560Y10660D01*
G01X18560Y11194D01*
G01X18559Y11199D01*
G01X18559Y11204D01*
G01X18559Y11210D01*
G01X18558Y11215D01*
G01X18557Y11221D01*
G01X18556Y11226D01*
G01X18555Y11231D01*
G01X18554Y11237D01*
G01X18552Y11242D01*
G01X18550Y11247D01*
G01X18548Y11252D01*
G01X18546Y11257D01*
G01X18544Y11262D01*
G01X18542Y11267D01*
G01X18539Y11272D01*
G01X18536Y11277D01*
G01X18533Y11281D01*
G01X18530Y11286D01*
G01X18527Y11290D01*
G01X18524Y11294D01*
G01X18520Y11299D01*
G01X18516Y11303D01*
G01X18513Y11307D01*
G01X18313Y11507D01*
G01X18309Y11510D01*
G01X18305Y11514D01*
G01X18300Y11518D01*
G01X18296Y11521D01*
G01X18292Y11524D01*
G01X18287Y11527D01*
G01X18283Y11530D01*
G01X18278Y11533D01*
G01X18273Y11536D01*
G01X18268Y11538D01*
G01X18263Y11540D01*
G01X18258Y11542D01*
G01X18253Y11544D01*
G01X18248Y11546D01*
G01X18243Y11548D01*
G01X18237Y11549D01*
G01X18232Y11550D01*
G01X18227Y11551D01*
G01X18221Y11552D01*
G01X18216Y11553D01*
G01X18210Y11553D01*
G01X18205Y11553D01*
G01X18200Y11553D01*
G01X16553Y11553D01*
G01X16538Y11567D01*
G01X16520Y11580D01*
G01X16501Y11591D01*
G01X16481Y11600D01*
G01X16460Y11607D01*
G01X16438Y11612D01*
G01X16416Y11615D01*
G01X16394Y11615D01*
G01X16372Y11614D01*
G01X16350Y11610D01*
G01X16329Y11604D01*
G01X16308Y11596D01*
G01X16289Y11586D01*
G01X16270Y11574D01*
G01X16253Y11560D01*
G01X16237Y11545D01*
G01X16223Y11528D01*
G01X16210Y11509D01*
G01X16199Y11490D01*
G01X16191Y11469D01*
G01X16184Y11448D01*
G01X16180Y11427D01*
G01X16178Y11405D01*
G01X16178Y11382D01*
G01X16180Y11360D01*
G01X16184Y11339D01*
G01X16191Y11318D01*
G01X16199Y11297D01*
G01X16210Y11278D01*
G01X16223Y11259D01*
G01X16237Y11242D01*
G01X16253Y11227D01*
G01X16270Y11213D01*
G01X16289Y11201D01*
G01X16308Y11191D01*
G01X16329Y11183D01*
G01X16350Y11177D01*
G01X16372Y11173D01*
G01X16374Y11173D01*
G01X15824Y10622D01*
G01X15810Y10620D01*
G01X15789Y10614D01*
G01X15768Y10606D01*
G01X15748Y10596D01*
G01X15730Y10584D01*
G01X15713Y10570D01*
G01X15697Y10555D01*
G01X15683Y10538D01*
G01X15680Y10533D01*
G01X15680Y11369D01*
G01X15977Y11666D01*
G01X15981Y11670D01*
G01X15985Y11674D01*
G01X15988Y11679D01*
G01X15992Y11683D01*
G01X15995Y11688D01*
G01X15998Y11692D01*
G01X16001Y11697D01*
G01X16004Y11702D01*
G01X16007Y11707D01*
G01X16010Y11712D01*
G01X16012Y11717D01*
G01X16015Y11722D01*
G01X16017Y11727D01*
G01X16019Y11733D01*
G01X16021Y11738D01*
G01X16022Y11743D01*
G01X16024Y11749D01*
G01X16025Y11754D01*
G01X16026Y11760D01*
G01X16027Y11765D01*
G01X16028Y11771D01*
G01X16029Y11777D01*
G01X16029Y11782D01*
G01X16029Y11788D01*
G01X16030Y11794D01*
G01X16030Y12119D01*
G01X16124Y12213D01*
G01X16950Y12213D01*
G01X16955Y12214D01*
G01X16961Y12214D01*
G01X16966Y12214D01*
G01X16972Y12215D01*
G01X16978Y12216D01*
G01X16983Y12217D01*
G01X16989Y12218D01*
G01X16994Y12219D01*
G01X17000Y12221D01*
G01X17005Y12222D01*
G01X17010Y12224D01*
G01X17016Y12226D01*
G01X17021Y12228D01*
G01X17026Y12231D01*
G01X17031Y12233D01*
G01X17036Y12236D01*
G01X17041Y12239D01*
G01X17046Y12242D01*
G01X17051Y12245D01*
G01X17055Y12248D01*
G01X17060Y12251D01*
G01X17064Y12255D01*
G01X17069Y12258D01*
G01X17073Y12262D01*
G01X17077Y12266D01*
G01X17235Y12424D01*
G01X17238Y12425D01*
G01X17260Y12430D01*
G01X17281Y12437D01*
G01X17301Y12446D01*
G01X17320Y12457D01*
G01X17338Y12470D01*
G01X17355Y12485D01*
G01X17370Y12501D01*
G01X17383Y12518D01*
G01X17394Y12537D01*
G01X17404Y12557D01*
G01X17412Y12578D01*
G01X17417Y12600D01*
G01X17420Y12621D01*
G01X17422Y12644D01*
G01X17420Y12666D01*
G01X17417Y12687D01*
G01X17412Y12709D01*
G01X17404Y12730D01*
G01X17394Y12750D01*
G01X17383Y12769D01*
G01X17370Y12786D01*
G01X17355Y12802D01*
G01X17338Y12817D01*
G01X17320Y12830D01*
G01X17301Y12841D01*
G01X17281Y12850D01*
G01X17260Y12857D01*
G01X17238Y12862D01*
G01X17216Y12865D01*
G01X17194Y12865D01*
G01X17172Y12864D01*
G01X17150Y12860D01*
G01X17129Y12854D01*
G01X17108Y12846D01*
G01X17089Y12836D01*
G01X17070Y12824D01*
G01X17053Y12810D01*
G01X17037Y12795D01*
G01X17023Y12778D01*
G01X17010Y12759D01*
G01X16999Y12740D01*
G01X16991Y12719D01*
G01X16984Y12698D01*
G01X16980Y12679D01*
G01X16875Y12574D01*
G01X16050Y12574D01*
G01X16044Y12573D01*
G01X16038Y12573D01*
G01X16033Y12573D01*
G01X16027Y12572D01*
G01X16021Y12571D01*
G01X16016Y12570D01*
G01X16010Y12569D01*
G01X16005Y12568D01*
G01X15999Y12566D01*
G01X15994Y12565D01*
G01X15989Y12563D01*
G01X15983Y12561D01*
G01X15978Y12559D01*
G01X15973Y12556D01*
G01X15968Y12554D01*
G01X15963Y12551D01*
G01X15958Y12548D01*
G01X15953Y12545D01*
G01X15948Y12542D01*
G01X15944Y12539D01*
G01X15939Y12536D01*
G01X15935Y12532D01*
G01X15930Y12529D01*
G01X15926Y12525D01*
G01X15922Y12521D01*
G01X15722Y12321D01*
G01X15718Y12317D01*
G01X15714Y12313D01*
G01X15711Y12308D01*
G01X15707Y12304D01*
G01X15704Y12299D01*
G01X15701Y12295D01*
G01X15698Y12290D01*
G01X15695Y12285D01*
G01X15692Y12280D01*
G01X15689Y12275D01*
G01X15687Y12270D01*
G01X15684Y12265D01*
G01X15682Y12260D01*
G01X15680Y12254D01*
G01X15678Y12249D01*
G01X15677Y12244D01*
G01X15675Y12238D01*
G01X15674Y12233D01*
G01X15673Y12227D01*
G01X15672Y12222D01*
G01X15671Y12216D01*
G01X15670Y12210D01*
G01X15670Y12205D01*
G01X15670Y12199D01*
G01X15669Y12194D01*
G01X15669Y11868D01*
G01X15372Y11571D01*
G01X15368Y11567D01*
G01X15364Y11563D01*
G01X15361Y11558D01*
G01X15357Y11554D01*
G01X15354Y11549D01*
G01X15351Y11545D01*
G01X15348Y11540D01*
G01X15345Y11535D01*
G01X15342Y11530D01*
G01X15339Y11525D01*
G01X15337Y11520D01*
G01X15334Y11515D01*
G01X15332Y11510D01*
G01X15330Y11504D01*
G01X15328Y11499D01*
G01X15327Y11494D01*
G01X15325Y11488D01*
G01X15324Y11483D01*
G01X15323Y11477D01*
G01X15322Y11472D01*
G01X15321Y11466D01*
G01X15320Y11460D01*
G01X15320Y11455D01*
G01X15320Y11449D01*
G01X15319Y11444D01*
G01X15319Y9274D01*
G01X12600Y9274D01*
G01X12594Y9273D01*
G01X12588Y9273D01*
G01X12583Y9273D01*
G01X12577Y9272D01*
G01X12571Y9271D01*
G01X12566Y9270D01*
G01X12560Y9269D01*
G01X12555Y9268D01*
G01X12549Y9266D01*
G01X12544Y9265D01*
G01X12539Y9263D01*
G01X12533Y9261D01*
G01X12528Y9259D01*
G01X12523Y9256D01*
G01X12518Y9254D01*
G01X12513Y9251D01*
G01X12508Y9248D01*
G01X12503Y9245D01*
G01X12498Y9242D01*
G01X12494Y9239D01*
G01X12489Y9236D01*
G01X12485Y9232D01*
G01X12480Y9229D01*
G01X12476Y9225D01*
G01X12472Y9221D01*
G01X12275Y9024D01*
G01X9719Y9024D01*
G01X9714Y9023D01*
G01X9708Y9023D01*
G01X9703Y9023D01*
G01X9697Y9022D01*
G01X9691Y9021D01*
G01X9686Y9020D01*
G01X9680Y9019D01*
G01X9675Y9018D01*
G01X9669Y9016D01*
G01X9664Y9015D01*
G01X9659Y9013D01*
G01X9653Y9011D01*
G01X9648Y9009D01*
G01X9643Y9006D01*
G01X9638Y9004D01*
G01X9633Y9001D01*
G01X9628Y8998D01*
G01X9623Y8995D01*
G01X9618Y8992D01*
G01X9614Y8989D01*
G01X9609Y8986D01*
G01X9605Y8982D01*
G01X9600Y8979D01*
G01X9596Y8975D01*
G01X9592Y8971D01*
G01X9194Y8572D01*
G01X9180Y8570D01*
G01X9159Y8564D01*
G01X9138Y8556D01*
G01X9119Y8546D01*
G01X9100Y8534D01*
G01X9083Y8520D01*
G01X9067Y8505D01*
G01X9053Y8488D01*
G01X9040Y8469D01*
G01X9029Y8450D01*
G01X9021Y8429D01*
G01X9014Y8408D01*
G01X9010Y8387D01*
G01X9008Y8365D01*
G01X9008Y8342D01*
G01X9010Y8320D01*
G01X9014Y8299D01*
G01X9021Y8278D01*
G01X9029Y8257D01*
G01X9040Y8238D01*
G01X9053Y8219D01*
G01X9067Y8203D01*
G01X9083Y8187D01*
G01X9100Y8173D01*
G01X9119Y8161D01*
G01X9138Y8151D01*
G01X9159Y8143D01*
G01X9180Y8137D01*
G01X9202Y8133D01*
G01X9224Y8132D01*
G37*
G36*
G01X5864Y21919D02*
G01X5894Y21919D01*
G01X5923Y21923D01*
G01X5952Y21930D01*
G01X5980Y21939D01*
G01X6007Y21951D01*
G01X6033Y21966D01*
G01X6057Y21983D01*
G01X6079Y22003D01*
G01X6099Y22025D01*
G01X6117Y22048D01*
G01X6132Y22074D01*
G01X6145Y22100D01*
G01X6155Y22128D01*
G01X6162Y22157D01*
G01X6167Y22186D01*
G01X6168Y22215D01*
G01X6167Y22245D01*
G01X6162Y22274D01*
G01X6160Y22282D01*
G01X6161Y22282D01*
G01X6191Y22277D01*
G01X6220Y22275D01*
G01X6250Y22275D01*
G01X6279Y22279D01*
G01X6308Y22286D01*
G01X6336Y22295D01*
G01X6363Y22307D01*
G01X6389Y22322D01*
G01X6413Y22339D01*
G01X6435Y22359D01*
G01X6455Y22381D01*
G01X6473Y22404D01*
G01X6488Y22430D01*
G01X6501Y22456D01*
G01X6511Y22484D01*
G01X6518Y22513D01*
G01X6523Y22542D01*
G01X6524Y22572D01*
G01X6523Y22601D01*
G01X6518Y22630D01*
G01X6511Y22659D01*
G01X6501Y22687D01*
G01X6488Y22713D01*
G01X6473Y22739D01*
G01X6455Y22762D01*
G01X6435Y22784D01*
G01X6413Y22804D01*
G01X6389Y22821D01*
G01X6363Y22836D01*
G01X6336Y22848D01*
G01X6308Y22857D01*
G01X6279Y22864D01*
G01X6250Y22868D01*
G01X6220Y22868D01*
G01X6191Y22866D01*
G01X6161Y22861D01*
G01X6133Y22853D01*
G01X6105Y22842D01*
G01X6079Y22829D01*
G01X6054Y22813D01*
G01X6031Y22794D01*
G01X6010Y22773D01*
G01X5991Y22751D01*
G01X5974Y22726D01*
G01X5960Y22700D01*
G01X5949Y22673D01*
G01X5940Y22645D01*
G01X5934Y22616D01*
G01X5931Y22586D01*
G01X5931Y22557D01*
G01X5934Y22527D01*
G01X5939Y22504D01*
G01X5923Y22508D01*
G01X5894Y22512D01*
G01X5864Y22512D01*
G01X5835Y22510D01*
G01X5805Y22505D01*
G01X5777Y22497D01*
G01X5749Y22486D01*
G01X5723Y22473D01*
G01X5698Y22457D01*
G01X5675Y22438D01*
G01X5654Y22417D01*
G01X5635Y22395D01*
G01X5618Y22370D01*
G01X5604Y22344D01*
G01X5593Y22317D01*
G01X5584Y22289D01*
G01X5578Y22260D01*
G01X5575Y22230D01*
G01X5575Y22201D01*
G01X5578Y22171D01*
G01X5584Y22142D01*
G01X5593Y22114D01*
G01X5604Y22087D01*
G01X5618Y22061D01*
G01X5635Y22036D01*
G01X5654Y22014D01*
G01X5675Y21993D01*
G01X5698Y21974D01*
G01X5723Y21958D01*
G01X5749Y21945D01*
G01X5777Y21934D01*
G01X5805Y21926D01*
G01X5835Y21921D01*
G01X5864Y21919D01*
G37*
G36*
G01X20244Y8972D02*
G01X20266Y8972D01*
G01X20288Y8975D01*
G01X20310Y8980D01*
G01X20331Y8987D01*
G01X20351Y8996D01*
G01X20370Y9007D01*
G01X20388Y9020D01*
G01X20405Y9035D01*
G01X20420Y9051D01*
G01X20433Y9068D01*
G01X20444Y9087D01*
G01X20454Y9107D01*
G01X20462Y9128D01*
G01X20467Y9150D01*
G01X20470Y9171D01*
G01X20472Y9194D01*
G01X20470Y9216D01*
G01X20467Y9237D01*
G01X20462Y9259D01*
G01X20454Y9280D01*
G01X20444Y9300D01*
G01X20433Y9319D01*
G01X20420Y9336D01*
G01X20410Y9347D01*
G01X20410Y9544D01*
G01X20409Y9549D01*
G01X20409Y9554D01*
G01X20409Y9560D01*
G01X20408Y9565D01*
G01X20407Y9571D01*
G01X20406Y9576D01*
G01X20405Y9581D01*
G01X20404Y9587D01*
G01X20402Y9592D01*
G01X20400Y9597D01*
G01X20398Y9602D01*
G01X20396Y9607D01*
G01X20394Y9612D01*
G01X20392Y9617D01*
G01X20389Y9622D01*
G01X20386Y9627D01*
G01X20383Y9631D01*
G01X20380Y9636D01*
G01X20377Y9640D01*
G01X20374Y9644D01*
G01X20370Y9649D01*
G01X20366Y9653D01*
G01X20363Y9657D01*
G01X20110Y9910D01*
G01X20110Y11494D01*
G01X20109Y11499D01*
G01X20109Y11504D01*
G01X20109Y11510D01*
G01X20108Y11515D01*
G01X20107Y11521D01*
G01X20106Y11526D01*
G01X20105Y11531D01*
G01X20104Y11537D01*
G01X20102Y11542D01*
G01X20100Y11547D01*
G01X20098Y11552D01*
G01X20096Y11557D01*
G01X20094Y11562D01*
G01X20092Y11567D01*
G01X20089Y11572D01*
G01X20086Y11577D01*
G01X20083Y11581D01*
G01X20080Y11586D01*
G01X20077Y11590D01*
G01X20074Y11594D01*
G01X20070Y11599D01*
G01X20066Y11603D01*
G01X20063Y11607D01*
G01X19813Y11857D01*
G01X19809Y11860D01*
G01X19805Y11864D01*
G01X19800Y11868D01*
G01X19796Y11871D01*
G01X19792Y11874D01*
G01X19787Y11877D01*
G01X19783Y11880D01*
G01X19778Y11883D01*
G01X19773Y11886D01*
G01X19768Y11888D01*
G01X19763Y11890D01*
G01X19758Y11892D01*
G01X19753Y11894D01*
G01X19748Y11896D01*
G01X19743Y11898D01*
G01X19737Y11899D01*
G01X19732Y11900D01*
G01X19727Y11901D01*
G01X19721Y11902D01*
G01X19716Y11903D01*
G01X19710Y11903D01*
G01X19705Y11903D01*
G01X19700Y11903D01*
G01X19116Y11903D01*
G01X19060Y11960D01*
G01X19060Y16294D01*
G01X19059Y16297D01*
G01X19059Y16299D01*
G01X19059Y16301D01*
G01X19059Y16301D01*
G01X19059Y16304D01*
G01X19059Y16307D01*
G01X19059Y16309D01*
G01X19059Y16309D01*
G01X19058Y16312D01*
G01X19058Y16315D01*
G01X19058Y16316D01*
G01X19058Y16317D01*
G01X19057Y16320D01*
G01X19057Y16323D01*
G01X19057Y16324D01*
G01X19056Y16325D01*
G01X19056Y16328D01*
G01X19055Y16331D01*
G01X19055Y16332D01*
G01X19055Y16333D01*
G01X19054Y16336D01*
G01X19053Y16339D01*
G01X19053Y16340D01*
G01X19052Y16341D01*
G01X19051Y16343D01*
G01X19051Y16346D01*
G01X19050Y16347D01*
G01X19050Y16348D01*
G01X19049Y16351D01*
G01X19048Y16354D01*
G01X19047Y16355D01*
G01X19047Y16356D01*
G01X19046Y16359D01*
G01X19045Y16361D01*
G01X19044Y16362D01*
G01X19044Y16363D01*
G01X19042Y16366D01*
G01X19041Y16368D01*
G01X19041Y16369D01*
G01X19040Y16370D01*
G01X19038Y16373D01*
G01X19037Y16375D01*
G01X19037Y16376D01*
G01X19036Y16377D01*
G01X19034Y16380D01*
G01X19033Y16382D01*
G01X19032Y16383D01*
G01X19032Y16384D01*
G01X19030Y16386D01*
G01X19028Y16389D01*
G01X19028Y16389D01*
G01X19027Y16390D01*
G01X19025Y16392D01*
G01X19023Y16395D01*
G01X19023Y16396D01*
G01X19022Y16396D01*
G01X19020Y16399D01*
G01X19018Y16401D01*
G01X19017Y16402D01*
G01X19017Y16402D01*
G01X19015Y16404D01*
G01X19013Y16407D01*
G01X18813Y16607D01*
G01X18809Y16610D01*
G01X18805Y16614D01*
G01X18800Y16618D01*
G01X18796Y16621D01*
G01X18792Y16624D01*
G01X18787Y16627D01*
G01X18783Y16630D01*
G01X18778Y16633D01*
G01X18773Y16636D01*
G01X18768Y16638D01*
G01X18763Y16640D01*
G01X18758Y16642D01*
G01X18753Y16644D01*
G01X18748Y16646D01*
G01X18743Y16648D01*
G01X18737Y16649D01*
G01X18732Y16650D01*
G01X18727Y16651D01*
G01X18721Y16652D01*
G01X18716Y16653D01*
G01X18710Y16653D01*
G01X18705Y16653D01*
G01X18700Y16653D01*
G01X18453Y16653D01*
G01X18438Y16667D01*
G01X18420Y16680D01*
G01X18401Y16691D01*
G01X18381Y16700D01*
G01X18360Y16707D01*
G01X18338Y16712D01*
G01X18316Y16715D01*
G01X18294Y16715D01*
G01X18272Y16714D01*
G01X18250Y16710D01*
G01X18229Y16704D01*
G01X18208Y16696D01*
G01X18189Y16686D01*
G01X18170Y16674D01*
G01X18153Y16660D01*
G01X18137Y16645D01*
G01X18125Y16630D01*
G01X18125Y18307D01*
G01X18133Y18318D01*
G01X18144Y18337D01*
G01X18154Y18357D01*
G01X18162Y18378D01*
G01X18167Y18400D01*
G01X18170Y18421D01*
G01X18172Y18444D01*
G01X18170Y18466D01*
G01X18167Y18487D01*
G01X18162Y18509D01*
G01X18154Y18530D01*
G01X18144Y18550D01*
G01X18133Y18569D01*
G01X18120Y18586D01*
G01X18105Y18602D01*
G01X18088Y18617D01*
G01X18070Y18630D01*
G01X18051Y18641D01*
G01X18031Y18650D01*
G01X18010Y18657D01*
G01X17988Y18662D01*
G01X17966Y18665D01*
G01X17944Y18665D01*
G01X17922Y18664D01*
G01X17900Y18660D01*
G01X17879Y18654D01*
G01X17858Y18646D01*
G01X17839Y18636D01*
G01X17820Y18624D01*
G01X17803Y18610D01*
G01X17787Y18595D01*
G01X17773Y18578D01*
G01X17760Y18559D01*
G01X17749Y18540D01*
G01X17741Y18519D01*
G01X17734Y18498D01*
G01X17730Y18477D01*
G01X17728Y18455D01*
G01X17728Y18432D01*
G01X17730Y18410D01*
G01X17734Y18389D01*
G01X17741Y18368D01*
G01X17749Y18347D01*
G01X17760Y18328D01*
G01X17773Y18309D01*
G01X17775Y18307D01*
G01X17775Y16544D01*
G01X17775Y16535D01*
G01X17775Y16526D01*
G01X17776Y16517D01*
G01X17778Y16509D01*
G01X17780Y16500D01*
G01X17782Y16492D01*
G01X17785Y16484D01*
G01X17788Y16476D01*
G01X17789Y16473D01*
G01X17789Y16460D01*
G01X17636Y16307D01*
G01X17633Y16303D01*
G01X17629Y16299D01*
G01X17625Y16294D01*
G01X17622Y16290D01*
G01X17619Y16286D01*
G01X17616Y16281D01*
G01X17613Y16277D01*
G01X17610Y16272D01*
G01X17607Y16267D01*
G01X17605Y16262D01*
G01X17603Y16257D01*
G01X17601Y16252D01*
G01X17599Y16247D01*
G01X17597Y16242D01*
G01X17595Y16237D01*
G01X17594Y16231D01*
G01X17593Y16226D01*
G01X17592Y16221D01*
G01X17591Y16215D01*
G01X17590Y16210D01*
G01X17590Y16204D01*
G01X17590Y16199D01*
G01X17589Y16194D01*
G01X17589Y15410D01*
G01X17400Y15220D01*
G01X17389Y15220D01*
G01X17367Y15219D01*
G01X17345Y15215D01*
G01X17324Y15209D01*
G01X17303Y15201D01*
G01X17284Y15191D01*
G01X17265Y15179D01*
G01X17248Y15165D01*
G01X17232Y15149D01*
G01X17218Y15132D01*
G01X17205Y15114D01*
G01X17195Y15095D01*
G01X17186Y15074D01*
G01X17179Y15053D01*
G01X17175Y15031D01*
G01X17173Y15009D01*
G01X17173Y14987D01*
G01X17175Y14965D01*
G01X17179Y14944D01*
G01X17186Y14922D01*
G01X17195Y14902D01*
G01X17205Y14883D01*
G01X17218Y14864D01*
G01X17232Y14847D01*
G01X17248Y14832D01*
G01X17265Y14818D01*
G01X17284Y14806D01*
G01X17303Y14796D01*
G01X17324Y14788D01*
G01X17345Y14782D01*
G01X17367Y14778D01*
G01X17389Y14776D01*
G01X17411Y14777D01*
G01X17433Y14780D01*
G01X17455Y14785D01*
G01X17476Y14792D01*
G01X17496Y14801D01*
G01X17515Y14812D01*
G01X17533Y14825D01*
G01X17550Y14839D01*
G01X17565Y14856D01*
G01X17578Y14873D01*
G01X17590Y14892D01*
G01X17599Y14912D01*
G01X17607Y14933D01*
G01X17612Y14954D01*
G01X17615Y14976D01*
G01X17616Y14984D01*
G01X17863Y15230D01*
G01X17866Y15234D01*
G01X17870Y15238D01*
G01X17874Y15243D01*
G01X17877Y15247D01*
G01X17880Y15251D01*
G01X17883Y15256D01*
G01X17886Y15260D01*
G01X17889Y15265D01*
G01X17892Y15270D01*
G01X17894Y15275D01*
G01X17896Y15280D01*
G01X17898Y15285D01*
G01X17900Y15290D01*
G01X17902Y15295D01*
G01X17904Y15300D01*
G01X17905Y15306D01*
G01X17906Y15311D01*
G01X17907Y15316D01*
G01X17908Y15322D01*
G01X17909Y15327D01*
G01X17909Y15333D01*
G01X17909Y15338D01*
G01X17910Y15344D01*
G01X17910Y16127D01*
G01X18063Y16280D01*
G01X18066Y16284D01*
G01X18070Y16288D01*
G01X18074Y16293D01*
G01X18077Y16297D01*
G01X18080Y16301D01*
G01X18083Y16306D01*
G01X18086Y16310D01*
G01X18089Y16315D01*
G01X18092Y16320D01*
G01X18094Y16325D01*
G01X18096Y16330D01*
G01X18098Y16335D01*
G01X18100Y16340D01*
G01X18102Y16345D01*
G01X18104Y16350D01*
G01X18105Y16356D01*
G01X18106Y16361D01*
G01X18107Y16366D01*
G01X18108Y16372D01*
G01X18109Y16377D01*
G01X18109Y16380D01*
G01X18110Y16378D01*
G01X18123Y16359D01*
G01X18137Y16342D01*
G01X18153Y16327D01*
G01X18170Y16313D01*
G01X18189Y16301D01*
G01X18208Y16291D01*
G01X18229Y16283D01*
G01X18250Y16277D01*
G01X18272Y16273D01*
G01X18294Y16272D01*
G01X18316Y16272D01*
G01X18338Y16275D01*
G01X18360Y16280D01*
G01X18381Y16287D01*
G01X18401Y16296D01*
G01X18420Y16307D01*
G01X18438Y16320D01*
G01X18453Y16334D01*
G01X18633Y16334D01*
G01X18739Y16227D01*
G01X18739Y12072D01*
G01X18634Y12178D01*
G01X18630Y12182D01*
G01X18625Y12186D01*
G01X18621Y12189D01*
G01X18617Y12193D01*
G01X18612Y12197D01*
G01X18607Y12200D01*
G01X18603Y12203D01*
G01X18598Y12206D01*
G01X18593Y12209D01*
G01X18588Y12212D01*
G01X18583Y12214D01*
G01X18577Y12217D01*
G01X18572Y12219D01*
G01X18567Y12221D01*
G01X18561Y12223D01*
G01X18556Y12225D01*
G01X18551Y12227D01*
G01X18545Y12228D01*
G01X18539Y12229D01*
G01X18534Y12230D01*
G01X18528Y12231D01*
G01X18522Y12232D01*
G01X18517Y12233D01*
G01X18511Y12233D01*
G01X18505Y12233D01*
G01X18500Y12234D01*
G01X18321Y12234D01*
G01X18308Y12241D01*
G01X18288Y12250D01*
G01X18267Y12257D01*
G01X18245Y12262D01*
G01X18223Y12265D01*
G01X18201Y12265D01*
G01X18179Y12264D01*
G01X18157Y12260D01*
G01X18136Y12254D01*
G01X18115Y12246D01*
G01X18096Y12236D01*
G01X18077Y12224D01*
G01X18060Y12210D01*
G01X18044Y12195D01*
G01X18030Y12178D01*
G01X18017Y12159D01*
G01X18006Y12140D01*
G01X17998Y12119D01*
G01X17991Y12098D01*
G01X17987Y12077D01*
G01X17985Y12055D01*
G01X17985Y12032D01*
G01X17987Y12010D01*
G01X17991Y11989D01*
G01X17998Y11968D01*
G01X18006Y11947D01*
G01X18017Y11928D01*
G01X18030Y11909D01*
G01X18044Y11892D01*
G01X18060Y11877D01*
G01X18077Y11863D01*
G01X18096Y11851D01*
G01X18115Y11841D01*
G01X18136Y11833D01*
G01X18157Y11827D01*
G01X18179Y11823D01*
G01X18201Y11822D01*
G01X18223Y11822D01*
G01X18245Y11825D01*
G01X18267Y11830D01*
G01X18288Y11837D01*
G01X18308Y11846D01*
G01X18321Y11853D01*
G01X18421Y11853D01*
G01X18460Y11815D01*
G01X18460Y11574D01*
G01X18460Y11568D01*
G01X18460Y11562D01*
G01X18460Y11556D01*
G01X18461Y11551D01*
G01X18462Y11545D01*
G01X18463Y11539D01*
G01X18464Y11534D01*
G01X18465Y11528D01*
G01X18466Y11522D01*
G01X18468Y11517D01*
G01X18470Y11512D01*
G01X18472Y11506D01*
G01X18474Y11501D01*
G01X18476Y11496D01*
G01X18479Y11490D01*
G01X18481Y11485D01*
G01X18484Y11480D01*
G01X18487Y11475D01*
G01X18490Y11470D01*
G01X18493Y11466D01*
G01X18496Y11461D01*
G01X18500Y11456D01*
G01X18504Y11452D01*
G01X18507Y11448D01*
G01X18511Y11443D01*
G01X18515Y11439D01*
G01X18665Y11289D01*
G01X18669Y11285D01*
G01X18674Y11281D01*
G01X18678Y11278D01*
G01X18682Y11274D01*
G01X18687Y11270D01*
G01X18692Y11267D01*
G01X18696Y11264D01*
G01X18701Y11261D01*
G01X18706Y11258D01*
G01X18711Y11255D01*
G01X18716Y11253D01*
G01X18722Y11250D01*
G01X18727Y11248D01*
G01X18732Y11246D01*
G01X18738Y11244D01*
G01X18743Y11242D01*
G01X18748Y11240D01*
G01X18754Y11239D01*
G01X18760Y11238D01*
G01X18765Y11237D01*
G01X18771Y11236D01*
G01X18777Y11235D01*
G01X18782Y11234D01*
G01X18788Y11234D01*
G01X18794Y11234D01*
G01X18800Y11234D01*
G01X19395Y11234D01*
G01X19410Y11220D01*
G01X19410Y10708D01*
G01X19399Y10690D01*
G01X19391Y10669D01*
G01X19384Y10648D01*
G01X19380Y10627D01*
G01X19378Y10605D01*
G01X19378Y10582D01*
G01X19380Y10560D01*
G01X19384Y10539D01*
G01X19391Y10518D01*
G01X19399Y10497D01*
G01X19410Y10478D01*
G01X19423Y10459D01*
G01X19437Y10442D01*
G01X19453Y10427D01*
G01X19470Y10413D01*
G01X19489Y10401D01*
G01X19508Y10391D01*
G01X19529Y10383D01*
G01X19550Y10377D01*
G01X19572Y10373D01*
G01X19594Y10372D01*
G01X19616Y10372D01*
G01X19638Y10375D01*
G01X19660Y10380D01*
G01X19681Y10387D01*
G01X19701Y10396D01*
G01X19720Y10407D01*
G01X19738Y10420D01*
G01X19755Y10435D01*
G01X19770Y10451D01*
G01X19783Y10468D01*
G01X19789Y10479D01*
G01X19789Y9844D01*
G01X19790Y9838D01*
G01X19790Y9833D01*
G01X19790Y9827D01*
G01X19791Y9822D01*
G01X19792Y9816D01*
G01X19793Y9811D01*
G01X19794Y9806D01*
G01X19795Y9800D01*
G01X19797Y9795D01*
G01X19799Y9790D01*
G01X19801Y9785D01*
G01X19803Y9780D01*
G01X19805Y9775D01*
G01X19807Y9770D01*
G01X19810Y9765D01*
G01X19813Y9760D01*
G01X19816Y9756D01*
G01X19819Y9751D01*
G01X19822Y9747D01*
G01X19825Y9743D01*
G01X19829Y9738D01*
G01X19833Y9734D01*
G01X19836Y9730D01*
G01X20089Y9477D01*
G01X20089Y9347D01*
G01X20087Y9345D01*
G01X20073Y9328D01*
G01X20060Y9309D01*
G01X20049Y9290D01*
G01X20041Y9269D01*
G01X20034Y9248D01*
G01X20030Y9227D01*
G01X20028Y9205D01*
G01X20028Y9182D01*
G01X20030Y9160D01*
G01X20034Y9139D01*
G01X20041Y9118D01*
G01X20049Y9097D01*
G01X20060Y9078D01*
G01X20073Y9059D01*
G01X20087Y9042D01*
G01X20103Y9027D01*
G01X20120Y9013D01*
G01X20139Y9001D01*
G01X20158Y8991D01*
G01X20179Y8983D01*
G01X20200Y8977D01*
G01X20222Y8973D01*
G01X20244Y8972D01*
G37*
G36*
G01X8874Y18962D02*
G01X8896Y18962D01*
G01X8918Y18965D01*
G01X8940Y18970D01*
G01X8961Y18977D01*
G01X8981Y18986D01*
G01X9000Y18997D01*
G01X9018Y19010D01*
G01X9035Y19025D01*
G01X9050Y19041D01*
G01X9063Y19058D01*
G01X9074Y19077D01*
G01X9084Y19097D01*
G01X9092Y19118D01*
G01X9097Y19140D01*
G01X9100Y19161D01*
G01X9101Y19184D01*
G01X9100Y19206D01*
G01X9097Y19227D01*
G01X9092Y19249D01*
G01X9084Y19270D01*
G01X9074Y19290D01*
G01X9063Y19309D01*
G01X9050Y19326D01*
G01X9035Y19342D01*
G01X9018Y19357D01*
G01X9000Y19370D01*
G01X8981Y19381D01*
G01X8961Y19390D01*
G01X8940Y19397D01*
G01X8933Y19399D01*
G01X8500Y19832D01*
G01X8500Y19889D01*
G01X8504Y19897D01*
G01X8514Y19917D01*
G01X8522Y19938D01*
G01X8527Y19960D01*
G01X8530Y19981D01*
G01X8532Y20003D01*
G01X8530Y20026D01*
G01X8527Y20047D01*
G01X8522Y20069D01*
G01X8514Y20090D01*
G01X8504Y20110D01*
G01X8493Y20129D01*
G01X8480Y20146D01*
G01X8465Y20162D01*
G01X8448Y20177D01*
G01X8430Y20190D01*
G01X8411Y20201D01*
G01X8391Y20210D01*
G01X8370Y20217D01*
G01X8348Y20222D01*
G01X8326Y20225D01*
G01X8304Y20225D01*
G01X8282Y20224D01*
G01X8260Y20220D01*
G01X8239Y20214D01*
G01X8218Y20206D01*
G01X8198Y20196D01*
G01X8180Y20184D01*
G01X8163Y20170D01*
G01X8147Y20155D01*
G01X8133Y20138D01*
G01X8120Y20119D01*
G01X8109Y20100D01*
G01X8101Y20079D01*
G01X8094Y20058D01*
G01X8090Y20037D01*
G01X8088Y20015D01*
G01X8088Y19992D01*
G01X8090Y19970D01*
G01X8094Y19949D01*
G01X8101Y19928D01*
G01X8109Y19907D01*
G01X8119Y19889D01*
G01X8119Y19753D01*
G01X8120Y19748D01*
G01X8120Y19742D01*
G01X8120Y19736D01*
G01X8121Y19731D01*
G01X8122Y19725D01*
G01X8123Y19719D01*
G01X8124Y19714D01*
G01X8125Y19708D01*
G01X8126Y19702D01*
G01X8128Y19697D01*
G01X8130Y19692D01*
G01X8132Y19686D01*
G01X8134Y19681D01*
G01X8136Y19676D01*
G01X8139Y19670D01*
G01X8141Y19665D01*
G01X8144Y19660D01*
G01X8147Y19655D01*
G01X8150Y19650D01*
G01X8153Y19646D01*
G01X8156Y19641D01*
G01X8160Y19636D01*
G01X8164Y19632D01*
G01X8167Y19628D01*
G01X8171Y19623D01*
G01X8175Y19619D01*
G01X8664Y19130D01*
G01X8664Y19129D01*
G01X8671Y19108D01*
G01X8679Y19087D01*
G01X8690Y19068D01*
G01X8703Y19049D01*
G01X8717Y19032D01*
G01X8733Y19017D01*
G01X8750Y19003D01*
G01X8769Y18991D01*
G01X8788Y18981D01*
G01X8809Y18973D01*
G01X8830Y18967D01*
G01X8852Y18963D01*
G01X8874Y18962D01*
G37*
G36*
G01X11048Y18250D02*
G01X11067Y18251D01*
G01X11087Y18253D01*
G01X11106Y18257D01*
G01X11125Y18264D01*
G01X11143Y18272D01*
G01X11160Y18282D01*
G01X11176Y18293D01*
G01X11191Y18306D01*
G01X11205Y18321D01*
G01X11217Y18337D01*
G01X11227Y18354D01*
G01X11235Y18371D01*
G01X11242Y18390D01*
G01X11247Y18409D01*
G01X11250Y18426D01*
G01X11250Y18419D01*
G01X11254Y18400D01*
G01X11260Y18381D01*
G01X11268Y18362D01*
G01X11277Y18345D01*
G01X11288Y18329D01*
G01X11301Y18313D01*
G01X11315Y18300D01*
G01X11331Y18287D01*
G01X11347Y18277D01*
G01X11365Y18268D01*
G01X11383Y18260D01*
G01X11402Y18255D01*
G01X11422Y18252D01*
G01X11442Y18250D01*
G01X11461Y18251D01*
G01X11481Y18253D01*
G01X11500Y18257D01*
G01X11519Y18264D01*
G01X11537Y18272D01*
G01X11554Y18282D01*
G01X11570Y18293D01*
G01X11585Y18306D01*
G01X11599Y18321D01*
G01X11611Y18337D01*
G01X11621Y18354D01*
G01X11629Y18371D01*
G01X11636Y18390D01*
G01X11641Y18409D01*
G01X11644Y18429D01*
G01X11645Y18449D01*
G01X11644Y18468D01*
G01X11641Y18488D01*
G01X11636Y18507D01*
G01X11629Y18526D01*
G01X11621Y18543D01*
G01X11611Y18560D01*
G01X11599Y18576D01*
G01X11585Y18591D01*
G01X11570Y18604D01*
G01X11554Y18615D01*
G01X11537Y18625D01*
G01X11519Y18633D01*
G01X11500Y18640D01*
G01X11481Y18644D01*
G01X11461Y18646D01*
G01X11442Y18647D01*
G01X11422Y18645D01*
G01X11424Y18649D01*
G01X11432Y18666D01*
G01X11439Y18685D01*
G01X11444Y18704D01*
G01X11447Y18724D01*
G01X11448Y18744D01*
G01X11447Y18763D01*
G01X11444Y18783D01*
G01X11439Y18802D01*
G01X11432Y18821D01*
G01X11424Y18838D01*
G01X11422Y18842D01*
G01X11442Y18840D01*
G01X11461Y18841D01*
G01X11481Y18843D01*
G01X11500Y18847D01*
G01X11519Y18854D01*
G01X11537Y18862D01*
G01X11554Y18872D01*
G01X11570Y18883D01*
G01X11585Y18896D01*
G01X11599Y18911D01*
G01X11611Y18927D01*
G01X11621Y18944D01*
G01X11629Y18961D01*
G01X11636Y18980D01*
G01X11641Y18999D01*
G01X11644Y19019D01*
G01X11645Y19038D01*
G01X11644Y19058D01*
G01X11641Y19078D01*
G01X11636Y19097D01*
G01X11629Y19116D01*
G01X11621Y19133D01*
G01X11611Y19150D01*
G01X11599Y19166D01*
G01X11585Y19181D01*
G01X11570Y19194D01*
G01X11554Y19205D01*
G01X11537Y19215D01*
G01X11519Y19223D01*
G01X11500Y19230D01*
G01X11481Y19234D01*
G01X11461Y19236D01*
G01X11442Y19237D01*
G01X11422Y19235D01*
G01X11402Y19232D01*
G01X11383Y19227D01*
G01X11365Y19219D01*
G01X11347Y19210D01*
G01X11331Y19200D01*
G01X11315Y19187D01*
G01X11301Y19174D01*
G01X11288Y19158D01*
G01X11277Y19142D01*
G01X11268Y19125D01*
G01X11260Y19106D01*
G01X11254Y19087D01*
G01X11250Y19068D01*
G01X11250Y19061D01*
G01X11247Y19078D01*
G01X11242Y19097D01*
G01X11235Y19116D01*
G01X11227Y19133D01*
G01X11217Y19150D01*
G01X11205Y19166D01*
G01X11191Y19181D01*
G01X11176Y19194D01*
G01X11160Y19205D01*
G01X11143Y19215D01*
G01X11125Y19223D01*
G01X11106Y19230D01*
G01X11087Y19234D01*
G01X11067Y19236D01*
G01X11048Y19237D01*
G01X11028Y19235D01*
G01X11008Y19232D01*
G01X10989Y19227D01*
G01X10971Y19219D01*
G01X10953Y19210D01*
G01X10937Y19200D01*
G01X10921Y19187D01*
G01X10907Y19174D01*
G01X10894Y19158D01*
G01X10883Y19142D01*
G01X10874Y19125D01*
G01X10866Y19106D01*
G01X10860Y19087D01*
G01X10856Y19068D01*
G01X10854Y19048D01*
G01X10854Y19029D01*
G01X10856Y19009D01*
G01X10860Y18990D01*
G01X10866Y18971D01*
G01X10874Y18952D01*
G01X10883Y18935D01*
G01X10894Y18919D01*
G01X10907Y18903D01*
G01X10921Y18890D01*
G01X10937Y18877D01*
G01X10953Y18867D01*
G01X10971Y18858D01*
G01X10989Y18850D01*
G01X11008Y18845D01*
G01X11028Y18842D01*
G01X11048Y18840D01*
G01X11067Y18841D01*
G01X11077Y18842D01*
G01X11071Y18830D01*
G01X11063Y18811D01*
G01X11057Y18792D01*
G01X11053Y18773D01*
G01X11051Y18753D01*
G01X11051Y18734D01*
G01X11053Y18714D01*
G01X11057Y18695D01*
G01X11063Y18676D01*
G01X11071Y18657D01*
G01X11077Y18645D01*
G01X11067Y18646D01*
G01X11048Y18647D01*
G01X11028Y18645D01*
G01X11008Y18642D01*
G01X10989Y18637D01*
G01X10971Y18629D01*
G01X10953Y18620D01*
G01X10937Y18610D01*
G01X10921Y18597D01*
G01X10907Y18584D01*
G01X10894Y18568D01*
G01X10883Y18552D01*
G01X10874Y18535D01*
G01X10866Y18516D01*
G01X10860Y18497D01*
G01X10856Y18478D01*
G01X10854Y18458D01*
G01X10854Y18439D01*
G01X10856Y18419D01*
G01X10860Y18400D01*
G01X10866Y18381D01*
G01X10874Y18362D01*
G01X10883Y18345D01*
G01X10894Y18329D01*
G01X10907Y18313D01*
G01X10921Y18300D01*
G01X10937Y18287D01*
G01X10953Y18277D01*
G01X10971Y18268D01*
G01X10989Y18260D01*
G01X11008Y18255D01*
G01X11028Y18252D01*
G01X11048Y18250D01*
G37*
G36*
G01X8769Y17399D02*
G01X9034Y17399D01*
G01X9034Y17663D01*
G01X8869Y17663D01*
G01X8865Y17663D01*
G01X8861Y17663D01*
G01X8857Y17663D01*
G01X8853Y17662D01*
G01X8849Y17661D01*
G01X8845Y17660D01*
G01X8841Y17659D01*
G01X8837Y17658D01*
G01X8833Y17657D01*
G01X8829Y17655D01*
G01X8826Y17653D01*
G01X8822Y17651D01*
G01X8818Y17649D01*
G01X8815Y17647D01*
G01X8811Y17645D01*
G01X8808Y17642D01*
G01X8805Y17640D01*
G01X8802Y17637D01*
G01X8799Y17634D01*
G01X8796Y17631D01*
G01X8793Y17628D01*
G01X8791Y17625D01*
G01X8788Y17622D01*
G01X8786Y17618D01*
G01X8784Y17615D01*
G01X8782Y17611D01*
G01X8780Y17607D01*
G01X8778Y17604D01*
G01X8776Y17600D01*
G01X8775Y17596D01*
G01X8774Y17592D01*
G01X8773Y17588D01*
G01X8772Y17584D01*
G01X8771Y17580D01*
G01X8770Y17576D01*
G01X8770Y17572D01*
G01X8770Y17568D01*
G01X8769Y17563D01*
G01X8769Y17399D01*
G37*
G36*
G01X9365Y17399D02*
G01X9630Y17399D01*
G01X9630Y17563D01*
G01X9629Y17568D01*
G01X9629Y17572D01*
G01X9629Y17576D01*
G01X9628Y17580D01*
G01X9627Y17584D01*
G01X9626Y17588D01*
G01X9625Y17592D01*
G01X9624Y17596D01*
G01X9623Y17600D01*
G01X9621Y17604D01*
G01X9619Y17607D01*
G01X9617Y17611D01*
G01X9615Y17615D01*
G01X9613Y17618D01*
G01X9611Y17622D01*
G01X9608Y17625D01*
G01X9606Y17628D01*
G01X9603Y17631D01*
G01X9600Y17634D01*
G01X9597Y17637D01*
G01X9594Y17640D01*
G01X9591Y17642D01*
G01X9588Y17645D01*
G01X9584Y17647D01*
G01X9581Y17649D01*
G01X9577Y17651D01*
G01X9573Y17653D01*
G01X9570Y17655D01*
G01X9566Y17657D01*
G01X9562Y17658D01*
G01X9558Y17659D01*
G01X9554Y17660D01*
G01X9550Y17661D01*
G01X9546Y17662D01*
G01X9542Y17663D01*
G01X9538Y17663D01*
G01X9534Y17663D01*
G01X9530Y17663D01*
G01X9365Y17663D01*
G01X9365Y17399D01*
G37*
G36*
G01X8440Y10184D02*
G01X8594Y10184D01*
G01X8594Y10438D01*
G01X8340Y10438D01*
G01X8340Y10284D01*
G01X8340Y10279D01*
G01X8340Y10275D01*
G01X8340Y10271D01*
G01X8341Y10267D01*
G01X8342Y10263D01*
G01X8343Y10259D01*
G01X8344Y10255D01*
G01X8345Y10251D01*
G01X8346Y10247D01*
G01X8348Y10243D01*
G01X8350Y10240D01*
G01X8352Y10236D01*
G01X8354Y10232D01*
G01X8356Y10229D01*
G01X8358Y10225D01*
G01X8361Y10222D01*
G01X8363Y10219D01*
G01X8366Y10216D01*
G01X8369Y10213D01*
G01X8372Y10210D01*
G01X8375Y10207D01*
G01X8378Y10205D01*
G01X8381Y10202D01*
G01X8385Y10200D01*
G01X8388Y10198D01*
G01X8392Y10196D01*
G01X8396Y10194D01*
G01X8399Y10192D01*
G01X8403Y10190D01*
G01X8407Y10189D01*
G01X8411Y10188D01*
G01X8415Y10187D01*
G01X8419Y10186D01*
G01X8423Y10185D01*
G01X8427Y10184D01*
G01X8431Y10184D01*
G01X8435Y10184D01*
G01X8440Y10184D01*
G37*
G36*
G01X19239Y16184D02*
G01X19860Y16184D01*
G01X19864Y16184D01*
G01X19868Y16184D01*
G01X19872Y16184D01*
G01X19876Y16185D01*
G01X19880Y16186D01*
G01X19884Y16187D01*
G01X19888Y16188D01*
G01X19892Y16189D01*
G01X19896Y16190D01*
G01X19900Y16192D01*
G01X19903Y16194D01*
G01X19907Y16196D01*
G01X19911Y16198D01*
G01X19914Y16200D01*
G01X19918Y16202D01*
G01X19921Y16205D01*
G01X19924Y16207D01*
G01X19927Y16210D01*
G01X19930Y16213D01*
G01X19933Y16216D01*
G01X19936Y16219D01*
G01X19938Y16222D01*
G01X19941Y16225D01*
G01X19943Y16229D01*
G01X19945Y16232D01*
G01X19947Y16236D01*
G01X19949Y16240D01*
G01X19951Y16243D01*
G01X19953Y16247D01*
G01X19954Y16251D01*
G01X19955Y16255D01*
G01X19956Y16259D01*
G01X19957Y16263D01*
G01X19958Y16267D01*
G01X19959Y16271D01*
G01X19959Y16275D01*
G01X19959Y16279D01*
G01X19960Y16284D01*
G01X19960Y16903D01*
G01X19959Y16908D01*
G01X19959Y16912D01*
G01X19959Y16916D01*
G01X19958Y16920D01*
G01X19957Y16924D01*
G01X19956Y16928D01*
G01X19955Y16932D01*
G01X19954Y16936D01*
G01X19953Y16940D01*
G01X19951Y16944D01*
G01X19949Y16947D01*
G01X19947Y16951D01*
G01X19945Y16955D01*
G01X19943Y16958D01*
G01X19941Y16962D01*
G01X19938Y16965D01*
G01X19936Y16968D01*
G01X19933Y16971D01*
G01X19930Y16974D01*
G01X19927Y16977D01*
G01X19924Y16980D01*
G01X19921Y16982D01*
G01X19918Y16985D01*
G01X19914Y16987D01*
G01X19911Y16989D01*
G01X19907Y16991D01*
G01X19903Y16993D01*
G01X19900Y16995D01*
G01X19896Y16997D01*
G01X19892Y16998D01*
G01X19888Y16999D01*
G01X19884Y17000D01*
G01X19880Y17001D01*
G01X19876Y17002D01*
G01X19872Y17003D01*
G01X19868Y17003D01*
G01X19864Y17003D01*
G01X19860Y17003D01*
G01X19239Y17003D01*
G01X19235Y17003D01*
G01X19231Y17003D01*
G01X19227Y17003D01*
G01X19223Y17002D01*
G01X19219Y17001D01*
G01X19215Y17000D01*
G01X19211Y16999D01*
G01X19207Y16998D01*
G01X19203Y16997D01*
G01X19199Y16995D01*
G01X19196Y16993D01*
G01X19192Y16991D01*
G01X19188Y16989D01*
G01X19185Y16987D01*
G01X19181Y16985D01*
G01X19178Y16982D01*
G01X19175Y16980D01*
G01X19172Y16977D01*
G01X19169Y16974D01*
G01X19166Y16971D01*
G01X19163Y16968D01*
G01X19161Y16965D01*
G01X19158Y16962D01*
G01X19156Y16958D01*
G01X19154Y16955D01*
G01X19152Y16951D01*
G01X19150Y16947D01*
G01X19148Y16944D01*
G01X19146Y16940D01*
G01X19145Y16936D01*
G01X19144Y16932D01*
G01X19143Y16928D01*
G01X19142Y16924D01*
G01X19141Y16920D01*
G01X19140Y16916D01*
G01X19140Y16912D01*
G01X19140Y16908D01*
G01X19139Y16903D01*
G01X19139Y16284D01*
G01X19140Y16279D01*
G01X19140Y16275D01*
G01X19140Y16271D01*
G01X19141Y16267D01*
G01X19142Y16263D01*
G01X19143Y16259D01*
G01X19144Y16255D01*
G01X19145Y16251D01*
G01X19146Y16247D01*
G01X19148Y16243D01*
G01X19150Y16240D01*
G01X19152Y16236D01*
G01X19154Y16232D01*
G01X19156Y16229D01*
G01X19158Y16225D01*
G01X19161Y16222D01*
G01X19163Y16219D01*
G01X19166Y16216D01*
G01X19169Y16213D01*
G01X19172Y16210D01*
G01X19175Y16207D01*
G01X19178Y16205D01*
G01X19181Y16202D01*
G01X19185Y16200D01*
G01X19188Y16198D01*
G01X19192Y16196D01*
G01X19196Y16194D01*
G01X19199Y16192D01*
G01X19203Y16190D01*
G01X19207Y16189D01*
G01X19211Y16188D01*
G01X19215Y16187D01*
G01X19219Y16186D01*
G01X19223Y16185D01*
G01X19227Y16184D01*
G01X19231Y16184D01*
G01X19235Y16184D01*
G01X19239Y16184D01*
G37*
G36*
G01X16794Y15572D02*
G01X16816Y15572D01*
G01X16838Y15575D01*
G01X16860Y15580D01*
G01X16881Y15587D01*
G01X16901Y15596D01*
G01X16920Y15607D01*
G01X16938Y15620D01*
G01X16955Y15635D01*
G01X16970Y15651D01*
G01X16983Y15668D01*
G01X16994Y15687D01*
G01X17004Y15707D01*
G01X17012Y15728D01*
G01X17017Y15750D01*
G01X17020Y15771D01*
G01X17021Y15789D01*
G01X17163Y15930D01*
G01X17166Y15934D01*
G01X17170Y15938D01*
G01X17174Y15943D01*
G01X17177Y15947D01*
G01X17180Y15951D01*
G01X17183Y15956D01*
G01X17186Y15960D01*
G01X17189Y15965D01*
G01X17192Y15970D01*
G01X17194Y15975D01*
G01X17196Y15980D01*
G01X17198Y15985D01*
G01X17200Y15990D01*
G01X17202Y15995D01*
G01X17204Y16000D01*
G01X17205Y16006D01*
G01X17206Y16011D01*
G01X17207Y16016D01*
G01X17208Y16022D01*
G01X17209Y16027D01*
G01X17209Y16033D01*
G01X17209Y16038D01*
G01X17210Y16044D01*
G01X17210Y18627D01*
G01X17306Y18723D01*
G01X19626Y18723D01*
G01X19633Y18717D01*
G01X19650Y18703D01*
G01X19668Y18691D01*
G01X19688Y18681D01*
G01X19709Y18673D01*
G01X19730Y18667D01*
G01X19752Y18663D01*
G01X19774Y18662D01*
G01X19796Y18662D01*
G01X19818Y18665D01*
G01X19840Y18670D01*
G01X19861Y18677D01*
G01X19881Y18686D01*
G01X19900Y18697D01*
G01X19918Y18710D01*
G01X19935Y18725D01*
G01X19950Y18741D01*
G01X19963Y18758D01*
G01X19974Y18777D01*
G01X19984Y18797D01*
G01X19992Y18818D01*
G01X19997Y18840D01*
G01X20000Y18861D01*
G01X20002Y18884D01*
G01X20000Y18906D01*
G01X19997Y18927D01*
G01X19992Y18949D01*
G01X19984Y18970D01*
G01X19974Y18990D01*
G01X19963Y19009D01*
G01X19950Y19026D01*
G01X19935Y19042D01*
G01X19918Y19057D01*
G01X19900Y19070D01*
G01X19881Y19081D01*
G01X19861Y19090D01*
G01X19840Y19097D01*
G01X19818Y19102D01*
G01X19796Y19105D01*
G01X19774Y19105D01*
G01X19752Y19104D01*
G01X19730Y19100D01*
G01X19709Y19094D01*
G01X19688Y19086D01*
G01X19668Y19076D01*
G01X19650Y19064D01*
G01X19633Y19050D01*
G01X19626Y19043D01*
G01X18147Y19043D01*
G01X18154Y19057D01*
G01X18162Y19078D01*
G01X18167Y19100D01*
G01X18170Y19121D01*
G01X18172Y19144D01*
G01X18170Y19166D01*
G01X18167Y19187D01*
G01X18162Y19209D01*
G01X18154Y19230D01*
G01X18144Y19250D01*
G01X18133Y19269D01*
G01X18120Y19286D01*
G01X18105Y19302D01*
G01X18088Y19317D01*
G01X18070Y19330D01*
G01X18051Y19341D01*
G01X18031Y19350D01*
G01X18010Y19357D01*
G01X17988Y19362D01*
G01X17966Y19365D01*
G01X17944Y19365D01*
G01X17922Y19364D01*
G01X17900Y19360D01*
G01X17879Y19354D01*
G01X17858Y19346D01*
G01X17839Y19336D01*
G01X17820Y19324D01*
G01X17803Y19310D01*
G01X17796Y19303D01*
G01X17213Y19303D01*
G01X17214Y19305D01*
G01X17215Y19310D01*
G01X17219Y19322D01*
G01X17220Y19327D01*
G01X17223Y19339D01*
G01X17224Y19344D01*
G01X17226Y19357D01*
G01X17227Y19362D01*
G01X17228Y19374D01*
G01X17229Y19379D01*
G01X17230Y19392D01*
G01X17230Y19397D01*
G01X17230Y19410D01*
G01X17230Y19412D01*
G01X17230Y19767D01*
G01X17230Y19769D01*
G01X17230Y19782D01*
G01X17230Y19787D01*
G01X17229Y19800D01*
G01X17228Y19805D01*
G01X17227Y19817D01*
G01X17226Y19822D01*
G01X17224Y19835D01*
G01X17223Y19840D01*
G01X17220Y19852D01*
G01X17219Y19857D01*
G01X17215Y19869D01*
G01X17214Y19874D01*
G01X17210Y19886D01*
G01X17208Y19891D01*
G01X17203Y19903D01*
G01X17202Y19907D01*
G01X17196Y19919D01*
G01X17194Y19923D01*
G01X17188Y19935D01*
G01X17186Y19939D01*
G01X17179Y19950D01*
G01X17177Y19954D01*
G01X17170Y19965D01*
G01X17167Y19969D01*
G01X17160Y19980D01*
G01X17157Y19983D01*
G01X17149Y19993D01*
G01X17146Y19997D01*
G01X17137Y20007D01*
G01X17134Y20011D01*
G01X17125Y20020D01*
G01X17121Y20023D01*
G01X17112Y20032D01*
G01X17108Y20035D01*
G01X17098Y20043D01*
G01X17098Y20044D01*
G01X21004Y20044D01*
G01X21008Y20041D01*
G01X21029Y20033D01*
G01X21050Y20027D01*
G01X21072Y20023D01*
G01X21094Y20022D01*
G01X21116Y20022D01*
G01X21138Y20025D01*
G01X21160Y20030D01*
G01X21181Y20037D01*
G01X21201Y20046D01*
G01X21220Y20057D01*
G01X21238Y20070D01*
G01X21255Y20085D01*
G01X21270Y20101D01*
G01X21283Y20118D01*
G01X21294Y20137D01*
G01X21304Y20157D01*
G01X21312Y20178D01*
G01X21317Y20200D01*
G01X21320Y20221D01*
G01X21322Y20244D01*
G01X21320Y20266D01*
G01X21317Y20287D01*
G01X21312Y20309D01*
G01X21304Y20330D01*
G01X21294Y20350D01*
G01X21283Y20369D01*
G01X21270Y20386D01*
G01X21255Y20402D01*
G01X21238Y20417D01*
G01X21220Y20430D01*
G01X21201Y20441D01*
G01X21181Y20450D01*
G01X21160Y20457D01*
G01X21138Y20462D01*
G01X21116Y20465D01*
G01X21094Y20465D01*
G01X21072Y20464D01*
G01X21050Y20460D01*
G01X21029Y20454D01*
G01X21008Y20446D01*
G01X21004Y20444D01*
G01X13200Y20444D01*
G01X13193Y20443D01*
G01X13187Y20443D01*
G01X13181Y20443D01*
G01X13175Y20442D01*
G01X13169Y20441D01*
G01X13163Y20440D01*
G01X13158Y20439D01*
G01X13152Y20438D01*
G01X13146Y20436D01*
G01X13140Y20434D01*
G01X13134Y20433D01*
G01X13129Y20430D01*
G01X13123Y20428D01*
G01X13117Y20426D01*
G01X13112Y20423D01*
G01X13107Y20421D01*
G01X13101Y20418D01*
G01X13096Y20415D01*
G01X13091Y20411D01*
G01X13086Y20408D01*
G01X13081Y20405D01*
G01X13076Y20401D01*
G01X13071Y20397D01*
G01X13067Y20393D01*
G01X13062Y20389D01*
G01X13058Y20385D01*
G01X12767Y20094D01*
G01X12545Y20094D01*
G01X12531Y20100D01*
G01X12510Y20107D01*
G01X12488Y20112D01*
G01X12466Y20115D01*
G01X12444Y20115D01*
G01X12422Y20114D01*
G01X12400Y20110D01*
G01X12379Y20104D01*
G01X12358Y20096D01*
G01X12339Y20086D01*
G01X12320Y20074D01*
G01X12303Y20060D01*
G01X12287Y20045D01*
G01X12273Y20028D01*
G01X12260Y20009D01*
G01X12249Y19990D01*
G01X12241Y19969D01*
G01X12234Y19948D01*
G01X12230Y19927D01*
G01X12228Y19905D01*
G01X12228Y19882D01*
G01X12230Y19860D01*
G01X12234Y19839D01*
G01X12241Y19818D01*
G01X12249Y19797D01*
G01X12260Y19778D01*
G01X12273Y19759D01*
G01X12287Y19742D01*
G01X12303Y19727D01*
G01X12320Y19713D01*
G01X12335Y19703D01*
G01X12166Y19703D01*
G01X12043Y19827D01*
G01X12039Y19830D01*
G01X12035Y19834D01*
G01X12030Y19838D01*
G01X12026Y19841D01*
G01X12022Y19844D01*
G01X12017Y19847D01*
G01X12013Y19850D01*
G01X12008Y19853D01*
G01X12003Y19856D01*
G01X11998Y19858D01*
G01X11993Y19860D01*
G01X11988Y19862D01*
G01X11983Y19864D01*
G01X11978Y19866D01*
G01X11973Y19868D01*
G01X11967Y19869D01*
G01X11962Y19870D01*
G01X11957Y19871D01*
G01X11951Y19872D01*
G01X11946Y19873D01*
G01X11940Y19873D01*
G01X11935Y19873D01*
G01X11930Y19874D01*
G01X10346Y19874D01*
G01X9563Y20657D01*
G01X9559Y20660D01*
G01X9555Y20664D01*
G01X9550Y20668D01*
G01X9546Y20671D01*
G01X9542Y20674D01*
G01X9537Y20677D01*
G01X9533Y20680D01*
G01X9528Y20683D01*
G01X9523Y20686D01*
G01X9518Y20688D01*
G01X9513Y20690D01*
G01X9508Y20692D01*
G01X9503Y20694D01*
G01X9498Y20696D01*
G01X9493Y20698D01*
G01X9487Y20699D01*
G01X9482Y20700D01*
G01X9477Y20701D01*
G01X9471Y20702D01*
G01X9466Y20703D01*
G01X9460Y20703D01*
G01X9455Y20703D01*
G01X9450Y20703D01*
G01X7950Y20703D01*
G01X7944Y20703D01*
G01X7939Y20703D01*
G01X7933Y20703D01*
G01X7928Y20702D01*
G01X7922Y20701D01*
G01X7917Y20700D01*
G01X7912Y20699D01*
G01X7906Y20698D01*
G01X7901Y20696D01*
G01X7896Y20694D01*
G01X7891Y20692D01*
G01X7886Y20690D01*
G01X7881Y20688D01*
G01X7876Y20686D01*
G01X7871Y20683D01*
G01X7866Y20680D01*
G01X7862Y20677D01*
G01X7857Y20674D01*
G01X7853Y20671D01*
G01X7849Y20668D01*
G01X7844Y20664D01*
G01X7840Y20660D01*
G01X7836Y20657D01*
G01X7495Y20315D01*
G01X7494Y20315D01*
G01X7472Y20314D01*
G01X7450Y20310D01*
G01X7429Y20304D01*
G01X7408Y20296D01*
G01X7388Y20286D01*
G01X7370Y20274D01*
G01X7353Y20260D01*
G01X7337Y20245D01*
G01X7323Y20228D01*
G01X7310Y20209D01*
G01X7299Y20190D01*
G01X7291Y20169D01*
G01X7284Y20148D01*
G01X7280Y20127D01*
G01X7278Y20105D01*
G01X7278Y20082D01*
G01X7280Y20060D01*
G01X7284Y20039D01*
G01X7291Y20018D01*
G01X7299Y19997D01*
G01X7310Y19978D01*
G01X7323Y19959D01*
G01X7337Y19942D01*
G01X7353Y19927D01*
G01X7370Y19913D01*
G01X7388Y19901D01*
G01X7408Y19891D01*
G01X7429Y19883D01*
G01X7450Y19877D01*
G01X7472Y19873D01*
G01X7494Y19872D01*
G01X7516Y19872D01*
G01X7538Y19875D01*
G01X7560Y19880D01*
G01X7581Y19887D01*
G01X7601Y19896D01*
G01X7620Y19907D01*
G01X7638Y19920D01*
G01X7655Y19935D01*
G01X7670Y19951D01*
G01X7683Y19968D01*
G01X7694Y19987D01*
G01X7704Y20007D01*
G01X7712Y20028D01*
G01X7717Y20050D01*
G01X7720Y20071D01*
G01X7721Y20089D01*
G01X8016Y20384D01*
G01X9383Y20384D01*
G01X10166Y19600D01*
G01X10170Y19597D01*
G01X10174Y19593D01*
G01X10179Y19589D01*
G01X10183Y19586D01*
G01X10187Y19583D01*
G01X10192Y19580D01*
G01X10196Y19577D01*
G01X10201Y19574D01*
G01X10206Y19571D01*
G01X10211Y19569D01*
G01X10216Y19567D01*
G01X10221Y19565D01*
G01X10226Y19563D01*
G01X10231Y19561D01*
G01X10236Y19559D01*
G01X10242Y19558D01*
G01X10247Y19557D01*
G01X10252Y19556D01*
G01X10258Y19555D01*
G01X10263Y19554D01*
G01X10269Y19554D01*
G01X10274Y19554D01*
G01X10280Y19553D01*
G01X11863Y19553D01*
G01X11986Y19430D01*
G01X11989Y19428D01*
G01X11991Y19426D01*
G01X11991Y19426D01*
G01X11992Y19425D01*
G01X11994Y19423D01*
G01X11997Y19421D01*
G01X11997Y19420D01*
G01X11998Y19420D01*
G01X12001Y19418D01*
G01X12003Y19416D01*
G01X12004Y19415D01*
G01X12004Y19415D01*
G01X12007Y19413D01*
G01X12009Y19411D01*
G01X12010Y19411D01*
G01X12011Y19410D01*
G01X12014Y19409D01*
G01X12016Y19407D01*
G01X12017Y19406D01*
G01X12018Y19406D01*
G01X12020Y19405D01*
G01X12023Y19403D01*
G01X12024Y19402D01*
G01X12025Y19402D01*
G01X12027Y19401D01*
G01X12030Y19399D01*
G01X12031Y19399D01*
G01X12032Y19398D01*
G01X12034Y19397D01*
G01X12037Y19396D01*
G01X12038Y19396D01*
G01X12039Y19395D01*
G01X12042Y19394D01*
G01X12045Y19393D01*
G01X12046Y19393D01*
G01X12047Y19392D01*
G01X12050Y19392D01*
G01X12052Y19391D01*
G01X12053Y19390D01*
G01X12054Y19390D01*
G01X12057Y19389D01*
G01X12060Y19388D01*
G01X12061Y19388D01*
G01X12062Y19388D01*
G01X12065Y19387D01*
G01X12068Y19387D01*
G01X12069Y19386D01*
G01X12070Y19386D01*
G01X12073Y19386D01*
G01X12076Y19385D01*
G01X12077Y19385D01*
G01X12078Y19385D01*
G01X12081Y19385D01*
G01X12084Y19384D01*
G01X12084Y19384D01*
G01X12086Y19384D01*
G01X12089Y19384D01*
G01X12092Y19384D01*
G01X12092Y19384D01*
G01X12094Y19384D01*
G01X12097Y19384D01*
G01X12100Y19384D01*
G01X13233Y19384D01*
G01X13289Y19327D01*
G01X13289Y18944D01*
G01X13290Y18938D01*
G01X13290Y18933D01*
G01X13290Y18927D01*
G01X13291Y18922D01*
G01X13292Y18916D01*
G01X13293Y18911D01*
G01X13294Y18906D01*
G01X13295Y18900D01*
G01X13297Y18895D01*
G01X13299Y18890D01*
G01X13301Y18885D01*
G01X13303Y18880D01*
G01X13305Y18875D01*
G01X13307Y18870D01*
G01X13310Y18865D01*
G01X13313Y18860D01*
G01X13316Y18856D01*
G01X13319Y18851D01*
G01X13322Y18847D01*
G01X13325Y18843D01*
G01X13329Y18838D01*
G01X13333Y18834D01*
G01X13336Y18830D01*
G01X13536Y18630D01*
G01X13539Y18628D01*
G01X13541Y18626D01*
G01X13541Y18626D01*
G01X13542Y18625D01*
G01X13544Y18623D01*
G01X13547Y18621D01*
G01X13547Y18620D01*
G01X13548Y18620D01*
G01X13551Y18618D01*
G01X13553Y18616D01*
G01X13554Y18615D01*
G01X13554Y18615D01*
G01X13557Y18613D01*
G01X13559Y18611D01*
G01X13560Y18611D01*
G01X13561Y18610D01*
G01X13564Y18609D01*
G01X13566Y18607D01*
G01X13567Y18606D01*
G01X13568Y18606D01*
G01X13570Y18605D01*
G01X13573Y18603D01*
G01X13574Y18602D01*
G01X13575Y18602D01*
G01X13577Y18601D01*
G01X13580Y18599D01*
G01X13581Y18599D01*
G01X13582Y18598D01*
G01X13584Y18597D01*
G01X13587Y18596D01*
G01X13588Y18596D01*
G01X13589Y18595D01*
G01X13592Y18594D01*
G01X13595Y18593D01*
G01X13596Y18593D01*
G01X13597Y18592D01*
G01X13600Y18592D01*
G01X13602Y18591D01*
G01X13603Y18590D01*
G01X13604Y18590D01*
G01X13607Y18589D01*
G01X13610Y18588D01*
G01X13611Y18588D01*
G01X13612Y18588D01*
G01X13615Y18587D01*
G01X13618Y18587D01*
G01X13619Y18586D01*
G01X13620Y18586D01*
G01X13623Y18586D01*
G01X13626Y18585D01*
G01X13627Y18585D01*
G01X13628Y18585D01*
G01X13631Y18585D01*
G01X13634Y18584D01*
G01X13634Y18584D01*
G01X13636Y18584D01*
G01X13639Y18584D01*
G01X13642Y18584D01*
G01X13642Y18584D01*
G01X13644Y18584D01*
G01X13647Y18584D01*
G01X13650Y18584D01*
G01X13950Y18584D01*
G01X13955Y18584D01*
G01X13960Y18584D01*
G01X13966Y18584D01*
G01X13971Y18585D01*
G01X13977Y18586D01*
G01X13982Y18587D01*
G01X13987Y18588D01*
G01X13993Y18589D01*
G01X13998Y18591D01*
G01X14003Y18593D01*
G01X14008Y18595D01*
G01X14013Y18597D01*
G01X14018Y18599D01*
G01X14023Y18601D01*
G01X14028Y18604D01*
G01X14033Y18607D01*
G01X14037Y18610D01*
G01X14042Y18613D01*
G01X14046Y18616D01*
G01X14050Y18619D01*
G01X14055Y18623D01*
G01X14059Y18627D01*
G01X14063Y18630D01*
G01X14144Y18711D01*
G01X14136Y18698D01*
G01X14121Y18662D01*
G01X14109Y18624D01*
G01X14102Y18585D01*
G01X14098Y18546D01*
G01X14098Y18507D01*
G01X14102Y18468D01*
G01X14109Y18429D01*
G01X14121Y18391D01*
G01X14136Y18355D01*
G01X14155Y18320D01*
G01X14177Y18288D01*
G01X14203Y18258D01*
G01X14231Y18230D01*
G01X14262Y18206D01*
G01X14295Y18184D01*
G01X14330Y18166D01*
G01X14367Y18152D01*
G01X14405Y18141D01*
G01X14443Y18134D01*
G01X14483Y18131D01*
G01X14522Y18132D01*
G01X14561Y18137D01*
G01X14600Y18146D01*
G01X14637Y18159D01*
G01X14673Y18175D01*
G01X14707Y18194D01*
G01X14739Y18217D01*
G01X14768Y18244D01*
G01X14795Y18272D01*
G01X14819Y18304D01*
G01X14840Y18337D01*
G01X14857Y18373D01*
G01X14870Y18410D01*
G01X14880Y18448D01*
G01X14886Y18487D01*
G01X14888Y18527D01*
G01X14886Y18566D01*
G01X14880Y18605D01*
G01X14870Y18643D01*
G01X14857Y18680D01*
G01X14840Y18716D01*
G01X14819Y18749D01*
G01X14795Y18781D01*
G01X14768Y18809D01*
G01X14739Y18836D01*
G01X14707Y18859D01*
G01X14673Y18878D01*
G01X14637Y18894D01*
G01X14600Y18907D01*
G01X14561Y18916D01*
G01X14522Y18921D01*
G01X14483Y18922D01*
G01X14443Y18919D01*
G01X14405Y18912D01*
G01X14367Y18901D01*
G01X14330Y18887D01*
G01X14308Y18875D01*
G01X14566Y19134D01*
G01X16233Y19134D01*
G01X16449Y18918D01*
G01X16428Y18921D01*
G01X16389Y18922D01*
G01X16349Y18919D01*
G01X16311Y18912D01*
G01X16273Y18901D01*
G01X16236Y18887D01*
G01X16201Y18869D01*
G01X16168Y18847D01*
G01X16137Y18823D01*
G01X16109Y18795D01*
G01X16083Y18765D01*
G01X16061Y18733D01*
G01X16042Y18698D01*
G01X16027Y18662D01*
G01X16015Y18624D01*
G01X16008Y18585D01*
G01X16004Y18546D01*
G01X16004Y18507D01*
G01X16008Y18468D01*
G01X16015Y18429D01*
G01X16027Y18391D01*
G01X16042Y18355D01*
G01X16061Y18320D01*
G01X16083Y18288D01*
G01X16109Y18258D01*
G01X16137Y18230D01*
G01X16168Y18206D01*
G01X16201Y18184D01*
G01X16236Y18166D01*
G01X16273Y18152D01*
G01X16311Y18141D01*
G01X16349Y18134D01*
G01X16389Y18131D01*
G01X16428Y18132D01*
G01X16467Y18137D01*
G01X16506Y18146D01*
G01X16543Y18159D01*
G01X16579Y18175D01*
G01X16613Y18194D01*
G01X16645Y18217D01*
G01X16675Y18244D01*
G01X16701Y18272D01*
G01X16725Y18304D01*
G01X16746Y18337D01*
G01X16763Y18373D01*
G01X16776Y18410D01*
G01X16786Y18448D01*
G01X16792Y18487D01*
G01X16794Y18527D01*
G01X16792Y18566D01*
G01X16786Y18605D01*
G01X16776Y18643D01*
G01X16763Y18680D01*
G01X16746Y18716D01*
G01X16725Y18749D01*
G01X16701Y18781D01*
G01X16699Y18784D01*
G01X16917Y18784D01*
G01X16916Y18781D01*
G01X16913Y18777D01*
G01X16910Y18772D01*
G01X16907Y18767D01*
G01X16905Y18762D01*
G01X16903Y18757D01*
G01X16901Y18752D01*
G01X16899Y18747D01*
G01X16897Y18742D01*
G01X16895Y18737D01*
G01X16894Y18731D01*
G01X16893Y18726D01*
G01X16892Y18721D01*
G01X16891Y18715D01*
G01X16890Y18710D01*
G01X16890Y18704D01*
G01X16890Y18699D01*
G01X16889Y18694D01*
G01X16889Y17066D01*
G01X16888Y17067D01*
G01X16870Y17080D01*
G01X16851Y17091D01*
G01X16831Y17100D01*
G01X16810Y17107D01*
G01X16788Y17112D01*
G01X16766Y17115D01*
G01X16753Y17115D01*
G01X16750Y17118D01*
G01X16746Y17121D01*
G01X16742Y17124D01*
G01X16737Y17127D01*
G01X16733Y17130D01*
G01X16728Y17133D01*
G01X16723Y17136D01*
G01X16718Y17138D01*
G01X16713Y17140D01*
G01X16708Y17142D01*
G01X16703Y17144D01*
G01X16698Y17146D01*
G01X16693Y17148D01*
G01X16687Y17149D01*
G01X16682Y17150D01*
G01X16677Y17151D01*
G01X16671Y17152D01*
G01X16666Y17153D01*
G01X16660Y17153D01*
G01X16655Y17153D01*
G01X16650Y17153D01*
G01X13200Y17153D01*
G01X13194Y17153D01*
G01X13189Y17153D01*
G01X13183Y17153D01*
G01X13178Y17152D01*
G01X13172Y17151D01*
G01X13167Y17150D01*
G01X13162Y17149D01*
G01X13156Y17148D01*
G01X13151Y17146D01*
G01X13146Y17144D01*
G01X13141Y17142D01*
G01X13136Y17140D01*
G01X13131Y17138D01*
G01X13126Y17136D01*
G01X13121Y17133D01*
G01X13116Y17130D01*
G01X13112Y17127D01*
G01X13107Y17124D01*
G01X13103Y17121D01*
G01X13099Y17118D01*
G01X13094Y17114D01*
G01X13090Y17110D01*
G01X13086Y17107D01*
G01X13029Y17050D01*
G01X13009Y17044D01*
G01X12988Y17036D01*
G01X12968Y17026D01*
G01X12950Y17014D01*
G01X12933Y17000D01*
G01X12917Y16984D01*
G01X12903Y16968D01*
G01X12890Y16949D01*
G01X12879Y16930D01*
G01X12871Y16909D01*
G01X12864Y16888D01*
G01X12860Y16867D01*
G01X12858Y16845D01*
G01X12858Y16822D01*
G01X12860Y16800D01*
G01X12864Y16779D01*
G01X12871Y16758D01*
G01X12879Y16737D01*
G01X12890Y16718D01*
G01X12903Y16699D01*
G01X12917Y16682D01*
G01X12933Y16667D01*
G01X12950Y16653D01*
G01X12968Y16641D01*
G01X12988Y16631D01*
G01X13009Y16623D01*
G01X13030Y16617D01*
G01X13052Y16613D01*
G01X13074Y16612D01*
G01X13096Y16612D01*
G01X13118Y16615D01*
G01X13140Y16620D01*
G01X13161Y16627D01*
G01X13181Y16636D01*
G01X13200Y16647D01*
G01X13218Y16660D01*
G01X13235Y16675D01*
G01X13250Y16691D01*
G01X13263Y16708D01*
G01X13274Y16727D01*
G01X13284Y16747D01*
G01X13292Y16768D01*
G01X13297Y16790D01*
G01X13300Y16811D01*
G01X13302Y16834D01*
G01X16536Y16834D01*
G01X16541Y16818D01*
G01X16549Y16797D01*
G01X16560Y16778D01*
G01X16573Y16759D01*
G01X16587Y16742D01*
G01X16603Y16727D01*
G01X16620Y16713D01*
G01X16639Y16701D01*
G01X16658Y16691D01*
G01X16679Y16683D01*
G01X16700Y16677D01*
G01X16722Y16673D01*
G01X16744Y16672D01*
G01X16766Y16672D01*
G01X16788Y16675D01*
G01X16810Y16680D01*
G01X16831Y16687D01*
G01X16851Y16696D01*
G01X16870Y16707D01*
G01X16888Y16720D01*
G01X16889Y16721D01*
G01X16889Y16110D01*
G01X16795Y16015D01*
G01X16794Y16015D01*
G01X16772Y16014D01*
G01X16750Y16010D01*
G01X16729Y16004D01*
G01X16708Y15996D01*
G01X16689Y15986D01*
G01X16670Y15974D01*
G01X16653Y15960D01*
G01X16637Y15945D01*
G01X16623Y15928D01*
G01X16610Y15909D01*
G01X16599Y15890D01*
G01X16591Y15869D01*
G01X16584Y15848D01*
G01X16580Y15827D01*
G01X16578Y15805D01*
G01X16578Y15782D01*
G01X16580Y15760D01*
G01X16584Y15739D01*
G01X16591Y15718D01*
G01X16599Y15697D01*
G01X16610Y15678D01*
G01X16623Y15659D01*
G01X16637Y15642D01*
G01X16653Y15627D01*
G01X16670Y15613D01*
G01X16689Y15601D01*
G01X16708Y15591D01*
G01X16729Y15583D01*
G01X16750Y15577D01*
G01X16772Y15573D01*
G01X16794Y15572D01*
G37*
G36*
G01X10994Y10622D02*
G01X11016Y10622D01*
G01X11038Y10625D01*
G01X11060Y10630D01*
G01X11081Y10637D01*
G01X11101Y10646D01*
G01X11114Y10653D01*
G01X11750Y10653D01*
G01X11755Y10654D01*
G01X11761Y10654D01*
G01X11767Y10654D01*
G01X11772Y10655D01*
G01X11778Y10656D01*
G01X11784Y10657D01*
G01X11789Y10658D01*
G01X11795Y10659D01*
G01X11801Y10660D01*
G01X11806Y10662D01*
G01X11811Y10664D01*
G01X11817Y10666D01*
G01X11822Y10668D01*
G01X11827Y10670D01*
G01X11833Y10673D01*
G01X11838Y10675D01*
G01X11843Y10678D01*
G01X11848Y10681D01*
G01X11853Y10684D01*
G01X11857Y10687D01*
G01X11862Y10690D01*
G01X11867Y10694D01*
G01X11871Y10698D01*
G01X11875Y10701D01*
G01X11880Y10705D01*
G01X11884Y10709D01*
G01X11984Y10809D01*
G01X11988Y10813D01*
G01X11992Y10818D01*
G01X11995Y10822D01*
G01X11999Y10826D01*
G01X12003Y10831D01*
G01X12006Y10836D01*
G01X12009Y10840D01*
G01X12012Y10845D01*
G01X12015Y10850D01*
G01X12018Y10855D01*
G01X12020Y10860D01*
G01X12023Y10866D01*
G01X12025Y10871D01*
G01X12027Y10876D01*
G01X12029Y10882D01*
G01X12031Y10887D01*
G01X12033Y10892D01*
G01X12034Y10898D01*
G01X12035Y10904D01*
G01X12036Y10909D01*
G01X12037Y10915D01*
G01X12038Y10921D01*
G01X12039Y10926D01*
G01X12039Y10932D01*
G01X12039Y10938D01*
G01X12039Y10944D01*
G01X12039Y11265D01*
G01X12058Y11284D01*
G01X12869Y11284D01*
G01X12875Y11284D01*
G01X12881Y11284D01*
G01X12887Y11284D01*
G01X12892Y11285D01*
G01X12898Y11286D01*
G01X12904Y11287D01*
G01X12909Y11288D01*
G01X12915Y11289D01*
G01X12921Y11290D01*
G01X12926Y11292D01*
G01X12931Y11294D01*
G01X12937Y11296D01*
G01X12942Y11298D01*
G01X12947Y11300D01*
G01X12953Y11303D01*
G01X12958Y11305D01*
G01X12963Y11308D01*
G01X12968Y11311D01*
G01X12973Y11314D01*
G01X12977Y11317D01*
G01X12982Y11320D01*
G01X12987Y11324D01*
G01X12991Y11328D01*
G01X12995Y11331D01*
G01X13000Y11335D01*
G01X13004Y11339D01*
G01X13023Y11358D01*
G01X13030Y11360D01*
G01X13051Y11367D01*
G01X13071Y11376D01*
G01X13090Y11387D01*
G01X13108Y11400D01*
G01X13125Y11415D01*
G01X13140Y11431D01*
G01X13153Y11448D01*
G01X13164Y11467D01*
G01X13174Y11487D01*
G01X13182Y11508D01*
G01X13187Y11530D01*
G01X13190Y11551D01*
G01X13192Y11574D01*
G01X13190Y11596D01*
G01X13187Y11617D01*
G01X13182Y11639D01*
G01X13174Y11660D01*
G01X13164Y11680D01*
G01X13153Y11699D01*
G01X13140Y11716D01*
G01X13125Y11732D01*
G01X13108Y11747D01*
G01X13090Y11760D01*
G01X13071Y11771D01*
G01X13051Y11780D01*
G01X13030Y11787D01*
G01X13008Y11792D01*
G01X12986Y11795D01*
G01X12964Y11795D01*
G01X12942Y11794D01*
G01X12920Y11790D01*
G01X12899Y11784D01*
G01X12878Y11776D01*
G01X12859Y11766D01*
G01X12840Y11754D01*
G01X12823Y11740D01*
G01X12807Y11725D01*
G01X12793Y11708D01*
G01X12780Y11689D01*
G01X12769Y11670D01*
G01X12767Y11663D01*
G01X11980Y11663D01*
G01X11974Y11663D01*
G01X11968Y11663D01*
G01X11962Y11663D01*
G01X11957Y11662D01*
G01X11951Y11661D01*
G01X11945Y11660D01*
G01X11940Y11659D01*
G01X11934Y11658D01*
G01X11928Y11657D01*
G01X11923Y11655D01*
G01X11918Y11653D01*
G01X11912Y11651D01*
G01X11907Y11649D01*
G01X11902Y11647D01*
G01X11896Y11644D01*
G01X11891Y11642D01*
G01X11886Y11639D01*
G01X11881Y11636D01*
G01X11876Y11633D01*
G01X11872Y11630D01*
G01X11867Y11627D01*
G01X11862Y11623D01*
G01X11858Y11619D01*
G01X11854Y11616D01*
G01X11849Y11612D01*
G01X11845Y11608D01*
G01X11715Y11478D01*
G01X11711Y11474D01*
G01X11707Y11469D01*
G01X11704Y11465D01*
G01X11700Y11461D01*
G01X11696Y11456D01*
G01X11693Y11451D01*
G01X11690Y11447D01*
G01X11687Y11442D01*
G01X11684Y11437D01*
G01X11681Y11432D01*
G01X11679Y11427D01*
G01X11676Y11421D01*
G01X11674Y11416D01*
G01X11672Y11411D01*
G01X11670Y11405D01*
G01X11668Y11400D01*
G01X11666Y11395D01*
G01X11665Y11389D01*
G01X11664Y11383D01*
G01X11663Y11378D01*
G01X11662Y11372D01*
G01X11661Y11366D01*
G01X11660Y11361D01*
G01X11660Y11355D01*
G01X11660Y11349D01*
G01X11660Y11344D01*
G01X11660Y11034D01*
G01X11114Y11034D01*
G01X11101Y11041D01*
G01X11081Y11050D01*
G01X11060Y11057D01*
G01X11038Y11062D01*
G01X11016Y11065D01*
G01X10994Y11065D01*
G01X10972Y11064D01*
G01X10950Y11060D01*
G01X10929Y11054D01*
G01X10908Y11046D01*
G01X10889Y11036D01*
G01X10870Y11024D01*
G01X10853Y11010D01*
G01X10837Y10995D01*
G01X10823Y10978D01*
G01X10810Y10959D01*
G01X10799Y10940D01*
G01X10791Y10919D01*
G01X10784Y10898D01*
G01X10780Y10877D01*
G01X10778Y10855D01*
G01X10778Y10832D01*
G01X10780Y10810D01*
G01X10784Y10789D01*
G01X10791Y10768D01*
G01X10799Y10747D01*
G01X10810Y10728D01*
G01X10823Y10709D01*
G01X10837Y10692D01*
G01X10853Y10677D01*
G01X10870Y10663D01*
G01X10889Y10651D01*
G01X10908Y10641D01*
G01X10929Y10633D01*
G01X10950Y10627D01*
G01X10972Y10623D01*
G01X10994Y10622D01*
G37*
G36*
G01X19539Y15184D02*
G01X19580Y15185D01*
G01X19621Y15190D01*
G01X19661Y15199D01*
G01X19699Y15212D01*
G01X19737Y15229D01*
G01X19772Y15249D01*
G01X19805Y15273D01*
G01X19836Y15300D01*
G01X19864Y15330D01*
G01X19888Y15363D01*
G01X19910Y15397D01*
G01X19927Y15434D01*
G01X19941Y15473D01*
G01X19951Y15512D01*
G01X19957Y15553D01*
G01X19960Y15594D01*
G01X19957Y15634D01*
G01X19951Y15675D01*
G01X19941Y15714D01*
G01X19927Y15753D01*
G01X19910Y15790D01*
G01X19888Y15824D01*
G01X19864Y15857D01*
G01X19836Y15887D01*
G01X19805Y15914D01*
G01X19772Y15938D01*
G01X19737Y15958D01*
G01X19699Y15975D01*
G01X19661Y15988D01*
G01X19621Y15997D01*
G01X19580Y16002D01*
G01X19539Y16003D01*
G01X19499Y16000D01*
G01X19458Y15993D01*
G01X19419Y15982D01*
G01X19381Y15967D01*
G01X19344Y15949D01*
G01X19310Y15926D01*
G01X19278Y15901D01*
G01X19249Y15872D01*
G01X19223Y15841D01*
G01X19200Y15807D01*
G01X19180Y15771D01*
G01X19164Y15734D01*
G01X19152Y15695D01*
G01X19144Y15655D01*
G01X19140Y15614D01*
G01X19140Y15573D01*
G01X19144Y15532D01*
G01X19152Y15492D01*
G01X19164Y15453D01*
G01X19180Y15416D01*
G01X19200Y15380D01*
G01X19223Y15346D01*
G01X19249Y15315D01*
G01X19278Y15286D01*
G01X19310Y15261D01*
G01X19344Y15238D01*
G01X19381Y15220D01*
G01X19419Y15205D01*
G01X19458Y15194D01*
G01X19499Y15187D01*
G01X19539Y15184D01*
G37*
G36*
G01X19139Y14649D02*
G01X19394Y14649D01*
G01X19394Y14903D01*
G01X19239Y14903D01*
G01X19235Y14903D01*
G01X19231Y14903D01*
G01X19227Y14903D01*
G01X19223Y14902D01*
G01X19219Y14901D01*
G01X19215Y14900D01*
G01X19211Y14899D01*
G01X19207Y14898D01*
G01X19203Y14897D01*
G01X19199Y14895D01*
G01X19196Y14893D01*
G01X19192Y14891D01*
G01X19188Y14889D01*
G01X19185Y14887D01*
G01X19181Y14885D01*
G01X19178Y14882D01*
G01X19175Y14880D01*
G01X19172Y14877D01*
G01X19169Y14874D01*
G01X19166Y14871D01*
G01X19163Y14868D01*
G01X19161Y14865D01*
G01X19158Y14862D01*
G01X19156Y14858D01*
G01X19154Y14855D01*
G01X19152Y14851D01*
G01X19150Y14847D01*
G01X19148Y14844D01*
G01X19146Y14840D01*
G01X19145Y14836D01*
G01X19144Y14832D01*
G01X19143Y14828D01*
G01X19142Y14824D01*
G01X19141Y14820D01*
G01X19140Y14816D01*
G01X19140Y14812D01*
G01X19140Y14808D01*
G01X19139Y14803D01*
G01X19139Y14649D01*
G37*
G36*
G01X8340Y10749D02*
G01X8594Y10749D01*
G01X8594Y11003D01*
G01X8440Y11003D01*
G01X8435Y11003D01*
G01X8431Y11003D01*
G01X8427Y11003D01*
G01X8423Y11002D01*
G01X8419Y11001D01*
G01X8415Y11000D01*
G01X8411Y10999D01*
G01X8407Y10998D01*
G01X8403Y10997D01*
G01X8399Y10995D01*
G01X8396Y10993D01*
G01X8392Y10991D01*
G01X8388Y10989D01*
G01X8385Y10987D01*
G01X8381Y10985D01*
G01X8378Y10982D01*
G01X8375Y10980D01*
G01X8372Y10977D01*
G01X8369Y10974D01*
G01X8366Y10971D01*
G01X8363Y10968D01*
G01X8361Y10965D01*
G01X8358Y10962D01*
G01X8356Y10958D01*
G01X8354Y10955D01*
G01X8352Y10951D01*
G01X8350Y10947D01*
G01X8348Y10944D01*
G01X8346Y10940D01*
G01X8345Y10936D01*
G01X8344Y10932D01*
G01X8343Y10928D01*
G01X8342Y10924D01*
G01X8341Y10920D01*
G01X8340Y10916D01*
G01X8340Y10912D01*
G01X8340Y10908D01*
G01X8340Y10903D01*
G01X8340Y10749D01*
G37*
G36*
G01X19705Y14649D02*
G01X19960Y14649D01*
G01X19960Y14803D01*
G01X19959Y14808D01*
G01X19959Y14812D01*
G01X19959Y14816D01*
G01X19958Y14820D01*
G01X19957Y14824D01*
G01X19956Y14828D01*
G01X19955Y14832D01*
G01X19954Y14836D01*
G01X19953Y14840D01*
G01X19951Y14844D01*
G01X19949Y14847D01*
G01X19947Y14851D01*
G01X19945Y14855D01*
G01X19943Y14858D01*
G01X19941Y14862D01*
G01X19938Y14865D01*
G01X19936Y14868D01*
G01X19933Y14871D01*
G01X19930Y14874D01*
G01X19927Y14877D01*
G01X19924Y14880D01*
G01X19921Y14882D01*
G01X19918Y14885D01*
G01X19914Y14887D01*
G01X19911Y14889D01*
G01X19907Y14891D01*
G01X19903Y14893D01*
G01X19900Y14895D01*
G01X19896Y14897D01*
G01X19892Y14898D01*
G01X19888Y14899D01*
G01X19884Y14900D01*
G01X19880Y14901D01*
G01X19876Y14902D01*
G01X19872Y14903D01*
G01X19868Y14903D01*
G01X19864Y14903D01*
G01X19860Y14903D01*
G01X19705Y14903D01*
G01X19705Y14649D01*
G37*
G36*
G01X9700Y14198D02*
G01X9719Y14199D01*
G01X9739Y14201D01*
G01X9758Y14205D01*
G01X9777Y14212D01*
G01X9795Y14220D01*
G01X9812Y14230D01*
G01X9828Y14241D01*
G01X9843Y14254D01*
G01X9857Y14269D01*
G01X9869Y14285D01*
G01X9879Y14302D01*
G01X9887Y14319D01*
G01X9894Y14338D01*
G01X9899Y14357D01*
G01X9902Y14377D01*
G01X9903Y14397D01*
G01X9902Y14416D01*
G01X9901Y14421D01*
G01X9918Y14413D01*
G01X9936Y14405D01*
G01X9955Y14400D01*
G01X9975Y14397D01*
G01X9995Y14395D01*
G01X10014Y14396D01*
G01X10034Y14398D01*
G01X10053Y14402D01*
G01X10072Y14409D01*
G01X10090Y14417D01*
G01X10098Y14421D01*
G01X10096Y14406D01*
G01X10096Y14387D01*
G01X10098Y14367D01*
G01X10102Y14348D01*
G01X10108Y14329D01*
G01X10116Y14310D01*
G01X10125Y14293D01*
G01X10136Y14277D01*
G01X10149Y14261D01*
G01X10163Y14248D01*
G01X10179Y14235D01*
G01X10195Y14225D01*
G01X10213Y14216D01*
G01X10231Y14208D01*
G01X10250Y14203D01*
G01X10270Y14200D01*
G01X10290Y14198D01*
G01X10309Y14199D01*
G01X10329Y14201D01*
G01X10348Y14205D01*
G01X10367Y14212D01*
G01X10385Y14220D01*
G01X10402Y14230D01*
G01X10418Y14241D01*
G01X10433Y14254D01*
G01X10447Y14269D01*
G01X10459Y14285D01*
G01X10469Y14302D01*
G01X10477Y14319D01*
G01X10484Y14338D01*
G01X10489Y14357D01*
G01X10492Y14377D01*
G01X10493Y14397D01*
G01X10492Y14416D01*
G01X10489Y14436D01*
G01X10484Y14455D01*
G01X10477Y14474D01*
G01X10469Y14491D01*
G01X10459Y14508D01*
G01X10447Y14524D01*
G01X10433Y14539D01*
G01X10418Y14552D01*
G01X10402Y14563D01*
G01X10385Y14573D01*
G01X10367Y14581D01*
G01X10348Y14588D01*
G01X10329Y14592D01*
G01X10317Y14594D01*
G01X10329Y14595D01*
G01X10348Y14599D01*
G01X10367Y14606D01*
G01X10385Y14614D01*
G01X10402Y14624D01*
G01X10418Y14635D01*
G01X10433Y14648D01*
G01X10447Y14663D01*
G01X10459Y14679D01*
G01X10469Y14696D01*
G01X10477Y14713D01*
G01X10484Y14732D01*
G01X10489Y14751D01*
G01X10492Y14771D01*
G01X10493Y14790D01*
G01X10492Y14810D01*
G01X10489Y14830D01*
G01X10484Y14849D01*
G01X10477Y14868D01*
G01X10469Y14885D01*
G01X10459Y14902D01*
G01X10447Y14918D01*
G01X10433Y14933D01*
G01X10418Y14946D01*
G01X10402Y14957D01*
G01X10385Y14967D01*
G01X10367Y14975D01*
G01X10348Y14982D01*
G01X10329Y14986D01*
G01X10309Y14988D01*
G01X10290Y14989D01*
G01X10270Y14987D01*
G01X10250Y14984D01*
G01X10231Y14979D01*
G01X10213Y14971D01*
G01X10195Y14962D01*
G01X10179Y14952D01*
G01X10163Y14939D01*
G01X10149Y14926D01*
G01X10136Y14910D01*
G01X10125Y14894D01*
G01X10116Y14877D01*
G01X10108Y14858D01*
G01X10102Y14839D01*
G01X10098Y14820D01*
G01X10096Y14800D01*
G01X10096Y14781D01*
G01X10098Y14766D01*
G01X10090Y14770D01*
G01X10072Y14778D01*
G01X10053Y14785D01*
G01X10034Y14789D01*
G01X10014Y14791D01*
G01X9995Y14792D01*
G01X9975Y14790D01*
G01X9955Y14787D01*
G01X9936Y14782D01*
G01X9918Y14774D01*
G01X9901Y14766D01*
G01X9902Y14771D01*
G01X9903Y14790D01*
G01X9902Y14810D01*
G01X9899Y14830D01*
G01X9894Y14849D01*
G01X9887Y14868D01*
G01X9879Y14885D01*
G01X9869Y14902D01*
G01X9857Y14918D01*
G01X9843Y14933D01*
G01X9828Y14946D01*
G01X9812Y14957D01*
G01X9795Y14967D01*
G01X9777Y14975D01*
G01X9758Y14982D01*
G01X9739Y14986D01*
G01X9719Y14988D01*
G01X9700Y14989D01*
G01X9680Y14987D01*
G01X9660Y14984D01*
G01X9641Y14979D01*
G01X9623Y14971D01*
G01X9605Y14962D01*
G01X9589Y14952D01*
G01X9573Y14939D01*
G01X9559Y14926D01*
G01X9546Y14910D01*
G01X9535Y14894D01*
G01X9526Y14877D01*
G01X9518Y14858D01*
G01X9512Y14839D01*
G01X9508Y14820D01*
G01X9506Y14800D01*
G01X9506Y14781D01*
G01X9508Y14761D01*
G01X9512Y14742D01*
G01X9518Y14723D01*
G01X9526Y14704D01*
G01X9535Y14687D01*
G01X9546Y14671D01*
G01X9559Y14655D01*
G01X9573Y14642D01*
G01X9589Y14629D01*
G01X9605Y14619D01*
G01X9623Y14610D01*
G01X9641Y14602D01*
G01X9660Y14597D01*
G01X9680Y14594D01*
G01X9680Y14594D01*
G01X9680Y14593D01*
G01X9660Y14590D01*
G01X9641Y14585D01*
G01X9623Y14577D01*
G01X9605Y14568D01*
G01X9589Y14558D01*
G01X9573Y14545D01*
G01X9559Y14532D01*
G01X9546Y14516D01*
G01X9535Y14500D01*
G01X9526Y14483D01*
G01X9518Y14464D01*
G01X9512Y14445D01*
G01X9508Y14426D01*
G01X9506Y14406D01*
G01X9506Y14387D01*
G01X9508Y14367D01*
G01X9512Y14348D01*
G01X9518Y14329D01*
G01X9526Y14310D01*
G01X9535Y14293D01*
G01X9546Y14277D01*
G01X9559Y14261D01*
G01X9573Y14248D01*
G01X9589Y14235D01*
G01X9605Y14225D01*
G01X9623Y14216D01*
G01X9641Y14208D01*
G01X9660Y14203D01*
G01X9680Y14200D01*
G01X9700Y14198D01*
G37*
G36*
G01X19239Y14084D02*
G01X19394Y14084D01*
G01X19394Y14338D01*
G01X19139Y14338D01*
G01X19139Y14184D01*
G01X19140Y14179D01*
G01X19140Y14175D01*
G01X19140Y14171D01*
G01X19141Y14167D01*
G01X19142Y14163D01*
G01X19143Y14159D01*
G01X19144Y14155D01*
G01X19145Y14151D01*
G01X19146Y14147D01*
G01X19148Y14143D01*
G01X19150Y14140D01*
G01X19152Y14136D01*
G01X19154Y14132D01*
G01X19156Y14129D01*
G01X19158Y14125D01*
G01X19161Y14122D01*
G01X19163Y14119D01*
G01X19166Y14116D01*
G01X19169Y14113D01*
G01X19172Y14110D01*
G01X19175Y14107D01*
G01X19178Y14105D01*
G01X19181Y14102D01*
G01X19185Y14100D01*
G01X19188Y14098D01*
G01X19192Y14096D01*
G01X19196Y14094D01*
G01X19199Y14092D01*
G01X19203Y14090D01*
G01X19207Y14089D01*
G01X19211Y14088D01*
G01X19215Y14087D01*
G01X19219Y14086D01*
G01X19223Y14085D01*
G01X19227Y14084D01*
G01X19231Y14084D01*
G01X19235Y14084D01*
G01X19239Y14084D01*
G37*
G36*
G01X19705Y14084D02*
G01X19860Y14084D01*
G01X19864Y14084D01*
G01X19868Y14084D01*
G01X19872Y14084D01*
G01X19876Y14085D01*
G01X19880Y14086D01*
G01X19884Y14087D01*
G01X19888Y14088D01*
G01X19892Y14089D01*
G01X19896Y14090D01*
G01X19900Y14092D01*
G01X19903Y14094D01*
G01X19907Y14096D01*
G01X19911Y14098D01*
G01X19914Y14100D01*
G01X19918Y14102D01*
G01X19921Y14105D01*
G01X19924Y14107D01*
G01X19927Y14110D01*
G01X19930Y14113D01*
G01X19933Y14116D01*
G01X19936Y14119D01*
G01X19938Y14122D01*
G01X19941Y14125D01*
G01X19943Y14129D01*
G01X19945Y14132D01*
G01X19947Y14136D01*
G01X19949Y14140D01*
G01X19951Y14143D01*
G01X19953Y14147D01*
G01X19954Y14151D01*
G01X19955Y14155D01*
G01X19956Y14159D01*
G01X19957Y14163D01*
G01X19958Y14167D01*
G01X19959Y14171D01*
G01X19959Y14175D01*
G01X19959Y14179D01*
G01X19960Y14184D01*
G01X19960Y14338D01*
G01X19705Y14338D01*
G01X19705Y14084D01*
G37*
G36*
G01X19539Y13084D02*
G01X19580Y13085D01*
G01X19621Y13090D01*
G01X19661Y13099D01*
G01X19699Y13112D01*
G01X19737Y13129D01*
G01X19772Y13149D01*
G01X19805Y13173D01*
G01X19836Y13200D01*
G01X19864Y13230D01*
G01X19888Y13263D01*
G01X19910Y13297D01*
G01X19927Y13334D01*
G01X19941Y13373D01*
G01X19951Y13412D01*
G01X19957Y13453D01*
G01X19960Y13494D01*
G01X19957Y13534D01*
G01X19951Y13575D01*
G01X19941Y13614D01*
G01X19927Y13653D01*
G01X19910Y13690D01*
G01X19888Y13724D01*
G01X19864Y13757D01*
G01X19836Y13787D01*
G01X19805Y13814D01*
G01X19772Y13838D01*
G01X19737Y13858D01*
G01X19699Y13875D01*
G01X19661Y13888D01*
G01X19621Y13897D01*
G01X19580Y13902D01*
G01X19539Y13903D01*
G01X19499Y13900D01*
G01X19458Y13893D01*
G01X19419Y13882D01*
G01X19381Y13867D01*
G01X19344Y13849D01*
G01X19310Y13826D01*
G01X19278Y13801D01*
G01X19249Y13772D01*
G01X19223Y13741D01*
G01X19200Y13707D01*
G01X19180Y13671D01*
G01X19164Y13634D01*
G01X19152Y13595D01*
G01X19144Y13555D01*
G01X19140Y13514D01*
G01X19140Y13473D01*
G01X19144Y13432D01*
G01X19152Y13392D01*
G01X19164Y13353D01*
G01X19180Y13316D01*
G01X19200Y13280D01*
G01X19223Y13246D01*
G01X19249Y13215D01*
G01X19278Y13186D01*
G01X19310Y13161D01*
G01X19344Y13138D01*
G01X19381Y13120D01*
G01X19419Y13105D01*
G01X19458Y13094D01*
G01X19499Y13087D01*
G01X19539Y13084D01*
G37*
G36*
G01X19539Y12084D02*
G01X19580Y12085D01*
G01X19621Y12090D01*
G01X19661Y12099D01*
G01X19699Y12112D01*
G01X19737Y12129D01*
G01X19772Y12149D01*
G01X19805Y12173D01*
G01X19836Y12200D01*
G01X19864Y12230D01*
G01X19888Y12263D01*
G01X19910Y12297D01*
G01X19927Y12334D01*
G01X19941Y12373D01*
G01X19951Y12412D01*
G01X19957Y12453D01*
G01X19960Y12494D01*
G01X19957Y12534D01*
G01X19951Y12575D01*
G01X19941Y12614D01*
G01X19927Y12653D01*
G01X19910Y12690D01*
G01X19888Y12724D01*
G01X19864Y12757D01*
G01X19836Y12787D01*
G01X19805Y12814D01*
G01X19772Y12838D01*
G01X19737Y12858D01*
G01X19699Y12875D01*
G01X19661Y12888D01*
G01X19621Y12897D01*
G01X19580Y12902D01*
G01X19539Y12903D01*
G01X19499Y12900D01*
G01X19458Y12893D01*
G01X19419Y12882D01*
G01X19381Y12867D01*
G01X19344Y12849D01*
G01X19310Y12826D01*
G01X19278Y12801D01*
G01X19249Y12772D01*
G01X19223Y12741D01*
G01X19200Y12707D01*
G01X19180Y12671D01*
G01X19164Y12634D01*
G01X19152Y12595D01*
G01X19144Y12555D01*
G01X19140Y12514D01*
G01X19140Y12473D01*
G01X19144Y12432D01*
G01X19152Y12392D01*
G01X19164Y12353D01*
G01X19180Y12316D01*
G01X19200Y12280D01*
G01X19223Y12246D01*
G01X19249Y12215D01*
G01X19278Y12186D01*
G01X19310Y12161D01*
G01X19344Y12138D01*
G01X19381Y12120D01*
G01X19419Y12105D01*
G01X19458Y12094D01*
G01X19499Y12087D01*
G01X19539Y12084D01*
G37*
G36*
G01X10244Y11872D02*
G01X10266Y11872D01*
G01X10288Y11875D01*
G01X10310Y11880D01*
G01X10331Y11887D01*
G01X10351Y11896D01*
G01X10370Y11907D01*
G01X10379Y11913D01*
G01X12070Y11913D01*
G01X12070Y11913D01*
G01X12089Y11901D01*
G01X12108Y11891D01*
G01X12129Y11883D01*
G01X12150Y11877D01*
G01X12172Y11873D01*
G01X12194Y11872D01*
G01X12216Y11872D01*
G01X12238Y11875D01*
G01X12260Y11880D01*
G01X12281Y11887D01*
G01X12301Y11896D01*
G01X12320Y11907D01*
G01X12338Y11920D01*
G01X12355Y11935D01*
G01X12370Y11951D01*
G01X12383Y11968D01*
G01X12394Y11987D01*
G01X12404Y12007D01*
G01X12412Y12028D01*
G01X12417Y12050D01*
G01X12420Y12071D01*
G01X12422Y12094D01*
G01X12420Y12116D01*
G01X12417Y12137D01*
G01X12412Y12159D01*
G01X12404Y12180D01*
G01X12394Y12200D01*
G01X12383Y12219D01*
G01X12370Y12236D01*
G01X12355Y12252D01*
G01X12338Y12267D01*
G01X12320Y12280D01*
G01X12301Y12291D01*
G01X12281Y12300D01*
G01X12260Y12307D01*
G01X12238Y12312D01*
G01X12216Y12315D01*
G01X12194Y12315D01*
G01X12172Y12314D01*
G01X12150Y12310D01*
G01X12129Y12304D01*
G01X12108Y12296D01*
G01X12089Y12286D01*
G01X12070Y12274D01*
G01X12070Y12274D01*
G01X10379Y12274D01*
G01X10370Y12280D01*
G01X10351Y12291D01*
G01X10331Y12300D01*
G01X10310Y12307D01*
G01X10288Y12312D01*
G01X10266Y12315D01*
G01X10244Y12315D01*
G01X10222Y12314D01*
G01X10200Y12310D01*
G01X10179Y12304D01*
G01X10158Y12296D01*
G01X10139Y12286D01*
G01X10120Y12274D01*
G01X10103Y12260D01*
G01X10087Y12245D01*
G01X10073Y12228D01*
G01X10060Y12209D01*
G01X10049Y12190D01*
G01X10041Y12169D01*
G01X10034Y12148D01*
G01X10030Y12127D01*
G01X10028Y12105D01*
G01X10028Y12082D01*
G01X10030Y12060D01*
G01X10034Y12039D01*
G01X10041Y12018D01*
G01X10049Y11997D01*
G01X10060Y11978D01*
G01X10073Y11959D01*
G01X10087Y11942D01*
G01X10103Y11927D01*
G01X10120Y11913D01*
G01X10139Y11901D01*
G01X10158Y11891D01*
G01X10179Y11883D01*
G01X10200Y11877D01*
G01X10222Y11873D01*
G01X10244Y11872D01*
G37*

%LPD*%
G54D14*
G01X10250Y12094D02*
G01X12200Y12094D01*
G54D12*
G01X16400Y11394D02*
G01X18200Y11394D01*
G01X18400Y11194D01*
G01X18400Y10594D01*
G01X18500Y10494D01*
G01X19150Y10494D01*
G01X19250Y10394D01*
G01X19250Y9344D01*
G01X19150Y9244D01*
G01X18650Y9244D01*
G54D13*
G01X8880Y19184D02*
G01X8880Y19184D01*
G01X8400Y19663D01*
G01X8400Y19663D02*
G01X8309Y19753D01*
G01X8309Y20003D01*
G54D12*
G01X19779Y18883D02*
G01X17239Y18883D01*
G01X17050Y18694D01*
G01X17050Y16044D01*
G01X16800Y15794D01*
G01X11782Y19713D02*
G01X10280Y19713D01*
G01X9450Y20544D01*
G01X7950Y20544D01*
G01X7500Y20094D01*
G54D13*
G01X11000Y10844D02*
G01X11750Y10844D01*
G01X11850Y10944D01*
G01X11850Y11344D01*
G01X11980Y11474D01*
G01X12869Y11474D01*
G01X12969Y11574D01*
G54D12*
G01X18900Y16294D02*
G01X18900Y13644D01*
G01X18900Y11894D01*
G01X19050Y11744D01*
G01X19700Y11744D01*
G01X19950Y11494D01*
G01X19950Y10975D01*
G01X19950Y9844D01*
G01X20250Y9544D01*
G01X20250Y9194D01*
G54D14*
G01X17200Y12644D02*
G01X16950Y12394D01*
G01X16050Y12394D01*
G01X15850Y12194D01*
G01X15850Y11794D01*
G01X15500Y11444D01*
G01X15500Y9194D01*
G01X15400Y9094D01*
G01X12600Y9094D01*
G01X12350Y8844D01*
G01X9719Y8844D01*
G01X9230Y8353D01*
G01X15860Y10403D02*
G01X16550Y11094D01*
G01X17500Y11094D01*
G01X15860Y10403D02*
G01X15860Y9053D01*
G01X15600Y8794D01*
G01X14350Y8794D01*
G54D18*
G01X6571Y6922D02*
G01X6571Y7465D01*
G01X7600Y8494D01*
G54D15*
G01X9200Y16453D02*
G01X8709Y16453D01*
G01X8300Y16044D01*
G01X8300Y12394D01*
G01X8450Y12244D01*
G01X9050Y12244D01*
G01X9300Y11994D01*
G01X9300Y10194D01*
G01X7600Y8494D01*
G54D13*
G01X18206Y12044D02*
G01X18500Y12044D01*
G01X18650Y11894D01*
G01X18650Y11574D01*
G01X18800Y11424D01*
G01X19469Y11424D01*
G01X19600Y11303D01*
G01X19600Y10594D01*
G54D12*
G01X13080Y16834D02*
G01X13080Y16874D01*
G01X13200Y16994D01*
G01X16650Y16994D01*
G01X16750Y16894D01*
G54D17*
G01X12450Y19894D02*
G01X12850Y19894D01*
G01X13200Y20244D01*
G01X21100Y20244D01*
G54D12*
G01X11782Y19713D02*
G01X11930Y19713D01*
G01X12100Y19544D01*
G01X12100Y19544D02*
G01X13300Y19544D01*
G01X13300Y19544D02*
G01X13450Y19394D01*
G01X13450Y18944D01*
G01X13650Y18744D01*
G01X17950Y19144D02*
G01X17200Y19144D01*
G01X17000Y18944D01*
G01X16650Y18944D01*
G01X16550Y19044D01*
G01X16550Y19044D02*
G01X16300Y19294D01*
G01X14500Y19294D01*
G01X13950Y18744D01*
G01X13650Y18744D01*
G01X18300Y16494D02*
G01X18700Y16494D01*
G01X18825Y16369D01*
G01X18900Y16294D01*
G54D11*
G01X17950Y16544D02*
G01X17950Y18444D01*
G54D12*
G01X17950Y16544D02*
G01X17950Y16394D01*
G01X17750Y16194D01*
G01X17750Y15344D01*
G01X17400Y14994D01*
G54D43*
G01X19550Y16594D03*
G54D44*
G01X19550Y15594D03*
G01X19550Y12494D03*
G01X19550Y13494D03*
G54D43*
G01X19550Y14494D03*
G01X8750Y10594D03*
G54D44*
G01X8750Y11594D03*
G54D45*
G01X21422Y6765D03*
G01X21777Y7122D03*
G01X6571Y6922D03*
G01X6928Y6565D03*
G01X22427Y22315D03*
G01X22072Y22672D03*
G01X6228Y22572D03*
G01X5871Y22215D03*
G54D46*
G01X9200Y16453D03*
G01X9200Y17234D03*
G54D47*
G01X16398Y18527D03*
G01X14493Y18527D03*
G54D22*
G01X10000Y14594D03*
G01X9705Y14790D03*
G01X9705Y14397D03*
G01X10294Y14397D03*
G01X10294Y14790D03*
G01X11250Y18744D03*
G01X11052Y18449D03*
G01X11447Y18449D03*
G01X11447Y19038D03*
G01X11052Y19038D03*
G54D23*
G01X12200Y12094D03*
G01X16400Y11394D03*
G01X18650Y9244D03*
G01X8880Y19184D03*
G01X8650Y18544D03*
G01X8650Y18244D03*
G01X8650Y18844D03*
G01X8950Y18244D03*
G01X9250Y18244D03*
G01X8950Y18544D03*
G01X9550Y18244D03*
G01X9850Y18244D03*
G01X19780Y18884D03*
G01X16800Y15794D03*
G01X11050Y14844D03*
G01X11050Y14544D03*
G01X13000Y15524D03*
G01X13300Y15524D03*
G01X13600Y15524D03*
G01X13900Y15524D03*
G01X14200Y15524D03*
G01X14500Y15524D03*
G01X14800Y15524D03*
G01X15100Y15524D03*
G01X13000Y15224D03*
G01X13300Y15224D03*
G01X13600Y15224D03*
G01X13900Y15224D03*
G01X14200Y15224D03*
G01X14500Y15224D03*
G01X14800Y15224D03*
G01X15100Y15224D03*
G01X13000Y14924D03*
G01X13300Y14924D03*
G01X13600Y14924D03*
G01X13900Y14924D03*
G01X14200Y14924D03*
G01X14500Y14924D03*
G01X14800Y14924D03*
G01X15100Y14924D03*
G01X13000Y14624D03*
G01X13300Y14624D03*
G01X13600Y14624D03*
G01X13900Y14624D03*
G01X14200Y14624D03*
G01X14500Y14624D03*
G01X14800Y14624D03*
G01X15100Y14624D03*
G01X13000Y14324D03*
G01X13300Y14324D03*
G01X13600Y14324D03*
G01X13900Y14324D03*
G01X14200Y14324D03*
G01X14500Y14324D03*
G01X14800Y14324D03*
G01X15100Y14324D03*
G01X13000Y14024D03*
G01X13300Y14024D03*
G01X13600Y14024D03*
G01X13900Y14024D03*
G01X14200Y14024D03*
G01X14500Y14024D03*
G01X14800Y14024D03*
G01X15100Y14024D03*
G01X13000Y13724D03*
G01X13300Y13724D03*
G01X13600Y13724D03*
G01X13900Y13724D03*
G01X14200Y13724D03*
G01X14500Y13724D03*
G01X14800Y13724D03*
G01X15100Y13724D03*
G01X13000Y13424D03*
G01X13300Y13424D03*
G01X13600Y13424D03*
G01X13900Y13424D03*
G01X14200Y13424D03*
G01X14500Y13424D03*
G01X14800Y13424D03*
G01X15100Y13424D03*
G01X13650Y18224D03*
G01X15950Y16394D03*
G01X15950Y16694D03*
G01X16250Y16694D03*
G01X7500Y20094D03*
G01X8309Y20003D03*
G01X12969Y11574D03*
G01X11000Y10844D03*
G01X9230Y8353D03*
G01X20250Y9194D03*
G01X17200Y12644D03*
G01X15860Y10403D03*
G01X17500Y11094D03*
G01X14350Y8794D03*
G01X10250Y12094D03*
G01X18206Y12044D03*
G01X19600Y10594D03*
G01X13080Y16834D03*
G01X16750Y16894D03*
G01X16250Y16394D03*
G01X16250Y17294D03*
G01X12450Y19894D03*
G01X21100Y20244D03*
G01X13660Y18494D03*
G01X17950Y19144D03*
G01X17850Y8644D03*
G01X18100Y8644D03*
G01X18350Y8644D03*
G01X18200Y12644D03*
G01X18300Y16844D03*
G01X18300Y17144D03*
G01X18300Y17444D03*
G01X9700Y10544D03*
G01X9950Y10544D03*
G01X10200Y10544D03*
G01X21000Y19494D03*
G01X21200Y19694D03*
G01X21400Y19894D03*
G01X11250Y16944D03*
G01X13389Y11653D03*
G01X15160Y10524D03*
G01X15200Y10094D03*
G01X15150Y10994D03*
G01X18980Y11044D03*
G01X19250Y11044D03*
G01X12769Y16574D03*
G01X13130Y9544D03*
G01X13760Y9544D03*
G01X18300Y16494D03*
G01X17950Y18444D03*
G01X17395Y14998D03*
G01X6200Y20744D03*
G01X6400Y20544D03*
G01X7669Y20953D03*
G54D48*
G01X14025Y19412D02*
G01X14025Y19767D01*
G01X16875Y19412D02*
G01X16875Y19767D01*
M00*
M02*
