;PTH Drill file created by EasyEDA 
M48
INCH,LZ,00.0000
;Holesize 1 = 0.008 INCH
T01C0.008
;Holesize 2 = 0.012 INCH
T02C0.012
;Holesize 3 = 0.024 INCH
T03C0.024
;Holesize 4 = 0.028 INCH
T04C0.028
;Holesize 5 = 0.035 INCH
T05C0.035
;Holesize 6 = 0.035 INCH
T06C0.035
;Holesize 7 = 0.036 INCH
T07C0.036
%
G05
G90
T01
X+010000Y+014594
X+009705Y+014790
X+009705Y+014397
X+010294Y+014397
X+010294Y+014790
X+011250Y+018744
X+011052Y+018449
X+011447Y+018449
X+011447Y+019038
X+011052Y+019038
T02
X+012200Y+012094
X+016400Y+011394
X+018650Y+009244
X+008880Y+019184
X+019780Y+018884
X+016800Y+015794
X+011050Y+014844
X+011050Y+014544
X+013000Y+015524
X+013300Y+015524
X+013600Y+015524
X+013900Y+015524
X+014200Y+015524
X+014500Y+015524
X+014800Y+015524
X+015100Y+015524
X+013000Y+015224
X+013300Y+015224
X+013600Y+015224
X+013900Y+015224
X+014200Y+015224
X+014500Y+015224
X+014800Y+015224
X+015100Y+015224
X+013000Y+014924
X+013300Y+014924
X+013600Y+014924
X+013900Y+014924
X+014200Y+014924
X+014500Y+014924
X+014800Y+014924
X+015100Y+014924
X+013000Y+014624
X+013300Y+014624
X+013600Y+014624
X+013900Y+014624
X+014200Y+014624
X+014500Y+014624
X+014800Y+014624
X+015100Y+014624
X+013000Y+014324
X+013300Y+014324
X+013600Y+014324
X+013900Y+014324
X+014200Y+014324
X+014500Y+014324
X+014800Y+014324
X+015100Y+014324
X+013000Y+014024
X+013300Y+014024
X+013600Y+014024
X+013900Y+014024
X+014200Y+014024
X+014500Y+014024
X+014800Y+014024
X+015100Y+014024
X+013000Y+013724
X+013300Y+013724
X+013600Y+013724
X+013900Y+013724
X+014200Y+013724
X+014500Y+013724
X+014800Y+013724
X+015100Y+013724
X+013000Y+013424
X+013300Y+013424
X+013600Y+013424
X+013900Y+013424
X+014200Y+013424
X+014500Y+013424
X+014800Y+013424
X+015100Y+013424
X+013650Y+018224
X+015950Y+016394
X+015950Y+016694
X+016250Y+016694
X+007500Y+020094
X+008309Y+020003
X+012969Y+011574
X+011000Y+010844
X+009180Y+008284
X+020250Y+009194
X+017200Y+012644
X+015860Y+010403
X+017500Y+011094
X+014350Y+008794
X+010250Y+012094
X+018206Y+012044
X+019600Y+010594
X+013080Y+016834
X+016750Y+016894
X+016250Y+016394
X+016250Y+017294
X+012450Y+019874
X+021100Y+020244
X+013660Y+018494
X+017950Y+019144
X+017850Y+008644
X+018100Y+008644
X+018350Y+008644
X+018200Y+012644
X+018300Y+016844
X+018300Y+017144
X+018300Y+017444
X+009700Y+010544
X+009950Y+010544
X+010200Y+010544
X+021000Y+019494
X+021200Y+019694
X+021400Y+019894
X+011350Y+016974
X+013389Y+011653
X+015160Y+010524
X+015200Y+010094
X+015150Y+010994
X+018980Y+011044
X+019250Y+011044
X+012769Y+016574
X+013130Y+009544
X+013760Y+009544
X+018300Y+016494
X+017950Y+018444
X+017395Y+014998
X+006200Y+020744
X+006400Y+020544
X+007669Y+020953
X+019980Y+008374
X+008380Y+008563
X+011200Y+011584
X+023069Y+006213
X+010760Y+010194
X+010750Y+008644
X+011750Y+008644
X+011300Y+009494
X+011600Y+009494
X+011900Y+009494
X+009426Y+017415
X+008750Y+018594
X+008800Y+021244
X+009050Y+020994
T03
X+021422Y+006765
X+021777Y+007122
X+006571Y+006922
X+006928Y+006565
X+022427Y+022315
X+022072Y+022672
X+006228Y+022572
X+005871Y+022215
T04
X+014025Y+019747G85X+014025Y+019432
X+016875Y+019747G85X+016875Y+019432
T05
X+019550Y+016594
X+019550Y+015594
X+019550Y+012494
X+019550Y+013494
X+019550Y+014494
X+008750Y+010594
X+008750Y+011594
T06
X+016398Y+018527
X+014493Y+018527
T07
X+008750Y+016194
X+008750Y+016994
M30
