G04 ---------------------------- Layer name :BOTTOM SOLDER LAYER*
G04 EasyEDA v5.6.15, Thu, 26 Jul 2018 23:13:41 GMT*
G04 a350aba4d1a84c778ca10979b53d7052*
G04 Gerber Generator version 0.2*
G04 Scale: 100 percent, Rotated: No, Reflected: No *
G04 Dimensions in inches *
G04 leading zeros omitted , absolute positions ,2 integer and 4 decimal *
%FSLAX24Y24*%
%MOIN*%
G90*
G70D02*

%ADD32R,0.075500X0.075500*%
%ADD33R,0.032500X0.019500*%
%ADD34R,0.021500X0.021500*%
%ADD35R,0.019500X0.032500*%
%ADD36R,0.055244X0.055244*%
%ADD37R,0.049732X0.033591*%
%ADD38R,0.061500X0.079500*%
%ADD39R,0.065870X0.053670*%
%ADD40R,0.035560X0.059181*%
%ADD41R,0.019810X0.035560*%
%ADD42R,0.078000X0.058000*%
%ADD57C,0.059181*%
%ADD58C,0.067055*%
%ADD59R,0.047370X0.051307*%
%ADD60R,0.051307X0.047370*%

%LPD*%
G54D57*
G01X6225Y1024D02*
G01X6225Y669D01*
G01X3375Y1024D02*
G01X3375Y669D01*
G54D58*
G01X3851Y1909D03*
G01X5757Y1909D03*
G54D32*
G01X2399Y3192D03*
G54D33*
G01X2929Y2902D03*
G01X2929Y3092D03*
G01X2929Y3292D03*
G01X2929Y3492D03*
G54D34*
G01X2899Y3692D03*
G54D35*
G01X2689Y3722D03*
G01X2499Y3722D03*
G01X2299Y3722D03*
G01X2099Y3722D03*
G54D34*
G01X1899Y3692D03*
G54D33*
G01X1869Y3492D03*
G01X1869Y3292D03*
G01X1869Y3092D03*
G01X1869Y2902D03*
G54D34*
G01X1899Y2692D03*
G54D35*
G01X2099Y2662D03*
G01X2299Y2662D03*
G01X2499Y2662D03*
G01X2689Y2662D03*
G54D34*
G01X2899Y2692D03*
G54D59*
G01X8144Y3242D03*
G01X7513Y3242D03*
G54D36*
G01X6550Y3392D03*
G01X5842Y3392D03*
G54D37*
G01X8300Y2492D03*
G01X8300Y2119D03*
G01X8300Y1744D03*
G01X7434Y1744D03*
G01X7434Y2492D03*
G54D38*
G01X9110Y3692D03*
G01X9110Y2402D03*
G54D39*
G01X6650Y2542D03*
G01X6650Y1742D03*
G54D60*
G01X449Y3098D03*
G01X449Y3728D03*
G54D40*
G01X8456Y7840D03*
G01X9244Y7840D03*
G01X8456Y6344D03*
G01X9244Y6344D03*
G54D41*
G01X8250Y7092D03*
G01X9450Y7092D03*
G54D60*
G01X8050Y9136D03*
G01X8050Y8506D03*
G54D59*
G01X1005Y1843D03*
G01X1636Y1843D03*
G01X2055Y443D03*
G01X2686Y443D03*
G01X3134Y4282D03*
G01X2503Y4282D03*
G01X1105Y4543D03*
G01X1736Y4543D03*
G54D42*
G01X450Y5692D03*
G01X450Y6492D03*
G01X450Y4892D03*
M00*
M02*
