G04 ---------------------------- Layer name :BOTTOM SILK LAYER*
G04 EasyEDA v5.8.19, Tue, 23 Oct 2018 03:45:39 GMT*
G04 c271f884b48f468e9f27791542bbc0a4*
G04 Gerber Generator version 0.2*
G04 Scale: 100 percent, Rotated: No, Reflected: No *
G04 Dimensions in inches *
G04 leading zeros omitted , absolute positions ,2 integer and 4 decimal *
%FSLAX24Y24*%
%MOIN*%
G90*
G70D02*

%ADD54C,0.008000*%

%LPD*%

%LPD*%
G36*
G01X14450Y17144D02*
G01X14450Y17144D01*
G01X14450Y17144D01*
G01X14452Y17140D01*
G01X14455Y17133D01*
G01X14459Y17123D01*
G01X14464Y17109D01*
G01X14469Y17092D01*
G01X14474Y17072D01*
G01X14480Y17050D01*
G01X14486Y17025D01*
G01X14492Y16998D01*
G01X14499Y16969D01*
G01X14506Y16938D01*
G01X14513Y16905D01*
G01X14520Y16871D01*
G01X14527Y16835D01*
G01X14534Y16798D01*
G01X14542Y16761D01*
G01X14542Y16761D01*
G01X14549Y16723D01*
G01X14556Y16686D01*
G01X14563Y16651D01*
G01X14570Y16617D01*
G01X14576Y16584D01*
G01X14583Y16553D01*
G01X14589Y16524D01*
G01X14595Y16497D01*
G01X14601Y16472D01*
G01X14606Y16450D01*
G01X14610Y16430D01*
G01X14615Y16413D01*
G01X14618Y16400D01*
G01X14622Y16390D01*
G01X14624Y16383D01*
G01X14626Y16379D01*
G01X14626Y16379D01*
G01X14630Y16377D01*
G01X14639Y16372D01*
G01X14651Y16367D01*
G01X14667Y16359D01*
G01X14687Y16351D01*
G01X14709Y16341D01*
G01X14734Y16330D01*
G01X14762Y16319D01*
G01X14791Y16306D01*
G01X14822Y16293D01*
G01X14855Y16280D01*
G01X14889Y16266D01*
G01X14889Y16266D01*
G01X14922Y16252D01*
G01X14955Y16239D01*
G01X14986Y16227D01*
G01X15016Y16215D01*
G01X15044Y16205D01*
G01X15069Y16195D01*
G01X15092Y16186D01*
G01X15112Y16179D01*
G01X15129Y16173D01*
G01X15142Y16169D01*
G01X15151Y16166D01*
G01X15156Y16165D01*
G01X15156Y16165D01*
G01X15160Y16166D01*
G01X15166Y16170D01*
G01X15176Y16175D01*
G01X15188Y16182D01*
G01X15202Y16190D01*
G01X15218Y16200D01*
G01X15237Y16212D01*
G01X15258Y16225D01*
G01X15280Y16240D01*
G01X15304Y16256D01*
G01X15329Y16273D01*
G01X15356Y16291D01*
G01X15384Y16309D01*
G01X15413Y16329D01*
G01X15442Y16349D01*
G01X15473Y16370D01*
G01X15473Y16370D01*
G01X15503Y16391D01*
G01X15533Y16411D01*
G01X15562Y16431D01*
G01X15590Y16449D01*
G01X15617Y16467D01*
G01X15643Y16484D01*
G01X15668Y16500D01*
G01X15691Y16514D01*
G01X15712Y16528D01*
G01X15731Y16539D01*
G01X15749Y16550D01*
G01X15764Y16558D01*
G01X15777Y16565D01*
G01X15787Y16570D01*
G01X15795Y16573D01*
G01X15799Y16574D01*
G01X15799Y16574D01*
G01X15804Y16573D01*
G01X15810Y16569D01*
G01X15819Y16563D01*
G01X15831Y16555D01*
G01X15844Y16544D01*
G01X15859Y16532D01*
G01X15875Y16517D01*
G01X15894Y16501D01*
G01X15913Y16484D01*
G01X15934Y16465D01*
G01X15956Y16444D01*
G01X15979Y16422D01*
G01X16003Y16400D01*
G01X16027Y16376D01*
G01X16052Y16351D01*
G01X16078Y16326D01*
G01X16078Y16326D01*
G01X16103Y16300D01*
G01X16128Y16275D01*
G01X16151Y16251D01*
G01X16174Y16228D01*
G01X16196Y16205D01*
G01X16216Y16183D01*
G01X16235Y16163D01*
G01X16253Y16144D01*
G01X16269Y16126D01*
G01X16283Y16110D01*
G01X16296Y16096D01*
G01X16306Y16083D01*
G01X16315Y16073D01*
G01X16321Y16065D01*
G01X16325Y16059D01*
G01X16326Y16055D01*
G01X16326Y16055D01*
G01X16325Y16051D01*
G01X16322Y16045D01*
G01X16317Y16035D01*
G01X16310Y16023D01*
G01X16301Y16009D01*
G01X16291Y15992D01*
G01X16279Y15973D01*
G01X16266Y15952D01*
G01X16251Y15930D01*
G01X16236Y15906D01*
G01X16219Y15880D01*
G01X16201Y15853D01*
G01X16182Y15825D01*
G01X16162Y15796D01*
G01X16142Y15766D01*
G01X16121Y15736D01*
G01X16121Y15736D01*
G01X16101Y15706D01*
G01X16080Y15676D01*
G01X16061Y15647D01*
G01X16042Y15619D01*
G01X16024Y15592D01*
G01X16007Y15567D01*
G01X15992Y15543D01*
G01X15977Y15520D01*
G01X15964Y15499D01*
G01X15952Y15481D01*
G01X15942Y15464D01*
G01X15934Y15449D01*
G01X15927Y15437D01*
G01X15922Y15428D01*
G01X15919Y15421D01*
G01X15918Y15418D01*
G01X15918Y15418D01*
G01X15919Y15412D01*
G01X15922Y15403D01*
G01X15927Y15389D01*
G01X15934Y15371D01*
G01X15942Y15350D01*
G01X15952Y15325D01*
G01X15963Y15298D01*
G01X15975Y15269D01*
G01X15988Y15237D01*
G01X16002Y15204D01*
G01X16017Y15169D01*
G01X16032Y15133D01*
G01X16146Y14870D01*
G01X16474Y14806D01*
G01X16474Y14806D01*
G01X16508Y14800D01*
G01X16541Y14793D01*
G01X16574Y14787D01*
G01X16606Y14781D01*
G01X16636Y14775D01*
G01X16665Y14769D01*
G01X16693Y14764D01*
G01X16719Y14759D01*
G01X16744Y14754D01*
G01X16766Y14749D01*
G01X16786Y14745D01*
G01X16804Y14742D01*
G01X16819Y14739D01*
G01X16832Y14736D01*
G01X16841Y14734D01*
G01X16847Y14733D01*
G01X16847Y14733D01*
G01X16855Y14731D01*
G01X16861Y14729D01*
G01X16867Y14726D01*
G01X16872Y14722D01*
G01X16877Y14715D01*
G01X16880Y14706D01*
G01X16883Y14693D01*
G01X16885Y14677D01*
G01X16887Y14656D01*
G01X16888Y14631D01*
G01X16889Y14600D01*
G01X16890Y14564D01*
G01X16891Y14520D01*
G01X16891Y14470D01*
G01X16891Y14412D01*
G01X16891Y14346D01*
G01X16891Y14346D01*
G01X16891Y14285D01*
G01X16891Y14231D01*
G01X16890Y14183D01*
G01X16890Y14141D01*
G01X16889Y14105D01*
G01X16888Y14074D01*
G01X16887Y14048D01*
G01X16885Y14026D01*
G01X16883Y14008D01*
G01X16881Y13994D01*
G01X16878Y13983D01*
G01X16875Y13974D01*
G01X16871Y13967D01*
G01X16867Y13963D01*
G01X16862Y13960D01*
G01X16857Y13958D01*
G01X16857Y13958D01*
G01X16849Y13956D01*
G01X16837Y13953D01*
G01X16820Y13950D01*
G01X16800Y13946D01*
G01X16775Y13941D01*
G01X16747Y13936D01*
G01X16716Y13930D01*
G01X16682Y13924D01*
G01X16647Y13918D01*
G01X16609Y13911D01*
G01X16570Y13904D01*
G01X16530Y13897D01*
G01X16530Y13897D01*
G01X16491Y13890D01*
G01X16452Y13883D01*
G01X16414Y13876D01*
G01X16378Y13869D01*
G01X16344Y13863D01*
G01X16313Y13856D01*
G01X16284Y13851D01*
G01X16259Y13845D01*
G01X16237Y13840D01*
G01X16220Y13836D01*
G01X16207Y13833D01*
G01X16199Y13830D01*
G01X16199Y13830D01*
G01X16192Y13826D01*
G01X16184Y13818D01*
G01X16175Y13807D01*
G01X16165Y13792D01*
G01X16154Y13773D01*
G01X16142Y13751D01*
G01X16129Y13724D01*
G01X16115Y13694D01*
G01X16100Y13659D01*
G01X16083Y13620D01*
G01X16065Y13577D01*
G01X16046Y13529D01*
G01X16046Y13529D01*
G01X16031Y13490D01*
G01X16016Y13453D01*
G01X16003Y13416D01*
G01X15990Y13382D01*
G01X15979Y13350D01*
G01X15969Y13321D01*
G01X15960Y13294D01*
G01X15953Y13271D01*
G01X15947Y13252D01*
G01X15944Y13236D01*
G01X15942Y13226D01*
G01X15942Y13220D01*
G01X15942Y13220D01*
G01X15944Y13216D01*
G01X15948Y13209D01*
G01X15954Y13200D01*
G01X15961Y13189D01*
G01X15970Y13175D01*
G01X15980Y13160D01*
G01X15991Y13142D01*
G01X16004Y13123D01*
G01X16018Y13102D01*
G01X16033Y13080D01*
G01X16049Y13056D01*
G01X16066Y13031D01*
G01X16083Y13006D01*
G01X16101Y12979D01*
G01X16120Y12952D01*
G01X16139Y12924D01*
G01X16139Y12924D01*
G01X16164Y12887D01*
G01X16189Y12851D01*
G01X16212Y12817D01*
G01X16233Y12784D01*
G01X16253Y12754D01*
G01X16271Y12726D01*
G01X16287Y12701D01*
G01X16300Y12679D01*
G01X16311Y12661D01*
G01X16319Y12647D01*
G01X16324Y12637D01*
G01X16326Y12632D01*
G01X16326Y12632D01*
G01X16325Y12628D01*
G01X16321Y12622D01*
G01X16314Y12614D01*
G01X16305Y12603D01*
G01X16294Y12590D01*
G01X16281Y12576D01*
G01X16266Y12559D01*
G01X16250Y12541D01*
G01X16231Y12521D01*
G01X16211Y12500D01*
G01X16190Y12477D01*
G01X16167Y12454D01*
G01X16143Y12429D01*
G01X16118Y12404D01*
G01X16092Y12378D01*
G01X16066Y12352D01*
G01X15806Y12092D01*
G01X15517Y12289D01*
G01X15517Y12289D01*
G01X15488Y12309D01*
G01X15459Y12328D01*
G01X15431Y12347D01*
G01X15403Y12365D01*
G01X15377Y12382D01*
G01X15352Y12398D01*
G01X15329Y12413D01*
G01X15307Y12427D01*
G01X15287Y12440D01*
G01X15269Y12451D01*
G01X15252Y12461D01*
G01X15238Y12470D01*
G01X15226Y12476D01*
G01X15217Y12481D01*
G01X15211Y12484D01*
G01X15207Y12485D01*
G01X15207Y12485D01*
G01X15200Y12484D01*
G01X15188Y12480D01*
G01X15173Y12473D01*
G01X15154Y12465D01*
G01X15132Y12455D01*
G01X15108Y12443D01*
G01X15083Y12431D01*
G01X15057Y12417D01*
G01X15057Y12417D01*
G01X15023Y12399D01*
G01X14994Y12385D01*
G01X14970Y12375D01*
G01X14951Y12368D01*
G01X14936Y12365D01*
G01X14925Y12365D01*
G01X14916Y12367D01*
G01X14909Y12373D01*
G01X14909Y12373D01*
G01X14905Y12381D01*
G01X14898Y12392D01*
G01X14890Y12408D01*
G01X14881Y12427D01*
G01X14872Y12449D01*
G01X14861Y12473D01*
G01X14851Y12498D01*
G01X14840Y12524D01*
G01X14840Y12524D01*
G01X14836Y12534D01*
G01X14832Y12545D01*
G01X14826Y12559D01*
G01X14820Y12574D01*
G01X14813Y12590D01*
G01X14806Y12608D01*
G01X14798Y12628D01*
G01X14789Y12649D01*
G01X14780Y12671D01*
G01X14770Y12695D01*
G01X14760Y12719D01*
G01X14750Y12745D01*
G01X14739Y12771D01*
G01X14728Y12799D01*
G01X14716Y12827D01*
G01X14704Y12855D01*
G01X14692Y12885D01*
G01X14680Y12915D01*
G01X14667Y12945D01*
G01X14655Y12975D01*
G01X14642Y13006D01*
G01X14629Y13037D01*
G01X14616Y13068D01*
G01X14603Y13098D01*
G01X14603Y13098D01*
G01X14588Y13135D01*
G01X14573Y13171D01*
G01X14559Y13207D01*
G01X14545Y13241D01*
G01X14531Y13275D01*
G01X14518Y13307D01*
G01X14506Y13338D01*
G01X14494Y13368D01*
G01X14482Y13397D01*
G01X14472Y13423D01*
G01X14462Y13448D01*
G01X14453Y13472D01*
G01X14445Y13493D01*
G01X14438Y13512D01*
G01X14432Y13529D01*
G01X14427Y13543D01*
G01X14423Y13555D01*
G01X14420Y13565D01*
G01X14418Y13572D01*
G01X14418Y13576D01*
G01X14418Y13576D01*
G01X14424Y13591D01*
G01X14441Y13610D01*
G01X14467Y13632D01*
G01X14498Y13653D01*
G01X14498Y13653D01*
G01X14515Y13665D01*
G01X14536Y13680D01*
G01X14558Y13698D01*
G01X14581Y13717D01*
G01X14604Y13738D01*
G01X14627Y13760D01*
G01X14649Y13782D01*
G01X14669Y13803D01*
G01X14669Y13803D01*
G01X14689Y13825D01*
G01X14709Y13849D01*
G01X14728Y13874D01*
G01X14747Y13900D01*
G01X14765Y13926D01*
G01X14780Y13950D01*
G01X14794Y13973D01*
G01X14804Y13993D01*
G01X14804Y13993D01*
G01X14813Y14013D01*
G01X14822Y14036D01*
G01X14831Y14060D01*
G01X14840Y14086D01*
G01X14848Y14112D01*
G01X14856Y14137D01*
G01X14863Y14161D01*
G01X14868Y14183D01*
G01X14868Y14183D01*
G01X14872Y14207D01*
G01X14875Y14234D01*
G01X14878Y14263D01*
G01X14880Y14295D01*
G01X14880Y14327D01*
G01X14880Y14359D01*
G01X14879Y14391D01*
G01X14877Y14422D01*
G01X14877Y14422D01*
G01X14875Y14445D01*
G01X14872Y14468D01*
G01X14868Y14490D01*
G01X14864Y14512D01*
G01X14859Y14534D01*
G01X14853Y14555D01*
G01X14847Y14576D01*
G01X14840Y14597D01*
G01X14832Y14618D01*
G01X14824Y14639D01*
G01X14815Y14660D01*
G01X14805Y14681D01*
G01X14805Y14681D01*
G01X14796Y14698D01*
G01X14786Y14716D01*
G01X14775Y14735D01*
G01X14763Y14755D01*
G01X14749Y14775D01*
G01X14736Y14794D01*
G01X14722Y14814D01*
G01X14708Y14833D01*
G01X14694Y14851D01*
G01X14679Y14868D01*
G01X14666Y14884D01*
G01X14653Y14898D01*
G01X14653Y14898D01*
G01X14632Y14918D01*
G01X14609Y14939D01*
G01X14584Y14959D01*
G01X14559Y14979D01*
G01X14533Y14998D01*
G01X14508Y15015D01*
G01X14485Y15029D01*
G01X14464Y15041D01*
G01X14464Y15041D01*
G01X14443Y15051D01*
G01X14420Y15061D01*
G01X14395Y15071D01*
G01X14370Y15082D01*
G01X14344Y15091D01*
G01X14320Y15100D01*
G01X14297Y15107D01*
G01X14277Y15113D01*
G01X14277Y15113D01*
G01X14255Y15118D01*
G01X14230Y15122D01*
G01X14202Y15126D01*
G01X14171Y15128D01*
G01X14140Y15130D01*
G01X14107Y15131D01*
G01X14075Y15130D01*
G01X14043Y15129D01*
G01X14043Y15129D01*
G01X14022Y15127D01*
G01X14000Y15125D01*
G01X13978Y15122D01*
G01X13955Y15119D01*
G01X13932Y15115D01*
G01X13909Y15110D01*
G01X13887Y15105D01*
G01X13865Y15100D01*
G01X13844Y15095D01*
G01X13824Y15089D01*
G01X13805Y15083D01*
G01X13788Y15077D01*
G01X13788Y15077D01*
G01X13770Y15069D01*
G01X13751Y15060D01*
G01X13732Y15051D01*
G01X13713Y15040D01*
G01X13694Y15028D01*
G01X13674Y15016D01*
G01X13654Y15002D01*
G01X13635Y14988D01*
G01X13615Y14973D01*
G01X13596Y14957D01*
G01X13577Y14941D01*
G01X13558Y14924D01*
G01X13558Y14924D01*
G01X13540Y14907D01*
G01X13523Y14890D01*
G01X13506Y14872D01*
G01X13489Y14853D01*
G01X13473Y14834D01*
G01X13458Y14815D01*
G01X13443Y14796D01*
G01X13429Y14777D01*
G01X13416Y14758D01*
G01X13405Y14740D01*
G01X13394Y14723D01*
G01X13385Y14706D01*
G01X13385Y14706D01*
G01X13374Y14682D01*
G01X13362Y14655D01*
G01X13351Y14626D01*
G01X13340Y14596D01*
G01X13330Y14565D01*
G01X13320Y14535D01*
G01X13313Y14507D01*
G01X13307Y14482D01*
G01X13307Y14482D01*
G01X13302Y14456D01*
G01X13298Y14428D01*
G01X13295Y14399D01*
G01X13293Y14370D01*
G01X13292Y14340D01*
G01X13292Y14312D01*
G01X13293Y14286D01*
G01X13295Y14262D01*
G01X13295Y14262D01*
G01X13298Y14240D01*
G01X13302Y14215D01*
G01X13308Y14189D01*
G01X13314Y14162D01*
G01X13321Y14135D01*
G01X13328Y14110D01*
G01X13335Y14086D01*
G01X13343Y14065D01*
G01X13343Y14065D01*
G01X13351Y14044D01*
G01X13362Y14021D01*
G01X13374Y13997D01*
G01X13387Y13972D01*
G01X13400Y13947D01*
G01X13414Y13923D01*
G01X13428Y13900D01*
G01X13441Y13880D01*
G01X13441Y13880D01*
G01X13456Y13860D01*
G01X13473Y13839D01*
G01X13492Y13816D01*
G01X13513Y13794D01*
G01X13534Y13772D01*
G01X13555Y13751D01*
G01X13576Y13732D01*
G01X13596Y13716D01*
G01X13596Y13716D01*
G01X13615Y13701D01*
G01X13635Y13686D01*
G01X13655Y13671D01*
G01X13674Y13656D01*
G01X13692Y13643D01*
G01X13708Y13632D01*
G01X13721Y13622D01*
G01X13732Y13614D01*
G01X13776Y13585D01*
G01X13523Y12974D01*
G01X13523Y12974D01*
G01X13508Y12938D01*
G01X13493Y12903D01*
G01X13479Y12868D01*
G01X13464Y12834D01*
G01X13450Y12801D01*
G01X13437Y12768D01*
G01X13423Y12736D01*
G01X13410Y12705D01*
G01X13398Y12675D01*
G01X13385Y12645D01*
G01X13373Y12617D01*
G01X13362Y12590D01*
G01X13351Y12564D01*
G01X13341Y12540D01*
G01X13331Y12516D01*
G01X13321Y12494D01*
G01X13312Y12473D01*
G01X13304Y12454D01*
G01X13296Y12436D01*
G01X13289Y12420D01*
G01X13283Y12405D01*
G01X13277Y12392D01*
G01X13272Y12381D01*
G01X13268Y12372D01*
G01X13265Y12364D01*
G01X13262Y12359D01*
G01X13260Y12355D01*
G01X13259Y12353D01*
G01X13259Y12353D01*
G01X13255Y12353D01*
G01X13246Y12355D01*
G01X13232Y12360D01*
G01X13215Y12368D01*
G01X13195Y12377D01*
G01X13172Y12388D01*
G01X13148Y12401D01*
G01X13122Y12415D01*
G01X13122Y12415D01*
G01X13096Y12429D01*
G01X13070Y12442D01*
G01X13046Y12454D01*
G01X13024Y12464D01*
G01X13004Y12473D01*
G01X12988Y12479D01*
G01X12976Y12484D01*
G01X12968Y12485D01*
G01X12968Y12485D01*
G01X12952Y12481D01*
G01X12928Y12469D01*
G01X12898Y12452D01*
G01X12866Y12431D01*
G01X12866Y12431D01*
G01X12854Y12422D01*
G01X12839Y12411D01*
G01X12820Y12398D01*
G01X12799Y12383D01*
G01X12776Y12367D01*
G01X12751Y12350D01*
G01X12724Y12331D01*
G01X12697Y12312D01*
G01X12668Y12292D01*
G01X12639Y12272D01*
G01X12609Y12252D01*
G01X12580Y12232D01*
G01X12370Y12088D01*
G01X12108Y12350D01*
G01X12108Y12350D01*
G01X12081Y12376D01*
G01X12055Y12403D01*
G01X12030Y12428D01*
G01X12006Y12452D01*
G01X11983Y12476D01*
G01X11962Y12498D01*
G01X11941Y12519D01*
G01X11923Y12539D01*
G01X11906Y12557D01*
G01X11891Y12573D01*
G01X11877Y12588D01*
G01X11866Y12600D01*
G01X11858Y12611D01*
G01X11851Y12619D01*
G01X11847Y12624D01*
G01X11846Y12627D01*
G01X11846Y12627D01*
G01X11847Y12630D01*
G01X11850Y12636D01*
G01X11855Y12645D01*
G01X11861Y12656D01*
G01X11869Y12669D01*
G01X11879Y12685D01*
G01X11890Y12703D01*
G01X11903Y12722D01*
G01X11917Y12744D01*
G01X11932Y12766D01*
G01X11948Y12791D01*
G01X11965Y12816D01*
G01X11983Y12843D01*
G01X12001Y12870D01*
G01X12021Y12899D01*
G01X12041Y12928D01*
G01X12041Y12928D01*
G01X12060Y12957D01*
G01X12080Y12986D01*
G01X12098Y13013D01*
G01X12116Y13040D01*
G01X12133Y13066D01*
G01X12149Y13091D01*
G01X12164Y13115D01*
G01X12178Y13136D01*
G01X12191Y13157D01*
G01X12202Y13175D01*
G01X12212Y13191D01*
G01X12220Y13206D01*
G01X12227Y13218D01*
G01X12231Y13227D01*
G01X12234Y13234D01*
G01X12235Y13238D01*
G01X12235Y13238D01*
G01X12234Y13244D01*
G01X12231Y13255D01*
G01X12227Y13270D01*
G01X12220Y13289D01*
G01X12212Y13311D01*
G01X12203Y13337D01*
G01X12193Y13365D01*
G01X12181Y13396D01*
G01X12168Y13430D01*
G01X12155Y13464D01*
G01X12140Y13501D01*
G01X12126Y13538D01*
G01X12126Y13538D01*
G01X12106Y13586D01*
G01X12089Y13628D01*
G01X12072Y13666D01*
G01X12058Y13700D01*
G01X12044Y13729D01*
G01X12031Y13754D01*
G01X12020Y13775D01*
G01X12009Y13793D01*
G01X12000Y13807D01*
G01X11991Y13817D01*
G01X11982Y13825D01*
G01X11975Y13829D01*
G01X11975Y13829D01*
G01X11966Y13832D01*
G01X11954Y13835D01*
G01X11936Y13839D01*
G01X11915Y13844D01*
G01X11890Y13850D01*
G01X11863Y13856D01*
G01X11832Y13862D01*
G01X11799Y13868D01*
G01X11764Y13875D01*
G01X11727Y13882D01*
G01X11690Y13889D01*
G01X11651Y13896D01*
G01X11651Y13896D01*
G01X11612Y13903D01*
G01X11575Y13910D01*
G01X11538Y13916D01*
G01X11503Y13923D01*
G01X11469Y13929D01*
G01X11439Y13934D01*
G01X11410Y13940D01*
G01X11385Y13944D01*
G01X11364Y13948D01*
G01X11346Y13952D01*
G01X11333Y13954D01*
G01X11325Y13956D01*
G01X11325Y13956D01*
G01X11317Y13958D01*
G01X11310Y13960D01*
G01X11304Y13963D01*
G01X11299Y13968D01*
G01X11295Y13974D01*
G01X11292Y13984D01*
G01X11289Y13996D01*
G01X11286Y14013D01*
G01X11285Y14033D01*
G01X11283Y14059D01*
G01X11282Y14089D01*
G01X11282Y14126D01*
G01X11281Y14170D01*
G01X11281Y14220D01*
G01X11281Y14279D01*
G01X11281Y14345D01*
G01X11281Y14345D01*
G01X11281Y14384D01*
G01X11281Y14421D01*
G01X11281Y14458D01*
G01X11281Y14492D01*
G01X11281Y14526D01*
G01X11282Y14557D01*
G01X11282Y14586D01*
G01X11282Y14613D01*
G01X11283Y14638D01*
G01X11283Y14659D01*
G01X11283Y14679D01*
G01X11284Y14695D01*
G01X11284Y14707D01*
G01X11285Y14717D01*
G01X11285Y14723D01*
G01X11286Y14724D01*
G01X11286Y14724D01*
G01X11288Y14725D01*
G01X11294Y14726D01*
G01X11303Y14728D01*
G01X11316Y14730D01*
G01X11331Y14733D01*
G01X11350Y14736D01*
G01X11371Y14740D01*
G01X11394Y14744D01*
G01X11420Y14749D01*
G01X11448Y14754D01*
G01X11478Y14760D01*
G01X11509Y14766D01*
G01X11542Y14772D01*
G01X11577Y14778D01*
G01X11612Y14785D01*
G01X11649Y14792D01*
G01X11649Y14792D01*
G01X11686Y14799D01*
G01X11721Y14805D01*
G01X11756Y14812D01*
G01X11789Y14819D01*
G01X11821Y14825D01*
G01X11852Y14832D01*
G01X11880Y14838D01*
G01X11906Y14844D01*
G01X11931Y14849D01*
G01X11953Y14854D01*
G01X11972Y14859D01*
G01X11988Y14863D01*
G01X12002Y14867D01*
G01X12012Y14870D01*
G01X12019Y14872D01*
G01X12022Y14874D01*
G01X12022Y14874D01*
G01X12025Y14879D01*
G01X12030Y14887D01*
G01X12037Y14900D01*
G01X12045Y14916D01*
G01X12054Y14936D01*
G01X12065Y14959D01*
G01X12077Y14984D01*
G01X12089Y15012D01*
G01X12103Y15042D01*
G01X12117Y15073D01*
G01X12131Y15106D01*
G01X12146Y15140D01*
G01X12146Y15140D01*
G01X12161Y15174D01*
G01X12175Y15207D01*
G01X12188Y15239D01*
G01X12201Y15270D01*
G01X12212Y15298D01*
G01X12223Y15325D01*
G01X12232Y15349D01*
G01X12240Y15370D01*
G01X12246Y15387D01*
G01X12251Y15402D01*
G01X12254Y15412D01*
G01X12255Y15418D01*
G01X12255Y15418D01*
G01X12254Y15423D01*
G01X12251Y15430D01*
G01X12246Y15440D01*
G01X12239Y15453D01*
G01X12230Y15468D01*
G01X12220Y15486D01*
G01X12208Y15505D01*
G01X12195Y15527D01*
G01X12180Y15550D01*
G01X12164Y15574D01*
G01X12148Y15601D01*
G01X12130Y15628D01*
G01X12111Y15656D01*
G01X12091Y15686D01*
G01X12071Y15716D01*
G01X12050Y15746D01*
G01X12050Y15746D01*
G01X12029Y15777D01*
G01X12009Y15807D01*
G01X11990Y15836D01*
G01X11971Y15864D01*
G01X11953Y15891D01*
G01X11936Y15916D01*
G01X11920Y15940D01*
G01X11906Y15963D01*
G01X11893Y15983D01*
G01X11881Y16002D01*
G01X11871Y16018D01*
G01X11862Y16032D01*
G01X11855Y16044D01*
G01X11850Y16053D01*
G01X11847Y16059D01*
G01X11846Y16063D01*
G01X11846Y16063D01*
G01X11847Y16066D01*
G01X11851Y16071D01*
G01X11858Y16079D01*
G01X11866Y16090D01*
G01X11877Y16102D01*
G01X11891Y16117D01*
G01X11906Y16133D01*
G01X11923Y16151D01*
G01X11941Y16170D01*
G01X11961Y16191D01*
G01X11983Y16214D01*
G01X12006Y16237D01*
G01X12030Y16261D01*
G01X12055Y16286D01*
G01X12081Y16312D01*
G01X12108Y16339D01*
G01X12369Y16598D01*
G01X12673Y16391D01*
G01X12673Y16391D01*
G01X12704Y16369D01*
G01X12735Y16349D01*
G01X12764Y16329D01*
G01X12793Y16309D01*
G01X12821Y16291D01*
G01X12847Y16273D01*
G01X12872Y16256D01*
G01X12896Y16241D01*
G01X12918Y16227D01*
G01X12937Y16214D01*
G01X12955Y16203D01*
G01X12970Y16193D01*
G01X12983Y16185D01*
G01X12993Y16179D01*
G01X13001Y16175D01*
G01X13005Y16172D01*
G01X13005Y16172D01*
G01X13011Y16172D01*
G01X13021Y16173D01*
G01X13036Y16176D01*
G01X13053Y16181D01*
G01X13074Y16187D01*
G01X13098Y16195D01*
G01X13124Y16204D01*
G01X13153Y16214D01*
G01X13183Y16225D01*
G01X13215Y16237D01*
G01X13248Y16250D01*
G01X13282Y16263D01*
G01X13282Y16263D01*
G01X13316Y16277D01*
G01X13349Y16291D01*
G01X13380Y16305D01*
G01X13410Y16318D01*
G01X13438Y16331D01*
G01X13464Y16343D01*
G01X13487Y16354D01*
G01X13507Y16364D01*
G01X13524Y16373D01*
G01X13537Y16380D01*
G01X13546Y16386D01*
G01X13551Y16390D01*
G01X13551Y16390D01*
G01X13553Y16395D01*
G01X13556Y16402D01*
G01X13560Y16413D01*
G01X13564Y16427D01*
G01X13569Y16444D01*
G01X13574Y16464D01*
G01X13579Y16486D01*
G01X13585Y16510D01*
G01X13590Y16536D01*
G01X13597Y16564D01*
G01X13603Y16594D01*
G01X13610Y16626D01*
G01X13616Y16658D01*
G01X13623Y16692D01*
G01X13630Y16727D01*
G01X13636Y16763D01*
G01X13636Y16763D01*
G01X13643Y16798D01*
G01X13650Y16833D01*
G01X13656Y16867D01*
G01X13663Y16899D01*
G01X13669Y16931D01*
G01X13676Y16961D01*
G01X13682Y16989D01*
G01X13688Y17015D01*
G01X13693Y17039D01*
G01X13699Y17061D01*
G01X13703Y17081D01*
G01X13708Y17097D01*
G01X13712Y17111D01*
G01X13715Y17122D01*
G01X13718Y17130D01*
G01X13721Y17134D01*
G01X13721Y17134D01*
G01X13724Y17137D01*
G01X13730Y17140D01*
G01X13738Y17143D01*
G01X13748Y17146D01*
G01X13760Y17148D01*
G01X13775Y17150D01*
G01X13793Y17151D01*
G01X13813Y17153D01*
G01X13836Y17154D01*
G01X13862Y17155D01*
G01X13891Y17156D01*
G01X13923Y17157D01*
G01X13958Y17158D01*
G01X13996Y17158D01*
G01X14038Y17158D01*
G01X14083Y17158D01*
G01X14083Y17158D01*
G01X14118Y17158D01*
G01X14153Y17158D01*
G01X14186Y17158D01*
G01X14218Y17157D01*
G01X14249Y17156D01*
G01X14279Y17156D01*
G01X14307Y17155D01*
G01X14333Y17154D01*
G01X14356Y17153D01*
G01X14378Y17152D01*
G01X14397Y17150D01*
G01X14414Y17149D01*
G01X14427Y17148D01*
G01X14438Y17146D01*
G01X14445Y17145D01*
G01X14450Y17144D01*
G37*

%LPD*%
G54D54*
G01X19511Y10075D02*
G01X19511Y9694D01*
G01X19511Y10075D02*
G01X19348Y10075D01*
G01X19293Y10057D01*
G01X19275Y10039D01*
G01X19257Y10003D01*
G01X19257Y9966D01*
G01X19275Y9930D01*
G01X19293Y9912D01*
G01X19348Y9894D01*
G01X19511Y9894D02*
G01X19348Y9894D01*
G01X19293Y9875D01*
G01X19275Y9857D01*
G01X19257Y9821D01*
G01X19257Y9766D01*
G01X19275Y9730D01*
G01X19293Y9712D01*
G01X19348Y9694D01*
G01X19511Y9694D01*
G01X19137Y9948D02*
G01X19137Y9694D01*
G01X19137Y9839D02*
G01X19119Y9894D01*
G01X19082Y9930D01*
G01X19046Y9948D01*
G01X18991Y9948D01*
G01X18871Y9948D02*
G01X18871Y9766D01*
G01X18853Y9712D01*
G01X18817Y9694D01*
G01X18762Y9694D01*
G01X18726Y9712D01*
G01X18671Y9766D01*
G01X18671Y9948D02*
G01X18671Y9694D01*
G01X18351Y9894D02*
G01X18370Y9930D01*
G01X18424Y9948D01*
G01X18479Y9948D01*
G01X18533Y9930D01*
G01X18551Y9894D01*
G01X18533Y9857D01*
G01X18497Y9839D01*
G01X18406Y9821D01*
G01X18370Y9803D01*
G01X18351Y9766D01*
G01X18351Y9748D01*
G01X18370Y9712D01*
G01X18424Y9694D01*
G01X18479Y9694D01*
G01X18533Y9712D01*
G01X18551Y9748D01*
G01X18231Y10075D02*
G01X18231Y9694D01*
G01X18231Y9875D02*
G01X18177Y9930D01*
G01X18140Y9948D01*
G01X18086Y9948D01*
G01X18050Y9930D01*
G01X18031Y9875D01*
G01X18031Y9694D01*
G01X17911Y9839D02*
G01X17693Y9839D01*
G01X17693Y9875D01*
G01X17711Y9912D01*
G01X17730Y9930D01*
G01X17766Y9948D01*
G01X17820Y9948D01*
G01X17857Y9930D01*
G01X17893Y9894D01*
G01X17911Y9839D01*
G01X17911Y9803D01*
G01X17893Y9748D01*
G01X17857Y9712D01*
G01X17820Y9694D01*
G01X17766Y9694D01*
G01X17730Y9712D01*
G01X17693Y9748D01*
G01X17355Y10075D02*
G01X17355Y9694D01*
G01X17355Y9894D02*
G01X17391Y9930D01*
G01X17428Y9948D01*
G01X17482Y9948D01*
G01X17519Y9930D01*
G01X17555Y9894D01*
G01X17573Y9839D01*
G01X17573Y9803D01*
G01X17555Y9748D01*
G01X17519Y9712D01*
G01X17482Y9694D01*
G01X17428Y9694D01*
G01X17391Y9712D01*
G01X17355Y9748D01*
G01X16846Y10075D02*
G01X16882Y10057D01*
G01X16919Y10021D01*
G01X16937Y9984D01*
G01X16955Y9930D01*
G01X16955Y9839D01*
G01X16937Y9784D01*
G01X16919Y9748D01*
G01X16882Y9712D01*
G01X16846Y9694D01*
G01X16773Y9694D01*
G01X16737Y9712D01*
G01X16700Y9748D01*
G01X16682Y9784D01*
G01X16664Y9839D01*
G01X16664Y9930D01*
G01X16682Y9984D01*
G01X16700Y10021D01*
G01X16737Y10057D01*
G01X16773Y10075D01*
G01X16846Y10075D01*
G01X16791Y9766D02*
G01X16682Y9657D01*
G01X16544Y9948D02*
G01X16544Y9766D01*
G01X16526Y9712D01*
G01X16490Y9694D01*
G01X16435Y9694D01*
G01X16399Y9712D01*
G01X16344Y9766D01*
G01X16344Y9948D02*
G01X16344Y9694D01*
G01X16006Y9948D02*
G01X16006Y9694D01*
G01X16006Y9894D02*
G01X16042Y9930D01*
G01X16079Y9948D01*
G01X16133Y9948D01*
G01X16170Y9930D01*
G01X16206Y9894D01*
G01X16224Y9839D01*
G01X16224Y9803D01*
G01X16206Y9748D01*
G01X16170Y9712D01*
G01X16133Y9694D01*
G01X16079Y9694D01*
G01X16042Y9712D01*
G01X16006Y9748D01*
G01X15668Y10075D02*
G01X15668Y9694D01*
G01X15668Y9894D02*
G01X15704Y9930D01*
G01X15740Y9948D01*
G01X15795Y9948D01*
G01X15831Y9930D01*
G01X15868Y9894D01*
G01X15886Y9839D01*
G01X15886Y9803D01*
G01X15868Y9748D01*
G01X15831Y9712D01*
G01X15795Y9694D01*
G01X15740Y9694D01*
G01X15704Y9712D01*
G01X15668Y9748D01*
G01X15330Y9894D02*
G01X15366Y9930D01*
G01X15402Y9948D01*
G01X15457Y9948D01*
G01X15493Y9930D01*
G01X15530Y9894D01*
G01X15548Y9839D01*
G01X15548Y9803D01*
G01X15530Y9748D01*
G01X15493Y9712D01*
G01X15457Y9694D01*
G01X15402Y9694D01*
G01X15366Y9712D01*
G01X15330Y9748D01*
G01X15119Y9948D02*
G01X15155Y9930D01*
G01X15191Y9894D01*
G01X15210Y9839D01*
G01X15210Y9803D01*
G01X15191Y9748D01*
G01X15155Y9712D01*
G01X15119Y9694D01*
G01X15064Y9694D01*
G01X15028Y9712D01*
G01X14991Y9748D01*
G01X14973Y9803D01*
G01X14973Y9839D01*
G01X14991Y9894D01*
G01X15028Y9930D01*
G01X15064Y9948D01*
G01X15119Y9948D01*
G01X14853Y9948D02*
G01X14853Y9566D01*
G01X14853Y9894D02*
G01X14817Y9930D01*
G01X14780Y9948D01*
G01X14726Y9948D01*
G01X14690Y9930D01*
G01X14653Y9894D01*
G01X14635Y9839D01*
G01X14635Y9803D01*
G01X14653Y9748D01*
G01X14690Y9712D01*
G01X14726Y9694D01*
G01X14780Y9694D01*
G01X14817Y9712D01*
G01X14853Y9748D01*
G01X14460Y10075D02*
G01X14460Y9766D01*
G01X14442Y9712D01*
G01X14406Y9694D01*
G01X14370Y9694D01*
G01X14515Y9948D02*
G01X14388Y9948D01*
G01X14250Y9839D02*
G01X14031Y9839D01*
G01X14031Y9875D01*
G01X14050Y9912D01*
G01X14068Y9930D01*
G01X14104Y9948D01*
G01X14159Y9948D01*
G01X14195Y9930D01*
G01X14231Y9894D01*
G01X14250Y9839D01*
G01X14250Y9803D01*
G01X14231Y9748D01*
G01X14195Y9712D01*
G01X14159Y9694D01*
G01X14104Y9694D01*
G01X14068Y9712D01*
G01X14031Y9748D01*
G01X13911Y9948D02*
G01X13911Y9694D01*
G01X13911Y9839D02*
G01X13893Y9894D01*
G01X13857Y9930D01*
G01X13820Y9948D01*
G01X13766Y9948D01*
G01X13366Y10075D02*
G01X13366Y9694D01*
G01X13366Y10075D02*
G01X13130Y10075D01*
G01X13366Y9894D02*
G01X13220Y9894D01*
G01X13010Y10075D02*
G01X13010Y9694D01*
G01X12890Y10075D02*
G01X12871Y10057D01*
G01X12853Y10075D01*
G01X12871Y10094D01*
G01X12890Y10075D01*
G01X12871Y9948D02*
G01X12871Y9694D01*
G01X12515Y9948D02*
G01X12515Y9657D01*
G01X12533Y9603D01*
G01X12551Y9584D01*
G01X12588Y9566D01*
G01X12642Y9566D01*
G01X12679Y9584D01*
G01X12515Y9894D02*
G01X12551Y9930D01*
G01X12588Y9948D01*
G01X12642Y9948D01*
G01X12679Y9930D01*
G01X12715Y9894D01*
G01X12733Y9839D01*
G01X12733Y9803D01*
G01X12715Y9748D01*
G01X12679Y9712D01*
G01X12642Y9694D01*
G01X12588Y9694D01*
G01X12551Y9712D01*
G01X12515Y9748D01*
G01X12395Y10075D02*
G01X12395Y9694D01*
G01X12395Y9875D02*
G01X12340Y9930D01*
G01X12304Y9948D01*
G01X12250Y9948D01*
G01X12213Y9930D01*
G01X12195Y9875D01*
G01X12195Y9694D01*
G01X12020Y10075D02*
G01X12020Y9766D01*
G01X12002Y9712D01*
G01X11966Y9694D01*
G01X11930Y9694D01*
G01X12075Y9948D02*
G01X11948Y9948D01*
G01X11257Y9984D02*
G01X11275Y10021D01*
G01X11311Y10057D01*
G01X11348Y10075D01*
G01X11420Y10075D01*
G01X11457Y10057D01*
G01X11493Y10021D01*
G01X11511Y9984D01*
G01X11530Y9930D01*
G01X11530Y9839D01*
G01X11511Y9784D01*
G01X11493Y9748D01*
G01X11457Y9712D01*
G01X11420Y9694D01*
G01X11348Y9694D01*
G01X11311Y9712D01*
G01X11275Y9748D01*
G01X11257Y9784D01*
G01X11046Y9948D02*
G01X11082Y9930D01*
G01X11119Y9894D01*
G01X11137Y9839D01*
G01X11137Y9803D01*
G01X11119Y9748D01*
G01X11082Y9712D01*
G01X11046Y9694D01*
G01X10991Y9694D01*
G01X10955Y9712D01*
G01X10919Y9748D01*
G01X10900Y9803D01*
G01X10900Y9839D01*
G01X10919Y9894D01*
G01X10955Y9930D01*
G01X10991Y9948D01*
G01X11046Y9948D01*
G01X10780Y9948D02*
G01X10780Y9694D01*
G01X10780Y9875D02*
G01X10726Y9930D01*
G01X10690Y9948D01*
G01X10635Y9948D01*
G01X10599Y9930D01*
G01X10580Y9875D01*
G01X10580Y9694D01*
G01X10406Y10075D02*
G01X10406Y9766D01*
G01X10388Y9712D01*
G01X10351Y9694D01*
G01X10315Y9694D01*
G01X10460Y9948D02*
G01X10333Y9948D01*
G01X10195Y9948D02*
G01X10195Y9694D01*
G01X10195Y9839D02*
G01X10177Y9894D01*
G01X10140Y9930D01*
G01X10104Y9948D01*
G01X10050Y9948D01*
G01X9839Y9948D02*
G01X9875Y9930D01*
G01X9911Y9894D01*
G01X9930Y9839D01*
G01X9930Y9803D01*
G01X9911Y9748D01*
G01X9875Y9712D01*
G01X9839Y9694D01*
G01X9784Y9694D01*
G01X9748Y9712D01*
G01X9711Y9748D01*
G01X9693Y9803D01*
G01X9693Y9839D01*
G01X9711Y9894D01*
G01X9748Y9930D01*
G01X9784Y9948D01*
G01X9839Y9948D01*
G01X9573Y10075D02*
G01X9573Y9694D01*
G01X9453Y10075D02*
G01X9453Y9694D01*
G01X9333Y9839D02*
G01X9115Y9839D01*
G01X9115Y9875D01*
G01X9133Y9912D01*
G01X9151Y9930D01*
G01X9188Y9948D01*
G01X9242Y9948D01*
G01X9279Y9930D01*
G01X9315Y9894D01*
G01X9333Y9839D01*
G01X9333Y9803D01*
G01X9315Y9748D01*
G01X9279Y9712D01*
G01X9242Y9694D01*
G01X9188Y9694D01*
G01X9151Y9712D01*
G01X9115Y9748D01*
G01X8995Y9948D02*
G01X8995Y9694D01*
G01X8995Y9839D02*
G01X8977Y9894D01*
G01X8940Y9930D01*
G01X8904Y9948D01*
G01X8850Y9948D01*
G01X19511Y9275D02*
G01X19511Y8894D01*
G01X19511Y9275D02*
G01X19384Y9275D01*
G01X19330Y9257D01*
G01X19293Y9221D01*
G01X19275Y9184D01*
G01X19257Y9130D01*
G01X19257Y9039D01*
G01X19275Y8984D01*
G01X19293Y8948D01*
G01X19330Y8912D01*
G01X19384Y8894D01*
G01X19511Y8894D01*
G01X19137Y9039D02*
G01X18919Y9039D01*
G01X18919Y9075D01*
G01X18937Y9112D01*
G01X18955Y9130D01*
G01X18991Y9148D01*
G01X19046Y9148D01*
G01X19082Y9130D01*
G01X19119Y9094D01*
G01X19137Y9039D01*
G01X19137Y9003D01*
G01X19119Y8948D01*
G01X19082Y8912D01*
G01X19046Y8894D01*
G01X18991Y8894D01*
G01X18955Y8912D01*
G01X18919Y8948D01*
G01X18599Y9094D02*
G01X18617Y9130D01*
G01X18671Y9148D01*
G01X18726Y9148D01*
G01X18780Y9130D01*
G01X18799Y9094D01*
G01X18780Y9057D01*
G01X18744Y9039D01*
G01X18653Y9021D01*
G01X18617Y9003D01*
G01X18599Y8966D01*
G01X18599Y8948D01*
G01X18617Y8912D01*
G01X18671Y8894D01*
G01X18726Y8894D01*
G01X18780Y8912D01*
G01X18799Y8948D01*
G01X18479Y9275D02*
G01X18460Y9257D01*
G01X18442Y9275D01*
G01X18460Y9294D01*
G01X18479Y9275D01*
G01X18460Y9148D02*
G01X18460Y8894D01*
G01X18104Y9148D02*
G01X18104Y8857D01*
G01X18122Y8803D01*
G01X18140Y8784D01*
G01X18177Y8766D01*
G01X18231Y8766D01*
G01X18268Y8784D01*
G01X18104Y9094D02*
G01X18140Y9130D01*
G01X18177Y9148D01*
G01X18231Y9148D01*
G01X18268Y9130D01*
G01X18304Y9094D01*
G01X18322Y9039D01*
G01X18322Y9003D01*
G01X18304Y8948D01*
G01X18268Y8912D01*
G01X18231Y8894D01*
G01X18177Y8894D01*
G01X18140Y8912D01*
G01X18104Y8948D01*
G01X17984Y9148D02*
G01X17984Y8894D01*
G01X17984Y9075D02*
G01X17930Y9130D01*
G01X17893Y9148D01*
G01X17839Y9148D01*
G01X17802Y9130D01*
G01X17784Y9075D01*
G01X17784Y8894D01*
G01X17664Y9039D02*
G01X17446Y9039D01*
G01X17446Y9075D01*
G01X17464Y9112D01*
G01X17482Y9130D01*
G01X17519Y9148D01*
G01X17573Y9148D01*
G01X17610Y9130D01*
G01X17646Y9094D01*
G01X17664Y9039D01*
G01X17664Y9003D01*
G01X17646Y8948D01*
G01X17610Y8912D01*
G01X17573Y8894D01*
G01X17519Y8894D01*
G01X17482Y8912D01*
G01X17446Y8948D01*
G01X17108Y9275D02*
G01X17108Y8894D01*
G01X17108Y9094D02*
G01X17144Y9130D01*
G01X17180Y9148D01*
G01X17235Y9148D01*
G01X17271Y9130D01*
G01X17308Y9094D01*
G01X17326Y9039D01*
G01X17326Y9003D01*
G01X17308Y8948D01*
G01X17271Y8912D01*
G01X17235Y8894D01*
G01X17180Y8894D01*
G01X17144Y8912D01*
G01X17108Y8948D01*
G01X16708Y9275D02*
G01X16708Y8894D01*
G01X16708Y9094D02*
G01X16671Y9130D01*
G01X16635Y9148D01*
G01X16580Y9148D01*
G01X16544Y9130D01*
G01X16508Y9094D01*
G01X16490Y9039D01*
G01X16490Y9003D01*
G01X16508Y8948D01*
G01X16544Y8912D01*
G01X16580Y8894D01*
G01X16635Y8894D01*
G01X16671Y8912D01*
G01X16708Y8948D01*
G01X16351Y9148D02*
G01X16242Y8894D01*
G01X16133Y9148D02*
G01X16242Y8894D01*
G01X16279Y8821D01*
G01X16315Y8784D01*
G01X16351Y8766D01*
G01X16370Y8766D01*
G01X15733Y9275D02*
G01X15733Y8894D01*
G01X15733Y9275D02*
G01X15588Y8894D01*
G01X15442Y9275D02*
G01X15588Y8894D01*
G01X15442Y9275D02*
G01X15442Y8894D01*
G01X15322Y9275D02*
G01X15304Y9257D01*
G01X15286Y9275D01*
G01X15304Y9294D01*
G01X15322Y9275D01*
G01X15304Y9148D02*
G01X15304Y8894D01*
G01X14948Y9094D02*
G01X14984Y9130D01*
G01X15020Y9148D01*
G01X15075Y9148D01*
G01X15111Y9130D01*
G01X15148Y9094D01*
G01X15166Y9039D01*
G01X15166Y9003D01*
G01X15148Y8948D01*
G01X15111Y8912D01*
G01X15075Y8894D01*
G01X15020Y8894D01*
G01X14984Y8912D01*
G01X14948Y8948D01*
G01X14828Y9275D02*
G01X14828Y8894D01*
G01X14828Y9075D02*
G01X14773Y9130D01*
G01X14737Y9148D01*
G01X14682Y9148D01*
G01X14646Y9130D01*
G01X14628Y9075D01*
G01X14628Y8894D01*
G01X14290Y9148D02*
G01X14290Y8894D01*
G01X14290Y9094D02*
G01X14326Y9130D01*
G01X14362Y9148D01*
G01X14417Y9148D01*
G01X14453Y9130D01*
G01X14490Y9094D01*
G01X14508Y9039D01*
G01X14508Y9003D01*
G01X14490Y8948D01*
G01X14453Y8912D01*
G01X14417Y8894D01*
G01X14362Y8894D01*
G01X14326Y8912D01*
G01X14290Y8948D01*
G01X14170Y9039D02*
G01X13951Y9039D01*
G01X13951Y9075D01*
G01X13970Y9112D01*
G01X13988Y9130D01*
G01X14024Y9148D01*
G01X14079Y9148D01*
G01X14115Y9130D01*
G01X14151Y9094D01*
G01X14170Y9039D01*
G01X14170Y9003D01*
G01X14151Y8948D01*
G01X14115Y8912D01*
G01X14079Y8894D01*
G01X14024Y8894D01*
G01X13988Y8912D01*
G01X13951Y8948D01*
G01X13831Y9275D02*
G01X13831Y8894D01*
G01X13431Y9275D02*
G01X13431Y8894D01*
G01X13431Y9275D02*
G01X13304Y9275D01*
G01X13250Y9257D01*
G01X13213Y9221D01*
G01X13195Y9184D01*
G01X13177Y9130D01*
G01X13177Y9039D01*
G01X13195Y8984D01*
G01X13213Y8948D01*
G01X13250Y8912D01*
G01X13304Y8894D01*
G01X13431Y8894D01*
G01X13057Y9039D02*
G01X12839Y9039D01*
G01X12839Y9075D01*
G01X12857Y9112D01*
G01X12875Y9130D01*
G01X12911Y9148D01*
G01X12966Y9148D01*
G01X13002Y9130D01*
G01X13039Y9094D01*
G01X13057Y9039D01*
G01X13057Y9003D01*
G01X13039Y8948D01*
G01X13002Y8912D01*
G01X12966Y8894D01*
G01X12911Y8894D01*
G01X12875Y8912D01*
G01X12839Y8948D01*
G01X12719Y9275D02*
G01X12719Y8894D01*
G01X12380Y9148D02*
G01X12380Y8894D01*
G01X12380Y9094D02*
G01X12417Y9130D01*
G01X12453Y9148D01*
G01X12508Y9148D01*
G01X12544Y9130D01*
G01X12580Y9094D01*
G01X12599Y9039D01*
G01X12599Y9003D01*
G01X12580Y8948D01*
G01X12544Y8912D01*
G01X12508Y8894D01*
G01X12453Y8894D01*
G01X12417Y8912D01*
G01X12380Y8948D01*
G01X12260Y9148D02*
G01X12260Y8894D01*
G01X12260Y9075D02*
G01X12206Y9130D01*
G01X12170Y9148D01*
G01X12115Y9148D01*
G01X12079Y9130D01*
G01X12060Y9075D01*
G01X12060Y8894D01*
G01X11940Y9039D02*
G01X11722Y9039D01*
G01X11722Y9075D01*
G01X11740Y9112D01*
G01X11759Y9130D01*
G01X11795Y9148D01*
G01X11850Y9148D01*
G01X11886Y9130D01*
G01X11922Y9094D01*
G01X11940Y9039D01*
G01X11940Y9003D01*
G01X11922Y8948D01*
G01X11886Y8912D01*
G01X11850Y8894D01*
G01X11795Y8894D01*
G01X11759Y8912D01*
G01X11722Y8948D01*
G01X11584Y9148D02*
G01X11475Y8894D01*
G01X11366Y9148D02*
G01X11475Y8894D01*
G01X11511Y8821D01*
G01X11548Y8784D01*
G01X11584Y8766D01*
G01X11602Y8766D01*
M00*
M02*
