;PTH Drill file created by EasyEDA 
M48
INCH,LZ
;Holesize 1 = 0.012 INCH
T01C0.012
;Holesize 2 = 0.028 INCH
T02C0.028
;Holesize 3 = 0.035 INCH
T03C0.035
%
G05
G90
T01
X002359Y003484
X001159Y002734
X001228Y006924
X008219Y005844
X002039Y007344
X006974Y006334
X007909Y005624
X001659Y008334
X003219Y006964
X005876Y007936
X003359Y004153
X004719Y004394
X004619Y003494
X003809Y002934
X003909Y002134
X006859Y000634
X006959Y005703
X005728Y001084
X005059Y001064
X006009Y005234
X007739Y008703
X006019Y006764
X006209Y006584
X002759Y000514
X001399Y001624
X003989Y006444
X002759Y007934
X002469Y007934
X003609Y006834
X003119Y008344
X008009Y003284
X002109Y000484
X004709Y000284
X006509Y005594
X006509Y006794
T02
X009943Y008039G85X009627Y008039
X009943Y005189G85X009627Y005189
T03
X008722Y005665
X008722Y007571
M30
