G04 ---------------------------- Layer name :BOTTOM LAYER*
G04 EasyEDA v5.6.15, Thu, 26 Jul 2018 23:14:09 GMT*
G04 c86fb450fb884ade9fd06fb8d4d9ff78*
G04 Gerber Generator version 0.2*
G04 Scale: 100 percent, Rotated: No, Reflected: No *
G04 Dimensions in inches *
G04 leading zeros omitted , absolute positions ,2 integer and 4 decimal *
%FSLAX24Y24*%
%MOIN*%
G90*
G70D02*

%ADD11C,0.012000*%
%ADD12C,0.020000*%
%ADD14C,0.018000*%
%ADD16C,0.024400*%
%ADD18R,0.039370X0.043307*%
%ADD21R,0.043307X0.039370*%
%ADD26R,0.057870X0.045670*%
%ADD30C,0.059055*%
%ADD31C,0.051181*%
%ADD32C,0.028000*%
%ADD33C,0.025000*%
%ADD34C,0.016535*%
%ADD35R,0.074803X0.094488*%
%ADD36R,0.059055X0.023600*%
%ADD37R,0.070866X0.047200*%

%LPD*%
G36*
G01X984Y0D02*
G01X984Y0D01*
G01X981Y0D01*
G01X953Y0D01*
G01X925Y2D01*
G01X897Y4D01*
G01X869Y7D01*
G01X841Y10D01*
G01X813Y15D01*
G01X786Y20D01*
G01X759Y26D01*
G01X731Y33D01*
G01X704Y41D01*
G01X677Y49D01*
G01X651Y58D01*
G01X625Y68D01*
G01X599Y78D01*
G01X573Y90D01*
G01X548Y102D01*
G01X523Y115D01*
G01X498Y128D01*
G01X474Y142D01*
G01X450Y157D01*
G01X427Y173D01*
G01X404Y189D01*
G01X381Y206D01*
G01X359Y223D01*
G01X338Y241D01*
G01X317Y260D01*
G01X297Y279D01*
G01X277Y299D01*
G01X258Y320D01*
G01X239Y341D01*
G01X221Y362D01*
G01X204Y384D01*
G01X187Y407D01*
G01X171Y430D01*
G01X155Y453D01*
G01X140Y477D01*
G01X126Y501D01*
G01X113Y526D01*
G01X100Y551D01*
G01X88Y576D01*
G01X77Y602D01*
G01X66Y628D01*
G01X57Y654D01*
G01X48Y681D01*
G01X39Y707D01*
G01X32Y734D01*
G01X25Y762D01*
G01X19Y789D01*
G01X14Y817D01*
G01X9Y844D01*
G01X6Y872D01*
G01X3Y900D01*
G01X1Y928D01*
G01X0Y956D01*
G01X0Y984D01*
G01X0Y3639D01*
G01X0Y3638D01*
G01X4Y3636D01*
G01X7Y3634D01*
G01X11Y3632D01*
G01X15Y3630D01*
G01X18Y3628D01*
G01X22Y3626D01*
G01X26Y3625D01*
G01X30Y3624D01*
G01X34Y3623D01*
G01X38Y3622D01*
G01X42Y3621D01*
G01X46Y3620D01*
G01X50Y3620D01*
G01X54Y3620D01*
G01X59Y3620D01*
G01X768Y3620D01*
G01X772Y3620D01*
G01X776Y3620D01*
G01X780Y3620D01*
G01X784Y3621D01*
G01X788Y3622D01*
G01X792Y3623D01*
G01X796Y3624D01*
G01X800Y3625D01*
G01X804Y3626D01*
G01X808Y3628D01*
G01X811Y3630D01*
G01X815Y3632D01*
G01X819Y3634D01*
G01X822Y3636D01*
G01X826Y3638D01*
G01X829Y3641D01*
G01X832Y3643D01*
G01X835Y3646D01*
G01X838Y3649D01*
G01X841Y3652D01*
G01X844Y3655D01*
G01X846Y3658D01*
G01X849Y3661D01*
G01X851Y3665D01*
G01X853Y3668D01*
G01X855Y3672D01*
G01X857Y3676D01*
G01X859Y3679D01*
G01X861Y3683D01*
G01X862Y3687D01*
G01X863Y3691D01*
G01X864Y3695D01*
G01X865Y3699D01*
G01X866Y3703D01*
G01X867Y3707D01*
G01X867Y3711D01*
G01X867Y3715D01*
G01X868Y3720D01*
G01X868Y4192D01*
G01X867Y4196D01*
G01X867Y4200D01*
G01X867Y4204D01*
G01X866Y4208D01*
G01X865Y4212D01*
G01X864Y4216D01*
G01X863Y4220D01*
G01X862Y4224D01*
G01X861Y4228D01*
G01X859Y4232D01*
G01X857Y4235D01*
G01X855Y4239D01*
G01X853Y4243D01*
G01X851Y4246D01*
G01X849Y4250D01*
G01X846Y4253D01*
G01X844Y4256D01*
G01X841Y4259D01*
G01X838Y4262D01*
G01X835Y4265D01*
G01X832Y4268D01*
G01X829Y4270D01*
G01X826Y4273D01*
G01X822Y4275D01*
G01X819Y4277D01*
G01X815Y4279D01*
G01X811Y4281D01*
G01X808Y4283D01*
G01X804Y4285D01*
G01X800Y4286D01*
G01X796Y4287D01*
G01X792Y4288D01*
G01X788Y4289D01*
G01X784Y4290D01*
G01X780Y4291D01*
G01X776Y4291D01*
G01X772Y4291D01*
G01X768Y4292D01*
G01X59Y4292D01*
G01X54Y4291D01*
G01X50Y4291D01*
G01X46Y4291D01*
G01X42Y4290D01*
G01X38Y4289D01*
G01X34Y4288D01*
G01X30Y4287D01*
G01X26Y4286D01*
G01X22Y4285D01*
G01X18Y4283D01*
G01X15Y4281D01*
G01X11Y4279D01*
G01X7Y4277D01*
G01X4Y4275D01*
G01X0Y4273D01*
G01X0Y4272D01*
G01X0Y6631D01*
G01X0Y6630D01*
G01X4Y6628D01*
G01X7Y6626D01*
G01X11Y6624D01*
G01X15Y6622D01*
G01X18Y6620D01*
G01X22Y6618D01*
G01X26Y6617D01*
G01X30Y6616D01*
G01X34Y6615D01*
G01X38Y6614D01*
G01X42Y6613D01*
G01X46Y6612D01*
G01X50Y6612D01*
G01X54Y6612D01*
G01X59Y6612D01*
G01X768Y6612D01*
G01X772Y6612D01*
G01X776Y6612D01*
G01X780Y6612D01*
G01X784Y6613D01*
G01X788Y6614D01*
G01X792Y6615D01*
G01X796Y6616D01*
G01X800Y6617D01*
G01X804Y6618D01*
G01X808Y6620D01*
G01X811Y6622D01*
G01X815Y6624D01*
G01X819Y6626D01*
G01X822Y6628D01*
G01X826Y6630D01*
G01X829Y6633D01*
G01X832Y6635D01*
G01X835Y6638D01*
G01X838Y6641D01*
G01X841Y6644D01*
G01X844Y6647D01*
G01X846Y6650D01*
G01X849Y6653D01*
G01X851Y6657D01*
G01X853Y6660D01*
G01X855Y6664D01*
G01X857Y6668D01*
G01X859Y6671D01*
G01X861Y6675D01*
G01X862Y6679D01*
G01X863Y6683D01*
G01X864Y6687D01*
G01X865Y6691D01*
G01X866Y6695D01*
G01X867Y6699D01*
G01X867Y6703D01*
G01X867Y6707D01*
G01X868Y6712D01*
G01X868Y7184D01*
G01X867Y7188D01*
G01X867Y7192D01*
G01X867Y7196D01*
G01X866Y7200D01*
G01X865Y7204D01*
G01X864Y7208D01*
G01X863Y7212D01*
G01X862Y7216D01*
G01X861Y7220D01*
G01X859Y7224D01*
G01X857Y7227D01*
G01X855Y7231D01*
G01X853Y7235D01*
G01X851Y7238D01*
G01X849Y7242D01*
G01X846Y7245D01*
G01X844Y7248D01*
G01X841Y7251D01*
G01X838Y7254D01*
G01X835Y7257D01*
G01X832Y7260D01*
G01X829Y7262D01*
G01X826Y7265D01*
G01X822Y7267D01*
G01X819Y7269D01*
G01X815Y7271D01*
G01X811Y7273D01*
G01X808Y7275D01*
G01X804Y7277D01*
G01X800Y7278D01*
G01X796Y7279D01*
G01X792Y7280D01*
G01X788Y7281D01*
G01X784Y7282D01*
G01X780Y7283D01*
G01X776Y7283D01*
G01X772Y7283D01*
G01X768Y7284D01*
G01X59Y7284D01*
G01X54Y7283D01*
G01X50Y7283D01*
G01X46Y7283D01*
G01X42Y7282D01*
G01X38Y7281D01*
G01X34Y7280D01*
G01X30Y7279D01*
G01X26Y7278D01*
G01X22Y7277D01*
G01X18Y7275D01*
G01X15Y7273D01*
G01X11Y7271D01*
G01X7Y7269D01*
G01X4Y7267D01*
G01X0Y7265D01*
G01X0Y7264D01*
G01X0Y8861D01*
G01X0Y8889D01*
G01X1Y8917D01*
G01X3Y8945D01*
G01X6Y8973D01*
G01X10Y9001D01*
G01X14Y9029D01*
G01X20Y9056D01*
G01X26Y9084D01*
G01X32Y9111D01*
G01X40Y9138D01*
G01X48Y9165D01*
G01X57Y9191D01*
G01X67Y9217D01*
G01X78Y9243D01*
G01X89Y9269D01*
G01X101Y9294D01*
G01X114Y9319D01*
G01X128Y9344D01*
G01X142Y9368D01*
G01X157Y9392D01*
G01X172Y9415D01*
G01X188Y9438D01*
G01X205Y9461D01*
G01X223Y9483D01*
G01X241Y9504D01*
G01X260Y9525D01*
G01X279Y9545D01*
G01X299Y9565D01*
G01X319Y9584D01*
G01X340Y9603D01*
G01X362Y9621D01*
G01X384Y9638D01*
G01X406Y9655D01*
G01X429Y9671D01*
G01X452Y9687D01*
G01X476Y9702D01*
G01X501Y9716D01*
G01X525Y9729D01*
G01X550Y9742D01*
G01X576Y9754D01*
G01X601Y9765D01*
G01X627Y9776D01*
G01X654Y9785D01*
G01X680Y9795D01*
G01X707Y9803D01*
G01X734Y9810D01*
G01X761Y9817D01*
G01X789Y9823D01*
G01X816Y9828D01*
G01X844Y9833D01*
G01X872Y9836D01*
G01X900Y9839D01*
G01X928Y9841D01*
G01X956Y9842D01*
G01X984Y9843D01*
G01X8861Y9843D01*
G01X8889Y9842D01*
G01X8917Y9841D01*
G01X8945Y9839D01*
G01X8973Y9836D01*
G01X9000Y9832D01*
G01X9028Y9828D01*
G01X9056Y9822D01*
G01X9083Y9816D01*
G01X9110Y9810D01*
G01X9137Y9802D01*
G01X9164Y9794D01*
G01X9191Y9785D01*
G01X9217Y9775D01*
G01X9243Y9764D01*
G01X9268Y9753D01*
G01X9294Y9741D01*
G01X9319Y9728D01*
G01X9343Y9714D01*
G01X9368Y9700D01*
G01X9391Y9685D01*
G01X9415Y9670D01*
G01X9438Y9654D01*
G01X9460Y9637D01*
G01X9482Y9619D01*
G01X9503Y9601D01*
G01X9524Y9582D01*
G01X9545Y9563D01*
G01X9565Y9543D01*
G01X9584Y9523D01*
G01X9602Y9502D01*
G01X9620Y9480D01*
G01X9638Y9458D01*
G01X9655Y9436D01*
G01X9671Y9413D01*
G01X9686Y9390D01*
G01X9701Y9366D01*
G01X9715Y9341D01*
G01X9729Y9317D01*
G01X9741Y9292D01*
G01X9753Y9266D01*
G01X9765Y9241D01*
G01X9775Y9215D01*
G01X9785Y9188D01*
G01X9794Y9162D01*
G01X9802Y9135D01*
G01X9810Y9108D01*
G01X9817Y9081D01*
G01X9822Y9053D01*
G01X9828Y9026D01*
G01X9832Y8998D01*
G01X9836Y8970D01*
G01X9838Y8942D01*
G01X9840Y8914D01*
G01X9842Y8886D01*
G01X9842Y8858D01*
G01X9843Y8859D01*
G01X9843Y8394D01*
G01X9607Y8394D01*
G01X9605Y8394D01*
G01X9592Y8394D01*
G01X9587Y8394D01*
G01X9574Y8393D01*
G01X9569Y8392D01*
G01X9557Y8391D01*
G01X9552Y8390D01*
G01X9539Y8388D01*
G01X9534Y8387D01*
G01X9522Y8384D01*
G01X9517Y8383D01*
G01X9505Y8379D01*
G01X9500Y8378D01*
G01X9488Y8374D01*
G01X9483Y8372D01*
G01X9471Y8367D01*
G01X9467Y8366D01*
G01X9455Y8360D01*
G01X9451Y8358D01*
G01X9439Y8352D01*
G01X9435Y8350D01*
G01X9424Y8343D01*
G01X9420Y8341D01*
G01X9409Y8334D01*
G01X9405Y8331D01*
G01X9394Y8324D01*
G01X9391Y8321D01*
G01X9381Y8313D01*
G01X9377Y8310D01*
G01X9367Y8301D01*
G01X9363Y8298D01*
G01X9354Y8289D01*
G01X9351Y8285D01*
G01X9342Y8276D01*
G01X9339Y8272D01*
G01X9331Y8262D01*
G01X9328Y8258D01*
G01X9320Y8248D01*
G01X9317Y8244D01*
G01X9310Y8234D01*
G01X9307Y8229D01*
G01X9300Y8219D01*
G01X9298Y8214D01*
G01X9292Y8203D01*
G01X9289Y8199D01*
G01X9284Y8187D01*
G01X9282Y8183D01*
G01X9277Y8171D01*
G01X9275Y8166D01*
G01X9271Y8154D01*
G01X9269Y8150D01*
G01X9265Y8137D01*
G01X9264Y8132D01*
G01X9261Y8120D01*
G01X9260Y8115D01*
G01X9257Y8103D01*
G01X9256Y8098D01*
G01X9255Y8085D01*
G01X9254Y8080D01*
G01X9253Y8068D01*
G01X9252Y8063D01*
G01X9252Y8050D01*
G01X9252Y8045D01*
G01X9252Y8032D01*
G01X9252Y8027D01*
G01X9252Y8014D01*
G01X9253Y8009D01*
G01X9254Y7997D01*
G01X9255Y7992D01*
G01X9256Y7979D01*
G01X9257Y7974D01*
G01X9260Y7962D01*
G01X9261Y7957D01*
G01X9264Y7945D01*
G01X9265Y7940D01*
G01X9269Y7927D01*
G01X9271Y7923D01*
G01X9275Y7911D01*
G01X9277Y7906D01*
G01X9282Y7894D01*
G01X9284Y7890D01*
G01X9289Y7878D01*
G01X9292Y7874D01*
G01X9298Y7863D01*
G01X9300Y7858D01*
G01X9307Y7848D01*
G01X9310Y7843D01*
G01X9317Y7833D01*
G01X9320Y7829D01*
G01X9328Y7819D01*
G01X9331Y7815D01*
G01X9339Y7805D01*
G01X9342Y7801D01*
G01X9351Y7792D01*
G01X9354Y7788D01*
G01X9363Y7779D01*
G01X9367Y7776D01*
G01X9377Y7767D01*
G01X9381Y7764D01*
G01X9391Y7756D01*
G01X9394Y7753D01*
G01X9405Y7746D01*
G01X9409Y7743D01*
G01X9420Y7736D01*
G01X9424Y7734D01*
G01X9435Y7727D01*
G01X9439Y7725D01*
G01X9451Y7719D01*
G01X9455Y7717D01*
G01X9467Y7712D01*
G01X9471Y7710D01*
G01X9483Y7705D01*
G01X9488Y7703D01*
G01X9500Y7699D01*
G01X9505Y7698D01*
G01X9517Y7694D01*
G01X9522Y7693D01*
G01X9534Y7690D01*
G01X9539Y7689D01*
G01X9552Y7687D01*
G01X9557Y7686D01*
G01X9569Y7685D01*
G01X9574Y7684D01*
G01X9587Y7683D01*
G01X9592Y7683D01*
G01X9605Y7683D01*
G01X9607Y7683D01*
G01X9962Y7683D01*
G01X9964Y7683D01*
G01X9977Y7683D01*
G01X9982Y7683D01*
G01X9995Y7684D01*
G01X10000Y7685D01*
G01X10012Y7686D01*
G01X10017Y7687D01*
G01X10030Y7689D01*
G01X10035Y7690D01*
G01X10047Y7693D01*
G01X10052Y7694D01*
G01X10064Y7698D01*
G01X10069Y7699D01*
G01X10081Y7703D01*
G01X10086Y7705D01*
G01X10098Y7710D01*
G01X10102Y7712D01*
G01X10114Y7717D01*
G01X10118Y7719D01*
G01X10130Y7725D01*
G01X10134Y7727D01*
G01X10145Y7734D01*
G01X10149Y7736D01*
G01X10160Y7743D01*
G01X10164Y7746D01*
G01X10175Y7753D01*
G01X10178Y7756D01*
G01X10188Y7764D01*
G01X10192Y7767D01*
G01X10202Y7776D01*
G01X10206Y7779D01*
G01X10215Y7788D01*
G01X10218Y7792D01*
G01X10227Y7801D01*
G01X10230Y7805D01*
G01X10238Y7815D01*
G01X10241Y7819D01*
G01X10249Y7829D01*
G01X10252Y7833D01*
G01X10259Y7843D01*
G01X10262Y7848D01*
G01X10269Y7858D01*
G01X10271Y7863D01*
G01X10277Y7874D01*
G01X10280Y7878D01*
G01X10285Y7890D01*
G01X10287Y7894D01*
G01X10292Y7906D01*
G01X10294Y7911D01*
G01X10298Y7923D01*
G01X10300Y7927D01*
G01X10304Y7940D01*
G01X10305Y7945D01*
G01X10308Y7957D01*
G01X10309Y7962D01*
G01X10312Y7974D01*
G01X10313Y7979D01*
G01X10314Y7992D01*
G01X10315Y7997D01*
G01X10316Y8009D01*
G01X10317Y8014D01*
G01X10317Y8027D01*
G01X10318Y8032D01*
G01X10318Y8045D01*
G01X10317Y8050D01*
G01X10317Y8063D01*
G01X10316Y8068D01*
G01X10315Y8080D01*
G01X10314Y8085D01*
G01X10313Y8098D01*
G01X10312Y8103D01*
G01X10309Y8115D01*
G01X10308Y8120D01*
G01X10305Y8132D01*
G01X10304Y8137D01*
G01X10300Y8150D01*
G01X10298Y8154D01*
G01X10294Y8166D01*
G01X10292Y8171D01*
G01X10287Y8183D01*
G01X10285Y8187D01*
G01X10280Y8199D01*
G01X10277Y8203D01*
G01X10271Y8214D01*
G01X10269Y8219D01*
G01X10262Y8229D01*
G01X10259Y8234D01*
G01X10252Y8244D01*
G01X10249Y8248D01*
G01X10241Y8258D01*
G01X10238Y8262D01*
G01X10230Y8272D01*
G01X10227Y8276D01*
G01X10218Y8285D01*
G01X10215Y8289D01*
G01X10206Y8298D01*
G01X10202Y8301D01*
G01X10192Y8310D01*
G01X10188Y8313D01*
G01X10178Y8321D01*
G01X10175Y8324D01*
G01X10164Y8331D01*
G01X10160Y8334D01*
G01X10149Y8341D01*
G01X10145Y8343D01*
G01X10134Y8350D01*
G01X10130Y8352D01*
G01X10118Y8358D01*
G01X10114Y8360D01*
G01X10103Y8365D01*
G01X10459Y8365D01*
G01X10456Y4864D01*
G01X10104Y4862D01*
G01X10114Y4867D01*
G01X10118Y4869D01*
G01X10130Y4875D01*
G01X10134Y4877D01*
G01X10145Y4884D01*
G01X10149Y4886D01*
G01X10160Y4893D01*
G01X10164Y4896D01*
G01X10175Y4903D01*
G01X10178Y4906D01*
G01X10188Y4914D01*
G01X10192Y4917D01*
G01X10202Y4926D01*
G01X10206Y4929D01*
G01X10215Y4938D01*
G01X10218Y4942D01*
G01X10227Y4951D01*
G01X10230Y4955D01*
G01X10238Y4965D01*
G01X10241Y4969D01*
G01X10249Y4979D01*
G01X10252Y4983D01*
G01X10259Y4993D01*
G01X10262Y4998D01*
G01X10269Y5008D01*
G01X10271Y5013D01*
G01X10277Y5024D01*
G01X10280Y5028D01*
G01X10285Y5040D01*
G01X10287Y5044D01*
G01X10292Y5056D01*
G01X10294Y5061D01*
G01X10298Y5073D01*
G01X10300Y5077D01*
G01X10304Y5090D01*
G01X10305Y5095D01*
G01X10308Y5107D01*
G01X10309Y5112D01*
G01X10312Y5124D01*
G01X10313Y5129D01*
G01X10314Y5142D01*
G01X10315Y5147D01*
G01X10316Y5159D01*
G01X10317Y5164D01*
G01X10317Y5177D01*
G01X10318Y5182D01*
G01X10318Y5195D01*
G01X10317Y5200D01*
G01X10317Y5213D01*
G01X10316Y5218D01*
G01X10315Y5230D01*
G01X10314Y5235D01*
G01X10313Y5248D01*
G01X10312Y5253D01*
G01X10309Y5265D01*
G01X10308Y5270D01*
G01X10305Y5282D01*
G01X10304Y5287D01*
G01X10300Y5300D01*
G01X10298Y5304D01*
G01X10294Y5316D01*
G01X10292Y5321D01*
G01X10287Y5333D01*
G01X10285Y5337D01*
G01X10280Y5349D01*
G01X10277Y5353D01*
G01X10271Y5364D01*
G01X10269Y5369D01*
G01X10262Y5379D01*
G01X10259Y5384D01*
G01X10252Y5394D01*
G01X10249Y5398D01*
G01X10241Y5408D01*
G01X10238Y5412D01*
G01X10230Y5422D01*
G01X10227Y5426D01*
G01X10218Y5435D01*
G01X10215Y5439D01*
G01X10206Y5448D01*
G01X10202Y5451D01*
G01X10192Y5460D01*
G01X10188Y5463D01*
G01X10178Y5471D01*
G01X10175Y5474D01*
G01X10164Y5481D01*
G01X10160Y5484D01*
G01X10149Y5491D01*
G01X10145Y5493D01*
G01X10134Y5500D01*
G01X10130Y5502D01*
G01X10118Y5508D01*
G01X10114Y5510D01*
G01X10102Y5516D01*
G01X10098Y5517D01*
G01X10086Y5522D01*
G01X10081Y5524D01*
G01X10069Y5528D01*
G01X10064Y5529D01*
G01X10052Y5533D01*
G01X10047Y5534D01*
G01X10035Y5537D01*
G01X10030Y5538D01*
G01X10017Y5540D01*
G01X10012Y5541D01*
G01X10000Y5542D01*
G01X9995Y5543D01*
G01X9982Y5544D01*
G01X9977Y5544D01*
G01X9964Y5544D01*
G01X9962Y5544D01*
G01X9607Y5544D01*
G01X9605Y5544D01*
G01X9592Y5544D01*
G01X9587Y5544D01*
G01X9574Y5543D01*
G01X9569Y5542D01*
G01X9557Y5541D01*
G01X9552Y5540D01*
G01X9539Y5538D01*
G01X9534Y5537D01*
G01X9522Y5534D01*
G01X9517Y5533D01*
G01X9505Y5529D01*
G01X9500Y5528D01*
G01X9488Y5524D01*
G01X9483Y5522D01*
G01X9471Y5517D01*
G01X9467Y5516D01*
G01X9455Y5510D01*
G01X9451Y5508D01*
G01X9439Y5502D01*
G01X9435Y5500D01*
G01X9424Y5493D01*
G01X9420Y5491D01*
G01X9409Y5484D01*
G01X9405Y5481D01*
G01X9394Y5474D01*
G01X9391Y5471D01*
G01X9381Y5463D01*
G01X9377Y5460D01*
G01X9367Y5451D01*
G01X9363Y5448D01*
G01X9354Y5439D01*
G01X9351Y5435D01*
G01X9342Y5426D01*
G01X9339Y5422D01*
G01X9331Y5412D01*
G01X9328Y5408D01*
G01X9320Y5398D01*
G01X9317Y5394D01*
G01X9310Y5384D01*
G01X9307Y5379D01*
G01X9300Y5369D01*
G01X9298Y5364D01*
G01X9292Y5353D01*
G01X9289Y5349D01*
G01X9284Y5337D01*
G01X9282Y5333D01*
G01X9277Y5321D01*
G01X9275Y5316D01*
G01X9271Y5304D01*
G01X9269Y5300D01*
G01X9265Y5287D01*
G01X9264Y5282D01*
G01X9261Y5270D01*
G01X9260Y5265D01*
G01X9257Y5253D01*
G01X9256Y5248D01*
G01X9255Y5235D01*
G01X9254Y5230D01*
G01X9253Y5218D01*
G01X9252Y5213D01*
G01X9252Y5200D01*
G01X9252Y5195D01*
G01X9252Y5182D01*
G01X9252Y5177D01*
G01X9252Y5164D01*
G01X9253Y5159D01*
G01X9254Y5147D01*
G01X9255Y5142D01*
G01X9256Y5129D01*
G01X9257Y5124D01*
G01X9260Y5112D01*
G01X9261Y5107D01*
G01X9264Y5095D01*
G01X9265Y5090D01*
G01X9269Y5077D01*
G01X9271Y5073D01*
G01X9275Y5061D01*
G01X9277Y5056D01*
G01X9282Y5044D01*
G01X9284Y5040D01*
G01X9289Y5028D01*
G01X9292Y5024D01*
G01X9298Y5013D01*
G01X9300Y5008D01*
G01X9307Y4998D01*
G01X9310Y4993D01*
G01X9317Y4983D01*
G01X9320Y4979D01*
G01X9328Y4969D01*
G01X9331Y4965D01*
G01X9339Y4955D01*
G01X9342Y4951D01*
G01X9351Y4942D01*
G01X9354Y4938D01*
G01X9363Y4929D01*
G01X9367Y4926D01*
G01X9377Y4917D01*
G01X9381Y4914D01*
G01X9391Y4906D01*
G01X9394Y4903D01*
G01X9405Y4896D01*
G01X9409Y4893D01*
G01X9420Y4886D01*
G01X9424Y4884D01*
G01X9435Y4877D01*
G01X9439Y4875D01*
G01X9451Y4869D01*
G01X9455Y4867D01*
G01X9467Y4862D01*
G01X9471Y4860D01*
G01X9483Y4855D01*
G01X9488Y4853D01*
G01X9500Y4849D01*
G01X9505Y4848D01*
G01X9517Y4844D01*
G01X9522Y4843D01*
G01X9534Y4840D01*
G01X9539Y4839D01*
G01X9552Y4837D01*
G01X9557Y4836D01*
G01X9569Y4835D01*
G01X9574Y4834D01*
G01X9587Y4833D01*
G01X9592Y4833D01*
G01X9605Y4833D01*
G01X9607Y4833D01*
G01X9843Y4833D01*
G01X9843Y985D01*
G01X9842Y984D01*
G01X9842Y981D01*
G01X9842Y953D01*
G01X9840Y925D01*
G01X9838Y897D01*
G01X9835Y869D01*
G01X9832Y842D01*
G01X9827Y814D01*
G01X9822Y786D01*
G01X9816Y759D01*
G01X9809Y732D01*
G01X9801Y705D01*
G01X9793Y678D01*
G01X9784Y651D01*
G01X9774Y625D01*
G01X9764Y599D01*
G01X9752Y574D01*
G01X9740Y548D01*
G01X9727Y523D01*
G01X9714Y499D01*
G01X9700Y474D01*
G01X9685Y451D01*
G01X9669Y427D01*
G01X9653Y404D01*
G01X9636Y382D01*
G01X9619Y360D01*
G01X9601Y339D01*
G01X9582Y318D01*
G01X9563Y297D01*
G01X9543Y277D01*
G01X9522Y258D01*
G01X9501Y240D01*
G01X9480Y222D01*
G01X9458Y204D01*
G01X9435Y187D01*
G01X9412Y171D01*
G01X9389Y156D01*
G01X9365Y141D01*
G01X9341Y127D01*
G01X9316Y113D01*
G01X9291Y101D01*
G01X9266Y89D01*
G01X9240Y77D01*
G01X9214Y67D01*
G01X9188Y57D01*
G01X9161Y48D01*
G01X9135Y40D01*
G01X9108Y32D01*
G01X9080Y25D01*
G01X9053Y20D01*
G01X9025Y14D01*
G01X8998Y10D01*
G01X8970Y6D01*
G01X8942Y4D01*
G01X8914Y2D01*
G01X8886Y0D01*
G01X8858Y0D01*
G01X8857Y0D01*
G01X984Y0D01*
G37*

%LPC*%
G36*
G01X7436Y8821D02*
G01X7634Y8821D01*
G01X7634Y9030D01*
G01X7536Y9030D01*
G01X7531Y9029D01*
G01X7527Y9029D01*
G01X7523Y9029D01*
G01X7519Y9028D01*
G01X7515Y9027D01*
G01X7511Y9026D01*
G01X7507Y9025D01*
G01X7503Y9024D01*
G01X7499Y9023D01*
G01X7495Y9021D01*
G01X7492Y9019D01*
G01X7488Y9017D01*
G01X7484Y9015D01*
G01X7481Y9013D01*
G01X7477Y9011D01*
G01X7474Y9008D01*
G01X7471Y9006D01*
G01X7468Y9003D01*
G01X7465Y9000D01*
G01X7462Y8997D01*
G01X7459Y8994D01*
G01X7457Y8991D01*
G01X7454Y8988D01*
G01X7452Y8984D01*
G01X7450Y8981D01*
G01X7448Y8977D01*
G01X7446Y8973D01*
G01X7444Y8970D01*
G01X7442Y8966D01*
G01X7441Y8962D01*
G01X7440Y8958D01*
G01X7439Y8954D01*
G01X7438Y8950D01*
G01X7437Y8946D01*
G01X7436Y8942D01*
G01X7436Y8938D01*
G01X7436Y8934D01*
G01X7436Y8930D01*
G01X7436Y8821D01*
G37*
G36*
G01X8846Y484D02*
G01X8896Y485D01*
G01X8945Y491D01*
G01X8994Y502D01*
G01X9041Y518D01*
G01X9087Y539D01*
G01X9130Y564D01*
G01X9170Y593D01*
G01X9208Y626D01*
G01X9242Y662D01*
G01X9272Y702D01*
G01X9298Y744D01*
G01X9319Y789D01*
G01X9336Y836D01*
G01X9349Y885D01*
G01X9356Y934D01*
G01X9359Y984D01*
G01X9356Y1033D01*
G01X9349Y1083D01*
G01X9336Y1131D01*
G01X9319Y1178D01*
G01X9298Y1223D01*
G01X9272Y1265D01*
G01X9242Y1305D01*
G01X9208Y1342D01*
G01X9170Y1375D01*
G01X9130Y1404D01*
G01X9087Y1429D01*
G01X9041Y1449D01*
G01X8994Y1465D01*
G01X8945Y1476D01*
G01X8896Y1482D01*
G01X8846Y1483D01*
G01X8796Y1480D01*
G01X8747Y1471D01*
G01X8699Y1458D01*
G01X8653Y1439D01*
G01X8609Y1417D01*
G01X8567Y1390D01*
G01X8528Y1358D01*
G01X8492Y1324D01*
G01X8460Y1286D01*
G01X8432Y1244D01*
G01X8408Y1201D01*
G01X8389Y1155D01*
G01X8374Y1107D01*
G01X8364Y1058D01*
G01X8359Y1009D01*
G01X8359Y959D01*
G01X8364Y909D01*
G01X8374Y860D01*
G01X8389Y813D01*
G01X8408Y767D01*
G01X8432Y723D01*
G01X8460Y682D01*
G01X8492Y644D01*
G01X8528Y609D01*
G01X8567Y578D01*
G01X8609Y551D01*
G01X8653Y528D01*
G01X8699Y510D01*
G01X8747Y496D01*
G01X8796Y487D01*
G01X8846Y484D01*
G37*
G36*
G01X7831Y8821D02*
G01X8030Y8821D01*
G01X8030Y8930D01*
G01X8029Y8934D01*
G01X8029Y8938D01*
G01X8029Y8942D01*
G01X8028Y8946D01*
G01X8027Y8950D01*
G01X8026Y8954D01*
G01X8025Y8958D01*
G01X8024Y8962D01*
G01X8023Y8966D01*
G01X8021Y8970D01*
G01X8019Y8973D01*
G01X8017Y8977D01*
G01X8015Y8981D01*
G01X8013Y8984D01*
G01X8011Y8988D01*
G01X8008Y8991D01*
G01X8006Y8994D01*
G01X8003Y8997D01*
G01X8000Y9000D01*
G01X7997Y9003D01*
G01X7994Y9006D01*
G01X7991Y9008D01*
G01X7988Y9011D01*
G01X7984Y9013D01*
G01X7981Y9015D01*
G01X7977Y9017D01*
G01X7973Y9019D01*
G01X7970Y9021D01*
G01X7966Y9023D01*
G01X7962Y9024D01*
G01X7958Y9025D01*
G01X7954Y9026D01*
G01X7950Y9027D01*
G01X7946Y9028D01*
G01X7942Y9029D01*
G01X7938Y9029D01*
G01X7934Y9029D01*
G01X7930Y9030D01*
G01X7831Y9030D01*
G01X7831Y8821D01*
G37*
G36*
G01X7536Y8397D02*
G01X7634Y8397D01*
G01X7634Y8605D01*
G01X7436Y8605D01*
G01X7436Y8497D01*
G01X7436Y8492D01*
G01X7436Y8488D01*
G01X7436Y8484D01*
G01X7437Y8480D01*
G01X7438Y8476D01*
G01X7439Y8472D01*
G01X7440Y8468D01*
G01X7441Y8464D01*
G01X7442Y8460D01*
G01X7444Y8456D01*
G01X7446Y8453D01*
G01X7448Y8449D01*
G01X7450Y8445D01*
G01X7452Y8442D01*
G01X7454Y8438D01*
G01X7457Y8435D01*
G01X7459Y8432D01*
G01X7462Y8429D01*
G01X7465Y8426D01*
G01X7468Y8423D01*
G01X7471Y8420D01*
G01X7474Y8418D01*
G01X7477Y8415D01*
G01X7481Y8413D01*
G01X7484Y8411D01*
G01X7488Y8409D01*
G01X7492Y8407D01*
G01X7495Y8405D01*
G01X7499Y8403D01*
G01X7503Y8402D01*
G01X7507Y8401D01*
G01X7511Y8400D01*
G01X7515Y8399D01*
G01X7519Y8398D01*
G01X7523Y8397D01*
G01X7527Y8397D01*
G01X7531Y8397D01*
G01X7536Y8397D01*
G37*
G36*
G01X7831Y8397D02*
G01X7930Y8397D01*
G01X7934Y8397D01*
G01X7938Y8397D01*
G01X7942Y8397D01*
G01X7946Y8398D01*
G01X7950Y8399D01*
G01X7954Y8400D01*
G01X7958Y8401D01*
G01X7962Y8402D01*
G01X7966Y8403D01*
G01X7970Y8405D01*
G01X7973Y8407D01*
G01X7977Y8409D01*
G01X7981Y8411D01*
G01X7984Y8413D01*
G01X7988Y8415D01*
G01X7991Y8418D01*
G01X7994Y8420D01*
G01X7997Y8423D01*
G01X8000Y8426D01*
G01X8003Y8429D01*
G01X8006Y8432D01*
G01X8008Y8435D01*
G01X8011Y8438D01*
G01X8013Y8442D01*
G01X8015Y8445D01*
G01X8017Y8449D01*
G01X8019Y8453D01*
G01X8021Y8456D01*
G01X8023Y8460D01*
G01X8024Y8464D01*
G01X8025Y8468D01*
G01X8026Y8472D01*
G01X8027Y8476D01*
G01X8028Y8480D01*
G01X8029Y8484D01*
G01X8029Y8488D01*
G01X8029Y8492D01*
G01X8030Y8497D01*
G01X8030Y8605D01*
G01X7831Y8605D01*
G01X7831Y8397D01*
G37*
G36*
G01X972Y8358D02*
G01X1022Y8359D01*
G01X1071Y8365D01*
G01X1120Y8376D01*
G01X1167Y8392D01*
G01X1213Y8413D01*
G01X1256Y8438D01*
G01X1296Y8467D01*
G01X1334Y8500D01*
G01X1368Y8536D01*
G01X1398Y8576D01*
G01X1424Y8618D01*
G01X1445Y8663D01*
G01X1462Y8710D01*
G01X1475Y8759D01*
G01X1482Y8808D01*
G01X1485Y8858D01*
G01X1482Y8907D01*
G01X1475Y8957D01*
G01X1462Y9005D01*
G01X1445Y9052D01*
G01X1424Y9097D01*
G01X1398Y9139D01*
G01X1368Y9179D01*
G01X1334Y9216D01*
G01X1296Y9249D01*
G01X1256Y9278D01*
G01X1213Y9303D01*
G01X1167Y9323D01*
G01X1120Y9339D01*
G01X1071Y9350D01*
G01X1022Y9356D01*
G01X972Y9357D01*
G01X922Y9354D01*
G01X873Y9345D01*
G01X825Y9332D01*
G01X779Y9313D01*
G01X735Y9291D01*
G01X693Y9264D01*
G01X654Y9232D01*
G01X618Y9198D01*
G01X586Y9160D01*
G01X558Y9118D01*
G01X534Y9075D01*
G01X515Y9029D01*
G01X500Y8981D01*
G01X490Y8932D01*
G01X485Y8883D01*
G01X485Y8833D01*
G01X490Y8783D01*
G01X500Y8734D01*
G01X515Y8687D01*
G01X534Y8641D01*
G01X558Y8597D01*
G01X586Y8556D01*
G01X618Y8518D01*
G01X654Y8483D01*
G01X693Y8452D01*
G01X735Y8425D01*
G01X779Y8402D01*
G01X825Y8384D01*
G01X873Y8370D01*
G01X922Y8361D01*
G01X972Y8358D01*
G37*
G36*
G01X8846Y8358D02*
G01X8896Y8359D01*
G01X8945Y8365D01*
G01X8994Y8376D01*
G01X9041Y8392D01*
G01X9087Y8413D01*
G01X9130Y8438D01*
G01X9170Y8467D01*
G01X9208Y8500D01*
G01X9242Y8536D01*
G01X9272Y8576D01*
G01X9298Y8618D01*
G01X9319Y8663D01*
G01X9336Y8710D01*
G01X9349Y8759D01*
G01X9356Y8808D01*
G01X9359Y8858D01*
G01X9356Y8907D01*
G01X9349Y8957D01*
G01X9336Y9005D01*
G01X9319Y9052D01*
G01X9298Y9097D01*
G01X9272Y9139D01*
G01X9242Y9179D01*
G01X9208Y9216D01*
G01X9170Y9249D01*
G01X9130Y9278D01*
G01X9087Y9303D01*
G01X9041Y9323D01*
G01X8994Y9339D01*
G01X8945Y9350D01*
G01X8896Y9356D01*
G01X8846Y9357D01*
G01X8796Y9354D01*
G01X8747Y9345D01*
G01X8699Y9332D01*
G01X8653Y9313D01*
G01X8609Y9291D01*
G01X8567Y9264D01*
G01X8528Y9232D01*
G01X8492Y9198D01*
G01X8460Y9160D01*
G01X8432Y9118D01*
G01X8408Y9075D01*
G01X8389Y9029D01*
G01X8374Y8981D01*
G01X8364Y8932D01*
G01X8359Y8883D01*
G01X8359Y8833D01*
G01X8364Y8783D01*
G01X8374Y8734D01*
G01X8389Y8687D01*
G01X8408Y8641D01*
G01X8432Y8597D01*
G01X8460Y8556D01*
G01X8492Y8518D01*
G01X8528Y8483D01*
G01X8567Y8452D01*
G01X8609Y8425D01*
G01X8653Y8402D01*
G01X8699Y8384D01*
G01X8747Y8370D01*
G01X8796Y8361D01*
G01X8846Y8358D01*
G37*
G36*
G01X8712Y7175D02*
G01X8751Y7176D01*
G01X8790Y7181D01*
G01X8829Y7190D01*
G01X8866Y7203D01*
G01X8902Y7219D01*
G01X8936Y7238D01*
G01X8968Y7261D01*
G01X8998Y7288D01*
G01X9024Y7316D01*
G01X9048Y7348D01*
G01X9069Y7381D01*
G01X9086Y7417D01*
G01X9099Y7454D01*
G01X9109Y7492D01*
G01X9115Y7531D01*
G01X9117Y7571D01*
G01X9115Y7610D01*
G01X9109Y7649D01*
G01X9099Y7687D01*
G01X9086Y7724D01*
G01X9069Y7760D01*
G01X9048Y7793D01*
G01X9024Y7825D01*
G01X8998Y7853D01*
G01X8968Y7880D01*
G01X8936Y7903D01*
G01X8902Y7922D01*
G01X8866Y7938D01*
G01X8829Y7951D01*
G01X8790Y7960D01*
G01X8751Y7965D01*
G01X8712Y7966D01*
G01X8672Y7963D01*
G01X8634Y7956D01*
G01X8596Y7945D01*
G01X8559Y7931D01*
G01X8524Y7913D01*
G01X8491Y7891D01*
G01X8460Y7867D01*
G01X8432Y7839D01*
G01X8406Y7809D01*
G01X8384Y7777D01*
G01X8365Y7742D01*
G01X8350Y7706D01*
G01X8338Y7668D01*
G01X8331Y7629D01*
G01X8327Y7590D01*
G01X8327Y7551D01*
G01X8331Y7512D01*
G01X8338Y7473D01*
G01X8350Y7435D01*
G01X8365Y7399D01*
G01X8384Y7364D01*
G01X8406Y7332D01*
G01X8432Y7302D01*
G01X8460Y7274D01*
G01X8491Y7250D01*
G01X8524Y7228D01*
G01X8559Y7210D01*
G01X8596Y7196D01*
G01X8634Y7185D01*
G01X8672Y7178D01*
G01X8712Y7175D01*
G37*
G36*
G01X2339Y14D02*
G01X4589Y14D01*
G01X4594Y14D01*
G01X4600Y14D01*
G01X4606Y14D01*
G01X4612Y15D01*
G01X4618Y16D01*
G01X4624Y17D01*
G01X4629Y18D01*
G01X4635Y19D01*
G01X4641Y21D01*
G01X4646Y23D01*
G01X4652Y24D01*
G01X4657Y26D01*
G01X4663Y29D01*
G01X4668Y31D01*
G01X4674Y34D01*
G01X4679Y36D01*
G01X4684Y39D01*
G01X4689Y42D01*
G01X4694Y45D01*
G01X4719Y62D01*
G01X4725Y62D01*
G01X4747Y65D01*
G01X4769Y70D01*
G01X4790Y77D01*
G01X4810Y86D01*
G01X4823Y94D01*
G01X7059Y94D01*
G01X7064Y94D01*
G01X7070Y94D01*
G01X7076Y94D01*
G01X7081Y95D01*
G01X7087Y96D01*
G01X7093Y97D01*
G01X7098Y98D01*
G01X7104Y99D01*
G01X7110Y100D01*
G01X7115Y102D01*
G01X7120Y104D01*
G01X7126Y106D01*
G01X7131Y108D01*
G01X7136Y110D01*
G01X7142Y113D01*
G01X7147Y115D01*
G01X7152Y118D01*
G01X7157Y121D01*
G01X7162Y124D01*
G01X7166Y127D01*
G01X7171Y130D01*
G01X7176Y134D01*
G01X7180Y138D01*
G01X7184Y141D01*
G01X7189Y145D01*
G01X7193Y149D01*
G01X7343Y299D01*
G01X7347Y303D01*
G01X7351Y308D01*
G01X7354Y312D01*
G01X7358Y316D01*
G01X7362Y321D01*
G01X7365Y326D01*
G01X7368Y330D01*
G01X7371Y335D01*
G01X7374Y340D01*
G01X7377Y345D01*
G01X7379Y350D01*
G01X7382Y356D01*
G01X7384Y361D01*
G01X7386Y366D01*
G01X7388Y372D01*
G01X7390Y377D01*
G01X7392Y382D01*
G01X7393Y388D01*
G01X7394Y394D01*
G01X7395Y399D01*
G01X7396Y405D01*
G01X7397Y411D01*
G01X7398Y416D01*
G01X7398Y422D01*
G01X7398Y428D01*
G01X7399Y434D01*
G01X7399Y1494D01*
G01X7859Y1494D01*
G01X7864Y1494D01*
G01X7870Y1494D01*
G01X7876Y1494D01*
G01X7881Y1495D01*
G01X7887Y1496D01*
G01X7893Y1497D01*
G01X7898Y1498D01*
G01X7904Y1499D01*
G01X7910Y1500D01*
G01X7915Y1502D01*
G01X7920Y1504D01*
G01X7926Y1506D01*
G01X7931Y1508D01*
G01X7936Y1510D01*
G01X7942Y1513D01*
G01X7947Y1515D01*
G01X7952Y1518D01*
G01X7957Y1521D01*
G01X7962Y1524D01*
G01X7966Y1527D01*
G01X7971Y1530D01*
G01X7976Y1534D01*
G01X7980Y1538D01*
G01X7984Y1541D01*
G01X7989Y1545D01*
G01X7993Y1549D01*
G01X8143Y1699D01*
G01X8147Y1703D01*
G01X8151Y1708D01*
G01X8154Y1712D01*
G01X8158Y1716D01*
G01X8162Y1721D01*
G01X8165Y1726D01*
G01X8168Y1730D01*
G01X8171Y1735D01*
G01X8174Y1740D01*
G01X8177Y1745D01*
G01X8179Y1750D01*
G01X8182Y1756D01*
G01X8184Y1761D01*
G01X8186Y1766D01*
G01X8188Y1772D01*
G01X8190Y1777D01*
G01X8192Y1782D01*
G01X8193Y1788D01*
G01X8194Y1794D01*
G01X8195Y1799D01*
G01X8196Y1805D01*
G01X8197Y1811D01*
G01X8198Y1816D01*
G01X8198Y1822D01*
G01X8198Y1828D01*
G01X8199Y1834D01*
G01X8199Y3169D01*
G01X8203Y3177D01*
G01X8213Y3197D01*
G01X8221Y3218D01*
G01X8226Y3240D01*
G01X8229Y3261D01*
G01X8230Y3284D01*
G01X8229Y3306D01*
G01X8226Y3327D01*
G01X8221Y3349D01*
G01X8213Y3370D01*
G01X8203Y3390D01*
G01X8192Y3409D01*
G01X8179Y3426D01*
G01X8164Y3442D01*
G01X8147Y3457D01*
G01X8129Y3470D01*
G01X8110Y3481D01*
G01X8090Y3490D01*
G01X8069Y3497D01*
G01X8047Y3502D01*
G01X8025Y3505D01*
G01X8003Y3505D01*
G01X7981Y3504D01*
G01X7959Y3500D01*
G01X7938Y3494D01*
G01X7917Y3486D01*
G01X7898Y3476D01*
G01X7879Y3464D01*
G01X7862Y3450D01*
G01X7846Y3435D01*
G01X7832Y3418D01*
G01X7819Y3399D01*
G01X7808Y3380D01*
G01X7800Y3359D01*
G01X7793Y3338D01*
G01X7789Y3317D01*
G01X7787Y3295D01*
G01X7787Y3272D01*
G01X7789Y3250D01*
G01X7793Y3229D01*
G01X7800Y3208D01*
G01X7808Y3187D01*
G01X7819Y3169D01*
G01X7819Y1912D01*
G01X7780Y1874D01*
G01X7309Y1874D01*
G01X7303Y1873D01*
G01X7297Y1873D01*
G01X7291Y1873D01*
G01X7286Y1872D01*
G01X7280Y1871D01*
G01X7274Y1870D01*
G01X7269Y1869D01*
G01X7263Y1868D01*
G01X7257Y1867D01*
G01X7252Y1865D01*
G01X7247Y1863D01*
G01X7241Y1861D01*
G01X7236Y1859D01*
G01X7231Y1857D01*
G01X7225Y1854D01*
G01X7220Y1852D01*
G01X7215Y1849D01*
G01X7210Y1846D01*
G01X7205Y1843D01*
G01X7201Y1840D01*
G01X7196Y1837D01*
G01X7191Y1833D01*
G01X7187Y1829D01*
G01X7183Y1826D01*
G01X7178Y1822D01*
G01X7174Y1818D01*
G01X7074Y1718D01*
G01X7070Y1714D01*
G01X7066Y1709D01*
G01X7063Y1705D01*
G01X7059Y1701D01*
G01X7055Y1696D01*
G01X7052Y1691D01*
G01X7049Y1687D01*
G01X7046Y1682D01*
G01X7043Y1677D01*
G01X7040Y1672D01*
G01X7038Y1667D01*
G01X7035Y1661D01*
G01X7033Y1656D01*
G01X7031Y1651D01*
G01X7029Y1645D01*
G01X7027Y1640D01*
G01X7025Y1635D01*
G01X7024Y1629D01*
G01X7023Y1623D01*
G01X7022Y1618D01*
G01X7021Y1612D01*
G01X7020Y1606D01*
G01X7019Y1601D01*
G01X7019Y1595D01*
G01X7019Y1589D01*
G01X7019Y1584D01*
G01X7019Y787D01*
G01X7014Y792D01*
G01X6997Y807D01*
G01X6979Y820D01*
G01X6960Y831D01*
G01X6940Y840D01*
G01X6919Y847D01*
G01X6897Y852D01*
G01X6875Y855D01*
G01X6853Y855D01*
G01X6831Y854D01*
G01X6809Y850D01*
G01X6788Y844D01*
G01X6767Y836D01*
G01X6748Y826D01*
G01X6729Y814D01*
G01X6712Y800D01*
G01X6705Y794D01*
G01X6609Y794D01*
G01X6609Y794D01*
G01X6612Y797D01*
G01X6615Y800D01*
G01X6618Y803D01*
G01X6620Y806D01*
G01X6623Y809D01*
G01X6625Y813D01*
G01X6627Y816D01*
G01X6629Y820D01*
G01X6631Y824D01*
G01X6633Y827D01*
G01X6635Y831D01*
G01X6636Y835D01*
G01X6637Y839D01*
G01X6638Y843D01*
G01X6639Y847D01*
G01X6640Y851D01*
G01X6641Y855D01*
G01X6641Y859D01*
G01X6641Y863D01*
G01X6642Y868D01*
G01X6642Y1301D01*
G01X6641Y1305D01*
G01X6641Y1309D01*
G01X6641Y1313D01*
G01X6640Y1317D01*
G01X6639Y1321D01*
G01X6638Y1325D01*
G01X6637Y1329D01*
G01X6636Y1333D01*
G01X6635Y1337D01*
G01X6633Y1341D01*
G01X6631Y1344D01*
G01X6629Y1348D01*
G01X6627Y1352D01*
G01X6625Y1355D01*
G01X6623Y1359D01*
G01X6620Y1362D01*
G01X6618Y1365D01*
G01X6615Y1368D01*
G01X6612Y1371D01*
G01X6609Y1374D01*
G01X6606Y1377D01*
G01X6603Y1379D01*
G01X6600Y1382D01*
G01X6596Y1384D01*
G01X6593Y1386D01*
G01X6589Y1388D01*
G01X6585Y1390D01*
G01X6582Y1392D01*
G01X6578Y1394D01*
G01X6574Y1395D01*
G01X6570Y1396D01*
G01X6566Y1397D01*
G01X6562Y1398D01*
G01X6558Y1399D01*
G01X6554Y1400D01*
G01X6550Y1400D01*
G01X6546Y1400D01*
G01X6542Y1401D01*
G01X6535Y1401D01*
G01X6535Y1562D01*
G01X6582Y1562D01*
G01X6587Y1562D01*
G01X6591Y1562D01*
G01X6595Y1562D01*
G01X6599Y1563D01*
G01X6603Y1564D01*
G01X6607Y1565D01*
G01X6611Y1566D01*
G01X6615Y1567D01*
G01X6619Y1568D01*
G01X6623Y1570D01*
G01X6626Y1572D01*
G01X6630Y1574D01*
G01X6634Y1576D01*
G01X6637Y1578D01*
G01X6641Y1580D01*
G01X6644Y1583D01*
G01X6647Y1585D01*
G01X6650Y1588D01*
G01X6653Y1591D01*
G01X6656Y1594D01*
G01X6659Y1597D01*
G01X6661Y1600D01*
G01X6664Y1603D01*
G01X6666Y1607D01*
G01X6668Y1610D01*
G01X6670Y1614D01*
G01X6672Y1618D01*
G01X6674Y1621D01*
G01X6676Y1625D01*
G01X6677Y1629D01*
G01X6678Y1633D01*
G01X6679Y1637D01*
G01X6680Y1641D01*
G01X6681Y1645D01*
G01X6682Y1649D01*
G01X6682Y1653D01*
G01X6682Y1657D01*
G01X6682Y1662D01*
G01X6682Y2605D01*
G01X6682Y2610D01*
G01X6682Y2614D01*
G01X6682Y2618D01*
G01X6681Y2622D01*
G01X6680Y2626D01*
G01X6679Y2630D01*
G01X6678Y2634D01*
G01X6677Y2638D01*
G01X6676Y2642D01*
G01X6674Y2646D01*
G01X6672Y2649D01*
G01X6670Y2653D01*
G01X6668Y2657D01*
G01X6666Y2660D01*
G01X6664Y2664D01*
G01X6661Y2667D01*
G01X6659Y2670D01*
G01X6656Y2673D01*
G01X6653Y2676D01*
G01X6650Y2679D01*
G01X6647Y2682D01*
G01X6644Y2684D01*
G01X6641Y2687D01*
G01X6637Y2689D01*
G01X6634Y2691D01*
G01X6630Y2693D01*
G01X6626Y2695D01*
G01X6623Y2697D01*
G01X6619Y2699D01*
G01X6615Y2700D01*
G01X6611Y2701D01*
G01X6607Y2702D01*
G01X6603Y2703D01*
G01X6599Y2704D01*
G01X6595Y2705D01*
G01X6591Y2705D01*
G01X6587Y2705D01*
G01X6582Y2705D01*
G01X6105Y2705D01*
G01X5943Y2868D01*
G01X5939Y2872D01*
G01X5934Y2876D01*
G01X5930Y2879D01*
G01X5926Y2883D01*
G01X5921Y2887D01*
G01X5916Y2890D01*
G01X5912Y2893D01*
G01X5907Y2896D01*
G01X5902Y2899D01*
G01X5897Y2902D01*
G01X5892Y2904D01*
G01X5886Y2907D01*
G01X5881Y2909D01*
G01X5876Y2911D01*
G01X5870Y2913D01*
G01X5865Y2915D01*
G01X5860Y2917D01*
G01X5854Y2918D01*
G01X5848Y2919D01*
G01X5843Y2920D01*
G01X5837Y2921D01*
G01X5831Y2922D01*
G01X5826Y2923D01*
G01X5820Y2923D01*
G01X5814Y2923D01*
G01X5809Y2924D01*
G01X5587Y2924D01*
G01X5440Y3071D01*
G01X5440Y3118D01*
G01X5441Y3117D01*
G01X5445Y3113D01*
G01X5448Y3111D01*
G01X5452Y3108D01*
G01X5455Y3105D01*
G01X5459Y3102D01*
G01X5463Y3100D01*
G01X5467Y3097D01*
G01X5471Y3095D01*
G01X5475Y3093D01*
G01X5478Y3091D01*
G01X5483Y3088D01*
G01X5487Y3087D01*
G01X5491Y3084D01*
G01X5495Y3083D01*
G01X5500Y3081D01*
G01X5504Y3080D01*
G01X5508Y3078D01*
G01X5512Y3077D01*
G01X5517Y3076D01*
G01X5521Y3075D01*
G01X5523Y3074D01*
G01X5523Y3327D01*
G01X5440Y3327D01*
G01X5440Y3485D01*
G01X5439Y3494D01*
G01X5439Y3503D01*
G01X5437Y3513D01*
G01X5436Y3522D01*
G01X5434Y3531D01*
G01X5432Y3538D01*
G01X5432Y3642D01*
G01X5523Y3642D01*
G01X5523Y3884D01*
G01X5576Y3884D01*
G01X5605Y3854D01*
G01X5605Y3642D01*
G01X5678Y3642D01*
G01X5678Y3485D01*
G01X5679Y3475D01*
G01X5679Y3465D01*
G01X5681Y3455D01*
G01X5682Y3445D01*
G01X5685Y3435D01*
G01X5687Y3426D01*
G01X5691Y3416D01*
G01X5694Y3407D01*
G01X5696Y3402D01*
G01X5696Y3327D01*
G01X5605Y3327D01*
G01X5605Y3074D01*
G01X5607Y3075D01*
G01X5611Y3076D01*
G01X5616Y3077D01*
G01X5620Y3078D01*
G01X5624Y3080D01*
G01X5628Y3081D01*
G01X5633Y3083D01*
G01X5637Y3084D01*
G01X5641Y3087D01*
G01X5645Y3088D01*
G01X5650Y3091D01*
G01X5653Y3093D01*
G01X5657Y3095D01*
G01X5661Y3097D01*
G01X5665Y3100D01*
G01X5669Y3102D01*
G01X5673Y3105D01*
G01X5676Y3108D01*
G01X5680Y3111D01*
G01X5683Y3113D01*
G01X5687Y3117D01*
G01X5690Y3119D01*
G01X5693Y3123D01*
G01X5696Y3126D01*
G01X5700Y3130D01*
G01X5702Y3133D01*
G01X5706Y3137D01*
G01X5708Y3140D01*
G01X5711Y3144D01*
G01X5714Y3147D01*
G01X5716Y3151D01*
G01X5719Y3155D01*
G01X5721Y3159D01*
G01X5722Y3160D01*
G01X5722Y3159D01*
G01X5724Y3155D01*
G01X5727Y3151D01*
G01X5729Y3147D01*
G01X5732Y3144D01*
G01X5735Y3140D01*
G01X5737Y3137D01*
G01X5741Y3133D01*
G01X5743Y3130D01*
G01X5747Y3126D01*
G01X5750Y3123D01*
G01X5753Y3119D01*
G01X5756Y3117D01*
G01X5760Y3113D01*
G01X5763Y3111D01*
G01X5767Y3108D01*
G01X5770Y3105D01*
G01X5774Y3102D01*
G01X5778Y3100D01*
G01X5782Y3097D01*
G01X5786Y3095D01*
G01X5790Y3093D01*
G01X5793Y3091D01*
G01X5798Y3088D01*
G01X5802Y3087D01*
G01X5806Y3084D01*
G01X5810Y3083D01*
G01X5815Y3081D01*
G01X5819Y3080D01*
G01X5823Y3078D01*
G01X5827Y3077D01*
G01X5832Y3076D01*
G01X5836Y3075D01*
G01X5841Y3073D01*
G01X5845Y3073D01*
G01X5850Y3072D01*
G01X5854Y3071D01*
G01X5859Y3070D01*
G01X5863Y3070D01*
G01X5868Y3070D01*
G01X5872Y3069D01*
G01X5877Y3069D01*
G01X5881Y3069D01*
G01X5886Y3069D01*
G01X5890Y3070D01*
G01X5895Y3070D01*
G01X5899Y3070D01*
G01X5904Y3071D01*
G01X5908Y3072D01*
G01X5913Y3073D01*
G01X5917Y3073D01*
G01X5922Y3075D01*
G01X5926Y3076D01*
G01X5931Y3077D01*
G01X5935Y3078D01*
G01X5939Y3080D01*
G01X5943Y3081D01*
G01X5948Y3083D01*
G01X5952Y3084D01*
G01X5956Y3087D01*
G01X5960Y3088D01*
G01X5965Y3091D01*
G01X5968Y3093D01*
G01X5972Y3095D01*
G01X5976Y3097D01*
G01X5980Y3100D01*
G01X5984Y3102D01*
G01X5988Y3105D01*
G01X5991Y3108D01*
G01X5995Y3111D01*
G01X5998Y3113D01*
G01X6002Y3117D01*
G01X6005Y3119D01*
G01X6008Y3123D01*
G01X6011Y3126D01*
G01X6015Y3130D01*
G01X6017Y3133D01*
G01X6021Y3137D01*
G01X6023Y3140D01*
G01X6026Y3144D01*
G01X6029Y3147D01*
G01X6029Y3147D01*
G01X6029Y3145D01*
G01X6029Y3140D01*
G01X6030Y3135D01*
G01X6030Y3129D01*
G01X6031Y3124D01*
G01X6032Y3119D01*
G01X6034Y3114D01*
G01X6035Y3109D01*
G01X6037Y3103D01*
G01X6038Y3098D01*
G01X6040Y3093D01*
G01X6042Y3088D01*
G01X6045Y3084D01*
G01X6047Y3079D01*
G01X6050Y3074D01*
G01X6052Y3070D01*
G01X6055Y3065D01*
G01X6058Y3061D01*
G01X6061Y3056D01*
G01X6065Y3052D01*
G01X6068Y3048D01*
G01X6072Y3044D01*
G01X6075Y3040D01*
G01X6195Y2920D01*
G01X6199Y2917D01*
G01X6203Y2913D01*
G01X6208Y2909D01*
G01X6212Y2906D01*
G01X6216Y2903D01*
G01X6221Y2900D01*
G01X6225Y2897D01*
G01X6230Y2894D01*
G01X6235Y2891D01*
G01X6240Y2889D01*
G01X6245Y2887D01*
G01X6250Y2885D01*
G01X6255Y2883D01*
G01X6260Y2881D01*
G01X6265Y2879D01*
G01X6271Y2878D01*
G01X6276Y2877D01*
G01X6281Y2876D01*
G01X6287Y2875D01*
G01X6292Y2874D01*
G01X6298Y2874D01*
G01X6303Y2874D01*
G01X6309Y2874D01*
G01X6792Y2874D01*
G01X6970Y2696D01*
G01X6970Y2405D01*
G01X6970Y2401D01*
G01X6970Y2397D01*
G01X6970Y2393D01*
G01X6971Y2389D01*
G01X6972Y2385D01*
G01X6973Y2381D01*
G01X6974Y2377D01*
G01X6975Y2373D01*
G01X6976Y2369D01*
G01X6978Y2365D01*
G01X6980Y2362D01*
G01X6982Y2358D01*
G01X6984Y2354D01*
G01X6986Y2351D01*
G01X6988Y2347D01*
G01X6991Y2344D01*
G01X6993Y2341D01*
G01X6996Y2338D01*
G01X6999Y2335D01*
G01X7002Y2332D01*
G01X7005Y2329D01*
G01X7008Y2327D01*
G01X7011Y2324D01*
G01X7015Y2322D01*
G01X7018Y2320D01*
G01X7022Y2318D01*
G01X7026Y2316D01*
G01X7029Y2314D01*
G01X7033Y2312D01*
G01X7037Y2311D01*
G01X7041Y2310D01*
G01X7045Y2309D01*
G01X7049Y2308D01*
G01X7053Y2307D01*
G01X7057Y2306D01*
G01X7061Y2306D01*
G01X7065Y2306D01*
G01X7070Y2305D01*
G01X7648Y2305D01*
G01X7652Y2306D01*
G01X7656Y2306D01*
G01X7660Y2306D01*
G01X7664Y2307D01*
G01X7668Y2308D01*
G01X7672Y2309D01*
G01X7676Y2310D01*
G01X7680Y2311D01*
G01X7684Y2312D01*
G01X7688Y2314D01*
G01X7691Y2316D01*
G01X7695Y2318D01*
G01X7699Y2320D01*
G01X7702Y2322D01*
G01X7706Y2324D01*
G01X7709Y2327D01*
G01X7712Y2329D01*
G01X7715Y2332D01*
G01X7718Y2335D01*
G01X7721Y2338D01*
G01X7724Y2341D01*
G01X7726Y2344D01*
G01X7729Y2347D01*
G01X7731Y2351D01*
G01X7733Y2354D01*
G01X7735Y2358D01*
G01X7737Y2362D01*
G01X7739Y2365D01*
G01X7741Y2369D01*
G01X7742Y2373D01*
G01X7743Y2377D01*
G01X7744Y2381D01*
G01X7745Y2385D01*
G01X7746Y2389D01*
G01X7747Y2393D01*
G01X7747Y2397D01*
G01X7747Y2401D01*
G01X7748Y2405D01*
G01X7748Y2862D01*
G01X7747Y2866D01*
G01X7747Y2870D01*
G01X7747Y2874D01*
G01X7746Y2878D01*
G01X7745Y2882D01*
G01X7744Y2886D01*
G01X7743Y2890D01*
G01X7742Y2894D01*
G01X7741Y2898D01*
G01X7739Y2902D01*
G01X7737Y2905D01*
G01X7735Y2909D01*
G01X7733Y2913D01*
G01X7731Y2916D01*
G01X7729Y2920D01*
G01X7726Y2923D01*
G01X7724Y2926D01*
G01X7721Y2929D01*
G01X7718Y2932D01*
G01X7715Y2935D01*
G01X7712Y2938D01*
G01X7709Y2940D01*
G01X7706Y2943D01*
G01X7702Y2945D01*
G01X7699Y2947D01*
G01X7695Y2949D01*
G01X7691Y2951D01*
G01X7688Y2953D01*
G01X7684Y2955D01*
G01X7680Y2956D01*
G01X7676Y2957D01*
G01X7672Y2958D01*
G01X7668Y2959D01*
G01X7664Y2960D01*
G01X7660Y2961D01*
G01X7656Y2961D01*
G01X7652Y2961D01*
G01X7648Y2962D01*
G01X7157Y2962D01*
G01X6972Y3147D01*
G01X6968Y3150D01*
G01X6964Y3154D01*
G01X6959Y3158D01*
G01X6955Y3161D01*
G01X6951Y3164D01*
G01X6946Y3167D01*
G01X6942Y3170D01*
G01X6937Y3173D01*
G01X6932Y3176D01*
G01X6927Y3178D01*
G01X6922Y3180D01*
G01X6917Y3182D01*
G01X6912Y3184D01*
G01X6907Y3186D01*
G01X6902Y3188D01*
G01X6896Y3189D01*
G01X6891Y3190D01*
G01X6886Y3191D01*
G01X6880Y3192D01*
G01X6875Y3193D01*
G01X6869Y3193D01*
G01X6864Y3193D01*
G01X6859Y3194D01*
G01X6682Y3194D01*
G01X6683Y3196D01*
G01X6684Y3201D01*
G01X6685Y3205D01*
G01X6687Y3209D01*
G01X6687Y3213D01*
G01X6688Y3218D01*
G01X6689Y3222D01*
G01X6690Y3227D01*
G01X6690Y3231D01*
G01X6691Y3236D01*
G01X6691Y3240D01*
G01X6691Y3245D01*
G01X6692Y3250D01*
G01X6692Y3252D01*
G01X6692Y3717D01*
G01X6692Y3719D01*
G01X6691Y3723D01*
G01X6691Y3728D01*
G01X6691Y3732D01*
G01X6691Y3732D01*
G01X6970Y3454D01*
G01X6970Y3205D01*
G01X6970Y3201D01*
G01X6970Y3197D01*
G01X6970Y3193D01*
G01X6971Y3189D01*
G01X6972Y3185D01*
G01X6973Y3181D01*
G01X6974Y3177D01*
G01X6975Y3173D01*
G01X6976Y3169D01*
G01X6978Y3165D01*
G01X6980Y3162D01*
G01X6982Y3158D01*
G01X6984Y3154D01*
G01X6986Y3151D01*
G01X6988Y3147D01*
G01X6991Y3144D01*
G01X6993Y3141D01*
G01X6996Y3138D01*
G01X6999Y3135D01*
G01X7002Y3132D01*
G01X7005Y3129D01*
G01X7008Y3127D01*
G01X7011Y3124D01*
G01X7015Y3122D01*
G01X7018Y3120D01*
G01X7022Y3118D01*
G01X7026Y3116D01*
G01X7029Y3114D01*
G01X7033Y3112D01*
G01X7037Y3111D01*
G01X7041Y3110D01*
G01X7045Y3109D01*
G01X7049Y3108D01*
G01X7053Y3107D01*
G01X7057Y3106D01*
G01X7061Y3106D01*
G01X7065Y3106D01*
G01X7070Y3105D01*
G01X7648Y3105D01*
G01X7652Y3106D01*
G01X7656Y3106D01*
G01X7660Y3106D01*
G01X7664Y3107D01*
G01X7668Y3108D01*
G01X7672Y3109D01*
G01X7676Y3110D01*
G01X7680Y3111D01*
G01X7684Y3112D01*
G01X7688Y3114D01*
G01X7691Y3116D01*
G01X7695Y3118D01*
G01X7699Y3120D01*
G01X7702Y3122D01*
G01X7706Y3124D01*
G01X7709Y3127D01*
G01X7712Y3129D01*
G01X7715Y3132D01*
G01X7718Y3135D01*
G01X7721Y3138D01*
G01X7724Y3141D01*
G01X7726Y3144D01*
G01X7729Y3147D01*
G01X7731Y3151D01*
G01X7733Y3154D01*
G01X7735Y3158D01*
G01X7737Y3162D01*
G01X7739Y3165D01*
G01X7741Y3169D01*
G01X7742Y3173D01*
G01X7743Y3177D01*
G01X7744Y3181D01*
G01X7745Y3185D01*
G01X7746Y3189D01*
G01X7747Y3193D01*
G01X7747Y3197D01*
G01X7747Y3201D01*
G01X7748Y3205D01*
G01X7748Y3662D01*
G01X7747Y3666D01*
G01X7747Y3670D01*
G01X7747Y3674D01*
G01X7746Y3678D01*
G01X7745Y3682D01*
G01X7744Y3686D01*
G01X7743Y3690D01*
G01X7742Y3694D01*
G01X7741Y3698D01*
G01X7739Y3702D01*
G01X7737Y3705D01*
G01X7735Y3709D01*
G01X7733Y3713D01*
G01X7731Y3716D01*
G01X7729Y3720D01*
G01X7726Y3723D01*
G01X7724Y3726D01*
G01X7721Y3729D01*
G01X7718Y3732D01*
G01X7715Y3735D01*
G01X7712Y3738D01*
G01X7709Y3740D01*
G01X7706Y3743D01*
G01X7702Y3745D01*
G01X7699Y3747D01*
G01X7695Y3749D01*
G01X7691Y3751D01*
G01X7688Y3753D01*
G01X7684Y3755D01*
G01X7680Y3756D01*
G01X7676Y3757D01*
G01X7672Y3758D01*
G01X7668Y3759D01*
G01X7664Y3760D01*
G01X7660Y3761D01*
G01X7656Y3761D01*
G01X7652Y3761D01*
G01X7648Y3762D01*
G01X7199Y3762D01*
G01X7009Y3951D01*
G01X7391Y3951D01*
G01X7393Y3951D01*
G01X7397Y3951D01*
G01X7402Y3952D01*
G01X7407Y3952D01*
G01X7411Y3952D01*
G01X7415Y3953D01*
G01X7421Y3954D01*
G01X7425Y3954D01*
G01X7429Y3955D01*
G01X7434Y3956D01*
G01X7438Y3957D01*
G01X7442Y3959D01*
G01X7447Y3960D01*
G01X7451Y3961D01*
G01X7455Y3963D01*
G01X7459Y3965D01*
G01X7464Y3967D01*
G01X7468Y3968D01*
G01X7472Y3970D01*
G01X7476Y3972D01*
G01X7480Y3975D01*
G01X7484Y3977D01*
G01X7488Y3979D01*
G01X7492Y3982D01*
G01X7496Y3984D01*
G01X7499Y3987D01*
G01X7503Y3990D01*
G01X7506Y3992D01*
G01X7510Y3996D01*
G01X7513Y3998D01*
G01X7517Y4002D01*
G01X7520Y4005D01*
G01X7523Y4008D01*
G01X7526Y4011D01*
G01X7529Y4015D01*
G01X7532Y4018D01*
G01X7535Y4022D01*
G01X7538Y4025D01*
G01X7541Y4029D01*
G01X7543Y4033D01*
G01X7546Y4037D01*
G01X7548Y4040D01*
G01X7550Y4045D01*
G01X7552Y4048D01*
G01X7554Y4053D01*
G01X7556Y4056D01*
G01X7558Y4061D01*
G01X7560Y4065D01*
G01X7562Y4070D01*
G01X7563Y4073D01*
G01X7565Y4078D01*
G01X7566Y4082D01*
G01X7567Y4087D01*
G01X7568Y4091D01*
G01X7569Y4096D01*
G01X7570Y4100D01*
G01X7571Y4105D01*
G01X7572Y4109D01*
G01X7572Y4114D01*
G01X7573Y4118D01*
G01X7573Y4123D01*
G01X7573Y4127D01*
G01X7573Y4132D01*
G01X7573Y4136D01*
G01X7573Y4141D01*
G01X7573Y4145D01*
G01X7573Y4150D01*
G01X7572Y4154D01*
G01X7572Y4159D01*
G01X7571Y4163D01*
G01X7570Y4168D01*
G01X7569Y4172D01*
G01X7568Y4177D01*
G01X7567Y4181D01*
G01X7566Y4186D01*
G01X7565Y4190D01*
G01X7563Y4194D01*
G01X7562Y4198D01*
G01X7560Y4203D01*
G01X7558Y4207D01*
G01X7556Y4211D01*
G01X7554Y4215D01*
G01X7552Y4219D01*
G01X7550Y4223D01*
G01X7548Y4227D01*
G01X7546Y4231D01*
G01X7543Y4235D01*
G01X7541Y4239D01*
G01X7538Y4243D01*
G01X7535Y4246D01*
G01X7532Y4250D01*
G01X7529Y4253D01*
G01X7526Y4257D01*
G01X7523Y4260D01*
G01X7520Y4263D01*
G01X7517Y4266D01*
G01X7513Y4269D01*
G01X7510Y4272D01*
G01X7506Y4275D01*
G01X7503Y4278D01*
G01X7499Y4281D01*
G01X7496Y4283D01*
G01X7492Y4286D01*
G01X7488Y4288D01*
G01X7484Y4291D01*
G01X7483Y4291D01*
G01X7484Y4292D01*
G01X7488Y4294D01*
G01X7492Y4297D01*
G01X7496Y4299D01*
G01X7499Y4302D01*
G01X7503Y4305D01*
G01X7506Y4307D01*
G01X7510Y4311D01*
G01X7513Y4313D01*
G01X7517Y4317D01*
G01X7520Y4320D01*
G01X7523Y4323D01*
G01X7526Y4326D01*
G01X7529Y4330D01*
G01X7532Y4333D01*
G01X7535Y4337D01*
G01X7538Y4340D01*
G01X7541Y4344D01*
G01X7543Y4348D01*
G01X7546Y4352D01*
G01X7548Y4355D01*
G01X7550Y4360D01*
G01X7552Y4363D01*
G01X7554Y4368D01*
G01X7556Y4371D01*
G01X7558Y4376D01*
G01X7560Y4380D01*
G01X7562Y4385D01*
G01X7563Y4388D01*
G01X7565Y4393D01*
G01X7566Y4397D01*
G01X7567Y4402D01*
G01X7568Y4406D01*
G01X7569Y4411D01*
G01X7570Y4415D01*
G01X7571Y4420D01*
G01X7572Y4424D01*
G01X7572Y4429D01*
G01X7573Y4433D01*
G01X7573Y4438D01*
G01X7573Y4442D01*
G01X7573Y4447D01*
G01X7573Y4451D01*
G01X7573Y4456D01*
G01X7573Y4460D01*
G01X7573Y4465D01*
G01X7572Y4469D01*
G01X7572Y4474D01*
G01X7571Y4478D01*
G01X7570Y4483D01*
G01X7569Y4487D01*
G01X7568Y4492D01*
G01X7567Y4496D01*
G01X7566Y4501D01*
G01X7565Y4505D01*
G01X7563Y4509D01*
G01X7562Y4513D01*
G01X7560Y4518D01*
G01X7558Y4522D01*
G01X7556Y4526D01*
G01X7554Y4530D01*
G01X7552Y4534D01*
G01X7550Y4538D01*
G01X7548Y4542D01*
G01X7546Y4546D01*
G01X7543Y4550D01*
G01X7541Y4554D01*
G01X7538Y4558D01*
G01X7535Y4561D01*
G01X7532Y4565D01*
G01X7529Y4568D01*
G01X7526Y4572D01*
G01X7523Y4575D01*
G01X7520Y4578D01*
G01X7517Y4581D01*
G01X7513Y4584D01*
G01X7510Y4587D01*
G01X7506Y4590D01*
G01X7503Y4593D01*
G01X7499Y4596D01*
G01X7496Y4598D01*
G01X7492Y4601D01*
G01X7488Y4603D01*
G01X7484Y4606D01*
G01X7483Y4606D01*
G01X7484Y4607D01*
G01X7488Y4609D01*
G01X7492Y4611D01*
G01X7496Y4614D01*
G01X7499Y4617D01*
G01X7503Y4620D01*
G01X7506Y4622D01*
G01X7510Y4626D01*
G01X7513Y4628D01*
G01X7517Y4632D01*
G01X7520Y4635D01*
G01X7523Y4638D01*
G01X7526Y4641D01*
G01X7529Y4645D01*
G01X7532Y4648D01*
G01X7535Y4652D01*
G01X7538Y4655D01*
G01X7541Y4659D01*
G01X7543Y4663D01*
G01X7546Y4667D01*
G01X7548Y4670D01*
G01X7550Y4675D01*
G01X7552Y4678D01*
G01X7554Y4683D01*
G01X7556Y4686D01*
G01X7558Y4691D01*
G01X7560Y4695D01*
G01X7562Y4699D01*
G01X7563Y4703D01*
G01X7565Y4708D01*
G01X7566Y4712D01*
G01X7567Y4717D01*
G01X7568Y4721D01*
G01X7569Y4726D01*
G01X7570Y4730D01*
G01X7571Y4734D01*
G01X7572Y4739D01*
G01X7572Y4744D01*
G01X7573Y4748D01*
G01X7573Y4753D01*
G01X7573Y4757D01*
G01X7573Y4762D01*
G01X7573Y4766D01*
G01X7573Y4771D01*
G01X7573Y4775D01*
G01X7573Y4780D01*
G01X7572Y4784D01*
G01X7572Y4789D01*
G01X7571Y4793D01*
G01X7570Y4798D01*
G01X7569Y4802D01*
G01X7568Y4807D01*
G01X7567Y4811D01*
G01X7566Y4816D01*
G01X7565Y4820D01*
G01X7563Y4824D01*
G01X7562Y4828D01*
G01X7560Y4833D01*
G01X7558Y4837D01*
G01X7556Y4841D01*
G01X7554Y4845D01*
G01X7552Y4849D01*
G01X7550Y4853D01*
G01X7548Y4857D01*
G01X7546Y4861D01*
G01X7543Y4865D01*
G01X7541Y4868D01*
G01X7538Y4872D01*
G01X7535Y4876D01*
G01X7532Y4880D01*
G01X7529Y4883D01*
G01X7526Y4887D01*
G01X7523Y4890D01*
G01X7520Y4893D01*
G01X7517Y4896D01*
G01X7513Y4899D01*
G01X7510Y4902D01*
G01X7506Y4905D01*
G01X7503Y4908D01*
G01X7499Y4911D01*
G01X7496Y4913D01*
G01X7492Y4916D01*
G01X7488Y4918D01*
G01X7484Y4921D01*
G01X7483Y4921D01*
G01X7484Y4922D01*
G01X7488Y4924D01*
G01X7492Y4926D01*
G01X7496Y4929D01*
G01X7499Y4932D01*
G01X7503Y4935D01*
G01X7506Y4937D01*
G01X7510Y4941D01*
G01X7513Y4943D01*
G01X7517Y4947D01*
G01X7520Y4950D01*
G01X7523Y4953D01*
G01X7526Y4956D01*
G01X7529Y4960D01*
G01X7532Y4963D01*
G01X7535Y4967D01*
G01X7538Y4970D01*
G01X7541Y4974D01*
G01X7543Y4978D01*
G01X7546Y4982D01*
G01X7548Y4985D01*
G01X7550Y4990D01*
G01X7552Y4993D01*
G01X7554Y4998D01*
G01X7556Y5001D01*
G01X7558Y5006D01*
G01X7560Y5010D01*
G01X7562Y5014D01*
G01X7563Y5018D01*
G01X7565Y5023D01*
G01X7566Y5027D01*
G01X7567Y5032D01*
G01X7568Y5036D01*
G01X7569Y5041D01*
G01X7570Y5045D01*
G01X7571Y5049D01*
G01X7572Y5053D01*
G01X7572Y5059D01*
G01X7573Y5063D01*
G01X7573Y5065D01*
G01X7576Y5065D01*
G01X7581Y5064D01*
G01X7587Y5064D01*
G01X7593Y5064D01*
G01X7599Y5064D01*
G01X7947Y5064D01*
G01X7945Y5062D01*
G01X7941Y5060D01*
G01X7938Y5058D01*
G01X7934Y5056D01*
G01X7931Y5053D01*
G01X7928Y5051D01*
G01X7925Y5048D01*
G01X7922Y5045D01*
G01X7919Y5042D01*
G01X7916Y5039D01*
G01X7914Y5036D01*
G01X7911Y5033D01*
G01X7909Y5029D01*
G01X7907Y5026D01*
G01X7905Y5022D01*
G01X7903Y5018D01*
G01X7901Y5015D01*
G01X7899Y5011D01*
G01X7898Y5007D01*
G01X7897Y5003D01*
G01X7896Y4999D01*
G01X7895Y4995D01*
G01X7894Y4991D01*
G01X7893Y4987D01*
G01X7893Y4983D01*
G01X7893Y4979D01*
G01X7893Y4975D01*
G01X7893Y4580D01*
G01X7893Y4576D01*
G01X7893Y4572D01*
G01X7893Y4568D01*
G01X7894Y4564D01*
G01X7895Y4560D01*
G01X7896Y4556D01*
G01X7897Y4552D01*
G01X7898Y4548D01*
G01X7899Y4544D01*
G01X7901Y4540D01*
G01X7903Y4537D01*
G01X7905Y4533D01*
G01X7907Y4529D01*
G01X7909Y4526D01*
G01X7911Y4522D01*
G01X7914Y4519D01*
G01X7916Y4516D01*
G01X7919Y4513D01*
G01X7922Y4510D01*
G01X7925Y4507D01*
G01X7928Y4504D01*
G01X7931Y4502D01*
G01X7934Y4499D01*
G01X7938Y4497D01*
G01X7941Y4495D01*
G01X7945Y4493D01*
G01X7949Y4491D01*
G01X7952Y4489D01*
G01X7956Y4487D01*
G01X7960Y4486D01*
G01X7964Y4485D01*
G01X7968Y4484D01*
G01X7972Y4483D01*
G01X7976Y4482D01*
G01X7980Y4481D01*
G01X7984Y4481D01*
G01X7988Y4481D01*
G01X7993Y4480D01*
G01X8426Y4480D01*
G01X8430Y4481D01*
G01X8434Y4481D01*
G01X8438Y4481D01*
G01X8442Y4482D01*
G01X8446Y4483D01*
G01X8450Y4484D01*
G01X8454Y4485D01*
G01X8458Y4486D01*
G01X8462Y4487D01*
G01X8466Y4489D01*
G01X8469Y4491D01*
G01X8473Y4493D01*
G01X8477Y4495D01*
G01X8480Y4497D01*
G01X8484Y4499D01*
G01X8487Y4502D01*
G01X8490Y4504D01*
G01X8493Y4507D01*
G01X8496Y4510D01*
G01X8499Y4513D01*
G01X8502Y4516D01*
G01X8504Y4519D01*
G01X8507Y4522D01*
G01X8509Y4526D01*
G01X8511Y4529D01*
G01X8513Y4533D01*
G01X8515Y4537D01*
G01X8517Y4540D01*
G01X8519Y4544D01*
G01X8520Y4548D01*
G01X8521Y4552D01*
G01X8522Y4556D01*
G01X8523Y4560D01*
G01X8524Y4564D01*
G01X8525Y4568D01*
G01X8525Y4572D01*
G01X8525Y4576D01*
G01X8526Y4580D01*
G01X8526Y4975D01*
G01X8525Y4979D01*
G01X8525Y4983D01*
G01X8525Y4987D01*
G01X8524Y4991D01*
G01X8523Y4995D01*
G01X8522Y4999D01*
G01X8521Y5003D01*
G01X8520Y5007D01*
G01X8519Y5011D01*
G01X8517Y5015D01*
G01X8515Y5018D01*
G01X8513Y5022D01*
G01X8511Y5026D01*
G01X8509Y5029D01*
G01X8507Y5033D01*
G01X8504Y5036D01*
G01X8502Y5039D01*
G01X8499Y5042D01*
G01X8496Y5045D01*
G01X8493Y5048D01*
G01X8490Y5051D01*
G01X8487Y5053D01*
G01X8484Y5056D01*
G01X8480Y5058D01*
G01X8477Y5060D01*
G01X8473Y5062D01*
G01X8469Y5064D01*
G01X8466Y5066D01*
G01X8462Y5068D01*
G01X8458Y5069D01*
G01X8454Y5070D01*
G01X8450Y5071D01*
G01X8446Y5072D01*
G01X8442Y5073D01*
G01X8438Y5074D01*
G01X8434Y5074D01*
G01X8430Y5074D01*
G01X8426Y5075D01*
G01X8399Y5075D01*
G01X8399Y5134D01*
G01X8398Y5139D01*
G01X8398Y5145D01*
G01X8398Y5151D01*
G01X8397Y5156D01*
G01X8396Y5162D01*
G01X8395Y5168D01*
G01X8394Y5173D01*
G01X8393Y5179D01*
G01X8392Y5185D01*
G01X8390Y5190D01*
G01X8388Y5195D01*
G01X8386Y5201D01*
G01X8384Y5206D01*
G01X8382Y5211D01*
G01X8379Y5217D01*
G01X8377Y5222D01*
G01X8374Y5227D01*
G01X8371Y5232D01*
G01X8368Y5237D01*
G01X8365Y5241D01*
G01X8362Y5246D01*
G01X8358Y5251D01*
G01X8357Y5252D01*
G01X8360Y5256D01*
G01X8364Y5260D01*
G01X8368Y5265D01*
G01X8371Y5269D01*
G01X8375Y5274D01*
G01X8378Y5279D01*
G01X8381Y5284D01*
G01X8384Y5289D01*
G01X8387Y5294D01*
G01X8389Y5299D01*
G01X8392Y5304D01*
G01X8394Y5309D01*
G01X8396Y5315D01*
G01X8398Y5320D01*
G01X8400Y5326D01*
G01X8401Y5331D01*
G01X8403Y5337D01*
G01X8404Y5342D01*
G01X8405Y5348D01*
G01X8406Y5354D01*
G01X8407Y5359D01*
G01X8408Y5365D01*
G01X8408Y5371D01*
G01X8408Y5377D01*
G01X8409Y5382D01*
G01X8409Y5423D01*
G01X8432Y5396D01*
G01X8460Y5368D01*
G01X8491Y5344D01*
G01X8524Y5322D01*
G01X8559Y5304D01*
G01X8596Y5290D01*
G01X8634Y5279D01*
G01X8672Y5272D01*
G01X8712Y5269D01*
G01X8751Y5270D01*
G01X8790Y5275D01*
G01X8829Y5284D01*
G01X8866Y5297D01*
G01X8902Y5313D01*
G01X8936Y5332D01*
G01X8968Y5355D01*
G01X8998Y5382D01*
G01X9024Y5410D01*
G01X9048Y5442D01*
G01X9069Y5475D01*
G01X9086Y5511D01*
G01X9099Y5548D01*
G01X9109Y5586D01*
G01X9115Y5625D01*
G01X9117Y5665D01*
G01X9115Y5704D01*
G01X9109Y5743D01*
G01X9099Y5781D01*
G01X9086Y5818D01*
G01X9069Y5854D01*
G01X9048Y5887D01*
G01X9024Y5919D01*
G01X8998Y5947D01*
G01X8968Y5974D01*
G01X8936Y5997D01*
G01X8902Y6016D01*
G01X8866Y6032D01*
G01X8829Y6045D01*
G01X8790Y6054D01*
G01X8751Y6059D01*
G01X8712Y6060D01*
G01X8672Y6057D01*
G01X8634Y6050D01*
G01X8596Y6039D01*
G01X8559Y6025D01*
G01X8524Y6007D01*
G01X8491Y5985D01*
G01X8460Y5961D01*
G01X8432Y5933D01*
G01X8425Y5925D01*
G01X8423Y5930D01*
G01X8413Y5950D01*
G01X8402Y5969D01*
G01X8389Y5986D01*
G01X8374Y6002D01*
G01X8357Y6017D01*
G01X8339Y6030D01*
G01X8320Y6041D01*
G01X8300Y6050D01*
G01X8279Y6057D01*
G01X8257Y6062D01*
G01X8235Y6065D01*
G01X8213Y6065D01*
G01X8191Y6064D01*
G01X8169Y6060D01*
G01X8148Y6054D01*
G01X8127Y6046D01*
G01X8107Y6036D01*
G01X8089Y6024D01*
G01X8072Y6010D01*
G01X8069Y6007D01*
G01X8069Y6338D01*
G01X8068Y6343D01*
G01X8068Y6348D01*
G01X8068Y6354D01*
G01X8067Y6359D01*
G01X8066Y6364D01*
G01X8065Y6370D01*
G01X8064Y6375D01*
G01X8063Y6380D01*
G01X8061Y6385D01*
G01X8060Y6390D01*
G01X8058Y6395D01*
G01X8056Y6400D01*
G01X8053Y6405D01*
G01X8051Y6410D01*
G01X8049Y6415D01*
G01X8046Y6419D01*
G01X8043Y6424D01*
G01X8040Y6428D01*
G01X8037Y6433D01*
G01X8034Y6437D01*
G01X8030Y6441D01*
G01X8027Y6445D01*
G01X7903Y6581D01*
G01X7899Y6585D01*
G01X7895Y6589D01*
G01X7891Y6593D01*
G01X7887Y6596D01*
G01X7883Y6599D01*
G01X7879Y6603D01*
G01X7875Y6606D01*
G01X7870Y6609D01*
G01X7866Y6611D01*
G01X7861Y6614D01*
G01X7856Y6616D01*
G01X7852Y6619D01*
G01X7847Y6621D01*
G01X7842Y6623D01*
G01X7837Y6625D01*
G01X7832Y6626D01*
G01X7827Y6628D01*
G01X7821Y6629D01*
G01X7816Y6630D01*
G01X7811Y6631D01*
G01X7806Y6632D01*
G01X7800Y6633D01*
G01X7795Y6633D01*
G01X7790Y6633D01*
G01X7785Y6634D01*
G01X7639Y6634D01*
G01X7545Y6752D01*
G01X7543Y6755D01*
G01X7541Y6758D01*
G01X7538Y6762D01*
G01X7535Y6766D01*
G01X7532Y6769D01*
G01X7529Y6773D01*
G01X7526Y6776D01*
G01X7523Y6779D01*
G01X7520Y6783D01*
G01X7517Y6786D01*
G01X7513Y6789D01*
G01X7510Y6792D01*
G01X7506Y6795D01*
G01X7503Y6798D01*
G01X7499Y6801D01*
G01X7496Y6803D01*
G01X7492Y6806D01*
G01X7488Y6808D01*
G01X7484Y6811D01*
G01X7483Y6811D01*
G01X7484Y6811D01*
G01X7488Y6814D01*
G01X7492Y6816D01*
G01X7496Y6819D01*
G01X7499Y6821D01*
G01X7503Y6824D01*
G01X7506Y6827D01*
G01X7510Y6830D01*
G01X7513Y6833D01*
G01X7517Y6836D01*
G01X7520Y6839D01*
G01X7523Y6843D01*
G01X7526Y6846D01*
G01X7529Y6850D01*
G01X7532Y6853D01*
G01X7535Y6857D01*
G01X7538Y6860D01*
G01X7541Y6864D01*
G01X7543Y6867D01*
G01X7546Y6872D01*
G01X7548Y6875D01*
G01X7550Y6879D01*
G01X7552Y6883D01*
G01X7554Y6887D01*
G01X7556Y6891D01*
G01X7558Y6896D01*
G01X7560Y6899D01*
G01X7562Y6904D01*
G01X7563Y6908D01*
G01X7565Y6913D01*
G01X7566Y6917D01*
G01X7567Y6921D01*
G01X7568Y6925D01*
G01X7569Y6930D01*
G01X7570Y6934D01*
G01X7571Y6939D01*
G01X7572Y6943D01*
G01X7572Y6948D01*
G01X7573Y6952D01*
G01X7573Y6957D01*
G01X7573Y6962D01*
G01X7573Y6966D01*
G01X7573Y6971D01*
G01X7573Y6975D01*
G01X7573Y6980D01*
G01X7573Y6985D01*
G01X7572Y6989D01*
G01X7572Y6994D01*
G01X7571Y6998D01*
G01X7570Y7003D01*
G01X7569Y7007D01*
G01X7568Y7012D01*
G01X7567Y7016D01*
G01X7566Y7020D01*
G01X7565Y7024D01*
G01X7563Y7029D01*
G01X7562Y7033D01*
G01X7560Y7038D01*
G01X7558Y7041D01*
G01X7556Y7046D01*
G01X7554Y7050D01*
G01X7552Y7054D01*
G01X7550Y7058D01*
G01X7548Y7062D01*
G01X7546Y7065D01*
G01X7543Y7070D01*
G01X7541Y7073D01*
G01X7538Y7077D01*
G01X7535Y7080D01*
G01X7532Y7084D01*
G01X7529Y7087D01*
G01X7526Y7091D01*
G01X7523Y7094D01*
G01X7520Y7098D01*
G01X7517Y7101D01*
G01X7513Y7104D01*
G01X7510Y7107D01*
G01X7506Y7110D01*
G01X7503Y7113D01*
G01X7499Y7116D01*
G01X7496Y7118D01*
G01X7492Y7121D01*
G01X7488Y7123D01*
G01X7484Y7126D01*
G01X7483Y7126D01*
G01X7484Y7126D01*
G01X7488Y7129D01*
G01X7492Y7131D01*
G01X7496Y7134D01*
G01X7499Y7136D01*
G01X7503Y7139D01*
G01X7506Y7142D01*
G01X7510Y7145D01*
G01X7513Y7148D01*
G01X7517Y7151D01*
G01X7520Y7154D01*
G01X7523Y7158D01*
G01X7526Y7161D01*
G01X7529Y7165D01*
G01X7532Y7168D01*
G01X7535Y7172D01*
G01X7538Y7175D01*
G01X7541Y7179D01*
G01X7543Y7182D01*
G01X7546Y7187D01*
G01X7548Y7190D01*
G01X7550Y7194D01*
G01X7552Y7198D01*
G01X7554Y7202D01*
G01X7556Y7206D01*
G01X7558Y7211D01*
G01X7560Y7214D01*
G01X7562Y7219D01*
G01X7563Y7223D01*
G01X7565Y7228D01*
G01X7566Y7232D01*
G01X7567Y7236D01*
G01X7568Y7240D01*
G01X7569Y7245D01*
G01X7570Y7249D01*
G01X7571Y7254D01*
G01X7572Y7258D01*
G01X7572Y7263D01*
G01X7573Y7267D01*
G01X7573Y7272D01*
G01X7573Y7277D01*
G01X7573Y7281D01*
G01X7573Y7286D01*
G01X7573Y7290D01*
G01X7573Y7295D01*
G01X7573Y7300D01*
G01X7572Y7304D01*
G01X7572Y7309D01*
G01X7571Y7313D01*
G01X7570Y7318D01*
G01X7569Y7322D01*
G01X7568Y7327D01*
G01X7567Y7331D01*
G01X7566Y7335D01*
G01X7565Y7339D01*
G01X7563Y7344D01*
G01X7562Y7348D01*
G01X7560Y7353D01*
G01X7558Y7356D01*
G01X7556Y7361D01*
G01X7554Y7365D01*
G01X7552Y7369D01*
G01X7550Y7373D01*
G01X7548Y7377D01*
G01X7546Y7380D01*
G01X7543Y7385D01*
G01X7541Y7388D01*
G01X7538Y7392D01*
G01X7535Y7395D01*
G01X7532Y7399D01*
G01X7529Y7402D01*
G01X7526Y7406D01*
G01X7523Y7409D01*
G01X7520Y7413D01*
G01X7517Y7416D01*
G01X7513Y7419D01*
G01X7510Y7422D01*
G01X7506Y7425D01*
G01X7503Y7428D01*
G01X7499Y7431D01*
G01X7496Y7433D01*
G01X7492Y7436D01*
G01X7488Y7438D01*
G01X7484Y7441D01*
G01X7480Y7443D01*
G01X7476Y7445D01*
G01X7472Y7447D01*
G01X7468Y7449D01*
G01X7464Y7451D01*
G01X7459Y7453D01*
G01X7455Y7454D01*
G01X7451Y7456D01*
G01X7447Y7457D01*
G01X7442Y7459D01*
G01X7438Y7460D01*
G01X7434Y7461D01*
G01X7429Y7462D01*
G01X7425Y7463D01*
G01X7421Y7464D01*
G01X7415Y7464D01*
G01X7411Y7465D01*
G01X7407Y7465D01*
G01X7402Y7466D01*
G01X7397Y7466D01*
G01X7393Y7466D01*
G01X7391Y7466D01*
G01X6926Y7466D01*
G01X6924Y7466D01*
G01X6920Y7466D01*
G01X6915Y7466D01*
G01X6910Y7465D01*
G01X6906Y7465D01*
G01X6902Y7464D01*
G01X6896Y7464D01*
G01X6892Y7463D01*
G01X6888Y7462D01*
G01X6884Y7461D01*
G01X6879Y7460D01*
G01X6875Y7459D01*
G01X6870Y7457D01*
G01X6866Y7456D01*
G01X6862Y7454D01*
G01X6858Y7453D01*
G01X6853Y7451D01*
G01X6849Y7449D01*
G01X6845Y7447D01*
G01X6841Y7445D01*
G01X6837Y7443D01*
G01X6833Y7441D01*
G01X6829Y7438D01*
G01X6825Y7436D01*
G01X6821Y7433D01*
G01X6818Y7431D01*
G01X6814Y7428D01*
G01X6811Y7425D01*
G01X6807Y7422D01*
G01X6804Y7419D01*
G01X6800Y7416D01*
G01X6797Y7413D01*
G01X6794Y7409D01*
G01X6791Y7406D01*
G01X6788Y7402D01*
G01X6785Y7399D01*
G01X6782Y7395D01*
G01X6779Y7392D01*
G01X6776Y7388D01*
G01X6774Y7385D01*
G01X6771Y7380D01*
G01X6769Y7377D01*
G01X6767Y7373D01*
G01X6765Y7369D01*
G01X6763Y7365D01*
G01X6761Y7361D01*
G01X6759Y7356D01*
G01X6757Y7353D01*
G01X6755Y7348D01*
G01X6754Y7344D01*
G01X6752Y7339D01*
G01X6751Y7335D01*
G01X6750Y7331D01*
G01X6749Y7327D01*
G01X6748Y7322D01*
G01X6747Y7318D01*
G01X6746Y7313D01*
G01X6745Y7309D01*
G01X6745Y7304D01*
G01X6744Y7300D01*
G01X6744Y7295D01*
G01X6744Y7290D01*
G01X6744Y7286D01*
G01X6744Y7281D01*
G01X6744Y7277D01*
G01X6744Y7272D01*
G01X6744Y7267D01*
G01X6745Y7263D01*
G01X6745Y7258D01*
G01X6746Y7254D01*
G01X6747Y7249D01*
G01X6748Y7245D01*
G01X6749Y7240D01*
G01X6750Y7236D01*
G01X6751Y7232D01*
G01X6752Y7228D01*
G01X6754Y7223D01*
G01X6755Y7219D01*
G01X6757Y7214D01*
G01X6759Y7211D01*
G01X6761Y7206D01*
G01X6763Y7202D01*
G01X6765Y7198D01*
G01X6767Y7194D01*
G01X6769Y7190D01*
G01X6771Y7187D01*
G01X6774Y7182D01*
G01X6776Y7179D01*
G01X6779Y7175D01*
G01X6782Y7172D01*
G01X6785Y7168D01*
G01X6788Y7165D01*
G01X6791Y7161D01*
G01X6794Y7158D01*
G01X6797Y7155D01*
G01X6699Y7154D01*
G01X6698Y7159D01*
G01X6698Y7165D01*
G01X6698Y7171D01*
G01X6697Y7176D01*
G01X6696Y7182D01*
G01X6695Y7188D01*
G01X6694Y7193D01*
G01X6693Y7199D01*
G01X6692Y7205D01*
G01X6690Y7210D01*
G01X6688Y7215D01*
G01X6686Y7221D01*
G01X6684Y7226D01*
G01X6682Y7231D01*
G01X6679Y7237D01*
G01X6677Y7242D01*
G01X6674Y7247D01*
G01X6671Y7252D01*
G01X6668Y7257D01*
G01X6665Y7261D01*
G01X6662Y7266D01*
G01X6658Y7271D01*
G01X6654Y7275D01*
G01X6651Y7279D01*
G01X6647Y7284D01*
G01X6643Y7288D01*
G01X6533Y7398D01*
G01X6529Y7402D01*
G01X6524Y7406D01*
G01X6520Y7409D01*
G01X6516Y7413D01*
G01X6511Y7417D01*
G01X6506Y7420D01*
G01X6502Y7423D01*
G01X6497Y7426D01*
G01X6492Y7429D01*
G01X6487Y7432D01*
G01X6482Y7434D01*
G01X6476Y7437D01*
G01X6471Y7439D01*
G01X6466Y7441D01*
G01X6460Y7443D01*
G01X6455Y7445D01*
G01X6450Y7447D01*
G01X6444Y7448D01*
G01X6438Y7449D01*
G01X6433Y7450D01*
G01X6427Y7451D01*
G01X6421Y7452D01*
G01X6416Y7453D01*
G01X6410Y7453D01*
G01X6404Y7453D01*
G01X6399Y7453D01*
G01X3437Y7453D01*
G01X3372Y7519D01*
G01X3375Y7519D01*
G01X3380Y7519D01*
G01X3385Y7520D01*
G01X3389Y7521D01*
G01X3393Y7521D01*
G01X3397Y7522D01*
G01X3402Y7523D01*
G01X3406Y7524D01*
G01X3411Y7526D01*
G01X3415Y7527D01*
G01X3420Y7528D01*
G01X3424Y7530D01*
G01X3428Y7532D01*
G01X3432Y7533D01*
G01X3437Y7535D01*
G01X3440Y7537D01*
G01X3445Y7539D01*
G01X3448Y7541D01*
G01X3453Y7544D01*
G01X3456Y7546D01*
G01X3461Y7549D01*
G01X3464Y7551D01*
G01X3468Y7554D01*
G01X3471Y7556D01*
G01X3475Y7560D01*
G01X3478Y7562D01*
G01X3482Y7565D01*
G01X3485Y7568D01*
G01X3489Y7572D01*
G01X3491Y7575D01*
G01X3495Y7578D01*
G01X3498Y7581D01*
G01X3501Y7585D01*
G01X3503Y7589D01*
G01X3506Y7593D01*
G01X3509Y7596D01*
G01X3512Y7600D01*
G01X3514Y7603D01*
G01X3516Y7608D01*
G01X3517Y7608D01*
G01X3517Y7608D01*
G01X3520Y7603D01*
G01X3522Y7600D01*
G01X3525Y7596D01*
G01X3527Y7593D01*
G01X3530Y7589D01*
G01X3533Y7585D01*
G01X3536Y7581D01*
G01X3539Y7578D01*
G01X3542Y7575D01*
G01X3545Y7572D01*
G01X3549Y7568D01*
G01X3552Y7565D01*
G01X3555Y7562D01*
G01X3558Y7560D01*
G01X3562Y7556D01*
G01X3566Y7554D01*
G01X3570Y7551D01*
G01X3573Y7549D01*
G01X3577Y7546D01*
G01X3581Y7544D01*
G01X3585Y7541D01*
G01X3589Y7539D01*
G01X3593Y7537D01*
G01X3597Y7535D01*
G01X3601Y7533D01*
G01X3605Y7532D01*
G01X3610Y7530D01*
G01X3614Y7528D01*
G01X3618Y7527D01*
G01X3622Y7526D01*
G01X3627Y7524D01*
G01X3631Y7523D01*
G01X3633Y7523D01*
G01X3633Y7776D01*
G01X3542Y7776D01*
G01X3542Y7881D01*
G01X3543Y7884D01*
G01X3545Y7893D01*
G01X3547Y7902D01*
G01X3548Y7912D01*
G01X3549Y7921D01*
G01X3549Y7931D01*
G01X3549Y7940D01*
G01X3549Y7950D01*
G01X3548Y7959D01*
G01X3546Y7968D01*
G01X3544Y7978D01*
G01X3542Y7986D01*
G01X3542Y8091D01*
G01X3633Y8091D01*
G01X3633Y8259D01*
G01X3716Y8259D01*
G01X3716Y8091D01*
G01X3807Y8091D01*
G01X3807Y7776D01*
G01X3716Y7776D01*
G01X3716Y7523D01*
G01X3717Y7523D01*
G01X3721Y7524D01*
G01X3726Y7526D01*
G01X3730Y7527D01*
G01X3735Y7528D01*
G01X3739Y7530D01*
G01X3743Y7532D01*
G01X3747Y7533D01*
G01X3752Y7535D01*
G01X3755Y7537D01*
G01X3760Y7539D01*
G01X3763Y7541D01*
G01X3768Y7544D01*
G01X3771Y7546D01*
G01X3776Y7549D01*
G01X3779Y7551D01*
G01X3783Y7554D01*
G01X3786Y7556D01*
G01X3790Y7560D01*
G01X3793Y7562D01*
G01X3797Y7565D01*
G01X3800Y7568D01*
G01X3804Y7572D01*
G01X3806Y7575D01*
G01X3810Y7578D01*
G01X3813Y7581D01*
G01X3816Y7585D01*
G01X3818Y7589D01*
G01X3821Y7593D01*
G01X3824Y7596D01*
G01X3827Y7600D01*
G01X3829Y7603D01*
G01X3831Y7608D01*
G01X3832Y7608D01*
G01X3832Y7608D01*
G01X3835Y7603D01*
G01X3837Y7600D01*
G01X3840Y7596D01*
G01X3842Y7593D01*
G01X3845Y7589D01*
G01X3848Y7585D01*
G01X3851Y7581D01*
G01X3854Y7578D01*
G01X3857Y7575D01*
G01X3860Y7572D01*
G01X3863Y7568D01*
G01X3867Y7565D01*
G01X3870Y7562D01*
G01X3873Y7560D01*
G01X3877Y7556D01*
G01X3881Y7554D01*
G01X3885Y7551D01*
G01X3888Y7549D01*
G01X3892Y7546D01*
G01X3896Y7544D01*
G01X3900Y7541D01*
G01X3904Y7539D01*
G01X3908Y7537D01*
G01X3912Y7535D01*
G01X3916Y7533D01*
G01X3920Y7532D01*
G01X3925Y7530D01*
G01X3929Y7528D01*
G01X3933Y7527D01*
G01X3937Y7526D01*
G01X3942Y7524D01*
G01X3946Y7523D01*
G01X3951Y7522D01*
G01X3955Y7521D01*
G01X3960Y7521D01*
G01X3964Y7520D01*
G01X3969Y7519D01*
G01X3973Y7519D01*
G01X3978Y7518D01*
G01X3982Y7518D01*
G01X3987Y7518D01*
G01X3991Y7518D01*
G01X3996Y7518D01*
G01X4000Y7518D01*
G01X4005Y7519D01*
G01X4009Y7519D01*
G01X4015Y7520D01*
G01X4019Y7521D01*
G01X4023Y7521D01*
G01X4027Y7522D01*
G01X4032Y7523D01*
G01X4036Y7524D01*
G01X4041Y7526D01*
G01X4045Y7527D01*
G01X4050Y7528D01*
G01X4054Y7530D01*
G01X4058Y7532D01*
G01X4062Y7533D01*
G01X4067Y7535D01*
G01X4070Y7537D01*
G01X4075Y7539D01*
G01X4078Y7541D01*
G01X4083Y7544D01*
G01X4086Y7546D01*
G01X4090Y7549D01*
G01X4094Y7551D01*
G01X4098Y7554D01*
G01X4101Y7556D01*
G01X4105Y7560D01*
G01X4108Y7562D01*
G01X4112Y7565D01*
G01X4115Y7568D01*
G01X4118Y7572D01*
G01X4121Y7575D01*
G01X4125Y7578D01*
G01X4127Y7581D01*
G01X4131Y7585D01*
G01X4133Y7589D01*
G01X4136Y7593D01*
G01X4139Y7596D01*
G01X4142Y7600D01*
G01X4144Y7603D01*
G01X4146Y7608D01*
G01X4147Y7608D01*
G01X4147Y7608D01*
G01X4150Y7603D01*
G01X4152Y7600D01*
G01X4155Y7596D01*
G01X4157Y7593D01*
G01X4160Y7589D01*
G01X4163Y7585D01*
G01X4166Y7581D01*
G01X4169Y7578D01*
G01X4172Y7575D01*
G01X4175Y7572D01*
G01X4178Y7568D01*
G01X4182Y7565D01*
G01X4185Y7562D01*
G01X4188Y7560D01*
G01X4192Y7556D01*
G01X4196Y7554D01*
G01X4200Y7551D01*
G01X4203Y7549D01*
G01X4207Y7546D01*
G01X4211Y7544D01*
G01X4215Y7541D01*
G01X4219Y7539D01*
G01X4223Y7537D01*
G01X4227Y7535D01*
G01X4231Y7533D01*
G01X4235Y7532D01*
G01X4240Y7530D01*
G01X4244Y7528D01*
G01X4248Y7527D01*
G01X4252Y7526D01*
G01X4257Y7524D01*
G01X4261Y7523D01*
G01X4266Y7522D01*
G01X4270Y7521D01*
G01X4275Y7521D01*
G01X4279Y7520D01*
G01X4284Y7519D01*
G01X4288Y7519D01*
G01X4293Y7518D01*
G01X4297Y7518D01*
G01X4302Y7518D01*
G01X4306Y7518D01*
G01X4311Y7518D01*
G01X4315Y7518D01*
G01X4320Y7519D01*
G01X4324Y7519D01*
G01X4330Y7520D01*
G01X4334Y7521D01*
G01X4338Y7521D01*
G01X4342Y7522D01*
G01X4347Y7523D01*
G01X4351Y7524D01*
G01X4356Y7526D01*
G01X4360Y7527D01*
G01X4365Y7528D01*
G01X4369Y7530D01*
G01X4373Y7532D01*
G01X4377Y7533D01*
G01X4382Y7535D01*
G01X4385Y7537D01*
G01X4390Y7539D01*
G01X4393Y7541D01*
G01X4398Y7544D01*
G01X4401Y7546D01*
G01X4405Y7549D01*
G01X4409Y7551D01*
G01X4413Y7554D01*
G01X4416Y7556D01*
G01X4420Y7560D01*
G01X4423Y7562D01*
G01X4427Y7565D01*
G01X4430Y7568D01*
G01X4433Y7572D01*
G01X4436Y7575D01*
G01X4440Y7578D01*
G01X4442Y7581D01*
G01X4446Y7585D01*
G01X4448Y7589D01*
G01X4451Y7593D01*
G01X4454Y7596D01*
G01X4457Y7600D01*
G01X4459Y7603D01*
G01X4461Y7608D01*
G01X4462Y7608D01*
G01X4462Y7608D01*
G01X4465Y7603D01*
G01X4467Y7600D01*
G01X4470Y7596D01*
G01X4472Y7593D01*
G01X4475Y7589D01*
G01X4478Y7585D01*
G01X4481Y7581D01*
G01X4484Y7578D01*
G01X4487Y7575D01*
G01X4490Y7572D01*
G01X4493Y7568D01*
G01X4496Y7565D01*
G01X4500Y7562D01*
G01X4503Y7560D01*
G01X4507Y7556D01*
G01X4510Y7554D01*
G01X4514Y7551D01*
G01X4518Y7549D01*
G01X4522Y7546D01*
G01X4526Y7544D01*
G01X4530Y7541D01*
G01X4534Y7539D01*
G01X4538Y7537D01*
G01X4542Y7535D01*
G01X4546Y7533D01*
G01X4550Y7532D01*
G01X4555Y7530D01*
G01X4559Y7528D01*
G01X4563Y7527D01*
G01X4567Y7526D01*
G01X4572Y7524D01*
G01X4576Y7523D01*
G01X4581Y7522D01*
G01X4585Y7521D01*
G01X4590Y7521D01*
G01X4594Y7520D01*
G01X4599Y7519D01*
G01X4603Y7519D01*
G01X4608Y7518D01*
G01X4612Y7518D01*
G01X4617Y7518D01*
G01X4621Y7518D01*
G01X4626Y7518D01*
G01X4630Y7518D01*
G01X4635Y7519D01*
G01X4639Y7519D01*
G01X4644Y7520D01*
G01X4648Y7521D01*
G01X4653Y7521D01*
G01X4657Y7522D01*
G01X4662Y7523D01*
G01X4666Y7524D01*
G01X4671Y7526D01*
G01X4675Y7527D01*
G01X4680Y7528D01*
G01X4683Y7530D01*
G01X4688Y7532D01*
G01X4692Y7533D01*
G01X4697Y7535D01*
G01X4700Y7537D01*
G01X4705Y7539D01*
G01X4708Y7541D01*
G01X4713Y7544D01*
G01X4716Y7546D01*
G01X4720Y7549D01*
G01X4724Y7551D01*
G01X4728Y7554D01*
G01X4731Y7556D01*
G01X4735Y7560D01*
G01X4738Y7562D01*
G01X4742Y7565D01*
G01X4745Y7568D01*
G01X4748Y7572D01*
G01X4751Y7575D01*
G01X4755Y7578D01*
G01X4757Y7581D01*
G01X4761Y7585D01*
G01X4763Y7589D01*
G01X4766Y7593D01*
G01X4769Y7596D01*
G01X4771Y7600D01*
G01X4774Y7603D01*
G01X4776Y7608D01*
G01X4777Y7608D01*
G01X4777Y7608D01*
G01X4780Y7603D01*
G01X4782Y7600D01*
G01X4785Y7596D01*
G01X4787Y7593D01*
G01X4790Y7589D01*
G01X4793Y7585D01*
G01X4796Y7581D01*
G01X4799Y7578D01*
G01X4802Y7575D01*
G01X4805Y7572D01*
G01X4808Y7568D01*
G01X4811Y7565D01*
G01X4815Y7562D01*
G01X4818Y7560D01*
G01X4822Y7556D01*
G01X4825Y7554D01*
G01X4829Y7551D01*
G01X4833Y7549D01*
G01X4837Y7546D01*
G01X4841Y7544D01*
G01X4845Y7541D01*
G01X4849Y7539D01*
G01X4853Y7537D01*
G01X4857Y7535D01*
G01X4861Y7533D01*
G01X4865Y7532D01*
G01X4870Y7530D01*
G01X4874Y7528D01*
G01X4878Y7527D01*
G01X4882Y7526D01*
G01X4887Y7524D01*
G01X4891Y7523D01*
G01X4896Y7522D01*
G01X4900Y7521D01*
G01X4905Y7521D01*
G01X4909Y7520D01*
G01X4914Y7519D01*
G01X4918Y7519D01*
G01X4923Y7518D01*
G01X4927Y7518D01*
G01X4932Y7518D01*
G01X4936Y7518D01*
G01X4941Y7518D01*
G01X4945Y7518D01*
G01X4950Y7519D01*
G01X4954Y7519D01*
G01X4959Y7520D01*
G01X4963Y7521D01*
G01X4968Y7521D01*
G01X4972Y7522D01*
G01X4977Y7523D01*
G01X4981Y7524D01*
G01X4986Y7526D01*
G01X4990Y7527D01*
G01X4995Y7528D01*
G01X4998Y7530D01*
G01X5003Y7532D01*
G01X5007Y7533D01*
G01X5012Y7535D01*
G01X5015Y7537D01*
G01X5020Y7539D01*
G01X5023Y7541D01*
G01X5028Y7544D01*
G01X5031Y7546D01*
G01X5035Y7549D01*
G01X5039Y7551D01*
G01X5043Y7554D01*
G01X5046Y7556D01*
G01X5050Y7560D01*
G01X5053Y7562D01*
G01X5057Y7565D01*
G01X5060Y7568D01*
G01X5063Y7572D01*
G01X5066Y7575D01*
G01X5070Y7578D01*
G01X5072Y7581D01*
G01X5076Y7585D01*
G01X5078Y7589D01*
G01X5081Y7593D01*
G01X5084Y7596D01*
G01X5086Y7600D01*
G01X5089Y7603D01*
G01X5091Y7608D01*
G01X5092Y7608D01*
G01X5092Y7608D01*
G01X5095Y7603D01*
G01X5097Y7600D01*
G01X5100Y7596D01*
G01X5102Y7593D01*
G01X5105Y7589D01*
G01X5108Y7585D01*
G01X5111Y7581D01*
G01X5114Y7578D01*
G01X5117Y7575D01*
G01X5120Y7572D01*
G01X5123Y7568D01*
G01X5126Y7565D01*
G01X5130Y7562D01*
G01X5133Y7560D01*
G01X5137Y7556D01*
G01X5140Y7554D01*
G01X5144Y7551D01*
G01X5148Y7549D01*
G01X5152Y7546D01*
G01X5156Y7544D01*
G01X5160Y7541D01*
G01X5164Y7539D01*
G01X5168Y7537D01*
G01X5172Y7535D01*
G01X5176Y7533D01*
G01X5180Y7532D01*
G01X5185Y7530D01*
G01X5189Y7528D01*
G01X5193Y7527D01*
G01X5197Y7526D01*
G01X5202Y7524D01*
G01X5206Y7523D01*
G01X5211Y7522D01*
G01X5215Y7521D01*
G01X5220Y7521D01*
G01X5224Y7520D01*
G01X5229Y7519D01*
G01X5233Y7519D01*
G01X5238Y7518D01*
G01X5242Y7518D01*
G01X5247Y7518D01*
G01X5251Y7518D01*
G01X5256Y7518D01*
G01X5260Y7518D01*
G01X5265Y7519D01*
G01X5269Y7519D01*
G01X5274Y7520D01*
G01X5278Y7521D01*
G01X5283Y7521D01*
G01X5287Y7522D01*
G01X5292Y7523D01*
G01X5296Y7524D01*
G01X5301Y7526D01*
G01X5305Y7527D01*
G01X5310Y7528D01*
G01X5313Y7530D01*
G01X5318Y7532D01*
G01X5322Y7533D01*
G01X5327Y7535D01*
G01X5330Y7537D01*
G01X5335Y7539D01*
G01X5338Y7541D01*
G01X5343Y7544D01*
G01X5346Y7546D01*
G01X5350Y7549D01*
G01X5354Y7551D01*
G01X5358Y7554D01*
G01X5361Y7556D01*
G01X5365Y7560D01*
G01X5368Y7562D01*
G01X5372Y7565D01*
G01X5375Y7568D01*
G01X5378Y7572D01*
G01X5381Y7575D01*
G01X5385Y7578D01*
G01X5387Y7581D01*
G01X5391Y7585D01*
G01X5393Y7589D01*
G01X5396Y7593D01*
G01X5399Y7596D01*
G01X5401Y7600D01*
G01X5404Y7603D01*
G01X5406Y7608D01*
G01X5407Y7608D01*
G01X5407Y7608D01*
G01X5409Y7603D01*
G01X5412Y7600D01*
G01X5414Y7596D01*
G01X5417Y7593D01*
G01X5420Y7589D01*
G01X5422Y7585D01*
G01X5426Y7581D01*
G01X5428Y7578D01*
G01X5432Y7575D01*
G01X5435Y7572D01*
G01X5438Y7568D01*
G01X5441Y7565D01*
G01X5445Y7562D01*
G01X5448Y7560D01*
G01X5452Y7556D01*
G01X5455Y7554D01*
G01X5459Y7551D01*
G01X5463Y7549D01*
G01X5467Y7546D01*
G01X5471Y7544D01*
G01X5475Y7541D01*
G01X5478Y7539D01*
G01X5483Y7537D01*
G01X5487Y7535D01*
G01X5491Y7533D01*
G01X5495Y7532D01*
G01X5500Y7530D01*
G01X5504Y7528D01*
G01X5508Y7527D01*
G01X5512Y7526D01*
G01X5517Y7524D01*
G01X5521Y7523D01*
G01X5526Y7522D01*
G01X5530Y7521D01*
G01X5535Y7521D01*
G01X5539Y7520D01*
G01X5544Y7519D01*
G01X5548Y7519D01*
G01X5553Y7518D01*
G01X5557Y7518D01*
G01X5562Y7518D01*
G01X5566Y7518D01*
G01X5571Y7518D01*
G01X5575Y7518D01*
G01X5580Y7519D01*
G01X5584Y7519D01*
G01X5589Y7520D01*
G01X5593Y7521D01*
G01X5598Y7521D01*
G01X5602Y7522D01*
G01X5607Y7523D01*
G01X5611Y7524D01*
G01X5616Y7526D01*
G01X5620Y7527D01*
G01X5624Y7528D01*
G01X5628Y7530D01*
G01X5633Y7532D01*
G01X5637Y7533D01*
G01X5641Y7535D01*
G01X5645Y7537D01*
G01X5650Y7539D01*
G01X5653Y7541D01*
G01X5657Y7544D01*
G01X5661Y7546D01*
G01X5665Y7549D01*
G01X5669Y7551D01*
G01X5673Y7554D01*
G01X5676Y7556D01*
G01X5680Y7560D01*
G01X5683Y7562D01*
G01X5687Y7565D01*
G01X5690Y7568D01*
G01X5693Y7572D01*
G01X5696Y7575D01*
G01X5700Y7578D01*
G01X5702Y7581D01*
G01X5706Y7585D01*
G01X5708Y7589D01*
G01X5711Y7593D01*
G01X5714Y7596D01*
G01X5716Y7600D01*
G01X5719Y7603D01*
G01X5721Y7608D01*
G01X5722Y7608D01*
G01X5722Y7608D01*
G01X5724Y7603D01*
G01X5727Y7600D01*
G01X5729Y7596D01*
G01X5732Y7593D01*
G01X5735Y7589D01*
G01X5737Y7585D01*
G01X5741Y7581D01*
G01X5743Y7578D01*
G01X5747Y7575D01*
G01X5750Y7572D01*
G01X5753Y7568D01*
G01X5756Y7565D01*
G01X5760Y7562D01*
G01X5763Y7560D01*
G01X5767Y7556D01*
G01X5770Y7554D01*
G01X5774Y7551D01*
G01X5778Y7549D01*
G01X5782Y7546D01*
G01X5786Y7544D01*
G01X5790Y7541D01*
G01X5793Y7539D01*
G01X5798Y7537D01*
G01X5802Y7535D01*
G01X5806Y7533D01*
G01X5810Y7532D01*
G01X5815Y7530D01*
G01X5819Y7528D01*
G01X5823Y7527D01*
G01X5827Y7526D01*
G01X5832Y7524D01*
G01X5836Y7523D01*
G01X5841Y7522D01*
G01X5845Y7521D01*
G01X5850Y7521D01*
G01X5854Y7520D01*
G01X5859Y7519D01*
G01X5863Y7519D01*
G01X5868Y7518D01*
G01X5872Y7518D01*
G01X5877Y7518D01*
G01X5881Y7518D01*
G01X5886Y7518D01*
G01X5890Y7518D01*
G01X5895Y7519D01*
G01X5899Y7519D01*
G01X5904Y7520D01*
G01X5908Y7521D01*
G01X5913Y7521D01*
G01X5917Y7522D01*
G01X5922Y7523D01*
G01X5926Y7524D01*
G01X5931Y7526D01*
G01X5935Y7527D01*
G01X5939Y7528D01*
G01X5943Y7530D01*
G01X5948Y7532D01*
G01X5952Y7533D01*
G01X5956Y7535D01*
G01X5960Y7537D01*
G01X5965Y7539D01*
G01X5968Y7541D01*
G01X5972Y7544D01*
G01X5976Y7546D01*
G01X5980Y7549D01*
G01X5984Y7551D01*
G01X5988Y7554D01*
G01X5991Y7556D01*
G01X5995Y7560D01*
G01X5998Y7562D01*
G01X6002Y7565D01*
G01X6005Y7568D01*
G01X6008Y7572D01*
G01X6011Y7575D01*
G01X6015Y7578D01*
G01X6017Y7581D01*
G01X6021Y7585D01*
G01X6023Y7589D01*
G01X6026Y7593D01*
G01X6029Y7596D01*
G01X6031Y7600D01*
G01X6034Y7603D01*
G01X6036Y7608D01*
G01X6036Y7608D01*
G01X6037Y7608D01*
G01X6039Y7603D01*
G01X6042Y7600D01*
G01X6044Y7596D01*
G01X6047Y7593D01*
G01X6050Y7589D01*
G01X6052Y7585D01*
G01X6056Y7581D01*
G01X6058Y7578D01*
G01X6062Y7575D01*
G01X6065Y7572D01*
G01X6068Y7568D01*
G01X6071Y7565D01*
G01X6075Y7562D01*
G01X6078Y7560D01*
G01X6082Y7556D01*
G01X6085Y7554D01*
G01X6089Y7551D01*
G01X6093Y7549D01*
G01X6097Y7546D01*
G01X6100Y7544D01*
G01X6105Y7541D01*
G01X6108Y7539D01*
G01X6113Y7537D01*
G01X6116Y7535D01*
G01X6121Y7533D01*
G01X6125Y7532D01*
G01X6130Y7530D01*
G01X6133Y7528D01*
G01X6138Y7527D01*
G01X6142Y7526D01*
G01X6147Y7524D01*
G01X6151Y7523D01*
G01X6153Y7523D01*
G01X6153Y7776D01*
G01X6062Y7776D01*
G01X6062Y7815D01*
G01X6070Y7829D01*
G01X6080Y7849D01*
G01X6088Y7870D01*
G01X6093Y7892D01*
G01X6096Y7913D01*
G01X6098Y7936D01*
G01X6096Y7958D01*
G01X6093Y7979D01*
G01X6088Y8001D01*
G01X6080Y8022D01*
G01X6070Y8042D01*
G01X6062Y8056D01*
G01X6062Y8091D01*
G01X6153Y8091D01*
G01X6153Y8259D01*
G01X6235Y8259D01*
G01X6235Y8091D01*
G01X6309Y8091D01*
G01X6309Y7934D01*
G01X6309Y7924D01*
G01X6309Y7914D01*
G01X6311Y7904D01*
G01X6312Y7894D01*
G01X6315Y7884D01*
G01X6317Y7875D01*
G01X6321Y7865D01*
G01X6324Y7856D01*
G01X6326Y7851D01*
G01X6326Y7776D01*
G01X6235Y7776D01*
G01X6235Y7523D01*
G01X6237Y7523D01*
G01X6241Y7524D01*
G01X6246Y7526D01*
G01X6250Y7527D01*
G01X6254Y7528D01*
G01X6258Y7530D01*
G01X6263Y7532D01*
G01X6267Y7533D01*
G01X6271Y7535D01*
G01X6275Y7537D01*
G01X6279Y7539D01*
G01X6283Y7541D01*
G01X6287Y7544D01*
G01X6291Y7546D01*
G01X6295Y7549D01*
G01X6299Y7551D01*
G01X6303Y7554D01*
G01X6306Y7556D01*
G01X6310Y7560D01*
G01X6313Y7562D01*
G01X6317Y7565D01*
G01X6320Y7568D01*
G01X6323Y7572D01*
G01X6326Y7575D01*
G01X6329Y7578D01*
G01X6332Y7581D01*
G01X6335Y7585D01*
G01X6338Y7589D01*
G01X6341Y7593D01*
G01X6343Y7596D01*
G01X6346Y7600D01*
G01X6348Y7603D01*
G01X6351Y7608D01*
G01X6351Y7608D01*
G01X6352Y7608D01*
G01X6354Y7603D01*
G01X6357Y7600D01*
G01X6359Y7596D01*
G01X6362Y7593D01*
G01X6365Y7589D01*
G01X6367Y7585D01*
G01X6371Y7581D01*
G01X6373Y7578D01*
G01X6377Y7575D01*
G01X6380Y7572D01*
G01X6383Y7568D01*
G01X6386Y7565D01*
G01X6390Y7562D01*
G01X6393Y7560D01*
G01X6397Y7556D01*
G01X6400Y7554D01*
G01X6404Y7551D01*
G01X6408Y7549D01*
G01X6412Y7546D01*
G01X6415Y7544D01*
G01X6420Y7541D01*
G01X6423Y7539D01*
G01X6428Y7537D01*
G01X6431Y7535D01*
G01X6436Y7533D01*
G01X6440Y7532D01*
G01X6445Y7530D01*
G01X6448Y7528D01*
G01X6453Y7527D01*
G01X6457Y7526D01*
G01X6462Y7524D01*
G01X6466Y7523D01*
G01X6471Y7522D01*
G01X6475Y7521D01*
G01X6480Y7521D01*
G01X6484Y7520D01*
G01X6489Y7519D01*
G01X6493Y7519D01*
G01X6498Y7518D01*
G01X6502Y7518D01*
G01X6507Y7518D01*
G01X6511Y7518D01*
G01X6516Y7518D01*
G01X6520Y7518D01*
G01X6525Y7519D01*
G01X6529Y7519D01*
G01X6534Y7520D01*
G01X6538Y7521D01*
G01X6543Y7521D01*
G01X6547Y7522D01*
G01X6552Y7523D01*
G01X6556Y7524D01*
G01X6561Y7526D01*
G01X6565Y7527D01*
G01X6569Y7528D01*
G01X6573Y7530D01*
G01X6578Y7532D01*
G01X6582Y7533D01*
G01X6586Y7535D01*
G01X6590Y7537D01*
G01X6594Y7539D01*
G01X6598Y7541D01*
G01X6602Y7544D01*
G01X6606Y7546D01*
G01X6610Y7549D01*
G01X6614Y7551D01*
G01X6618Y7554D01*
G01X6621Y7556D01*
G01X6625Y7560D01*
G01X6628Y7562D01*
G01X6632Y7565D01*
G01X6635Y7568D01*
G01X6638Y7572D01*
G01X6641Y7575D01*
G01X6644Y7578D01*
G01X6647Y7581D01*
G01X6650Y7585D01*
G01X6653Y7589D01*
G01X6656Y7593D01*
G01X6658Y7596D01*
G01X6661Y7600D01*
G01X6663Y7603D01*
G01X6666Y7608D01*
G01X6668Y7611D01*
G01X6671Y7616D01*
G01X6672Y7619D01*
G01X6674Y7624D01*
G01X6676Y7627D01*
G01X6678Y7632D01*
G01X6680Y7636D01*
G01X6681Y7641D01*
G01X6683Y7644D01*
G01X6684Y7650D01*
G01X6685Y7653D01*
G01X6687Y7658D01*
G01X6687Y7662D01*
G01X6688Y7667D01*
G01X6689Y7671D01*
G01X6690Y7676D01*
G01X6690Y7680D01*
G01X6691Y7685D01*
G01X6691Y7689D01*
G01X6691Y7694D01*
G01X6692Y7698D01*
G01X6692Y7701D01*
G01X6692Y7853D01*
G01X6693Y7856D01*
G01X6696Y7865D01*
G01X6700Y7875D01*
G01X6702Y7884D01*
G01X6705Y7894D01*
G01X6706Y7904D01*
G01X6708Y7914D01*
G01X6708Y7924D01*
G01X6709Y7934D01*
G01X6709Y8281D01*
G01X6710Y8283D01*
G01X6715Y8294D01*
G01X6719Y8304D01*
G01X6723Y8315D01*
G01X6726Y8325D01*
G01X6728Y8336D01*
G01X6731Y8347D01*
G01X6732Y8358D01*
G01X6733Y8369D01*
G01X6733Y8375D01*
G01X6814Y8456D01*
G01X6816Y8453D01*
G01X6818Y8449D01*
G01X6820Y8445D01*
G01X6822Y8442D01*
G01X6824Y8438D01*
G01X6827Y8435D01*
G01X6829Y8432D01*
G01X6832Y8429D01*
G01X6835Y8426D01*
G01X6838Y8423D01*
G01X6841Y8420D01*
G01X6844Y8418D01*
G01X6847Y8415D01*
G01X6851Y8413D01*
G01X6854Y8411D01*
G01X6858Y8409D01*
G01X6862Y8407D01*
G01X6865Y8405D01*
G01X6869Y8403D01*
G01X6873Y8402D01*
G01X6877Y8401D01*
G01X6881Y8400D01*
G01X6885Y8399D01*
G01X6889Y8398D01*
G01X6893Y8397D01*
G01X6897Y8397D01*
G01X6901Y8397D01*
G01X6905Y8397D01*
G01X7300Y8397D01*
G01X7304Y8397D01*
G01X7308Y8397D01*
G01X7312Y8397D01*
G01X7316Y8398D01*
G01X7320Y8399D01*
G01X7324Y8400D01*
G01X7328Y8401D01*
G01X7332Y8402D01*
G01X7336Y8403D01*
G01X7340Y8405D01*
G01X7343Y8407D01*
G01X7347Y8409D01*
G01X7351Y8411D01*
G01X7354Y8413D01*
G01X7358Y8415D01*
G01X7361Y8418D01*
G01X7364Y8420D01*
G01X7367Y8423D01*
G01X7370Y8426D01*
G01X7373Y8429D01*
G01X7376Y8432D01*
G01X7378Y8435D01*
G01X7381Y8438D01*
G01X7383Y8442D01*
G01X7385Y8445D01*
G01X7387Y8449D01*
G01X7389Y8453D01*
G01X7391Y8456D01*
G01X7393Y8460D01*
G01X7394Y8464D01*
G01X7395Y8468D01*
G01X7396Y8472D01*
G01X7397Y8476D01*
G01X7398Y8480D01*
G01X7399Y8484D01*
G01X7399Y8488D01*
G01X7399Y8492D01*
G01X7400Y8497D01*
G01X7400Y8930D01*
G01X7399Y8934D01*
G01X7399Y8938D01*
G01X7399Y8942D01*
G01X7398Y8946D01*
G01X7397Y8950D01*
G01X7396Y8954D01*
G01X7395Y8958D01*
G01X7394Y8962D01*
G01X7393Y8966D01*
G01X7391Y8970D01*
G01X7389Y8973D01*
G01X7387Y8977D01*
G01X7385Y8981D01*
G01X7383Y8984D01*
G01X7381Y8988D01*
G01X7378Y8991D01*
G01X7376Y8994D01*
G01X7373Y8997D01*
G01X7370Y9000D01*
G01X7367Y9003D01*
G01X7364Y9006D01*
G01X7361Y9008D01*
G01X7358Y9011D01*
G01X7354Y9013D01*
G01X7351Y9015D01*
G01X7347Y9017D01*
G01X7343Y9019D01*
G01X7340Y9021D01*
G01X7336Y9023D01*
G01X7332Y9024D01*
G01X7328Y9025D01*
G01X7324Y9026D01*
G01X7320Y9027D01*
G01X7316Y9028D01*
G01X7312Y9029D01*
G01X7308Y9029D01*
G01X7304Y9029D01*
G01X7300Y9030D01*
G01X6905Y9030D01*
G01X6901Y9029D01*
G01X6897Y9029D01*
G01X6893Y9029D01*
G01X6889Y9028D01*
G01X6885Y9027D01*
G01X6881Y9026D01*
G01X6877Y9025D01*
G01X6873Y9024D01*
G01X6869Y9023D01*
G01X6865Y9021D01*
G01X6862Y9019D01*
G01X6858Y9017D01*
G01X6854Y9015D01*
G01X6851Y9013D01*
G01X6847Y9011D01*
G01X6844Y9008D01*
G01X6841Y9006D01*
G01X6838Y9003D01*
G01X6835Y9000D01*
G01X6832Y8997D01*
G01X6829Y8994D01*
G01X6827Y8991D01*
G01X6824Y8988D01*
G01X6822Y8984D01*
G01X6820Y8981D01*
G01X6818Y8977D01*
G01X6816Y8973D01*
G01X6814Y8970D01*
G01X6812Y8966D01*
G01X6811Y8962D01*
G01X6810Y8958D01*
G01X6809Y8954D01*
G01X6808Y8950D01*
G01X6807Y8946D01*
G01X6806Y8942D01*
G01X6806Y8938D01*
G01X6806Y8934D01*
G01X6805Y8930D01*
G01X6805Y8884D01*
G01X6759Y8884D01*
G01X6752Y8883D01*
G01X6746Y8883D01*
G01X6740Y8883D01*
G01X6734Y8882D01*
G01X6728Y8881D01*
G01X6722Y8880D01*
G01X6717Y8879D01*
G01X6711Y8878D01*
G01X6705Y8876D01*
G01X6699Y8874D01*
G01X6693Y8873D01*
G01X6688Y8871D01*
G01X6682Y8868D01*
G01X6676Y8866D01*
G01X6671Y8863D01*
G01X6666Y8861D01*
G01X6660Y8858D01*
G01X6655Y8855D01*
G01X6650Y8851D01*
G01X6645Y8848D01*
G01X6640Y8845D01*
G01X6635Y8841D01*
G01X6630Y8837D01*
G01X6626Y8833D01*
G01X6621Y8829D01*
G01X6617Y8825D01*
G01X6487Y8694D01*
G01X6483Y8696D01*
G01X6477Y8698D01*
G01X6471Y8700D01*
G01X6465Y8701D01*
G01X6459Y8703D01*
G01X6452Y8704D01*
G01X6446Y8705D01*
G01X6440Y8706D01*
G01X6434Y8707D01*
G01X6427Y8708D01*
G01X6421Y8708D01*
G01X6415Y8708D01*
G01X6409Y8709D01*
G01X3259Y8709D01*
G01X3252Y8708D01*
G01X3246Y8708D01*
G01X3240Y8708D01*
G01X3233Y8707D01*
G01X3227Y8706D01*
G01X3221Y8705D01*
G01X3215Y8704D01*
G01X3208Y8703D01*
G01X3202Y8701D01*
G01X3196Y8700D01*
G01X3190Y8698D01*
G01X3184Y8696D01*
G01X3178Y8694D01*
G01X3172Y8691D01*
G01X3167Y8689D01*
G01X3161Y8686D01*
G01X3155Y8683D01*
G01X3150Y8680D01*
G01X3144Y8677D01*
G01X3139Y8674D01*
G01X3134Y8671D01*
G01X3128Y8667D01*
G01X3123Y8663D01*
G01X3118Y8659D01*
G01X3113Y8655D01*
G01X3109Y8651D01*
G01X3104Y8647D01*
G01X3099Y8643D01*
G01X3007Y8551D01*
G01X1704Y8551D01*
G01X1697Y8552D01*
G01X1675Y8555D01*
G01X1653Y8555D01*
G01X1631Y8554D01*
G01X1609Y8550D01*
G01X1588Y8544D01*
G01X1567Y8536D01*
G01X1548Y8526D01*
G01X1529Y8514D01*
G01X1512Y8500D01*
G01X1496Y8485D01*
G01X1482Y8468D01*
G01X1469Y8449D01*
G01X1458Y8430D01*
G01X1454Y8420D01*
G01X1453Y8418D01*
G01X1449Y8408D01*
G01X1445Y8397D01*
G01X1442Y8386D01*
G01X1439Y8376D01*
G01X1437Y8365D01*
G01X1435Y8353D01*
G01X1434Y8342D01*
G01X1434Y8331D01*
G01X1434Y8320D01*
G01X1434Y8309D01*
G01X1435Y8298D01*
G01X1437Y8286D01*
G01X1439Y8275D01*
G01X1442Y8265D01*
G01X1445Y8254D01*
G01X1449Y8243D01*
G01X1453Y8233D01*
G01X1458Y8223D01*
G01X1464Y8213D01*
G01X1469Y8203D01*
G01X1476Y8194D01*
G01X1483Y8185D01*
G01X1490Y8177D01*
G01X1497Y8168D01*
G01X1505Y8161D01*
G01X1514Y8153D01*
G01X1523Y8146D01*
G01X1532Y8140D01*
G01X1541Y8134D01*
G01X1551Y8128D01*
G01X1561Y8123D01*
G01X1571Y8118D01*
G01X1582Y8114D01*
G01X1592Y8111D01*
G01X1603Y8107D01*
G01X1614Y8105D01*
G01X1625Y8103D01*
G01X1636Y8102D01*
G01X1647Y8101D01*
G01X1659Y8101D01*
G01X3159Y8101D01*
G01X3159Y7944D01*
G01X3159Y7938D01*
G01X3159Y7932D01*
G01X3159Y7926D01*
G01X3160Y7920D01*
G01X3161Y7914D01*
G01X3162Y7909D01*
G01X3163Y7903D01*
G01X3164Y7897D01*
G01X3166Y7891D01*
G01X3167Y7886D01*
G01X3169Y7880D01*
G01X3171Y7875D01*
G01X3174Y7869D01*
G01X3176Y7864D01*
G01X3177Y7863D01*
G01X3177Y7714D01*
G01X3173Y7718D01*
G01X3169Y7722D01*
G01X3164Y7726D01*
G01X3160Y7729D01*
G01X3156Y7733D01*
G01X3151Y7737D01*
G01X3146Y7740D01*
G01X3142Y7743D01*
G01X3137Y7746D01*
G01X3132Y7749D01*
G01X3127Y7752D01*
G01X3122Y7754D01*
G01X3116Y7757D01*
G01X3111Y7759D01*
G01X3106Y7761D01*
G01X3100Y7763D01*
G01X3095Y7765D01*
G01X3090Y7767D01*
G01X3084Y7768D01*
G01X3078Y7769D01*
G01X3073Y7770D01*
G01X3067Y7771D01*
G01X3061Y7772D01*
G01X3056Y7773D01*
G01X3050Y7773D01*
G01X3044Y7773D01*
G01X3039Y7774D01*
G01X2275Y7774D01*
G01X2269Y7773D01*
G01X2263Y7773D01*
G01X2257Y7773D01*
G01X2252Y7772D01*
G01X2246Y7771D01*
G01X2240Y7770D01*
G01X2235Y7769D01*
G01X2229Y7768D01*
G01X2223Y7767D01*
G01X2218Y7765D01*
G01X2213Y7763D01*
G01X2207Y7761D01*
G01X2202Y7759D01*
G01X2197Y7757D01*
G01X2191Y7754D01*
G01X2186Y7752D01*
G01X2181Y7749D01*
G01X2176Y7746D01*
G01X2171Y7743D01*
G01X2167Y7740D01*
G01X2162Y7737D01*
G01X2157Y7733D01*
G01X2153Y7729D01*
G01X2149Y7726D01*
G01X2144Y7722D01*
G01X2140Y7718D01*
G01X1980Y7557D01*
G01X1968Y7554D01*
G01X1947Y7546D01*
G01X1928Y7536D01*
G01X1909Y7524D01*
G01X1892Y7510D01*
G01X1876Y7495D01*
G01X1862Y7478D01*
G01X1849Y7459D01*
G01X1838Y7440D01*
G01X1830Y7419D01*
G01X1823Y7398D01*
G01X1819Y7377D01*
G01X1817Y7355D01*
G01X1817Y7332D01*
G01X1819Y7310D01*
G01X1823Y7289D01*
G01X1830Y7268D01*
G01X1838Y7247D01*
G01X1849Y7228D01*
G01X1862Y7209D01*
G01X1876Y7193D01*
G01X1892Y7177D01*
G01X1909Y7163D01*
G01X1928Y7151D01*
G01X1947Y7141D01*
G01X1968Y7133D01*
G01X1989Y7127D01*
G01X2011Y7123D01*
G01X2033Y7122D01*
G01X2055Y7122D01*
G01X2077Y7125D01*
G01X2099Y7130D01*
G01X2120Y7137D01*
G01X2140Y7146D01*
G01X2159Y7157D01*
G01X2177Y7170D01*
G01X2194Y7185D01*
G01X2209Y7201D01*
G01X2222Y7218D01*
G01X2233Y7237D01*
G01X2243Y7257D01*
G01X2251Y7278D01*
G01X2255Y7295D01*
G01X2306Y7346D01*
G01X2305Y7344D01*
G01X2304Y7339D01*
G01X2302Y7335D01*
G01X2301Y7331D01*
G01X2300Y7327D01*
G01X2300Y7325D01*
G01X2552Y7325D01*
G01X2552Y7394D01*
G01X2867Y7394D01*
G01X2867Y7325D01*
G01X3028Y7325D01*
G01X3111Y7242D01*
G01X2867Y7242D01*
G01X2867Y7159D01*
G01X2710Y7159D01*
G01X2700Y7158D01*
G01X2691Y7158D01*
G01X2681Y7156D01*
G01X2672Y7155D01*
G01X2663Y7153D01*
G01X2657Y7151D01*
G01X2552Y7151D01*
G01X2552Y7242D01*
G01X2300Y7242D01*
G01X2300Y7240D01*
G01X2301Y7236D01*
G01X2302Y7232D01*
G01X2304Y7228D01*
G01X2305Y7223D01*
G01X2306Y7219D01*
G01X2308Y7214D01*
G01X2310Y7211D01*
G01X2312Y7206D01*
G01X2314Y7202D01*
G01X2316Y7198D01*
G01X2318Y7194D01*
G01X2320Y7190D01*
G01X2323Y7187D01*
G01X2325Y7182D01*
G01X2328Y7179D01*
G01X2331Y7175D01*
G01X2333Y7172D01*
G01X2336Y7168D01*
G01X2339Y7165D01*
G01X2342Y7161D01*
G01X2345Y7158D01*
G01X2348Y7154D01*
G01X2351Y7151D01*
G01X2355Y7148D01*
G01X2358Y7145D01*
G01X2362Y7142D01*
G01X2365Y7139D01*
G01X2369Y7136D01*
G01X2372Y7134D01*
G01X2377Y7131D01*
G01X2380Y7129D01*
G01X2384Y7126D01*
G01X2385Y7126D01*
G01X2384Y7126D01*
G01X2380Y7123D01*
G01X2377Y7121D01*
G01X2372Y7118D01*
G01X2369Y7116D01*
G01X2365Y7113D01*
G01X2362Y7110D01*
G01X2358Y7107D01*
G01X2355Y7104D01*
G01X2351Y7101D01*
G01X2348Y7098D01*
G01X2345Y7094D01*
G01X2342Y7091D01*
G01X2339Y7087D01*
G01X2336Y7084D01*
G01X2333Y7080D01*
G01X2331Y7077D01*
G01X2328Y7073D01*
G01X2325Y7070D01*
G01X2323Y7065D01*
G01X2320Y7062D01*
G01X2318Y7058D01*
G01X2316Y7054D01*
G01X2314Y7050D01*
G01X2312Y7046D01*
G01X2310Y7041D01*
G01X2308Y7038D01*
G01X2306Y7033D01*
G01X2305Y7029D01*
G01X2304Y7024D01*
G01X2302Y7020D01*
G01X2301Y7016D01*
G01X2300Y7012D01*
G01X2299Y7007D01*
G01X2298Y7003D01*
G01X2297Y6998D01*
G01X2297Y6994D01*
G01X2296Y6989D01*
G01X2295Y6985D01*
G01X2295Y6980D01*
G01X2295Y6975D01*
G01X2295Y6971D01*
G01X2295Y6966D01*
G01X2295Y6962D01*
G01X2295Y6957D01*
G01X2295Y6952D01*
G01X2296Y6948D01*
G01X2297Y6943D01*
G01X2297Y6939D01*
G01X2298Y6934D01*
G01X2299Y6930D01*
G01X2300Y6925D01*
G01X2301Y6921D01*
G01X2302Y6917D01*
G01X2304Y6913D01*
G01X2305Y6908D01*
G01X2306Y6904D01*
G01X2308Y6899D01*
G01X2310Y6896D01*
G01X2312Y6891D01*
G01X2314Y6887D01*
G01X2316Y6883D01*
G01X2318Y6879D01*
G01X2320Y6875D01*
G01X2323Y6872D01*
G01X2325Y6867D01*
G01X2328Y6864D01*
G01X2331Y6860D01*
G01X2333Y6857D01*
G01X2336Y6853D01*
G01X2339Y6850D01*
G01X2342Y6846D01*
G01X2345Y6843D01*
G01X2348Y6839D01*
G01X2351Y6836D01*
G01X2355Y6833D01*
G01X2358Y6830D01*
G01X2362Y6827D01*
G01X2365Y6824D01*
G01X2369Y6821D01*
G01X2372Y6819D01*
G01X2377Y6816D01*
G01X2380Y6814D01*
G01X2384Y6811D01*
G01X2385Y6811D01*
G01X2384Y6811D01*
G01X2380Y6808D01*
G01X2377Y6806D01*
G01X2372Y6803D01*
G01X2369Y6801D01*
G01X2365Y6798D01*
G01X2362Y6795D01*
G01X2358Y6792D01*
G01X2355Y6789D01*
G01X2351Y6786D01*
G01X2348Y6783D01*
G01X2345Y6779D01*
G01X2342Y6776D01*
G01X2339Y6773D01*
G01X2336Y6769D01*
G01X2333Y6766D01*
G01X2331Y6762D01*
G01X2328Y6758D01*
G01X2325Y6755D01*
G01X2323Y6751D01*
G01X2320Y6747D01*
G01X2318Y6743D01*
G01X2316Y6739D01*
G01X2314Y6735D01*
G01X2312Y6731D01*
G01X2310Y6726D01*
G01X2308Y6723D01*
G01X2306Y6718D01*
G01X2305Y6714D01*
G01X2304Y6710D01*
G01X2302Y6706D01*
G01X2301Y6701D01*
G01X2300Y6697D01*
G01X2299Y6692D01*
G01X2298Y6688D01*
G01X2297Y6683D01*
G01X2297Y6679D01*
G01X2296Y6674D01*
G01X2295Y6670D01*
G01X2295Y6665D01*
G01X2295Y6661D01*
G01X2295Y6656D01*
G01X2295Y6652D01*
G01X2295Y6647D01*
G01X2295Y6643D01*
G01X2295Y6637D01*
G01X2296Y6633D01*
G01X2297Y6628D01*
G01X2297Y6624D01*
G01X2298Y6621D01*
G01X2297Y6621D01*
G01X2297Y6621D01*
G01X2294Y6624D01*
G01X2291Y6627D01*
G01X2288Y6630D01*
G01X2285Y6632D01*
G01X2282Y6635D01*
G01X2278Y6637D01*
G01X2275Y6639D01*
G01X2271Y6641D01*
G01X2267Y6643D01*
G01X2264Y6645D01*
G01X2260Y6647D01*
G01X2256Y6648D01*
G01X2252Y6649D01*
G01X2248Y6650D01*
G01X2244Y6651D01*
G01X2240Y6652D01*
G01X2236Y6653D01*
G01X2232Y6653D01*
G01X2228Y6653D01*
G01X2224Y6653D01*
G01X1634Y6653D01*
G01X1629Y6653D01*
G01X1625Y6653D01*
G01X1621Y6653D01*
G01X1617Y6652D01*
G01X1613Y6651D01*
G01X1609Y6650D01*
G01X1605Y6649D01*
G01X1601Y6648D01*
G01X1597Y6647D01*
G01X1593Y6645D01*
G01X1590Y6643D01*
G01X1586Y6641D01*
G01X1582Y6639D01*
G01X1579Y6637D01*
G01X1575Y6635D01*
G01X1572Y6632D01*
G01X1569Y6630D01*
G01X1566Y6627D01*
G01X1563Y6624D01*
G01X1560Y6621D01*
G01X1557Y6618D01*
G01X1555Y6615D01*
G01X1552Y6612D01*
G01X1550Y6608D01*
G01X1548Y6605D01*
G01X1546Y6601D01*
G01X1544Y6597D01*
G01X1542Y6594D01*
G01X1540Y6590D01*
G01X1539Y6586D01*
G01X1538Y6582D01*
G01X1537Y6578D01*
G01X1536Y6574D01*
G01X1535Y6570D01*
G01X1534Y6566D01*
G01X1534Y6562D01*
G01X1534Y6558D01*
G01X1534Y6553D01*
G01X1534Y6318D01*
G01X1534Y6313D01*
G01X1534Y6309D01*
G01X1534Y6305D01*
G01X1535Y6301D01*
G01X1536Y6297D01*
G01X1537Y6293D01*
G01X1538Y6289D01*
G01X1539Y6285D01*
G01X1540Y6281D01*
G01X1542Y6277D01*
G01X1544Y6274D01*
G01X1546Y6270D01*
G01X1548Y6266D01*
G01X1550Y6263D01*
G01X1552Y6259D01*
G01X1555Y6256D01*
G01X1557Y6253D01*
G01X1560Y6250D01*
G01X1563Y6247D01*
G01X1566Y6244D01*
G01X1569Y6241D01*
G01X1572Y6239D01*
G01X1572Y6239D01*
G01X1572Y6238D01*
G01X1569Y6236D01*
G01X1566Y6233D01*
G01X1563Y6230D01*
G01X1560Y6227D01*
G01X1557Y6224D01*
G01X1555Y6221D01*
G01X1552Y6218D01*
G01X1550Y6214D01*
G01X1548Y6211D01*
G01X1546Y6207D01*
G01X1544Y6203D01*
G01X1542Y6200D01*
G01X1540Y6196D01*
G01X1539Y6192D01*
G01X1538Y6188D01*
G01X1537Y6184D01*
G01X1536Y6180D01*
G01X1535Y6176D01*
G01X1534Y6172D01*
G01X1534Y6168D01*
G01X1534Y6164D01*
G01X1534Y6160D01*
G01X1534Y5924D01*
G01X1534Y5919D01*
G01X1534Y5915D01*
G01X1534Y5911D01*
G01X1535Y5907D01*
G01X1536Y5903D01*
G01X1537Y5899D01*
G01X1538Y5895D01*
G01X1539Y5891D01*
G01X1540Y5887D01*
G01X1542Y5883D01*
G01X1544Y5880D01*
G01X1546Y5876D01*
G01X1548Y5872D01*
G01X1550Y5869D01*
G01X1552Y5865D01*
G01X1555Y5862D01*
G01X1557Y5859D01*
G01X1560Y5856D01*
G01X1563Y5853D01*
G01X1566Y5850D01*
G01X1569Y5847D01*
G01X1572Y5845D01*
G01X1569Y5843D01*
G01X1566Y5840D01*
G01X1563Y5837D01*
G01X1560Y5834D01*
G01X1557Y5831D01*
G01X1555Y5828D01*
G01X1552Y5825D01*
G01X1550Y5821D01*
G01X1548Y5818D01*
G01X1546Y5814D01*
G01X1544Y5810D01*
G01X1542Y5807D01*
G01X1540Y5803D01*
G01X1539Y5799D01*
G01X1538Y5795D01*
G01X1537Y5791D01*
G01X1536Y5787D01*
G01X1535Y5783D01*
G01X1534Y5779D01*
G01X1534Y5775D01*
G01X1534Y5771D01*
G01X1534Y5767D01*
G01X1534Y5530D01*
G01X1534Y5525D01*
G01X1534Y5521D01*
G01X1534Y5517D01*
G01X1535Y5513D01*
G01X1536Y5509D01*
G01X1537Y5505D01*
G01X1538Y5501D01*
G01X1539Y5497D01*
G01X1540Y5493D01*
G01X1542Y5489D01*
G01X1544Y5486D01*
G01X1546Y5482D01*
G01X1548Y5478D01*
G01X1550Y5475D01*
G01X1552Y5471D01*
G01X1555Y5468D01*
G01X1557Y5465D01*
G01X1560Y5462D01*
G01X1563Y5459D01*
G01X1566Y5456D01*
G01X1569Y5453D01*
G01X1572Y5451D01*
G01X1569Y5449D01*
G01X1566Y5446D01*
G01X1563Y5443D01*
G01X1560Y5440D01*
G01X1557Y5437D01*
G01X1555Y5434D01*
G01X1552Y5431D01*
G01X1550Y5427D01*
G01X1548Y5424D01*
G01X1546Y5420D01*
G01X1544Y5416D01*
G01X1542Y5413D01*
G01X1540Y5409D01*
G01X1539Y5405D01*
G01X1538Y5401D01*
G01X1537Y5397D01*
G01X1536Y5393D01*
G01X1535Y5389D01*
G01X1534Y5385D01*
G01X1534Y5381D01*
G01X1534Y5377D01*
G01X1534Y5373D01*
G01X1534Y5137D01*
G01X1534Y5132D01*
G01X1534Y5128D01*
G01X1534Y5124D01*
G01X1535Y5120D01*
G01X1536Y5116D01*
G01X1537Y5112D01*
G01X1538Y5108D01*
G01X1539Y5104D01*
G01X1540Y5101D01*
G01X1467Y5173D01*
G01X1469Y6923D01*
G01X1468Y6935D01*
G01X1467Y6947D01*
G01X1466Y6959D01*
G01X1464Y6971D01*
G01X1461Y6982D01*
G01X1458Y6994D01*
G01X1454Y7005D01*
G01X1450Y7016D01*
G01X1445Y7027D01*
G01X1439Y7038D01*
G01X1433Y7048D01*
G01X1427Y7058D01*
G01X1420Y7068D01*
G01X1413Y7078D01*
G01X1405Y7087D01*
G01X1396Y7095D01*
G01X1388Y7103D01*
G01X1378Y7111D01*
G01X1369Y7118D01*
G01X1359Y7125D01*
G01X1349Y7131D01*
G01X1338Y7137D01*
G01X1327Y7142D01*
G01X1316Y7147D01*
G01X1305Y7151D01*
G01X1294Y7154D01*
G01X1282Y7157D01*
G01X1270Y7160D01*
G01X1259Y7162D01*
G01X1247Y7163D01*
G01X1235Y7163D01*
G01X1223Y7163D01*
G01X1211Y7163D01*
G01X1199Y7162D01*
G01X1187Y7160D01*
G01X1175Y7158D01*
G01X1164Y7155D01*
G01X1152Y7151D01*
G01X1141Y7147D01*
G01X1130Y7142D01*
G01X1119Y7137D01*
G01X1109Y7131D01*
G01X1099Y7125D01*
G01X1089Y7119D01*
G01X1079Y7111D01*
G01X1070Y7104D01*
G01X1061Y7095D01*
G01X1053Y7087D01*
G01X1045Y7078D01*
G01X1037Y7069D01*
G01X1030Y7059D01*
G01X1024Y7049D01*
G01X1018Y7039D01*
G01X1012Y7028D01*
G01X1007Y7017D01*
G01X1003Y7006D01*
G01X999Y6994D01*
G01X996Y6983D01*
G01X993Y6971D01*
G01X991Y6960D01*
G01X990Y6948D01*
G01X989Y6936D01*
G01X989Y6924D01*
G01X987Y5073D01*
G01X987Y5066D01*
G01X987Y5060D01*
G01X987Y5053D01*
G01X988Y5046D01*
G01X989Y5040D01*
G01X990Y5033D01*
G01X991Y5027D01*
G01X992Y5020D01*
G01X994Y5014D01*
G01X995Y5008D01*
G01X997Y5001D01*
G01X999Y4995D01*
G01X1002Y4989D01*
G01X1004Y4983D01*
G01X1006Y4977D01*
G01X1009Y4971D01*
G01X1012Y4965D01*
G01X1015Y4959D01*
G01X1018Y4953D01*
G01X1022Y4948D01*
G01X1025Y4942D01*
G01X1029Y4936D01*
G01X1033Y4931D01*
G01X1037Y4926D01*
G01X1041Y4921D01*
G01X1045Y4916D01*
G01X1049Y4911D01*
G01X1054Y4906D01*
G01X1058Y4901D01*
G01X1274Y4689D01*
G01X1279Y4685D01*
G01X1284Y4680D01*
G01X1289Y4676D01*
G01X1294Y4672D01*
G01X1299Y4668D01*
G01X1304Y4665D01*
G01X1309Y4661D01*
G01X1315Y4657D01*
G01X1320Y4654D01*
G01X1326Y4651D01*
G01X1331Y4648D01*
G01X1337Y4645D01*
G01X1343Y4642D01*
G01X1349Y4640D01*
G01X1355Y4637D01*
G01X1361Y4635D01*
G01X1367Y4633D01*
G01X1373Y4631D01*
G01X1379Y4629D01*
G01X1385Y4627D01*
G01X1392Y4626D01*
G01X1398Y4625D01*
G01X1404Y4624D01*
G01X1410Y4623D01*
G01X1417Y4622D01*
G01X1423Y4621D01*
G01X1430Y4621D01*
G01X1436Y4621D01*
G01X1443Y4621D01*
G01X1540Y4621D01*
G01X1539Y4617D01*
G01X1538Y4613D01*
G01X1537Y4609D01*
G01X1536Y4605D01*
G01X1535Y4601D01*
G01X1534Y4597D01*
G01X1534Y4593D01*
G01X1534Y4589D01*
G01X1534Y4585D01*
G01X1534Y4526D01*
G01X1781Y4526D01*
G01X1781Y4621D01*
G01X1928Y4621D01*
G01X1940Y4621D01*
G01X1952Y4622D01*
G01X1964Y4623D01*
G01X1976Y4625D01*
G01X1988Y4628D01*
G01X1999Y4631D01*
G01X2011Y4635D01*
G01X2022Y4639D01*
G01X2029Y4643D01*
G01X2076Y4643D01*
G01X2076Y4526D01*
G01X2312Y4526D01*
G01X2310Y4522D01*
G01X2308Y4518D01*
G01X2306Y4513D01*
G01X2305Y4509D01*
G01X2304Y4505D01*
G01X2302Y4501D01*
G01X2301Y4496D01*
G01X2300Y4492D01*
G01X2299Y4487D01*
G01X2298Y4483D01*
G01X2297Y4478D01*
G01X2297Y4474D01*
G01X2296Y4469D01*
G01X2295Y4465D01*
G01X2295Y4460D01*
G01X2295Y4456D01*
G01X2295Y4451D01*
G01X2295Y4447D01*
G01X2295Y4442D01*
G01X2295Y4438D01*
G01X2295Y4433D01*
G01X2296Y4429D01*
G01X2297Y4424D01*
G01X2297Y4420D01*
G01X2298Y4415D01*
G01X2299Y4411D01*
G01X2300Y4407D01*
G01X2076Y4407D01*
G01X2076Y4249D01*
G01X2224Y4249D01*
G01X2228Y4249D01*
G01X2232Y4249D01*
G01X2236Y4249D01*
G01X2240Y4250D01*
G01X2244Y4251D01*
G01X2248Y4252D01*
G01X2252Y4253D01*
G01X2256Y4254D01*
G01X2260Y4255D01*
G01X2264Y4257D01*
G01X2267Y4259D01*
G01X2271Y4261D01*
G01X2275Y4263D01*
G01X2278Y4265D01*
G01X2282Y4267D01*
G01X2285Y4270D01*
G01X2288Y4272D01*
G01X2291Y4275D01*
G01X2294Y4278D01*
G01X2297Y4281D01*
G01X2300Y4284D01*
G01X2302Y4287D01*
G01X2305Y4290D01*
G01X2307Y4294D01*
G01X2309Y4297D01*
G01X2311Y4301D01*
G01X2313Y4305D01*
G01X2315Y4308D01*
G01X2317Y4312D01*
G01X2318Y4316D01*
G01X2319Y4320D01*
G01X2320Y4324D01*
G01X2321Y4328D01*
G01X2322Y4332D01*
G01X2323Y4336D01*
G01X2323Y4340D01*
G01X2323Y4344D01*
G01X2324Y4349D01*
G01X2324Y4351D01*
G01X2325Y4348D01*
G01X2328Y4344D01*
G01X2331Y4340D01*
G01X2333Y4337D01*
G01X2336Y4333D01*
G01X2339Y4330D01*
G01X2342Y4326D01*
G01X2345Y4323D01*
G01X2348Y4320D01*
G01X2351Y4317D01*
G01X2355Y4313D01*
G01X2358Y4311D01*
G01X2362Y4307D01*
G01X2365Y4305D01*
G01X2369Y4302D01*
G01X2372Y4299D01*
G01X2377Y4297D01*
G01X2380Y4294D01*
G01X2384Y4292D01*
G01X2385Y4291D01*
G01X2384Y4291D01*
G01X2380Y4288D01*
G01X2377Y4286D01*
G01X2372Y4283D01*
G01X2369Y4281D01*
G01X2365Y4278D01*
G01X2362Y4275D01*
G01X2358Y4272D01*
G01X2355Y4269D01*
G01X2351Y4266D01*
G01X2348Y4263D01*
G01X2345Y4260D01*
G01X2342Y4257D01*
G01X2339Y4253D01*
G01X2336Y4250D01*
G01X2333Y4246D01*
G01X2331Y4243D01*
G01X2328Y4239D01*
G01X2325Y4235D01*
G01X2323Y4231D01*
G01X2320Y4227D01*
G01X2318Y4223D01*
G01X2316Y4219D01*
G01X2314Y4215D01*
G01X2312Y4211D01*
G01X2310Y4207D01*
G01X2308Y4203D01*
G01X2306Y4198D01*
G01X2305Y4194D01*
G01X2304Y4190D01*
G01X2302Y4186D01*
G01X2301Y4181D01*
G01X2300Y4177D01*
G01X2300Y4175D01*
G01X2552Y4175D01*
G01X2552Y4266D01*
G01X2627Y4266D01*
G01X2632Y4264D01*
G01X2641Y4261D01*
G01X2651Y4257D01*
G01X2660Y4255D01*
G01X2670Y4252D01*
G01X2680Y4251D01*
G01X2690Y4249D01*
G01X2700Y4249D01*
G01X2710Y4249D01*
G01X2867Y4249D01*
G01X2867Y4175D01*
G01X3120Y4175D01*
G01X3119Y4177D01*
G01X3118Y4181D01*
G01X3117Y4186D01*
G01X3116Y4190D01*
G01X3114Y4194D01*
G01X3113Y4198D01*
G01X3111Y4203D01*
G01X3110Y4207D01*
G01X3107Y4211D01*
G01X3106Y4215D01*
G01X3103Y4219D01*
G01X3101Y4223D01*
G01X3099Y4227D01*
G01X3097Y4231D01*
G01X3094Y4235D01*
G01X3092Y4239D01*
G01X3089Y4243D01*
G01X3086Y4246D01*
G01X3084Y4249D01*
G01X3158Y4249D01*
G01X3150Y4229D01*
G01X3143Y4208D01*
G01X3139Y4187D01*
G01X3137Y4165D01*
G01X3137Y4142D01*
G01X3139Y4120D01*
G01X3143Y4099D01*
G01X3150Y4078D01*
G01X3158Y4057D01*
G01X3169Y4038D01*
G01X3182Y4019D01*
G01X3196Y4003D01*
G01X3199Y4000D01*
G01X3199Y3803D01*
G01X3198Y3802D01*
G01X3196Y3798D01*
G01X3194Y3794D01*
G01X3192Y3790D01*
G01X3190Y3785D01*
G01X3188Y3781D01*
G01X3187Y3777D01*
G01X3186Y3773D01*
G01X3184Y3768D01*
G01X3183Y3764D01*
G01X3182Y3759D01*
G01X3181Y3755D01*
G01X3180Y3750D01*
G01X3179Y3746D01*
G01X3178Y3741D01*
G01X3178Y3737D01*
G01X3177Y3732D01*
G01X3177Y3728D01*
G01X3177Y3723D01*
G01X3177Y3719D01*
G01X3177Y3717D01*
G01X3177Y3252D01*
G01X3177Y3250D01*
G01X3177Y3245D01*
G01X3177Y3240D01*
G01X3177Y3236D01*
G01X3178Y3231D01*
G01X3178Y3227D01*
G01X3179Y3222D01*
G01X3180Y3218D01*
G01X3181Y3213D01*
G01X3182Y3209D01*
G01X3183Y3205D01*
G01X3184Y3201D01*
G01X3186Y3196D01*
G01X3187Y3192D01*
G01X3188Y3187D01*
G01X3190Y3184D01*
G01X3192Y3179D01*
G01X3194Y3175D01*
G01X3196Y3171D01*
G01X3198Y3167D01*
G01X3200Y3162D01*
G01X3202Y3159D01*
G01X3205Y3155D01*
G01X3207Y3151D01*
G01X3210Y3147D01*
G01X3212Y3144D01*
G01X3215Y3140D01*
G01X3218Y3137D01*
G01X3221Y3133D01*
G01X3224Y3130D01*
G01X3227Y3126D01*
G01X3230Y3123D01*
G01X3234Y3119D01*
G01X3237Y3117D01*
G01X3240Y3113D01*
G01X3243Y3111D01*
G01X3247Y3108D01*
G01X3251Y3105D01*
G01X3255Y3102D01*
G01X3258Y3100D01*
G01X3262Y3097D01*
G01X3266Y3095D01*
G01X3270Y3093D01*
G01X3274Y3091D01*
G01X3278Y3088D01*
G01X3282Y3087D01*
G01X3286Y3084D01*
G01X3290Y3083D01*
G01X3295Y3081D01*
G01X3299Y3080D01*
G01X3303Y3078D01*
G01X3307Y3077D01*
G01X3312Y3076D01*
G01X3316Y3075D01*
G01X3321Y3073D01*
G01X3325Y3073D01*
G01X3330Y3072D01*
G01X3334Y3071D01*
G01X3339Y3070D01*
G01X3343Y3070D01*
G01X3348Y3070D01*
G01X3352Y3069D01*
G01X3357Y3069D01*
G01X3361Y3069D01*
G01X3366Y3069D01*
G01X3370Y3070D01*
G01X3375Y3070D01*
G01X3380Y3070D01*
G01X3385Y3071D01*
G01X3389Y3072D01*
G01X3393Y3073D01*
G01X3397Y3073D01*
G01X3402Y3075D01*
G01X3406Y3076D01*
G01X3411Y3077D01*
G01X3415Y3078D01*
G01X3420Y3080D01*
G01X3424Y3081D01*
G01X3428Y3083D01*
G01X3432Y3084D01*
G01X3437Y3087D01*
G01X3440Y3088D01*
G01X3445Y3091D01*
G01X3448Y3093D01*
G01X3453Y3095D01*
G01X3456Y3097D01*
G01X3461Y3100D01*
G01X3464Y3102D01*
G01X3468Y3105D01*
G01X3471Y3108D01*
G01X3475Y3111D01*
G01X3478Y3113D01*
G01X3482Y3117D01*
G01X3485Y3119D01*
G01X3489Y3123D01*
G01X3491Y3126D01*
G01X3495Y3130D01*
G01X3498Y3133D01*
G01X3501Y3137D01*
G01X3503Y3140D01*
G01X3506Y3144D01*
G01X3509Y3147D01*
G01X3512Y3151D01*
G01X3514Y3155D01*
G01X3516Y3159D01*
G01X3517Y3160D01*
G01X3517Y3159D01*
G01X3520Y3155D01*
G01X3522Y3151D01*
G01X3525Y3147D01*
G01X3527Y3144D01*
G01X3530Y3140D01*
G01X3533Y3137D01*
G01X3536Y3133D01*
G01X3539Y3130D01*
G01X3542Y3126D01*
G01X3545Y3123D01*
G01X3549Y3119D01*
G01X3552Y3117D01*
G01X3555Y3113D01*
G01X3558Y3111D01*
G01X3562Y3108D01*
G01X3566Y3105D01*
G01X3570Y3102D01*
G01X3573Y3100D01*
G01X3577Y3097D01*
G01X3581Y3095D01*
G01X3585Y3093D01*
G01X3589Y3091D01*
G01X3593Y3088D01*
G01X3597Y3087D01*
G01X3601Y3084D01*
G01X3605Y3083D01*
G01X3610Y3081D01*
G01X3614Y3080D01*
G01X3618Y3078D01*
G01X3622Y3077D01*
G01X3627Y3076D01*
G01X3631Y3075D01*
G01X3636Y3073D01*
G01X3636Y3073D01*
G01X3632Y3068D01*
G01X3619Y3049D01*
G01X3608Y3030D01*
G01X3600Y3009D01*
G01X3593Y2988D01*
G01X3589Y2967D01*
G01X3587Y2945D01*
G01X3587Y2922D01*
G01X3589Y2900D01*
G01X3593Y2879D01*
G01X3600Y2858D01*
G01X3608Y2837D01*
G01X3619Y2818D01*
G01X3632Y2799D01*
G01X3646Y2782D01*
G01X3662Y2767D01*
G01X3666Y2764D01*
G01X2125Y2764D01*
G01X2042Y2847D01*
G01X2038Y2850D01*
G01X2034Y2854D01*
G01X2029Y2858D01*
G01X2025Y2861D01*
G01X2021Y2864D01*
G01X2016Y2867D01*
G01X2012Y2870D01*
G01X2007Y2873D01*
G01X2002Y2876D01*
G01X1997Y2878D01*
G01X1992Y2880D01*
G01X1987Y2882D01*
G01X1982Y2884D01*
G01X1977Y2886D01*
G01X1972Y2888D01*
G01X1966Y2889D01*
G01X1961Y2890D01*
G01X1956Y2891D01*
G01X1950Y2892D01*
G01X1945Y2893D01*
G01X1939Y2893D01*
G01X1934Y2893D01*
G01X1928Y2894D01*
G01X1312Y2894D01*
G01X1297Y2907D01*
G01X1279Y2920D01*
G01X1260Y2931D01*
G01X1240Y2940D01*
G01X1219Y2947D01*
G01X1197Y2952D01*
G01X1175Y2955D01*
G01X1153Y2955D01*
G01X1131Y2954D01*
G01X1109Y2950D01*
G01X1088Y2944D01*
G01X1067Y2936D01*
G01X1048Y2926D01*
G01X1029Y2914D01*
G01X1012Y2900D01*
G01X996Y2885D01*
G01X982Y2868D01*
G01X969Y2849D01*
G01X958Y2830D01*
G01X950Y2809D01*
G01X943Y2788D01*
G01X939Y2767D01*
G01X937Y2745D01*
G01X937Y2722D01*
G01X939Y2700D01*
G01X943Y2679D01*
G01X950Y2658D01*
G01X958Y2637D01*
G01X969Y2618D01*
G01X982Y2599D01*
G01X996Y2582D01*
G01X1012Y2567D01*
G01X1029Y2553D01*
G01X1048Y2541D01*
G01X1067Y2531D01*
G01X1088Y2523D01*
G01X1109Y2517D01*
G01X1131Y2513D01*
G01X1153Y2512D01*
G01X1175Y2512D01*
G01X1197Y2515D01*
G01X1219Y2520D01*
G01X1240Y2527D01*
G01X1260Y2536D01*
G01X1279Y2547D01*
G01X1297Y2560D01*
G01X1312Y2574D01*
G01X1862Y2574D01*
G01X1945Y2490D01*
G01X1949Y2487D01*
G01X1953Y2483D01*
G01X1958Y2479D01*
G01X1962Y2476D01*
G01X1966Y2473D01*
G01X1971Y2470D01*
G01X1975Y2467D01*
G01X1980Y2464D01*
G01X1985Y2461D01*
G01X1990Y2459D01*
G01X1995Y2457D01*
G01X2000Y2455D01*
G01X2005Y2453D01*
G01X2010Y2451D01*
G01X2015Y2449D01*
G01X2021Y2448D01*
G01X2026Y2447D01*
G01X2031Y2446D01*
G01X2037Y2445D01*
G01X2042Y2444D01*
G01X2048Y2444D01*
G01X2053Y2444D01*
G01X2059Y2444D01*
G01X3919Y2444D01*
G01X3924Y2444D01*
G01X3929Y2444D01*
G01X3935Y2444D01*
G01X3940Y2445D01*
G01X3946Y2446D01*
G01X3951Y2447D01*
G01X3956Y2448D01*
G01X3962Y2449D01*
G01X3967Y2451D01*
G01X3972Y2453D01*
G01X3977Y2455D01*
G01X3982Y2457D01*
G01X3987Y2459D01*
G01X3992Y2461D01*
G01X3997Y2464D01*
G01X4002Y2467D01*
G01X4006Y2470D01*
G01X4011Y2473D01*
G01X4015Y2476D01*
G01X4019Y2479D01*
G01X4024Y2483D01*
G01X4028Y2487D01*
G01X4032Y2490D01*
G01X4121Y2579D01*
G01X4121Y2199D01*
G01X4113Y2220D01*
G01X4103Y2240D01*
G01X4092Y2259D01*
G01X4079Y2276D01*
G01X4064Y2292D01*
G01X4047Y2307D01*
G01X4029Y2320D01*
G01X4010Y2331D01*
G01X3990Y2340D01*
G01X3969Y2347D01*
G01X3947Y2352D01*
G01X3925Y2355D01*
G01X3903Y2355D01*
G01X3881Y2354D01*
G01X3859Y2350D01*
G01X3838Y2344D01*
G01X3817Y2336D01*
G01X3798Y2326D01*
G01X3779Y2314D01*
G01X3762Y2300D01*
G01X3746Y2285D01*
G01X3732Y2268D01*
G01X3719Y2249D01*
G01X3708Y2230D01*
G01X3700Y2209D01*
G01X3693Y2188D01*
G01X3689Y2167D01*
G01X3687Y2145D01*
G01X3687Y2122D01*
G01X3689Y2100D01*
G01X3693Y2079D01*
G01X3700Y2058D01*
G01X3708Y2037D01*
G01X3718Y2019D01*
G01X3695Y1997D01*
G01X3692Y1993D01*
G01X3688Y1989D01*
G01X3684Y1984D01*
G01X3681Y1980D01*
G01X3678Y1976D01*
G01X3675Y1971D01*
G01X3672Y1967D01*
G01X3669Y1962D01*
G01X3666Y1957D01*
G01X3664Y1952D01*
G01X3662Y1947D01*
G01X3660Y1942D01*
G01X3658Y1937D01*
G01X3656Y1932D01*
G01X3654Y1927D01*
G01X3653Y1921D01*
G01X3652Y1916D01*
G01X3651Y1911D01*
G01X3650Y1905D01*
G01X3649Y1900D01*
G01X3649Y1894D01*
G01X3649Y1889D01*
G01X3649Y1884D01*
G01X3649Y884D01*
G01X3649Y878D01*
G01X3649Y873D01*
G01X3649Y867D01*
G01X3650Y862D01*
G01X3651Y856D01*
G01X3652Y851D01*
G01X3653Y846D01*
G01X3654Y840D01*
G01X3656Y835D01*
G01X3658Y830D01*
G01X3660Y825D01*
G01X3662Y820D01*
G01X3664Y815D01*
G01X3666Y810D01*
G01X3669Y805D01*
G01X3672Y800D01*
G01X3675Y796D01*
G01X3678Y791D01*
G01X3681Y787D01*
G01X3684Y783D01*
G01X3688Y778D01*
G01X3692Y774D01*
G01X3695Y770D01*
G01X3845Y620D01*
G01X3849Y617D01*
G01X3853Y613D01*
G01X3858Y609D01*
G01X3862Y606D01*
G01X3866Y603D01*
G01X3871Y600D01*
G01X3875Y597D01*
G01X3880Y594D01*
G01X3885Y591D01*
G01X3890Y589D01*
G01X3895Y587D01*
G01X3900Y585D01*
G01X3905Y583D01*
G01X3910Y581D01*
G01X3915Y579D01*
G01X3921Y578D01*
G01X3926Y577D01*
G01X3931Y576D01*
G01X3937Y575D01*
G01X3942Y574D01*
G01X3948Y574D01*
G01X3953Y574D01*
G01X3959Y574D01*
G01X4292Y574D01*
G01X4345Y520D01*
G01X4349Y517D01*
G01X4353Y513D01*
G01X4358Y509D01*
G01X4362Y506D01*
G01X4366Y503D01*
G01X4371Y500D01*
G01X4375Y497D01*
G01X4380Y494D01*
G01X4385Y491D01*
G01X4390Y489D01*
G01X4395Y487D01*
G01X4400Y485D01*
G01X4405Y483D01*
G01X4410Y481D01*
G01X4415Y479D01*
G01X4421Y478D01*
G01X4426Y477D01*
G01X4431Y476D01*
G01X4437Y475D01*
G01X4442Y474D01*
G01X4448Y474D01*
G01X4453Y474D01*
G01X4459Y474D01*
G01X4594Y474D01*
G01X4579Y464D01*
G01X4562Y450D01*
G01X4546Y435D01*
G01X4532Y418D01*
G01X4519Y399D01*
G01X4516Y394D01*
G01X2417Y394D01*
G01X2330Y480D01*
G01X2331Y484D01*
G01X2330Y506D01*
G01X2326Y528D01*
G01X2321Y549D01*
G01X2313Y570D01*
G01X2304Y590D01*
G01X2292Y609D01*
G01X2279Y626D01*
G01X2264Y643D01*
G01X2247Y657D01*
G01X2229Y670D01*
G01X2210Y681D01*
G01X2190Y690D01*
G01X2169Y697D01*
G01X2147Y702D01*
G01X2125Y705D01*
G01X2103Y706D01*
G01X2081Y704D01*
G01X2059Y700D01*
G01X2038Y694D01*
G01X2017Y686D01*
G01X1998Y676D01*
G01X1979Y664D01*
G01X1962Y650D01*
G01X1946Y635D01*
G01X1932Y618D01*
G01X1919Y599D01*
G01X1909Y580D01*
G01X1900Y560D01*
G01X1893Y538D01*
G01X1889Y517D01*
G01X1887Y495D01*
G01X1887Y473D01*
G01X1889Y451D01*
G01X1893Y429D01*
G01X1900Y408D01*
G01X1901Y404D01*
G01X1903Y400D01*
G01X1904Y395D01*
G01X1906Y390D01*
G01X1909Y384D01*
G01X1911Y379D01*
G01X1913Y374D01*
G01X1916Y369D01*
G01X1918Y364D01*
G01X1921Y359D01*
G01X1924Y355D01*
G01X1928Y350D01*
G01X1931Y345D01*
G01X1934Y341D01*
G01X1938Y337D01*
G01X1941Y332D01*
G01X1945Y328D01*
G01X1949Y324D01*
G01X2204Y69D01*
G01X2208Y65D01*
G01X2213Y61D01*
G01X2217Y58D01*
G01X2221Y54D01*
G01X2226Y50D01*
G01X2231Y47D01*
G01X2235Y44D01*
G01X2240Y41D01*
G01X2245Y38D01*
G01X2250Y35D01*
G01X2255Y33D01*
G01X2261Y30D01*
G01X2266Y28D01*
G01X2271Y26D01*
G01X2277Y24D01*
G01X2282Y22D01*
G01X2287Y20D01*
G01X2293Y19D01*
G01X2299Y18D01*
G01X2304Y17D01*
G01X2310Y16D01*
G01X2316Y15D01*
G01X2321Y14D01*
G01X2327Y14D01*
G01X2333Y14D01*
G01X2339Y14D01*
G37*
G36*
G01X1634Y4249D02*
G01X1781Y4249D01*
G01X1781Y4407D01*
G01X1534Y4407D01*
G01X1534Y4349D01*
G01X1534Y4344D01*
G01X1534Y4340D01*
G01X1534Y4336D01*
G01X1535Y4332D01*
G01X1536Y4328D01*
G01X1537Y4324D01*
G01X1538Y4320D01*
G01X1539Y4316D01*
G01X1540Y4312D01*
G01X1542Y4308D01*
G01X1544Y4305D01*
G01X1546Y4301D01*
G01X1548Y4297D01*
G01X1550Y4294D01*
G01X1552Y4290D01*
G01X1555Y4287D01*
G01X1557Y4284D01*
G01X1560Y4281D01*
G01X1563Y4278D01*
G01X1566Y4275D01*
G01X1569Y4272D01*
G01X1572Y4270D01*
G01X1575Y4267D01*
G01X1579Y4265D01*
G01X1582Y4263D01*
G01X1586Y4261D01*
G01X1590Y4259D01*
G01X1593Y4257D01*
G01X1597Y4255D01*
G01X1601Y4254D01*
G01X1605Y4253D01*
G01X1609Y4252D01*
G01X1613Y4251D01*
G01X1617Y4250D01*
G01X1621Y4249D01*
G01X1625Y4249D01*
G01X1629Y4249D01*
G01X1634Y4249D01*
G37*
G36*
G01X2353Y3262D02*
G01X2375Y3262D01*
G01X2397Y3265D01*
G01X2419Y3270D01*
G01X2440Y3277D01*
G01X2460Y3286D01*
G01X2479Y3297D01*
G01X2497Y3310D01*
G01X2514Y3325D01*
G01X2529Y3341D01*
G01X2542Y3358D01*
G01X2553Y3377D01*
G01X2563Y3397D01*
G01X2571Y3418D01*
G01X2576Y3440D01*
G01X2579Y3461D01*
G01X2580Y3484D01*
G01X2579Y3506D01*
G01X2576Y3527D01*
G01X2571Y3549D01*
G01X2563Y3570D01*
G01X2553Y3590D01*
G01X2542Y3609D01*
G01X2529Y3626D01*
G01X2514Y3642D01*
G01X2497Y3657D01*
G01X2479Y3670D01*
G01X2460Y3681D01*
G01X2440Y3690D01*
G01X2419Y3697D01*
G01X2397Y3702D01*
G01X2375Y3705D01*
G01X2353Y3705D01*
G01X2331Y3704D01*
G01X2309Y3700D01*
G01X2288Y3694D01*
G01X2267Y3686D01*
G01X2248Y3676D01*
G01X2229Y3664D01*
G01X2212Y3650D01*
G01X2196Y3635D01*
G01X2182Y3618D01*
G01X2169Y3599D01*
G01X2158Y3580D01*
G01X2150Y3559D01*
G01X2143Y3538D01*
G01X2139Y3517D01*
G01X2137Y3495D01*
G01X2137Y3472D01*
G01X2139Y3450D01*
G01X2143Y3429D01*
G01X2150Y3408D01*
G01X2158Y3387D01*
G01X2169Y3368D01*
G01X2182Y3349D01*
G01X2196Y3332D01*
G01X2212Y3317D01*
G01X2229Y3303D01*
G01X2248Y3291D01*
G01X2267Y3281D01*
G01X2288Y3273D01*
G01X2309Y3267D01*
G01X2331Y3263D01*
G01X2353Y3262D01*
G37*
G36*
G01X996Y484D02*
G01X1046Y485D01*
G01X1095Y491D01*
G01X1144Y502D01*
G01X1191Y518D01*
G01X1237Y539D01*
G01X1280Y563D01*
G01X1320Y593D01*
G01X1358Y626D01*
G01X1392Y662D01*
G01X1422Y702D01*
G01X1448Y744D01*
G01X1469Y789D01*
G01X1486Y836D01*
G01X1499Y884D01*
G01X1506Y934D01*
G01X1509Y984D01*
G01X1506Y1033D01*
G01X1499Y1083D01*
G01X1486Y1131D01*
G01X1469Y1178D01*
G01X1448Y1223D01*
G01X1422Y1265D01*
G01X1392Y1305D01*
G01X1358Y1341D01*
G01X1320Y1374D01*
G01X1280Y1404D01*
G01X1237Y1428D01*
G01X1191Y1449D01*
G01X1144Y1465D01*
G01X1095Y1476D01*
G01X1046Y1482D01*
G01X996Y1483D01*
G01X946Y1480D01*
G01X897Y1471D01*
G01X849Y1457D01*
G01X803Y1439D01*
G01X759Y1417D01*
G01X717Y1389D01*
G01X678Y1358D01*
G01X642Y1324D01*
G01X610Y1285D01*
G01X582Y1244D01*
G01X558Y1200D01*
G01X539Y1155D01*
G01X524Y1107D01*
G01X514Y1058D01*
G01X509Y1008D01*
G01X509Y959D01*
G01X514Y909D01*
G01X524Y860D01*
G01X539Y812D01*
G01X558Y767D01*
G01X582Y723D01*
G01X610Y682D01*
G01X642Y643D01*
G01X678Y609D01*
G01X717Y578D01*
G01X759Y550D01*
G01X803Y528D01*
G01X849Y510D01*
G01X897Y496D01*
G01X946Y487D01*
G01X996Y484D01*
G37*
G36*
G01X8317Y4246D02*
G01X8526Y4246D01*
G01X8526Y4345D01*
G01X8525Y4349D01*
G01X8525Y4353D01*
G01X8525Y4357D01*
G01X8524Y4361D01*
G01X8523Y4365D01*
G01X8522Y4369D01*
G01X8521Y4373D01*
G01X8520Y4377D01*
G01X8519Y4381D01*
G01X8517Y4385D01*
G01X8515Y4388D01*
G01X8513Y4392D01*
G01X8511Y4396D01*
G01X8509Y4399D01*
G01X8507Y4403D01*
G01X8504Y4406D01*
G01X8502Y4409D01*
G01X8499Y4412D01*
G01X8496Y4415D01*
G01X8493Y4418D01*
G01X8490Y4421D01*
G01X8487Y4423D01*
G01X8484Y4426D01*
G01X8480Y4428D01*
G01X8477Y4430D01*
G01X8473Y4432D01*
G01X8469Y4434D01*
G01X8466Y4436D01*
G01X8462Y4438D01*
G01X8458Y4439D01*
G01X8454Y4440D01*
G01X8450Y4441D01*
G01X8446Y4442D01*
G01X8442Y4443D01*
G01X8438Y4444D01*
G01X8434Y4444D01*
G01X8430Y4444D01*
G01X8426Y4445D01*
G01X8317Y4445D01*
G01X8317Y4246D01*
G37*
G36*
G01X2477Y3951D02*
G01X2552Y3951D01*
G01X2552Y4093D01*
G01X2300Y4093D01*
G01X2300Y4091D01*
G01X2301Y4087D01*
G01X2302Y4082D01*
G01X2304Y4078D01*
G01X2305Y4073D01*
G01X2306Y4070D01*
G01X2308Y4065D01*
G01X2310Y4061D01*
G01X2312Y4056D01*
G01X2314Y4053D01*
G01X2316Y4048D01*
G01X2318Y4045D01*
G01X2320Y4040D01*
G01X2323Y4037D01*
G01X2325Y4033D01*
G01X2328Y4029D01*
G01X2331Y4025D01*
G01X2333Y4022D01*
G01X2336Y4018D01*
G01X2339Y4015D01*
G01X2342Y4011D01*
G01X2345Y4008D01*
G01X2348Y4005D01*
G01X2351Y4002D01*
G01X2355Y3998D01*
G01X2358Y3996D01*
G01X2362Y3992D01*
G01X2365Y3990D01*
G01X2369Y3987D01*
G01X2372Y3984D01*
G01X2377Y3982D01*
G01X2380Y3979D01*
G01X2384Y3977D01*
G01X2388Y3975D01*
G01X2392Y3972D01*
G01X2396Y3970D01*
G01X2400Y3968D01*
G01X2404Y3967D01*
G01X2409Y3965D01*
G01X2413Y3963D01*
G01X2417Y3961D01*
G01X2421Y3960D01*
G01X2426Y3959D01*
G01X2430Y3957D01*
G01X2435Y3956D01*
G01X2439Y3955D01*
G01X2444Y3954D01*
G01X2448Y3954D01*
G01X2453Y3953D01*
G01X2457Y3952D01*
G01X2462Y3952D01*
G01X2466Y3952D01*
G01X2471Y3951D01*
G01X2475Y3951D01*
G01X2477Y3951D01*
G37*
G36*
G01X8317Y3851D02*
G01X8426Y3851D01*
G01X8430Y3851D01*
G01X8434Y3851D01*
G01X8438Y3851D01*
G01X8442Y3852D01*
G01X8446Y3853D01*
G01X8450Y3854D01*
G01X8454Y3855D01*
G01X8458Y3856D01*
G01X8462Y3857D01*
G01X8466Y3859D01*
G01X8469Y3861D01*
G01X8473Y3863D01*
G01X8477Y3865D01*
G01X8480Y3867D01*
G01X8484Y3869D01*
G01X8487Y3872D01*
G01X8490Y3874D01*
G01X8493Y3877D01*
G01X8496Y3880D01*
G01X8499Y3883D01*
G01X8502Y3886D01*
G01X8504Y3889D01*
G01X8507Y3892D01*
G01X8509Y3896D01*
G01X8511Y3899D01*
G01X8513Y3903D01*
G01X8515Y3907D01*
G01X8517Y3910D01*
G01X8519Y3914D01*
G01X8520Y3918D01*
G01X8521Y3922D01*
G01X8522Y3926D01*
G01X8523Y3930D01*
G01X8524Y3934D01*
G01X8525Y3938D01*
G01X8525Y3942D01*
G01X8525Y3946D01*
G01X8526Y3951D01*
G01X8526Y4049D01*
G01X8317Y4049D01*
G01X8317Y3851D01*
G37*
G36*
G01X7993Y3851D02*
G01X8101Y3851D01*
G01X8101Y4049D01*
G01X7893Y4049D01*
G01X7893Y3951D01*
G01X7893Y3946D01*
G01X7893Y3942D01*
G01X7893Y3938D01*
G01X7894Y3934D01*
G01X7895Y3930D01*
G01X7896Y3926D01*
G01X7897Y3922D01*
G01X7898Y3918D01*
G01X7899Y3914D01*
G01X7901Y3910D01*
G01X7903Y3907D01*
G01X7905Y3903D01*
G01X7907Y3899D01*
G01X7909Y3896D01*
G01X7911Y3892D01*
G01X7914Y3889D01*
G01X7916Y3886D01*
G01X7919Y3883D01*
G01X7922Y3880D01*
G01X7925Y3877D01*
G01X7928Y3874D01*
G01X7931Y3872D01*
G01X7934Y3869D01*
G01X7938Y3867D01*
G01X7941Y3865D01*
G01X7945Y3863D01*
G01X7949Y3861D01*
G01X7952Y3859D01*
G01X7956Y3857D01*
G01X7960Y3856D01*
G01X7964Y3855D01*
G01X7968Y3854D01*
G01X7972Y3853D01*
G01X7976Y3852D01*
G01X7980Y3851D01*
G01X7984Y3851D01*
G01X7988Y3851D01*
G01X7993Y3851D01*
G37*
G36*
G01X2867Y3951D02*
G01X2942Y3951D01*
G01X2944Y3951D01*
G01X2949Y3951D01*
G01X2954Y3952D01*
G01X2958Y3952D01*
G01X2963Y3952D01*
G01X2967Y3953D01*
G01X2972Y3954D01*
G01X2976Y3954D01*
G01X2981Y3955D01*
G01X2985Y3956D01*
G01X2989Y3957D01*
G01X2993Y3959D01*
G01X2998Y3960D01*
G01X3002Y3961D01*
G01X3007Y3963D01*
G01X3011Y3965D01*
G01X3015Y3967D01*
G01X3019Y3968D01*
G01X3023Y3970D01*
G01X3027Y3972D01*
G01X3032Y3975D01*
G01X3035Y3977D01*
G01X3039Y3979D01*
G01X3043Y3982D01*
G01X3047Y3984D01*
G01X3050Y3987D01*
G01X3054Y3990D01*
G01X3057Y3992D01*
G01X3061Y3996D01*
G01X3064Y3998D01*
G01X3068Y4002D01*
G01X3071Y4005D01*
G01X3075Y4008D01*
G01X3077Y4011D01*
G01X3081Y4015D01*
G01X3083Y4018D01*
G01X3086Y4022D01*
G01X3089Y4025D01*
G01X3092Y4029D01*
G01X3094Y4033D01*
G01X3097Y4037D01*
G01X3099Y4040D01*
G01X3101Y4045D01*
G01X3103Y4048D01*
G01X3106Y4053D01*
G01X3107Y4056D01*
G01X3110Y4061D01*
G01X3111Y4065D01*
G01X3113Y4070D01*
G01X3114Y4073D01*
G01X3116Y4078D01*
G01X3117Y4082D01*
G01X3118Y4087D01*
G01X3119Y4091D01*
G01X3120Y4093D01*
G01X2867Y4093D01*
G01X2867Y3951D01*
G37*
G36*
G01X7893Y4246D02*
G01X8101Y4246D01*
G01X8101Y4445D01*
G01X7993Y4445D01*
G01X7988Y4444D01*
G01X7984Y4444D01*
G01X7980Y4444D01*
G01X7976Y4443D01*
G01X7972Y4442D01*
G01X7968Y4441D01*
G01X7964Y4440D01*
G01X7960Y4439D01*
G01X7956Y4438D01*
G01X7952Y4436D01*
G01X7949Y4434D01*
G01X7945Y4432D01*
G01X7941Y4430D01*
G01X7938Y4428D01*
G01X7934Y4426D01*
G01X7931Y4423D01*
G01X7928Y4421D01*
G01X7925Y4418D01*
G01X7922Y4415D01*
G01X7919Y4412D01*
G01X7916Y4409D01*
G01X7914Y4406D01*
G01X7911Y4403D01*
G01X7909Y4399D01*
G01X7907Y4396D01*
G01X7905Y4392D01*
G01X7903Y4388D01*
G01X7901Y4385D01*
G01X7899Y4381D01*
G01X7898Y4377D01*
G01X7897Y4373D01*
G01X7896Y4369D01*
G01X7895Y4365D01*
G01X7894Y4361D01*
G01X7893Y4357D01*
G01X7893Y4353D01*
G01X7893Y4349D01*
G01X7893Y4345D01*
G01X7893Y4246D01*
G37*

%LPD*%
G36*
G01X4688Y794D02*
G01X4690Y796D01*
G01X4693Y799D01*
G01X4696Y802D01*
G01X4698Y805D01*
G01X4701Y808D01*
G01X4703Y812D01*
G01X4705Y815D01*
G01X4707Y819D01*
G01X4709Y823D01*
G01X4711Y826D01*
G01X4713Y830D01*
G01X4714Y834D01*
G01X4715Y838D01*
G01X4716Y842D01*
G01X4717Y846D01*
G01X4718Y850D01*
G01X4719Y854D01*
G01X4719Y858D01*
G01X4719Y862D01*
G01X4720Y867D01*
G01X4720Y1300D01*
G01X4719Y1304D01*
G01X4719Y1308D01*
G01X4719Y1312D01*
G01X4718Y1316D01*
G01X4717Y1320D01*
G01X4716Y1324D01*
G01X4715Y1328D01*
G01X4714Y1332D01*
G01X4713Y1336D01*
G01X4711Y1340D01*
G01X4709Y1343D01*
G01X4707Y1347D01*
G01X4705Y1351D01*
G01X4703Y1354D01*
G01X4701Y1358D01*
G01X4698Y1361D01*
G01X4696Y1364D01*
G01X4693Y1367D01*
G01X4690Y1370D01*
G01X4687Y1373D01*
G01X4684Y1376D01*
G01X4681Y1378D01*
G01X4678Y1381D01*
G01X4674Y1383D01*
G01X4671Y1385D01*
G01X4667Y1387D01*
G01X4663Y1389D01*
G01X4660Y1391D01*
G01X4656Y1393D01*
G01X4652Y1394D01*
G01X4648Y1395D01*
G01X4644Y1396D01*
G01X4640Y1397D01*
G01X4636Y1398D01*
G01X4632Y1399D01*
G01X4628Y1399D01*
G01X4624Y1399D01*
G01X4620Y1400D01*
G01X4613Y1400D01*
G01X4613Y1562D01*
G01X4969Y1562D01*
G01X4973Y1562D01*
G01X4977Y1562D01*
G01X4981Y1562D01*
G01X4985Y1563D01*
G01X4989Y1564D01*
G01X4993Y1565D01*
G01X4997Y1566D01*
G01X5001Y1567D01*
G01X5005Y1568D01*
G01X5009Y1570D01*
G01X5012Y1572D01*
G01X5016Y1574D01*
G01X5020Y1576D01*
G01X5023Y1578D01*
G01X5027Y1580D01*
G01X5030Y1583D01*
G01X5033Y1585D01*
G01X5036Y1588D01*
G01X5039Y1591D01*
G01X5042Y1594D01*
G01X5045Y1597D01*
G01X5047Y1600D01*
G01X5050Y1603D01*
G01X5052Y1607D01*
G01X5054Y1610D01*
G01X5056Y1614D01*
G01X5058Y1618D01*
G01X5060Y1621D01*
G01X5062Y1625D01*
G01X5063Y1629D01*
G01X5064Y1633D01*
G01X5065Y1637D01*
G01X5066Y1641D01*
G01X5067Y1645D01*
G01X5068Y1649D01*
G01X5068Y1653D01*
G01X5068Y1657D01*
G01X5069Y1662D01*
G01X5069Y2605D01*
G01X5068Y2610D01*
G01X5068Y2614D01*
G01X5068Y2618D01*
G01X5067Y2622D01*
G01X5066Y2626D01*
G01X5065Y2630D01*
G01X5064Y2634D01*
G01X5063Y2638D01*
G01X5062Y2642D01*
G01X5060Y2646D01*
G01X5058Y2649D01*
G01X5056Y2653D01*
G01X5054Y2657D01*
G01X5052Y2660D01*
G01X5050Y2664D01*
G01X5047Y2667D01*
G01X5045Y2670D01*
G01X5042Y2673D01*
G01X5039Y2676D01*
G01X5036Y2679D01*
G01X5033Y2682D01*
G01X5030Y2684D01*
G01X5027Y2687D01*
G01X5023Y2689D01*
G01X5020Y2691D01*
G01X5016Y2693D01*
G01X5012Y2695D01*
G01X5009Y2697D01*
G01X5005Y2699D01*
G01X5001Y2700D01*
G01X4997Y2701D01*
G01X4993Y2702D01*
G01X4989Y2703D01*
G01X4985Y2704D01*
G01X4981Y2705D01*
G01X4977Y2705D01*
G01X4973Y2705D01*
G01X4969Y2705D01*
G01X4919Y2705D01*
G01X4919Y2717D01*
G01X5048Y2846D01*
G01X5051Y2850D01*
G01X5055Y2854D01*
G01X5059Y2859D01*
G01X5062Y2863D01*
G01X5065Y2867D01*
G01X5068Y2872D01*
G01X5071Y2876D01*
G01X5074Y2881D01*
G01X5077Y2886D01*
G01X5079Y2891D01*
G01X5081Y2896D01*
G01X5083Y2901D01*
G01X5084Y2899D01*
G01X5087Y2894D01*
G01X5090Y2889D01*
G01X5093Y2885D01*
G01X5096Y2880D01*
G01X5100Y2875D01*
G01X5104Y2871D01*
G01X5107Y2867D01*
G01X5111Y2862D01*
G01X5115Y2858D01*
G01X5374Y2599D01*
G01X5378Y2595D01*
G01X5383Y2591D01*
G01X5387Y2588D01*
G01X5391Y2584D01*
G01X5396Y2580D01*
G01X5401Y2577D01*
G01X5405Y2574D01*
G01X5410Y2571D01*
G01X5415Y2568D01*
G01X5420Y2565D01*
G01X5425Y2563D01*
G01X5431Y2560D01*
G01X5436Y2558D01*
G01X5441Y2556D01*
G01X5447Y2554D01*
G01X5452Y2552D01*
G01X5457Y2550D01*
G01X5463Y2549D01*
G01X5469Y2548D01*
G01X5474Y2547D01*
G01X5480Y2546D01*
G01X5486Y2545D01*
G01X5491Y2544D01*
G01X5497Y2544D01*
G01X5503Y2544D01*
G01X5509Y2544D01*
G01X5730Y2544D01*
G01X5735Y2539D01*
G01X5735Y1662D01*
G01X5735Y1657D01*
G01X5735Y1653D01*
G01X5735Y1649D01*
G01X5736Y1645D01*
G01X5737Y1641D01*
G01X5738Y1637D01*
G01X5739Y1633D01*
G01X5740Y1629D01*
G01X5741Y1625D01*
G01X5743Y1621D01*
G01X5745Y1618D01*
G01X5747Y1614D01*
G01X5749Y1610D01*
G01X5751Y1607D01*
G01X5753Y1603D01*
G01X5756Y1600D01*
G01X5758Y1597D01*
G01X5761Y1594D01*
G01X5764Y1591D01*
G01X5767Y1588D01*
G01X5770Y1585D01*
G01X5773Y1583D01*
G01X5776Y1580D01*
G01X5780Y1578D01*
G01X5783Y1576D01*
G01X5787Y1574D01*
G01X5791Y1572D01*
G01X5794Y1570D01*
G01X5798Y1568D01*
G01X5802Y1567D01*
G01X5806Y1566D01*
G01X5810Y1565D01*
G01X5814Y1564D01*
G01X5818Y1563D01*
G01X5822Y1562D01*
G01X5826Y1562D01*
G01X5830Y1562D01*
G01X5835Y1562D01*
G01X6155Y1562D01*
G01X6155Y1401D01*
G01X6148Y1401D01*
G01X6143Y1400D01*
G01X6139Y1400D01*
G01X6135Y1400D01*
G01X6131Y1399D01*
G01X6127Y1398D01*
G01X6123Y1397D01*
G01X6119Y1396D01*
G01X6115Y1395D01*
G01X6111Y1394D01*
G01X6107Y1392D01*
G01X6104Y1390D01*
G01X6100Y1388D01*
G01X6096Y1386D01*
G01X6093Y1384D01*
G01X6089Y1382D01*
G01X6086Y1379D01*
G01X6083Y1377D01*
G01X6080Y1374D01*
G01X6077Y1371D01*
G01X6074Y1368D01*
G01X6071Y1365D01*
G01X6069Y1362D01*
G01X6066Y1359D01*
G01X6064Y1355D01*
G01X6062Y1352D01*
G01X6060Y1348D01*
G01X6058Y1344D01*
G01X6056Y1341D01*
G01X6054Y1337D01*
G01X6053Y1333D01*
G01X6052Y1329D01*
G01X6051Y1325D01*
G01X6050Y1321D01*
G01X6049Y1317D01*
G01X6048Y1313D01*
G01X6048Y1309D01*
G01X6048Y1305D01*
G01X6048Y1301D01*
G01X6048Y868D01*
G01X6048Y863D01*
G01X6048Y859D01*
G01X6048Y855D01*
G01X6049Y851D01*
G01X6050Y847D01*
G01X6051Y843D01*
G01X6052Y839D01*
G01X6053Y835D01*
G01X6054Y831D01*
G01X6056Y827D01*
G01X6058Y824D01*
G01X6060Y820D01*
G01X6062Y816D01*
G01X6064Y813D01*
G01X6066Y809D01*
G01X6069Y806D01*
G01X6071Y803D01*
G01X6074Y800D01*
G01X6077Y797D01*
G01X6080Y794D01*
G01X6080Y794D01*
G01X5979Y794D01*
G01X5979Y794D01*
G01X5982Y797D01*
G01X5985Y800D01*
G01X5988Y803D01*
G01X5990Y806D01*
G01X5993Y809D01*
G01X5995Y813D01*
G01X5997Y816D01*
G01X5999Y820D01*
G01X6001Y824D01*
G01X6003Y827D01*
G01X6005Y831D01*
G01X6006Y835D01*
G01X6007Y839D01*
G01X6008Y843D01*
G01X6009Y847D01*
G01X6010Y851D01*
G01X6011Y855D01*
G01X6011Y859D01*
G01X6011Y863D01*
G01X6012Y868D01*
G01X6012Y976D01*
G01X5813Y976D01*
G01X5813Y794D01*
G01X5616Y794D01*
G01X5616Y976D01*
G01X5418Y976D01*
G01X5418Y868D01*
G01X5418Y863D01*
G01X5418Y859D01*
G01X5418Y855D01*
G01X5419Y851D01*
G01X5420Y847D01*
G01X5421Y843D01*
G01X5422Y839D01*
G01X5423Y835D01*
G01X5424Y831D01*
G01X5426Y827D01*
G01X5428Y824D01*
G01X5430Y820D01*
G01X5432Y816D01*
G01X5434Y813D01*
G01X5436Y809D01*
G01X5439Y806D01*
G01X5441Y803D01*
G01X5444Y800D01*
G01X5447Y797D01*
G01X5450Y794D01*
G01X5450Y794D01*
G01X5318Y794D01*
G01X5320Y796D01*
G01X5323Y799D01*
G01X5326Y802D01*
G01X5328Y805D01*
G01X5331Y808D01*
G01X5333Y812D01*
G01X5335Y815D01*
G01X5337Y819D01*
G01X5339Y823D01*
G01X5341Y826D01*
G01X5343Y830D01*
G01X5344Y834D01*
G01X5345Y838D01*
G01X5346Y842D01*
G01X5347Y846D01*
G01X5348Y850D01*
G01X5349Y854D01*
G01X5349Y858D01*
G01X5349Y862D01*
G01X5350Y867D01*
G01X5350Y975D01*
G01X5151Y975D01*
G01X5151Y794D01*
G01X4954Y794D01*
G01X4954Y975D01*
G01X4755Y975D01*
G01X4755Y867D01*
G01X4756Y862D01*
G01X4756Y858D01*
G01X4756Y854D01*
G01X4757Y850D01*
G01X4758Y846D01*
G01X4759Y842D01*
G01X4760Y838D01*
G01X4761Y834D01*
G01X4762Y830D01*
G01X4764Y826D01*
G01X4766Y823D01*
G01X4768Y819D01*
G01X4770Y815D01*
G01X4772Y812D01*
G01X4774Y808D01*
G01X4777Y805D01*
G01X4779Y802D01*
G01X4782Y799D01*
G01X4785Y796D01*
G01X4787Y794D01*
G01X4688Y794D01*
G37*

%LPC*%
G36*
G01X5813Y1192D02*
G01X6012Y1192D01*
G01X6012Y1301D01*
G01X6011Y1305D01*
G01X6011Y1309D01*
G01X6011Y1313D01*
G01X6010Y1317D01*
G01X6009Y1321D01*
G01X6008Y1325D01*
G01X6007Y1329D01*
G01X6006Y1333D01*
G01X6005Y1337D01*
G01X6003Y1341D01*
G01X6001Y1344D01*
G01X5999Y1348D01*
G01X5997Y1352D01*
G01X5995Y1355D01*
G01X5993Y1359D01*
G01X5990Y1362D01*
G01X5988Y1365D01*
G01X5985Y1368D01*
G01X5982Y1371D01*
G01X5979Y1374D01*
G01X5976Y1377D01*
G01X5973Y1379D01*
G01X5970Y1382D01*
G01X5966Y1384D01*
G01X5963Y1386D01*
G01X5959Y1388D01*
G01X5955Y1390D01*
G01X5952Y1392D01*
G01X5948Y1394D01*
G01X5944Y1395D01*
G01X5940Y1396D01*
G01X5936Y1397D01*
G01X5932Y1398D01*
G01X5928Y1399D01*
G01X5924Y1400D01*
G01X5920Y1400D01*
G01X5916Y1400D01*
G01X5912Y1401D01*
G01X5813Y1401D01*
G01X5813Y1192D01*
G37*
G36*
G01X4755Y1191D02*
G01X4954Y1191D01*
G01X4954Y1400D01*
G01X4855Y1400D01*
G01X4851Y1399D01*
G01X4847Y1399D01*
G01X4843Y1399D01*
G01X4839Y1398D01*
G01X4835Y1397D01*
G01X4831Y1396D01*
G01X4827Y1395D01*
G01X4823Y1394D01*
G01X4819Y1393D01*
G01X4815Y1391D01*
G01X4812Y1389D01*
G01X4808Y1387D01*
G01X4804Y1385D01*
G01X4801Y1383D01*
G01X4797Y1381D01*
G01X4794Y1378D01*
G01X4791Y1376D01*
G01X4788Y1373D01*
G01X4785Y1370D01*
G01X4782Y1367D01*
G01X4779Y1364D01*
G01X4777Y1361D01*
G01X4774Y1358D01*
G01X4772Y1354D01*
G01X4770Y1351D01*
G01X4768Y1347D01*
G01X4766Y1343D01*
G01X4764Y1340D01*
G01X4762Y1336D01*
G01X4761Y1332D01*
G01X4760Y1328D01*
G01X4759Y1324D01*
G01X4758Y1320D01*
G01X4757Y1316D01*
G01X4756Y1312D01*
G01X4756Y1308D01*
G01X4756Y1304D01*
G01X4755Y1300D01*
G01X4755Y1191D01*
G37*
G36*
G01X5151Y1191D02*
G01X5350Y1191D01*
G01X5350Y1300D01*
G01X5349Y1304D01*
G01X5349Y1308D01*
G01X5349Y1312D01*
G01X5348Y1316D01*
G01X5347Y1320D01*
G01X5346Y1324D01*
G01X5345Y1328D01*
G01X5344Y1332D01*
G01X5343Y1336D01*
G01X5341Y1340D01*
G01X5339Y1343D01*
G01X5337Y1347D01*
G01X5335Y1351D01*
G01X5333Y1354D01*
G01X5331Y1358D01*
G01X5328Y1361D01*
G01X5326Y1364D01*
G01X5323Y1367D01*
G01X5320Y1370D01*
G01X5317Y1373D01*
G01X5314Y1376D01*
G01X5311Y1378D01*
G01X5308Y1381D01*
G01X5304Y1383D01*
G01X5301Y1385D01*
G01X5297Y1387D01*
G01X5293Y1389D01*
G01X5290Y1391D01*
G01X5286Y1393D01*
G01X5282Y1394D01*
G01X5278Y1395D01*
G01X5274Y1396D01*
G01X5270Y1397D01*
G01X5266Y1398D01*
G01X5262Y1399D01*
G01X5258Y1399D01*
G01X5254Y1399D01*
G01X5250Y1400D01*
G01X5151Y1400D01*
G01X5151Y1191D01*
G37*
G36*
G01X5418Y1192D02*
G01X5616Y1192D01*
G01X5616Y1401D01*
G01X5518Y1401D01*
G01X5513Y1400D01*
G01X5509Y1400D01*
G01X5505Y1400D01*
G01X5501Y1399D01*
G01X5497Y1398D01*
G01X5493Y1397D01*
G01X5489Y1396D01*
G01X5485Y1395D01*
G01X5481Y1394D01*
G01X5477Y1392D01*
G01X5474Y1390D01*
G01X5470Y1388D01*
G01X5466Y1386D01*
G01X5463Y1384D01*
G01X5459Y1382D01*
G01X5456Y1379D01*
G01X5453Y1377D01*
G01X5450Y1374D01*
G01X5447Y1371D01*
G01X5444Y1368D01*
G01X5441Y1365D01*
G01X5439Y1362D01*
G01X5436Y1359D01*
G01X5434Y1355D01*
G01X5432Y1352D01*
G01X5430Y1348D01*
G01X5428Y1344D01*
G01X5426Y1341D01*
G01X5424Y1337D01*
G01X5423Y1333D01*
G01X5422Y1329D01*
G01X5421Y1325D01*
G01X5420Y1321D01*
G01X5419Y1317D01*
G01X5418Y1313D01*
G01X5418Y1309D01*
G01X5418Y1305D01*
G01X5418Y1301D01*
G01X5418Y1192D01*
G37*

%LPD*%
G36*
G01X5866Y4159D02*
G01X5800Y4225D01*
G01X5796Y4229D01*
G01X5791Y4233D01*
G01X5787Y4237D01*
G01X5782Y4241D01*
G01X5777Y4245D01*
G01X5772Y4248D01*
G01X5767Y4251D01*
G01X5762Y4255D01*
G01X5757Y4258D01*
G01X5751Y4261D01*
G01X5746Y4263D01*
G01X5741Y4266D01*
G01X5735Y4268D01*
G01X5729Y4271D01*
G01X5724Y4273D01*
G01X5718Y4274D01*
G01X5712Y4276D01*
G01X5706Y4278D01*
G01X5700Y4279D01*
G01X5695Y4280D01*
G01X5689Y4281D01*
G01X5683Y4282D01*
G01X5677Y4283D01*
G01X5671Y4283D01*
G01X5665Y4283D01*
G01X5659Y4284D01*
G01X5141Y4284D01*
G01X4900Y4525D01*
G01X4893Y4532D01*
G01X4890Y4534D01*
G01X4889Y4536D01*
G01X4874Y4552D01*
G01X4857Y4567D01*
G01X4839Y4580D01*
G01X4820Y4591D01*
G01X4800Y4600D01*
G01X4790Y4603D01*
G01X4787Y4606D01*
G01X4782Y4610D01*
G01X4777Y4613D01*
G01X4772Y4616D01*
G01X4767Y4620D01*
G01X4762Y4623D01*
G01X4756Y4626D01*
G01X4751Y4628D01*
G01X4746Y4631D01*
G01X4740Y4633D01*
G01X4734Y4636D01*
G01X4729Y4638D01*
G01X4723Y4639D01*
G01X4717Y4641D01*
G01X4711Y4643D01*
G01X4705Y4644D01*
G01X4700Y4645D01*
G01X4694Y4646D01*
G01X4688Y4647D01*
G01X4682Y4648D01*
G01X4676Y4648D01*
G01X4670Y4648D01*
G01X4664Y4649D01*
G01X3612Y4649D01*
G01X3539Y4722D01*
G01X3539Y6495D01*
G01X3662Y6618D01*
G01X3669Y6620D01*
G01X3690Y6627D01*
G01X3710Y6636D01*
G01X3729Y6647D01*
G01X3747Y6660D01*
G01X3764Y6675D01*
G01X3779Y6691D01*
G01X3792Y6708D01*
G01X3803Y6727D01*
G01X3813Y6747D01*
G01X3821Y6768D01*
G01X3826Y6790D01*
G01X3829Y6811D01*
G01X3830Y6834D01*
G01X3829Y6856D01*
G01X3826Y6877D01*
G01X3821Y6899D01*
G01X3813Y6920D01*
G01X3803Y6940D01*
G01X3792Y6959D01*
G01X3779Y6976D01*
G01X3764Y6992D01*
G01X3747Y7007D01*
G01X3729Y7020D01*
G01X3710Y7031D01*
G01X3690Y7040D01*
G01X3669Y7047D01*
G01X3647Y7052D01*
G01X3625Y7055D01*
G01X3603Y7055D01*
G01X3581Y7054D01*
G01X3559Y7050D01*
G01X3538Y7044D01*
G01X3517Y7036D01*
G01X3498Y7026D01*
G01X3479Y7014D01*
G01X3462Y7000D01*
G01X3446Y6985D01*
G01X3440Y6977D01*
G01X3439Y6986D01*
G01X3436Y7007D01*
G01X3431Y7029D01*
G01X3423Y7050D01*
G01X3413Y7070D01*
G01X3411Y7074D01*
G01X6319Y7074D01*
G01X6319Y6908D01*
G01X6308Y6890D01*
G01X6300Y6869D01*
G01X6293Y6848D01*
G01X6289Y6827D01*
G01X6287Y6805D01*
G01X6287Y6782D01*
G01X6289Y6760D01*
G01X6293Y6739D01*
G01X6300Y6718D01*
G01X6308Y6697D01*
G01X6319Y6678D01*
G01X6332Y6659D01*
G01X6346Y6643D01*
G01X6362Y6627D01*
G01X6379Y6613D01*
G01X6398Y6601D01*
G01X6417Y6591D01*
G01X6438Y6583D01*
G01X6459Y6577D01*
G01X6481Y6573D01*
G01X6503Y6572D01*
G01X6525Y6572D01*
G01X6547Y6575D01*
G01X6569Y6580D01*
G01X6590Y6587D01*
G01X6610Y6596D01*
G01X6629Y6607D01*
G01X6647Y6620D01*
G01X6664Y6635D01*
G01X6679Y6651D01*
G01X6692Y6668D01*
G01X6703Y6687D01*
G01X6713Y6707D01*
G01X6721Y6728D01*
G01X6724Y6740D01*
G01X6758Y6774D01*
G01X6789Y6775D01*
G01X6788Y6773D01*
G01X6785Y6769D01*
G01X6782Y6766D01*
G01X6779Y6762D01*
G01X6776Y6758D01*
G01X6774Y6755D01*
G01X6771Y6751D01*
G01X6769Y6747D01*
G01X6767Y6743D01*
G01X6765Y6739D01*
G01X6763Y6735D01*
G01X6761Y6731D01*
G01X6759Y6726D01*
G01X6757Y6723D01*
G01X6755Y6718D01*
G01X6754Y6714D01*
G01X6752Y6710D01*
G01X6751Y6706D01*
G01X6750Y6701D01*
G01X6749Y6697D01*
G01X6748Y6692D01*
G01X6747Y6688D01*
G01X6746Y6683D01*
G01X6745Y6679D01*
G01X6745Y6674D01*
G01X6744Y6670D01*
G01X6744Y6665D01*
G01X6744Y6661D01*
G01X6744Y6656D01*
G01X6744Y6652D01*
G01X6744Y6647D01*
G01X6744Y6643D01*
G01X6744Y6637D01*
G01X6745Y6633D01*
G01X6745Y6628D01*
G01X6746Y6624D01*
G01X6747Y6620D01*
G01X6748Y6616D01*
G01X6749Y6610D01*
G01X6750Y6606D01*
G01X6751Y6602D01*
G01X6752Y6598D01*
G01X6754Y6593D01*
G01X6755Y6589D01*
G01X6757Y6585D01*
G01X6759Y6581D01*
G01X6761Y6576D01*
G01X6763Y6572D01*
G01X6765Y6568D01*
G01X6767Y6564D01*
G01X6769Y6560D01*
G01X6771Y6557D01*
G01X6774Y6552D01*
G01X6776Y6549D01*
G01X6779Y6545D01*
G01X6782Y6542D01*
G01X6785Y6538D01*
G01X6788Y6535D01*
G01X6791Y6531D01*
G01X6794Y6528D01*
G01X6797Y6524D01*
G01X6800Y6521D01*
G01X6804Y6518D01*
G01X6807Y6515D01*
G01X6811Y6512D01*
G01X6814Y6509D01*
G01X6818Y6506D01*
G01X6821Y6504D01*
G01X6825Y6501D01*
G01X6827Y6500D01*
G01X6827Y6500D01*
G01X6811Y6485D01*
G01X6797Y6468D01*
G01X6796Y6467D01*
G01X6794Y6464D01*
G01X6791Y6461D01*
G01X6788Y6458D01*
G01X6785Y6454D01*
G01X6782Y6451D01*
G01X6779Y6447D01*
G01X6776Y6443D01*
G01X6774Y6440D01*
G01X6771Y6436D01*
G01X6769Y6432D01*
G01X6767Y6428D01*
G01X6765Y6424D01*
G01X6763Y6420D01*
G01X6761Y6416D01*
G01X6759Y6411D01*
G01X6757Y6408D01*
G01X6755Y6403D01*
G01X6754Y6399D01*
G01X6752Y6395D01*
G01X6751Y6391D01*
G01X6750Y6386D01*
G01X6749Y6382D01*
G01X6748Y6377D01*
G01X6747Y6373D01*
G01X6746Y6368D01*
G01X6745Y6364D01*
G01X6745Y6359D01*
G01X6744Y6355D01*
G01X6744Y6350D01*
G01X6744Y6346D01*
G01X6744Y6341D01*
G01X6744Y6337D01*
G01X6744Y6332D01*
G01X6744Y6328D01*
G01X6744Y6322D01*
G01X6745Y6318D01*
G01X6745Y6313D01*
G01X6746Y6309D01*
G01X6747Y6305D01*
G01X6748Y6301D01*
G01X6749Y6295D01*
G01X6750Y6291D01*
G01X6751Y6287D01*
G01X6752Y6283D01*
G01X6754Y6278D01*
G01X6755Y6274D01*
G01X6757Y6270D01*
G01X6759Y6266D01*
G01X6761Y6261D01*
G01X6763Y6257D01*
G01X6765Y6253D01*
G01X6767Y6249D01*
G01X6769Y6245D01*
G01X6771Y6242D01*
G01X6772Y6241D01*
G01X6773Y6237D01*
G01X6784Y6218D01*
G01X6797Y6199D01*
G01X6811Y6182D01*
G01X6821Y6173D01*
G01X6818Y6171D01*
G01X6814Y6168D01*
G01X6811Y6165D01*
G01X6807Y6162D01*
G01X6804Y6159D01*
G01X6800Y6156D01*
G01X6797Y6153D01*
G01X6794Y6149D01*
G01X6791Y6146D01*
G01X6788Y6143D01*
G01X6785Y6140D01*
G01X6782Y6136D01*
G01X6779Y6132D01*
G01X6776Y6128D01*
G01X6774Y6125D01*
G01X6771Y6121D01*
G01X6769Y6117D01*
G01X6767Y6113D01*
G01X6765Y6109D01*
G01X6763Y6105D01*
G01X6761Y6101D01*
G01X6759Y6097D01*
G01X6757Y6093D01*
G01X6755Y6088D01*
G01X6754Y6084D01*
G01X6752Y6080D01*
G01X6751Y6076D01*
G01X6750Y6071D01*
G01X6749Y6067D01*
G01X6748Y6065D01*
G01X7001Y6065D01*
G01X7001Y6113D01*
G01X7012Y6115D01*
G01X7034Y6120D01*
G01X7055Y6127D01*
G01X7075Y6136D01*
G01X7094Y6147D01*
G01X7106Y6156D01*
G01X7316Y6156D01*
G01X7316Y6065D01*
G01X7569Y6065D01*
G01X7568Y6067D01*
G01X7567Y6071D01*
G01X7566Y6076D01*
G01X7565Y6080D01*
G01X7563Y6084D01*
G01X7562Y6088D01*
G01X7560Y6093D01*
G01X7558Y6097D01*
G01X7556Y6101D01*
G01X7554Y6105D01*
G01X7552Y6109D01*
G01X7550Y6113D01*
G01X7548Y6117D01*
G01X7546Y6121D01*
G01X7543Y6125D01*
G01X7541Y6128D01*
G01X7538Y6132D01*
G01X7535Y6136D01*
G01X7532Y6140D01*
G01X7529Y6143D01*
G01X7526Y6146D01*
G01X7523Y6149D01*
G01X7520Y6153D01*
G01X7517Y6156D01*
G01X7513Y6159D01*
G01X7510Y6162D01*
G01X7506Y6165D01*
G01X7503Y6168D01*
G01X7499Y6171D01*
G01X7496Y6173D01*
G01X7492Y6176D01*
G01X7488Y6178D01*
G01X7484Y6181D01*
G01X7483Y6181D01*
G01X7484Y6181D01*
G01X7488Y6184D01*
G01X7492Y6186D01*
G01X7496Y6189D01*
G01X7499Y6191D01*
G01X7503Y6194D01*
G01X7506Y6197D01*
G01X7510Y6200D01*
G01X7513Y6203D01*
G01X7517Y6206D01*
G01X7520Y6209D01*
G01X7523Y6213D01*
G01X7526Y6216D01*
G01X7529Y6220D01*
G01X7532Y6223D01*
G01X7535Y6227D01*
G01X7538Y6230D01*
G01X7541Y6234D01*
G01X7543Y6237D01*
G01X7546Y6242D01*
G01X7548Y6245D01*
G01X7550Y6249D01*
G01X7552Y6253D01*
G01X7554Y6257D01*
G01X7556Y6261D01*
G01X7558Y6266D01*
G01X7560Y6270D01*
G01X7562Y6274D01*
G01X7563Y6278D01*
G01X7565Y6283D01*
G01X7566Y6287D01*
G01X7567Y6291D01*
G01X7568Y6295D01*
G01X7569Y6301D01*
G01X7570Y6305D01*
G01X7571Y6309D01*
G01X7572Y6313D01*
G01X7572Y6314D01*
G01X7714Y6314D01*
G01X7749Y6276D01*
G01X7749Y5777D01*
G01X7746Y5775D01*
G01X7732Y5758D01*
G01X7719Y5739D01*
G01X7708Y5720D01*
G01X7700Y5699D01*
G01X7693Y5678D01*
G01X7689Y5657D01*
G01X7687Y5635D01*
G01X7687Y5612D01*
G01X7689Y5590D01*
G01X7693Y5569D01*
G01X7700Y5548D01*
G01X7708Y5527D01*
G01X7719Y5508D01*
G01X7732Y5489D01*
G01X7746Y5473D01*
G01X7762Y5457D01*
G01X7779Y5444D01*
G01X7702Y5444D01*
G01X7668Y5496D01*
G01X7665Y5501D01*
G01X7662Y5506D01*
G01X7658Y5510D01*
G01X7655Y5515D01*
G01X7651Y5519D01*
G01X7647Y5523D01*
G01X7643Y5528D01*
G01X7639Y5532D01*
G01X7635Y5535D01*
G01X7630Y5539D01*
G01X7626Y5543D01*
G01X7621Y5546D01*
G01X7617Y5550D01*
G01X7612Y5553D01*
G01X7607Y5556D01*
G01X7602Y5559D01*
G01X7597Y5562D01*
G01X7592Y5564D01*
G01X7587Y5567D01*
G01X7581Y5569D01*
G01X7576Y5571D01*
G01X7571Y5573D01*
G01X7565Y5575D01*
G01X7560Y5576D01*
G01X7554Y5578D01*
G01X7548Y5579D01*
G01X7543Y5580D01*
G01X7537Y5581D01*
G01X7531Y5582D01*
G01X7526Y5583D01*
G01X7523Y5583D01*
G01X7523Y5583D01*
G01X7526Y5586D01*
G01X7529Y5590D01*
G01X7532Y5593D01*
G01X7535Y5597D01*
G01X7538Y5600D01*
G01X7541Y5604D01*
G01X7543Y5607D01*
G01X7546Y5612D01*
G01X7548Y5615D01*
G01X7550Y5620D01*
G01X7552Y5623D01*
G01X7554Y5628D01*
G01X7556Y5631D01*
G01X7558Y5636D01*
G01X7560Y5640D01*
G01X7562Y5644D01*
G01X7563Y5648D01*
G01X7565Y5653D01*
G01X7566Y5657D01*
G01X7567Y5662D01*
G01X7568Y5666D01*
G01X7569Y5671D01*
G01X7570Y5675D01*
G01X7571Y5679D01*
G01X7572Y5683D01*
G01X7572Y5688D01*
G01X7573Y5693D01*
G01X7573Y5698D01*
G01X7573Y5702D01*
G01X7573Y5707D01*
G01X7573Y5711D01*
G01X7573Y5716D01*
G01X7573Y5720D01*
G01X7573Y5725D01*
G01X7572Y5729D01*
G01X7572Y5734D01*
G01X7571Y5738D01*
G01X7570Y5743D01*
G01X7569Y5747D01*
G01X7568Y5752D01*
G01X7567Y5756D01*
G01X7566Y5761D01*
G01X7565Y5765D01*
G01X7563Y5769D01*
G01X7562Y5773D01*
G01X7560Y5778D01*
G01X7558Y5782D01*
G01X7556Y5786D01*
G01X7554Y5790D01*
G01X7552Y5794D01*
G01X7550Y5798D01*
G01X7548Y5802D01*
G01X7546Y5806D01*
G01X7543Y5810D01*
G01X7541Y5813D01*
G01X7538Y5817D01*
G01X7535Y5821D01*
G01X7532Y5825D01*
G01X7529Y5828D01*
G01X7526Y5831D01*
G01X7523Y5834D01*
G01X7520Y5838D01*
G01X7517Y5841D01*
G01X7513Y5844D01*
G01X7510Y5847D01*
G01X7506Y5850D01*
G01X7503Y5853D01*
G01X7499Y5856D01*
G01X7496Y5858D01*
G01X7492Y5861D01*
G01X7488Y5863D01*
G01X7484Y5866D01*
G01X7483Y5866D01*
G01X7484Y5867D01*
G01X7488Y5869D01*
G01X7492Y5871D01*
G01X7496Y5874D01*
G01X7499Y5877D01*
G01X7503Y5880D01*
G01X7506Y5882D01*
G01X7510Y5885D01*
G01X7513Y5888D01*
G01X7517Y5892D01*
G01X7520Y5894D01*
G01X7523Y5898D01*
G01X7526Y5901D01*
G01X7529Y5905D01*
G01X7532Y5908D01*
G01X7535Y5912D01*
G01X7538Y5915D01*
G01X7541Y5919D01*
G01X7543Y5922D01*
G01X7546Y5927D01*
G01X7548Y5930D01*
G01X7550Y5935D01*
G01X7552Y5938D01*
G01X7554Y5943D01*
G01X7556Y5946D01*
G01X7558Y5951D01*
G01X7560Y5955D01*
G01X7562Y5959D01*
G01X7563Y5963D01*
G01X7565Y5968D01*
G01X7566Y5972D01*
G01X7567Y5977D01*
G01X7568Y5981D01*
G01X7569Y5982D01*
G01X7316Y5982D01*
G01X7316Y5891D01*
G01X7077Y5891D01*
G01X7060Y5901D01*
G01X7040Y5910D01*
G01X7019Y5917D01*
G01X7001Y5921D01*
G01X7001Y5982D01*
G01X6748Y5982D01*
G01X6749Y5981D01*
G01X6750Y5977D01*
G01X6751Y5972D01*
G01X6752Y5968D01*
G01X6754Y5963D01*
G01X6755Y5959D01*
G01X6757Y5955D01*
G01X6759Y5951D01*
G01X6761Y5946D01*
G01X6763Y5943D01*
G01X6765Y5938D01*
G01X6767Y5935D01*
G01X6769Y5930D01*
G01X6771Y5927D01*
G01X6774Y5922D01*
G01X6776Y5919D01*
G01X6779Y5915D01*
G01X6782Y5912D01*
G01X6785Y5908D01*
G01X6788Y5905D01*
G01X6791Y5901D01*
G01X6794Y5898D01*
G01X6797Y5894D01*
G01X6800Y5892D01*
G01X6804Y5888D01*
G01X6807Y5885D01*
G01X6811Y5882D01*
G01X6814Y5880D01*
G01X6818Y5877D01*
G01X6819Y5876D01*
G01X6812Y5870D01*
G01X6796Y5855D01*
G01X6782Y5838D01*
G01X6769Y5819D01*
G01X6758Y5800D01*
G01X6750Y5779D01*
G01X6743Y5758D01*
G01X6739Y5737D01*
G01X6737Y5715D01*
G01X6737Y5692D01*
G01X6739Y5670D01*
G01X6743Y5649D01*
G01X6750Y5628D01*
G01X6755Y5616D01*
G01X6724Y5647D01*
G01X6721Y5659D01*
G01X6713Y5680D01*
G01X6703Y5700D01*
G01X6692Y5719D01*
G01X6679Y5736D01*
G01X6664Y5752D01*
G01X6647Y5767D01*
G01X6629Y5780D01*
G01X6610Y5791D01*
G01X6590Y5800D01*
G01X6569Y5807D01*
G01X6547Y5812D01*
G01X6525Y5815D01*
G01X6503Y5815D01*
G01X6481Y5814D01*
G01X6459Y5810D01*
G01X6438Y5804D01*
G01X6417Y5796D01*
G01X6398Y5786D01*
G01X6379Y5774D01*
G01X6362Y5760D01*
G01X6346Y5745D01*
G01X6332Y5728D01*
G01X6319Y5709D01*
G01X6308Y5690D01*
G01X6300Y5669D01*
G01X6293Y5648D01*
G01X6289Y5627D01*
G01X6287Y5605D01*
G01X6287Y5582D01*
G01X6289Y5560D01*
G01X6293Y5539D01*
G01X6300Y5518D01*
G01X6308Y5497D01*
G01X6319Y5478D01*
G01X6332Y5459D01*
G01X6346Y5443D01*
G01X6362Y5427D01*
G01X6379Y5413D01*
G01X6398Y5401D01*
G01X6417Y5391D01*
G01X6438Y5383D01*
G01X6455Y5378D01*
G01X6574Y5259D01*
G01X6578Y5255D01*
G01X6583Y5251D01*
G01X6587Y5248D01*
G01X6591Y5244D01*
G01X6596Y5240D01*
G01X6601Y5237D01*
G01X6605Y5234D01*
G01X6610Y5231D01*
G01X6615Y5228D01*
G01X6620Y5225D01*
G01X6625Y5223D01*
G01X6631Y5220D01*
G01X6636Y5218D01*
G01X6641Y5216D01*
G01X6647Y5214D01*
G01X6652Y5212D01*
G01X6657Y5210D01*
G01X6663Y5209D01*
G01X6669Y5208D01*
G01X6674Y5207D01*
G01X6680Y5206D01*
G01X6686Y5205D01*
G01X6691Y5204D01*
G01X6697Y5204D01*
G01X6703Y5204D01*
G01X6709Y5203D01*
G01X6793Y5203D01*
G01X6791Y5201D01*
G01X6788Y5198D01*
G01X6785Y5195D01*
G01X6782Y5191D01*
G01X6779Y5187D01*
G01X6776Y5183D01*
G01X6774Y5180D01*
G01X6771Y5176D01*
G01X6769Y5172D01*
G01X6767Y5168D01*
G01X6765Y5164D01*
G01X6763Y5160D01*
G01X6761Y5156D01*
G01X6759Y5152D01*
G01X6757Y5148D01*
G01X6755Y5143D01*
G01X6754Y5139D01*
G01X6752Y5135D01*
G01X6751Y5131D01*
G01X6750Y5126D01*
G01X6749Y5122D01*
G01X6748Y5117D01*
G01X6747Y5113D01*
G01X6746Y5108D01*
G01X6745Y5104D01*
G01X6745Y5099D01*
G01X6744Y5095D01*
G01X6744Y5090D01*
G01X6744Y5086D01*
G01X6744Y5081D01*
G01X6744Y5077D01*
G01X6744Y5072D01*
G01X6744Y5068D01*
G01X6744Y5063D01*
G01X6745Y5059D01*
G01X6745Y5053D01*
G01X6746Y5049D01*
G01X6747Y5045D01*
G01X6748Y5041D01*
G01X6749Y5036D01*
G01X6750Y5032D01*
G01X6751Y5027D01*
G01X6752Y5023D01*
G01X6754Y5018D01*
G01X6755Y5014D01*
G01X6757Y5010D01*
G01X6759Y5006D01*
G01X6761Y5001D01*
G01X6763Y4998D01*
G01X6765Y4993D01*
G01X6767Y4990D01*
G01X6769Y4985D01*
G01X6771Y4982D01*
G01X6774Y4978D01*
G01X6776Y4974D01*
G01X6779Y4970D01*
G01X6782Y4967D01*
G01X6785Y4963D01*
G01X6788Y4960D01*
G01X6791Y4956D01*
G01X6794Y4953D01*
G01X6797Y4950D01*
G01X6800Y4947D01*
G01X6804Y4943D01*
G01X6807Y4941D01*
G01X6811Y4937D01*
G01X6814Y4935D01*
G01X6818Y4932D01*
G01X6821Y4929D01*
G01X6825Y4926D01*
G01X6829Y4924D01*
G01X6833Y4922D01*
G01X6834Y4921D01*
G01X6833Y4921D01*
G01X6829Y4918D01*
G01X6825Y4916D01*
G01X6821Y4913D01*
G01X6818Y4911D01*
G01X6814Y4908D01*
G01X6811Y4905D01*
G01X6807Y4902D01*
G01X6804Y4899D01*
G01X6800Y4896D01*
G01X6797Y4893D01*
G01X6794Y4890D01*
G01X6791Y4887D01*
G01X6788Y4883D01*
G01X6785Y4880D01*
G01X6782Y4876D01*
G01X6779Y4872D01*
G01X6776Y4868D01*
G01X6774Y4865D01*
G01X6771Y4861D01*
G01X6769Y4857D01*
G01X6767Y4853D01*
G01X6765Y4849D01*
G01X6763Y4845D01*
G01X6761Y4841D01*
G01X6759Y4837D01*
G01X6757Y4833D01*
G01X6755Y4828D01*
G01X6754Y4824D01*
G01X6752Y4820D01*
G01X6751Y4816D01*
G01X6750Y4811D01*
G01X6749Y4807D01*
G01X6748Y4802D01*
G01X6747Y4798D01*
G01X6746Y4793D01*
G01X6745Y4789D01*
G01X6745Y4784D01*
G01X6744Y4780D01*
G01X6744Y4775D01*
G01X6744Y4771D01*
G01X6744Y4766D01*
G01X6744Y4762D01*
G01X6744Y4757D01*
G01X6744Y4753D01*
G01X6744Y4748D01*
G01X6745Y4744D01*
G01X6745Y4739D01*
G01X6746Y4734D01*
G01X6747Y4730D01*
G01X6748Y4726D01*
G01X6749Y4721D01*
G01X6750Y4717D01*
G01X6751Y4712D01*
G01X6752Y4708D01*
G01X6754Y4703D01*
G01X6755Y4699D01*
G01X6757Y4695D01*
G01X6759Y4691D01*
G01X6761Y4686D01*
G01X6763Y4683D01*
G01X6765Y4678D01*
G01X6767Y4675D01*
G01X6769Y4670D01*
G01X6771Y4667D01*
G01X6774Y4663D01*
G01X6776Y4659D01*
G01X6779Y4655D01*
G01X6782Y4652D01*
G01X6785Y4648D01*
G01X6788Y4645D01*
G01X6791Y4641D01*
G01X6794Y4638D01*
G01X6797Y4635D01*
G01X6800Y4632D01*
G01X6804Y4628D01*
G01X6807Y4626D01*
G01X6811Y4622D01*
G01X6814Y4620D01*
G01X6818Y4617D01*
G01X6821Y4614D01*
G01X6825Y4611D01*
G01X6829Y4609D01*
G01X6833Y4607D01*
G01X6834Y4606D01*
G01X6833Y4606D01*
G01X6829Y4603D01*
G01X6825Y4601D01*
G01X6821Y4598D01*
G01X6818Y4596D01*
G01X6814Y4593D01*
G01X6811Y4590D01*
G01X6807Y4587D01*
G01X6804Y4584D01*
G01X6800Y4581D01*
G01X6797Y4578D01*
G01X6794Y4575D01*
G01X6791Y4572D01*
G01X6788Y4568D01*
G01X6785Y4565D01*
G01X6782Y4561D01*
G01X6779Y4558D01*
G01X6776Y4554D01*
G01X6774Y4550D01*
G01X6771Y4546D01*
G01X6769Y4542D01*
G01X6767Y4538D01*
G01X6765Y4534D01*
G01X6763Y4530D01*
G01X6761Y4526D01*
G01X6759Y4522D01*
G01X6757Y4518D01*
G01X6755Y4513D01*
G01X6754Y4509D01*
G01X6752Y4505D01*
G01X6751Y4501D01*
G01X6750Y4496D01*
G01X6749Y4492D01*
G01X6748Y4487D01*
G01X6747Y4483D01*
G01X6746Y4478D01*
G01X6745Y4474D01*
G01X6745Y4469D01*
G01X6744Y4465D01*
G01X6744Y4460D01*
G01X6744Y4456D01*
G01X6744Y4451D01*
G01X6744Y4447D01*
G01X6744Y4442D01*
G01X6744Y4438D01*
G01X6744Y4433D01*
G01X6745Y4429D01*
G01X6745Y4424D01*
G01X6746Y4420D01*
G01X6747Y4415D01*
G01X6748Y4411D01*
G01X6749Y4406D01*
G01X6750Y4402D01*
G01X6751Y4397D01*
G01X6752Y4393D01*
G01X6754Y4388D01*
G01X6755Y4385D01*
G01X6757Y4380D01*
G01X6759Y4376D01*
G01X6761Y4371D01*
G01X6763Y4368D01*
G01X6765Y4363D01*
G01X6767Y4360D01*
G01X6769Y4355D01*
G01X6771Y4352D01*
G01X6774Y4348D01*
G01X6776Y4344D01*
G01X6779Y4340D01*
G01X6782Y4337D01*
G01X6785Y4333D01*
G01X6788Y4330D01*
G01X6791Y4326D01*
G01X6794Y4323D01*
G01X6797Y4320D01*
G01X6800Y4317D01*
G01X6804Y4313D01*
G01X6807Y4311D01*
G01X6811Y4307D01*
G01X6814Y4305D01*
G01X6818Y4302D01*
G01X6821Y4299D01*
G01X6825Y4297D01*
G01X6829Y4294D01*
G01X6833Y4292D01*
G01X6834Y4291D01*
G01X6833Y4291D01*
G01X6829Y4288D01*
G01X6825Y4286D01*
G01X6821Y4283D01*
G01X6818Y4281D01*
G01X6814Y4278D01*
G01X6811Y4275D01*
G01X6807Y4272D01*
G01X6804Y4269D01*
G01X6800Y4266D01*
G01X6797Y4263D01*
G01X6794Y4260D01*
G01X6791Y4257D01*
G01X6788Y4253D01*
G01X6785Y4250D01*
G01X6782Y4246D01*
G01X6779Y4243D01*
G01X6776Y4239D01*
G01X6774Y4235D01*
G01X6771Y4231D01*
G01X6769Y4227D01*
G01X6767Y4223D01*
G01X6765Y4219D01*
G01X6763Y4215D01*
G01X6761Y4211D01*
G01X6759Y4207D01*
G01X6757Y4203D01*
G01X6743Y4218D01*
G01X6739Y4222D01*
G01X6734Y4226D01*
G01X6730Y4229D01*
G01X6726Y4233D01*
G01X6721Y4237D01*
G01X6716Y4240D01*
G01X6712Y4243D01*
G01X6707Y4246D01*
G01X6702Y4249D01*
G01X6697Y4252D01*
G01X6692Y4254D01*
G01X6686Y4257D01*
G01X6681Y4259D01*
G01X6676Y4261D01*
G01X6670Y4263D01*
G01X6665Y4265D01*
G01X6660Y4267D01*
G01X6654Y4268D01*
G01X6648Y4269D01*
G01X6643Y4270D01*
G01X6637Y4271D01*
G01X6631Y4272D01*
G01X6626Y4273D01*
G01X6620Y4273D01*
G01X6614Y4273D01*
G01X6609Y4274D01*
G01X6059Y4274D01*
G01X6053Y4273D01*
G01X6047Y4273D01*
G01X6041Y4273D01*
G01X6036Y4272D01*
G01X6030Y4271D01*
G01X6024Y4270D01*
G01X6019Y4269D01*
G01X6013Y4268D01*
G01X6007Y4267D01*
G01X6002Y4265D01*
G01X5997Y4263D01*
G01X5991Y4261D01*
G01X5986Y4259D01*
G01X5981Y4257D01*
G01X5975Y4254D01*
G01X5970Y4252D01*
G01X5965Y4249D01*
G01X5960Y4246D01*
G01X5955Y4243D01*
G01X5951Y4240D01*
G01X5946Y4237D01*
G01X5941Y4233D01*
G01X5937Y4229D01*
G01X5933Y4226D01*
G01X5928Y4222D01*
G01X5924Y4218D01*
G01X5866Y4159D01*
G37*

%LPC*%

%LPD*%
G54D14*
G01X4423Y1084D02*
G01X4423Y1962D01*
G01X4595Y2134D01*
G01X6345Y1084D02*
G01X6345Y1998D01*
G01X6209Y2134D01*
G54D11*
G01X4935Y3485D02*
G01X4935Y2960D01*
G01X4759Y2784D01*
G01X4759Y2298D01*
G01X4595Y2134D01*
G54D14*
G01X5250Y3485D02*
G01X5250Y2993D01*
G01X5509Y2734D01*
G01X5809Y2734D01*
G01X6059Y2484D01*
G01X6059Y2284D01*
G01X6209Y2134D01*
G01X5878Y3485D02*
G01X5878Y3903D01*
G01X6059Y4084D01*
G01X6559Y4084D01*
G01X2710Y5394D02*
G01X2369Y5394D01*
G01X2259Y5284D01*
G01X1957Y5284D01*
G01X1928Y5255D01*
G01X2710Y5709D02*
G01X2284Y5709D01*
G01X2209Y5634D01*
G01X1944Y5634D01*
G01X1928Y5648D01*
G01X2710Y6024D02*
G01X1947Y6024D01*
G01X1928Y6042D01*
G01X1928Y6436D02*
G01X2257Y6436D01*
G01X2359Y6334D01*
G01X2705Y6334D01*
G01X2710Y6339D01*
G54D32*
G01X1928Y4861D02*
G01X1443Y4861D01*
G01X1226Y5073D01*
G01X1228Y6924D01*
G54D14*
G01X8219Y5844D02*
G01X8219Y5382D01*
G01X8089Y5253D01*
G01X7599Y5253D01*
G01X7509Y5394D01*
G01X7159Y5394D01*
G01X7159Y5394D02*
G01X6709Y5394D01*
G01X6509Y5594D01*
G01X6509Y6794D02*
G01X6509Y6794D01*
G01X6678Y6964D01*
G01X7159Y6969D01*
G01X6509Y6794D02*
G01X6509Y6884D01*
G01X6509Y7153D01*
G01X6399Y7264D01*
G01X3359Y7264D01*
G01X3039Y7584D01*
G01X2275Y7584D01*
G01X2032Y7342D01*
G54D11*
G01X6974Y6338D02*
G01X7159Y6343D01*
G01X7909Y5624D02*
G01X7909Y6338D01*
G01X7785Y6474D01*
G01X7563Y6474D01*
G01X7419Y6653D01*
G01X7159Y6653D01*
G54D33*
G01X1659Y8326D02*
G01X3226Y8326D01*
G01X3226Y8326D01*
G54D14*
G01X3226Y8326D02*
G01X3226Y8326D01*
G01X3349Y8203D01*
G01X3349Y7944D01*
G01X3360Y7934D01*
G01X2710Y6969D02*
G01X3214Y6969D01*
G01X3219Y6964D01*
G54D33*
G01X3119Y8344D02*
G01X3259Y8484D01*
G01X5580Y8484D01*
G01X5668Y8484D01*
G01X6409Y8484D01*
G01X6509Y8384D01*
G54D12*
G01X6509Y8384D02*
G01X6509Y8384D01*
G01X6509Y7934D01*
G01X6509Y7934D01*
G54D11*
G01X3359Y4153D02*
G01X3359Y3486D01*
G01X3360Y3485D01*
G54D12*
G01X5878Y3485D02*
G01X5878Y3864D01*
G01X5659Y4084D01*
G01X5059Y4084D01*
G01X4759Y4384D01*
G01X2710Y4449D02*
G01X4664Y4449D01*
G01X4719Y4394D01*
G01X6509Y8384D02*
G01X6509Y8434D01*
G01X6759Y8684D01*
G01X7073Y8684D01*
G01X7103Y8714D01*
G54D11*
G01X4619Y3494D02*
G01X4619Y3485D01*
G01X4620Y3485D01*
G54D14*
G01X6559Y4084D02*
G01X6609Y4084D01*
G01X7284Y3409D01*
G01X7359Y3484D01*
G01X8209Y4778D02*
G01X8209Y5134D01*
G01X8089Y5253D01*
G54D11*
G01X1159Y2734D02*
G01X1928Y2734D01*
G01X2059Y2603D01*
G01X3919Y2603D01*
G01X4310Y2995D01*
G01X4305Y3485D01*
G01X3989Y3484D02*
G01X3989Y3114D01*
G01X3809Y2934D01*
G01X3909Y2134D02*
G01X3909Y1984D01*
G01X3809Y1884D01*
G01X3809Y884D01*
G01X3959Y734D01*
G01X4359Y734D01*
G01X4459Y634D01*
G01X6859Y634D01*
G01X6959Y5703D02*
G01X7159Y5709D01*
G01X7359Y2634D02*
G01X7284Y2609D01*
G01X6859Y3034D01*
G01X6309Y3034D01*
G01X6189Y3153D01*
G01X6194Y3485D01*
G54D14*
G01X3667Y4449D02*
G01X3544Y4449D01*
G01X3349Y4644D01*
G01X3349Y6574D01*
G01X3609Y6834D01*
G01X8009Y3284D02*
G01X8009Y1834D01*
G01X7859Y1684D01*
G01X7309Y1684D01*
G01X7209Y1584D01*
G01X7209Y434D01*
G01X7059Y284D01*
G01X4709Y284D01*
G01X4709Y284D02*
G01X4589Y203D01*
G01X2339Y203D01*
G01X2084Y459D01*
G01X2109Y484D01*
G01X5876Y7936D02*
G01X5877Y7936D01*
G01X5879Y7933D01*
G54D34*
G01X7391Y7284D02*
G01X6926Y7284D01*
G01X7391Y6969D02*
G01X6926Y6969D01*
G01X7391Y6654D02*
G01X6926Y6654D01*
G01X7391Y6339D02*
G01X6926Y6339D01*
G01X7391Y6024D02*
G01X6926Y6024D01*
G01X7391Y5709D02*
G01X6926Y5709D01*
G01X7391Y5394D02*
G01X6926Y5394D01*
G01X7391Y5079D02*
G01X6926Y5079D01*
G01X7391Y4764D02*
G01X6926Y4764D01*
G01X7391Y4449D02*
G01X6926Y4449D01*
G01X7391Y4134D02*
G01X6926Y4134D01*
G01X6509Y3252D02*
G01X6509Y3717D01*
G01X6194Y3252D02*
G01X6194Y3717D01*
G01X5879Y3252D02*
G01X5879Y3717D01*
G01X5564Y3252D02*
G01X5564Y3717D01*
G01X5249Y3252D02*
G01X5249Y3717D01*
G01X4934Y3252D02*
G01X4934Y3717D01*
G01X4619Y3252D02*
G01X4619Y3717D01*
G01X4304Y3252D02*
G01X4304Y3717D01*
G01X3989Y3252D02*
G01X3989Y3717D01*
G01X3674Y3252D02*
G01X3674Y3717D01*
G01X3359Y3252D02*
G01X3359Y3717D01*
G01X2942Y4134D02*
G01X2477Y4134D01*
G01X2942Y4449D02*
G01X2477Y4449D01*
G01X2942Y4764D02*
G01X2477Y4764D01*
G01X2942Y5079D02*
G01X2477Y5079D01*
G01X2942Y5394D02*
G01X2477Y5394D01*
G01X2942Y5709D02*
G01X2477Y5709D01*
G01X2942Y6024D02*
G01X2477Y6024D01*
G01X2942Y6339D02*
G01X2477Y6339D01*
G01X2942Y6654D02*
G01X2477Y6654D01*
G01X2942Y6969D02*
G01X2477Y6969D01*
G01X2942Y7284D02*
G01X2477Y7284D01*
G01X3359Y7701D02*
G01X3359Y8165D01*
G01X3674Y7701D02*
G01X3674Y8165D01*
G01X3989Y7701D02*
G01X3989Y8165D01*
G01X4304Y7701D02*
G01X4304Y8165D01*
G01X4619Y7701D02*
G01X4619Y8165D01*
G01X4934Y7701D02*
G01X4934Y8165D01*
G01X5249Y7701D02*
G01X5249Y8165D01*
G01X5564Y7701D02*
G01X5564Y8165D01*
G01X5879Y7701D02*
G01X5879Y8165D01*
G01X6194Y7701D02*
G01X6194Y8165D01*
G01X6509Y7701D02*
G01X6509Y8165D01*
G54D18*
G01X5053Y1083D03*
G01X4423Y1083D03*
G01X5715Y1084D03*
G01X6345Y1084D03*
G54D35*
G01X6209Y2134D03*
G01X4595Y2134D03*
G54D36*
G01X1928Y6436D03*
G54D37*
G01X413Y6948D03*
G01X413Y3955D03*
G54D36*
G01X1928Y6042D03*
G01X1928Y5648D03*
G01X1928Y5255D03*
G01X1928Y4467D03*
G01X1928Y4861D03*
G54D26*
G01X7359Y3434D03*
G01X7359Y2634D03*
G54D18*
G01X7732Y8713D03*
G01X7103Y8713D03*
G54D21*
G01X8209Y4778D03*
G01X8209Y4148D03*
G54D30*
G01X8722Y5665D03*
G01X8722Y7571D03*
G54D16*
G01X2359Y3484D03*
G01X1159Y2734D03*
G01X1228Y6924D03*
G01X8219Y5844D03*
G01X2039Y7344D03*
G01X6974Y6334D03*
G01X7909Y5624D03*
G01X1659Y8334D03*
G01X3219Y6964D03*
G01X5876Y7936D03*
G01X3359Y4153D03*
G01X4719Y4394D03*
G01X4619Y3494D03*
G01X3809Y2934D03*
G01X3909Y2134D03*
G01X6859Y634D03*
G01X6959Y5703D03*
G01X5728Y1084D03*
G01X5059Y1064D03*
G01X6009Y5234D03*
G01X7739Y8703D03*
G01X6019Y6764D03*
G01X6209Y6584D03*
G01X2759Y514D03*
G01X1399Y1624D03*
G01X3989Y6444D03*
G01X2759Y7934D03*
G01X2469Y7934D03*
G01X3609Y6834D03*
G01X3119Y8344D03*
G01X8009Y3284D03*
G01X2109Y484D03*
G01X4709Y284D03*
G01X6509Y5594D03*
G01X6509Y6794D03*
G54D31*
G01X9607Y8039D02*
G01X9962Y8039D01*
G01X9607Y5189D02*
G01X9962Y5189D01*
M00*
M02*
