G04 ---------------------------- Layer name :TOP PASTER LAYER*
G04 EasyEDA v5.6.15, Thu, 26 Jul 2018 23:14:09 GMT*
G04 c86fb450fb884ade9fd06fb8d4d9ff78*
G04 Gerber Generator version 0.2*
G04 Scale: 100 percent, Rotated: No, Reflected: No *
G04 Dimensions in inches *
G04 leading zeros omitted , absolute positions ,2 integer and 4 decimal *
%FSLAX24Y24*%
%MOIN*%
G90*
G70D02*

%ADD10C,0.010000*%
%ADD15C,0.011024*%
%ADD17R,0.105512X0.105512*%
%ADD18R,0.039370X0.043307*%
%ADD19R,0.078740X0.017717*%
%ADD20R,0.027559X0.049213*%
%ADD21R,0.043307X0.039370*%
%ADD22R,0.071500X0.053500*%
%ADD23R,0.055100X0.051200*%
%ADD24R,0.118110X0.059055*%
%ADD25R,0.025591X0.041732*%
%ADD26R,0.057870X0.045670*%
%ADD27R,0.047244X0.047244*%
%ADD28R,0.059055X0.118110*%
%ADD29R,0.051200X0.055100*%

%LPD*%
G54D15*
G01X1776Y2474D02*
G01X1981Y2474D01*
G01X1776Y2276D02*
G01X1981Y2276D01*
G01X1776Y2080D02*
G01X1981Y2080D01*
G01X1776Y1884D02*
G01X1981Y1884D01*
G01X1776Y1687D02*
G01X1981Y1687D01*
G01X1776Y1490D02*
G01X1981Y1490D01*
G01X2219Y1256D02*
G01X2219Y1051D01*
G01X2416Y1256D02*
G01X2416Y1051D01*
G01X2613Y1256D02*
G01X2613Y1051D01*
G01X2809Y1256D02*
G01X2809Y1051D01*
G01X3005Y1256D02*
G01X3005Y1051D01*
G01X3203Y1256D02*
G01X3203Y1051D01*
G01X3436Y1494D02*
G01X3641Y1494D01*
G01X3436Y1691D02*
G01X3641Y1691D01*
G01X3436Y1888D02*
G01X3641Y1888D01*
G01X3436Y2084D02*
G01X3641Y2084D01*
G01X3436Y2280D02*
G01X3641Y2280D01*
G01X3436Y2478D02*
G01X3641Y2478D01*
G01X3209Y2926D02*
G01X3209Y2721D01*
G01X3012Y2926D02*
G01X3012Y2721D01*
G01X2815Y2926D02*
G01X2815Y2721D01*
G01X2619Y2926D02*
G01X2619Y2721D01*
G01X2422Y2926D02*
G01X2422Y2721D01*
G01X2225Y2926D02*
G01X2225Y2721D01*
G54D17*
G01X2709Y1984D03*
G54D18*
G01X2753Y484D03*
G01X2123Y484D03*
G01X4803Y1484D03*
G01X4173Y1484D03*
G01X3565Y483D03*
G01X4195Y483D03*
G01X3643Y3504D03*
G01X3013Y3504D03*
G54D19*
G01X8413Y7121D03*
G01X8413Y6865D03*
G01X8413Y6609D03*
G01X8413Y6353D03*
G01X8413Y6098D03*
G54D10*
G01X10110Y7242D03*
G01X10104Y5951D03*
G54D20*
G01X1659Y8326D03*
G01X2032Y7342D03*
G01X1285Y7342D03*
G54D21*
G01X7578Y6128D03*
G01X7578Y5498D03*
G01X7579Y6760D03*
G01X7579Y7390D03*
G01X7688Y4768D03*
G01X7688Y4138D03*
G54D22*
G01X6009Y4393D03*
G01X4719Y4393D03*
G54D23*
G01X609Y5276D03*
G01X609Y6103D03*
G54D24*
G01X9159Y2284D03*
G01X9159Y4384D03*
G01X9159Y3334D03*
G54D20*
G01X3609Y8216D03*
G01X3982Y7232D03*
G01X3235Y7232D03*
G54D25*
G01X4409Y5134D03*
G01X4782Y5134D03*
G01X5157Y5134D03*
G01X5157Y6000D03*
G01X4409Y6000D03*
G54D26*
G01X6009Y5234D03*
G01X6009Y6034D03*
G54D27*
G01X4759Y6884D03*
G01X5467Y6884D03*
G54D21*
G01X3659Y5340D03*
G01X3659Y5970D03*
G01X608Y4478D03*
G01X608Y3848D03*
G54D18*
G01X2343Y3504D03*
G01X1713Y3504D03*
G54D21*
G01X1158Y2728D03*
G01X1158Y2098D03*
G54D28*
G01X2259Y9184D03*
G54D18*
G01X7115Y8133D03*
G01X7745Y8133D03*
G54D29*
G01X1801Y4383D03*
G01X2628Y4383D03*
G54D21*
G01X559Y7240D03*
G01X559Y7870D03*
G54D28*
G01X3259Y9184D03*
M00*
M02*
