G04 ---------------------------- Layer name :TOP LAYER*
G04 EasyEDA v5.6.15, Thu, 26 Jul 2018 23:14:09 GMT*
G04 c86fb450fb884ade9fd06fb8d4d9ff78*
G04 Gerber Generator version 0.2*
G04 Scale: 100 percent, Rotated: No, Reflected: No *
G04 Dimensions in inches *
G04 leading zeros omitted , absolute positions ,2 integer and 4 decimal *
%FSLAX24Y24*%
%MOIN*%
G90*
G70D02*

%ADD10C,0.010000*%
%ADD11C,0.012000*%
%ADD12C,0.020000*%
%ADD13C,0.030000*%
%ADD14C,0.018000*%
%ADD15C,0.011024*%
%ADD16C,0.024400*%
%ADD17R,0.105512X0.105512*%
%ADD18R,0.039370X0.043307*%
%ADD19R,0.078740X0.017717*%
%ADD20R,0.027559X0.049213*%
%ADD21R,0.043307X0.039370*%
%ADD22R,0.071500X0.053500*%
%ADD23R,0.055100X0.051200*%
%ADD24R,0.118110X0.059055*%
%ADD25R,0.025591X0.041732*%
%ADD26R,0.057870X0.045670*%
%ADD27R,0.047244X0.047244*%
%ADD28R,0.059055X0.118110*%
%ADD29R,0.051200X0.055100*%
%ADD30C,0.059055*%
%ADD31C,0.051181*%

%LPD*%
G36*
G01X984Y0D02*
G01X984Y0D01*
G01X981Y0D01*
G01X953Y0D01*
G01X925Y2D01*
G01X897Y4D01*
G01X869Y7D01*
G01X841Y10D01*
G01X813Y15D01*
G01X786Y20D01*
G01X759Y26D01*
G01X731Y33D01*
G01X704Y41D01*
G01X677Y49D01*
G01X651Y58D01*
G01X625Y68D01*
G01X599Y78D01*
G01X573Y90D01*
G01X548Y102D01*
G01X523Y115D01*
G01X498Y128D01*
G01X474Y142D01*
G01X450Y157D01*
G01X427Y173D01*
G01X404Y189D01*
G01X381Y206D01*
G01X359Y223D01*
G01X338Y241D01*
G01X317Y260D01*
G01X297Y279D01*
G01X277Y299D01*
G01X258Y320D01*
G01X239Y341D01*
G01X221Y362D01*
G01X204Y384D01*
G01X187Y407D01*
G01X171Y430D01*
G01X155Y453D01*
G01X140Y477D01*
G01X126Y501D01*
G01X113Y526D01*
G01X100Y551D01*
G01X88Y576D01*
G01X77Y602D01*
G01X66Y628D01*
G01X57Y654D01*
G01X48Y681D01*
G01X39Y707D01*
G01X32Y734D01*
G01X25Y762D01*
G01X19Y789D01*
G01X14Y817D01*
G01X9Y844D01*
G01X6Y872D01*
G01X3Y900D01*
G01X1Y928D01*
G01X0Y956D01*
G01X0Y984D01*
G01X0Y8861D01*
G01X0Y8889D01*
G01X1Y8917D01*
G01X3Y8945D01*
G01X6Y8973D01*
G01X10Y9001D01*
G01X14Y9029D01*
G01X20Y9056D01*
G01X26Y9084D01*
G01X32Y9111D01*
G01X40Y9138D01*
G01X48Y9165D01*
G01X57Y9191D01*
G01X67Y9217D01*
G01X78Y9243D01*
G01X89Y9269D01*
G01X101Y9294D01*
G01X114Y9319D01*
G01X128Y9344D01*
G01X142Y9368D01*
G01X157Y9392D01*
G01X172Y9415D01*
G01X188Y9438D01*
G01X205Y9461D01*
G01X223Y9483D01*
G01X241Y9504D01*
G01X260Y9525D01*
G01X279Y9545D01*
G01X299Y9565D01*
G01X319Y9584D01*
G01X340Y9603D01*
G01X362Y9621D01*
G01X384Y9638D01*
G01X406Y9655D01*
G01X429Y9671D01*
G01X452Y9687D01*
G01X476Y9702D01*
G01X501Y9716D01*
G01X525Y9729D01*
G01X550Y9742D01*
G01X576Y9754D01*
G01X601Y9765D01*
G01X627Y9776D01*
G01X654Y9785D01*
G01X680Y9795D01*
G01X707Y9803D01*
G01X734Y9810D01*
G01X761Y9817D01*
G01X789Y9823D01*
G01X816Y9828D01*
G01X844Y9833D01*
G01X872Y9836D01*
G01X900Y9839D01*
G01X928Y9841D01*
G01X956Y9842D01*
G01X984Y9843D01*
G01X1890Y9843D01*
G01X1890Y9842D01*
G01X1887Y9839D01*
G01X1885Y9836D01*
G01X1882Y9833D01*
G01X1880Y9829D01*
G01X1878Y9826D01*
G01X1876Y9822D01*
G01X1874Y9818D01*
G01X1872Y9815D01*
G01X1870Y9811D01*
G01X1869Y9807D01*
G01X1868Y9803D01*
G01X1867Y9799D01*
G01X1866Y9795D01*
G01X1865Y9791D01*
G01X1864Y9787D01*
G01X1864Y9783D01*
G01X1864Y9779D01*
G01X1864Y9775D01*
G01X1864Y8872D01*
G01X1663Y8672D01*
G01X1521Y8672D01*
G01X1516Y8671D01*
G01X1512Y8671D01*
G01X1508Y8671D01*
G01X1504Y8670D01*
G01X1500Y8669D01*
G01X1496Y8668D01*
G01X1492Y8667D01*
G01X1488Y8666D01*
G01X1484Y8665D01*
G01X1480Y8663D01*
G01X1477Y8661D01*
G01X1473Y8659D01*
G01X1469Y8657D01*
G01X1466Y8655D01*
G01X1462Y8653D01*
G01X1459Y8650D01*
G01X1456Y8648D01*
G01X1453Y8645D01*
G01X1450Y8642D01*
G01X1447Y8639D01*
G01X1444Y8636D01*
G01X1442Y8633D01*
G01X1439Y8630D01*
G01X1437Y8626D01*
G01X1435Y8623D01*
G01X1433Y8619D01*
G01X1431Y8615D01*
G01X1429Y8612D01*
G01X1427Y8608D01*
G01X1426Y8604D01*
G01X1425Y8600D01*
G01X1424Y8596D01*
G01X1423Y8592D01*
G01X1422Y8588D01*
G01X1421Y8584D01*
G01X1421Y8580D01*
G01X1421Y8576D01*
G01X1421Y8572D01*
G01X1421Y8534D01*
G01X1365Y8534D01*
G01X1368Y8536D01*
G01X1398Y8576D01*
G01X1424Y8618D01*
G01X1445Y8663D01*
G01X1462Y8710D01*
G01X1475Y8759D01*
G01X1482Y8808D01*
G01X1485Y8858D01*
G01X1482Y8907D01*
G01X1475Y8957D01*
G01X1462Y9005D01*
G01X1445Y9052D01*
G01X1424Y9097D01*
G01X1398Y9139D01*
G01X1368Y9179D01*
G01X1334Y9216D01*
G01X1296Y9249D01*
G01X1256Y9278D01*
G01X1213Y9303D01*
G01X1167Y9323D01*
G01X1120Y9339D01*
G01X1071Y9350D01*
G01X1022Y9356D01*
G01X972Y9357D01*
G01X922Y9354D01*
G01X873Y9345D01*
G01X825Y9332D01*
G01X779Y9313D01*
G01X735Y9291D01*
G01X693Y9264D01*
G01X654Y9232D01*
G01X618Y9198D01*
G01X586Y9160D01*
G01X558Y9118D01*
G01X534Y9075D01*
G01X515Y9029D01*
G01X500Y8981D01*
G01X490Y8932D01*
G01X485Y8883D01*
G01X485Y8833D01*
G01X490Y8783D01*
G01X500Y8734D01*
G01X515Y8687D01*
G01X534Y8641D01*
G01X558Y8597D01*
G01X586Y8556D01*
G01X618Y8518D01*
G01X654Y8483D01*
G01X693Y8452D01*
G01X693Y8451D01*
G01X417Y8175D01*
G01X413Y8171D01*
G01X409Y8167D01*
G01X343Y8167D01*
G01X338Y8166D01*
G01X334Y8166D01*
G01X330Y8166D01*
G01X326Y8165D01*
G01X322Y8164D01*
G01X318Y8163D01*
G01X314Y8162D01*
G01X310Y8161D01*
G01X306Y8160D01*
G01X302Y8158D01*
G01X299Y8156D01*
G01X295Y8154D01*
G01X291Y8152D01*
G01X288Y8150D01*
G01X284Y8148D01*
G01X281Y8145D01*
G01X278Y8143D01*
G01X275Y8140D01*
G01X272Y8137D01*
G01X269Y8134D01*
G01X266Y8131D01*
G01X264Y8128D01*
G01X261Y8125D01*
G01X259Y8121D01*
G01X257Y8118D01*
G01X255Y8114D01*
G01X253Y8110D01*
G01X251Y8107D01*
G01X249Y8103D01*
G01X248Y8099D01*
G01X247Y8095D01*
G01X246Y8091D01*
G01X245Y8087D01*
G01X244Y8083D01*
G01X243Y8079D01*
G01X243Y8075D01*
G01X243Y8071D01*
G01X243Y8067D01*
G01X243Y7673D01*
G01X243Y7668D01*
G01X243Y7664D01*
G01X243Y7660D01*
G01X244Y7656D01*
G01X245Y7652D01*
G01X246Y7648D01*
G01X247Y7644D01*
G01X248Y7640D01*
G01X249Y7636D01*
G01X251Y7632D01*
G01X253Y7629D01*
G01X255Y7625D01*
G01X257Y7621D01*
G01X259Y7618D01*
G01X261Y7614D01*
G01X264Y7611D01*
G01X266Y7608D01*
G01X269Y7605D01*
G01X272Y7602D01*
G01X275Y7599D01*
G01X278Y7596D01*
G01X281Y7594D01*
G01X284Y7591D01*
G01X288Y7589D01*
G01X291Y7587D01*
G01X295Y7585D01*
G01X299Y7583D01*
G01X302Y7581D01*
G01X306Y7579D01*
G01X310Y7578D01*
G01X314Y7577D01*
G01X318Y7576D01*
G01X322Y7575D01*
G01X326Y7574D01*
G01X330Y7573D01*
G01X334Y7573D01*
G01X338Y7573D01*
G01X343Y7573D01*
G01X776Y7573D01*
G01X780Y7573D01*
G01X784Y7573D01*
G01X788Y7573D01*
G01X792Y7574D01*
G01X796Y7575D01*
G01X800Y7576D01*
G01X804Y7577D01*
G01X808Y7578D01*
G01X812Y7579D01*
G01X816Y7581D01*
G01X819Y7583D01*
G01X823Y7585D01*
G01X827Y7587D01*
G01X830Y7589D01*
G01X834Y7591D01*
G01X837Y7594D01*
G01X840Y7596D01*
G01X843Y7599D01*
G01X846Y7602D01*
G01X849Y7605D01*
G01X852Y7608D01*
G01X854Y7611D01*
G01X857Y7614D01*
G01X859Y7618D01*
G01X861Y7621D01*
G01X863Y7625D01*
G01X865Y7629D01*
G01X867Y7632D01*
G01X869Y7636D01*
G01X870Y7640D01*
G01X871Y7644D01*
G01X872Y7648D01*
G01X873Y7652D01*
G01X874Y7656D01*
G01X875Y7660D01*
G01X875Y7664D01*
G01X875Y7668D01*
G01X876Y7673D01*
G01X876Y8067D01*
G01X875Y8068D01*
G01X941Y8134D01*
G01X1421Y8134D01*
G01X1421Y8080D01*
G01X1421Y8075D01*
G01X1421Y8071D01*
G01X1421Y8067D01*
G01X1422Y8063D01*
G01X1423Y8059D01*
G01X1424Y8055D01*
G01X1425Y8051D01*
G01X1426Y8047D01*
G01X1427Y8043D01*
G01X1429Y8039D01*
G01X1431Y8036D01*
G01X1433Y8032D01*
G01X1435Y8028D01*
G01X1437Y8025D01*
G01X1439Y8021D01*
G01X1442Y8018D01*
G01X1444Y8015D01*
G01X1447Y8012D01*
G01X1450Y8009D01*
G01X1453Y8006D01*
G01X1456Y8003D01*
G01X1459Y8001D01*
G01X1462Y7998D01*
G01X1466Y7996D01*
G01X1469Y7994D01*
G01X1473Y7992D01*
G01X1477Y7990D01*
G01X1480Y7988D01*
G01X1484Y7986D01*
G01X1488Y7985D01*
G01X1492Y7984D01*
G01X1496Y7983D01*
G01X1500Y7982D01*
G01X1504Y7981D01*
G01X1508Y7980D01*
G01X1512Y7980D01*
G01X1516Y7980D01*
G01X1521Y7980D01*
G01X1797Y7980D01*
G01X1801Y7980D01*
G01X1805Y7980D01*
G01X1809Y7980D01*
G01X1813Y7981D01*
G01X1817Y7982D01*
G01X1821Y7983D01*
G01X1825Y7984D01*
G01X1829Y7985D01*
G01X1833Y7986D01*
G01X1837Y7988D01*
G01X1840Y7990D01*
G01X1844Y7992D01*
G01X1848Y7994D01*
G01X1851Y7996D01*
G01X1855Y7998D01*
G01X1858Y8001D01*
G01X1861Y8003D01*
G01X1864Y8006D01*
G01X1867Y8009D01*
G01X1870Y8012D01*
G01X1873Y8015D01*
G01X1875Y8018D01*
G01X1878Y8021D01*
G01X1880Y8025D01*
G01X1882Y8028D01*
G01X1884Y8032D01*
G01X1886Y8036D01*
G01X1888Y8039D01*
G01X1890Y8043D01*
G01X1891Y8047D01*
G01X1892Y8051D01*
G01X1893Y8055D01*
G01X1894Y8059D01*
G01X1895Y8063D01*
G01X1896Y8067D01*
G01X1896Y8071D01*
G01X1896Y8075D01*
G01X1897Y8080D01*
G01X1897Y8198D01*
G01X2191Y8493D01*
G01X2553Y8493D01*
G01X2558Y8493D01*
G01X2562Y8493D01*
G01X2566Y8493D01*
G01X2570Y8494D01*
G01X2574Y8495D01*
G01X2578Y8496D01*
G01X2582Y8497D01*
G01X2586Y8498D01*
G01X2590Y8499D01*
G01X2594Y8501D01*
G01X2597Y8503D01*
G01X2601Y8505D01*
G01X2605Y8507D01*
G01X2608Y8509D01*
G01X2612Y8511D01*
G01X2615Y8514D01*
G01X2618Y8516D01*
G01X2621Y8519D01*
G01X2624Y8522D01*
G01X2627Y8525D01*
G01X2630Y8528D01*
G01X2632Y8531D01*
G01X2635Y8534D01*
G01X2637Y8538D01*
G01X2639Y8541D01*
G01X2641Y8545D01*
G01X2643Y8549D01*
G01X2645Y8552D01*
G01X2647Y8556D01*
G01X2648Y8560D01*
G01X2649Y8564D01*
G01X2650Y8568D01*
G01X2651Y8572D01*
G01X2652Y8576D01*
G01X2653Y8580D01*
G01X2653Y8584D01*
G01X2653Y8588D01*
G01X2653Y8593D01*
G01X2653Y9775D01*
G01X2653Y9779D01*
G01X2653Y9783D01*
G01X2653Y9787D01*
G01X2652Y9791D01*
G01X2651Y9795D01*
G01X2650Y9799D01*
G01X2649Y9803D01*
G01X2648Y9807D01*
G01X2647Y9811D01*
G01X2645Y9815D01*
G01X2643Y9818D01*
G01X2641Y9822D01*
G01X2639Y9826D01*
G01X2637Y9829D01*
G01X2635Y9833D01*
G01X2632Y9836D01*
G01X2630Y9839D01*
G01X2627Y9842D01*
G01X2627Y9843D01*
G01X2890Y9843D01*
G01X2890Y9842D01*
G01X2887Y9839D01*
G01X2884Y9835D01*
G01X2882Y9832D01*
G01X2880Y9829D01*
G01X2877Y9825D01*
G01X2875Y9822D01*
G01X2873Y9818D01*
G01X2872Y9814D01*
G01X2870Y9810D01*
G01X2869Y9807D01*
G01X2867Y9803D01*
G01X2866Y9799D01*
G01X2865Y9795D01*
G01X2865Y9791D01*
G01X2864Y9786D01*
G01X2864Y9782D01*
G01X2863Y9778D01*
G01X2863Y9774D01*
G01X2863Y8593D01*
G01X2863Y8589D01*
G01X2864Y8585D01*
G01X2864Y8581D01*
G01X2865Y8576D01*
G01X2865Y8572D01*
G01X2866Y8568D01*
G01X2867Y8564D01*
G01X2869Y8560D01*
G01X2870Y8557D01*
G01X2872Y8553D01*
G01X2873Y8549D01*
G01X2875Y8545D01*
G01X2877Y8542D01*
G01X2880Y8538D01*
G01X2882Y8535D01*
G01X2884Y8532D01*
G01X2887Y8528D01*
G01X2890Y8525D01*
G01X2893Y8522D01*
G01X2896Y8519D01*
G01X2899Y8517D01*
G01X2902Y8514D01*
G01X2905Y8512D01*
G01X2909Y8509D01*
G01X2912Y8507D01*
G01X2916Y8505D01*
G01X2919Y8503D01*
G01X2923Y8501D01*
G01X2927Y8500D01*
G01X2931Y8498D01*
G01X2935Y8497D01*
G01X2939Y8496D01*
G01X2943Y8495D01*
G01X2947Y8494D01*
G01X2951Y8494D01*
G01X2955Y8493D01*
G01X2942Y8478D01*
G01X2929Y8459D01*
G01X2918Y8440D01*
G01X2910Y8419D01*
G01X2903Y8398D01*
G01X2899Y8377D01*
G01X2897Y8355D01*
G01X2897Y8332D01*
G01X2899Y8310D01*
G01X2903Y8289D01*
G01X2910Y8268D01*
G01X2918Y8247D01*
G01X2928Y8229D01*
G01X2928Y7974D01*
G01X2929Y7968D01*
G01X2929Y7962D01*
G01X2929Y7956D01*
G01X2930Y7951D01*
G01X2931Y7945D01*
G01X2932Y7939D01*
G01X2933Y7934D01*
G01X2934Y7928D01*
G01X2935Y7922D01*
G01X2937Y7917D01*
G01X2939Y7912D01*
G01X2941Y7906D01*
G01X2943Y7901D01*
G01X2945Y7896D01*
G01X2948Y7890D01*
G01X2950Y7885D01*
G01X2953Y7880D01*
G01X2956Y7875D01*
G01X2959Y7870D01*
G01X2962Y7866D01*
G01X2965Y7861D01*
G01X2969Y7856D01*
G01X2973Y7852D01*
G01X2976Y7848D01*
G01X2980Y7843D01*
G01X2984Y7839D01*
G01X3246Y7578D01*
G01X3097Y7578D01*
G01X3092Y7577D01*
G01X3088Y7577D01*
G01X3084Y7577D01*
G01X3080Y7576D01*
G01X3076Y7575D01*
G01X3072Y7574D01*
G01X3068Y7573D01*
G01X3064Y7572D01*
G01X3060Y7571D01*
G01X3056Y7569D01*
G01X3053Y7567D01*
G01X3049Y7565D01*
G01X3045Y7563D01*
G01X3042Y7561D01*
G01X3038Y7559D01*
G01X3035Y7556D01*
G01X3032Y7554D01*
G01X3029Y7551D01*
G01X3026Y7548D01*
G01X3023Y7545D01*
G01X3020Y7542D01*
G01X3018Y7539D01*
G01X3015Y7536D01*
G01X3013Y7532D01*
G01X3011Y7529D01*
G01X3009Y7525D01*
G01X3007Y7521D01*
G01X3005Y7518D01*
G01X3003Y7514D01*
G01X3002Y7510D01*
G01X3001Y7506D01*
G01X3000Y7502D01*
G01X2999Y7498D01*
G01X2998Y7494D01*
G01X2997Y7490D01*
G01X2997Y7486D01*
G01X2997Y7482D01*
G01X2997Y7478D01*
G01X2997Y6986D01*
G01X2997Y6981D01*
G01X2997Y6977D01*
G01X2997Y6976D01*
G01X2997Y6975D01*
G01X2997Y6952D01*
G01X2999Y6930D01*
G01X3003Y6909D01*
G01X3010Y6888D01*
G01X3018Y6867D01*
G01X3029Y6848D01*
G01X3042Y6829D01*
G01X3056Y6813D01*
G01X3072Y6797D01*
G01X3089Y6783D01*
G01X3107Y6771D01*
G01X3127Y6761D01*
G01X3148Y6753D01*
G01X3169Y6747D01*
G01X3191Y6743D01*
G01X3213Y6742D01*
G01X3235Y6742D01*
G01X3257Y6745D01*
G01X3279Y6750D01*
G01X3300Y6757D01*
G01X3320Y6766D01*
G01X3339Y6777D01*
G01X3357Y6790D01*
G01X3374Y6805D01*
G01X3387Y6819D01*
G01X3389Y6800D01*
G01X3393Y6779D01*
G01X3400Y6758D01*
G01X3408Y6737D01*
G01X3419Y6718D01*
G01X3432Y6699D01*
G01X3446Y6682D01*
G01X3462Y6667D01*
G01X3479Y6653D01*
G01X3498Y6641D01*
G01X3517Y6631D01*
G01X3538Y6623D01*
G01X3559Y6617D01*
G01X3581Y6613D01*
G01X3603Y6612D01*
G01X3625Y6612D01*
G01X3647Y6615D01*
G01X3669Y6620D01*
G01X3690Y6627D01*
G01X3710Y6636D01*
G01X3729Y6647D01*
G01X3747Y6660D01*
G01X3764Y6675D01*
G01X3779Y6691D01*
G01X3792Y6708D01*
G01X3803Y6727D01*
G01X3813Y6747D01*
G01X3821Y6768D01*
G01X3826Y6790D01*
G01X3829Y6811D01*
G01X3830Y6834D01*
G01X3829Y6856D01*
G01X3826Y6877D01*
G01X3823Y6888D01*
G01X3824Y6888D01*
G01X3828Y6887D01*
G01X3832Y6886D01*
G01X3836Y6886D01*
G01X3840Y6886D01*
G01X3845Y6886D01*
G01X3914Y6886D01*
G01X3914Y7108D01*
G01X3799Y7108D01*
G01X3799Y7355D01*
G01X3914Y7355D01*
G01X3914Y7578D01*
G01X3845Y7578D01*
G01X3840Y7577D01*
G01X3836Y7577D01*
G01X3832Y7577D01*
G01X3828Y7576D01*
G01X3824Y7575D01*
G01X3820Y7574D01*
G01X3816Y7573D01*
G01X3812Y7572D01*
G01X3808Y7571D01*
G01X3804Y7569D01*
G01X3801Y7567D01*
G01X3797Y7565D01*
G01X3793Y7563D01*
G01X3790Y7561D01*
G01X3786Y7559D01*
G01X3784Y7557D01*
G01X3782Y7561D01*
G01X3779Y7567D01*
G01X3777Y7572D01*
G01X3774Y7577D01*
G01X3771Y7582D01*
G01X3768Y7587D01*
G01X3765Y7591D01*
G01X3762Y7596D01*
G01X3758Y7601D01*
G01X3754Y7605D01*
G01X3751Y7609D01*
G01X3747Y7614D01*
G01X3743Y7618D01*
G01X3491Y7870D01*
G01X3747Y7870D01*
G01X3751Y7870D01*
G01X3755Y7870D01*
G01X3759Y7870D01*
G01X3763Y7871D01*
G01X3767Y7872D01*
G01X3771Y7873D01*
G01X3775Y7874D01*
G01X3779Y7875D01*
G01X3783Y7876D01*
G01X3787Y7878D01*
G01X3790Y7880D01*
G01X3794Y7882D01*
G01X3798Y7884D01*
G01X3801Y7886D01*
G01X3805Y7888D01*
G01X3808Y7891D01*
G01X3811Y7893D01*
G01X3814Y7896D01*
G01X3817Y7899D01*
G01X3820Y7902D01*
G01X3823Y7905D01*
G01X3825Y7908D01*
G01X3828Y7911D01*
G01X3830Y7915D01*
G01X3832Y7918D01*
G01X3834Y7922D01*
G01X3836Y7926D01*
G01X3838Y7929D01*
G01X3840Y7933D01*
G01X3841Y7937D01*
G01X3842Y7941D01*
G01X3843Y7945D01*
G01X3844Y7949D01*
G01X3845Y7953D01*
G01X3846Y7957D01*
G01X3846Y7961D01*
G01X3846Y7965D01*
G01X3847Y7970D01*
G01X3847Y8462D01*
G01X3846Y8466D01*
G01X3846Y8470D01*
G01X3846Y8474D01*
G01X3845Y8478D01*
G01X3844Y8482D01*
G01X3843Y8486D01*
G01X3842Y8490D01*
G01X3841Y8494D01*
G01X3840Y8498D01*
G01X3838Y8502D01*
G01X3836Y8505D01*
G01X3834Y8509D01*
G01X3832Y8513D01*
G01X3830Y8516D01*
G01X3828Y8520D01*
G01X3825Y8523D01*
G01X3823Y8526D01*
G01X3820Y8529D01*
G01X3817Y8532D01*
G01X3814Y8535D01*
G01X3811Y8538D01*
G01X3808Y8540D01*
G01X3805Y8543D01*
G01X3801Y8545D01*
G01X3801Y8707D01*
G01X3801Y8713D01*
G01X3801Y8719D01*
G01X3801Y8725D01*
G01X3800Y8730D01*
G01X3799Y8736D01*
G01X3798Y8742D01*
G01X3797Y8747D01*
G01X3796Y8753D01*
G01X3795Y8759D01*
G01X3793Y8764D01*
G01X3791Y8769D01*
G01X3789Y8775D01*
G01X3787Y8780D01*
G01X3785Y8785D01*
G01X3782Y8791D01*
G01X3780Y8796D01*
G01X3777Y8801D01*
G01X3774Y8806D01*
G01X3771Y8811D01*
G01X3768Y8815D01*
G01X3765Y8820D01*
G01X3761Y8825D01*
G01X3757Y8829D01*
G01X3754Y8833D01*
G01X3750Y8838D01*
G01X3746Y8842D01*
G01X3654Y8934D01*
G01X3654Y9774D01*
G01X3654Y9778D01*
G01X3653Y9782D01*
G01X3653Y9786D01*
G01X3652Y9791D01*
G01X3652Y9795D01*
G01X3651Y9799D01*
G01X3650Y9803D01*
G01X3648Y9807D01*
G01X3647Y9810D01*
G01X3645Y9814D01*
G01X3644Y9818D01*
G01X3642Y9822D01*
G01X3640Y9825D01*
G01X3638Y9829D01*
G01X3635Y9832D01*
G01X3633Y9835D01*
G01X3630Y9839D01*
G01X3627Y9842D01*
G01X3627Y9843D01*
G01X8861Y9843D01*
G01X8889Y9842D01*
G01X8917Y9841D01*
G01X8945Y9839D01*
G01X8973Y9836D01*
G01X9000Y9832D01*
G01X9028Y9828D01*
G01X9056Y9822D01*
G01X9083Y9816D01*
G01X9110Y9810D01*
G01X9137Y9802D01*
G01X9164Y9794D01*
G01X9191Y9785D01*
G01X9217Y9775D01*
G01X9243Y9764D01*
G01X9268Y9753D01*
G01X9294Y9741D01*
G01X9319Y9728D01*
G01X9343Y9714D01*
G01X9368Y9700D01*
G01X9391Y9685D01*
G01X9415Y9670D01*
G01X9438Y9654D01*
G01X9460Y9637D01*
G01X9482Y9619D01*
G01X9503Y9601D01*
G01X9524Y9582D01*
G01X9545Y9563D01*
G01X9565Y9543D01*
G01X9584Y9523D01*
G01X9602Y9502D01*
G01X9620Y9480D01*
G01X9638Y9458D01*
G01X9655Y9436D01*
G01X9671Y9413D01*
G01X9686Y9390D01*
G01X9701Y9366D01*
G01X9715Y9341D01*
G01X9729Y9317D01*
G01X9741Y9292D01*
G01X9753Y9266D01*
G01X9765Y9241D01*
G01X9775Y9215D01*
G01X9785Y9188D01*
G01X9794Y9162D01*
G01X9802Y9135D01*
G01X9810Y9108D01*
G01X9817Y9081D01*
G01X9822Y9053D01*
G01X9828Y9026D01*
G01X9832Y8998D01*
G01X9836Y8970D01*
G01X9838Y8942D01*
G01X9840Y8914D01*
G01X9842Y8886D01*
G01X9842Y8858D01*
G01X9843Y8859D01*
G01X9843Y8394D01*
G01X9607Y8394D01*
G01X9605Y8394D01*
G01X9592Y8394D01*
G01X9587Y8394D01*
G01X9574Y8393D01*
G01X9569Y8392D01*
G01X9557Y8391D01*
G01X9552Y8390D01*
G01X9539Y8388D01*
G01X9534Y8387D01*
G01X9522Y8384D01*
G01X9517Y8383D01*
G01X9505Y8379D01*
G01X9500Y8378D01*
G01X9488Y8374D01*
G01X9483Y8372D01*
G01X9471Y8367D01*
G01X9467Y8366D01*
G01X9455Y8360D01*
G01X9451Y8358D01*
G01X9439Y8352D01*
G01X9435Y8350D01*
G01X9424Y8343D01*
G01X9420Y8341D01*
G01X9409Y8334D01*
G01X9405Y8331D01*
G01X9394Y8324D01*
G01X9391Y8321D01*
G01X9381Y8313D01*
G01X9377Y8310D01*
G01X9367Y8301D01*
G01X9363Y8298D01*
G01X9354Y8289D01*
G01X9351Y8285D01*
G01X9342Y8276D01*
G01X9339Y8272D01*
G01X9331Y8262D01*
G01X9328Y8258D01*
G01X9320Y8248D01*
G01X9317Y8244D01*
G01X9310Y8234D01*
G01X9307Y8229D01*
G01X9300Y8219D01*
G01X9298Y8214D01*
G01X9292Y8203D01*
G01X9289Y8199D01*
G01X9284Y8187D01*
G01X9282Y8183D01*
G01X9277Y8171D01*
G01X9275Y8166D01*
G01X9271Y8154D01*
G01X9269Y8150D01*
G01X9265Y8137D01*
G01X9264Y8132D01*
G01X9261Y8120D01*
G01X9260Y8115D01*
G01X9257Y8103D01*
G01X9256Y8098D01*
G01X9255Y8085D01*
G01X9254Y8080D01*
G01X9253Y8068D01*
G01X9252Y8063D01*
G01X9252Y8050D01*
G01X9252Y8045D01*
G01X9252Y8032D01*
G01X9252Y8027D01*
G01X9252Y8014D01*
G01X9253Y8009D01*
G01X9254Y7997D01*
G01X9255Y7992D01*
G01X9256Y7979D01*
G01X9257Y7974D01*
G01X9260Y7962D01*
G01X9261Y7957D01*
G01X9264Y7945D01*
G01X9265Y7940D01*
G01X9269Y7927D01*
G01X9271Y7923D01*
G01X9275Y7911D01*
G01X9277Y7906D01*
G01X9282Y7894D01*
G01X9284Y7890D01*
G01X9289Y7878D01*
G01X9292Y7874D01*
G01X9298Y7863D01*
G01X9300Y7858D01*
G01X9307Y7848D01*
G01X9310Y7843D01*
G01X9317Y7833D01*
G01X9320Y7829D01*
G01X9328Y7819D01*
G01X9331Y7815D01*
G01X9339Y7805D01*
G01X9342Y7801D01*
G01X9351Y7792D01*
G01X9354Y7788D01*
G01X9363Y7779D01*
G01X9367Y7776D01*
G01X9377Y7767D01*
G01X9381Y7764D01*
G01X9391Y7756D01*
G01X9394Y7753D01*
G01X9405Y7746D01*
G01X9409Y7743D01*
G01X9420Y7736D01*
G01X9424Y7734D01*
G01X9435Y7727D01*
G01X9439Y7725D01*
G01X9451Y7719D01*
G01X9455Y7717D01*
G01X9467Y7712D01*
G01X9471Y7710D01*
G01X9483Y7705D01*
G01X9488Y7703D01*
G01X9500Y7699D01*
G01X9505Y7698D01*
G01X9517Y7694D01*
G01X9522Y7693D01*
G01X9534Y7690D01*
G01X9539Y7689D01*
G01X9552Y7687D01*
G01X9557Y7686D01*
G01X9569Y7685D01*
G01X9574Y7684D01*
G01X9587Y7683D01*
G01X9592Y7683D01*
G01X9605Y7683D01*
G01X9607Y7683D01*
G01X9962Y7683D01*
G01X9964Y7683D01*
G01X9977Y7683D01*
G01X9982Y7683D01*
G01X9995Y7684D01*
G01X10000Y7685D01*
G01X10012Y7686D01*
G01X10017Y7687D01*
G01X10030Y7689D01*
G01X10035Y7690D01*
G01X10047Y7693D01*
G01X10052Y7694D01*
G01X10064Y7698D01*
G01X10069Y7699D01*
G01X10081Y7703D01*
G01X10086Y7705D01*
G01X10098Y7710D01*
G01X10102Y7712D01*
G01X10114Y7717D01*
G01X10118Y7719D01*
G01X10130Y7725D01*
G01X10134Y7727D01*
G01X10145Y7734D01*
G01X10149Y7736D01*
G01X10160Y7743D01*
G01X10164Y7746D01*
G01X10175Y7753D01*
G01X10178Y7756D01*
G01X10188Y7764D01*
G01X10192Y7767D01*
G01X10202Y7776D01*
G01X10206Y7779D01*
G01X10215Y7788D01*
G01X10218Y7792D01*
G01X10227Y7801D01*
G01X10230Y7805D01*
G01X10238Y7815D01*
G01X10241Y7819D01*
G01X10249Y7829D01*
G01X10252Y7833D01*
G01X10259Y7843D01*
G01X10262Y7848D01*
G01X10269Y7858D01*
G01X10271Y7863D01*
G01X10277Y7874D01*
G01X10280Y7878D01*
G01X10285Y7890D01*
G01X10287Y7894D01*
G01X10292Y7906D01*
G01X10294Y7911D01*
G01X10298Y7923D01*
G01X10300Y7927D01*
G01X10304Y7940D01*
G01X10305Y7945D01*
G01X10308Y7957D01*
G01X10309Y7962D01*
G01X10312Y7974D01*
G01X10313Y7979D01*
G01X10314Y7992D01*
G01X10315Y7997D01*
G01X10316Y8009D01*
G01X10317Y8014D01*
G01X10317Y8027D01*
G01X10318Y8032D01*
G01X10318Y8045D01*
G01X10317Y8050D01*
G01X10317Y8063D01*
G01X10316Y8068D01*
G01X10315Y8080D01*
G01X10314Y8085D01*
G01X10313Y8098D01*
G01X10312Y8103D01*
G01X10309Y8115D01*
G01X10308Y8120D01*
G01X10305Y8132D01*
G01X10304Y8137D01*
G01X10300Y8150D01*
G01X10298Y8154D01*
G01X10294Y8166D01*
G01X10292Y8171D01*
G01X10287Y8183D01*
G01X10285Y8187D01*
G01X10280Y8199D01*
G01X10277Y8203D01*
G01X10271Y8214D01*
G01X10269Y8219D01*
G01X10262Y8229D01*
G01X10259Y8234D01*
G01X10252Y8244D01*
G01X10249Y8248D01*
G01X10241Y8258D01*
G01X10238Y8262D01*
G01X10230Y8272D01*
G01X10227Y8276D01*
G01X10218Y8285D01*
G01X10215Y8289D01*
G01X10206Y8298D01*
G01X10202Y8301D01*
G01X10192Y8310D01*
G01X10188Y8313D01*
G01X10178Y8321D01*
G01X10175Y8324D01*
G01X10164Y8331D01*
G01X10160Y8334D01*
G01X10149Y8341D01*
G01X10145Y8343D01*
G01X10134Y8350D01*
G01X10130Y8352D01*
G01X10118Y8358D01*
G01X10114Y8360D01*
G01X10103Y8365D01*
G01X10459Y8365D01*
G01X10456Y4864D01*
G01X10104Y4862D01*
G01X10114Y4867D01*
G01X10118Y4869D01*
G01X10130Y4875D01*
G01X10134Y4877D01*
G01X10145Y4884D01*
G01X10149Y4886D01*
G01X10160Y4893D01*
G01X10164Y4896D01*
G01X10175Y4903D01*
G01X10178Y4906D01*
G01X10188Y4914D01*
G01X10192Y4917D01*
G01X10202Y4926D01*
G01X10206Y4929D01*
G01X10215Y4938D01*
G01X10218Y4942D01*
G01X10227Y4951D01*
G01X10230Y4955D01*
G01X10238Y4965D01*
G01X10241Y4969D01*
G01X10249Y4979D01*
G01X10252Y4983D01*
G01X10259Y4993D01*
G01X10262Y4998D01*
G01X10269Y5008D01*
G01X10271Y5013D01*
G01X10277Y5024D01*
G01X10280Y5028D01*
G01X10285Y5040D01*
G01X10287Y5044D01*
G01X10292Y5056D01*
G01X10294Y5061D01*
G01X10298Y5073D01*
G01X10300Y5077D01*
G01X10304Y5090D01*
G01X10305Y5095D01*
G01X10308Y5107D01*
G01X10309Y5112D01*
G01X10312Y5124D01*
G01X10313Y5129D01*
G01X10314Y5142D01*
G01X10315Y5147D01*
G01X10316Y5159D01*
G01X10317Y5164D01*
G01X10317Y5177D01*
G01X10318Y5182D01*
G01X10318Y5195D01*
G01X10317Y5200D01*
G01X10317Y5213D01*
G01X10316Y5218D01*
G01X10315Y5230D01*
G01X10314Y5235D01*
G01X10313Y5248D01*
G01X10312Y5253D01*
G01X10309Y5265D01*
G01X10308Y5270D01*
G01X10305Y5282D01*
G01X10304Y5287D01*
G01X10300Y5300D01*
G01X10298Y5304D01*
G01X10294Y5316D01*
G01X10292Y5321D01*
G01X10287Y5333D01*
G01X10285Y5337D01*
G01X10280Y5349D01*
G01X10277Y5353D01*
G01X10271Y5364D01*
G01X10269Y5369D01*
G01X10262Y5379D01*
G01X10259Y5384D01*
G01X10252Y5394D01*
G01X10249Y5398D01*
G01X10241Y5408D01*
G01X10238Y5412D01*
G01X10230Y5422D01*
G01X10227Y5426D01*
G01X10218Y5435D01*
G01X10215Y5439D01*
G01X10206Y5448D01*
G01X10202Y5451D01*
G01X10192Y5460D01*
G01X10188Y5463D01*
G01X10178Y5471D01*
G01X10175Y5474D01*
G01X10164Y5481D01*
G01X10160Y5484D01*
G01X10149Y5491D01*
G01X10145Y5493D01*
G01X10134Y5500D01*
G01X10130Y5502D01*
G01X10118Y5508D01*
G01X10114Y5510D01*
G01X10102Y5516D01*
G01X10098Y5517D01*
G01X10086Y5522D01*
G01X10081Y5524D01*
G01X10069Y5528D01*
G01X10064Y5529D01*
G01X10052Y5533D01*
G01X10047Y5534D01*
G01X10035Y5537D01*
G01X10030Y5538D01*
G01X10017Y5540D01*
G01X10012Y5541D01*
G01X10000Y5542D01*
G01X9995Y5543D01*
G01X9982Y5544D01*
G01X9977Y5544D01*
G01X9964Y5544D01*
G01X9962Y5544D01*
G01X9607Y5544D01*
G01X9605Y5544D01*
G01X9592Y5544D01*
G01X9587Y5544D01*
G01X9574Y5543D01*
G01X9569Y5542D01*
G01X9557Y5541D01*
G01X9552Y5540D01*
G01X9539Y5538D01*
G01X9534Y5537D01*
G01X9522Y5534D01*
G01X9517Y5533D01*
G01X9505Y5529D01*
G01X9500Y5528D01*
G01X9488Y5524D01*
G01X9483Y5522D01*
G01X9471Y5517D01*
G01X9467Y5516D01*
G01X9455Y5510D01*
G01X9451Y5508D01*
G01X9439Y5502D01*
G01X9435Y5500D01*
G01X9424Y5493D01*
G01X9420Y5491D01*
G01X9409Y5484D01*
G01X9405Y5481D01*
G01X9394Y5474D01*
G01X9391Y5471D01*
G01X9381Y5463D01*
G01X9377Y5460D01*
G01X9367Y5451D01*
G01X9363Y5448D01*
G01X9354Y5439D01*
G01X9351Y5435D01*
G01X9342Y5426D01*
G01X9339Y5422D01*
G01X9331Y5412D01*
G01X9328Y5408D01*
G01X9320Y5398D01*
G01X9317Y5394D01*
G01X9310Y5384D01*
G01X9307Y5379D01*
G01X9300Y5369D01*
G01X9298Y5364D01*
G01X9292Y5353D01*
G01X9289Y5349D01*
G01X9284Y5337D01*
G01X9282Y5333D01*
G01X9277Y5321D01*
G01X9275Y5316D01*
G01X9271Y5304D01*
G01X9269Y5300D01*
G01X9265Y5287D01*
G01X9264Y5282D01*
G01X9261Y5270D01*
G01X9260Y5265D01*
G01X9257Y5253D01*
G01X9256Y5248D01*
G01X9255Y5235D01*
G01X9254Y5230D01*
G01X9253Y5218D01*
G01X9252Y5213D01*
G01X9252Y5200D01*
G01X9252Y5195D01*
G01X9252Y5182D01*
G01X9252Y5177D01*
G01X9252Y5164D01*
G01X9253Y5159D01*
G01X9254Y5147D01*
G01X9255Y5142D01*
G01X9256Y5129D01*
G01X9257Y5124D01*
G01X9260Y5112D01*
G01X9261Y5107D01*
G01X9264Y5095D01*
G01X9265Y5090D01*
G01X9269Y5077D01*
G01X9271Y5073D01*
G01X9275Y5061D01*
G01X9277Y5056D01*
G01X9282Y5044D01*
G01X9284Y5040D01*
G01X9289Y5028D01*
G01X9292Y5024D01*
G01X9298Y5013D01*
G01X9300Y5008D01*
G01X9307Y4998D01*
G01X9310Y4993D01*
G01X9317Y4983D01*
G01X9320Y4979D01*
G01X9328Y4969D01*
G01X9331Y4965D01*
G01X9339Y4955D01*
G01X9342Y4951D01*
G01X9351Y4942D01*
G01X9354Y4938D01*
G01X9363Y4929D01*
G01X9367Y4926D01*
G01X9377Y4917D01*
G01X9381Y4914D01*
G01X9391Y4906D01*
G01X9394Y4903D01*
G01X9405Y4896D01*
G01X9409Y4893D01*
G01X9420Y4886D01*
G01X9424Y4884D01*
G01X9435Y4877D01*
G01X9439Y4875D01*
G01X9451Y4869D01*
G01X9455Y4867D01*
G01X9467Y4862D01*
G01X9471Y4860D01*
G01X9483Y4855D01*
G01X9488Y4853D01*
G01X9500Y4849D01*
G01X9505Y4848D01*
G01X9517Y4844D01*
G01X9522Y4843D01*
G01X9534Y4840D01*
G01X9539Y4839D01*
G01X9552Y4837D01*
G01X9557Y4836D01*
G01X9569Y4835D01*
G01X9574Y4834D01*
G01X9587Y4833D01*
G01X9592Y4833D01*
G01X9605Y4833D01*
G01X9607Y4833D01*
G01X9843Y4833D01*
G01X9843Y4715D01*
G01X9841Y4719D01*
G01X9839Y4722D01*
G01X9837Y4726D01*
G01X9835Y4730D01*
G01X9833Y4733D01*
G01X9831Y4737D01*
G01X9828Y4740D01*
G01X9826Y4743D01*
G01X9823Y4746D01*
G01X9820Y4749D01*
G01X9817Y4752D01*
G01X9814Y4755D01*
G01X9811Y4757D01*
G01X9808Y4760D01*
G01X9804Y4762D01*
G01X9801Y4764D01*
G01X9797Y4766D01*
G01X9793Y4768D01*
G01X9790Y4770D01*
G01X9786Y4772D01*
G01X9782Y4773D01*
G01X9778Y4774D01*
G01X9774Y4775D01*
G01X9770Y4776D01*
G01X9766Y4777D01*
G01X9762Y4778D01*
G01X9758Y4778D01*
G01X9754Y4778D01*
G01X9750Y4778D01*
G01X8568Y4778D01*
G01X8563Y4778D01*
G01X8559Y4778D01*
G01X8555Y4778D01*
G01X8551Y4777D01*
G01X8547Y4776D01*
G01X8543Y4775D01*
G01X8539Y4774D01*
G01X8535Y4773D01*
G01X8531Y4772D01*
G01X8527Y4770D01*
G01X8524Y4768D01*
G01X8520Y4766D01*
G01X8516Y4764D01*
G01X8513Y4762D01*
G01X8509Y4760D01*
G01X8506Y4757D01*
G01X8503Y4755D01*
G01X8500Y4752D01*
G01X8497Y4749D01*
G01X8494Y4746D01*
G01X8491Y4743D01*
G01X8489Y4740D01*
G01X8486Y4737D01*
G01X8484Y4733D01*
G01X8482Y4730D01*
G01X8480Y4726D01*
G01X8478Y4722D01*
G01X8476Y4719D01*
G01X8474Y4715D01*
G01X8473Y4711D01*
G01X8472Y4707D01*
G01X8471Y4703D01*
G01X8470Y4699D01*
G01X8469Y4695D01*
G01X8468Y4691D01*
G01X8468Y4687D01*
G01X8468Y4683D01*
G01X8468Y4678D01*
G01X8468Y4089D01*
G01X8468Y4084D01*
G01X8468Y4080D01*
G01X8468Y4076D01*
G01X8469Y4074D01*
G01X8259Y4074D01*
G01X8253Y4073D01*
G01X8247Y4073D01*
G01X8241Y4073D01*
G01X8236Y4072D01*
G01X8230Y4071D01*
G01X8224Y4070D01*
G01X8219Y4069D01*
G01X8213Y4068D01*
G01X8207Y4067D01*
G01X8202Y4065D01*
G01X8197Y4063D01*
G01X8191Y4061D01*
G01X8186Y4059D01*
G01X8181Y4057D01*
G01X8175Y4054D01*
G01X8170Y4052D01*
G01X8165Y4049D01*
G01X8160Y4046D01*
G01X8155Y4043D01*
G01X8151Y4040D01*
G01X8146Y4037D01*
G01X8141Y4033D01*
G01X8137Y4029D01*
G01X8133Y4026D01*
G01X8128Y4022D01*
G01X8124Y4018D01*
G01X8024Y3918D01*
G01X8020Y3914D01*
G01X8016Y3909D01*
G01X8013Y3905D01*
G01X8009Y3901D01*
G01X8005Y3896D01*
G01X8002Y3891D01*
G01X7999Y3887D01*
G01X7996Y3882D01*
G01X7993Y3877D01*
G01X7990Y3872D01*
G01X7988Y3867D01*
G01X7985Y3861D01*
G01X7983Y3856D01*
G01X7981Y3851D01*
G01X7979Y3845D01*
G01X7977Y3840D01*
G01X7975Y3835D01*
G01X7974Y3829D01*
G01X7973Y3823D01*
G01X7972Y3818D01*
G01X7971Y3812D01*
G01X7970Y3806D01*
G01X7969Y3801D01*
G01X7969Y3795D01*
G01X7969Y3789D01*
G01X7969Y3784D01*
G01X7969Y3512D01*
G01X7955Y3499D01*
G01X7938Y3494D01*
G01X7917Y3486D01*
G01X7898Y3476D01*
G01X7879Y3464D01*
G01X7862Y3450D01*
G01X7846Y3435D01*
G01X7832Y3418D01*
G01X7819Y3399D01*
G01X7808Y3380D01*
G01X7800Y3359D01*
G01X7793Y3338D01*
G01X7789Y3317D01*
G01X7787Y3295D01*
G01X7787Y3272D01*
G01X7789Y3250D01*
G01X7793Y3229D01*
G01X7800Y3208D01*
G01X7808Y3187D01*
G01X7819Y3168D01*
G01X7832Y3149D01*
G01X7846Y3132D01*
G01X7862Y3117D01*
G01X7879Y3103D01*
G01X7898Y3091D01*
G01X7917Y3081D01*
G01X7938Y3073D01*
G01X7959Y3067D01*
G01X7981Y3063D01*
G01X8003Y3062D01*
G01X8025Y3062D01*
G01X8047Y3065D01*
G01X8069Y3070D01*
G01X8090Y3077D01*
G01X8110Y3086D01*
G01X8129Y3097D01*
G01X8147Y3110D01*
G01X8149Y3111D01*
G01X8149Y2350D01*
G01X8042Y2244D01*
G01X6959Y2244D01*
G01X6953Y2243D01*
G01X6948Y2243D01*
G01X6942Y2243D01*
G01X6937Y2242D01*
G01X6931Y2241D01*
G01X6926Y2240D01*
G01X6921Y2239D01*
G01X6915Y2238D01*
G01X6910Y2236D01*
G01X6905Y2234D01*
G01X6900Y2232D01*
G01X6895Y2230D01*
G01X6890Y2228D01*
G01X6885Y2226D01*
G01X6880Y2223D01*
G01X6875Y2220D01*
G01X6871Y2217D01*
G01X6866Y2214D01*
G01X6862Y2211D01*
G01X6858Y2208D01*
G01X6853Y2204D01*
G01X6849Y2200D01*
G01X6845Y2197D01*
G01X6745Y2097D01*
G01X6742Y2093D01*
G01X6738Y2089D01*
G01X6734Y2084D01*
G01X6731Y2080D01*
G01X6728Y2076D01*
G01X6725Y2071D01*
G01X6722Y2067D01*
G01X6719Y2062D01*
G01X6716Y2057D01*
G01X6714Y2052D01*
G01X6712Y2047D01*
G01X6710Y2042D01*
G01X6708Y2037D01*
G01X6706Y2032D01*
G01X6704Y2027D01*
G01X6703Y2021D01*
G01X6702Y2016D01*
G01X6701Y2011D01*
G01X6700Y2005D01*
G01X6699Y2000D01*
G01X6699Y1994D01*
G01X6699Y1989D01*
G01X6699Y1984D01*
G01X6699Y787D01*
G01X6696Y785D01*
G01X6682Y768D01*
G01X6669Y749D01*
G01X6658Y730D01*
G01X6650Y709D01*
G01X6643Y688D01*
G01X6639Y667D01*
G01X6637Y645D01*
G01X6637Y622D01*
G01X6639Y600D01*
G01X6643Y579D01*
G01X6650Y558D01*
G01X6658Y537D01*
G01X6669Y518D01*
G01X6682Y499D01*
G01X6696Y482D01*
G01X6712Y467D01*
G01X6729Y453D01*
G01X6748Y441D01*
G01X6767Y431D01*
G01X6788Y423D01*
G01X6809Y417D01*
G01X6831Y413D01*
G01X6853Y412D01*
G01X6875Y412D01*
G01X6897Y415D01*
G01X6919Y420D01*
G01X6940Y427D01*
G01X6960Y436D01*
G01X6979Y447D01*
G01X6997Y460D01*
G01X7014Y475D01*
G01X7029Y491D01*
G01X7042Y508D01*
G01X7053Y527D01*
G01X7063Y547D01*
G01X7071Y568D01*
G01X7076Y590D01*
G01X7079Y611D01*
G01X7080Y634D01*
G01X7079Y656D01*
G01X7076Y677D01*
G01X7071Y699D01*
G01X7063Y720D01*
G01X7053Y740D01*
G01X7042Y759D01*
G01X7029Y776D01*
G01X7019Y787D01*
G01X7019Y1917D01*
G01X7025Y1924D01*
G01X8109Y1924D01*
G01X8114Y1924D01*
G01X8119Y1924D01*
G01X8125Y1924D01*
G01X8130Y1925D01*
G01X8136Y1926D01*
G01X8141Y1927D01*
G01X8146Y1928D01*
G01X8152Y1929D01*
G01X8157Y1931D01*
G01X8162Y1933D01*
G01X8167Y1935D01*
G01X8172Y1937D01*
G01X8177Y1939D01*
G01X8182Y1941D01*
G01X8187Y1944D01*
G01X8192Y1947D01*
G01X8196Y1950D01*
G01X8201Y1953D01*
G01X8205Y1956D01*
G01X8209Y1959D01*
G01X8214Y1963D01*
G01X8218Y1967D01*
G01X8222Y1970D01*
G01X8422Y2170D01*
G01X8425Y2174D01*
G01X8429Y2178D01*
G01X8433Y2183D01*
G01X8436Y2187D01*
G01X8439Y2191D01*
G01X8442Y2196D01*
G01X8445Y2200D01*
G01X8448Y2205D01*
G01X8451Y2210D01*
G01X8453Y2215D01*
G01X8455Y2220D01*
G01X8457Y2225D01*
G01X8459Y2230D01*
G01X8461Y2235D01*
G01X8463Y2240D01*
G01X8464Y2246D01*
G01X8465Y2251D01*
G01X8466Y2256D01*
G01X8467Y2262D01*
G01X8468Y2267D01*
G01X8468Y2273D01*
G01X8468Y2278D01*
G01X8469Y2284D01*
G01X8469Y2431D01*
G01X8863Y2431D01*
G01X8863Y2678D01*
G01X8568Y2678D01*
G01X8563Y2678D01*
G01X8559Y2678D01*
G01X8555Y2678D01*
G01X8551Y2677D01*
G01X8547Y2676D01*
G01X8543Y2675D01*
G01X8539Y2674D01*
G01X8535Y2673D01*
G01X8531Y2672D01*
G01X8527Y2670D01*
G01X8524Y2668D01*
G01X8520Y2666D01*
G01X8516Y2664D01*
G01X8513Y2662D01*
G01X8509Y2660D01*
G01X8506Y2657D01*
G01X8503Y2655D01*
G01X8500Y2652D01*
G01X8497Y2649D01*
G01X8494Y2646D01*
G01X8491Y2643D01*
G01X8489Y2640D01*
G01X8486Y2637D01*
G01X8484Y2633D01*
G01X8482Y2630D01*
G01X8480Y2626D01*
G01X8478Y2622D01*
G01X8476Y2619D01*
G01X8474Y2615D01*
G01X8473Y2611D01*
G01X8472Y2607D01*
G01X8471Y2603D01*
G01X8470Y2599D01*
G01X8469Y2595D01*
G01X8469Y2592D01*
G01X8469Y3025D01*
G01X8469Y3022D01*
G01X8470Y3018D01*
G01X8471Y3014D01*
G01X8472Y3010D01*
G01X8473Y3006D01*
G01X8474Y3002D01*
G01X8476Y2998D01*
G01X8478Y2995D01*
G01X8480Y2991D01*
G01X8482Y2987D01*
G01X8484Y2984D01*
G01X8486Y2980D01*
G01X8489Y2977D01*
G01X8491Y2974D01*
G01X8494Y2971D01*
G01X8497Y2968D01*
G01X8500Y2965D01*
G01X8503Y2962D01*
G01X8506Y2960D01*
G01X8509Y2957D01*
G01X8513Y2955D01*
G01X8516Y2953D01*
G01X8520Y2951D01*
G01X8524Y2949D01*
G01X8527Y2947D01*
G01X8531Y2945D01*
G01X8535Y2944D01*
G01X8539Y2943D01*
G01X8543Y2942D01*
G01X8547Y2941D01*
G01X8551Y2940D01*
G01X8555Y2939D01*
G01X8559Y2939D01*
G01X8563Y2939D01*
G01X8568Y2939D01*
G01X9750Y2939D01*
G01X9754Y2939D01*
G01X9758Y2939D01*
G01X9762Y2939D01*
G01X9766Y2940D01*
G01X9770Y2941D01*
G01X9774Y2942D01*
G01X9778Y2943D01*
G01X9782Y2944D01*
G01X9786Y2945D01*
G01X9790Y2947D01*
G01X9793Y2949D01*
G01X9797Y2951D01*
G01X9801Y2953D01*
G01X9804Y2955D01*
G01X9808Y2957D01*
G01X9811Y2960D01*
G01X9814Y2962D01*
G01X9817Y2965D01*
G01X9820Y2968D01*
G01X9823Y2971D01*
G01X9826Y2974D01*
G01X9828Y2977D01*
G01X9831Y2980D01*
G01X9833Y2984D01*
G01X9835Y2987D01*
G01X9837Y2991D01*
G01X9839Y2995D01*
G01X9841Y2998D01*
G01X9843Y3002D01*
G01X9843Y2615D01*
G01X9841Y2619D01*
G01X9839Y2622D01*
G01X9837Y2626D01*
G01X9835Y2630D01*
G01X9833Y2633D01*
G01X9831Y2637D01*
G01X9828Y2640D01*
G01X9826Y2643D01*
G01X9823Y2646D01*
G01X9820Y2649D01*
G01X9817Y2652D01*
G01X9814Y2655D01*
G01X9811Y2657D01*
G01X9808Y2660D01*
G01X9804Y2662D01*
G01X9801Y2664D01*
G01X9797Y2666D01*
G01X9793Y2668D01*
G01X9790Y2670D01*
G01X9786Y2672D01*
G01X9782Y2673D01*
G01X9778Y2674D01*
G01X9774Y2675D01*
G01X9770Y2676D01*
G01X9766Y2677D01*
G01X9762Y2678D01*
G01X9758Y2678D01*
G01X9754Y2678D01*
G01X9750Y2678D01*
G01X9454Y2678D01*
G01X9454Y2431D01*
G01X9843Y2431D01*
G01X9843Y2136D01*
G01X9454Y2136D01*
G01X9454Y1889D01*
G01X9750Y1889D01*
G01X9754Y1889D01*
G01X9758Y1889D01*
G01X9762Y1889D01*
G01X9766Y1890D01*
G01X9770Y1891D01*
G01X9774Y1892D01*
G01X9778Y1893D01*
G01X9782Y1894D01*
G01X9786Y1895D01*
G01X9790Y1897D01*
G01X9793Y1899D01*
G01X9797Y1901D01*
G01X9801Y1903D01*
G01X9804Y1905D01*
G01X9808Y1907D01*
G01X9811Y1910D01*
G01X9814Y1912D01*
G01X9817Y1915D01*
G01X9820Y1918D01*
G01X9823Y1921D01*
G01X9826Y1924D01*
G01X9828Y1927D01*
G01X9831Y1930D01*
G01X9833Y1934D01*
G01X9835Y1937D01*
G01X9837Y1941D01*
G01X9839Y1945D01*
G01X9841Y1948D01*
G01X9843Y1952D01*
G01X9843Y985D01*
G01X9842Y984D01*
G01X9842Y981D01*
G01X9842Y953D01*
G01X9840Y925D01*
G01X9838Y897D01*
G01X9835Y869D01*
G01X9832Y842D01*
G01X9827Y814D01*
G01X9822Y786D01*
G01X9816Y759D01*
G01X9809Y732D01*
G01X9801Y705D01*
G01X9793Y678D01*
G01X9784Y651D01*
G01X9774Y625D01*
G01X9764Y599D01*
G01X9752Y574D01*
G01X9740Y548D01*
G01X9727Y523D01*
G01X9714Y499D01*
G01X9700Y474D01*
G01X9685Y451D01*
G01X9669Y427D01*
G01X9653Y404D01*
G01X9636Y382D01*
G01X9619Y360D01*
G01X9601Y339D01*
G01X9582Y318D01*
G01X9563Y297D01*
G01X9543Y277D01*
G01X9522Y258D01*
G01X9501Y240D01*
G01X9480Y222D01*
G01X9458Y204D01*
G01X9435Y187D01*
G01X9412Y171D01*
G01X9389Y156D01*
G01X9365Y141D01*
G01X9341Y127D01*
G01X9316Y113D01*
G01X9291Y101D01*
G01X9266Y89D01*
G01X9240Y77D01*
G01X9214Y67D01*
G01X9188Y57D01*
G01X9161Y48D01*
G01X9135Y40D01*
G01X9108Y32D01*
G01X9080Y25D01*
G01X9053Y20D01*
G01X9025Y14D01*
G01X8998Y10D01*
G01X8970Y6D01*
G01X8942Y4D01*
G01X8914Y2D01*
G01X8886Y0D01*
G01X8858Y0D01*
G01X8857Y0D01*
G01X984Y0D01*
G37*

%LPC*%
G36*
G01X8846Y8358D02*
G01X8896Y8359D01*
G01X8945Y8365D01*
G01X8994Y8376D01*
G01X9041Y8392D01*
G01X9087Y8413D01*
G01X9130Y8438D01*
G01X9170Y8467D01*
G01X9208Y8500D01*
G01X9242Y8536D01*
G01X9272Y8576D01*
G01X9298Y8618D01*
G01X9319Y8663D01*
G01X9336Y8710D01*
G01X9349Y8759D01*
G01X9356Y8808D01*
G01X9359Y8858D01*
G01X9356Y8907D01*
G01X9349Y8957D01*
G01X9336Y9005D01*
G01X9319Y9052D01*
G01X9298Y9097D01*
G01X9272Y9139D01*
G01X9242Y9179D01*
G01X9208Y9216D01*
G01X9170Y9249D01*
G01X9130Y9278D01*
G01X9087Y9303D01*
G01X9041Y9323D01*
G01X8994Y9339D01*
G01X8945Y9350D01*
G01X8896Y9356D01*
G01X8846Y9357D01*
G01X8796Y9354D01*
G01X8747Y9345D01*
G01X8699Y9332D01*
G01X8653Y9313D01*
G01X8609Y9291D01*
G01X8567Y9264D01*
G01X8528Y9232D01*
G01X8492Y9198D01*
G01X8460Y9160D01*
G01X8432Y9118D01*
G01X8408Y9075D01*
G01X8389Y9029D01*
G01X8374Y8981D01*
G01X8364Y8932D01*
G01X8359Y8883D01*
G01X8359Y8833D01*
G01X8364Y8783D01*
G01X8374Y8734D01*
G01X8389Y8687D01*
G01X8408Y8641D01*
G01X8432Y8597D01*
G01X8460Y8556D01*
G01X8492Y8518D01*
G01X8528Y8483D01*
G01X8567Y8452D01*
G01X8609Y8425D01*
G01X8653Y8402D01*
G01X8699Y8384D01*
G01X8747Y8370D01*
G01X8796Y8361D01*
G01X8846Y8358D01*
G37*
G36*
G01X2851Y168D02*
G01X2950Y168D01*
G01X2954Y168D01*
G01X2958Y168D01*
G01X2962Y168D01*
G01X2966Y169D01*
G01X2970Y170D01*
G01X2974Y171D01*
G01X2978Y172D01*
G01X2982Y173D01*
G01X2986Y174D01*
G01X2990Y176D01*
G01X2993Y178D01*
G01X2997Y180D01*
G01X3001Y182D01*
G01X3004Y184D01*
G01X3008Y186D01*
G01X3011Y189D01*
G01X3014Y191D01*
G01X3017Y194D01*
G01X3020Y197D01*
G01X3023Y200D01*
G01X3026Y203D01*
G01X3028Y206D01*
G01X3031Y209D01*
G01X3033Y213D01*
G01X3035Y216D01*
G01X3037Y220D01*
G01X3039Y224D01*
G01X3041Y227D01*
G01X3043Y231D01*
G01X3044Y235D01*
G01X3045Y239D01*
G01X3046Y243D01*
G01X3047Y247D01*
G01X3048Y251D01*
G01X3049Y255D01*
G01X3049Y259D01*
G01X3049Y263D01*
G01X3050Y268D01*
G01X3050Y376D01*
G01X2851Y376D01*
G01X2851Y168D01*
G37*
G36*
G01X2555Y168D02*
G01X2654Y168D01*
G01X2654Y376D01*
G01X2455Y376D01*
G01X2455Y268D01*
G01X2456Y263D01*
G01X2456Y259D01*
G01X2456Y255D01*
G01X2457Y251D01*
G01X2458Y247D01*
G01X2459Y243D01*
G01X2460Y239D01*
G01X2461Y235D01*
G01X2462Y231D01*
G01X2464Y227D01*
G01X2466Y224D01*
G01X2468Y220D01*
G01X2470Y216D01*
G01X2472Y213D01*
G01X2474Y209D01*
G01X2477Y206D01*
G01X2479Y203D01*
G01X2482Y200D01*
G01X2485Y197D01*
G01X2488Y194D01*
G01X2491Y191D01*
G01X2494Y189D01*
G01X2497Y186D01*
G01X2501Y184D01*
G01X2504Y182D01*
G01X2508Y180D01*
G01X2512Y178D01*
G01X2515Y176D01*
G01X2519Y174D01*
G01X2523Y173D01*
G01X2527Y172D01*
G01X2531Y171D01*
G01X2535Y170D01*
G01X2539Y169D01*
G01X2543Y168D01*
G01X2547Y168D01*
G01X2551Y168D01*
G01X2555Y168D01*
G37*
G36*
G01X7448Y8241D02*
G01X7646Y8241D01*
G01X7646Y8450D01*
G01X7548Y8450D01*
G01X7543Y8449D01*
G01X7539Y8449D01*
G01X7535Y8449D01*
G01X7531Y8448D01*
G01X7527Y8447D01*
G01X7523Y8446D01*
G01X7519Y8445D01*
G01X7515Y8444D01*
G01X7511Y8443D01*
G01X7507Y8441D01*
G01X7504Y8439D01*
G01X7500Y8437D01*
G01X7496Y8435D01*
G01X7493Y8433D01*
G01X7489Y8431D01*
G01X7486Y8428D01*
G01X7483Y8426D01*
G01X7480Y8423D01*
G01X7477Y8420D01*
G01X7474Y8417D01*
G01X7471Y8414D01*
G01X7469Y8411D01*
G01X7466Y8408D01*
G01X7464Y8404D01*
G01X7462Y8401D01*
G01X7460Y8397D01*
G01X7458Y8393D01*
G01X7456Y8390D01*
G01X7454Y8386D01*
G01X7453Y8382D01*
G01X7452Y8378D01*
G01X7451Y8374D01*
G01X7450Y8370D01*
G01X7449Y8366D01*
G01X7448Y8362D01*
G01X7448Y8358D01*
G01X7448Y8354D01*
G01X7448Y8350D01*
G01X7448Y8241D01*
G37*
G36*
G01X7843Y8241D02*
G01X8042Y8241D01*
G01X8042Y8350D01*
G01X8041Y8354D01*
G01X8041Y8358D01*
G01X8041Y8362D01*
G01X8040Y8366D01*
G01X8039Y8370D01*
G01X8038Y8374D01*
G01X8037Y8378D01*
G01X8036Y8382D01*
G01X8035Y8386D01*
G01X8033Y8390D01*
G01X8031Y8393D01*
G01X8029Y8397D01*
G01X8027Y8401D01*
G01X8025Y8404D01*
G01X8023Y8408D01*
G01X8020Y8411D01*
G01X8018Y8414D01*
G01X8015Y8417D01*
G01X8012Y8420D01*
G01X8009Y8423D01*
G01X8006Y8426D01*
G01X8003Y8428D01*
G01X8000Y8431D01*
G01X7996Y8433D01*
G01X7993Y8435D01*
G01X7989Y8437D01*
G01X7985Y8439D01*
G01X7982Y8441D01*
G01X7978Y8443D01*
G01X7974Y8444D01*
G01X7970Y8445D01*
G01X7966Y8446D01*
G01X7962Y8447D01*
G01X7958Y8448D01*
G01X7954Y8449D01*
G01X7950Y8449D01*
G01X7946Y8449D01*
G01X7942Y8450D01*
G01X7843Y8450D01*
G01X7843Y8241D01*
G37*
G36*
G01X8846Y484D02*
G01X8896Y485D01*
G01X8945Y491D01*
G01X8994Y502D01*
G01X9041Y518D01*
G01X9087Y539D01*
G01X9130Y564D01*
G01X9170Y593D01*
G01X9208Y626D01*
G01X9242Y662D01*
G01X9272Y702D01*
G01X9298Y744D01*
G01X9319Y789D01*
G01X9336Y836D01*
G01X9349Y885D01*
G01X9356Y934D01*
G01X9359Y984D01*
G01X9356Y1033D01*
G01X9349Y1083D01*
G01X9336Y1131D01*
G01X9319Y1178D01*
G01X9298Y1223D01*
G01X9272Y1265D01*
G01X9242Y1305D01*
G01X9208Y1342D01*
G01X9170Y1375D01*
G01X9130Y1404D01*
G01X9087Y1429D01*
G01X9041Y1449D01*
G01X8994Y1465D01*
G01X8945Y1476D01*
G01X8896Y1482D01*
G01X8846Y1483D01*
G01X8796Y1480D01*
G01X8747Y1471D01*
G01X8699Y1458D01*
G01X8653Y1439D01*
G01X8609Y1417D01*
G01X8567Y1390D01*
G01X8528Y1358D01*
G01X8492Y1324D01*
G01X8460Y1286D01*
G01X8432Y1244D01*
G01X8408Y1201D01*
G01X8389Y1155D01*
G01X8374Y1107D01*
G01X8364Y1058D01*
G01X8359Y1009D01*
G01X8359Y959D01*
G01X8364Y909D01*
G01X8374Y860D01*
G01X8389Y813D01*
G01X8408Y767D01*
G01X8432Y723D01*
G01X8460Y682D01*
G01X8492Y644D01*
G01X8528Y609D01*
G01X8567Y578D01*
G01X8609Y551D01*
G01X8653Y528D01*
G01X8699Y510D01*
G01X8747Y496D01*
G01X8796Y487D01*
G01X8846Y484D01*
G37*
G36*
G01X3898Y591D02*
G01X4096Y591D01*
G01X4096Y800D01*
G01X3998Y800D01*
G01X3993Y799D01*
G01X3989Y799D01*
G01X3985Y799D01*
G01X3981Y798D01*
G01X3977Y797D01*
G01X3973Y796D01*
G01X3969Y795D01*
G01X3965Y794D01*
G01X3961Y793D01*
G01X3957Y791D01*
G01X3954Y789D01*
G01X3950Y787D01*
G01X3946Y785D01*
G01X3943Y783D01*
G01X3939Y781D01*
G01X3936Y778D01*
G01X3933Y776D01*
G01X3930Y773D01*
G01X3927Y770D01*
G01X3924Y767D01*
G01X3921Y764D01*
G01X3919Y761D01*
G01X3916Y758D01*
G01X3914Y754D01*
G01X3912Y751D01*
G01X3910Y747D01*
G01X3908Y743D01*
G01X3906Y740D01*
G01X3904Y736D01*
G01X3903Y732D01*
G01X3902Y728D01*
G01X3901Y724D01*
G01X3900Y720D01*
G01X3899Y716D01*
G01X3898Y712D01*
G01X3898Y708D01*
G01X3898Y704D01*
G01X3898Y700D01*
G01X3898Y591D01*
G37*
G36*
G01X2455Y592D02*
G01X2654Y592D01*
G01X2654Y801D01*
G01X2555Y801D01*
G01X2551Y800D01*
G01X2547Y800D01*
G01X2543Y800D01*
G01X2539Y799D01*
G01X2535Y798D01*
G01X2531Y797D01*
G01X2527Y796D01*
G01X2523Y795D01*
G01X2519Y794D01*
G01X2515Y792D01*
G01X2512Y790D01*
G01X2508Y788D01*
G01X2504Y786D01*
G01X2501Y784D01*
G01X2497Y782D01*
G01X2494Y779D01*
G01X2491Y777D01*
G01X2488Y774D01*
G01X2485Y771D01*
G01X2482Y768D01*
G01X2479Y765D01*
G01X2477Y762D01*
G01X2474Y759D01*
G01X2472Y755D01*
G01X2470Y752D01*
G01X2468Y748D01*
G01X2466Y744D01*
G01X2464Y741D01*
G01X2462Y737D01*
G01X2461Y733D01*
G01X2460Y729D01*
G01X2459Y725D01*
G01X2458Y721D01*
G01X2457Y717D01*
G01X2456Y713D01*
G01X2456Y709D01*
G01X2456Y705D01*
G01X2455Y701D01*
G01X2455Y592D01*
G37*
G36*
G01X4901Y1168D02*
G01X5000Y1168D01*
G01X5004Y1168D01*
G01X5008Y1168D01*
G01X5012Y1168D01*
G01X5016Y1169D01*
G01X5020Y1170D01*
G01X5024Y1171D01*
G01X5028Y1172D01*
G01X5032Y1173D01*
G01X5036Y1174D01*
G01X5040Y1176D01*
G01X5043Y1178D01*
G01X5047Y1180D01*
G01X5051Y1182D01*
G01X5054Y1184D01*
G01X5058Y1186D01*
G01X5061Y1189D01*
G01X5064Y1191D01*
G01X5067Y1194D01*
G01X5070Y1197D01*
G01X5073Y1200D01*
G01X5076Y1203D01*
G01X5078Y1206D01*
G01X5081Y1209D01*
G01X5083Y1213D01*
G01X5085Y1216D01*
G01X5087Y1220D01*
G01X5089Y1224D01*
G01X5091Y1227D01*
G01X5093Y1231D01*
G01X5094Y1235D01*
G01X5095Y1239D01*
G01X5096Y1243D01*
G01X5097Y1247D01*
G01X5098Y1251D01*
G01X5099Y1255D01*
G01X5099Y1259D01*
G01X5099Y1263D01*
G01X5100Y1268D01*
G01X5100Y1376D01*
G01X4901Y1376D01*
G01X4901Y1168D01*
G37*
G36*
G01X4605Y1168D02*
G01X4704Y1168D01*
G01X4704Y1376D01*
G01X4505Y1376D01*
G01X4505Y1268D01*
G01X4506Y1263D01*
G01X4506Y1259D01*
G01X4506Y1255D01*
G01X4507Y1251D01*
G01X4508Y1247D01*
G01X4509Y1243D01*
G01X4510Y1239D01*
G01X4511Y1235D01*
G01X4512Y1231D01*
G01X4514Y1227D01*
G01X4516Y1224D01*
G01X4518Y1220D01*
G01X4520Y1216D01*
G01X4522Y1213D01*
G01X4524Y1209D01*
G01X4527Y1206D01*
G01X4529Y1203D01*
G01X4532Y1200D01*
G01X4535Y1197D01*
G01X4538Y1194D01*
G01X4541Y1191D01*
G01X4544Y1189D01*
G01X4547Y1186D01*
G01X4551Y1184D01*
G01X4554Y1182D01*
G01X4558Y1180D01*
G01X4562Y1178D01*
G01X4565Y1176D01*
G01X4569Y1174D01*
G01X4573Y1173D01*
G01X4577Y1172D01*
G01X4581Y1171D01*
G01X4585Y1170D01*
G01X4589Y1169D01*
G01X4593Y1168D01*
G01X4597Y1168D01*
G01X4601Y1168D01*
G01X4605Y1168D01*
G37*
G36*
G01X4901Y1592D02*
G01X5100Y1592D01*
G01X5100Y1701D01*
G01X5099Y1705D01*
G01X5099Y1709D01*
G01X5099Y1713D01*
G01X5098Y1717D01*
G01X5097Y1721D01*
G01X5096Y1725D01*
G01X5095Y1729D01*
G01X5094Y1733D01*
G01X5093Y1737D01*
G01X5091Y1741D01*
G01X5089Y1744D01*
G01X5087Y1748D01*
G01X5085Y1752D01*
G01X5083Y1755D01*
G01X5081Y1759D01*
G01X5078Y1762D01*
G01X5076Y1765D01*
G01X5073Y1768D01*
G01X5070Y1771D01*
G01X5067Y1774D01*
G01X5064Y1777D01*
G01X5061Y1779D01*
G01X5058Y1782D01*
G01X5054Y1784D01*
G01X5051Y1786D01*
G01X5047Y1788D01*
G01X5043Y1790D01*
G01X5040Y1792D01*
G01X5036Y1794D01*
G01X5032Y1795D01*
G01X5028Y1796D01*
G01X5024Y1797D01*
G01X5020Y1798D01*
G01X5016Y1799D01*
G01X5012Y1800D01*
G01X5008Y1800D01*
G01X5004Y1800D01*
G01X5000Y1801D01*
G01X4901Y1801D01*
G01X4901Y1592D01*
G37*
G36*
G01X4505Y1592D02*
G01X4704Y1592D01*
G01X4704Y1801D01*
G01X4605Y1801D01*
G01X4601Y1800D01*
G01X4597Y1800D01*
G01X4593Y1800D01*
G01X4589Y1799D01*
G01X4585Y1798D01*
G01X4581Y1797D01*
G01X4577Y1796D01*
G01X4573Y1795D01*
G01X4569Y1794D01*
G01X4565Y1792D01*
G01X4562Y1790D01*
G01X4558Y1788D01*
G01X4554Y1786D01*
G01X4551Y1784D01*
G01X4547Y1782D01*
G01X4544Y1779D01*
G01X4541Y1777D01*
G01X4538Y1774D01*
G01X4535Y1771D01*
G01X4532Y1768D01*
G01X4529Y1765D01*
G01X4527Y1762D01*
G01X4524Y1759D01*
G01X4522Y1755D01*
G01X4520Y1752D01*
G01X4518Y1748D01*
G01X4516Y1744D01*
G01X4514Y1741D01*
G01X4512Y1737D01*
G01X4511Y1733D01*
G01X4510Y1729D01*
G01X4509Y1725D01*
G01X4508Y1721D01*
G01X4507Y1717D01*
G01X4506Y1713D01*
G01X4506Y1709D01*
G01X4506Y1705D01*
G01X4505Y1701D01*
G01X4505Y1592D01*
G37*
G36*
G01X8568Y1889D02*
G01X8863Y1889D01*
G01X8863Y2136D01*
G01X8468Y2136D01*
G01X8468Y2136D01*
G01X8468Y1989D01*
G01X8468Y1984D01*
G01X8468Y1980D01*
G01X8468Y1976D01*
G01X8469Y1972D01*
G01X8470Y1968D01*
G01X8471Y1964D01*
G01X8472Y1960D01*
G01X8473Y1956D01*
G01X8474Y1952D01*
G01X8476Y1948D01*
G01X8478Y1945D01*
G01X8480Y1941D01*
G01X8482Y1937D01*
G01X8484Y1934D01*
G01X8486Y1930D01*
G01X8489Y1927D01*
G01X8491Y1924D01*
G01X8494Y1921D01*
G01X8497Y1918D01*
G01X8500Y1915D01*
G01X8503Y1912D01*
G01X8506Y1910D01*
G01X8509Y1907D01*
G01X8513Y1905D01*
G01X8516Y1903D01*
G01X8520Y1901D01*
G01X8524Y1899D01*
G01X8527Y1897D01*
G01X8531Y1895D01*
G01X8535Y1894D01*
G01X8539Y1893D01*
G01X8543Y1892D01*
G01X8547Y1891D01*
G01X8551Y1890D01*
G01X8555Y1889D01*
G01X8559Y1889D01*
G01X8563Y1889D01*
G01X8568Y1889D01*
G37*
G36*
G01X7548Y7817D02*
G01X7646Y7817D01*
G01X7646Y8025D01*
G01X7448Y8025D01*
G01X7448Y7917D01*
G01X7448Y7912D01*
G01X7448Y7908D01*
G01X7448Y7904D01*
G01X7449Y7900D01*
G01X7450Y7896D01*
G01X7451Y7892D01*
G01X7452Y7888D01*
G01X7453Y7884D01*
G01X7454Y7880D01*
G01X7456Y7876D01*
G01X7458Y7873D01*
G01X7460Y7869D01*
G01X7462Y7865D01*
G01X7464Y7862D01*
G01X7466Y7858D01*
G01X7469Y7855D01*
G01X7471Y7852D01*
G01X7474Y7849D01*
G01X7477Y7846D01*
G01X7480Y7843D01*
G01X7483Y7840D01*
G01X7486Y7838D01*
G01X7489Y7835D01*
G01X7493Y7833D01*
G01X7496Y7831D01*
G01X7500Y7829D01*
G01X7504Y7827D01*
G01X7507Y7825D01*
G01X7511Y7823D01*
G01X7515Y7822D01*
G01X7519Y7821D01*
G01X7523Y7820D01*
G01X7527Y7819D01*
G01X7531Y7818D01*
G01X7535Y7817D01*
G01X7539Y7817D01*
G01X7543Y7817D01*
G01X7548Y7817D01*
G37*
G36*
G01X7843Y7817D02*
G01X7942Y7817D01*
G01X7946Y7817D01*
G01X7950Y7817D01*
G01X7954Y7817D01*
G01X7958Y7818D01*
G01X7962Y7819D01*
G01X7966Y7820D01*
G01X7970Y7821D01*
G01X7974Y7822D01*
G01X7978Y7823D01*
G01X7982Y7825D01*
G01X7985Y7827D01*
G01X7989Y7829D01*
G01X7993Y7831D01*
G01X7996Y7833D01*
G01X8000Y7835D01*
G01X8003Y7838D01*
G01X8006Y7840D01*
G01X8009Y7843D01*
G01X8012Y7846D01*
G01X8015Y7849D01*
G01X8018Y7852D01*
G01X8020Y7855D01*
G01X8023Y7858D01*
G01X8025Y7862D01*
G01X8027Y7865D01*
G01X8029Y7869D01*
G01X8031Y7873D01*
G01X8033Y7876D01*
G01X8035Y7880D01*
G01X8036Y7884D01*
G01X8037Y7888D01*
G01X8038Y7892D01*
G01X8039Y7896D01*
G01X8040Y7900D01*
G01X8041Y7904D01*
G01X8041Y7908D01*
G01X8041Y7912D01*
G01X8042Y7917D01*
G01X8042Y8025D01*
G01X7843Y8025D01*
G01X7843Y7817D01*
G37*
G36*
G01X4051Y7355D02*
G01X4221Y7355D01*
G01X4221Y7478D01*
G01X4220Y7482D01*
G01X4220Y7486D01*
G01X4220Y7490D01*
G01X4219Y7494D01*
G01X4218Y7498D01*
G01X4217Y7502D01*
G01X4216Y7506D01*
G01X4215Y7510D01*
G01X4214Y7514D01*
G01X4212Y7518D01*
G01X4210Y7521D01*
G01X4208Y7525D01*
G01X4206Y7529D01*
G01X4204Y7532D01*
G01X4202Y7536D01*
G01X4199Y7539D01*
G01X4197Y7542D01*
G01X4194Y7545D01*
G01X4191Y7548D01*
G01X4188Y7551D01*
G01X4185Y7554D01*
G01X4182Y7556D01*
G01X4179Y7559D01*
G01X4175Y7561D01*
G01X4172Y7563D01*
G01X4168Y7565D01*
G01X4164Y7567D01*
G01X4161Y7569D01*
G01X4157Y7571D01*
G01X4153Y7572D01*
G01X4149Y7573D01*
G01X4145Y7574D01*
G01X4141Y7575D01*
G01X4137Y7576D01*
G01X4133Y7577D01*
G01X4129Y7577D01*
G01X4125Y7577D01*
G01X4121Y7578D01*
G01X4051Y7578D01*
G01X4051Y7355D01*
G37*
G36*
G01X243Y7338D02*
G01X451Y7338D01*
G01X451Y7537D01*
G01X343Y7537D01*
G01X338Y7536D01*
G01X334Y7536D01*
G01X330Y7536D01*
G01X326Y7535D01*
G01X322Y7534D01*
G01X318Y7533D01*
G01X314Y7532D01*
G01X310Y7531D01*
G01X306Y7530D01*
G01X302Y7528D01*
G01X299Y7526D01*
G01X295Y7524D01*
G01X291Y7522D01*
G01X288Y7520D01*
G01X284Y7518D01*
G01X281Y7515D01*
G01X278Y7513D01*
G01X275Y7510D01*
G01X272Y7507D01*
G01X269Y7504D01*
G01X266Y7501D01*
G01X264Y7498D01*
G01X261Y7495D01*
G01X259Y7491D01*
G01X257Y7488D01*
G01X255Y7484D01*
G01X253Y7480D01*
G01X251Y7477D01*
G01X249Y7473D01*
G01X248Y7469D01*
G01X247Y7465D01*
G01X246Y7461D01*
G01X245Y7457D01*
G01X244Y7453D01*
G01X243Y7449D01*
G01X243Y7445D01*
G01X243Y7441D01*
G01X243Y7437D01*
G01X243Y7338D01*
G37*
G36*
G01X3741Y3188D02*
G01X3840Y3188D01*
G01X3844Y3188D01*
G01X3848Y3188D01*
G01X3852Y3188D01*
G01X3856Y3189D01*
G01X3860Y3190D01*
G01X3864Y3191D01*
G01X3868Y3192D01*
G01X3872Y3193D01*
G01X3876Y3194D01*
G01X3880Y3196D01*
G01X3883Y3198D01*
G01X3887Y3200D01*
G01X3891Y3202D01*
G01X3894Y3204D01*
G01X3898Y3206D01*
G01X3901Y3209D01*
G01X3904Y3211D01*
G01X3907Y3214D01*
G01X3910Y3217D01*
G01X3913Y3220D01*
G01X3916Y3223D01*
G01X3918Y3226D01*
G01X3921Y3229D01*
G01X3923Y3233D01*
G01X3925Y3236D01*
G01X3927Y3240D01*
G01X3929Y3244D01*
G01X3931Y3247D01*
G01X3933Y3251D01*
G01X3934Y3255D01*
G01X3935Y3259D01*
G01X3936Y3263D01*
G01X3937Y3267D01*
G01X3938Y3271D01*
G01X3939Y3275D01*
G01X3939Y3279D01*
G01X3939Y3283D01*
G01X3940Y3288D01*
G01X3940Y3396D01*
G01X3741Y3396D01*
G01X3741Y3188D01*
G37*
G36*
G01X3446Y3188D02*
G01X3544Y3188D01*
G01X3544Y3396D01*
G01X3346Y3396D01*
G01X3346Y3288D01*
G01X3346Y3283D01*
G01X3346Y3279D01*
G01X3346Y3275D01*
G01X3347Y3271D01*
G01X3348Y3267D01*
G01X3349Y3263D01*
G01X3350Y3259D01*
G01X3351Y3255D01*
G01X3352Y3251D01*
G01X3354Y3247D01*
G01X3356Y3244D01*
G01X3358Y3240D01*
G01X3360Y3236D01*
G01X3362Y3233D01*
G01X3364Y3229D01*
G01X3367Y3226D01*
G01X3369Y3223D01*
G01X3372Y3220D01*
G01X3375Y3217D01*
G01X3378Y3214D01*
G01X3381Y3211D01*
G01X3384Y3209D01*
G01X3387Y3206D01*
G01X3391Y3204D01*
G01X3394Y3202D01*
G01X3398Y3200D01*
G01X3402Y3198D01*
G01X3405Y3196D01*
G01X3409Y3194D01*
G01X3413Y3193D01*
G01X3417Y3192D01*
G01X3421Y3191D01*
G01X3425Y3190D01*
G01X3429Y3189D01*
G01X3433Y3188D01*
G01X3437Y3188D01*
G01X3441Y3188D01*
G01X3446Y3188D01*
G37*
G36*
G01X667Y7338D02*
G01X876Y7338D01*
G01X876Y7437D01*
G01X875Y7441D01*
G01X875Y7445D01*
G01X875Y7449D01*
G01X874Y7453D01*
G01X873Y7457D01*
G01X872Y7461D01*
G01X871Y7465D01*
G01X870Y7469D01*
G01X869Y7473D01*
G01X867Y7477D01*
G01X865Y7480D01*
G01X863Y7484D01*
G01X861Y7488D01*
G01X859Y7491D01*
G01X857Y7495D01*
G01X854Y7498D01*
G01X852Y7501D01*
G01X849Y7504D01*
G01X846Y7507D01*
G01X843Y7510D01*
G01X840Y7513D01*
G01X837Y7515D01*
G01X834Y7518D01*
G01X830Y7520D01*
G01X827Y7522D01*
G01X823Y7524D01*
G01X819Y7526D01*
G01X816Y7528D01*
G01X812Y7530D01*
G01X808Y7531D01*
G01X804Y7532D01*
G01X800Y7533D01*
G01X796Y7534D01*
G01X792Y7535D01*
G01X788Y7536D01*
G01X784Y7536D01*
G01X780Y7536D01*
G01X776Y7537D01*
G01X667Y7537D01*
G01X667Y7338D01*
G37*
G36*
G01X7919Y7165D02*
G01X7919Y7165D01*
G01X8216Y7165D01*
G01X8216Y7310D01*
G01X8019Y7310D01*
G01X8014Y7309D01*
G01X8010Y7309D01*
G01X8006Y7309D01*
G01X8002Y7308D01*
G01X7998Y7307D01*
G01X7994Y7306D01*
G01X7990Y7305D01*
G01X7986Y7304D01*
G01X7982Y7303D01*
G01X7978Y7301D01*
G01X7975Y7299D01*
G01X7971Y7297D01*
G01X7967Y7295D01*
G01X7964Y7293D01*
G01X7960Y7291D01*
G01X7957Y7288D01*
G01X7954Y7286D01*
G01X7951Y7283D01*
G01X7948Y7280D01*
G01X7945Y7277D01*
G01X7942Y7274D01*
G01X7940Y7271D01*
G01X7937Y7268D01*
G01X7935Y7264D01*
G01X7933Y7261D01*
G01X7931Y7257D01*
G01X7929Y7253D01*
G01X7927Y7250D01*
G01X7925Y7246D01*
G01X7924Y7242D01*
G01X7923Y7238D01*
G01X7922Y7234D01*
G01X7921Y7230D01*
G01X7920Y7226D01*
G01X7919Y7222D01*
G01X7919Y7218D01*
G01X7919Y7214D01*
G01X7919Y7210D01*
G01X7919Y7165D01*
G37*
G36*
G01X8907Y7165D02*
G01X8907Y7210D01*
G01X8906Y7214D01*
G01X8906Y7218D01*
G01X8906Y7221D01*
G01X8936Y7238D01*
G01X8968Y7261D01*
G01X8998Y7288D01*
G01X9024Y7316D01*
G01X9048Y7348D01*
G01X9069Y7381D01*
G01X9086Y7417D01*
G01X9099Y7454D01*
G01X9109Y7492D01*
G01X9115Y7531D01*
G01X9117Y7571D01*
G01X9115Y7610D01*
G01X9109Y7649D01*
G01X9099Y7687D01*
G01X9086Y7724D01*
G01X9069Y7760D01*
G01X9048Y7793D01*
G01X9024Y7825D01*
G01X8998Y7853D01*
G01X8968Y7880D01*
G01X8936Y7903D01*
G01X8902Y7922D01*
G01X8866Y7938D01*
G01X8829Y7951D01*
G01X8790Y7960D01*
G01X8751Y7965D01*
G01X8712Y7966D01*
G01X8672Y7963D01*
G01X8634Y7956D01*
G01X8596Y7945D01*
G01X8559Y7931D01*
G01X8524Y7913D01*
G01X8491Y7891D01*
G01X8460Y7867D01*
G01X8432Y7839D01*
G01X8406Y7809D01*
G01X8384Y7777D01*
G01X8365Y7742D01*
G01X8350Y7706D01*
G01X8338Y7668D01*
G01X8331Y7629D01*
G01X8327Y7590D01*
G01X8327Y7551D01*
G01X8331Y7512D01*
G01X8338Y7473D01*
G01X8350Y7435D01*
G01X8365Y7399D01*
G01X8384Y7364D01*
G01X8406Y7332D01*
G01X8432Y7302D01*
G01X8460Y7274D01*
G01X8491Y7250D01*
G01X8524Y7228D01*
G01X8559Y7210D01*
G01X8596Y7196D01*
G01X8609Y7192D01*
G01X8609Y7165D01*
G01X8906Y7165D01*
G01X8907Y7165D01*
G37*
G36*
G01X7796Y3841D02*
G01X7905Y3841D01*
G01X7909Y3841D01*
G01X7913Y3841D01*
G01X7917Y3841D01*
G01X7921Y3842D01*
G01X7925Y3843D01*
G01X7929Y3844D01*
G01X7933Y3845D01*
G01X7937Y3846D01*
G01X7941Y3847D01*
G01X7945Y3849D01*
G01X7948Y3851D01*
G01X7952Y3853D01*
G01X7956Y3855D01*
G01X7959Y3857D01*
G01X7963Y3859D01*
G01X7966Y3862D01*
G01X7969Y3864D01*
G01X7972Y3867D01*
G01X7975Y3870D01*
G01X7978Y3873D01*
G01X7981Y3876D01*
G01X7983Y3879D01*
G01X7986Y3882D01*
G01X7988Y3886D01*
G01X7990Y3889D01*
G01X7992Y3893D01*
G01X7994Y3897D01*
G01X7996Y3900D01*
G01X7998Y3904D01*
G01X7999Y3908D01*
G01X8000Y3912D01*
G01X8001Y3916D01*
G01X8002Y3920D01*
G01X8003Y3924D01*
G01X8004Y3928D01*
G01X8004Y3932D01*
G01X8004Y3936D01*
G01X8005Y3941D01*
G01X8005Y4039D01*
G01X7796Y4039D01*
G01X7796Y3841D01*
G37*
G36*
G01X7472Y3841D02*
G01X7580Y3841D01*
G01X7580Y4039D01*
G01X7372Y4039D01*
G01X7372Y3941D01*
G01X7372Y3936D01*
G01X7372Y3932D01*
G01X7372Y3928D01*
G01X7373Y3924D01*
G01X7374Y3920D01*
G01X7375Y3916D01*
G01X7376Y3912D01*
G01X7377Y3908D01*
G01X7378Y3904D01*
G01X7380Y3900D01*
G01X7382Y3897D01*
G01X7384Y3893D01*
G01X7386Y3889D01*
G01X7388Y3886D01*
G01X7390Y3882D01*
G01X7393Y3879D01*
G01X7395Y3876D01*
G01X7398Y3873D01*
G01X7401Y3870D01*
G01X7404Y3867D01*
G01X7407Y3864D01*
G01X7410Y3862D01*
G01X7413Y3859D01*
G01X7417Y3857D01*
G01X7420Y3855D01*
G01X7424Y3853D01*
G01X7428Y3851D01*
G01X7431Y3849D01*
G01X7435Y3847D01*
G01X7439Y3846D01*
G01X7443Y3845D01*
G01X7447Y3844D01*
G01X7451Y3843D01*
G01X7455Y3842D01*
G01X7459Y3841D01*
G01X7463Y3841D01*
G01X7467Y3841D01*
G01X7472Y3841D01*
G37*
G36*
G01X6188Y4026D02*
G01X6367Y4026D01*
G01X6371Y4026D01*
G01X6375Y4026D01*
G01X6379Y4026D01*
G01X6383Y4027D01*
G01X6387Y4028D01*
G01X6391Y4029D01*
G01X6395Y4030D01*
G01X6399Y4031D01*
G01X6403Y4032D01*
G01X6407Y4034D01*
G01X6410Y4036D01*
G01X6414Y4038D01*
G01X6418Y4040D01*
G01X6421Y4042D01*
G01X6425Y4044D01*
G01X6428Y4047D01*
G01X6431Y4049D01*
G01X6434Y4052D01*
G01X6437Y4055D01*
G01X6440Y4058D01*
G01X6443Y4061D01*
G01X6445Y4064D01*
G01X6448Y4067D01*
G01X6450Y4071D01*
G01X6452Y4074D01*
G01X6454Y4078D01*
G01X6456Y4082D01*
G01X6458Y4085D01*
G01X6460Y4089D01*
G01X6461Y4093D01*
G01X6462Y4097D01*
G01X6463Y4101D01*
G01X6464Y4105D01*
G01X6465Y4109D01*
G01X6466Y4113D01*
G01X6466Y4117D01*
G01X6466Y4121D01*
G01X6467Y4126D01*
G01X6467Y4259D01*
G01X6188Y4259D01*
G01X6188Y4026D01*
G37*
G36*
G01X5651Y4026D02*
G01X5830Y4026D01*
G01X5830Y4259D01*
G01X5551Y4259D01*
G01X5551Y4126D01*
G01X5552Y4121D01*
G01X5552Y4117D01*
G01X5552Y4113D01*
G01X5553Y4109D01*
G01X5554Y4105D01*
G01X5555Y4101D01*
G01X5556Y4097D01*
G01X5557Y4093D01*
G01X5558Y4089D01*
G01X5560Y4085D01*
G01X5562Y4082D01*
G01X5564Y4078D01*
G01X5566Y4074D01*
G01X5568Y4071D01*
G01X5570Y4067D01*
G01X5573Y4064D01*
G01X5575Y4061D01*
G01X5578Y4058D01*
G01X5581Y4055D01*
G01X5584Y4052D01*
G01X5587Y4049D01*
G01X5590Y4047D01*
G01X5593Y4044D01*
G01X5597Y4042D01*
G01X5600Y4040D01*
G01X5604Y4038D01*
G01X5608Y4036D01*
G01X5611Y4034D01*
G01X5615Y4032D01*
G01X5619Y4031D01*
G01X5623Y4030D01*
G01X5627Y4029D01*
G01X5631Y4028D01*
G01X5635Y4027D01*
G01X5639Y4026D01*
G01X5643Y4026D01*
G01X5647Y4026D01*
G01X5651Y4026D01*
G37*
G36*
G01X10106Y7092D02*
G01X10121Y7092D01*
G01X10136Y7094D01*
G01X10151Y7097D01*
G01X10165Y7102D01*
G01X10179Y7108D01*
G01X10192Y7116D01*
G01X10204Y7124D01*
G01X10215Y7134D01*
G01X10225Y7145D01*
G01X10234Y7157D01*
G01X10242Y7170D01*
G01X10248Y7183D01*
G01X10254Y7197D01*
G01X10257Y7212D01*
G01X10259Y7227D01*
G01X10260Y7242D01*
G01X10259Y7257D01*
G01X10257Y7271D01*
G01X10254Y7286D01*
G01X10248Y7300D01*
G01X10242Y7313D01*
G01X10234Y7326D01*
G01X10225Y7338D01*
G01X10215Y7349D01*
G01X10204Y7359D01*
G01X10192Y7368D01*
G01X10179Y7375D01*
G01X10165Y7381D01*
G01X10151Y7386D01*
G01X10136Y7389D01*
G01X10121Y7391D01*
G01X10106Y7392D01*
G01X10092Y7391D01*
G01X10077Y7388D01*
G01X10062Y7384D01*
G01X10049Y7378D01*
G01X10035Y7372D01*
G01X10023Y7363D01*
G01X10011Y7354D01*
G01X10000Y7344D01*
G01X9991Y7332D01*
G01X9982Y7320D01*
G01X9975Y7307D01*
G01X9969Y7293D01*
G01X9965Y7279D01*
G01X9962Y7264D01*
G01X9960Y7249D01*
G01X9960Y7234D01*
G01X9962Y7219D01*
G01X9965Y7205D01*
G01X9969Y7190D01*
G01X9975Y7177D01*
G01X9982Y7163D01*
G01X9991Y7151D01*
G01X10000Y7140D01*
G01X10011Y7129D01*
G01X10023Y7120D01*
G01X10035Y7112D01*
G01X10049Y7105D01*
G01X10062Y7100D01*
G01X10077Y7095D01*
G01X10092Y7093D01*
G01X10106Y7092D01*
G37*
G36*
G01X392Y4180D02*
G01X825Y4180D01*
G01X829Y4181D01*
G01X833Y4181D01*
G01X837Y4181D01*
G01X841Y4182D01*
G01X845Y4183D01*
G01X849Y4184D01*
G01X853Y4185D01*
G01X857Y4186D01*
G01X861Y4187D01*
G01X865Y4189D01*
G01X868Y4191D01*
G01X872Y4193D01*
G01X876Y4195D01*
G01X879Y4197D01*
G01X883Y4199D01*
G01X886Y4202D01*
G01X889Y4204D01*
G01X892Y4207D01*
G01X895Y4210D01*
G01X898Y4213D01*
G01X901Y4216D01*
G01X903Y4219D01*
G01X906Y4222D01*
G01X908Y4226D01*
G01X910Y4229D01*
G01X912Y4233D01*
G01X914Y4237D01*
G01X916Y4240D01*
G01X918Y4244D01*
G01X919Y4248D01*
G01X920Y4252D01*
G01X921Y4256D01*
G01X922Y4260D01*
G01X923Y4264D01*
G01X924Y4268D01*
G01X924Y4272D01*
G01X924Y4276D01*
G01X925Y4280D01*
G01X925Y4675D01*
G01X924Y4679D01*
G01X924Y4683D01*
G01X924Y4687D01*
G01X923Y4691D01*
G01X922Y4695D01*
G01X921Y4699D01*
G01X920Y4703D01*
G01X919Y4707D01*
G01X918Y4711D01*
G01X916Y4715D01*
G01X914Y4718D01*
G01X912Y4722D01*
G01X910Y4726D01*
G01X908Y4729D01*
G01X906Y4733D01*
G01X903Y4736D01*
G01X901Y4739D01*
G01X898Y4742D01*
G01X895Y4745D01*
G01X892Y4748D01*
G01X889Y4751D01*
G01X886Y4753D01*
G01X883Y4756D01*
G01X879Y4758D01*
G01X876Y4760D01*
G01X872Y4762D01*
G01X868Y4764D01*
G01X865Y4766D01*
G01X861Y4768D01*
G01X857Y4769D01*
G01X853Y4770D01*
G01X849Y4771D01*
G01X845Y4772D01*
G01X841Y4773D01*
G01X837Y4774D01*
G01X833Y4774D01*
G01X829Y4774D01*
G01X825Y4775D01*
G01X798Y4775D01*
G01X798Y4921D01*
G01X885Y4921D01*
G01X889Y4921D01*
G01X893Y4921D01*
G01X897Y4921D01*
G01X901Y4922D01*
G01X905Y4923D01*
G01X909Y4924D01*
G01X913Y4925D01*
G01X917Y4926D01*
G01X921Y4927D01*
G01X925Y4929D01*
G01X928Y4931D01*
G01X932Y4933D01*
G01X936Y4935D01*
G01X939Y4937D01*
G01X943Y4939D01*
G01X946Y4942D01*
G01X949Y4944D01*
G01X952Y4947D01*
G01X955Y4950D01*
G01X958Y4953D01*
G01X961Y4956D01*
G01X963Y4959D01*
G01X966Y4962D01*
G01X968Y4966D01*
G01X970Y4969D01*
G01X972Y4973D01*
G01X974Y4977D01*
G01X976Y4980D01*
G01X978Y4984D01*
G01X979Y4988D01*
G01X980Y4992D01*
G01X981Y4996D01*
G01X982Y5000D01*
G01X983Y5004D01*
G01X984Y5008D01*
G01X984Y5012D01*
G01X984Y5016D01*
G01X985Y5021D01*
G01X985Y5532D01*
G01X984Y5537D01*
G01X984Y5541D01*
G01X984Y5545D01*
G01X983Y5549D01*
G01X982Y5553D01*
G01X981Y5557D01*
G01X980Y5561D01*
G01X979Y5565D01*
G01X978Y5569D01*
G01X976Y5573D01*
G01X974Y5576D01*
G01X972Y5580D01*
G01X970Y5584D01*
G01X968Y5587D01*
G01X966Y5591D01*
G01X963Y5594D01*
G01X961Y5597D01*
G01X958Y5600D01*
G01X955Y5603D01*
G01X952Y5606D01*
G01X949Y5609D01*
G01X946Y5611D01*
G01X943Y5614D01*
G01X939Y5616D01*
G01X936Y5618D01*
G01X932Y5620D01*
G01X928Y5622D01*
G01X925Y5624D01*
G01X921Y5626D01*
G01X917Y5627D01*
G01X913Y5628D01*
G01X909Y5629D01*
G01X905Y5630D01*
G01X901Y5631D01*
G01X897Y5632D01*
G01X893Y5632D01*
G01X889Y5632D01*
G01X885Y5632D01*
G01X334Y5632D01*
G01X329Y5632D01*
G01X325Y5632D01*
G01X321Y5632D01*
G01X317Y5631D01*
G01X313Y5630D01*
G01X309Y5629D01*
G01X305Y5628D01*
G01X301Y5627D01*
G01X297Y5626D01*
G01X293Y5624D01*
G01X290Y5622D01*
G01X286Y5620D01*
G01X282Y5618D01*
G01X279Y5616D01*
G01X275Y5614D01*
G01X272Y5611D01*
G01X269Y5609D01*
G01X266Y5606D01*
G01X263Y5603D01*
G01X260Y5600D01*
G01X257Y5597D01*
G01X255Y5594D01*
G01X252Y5591D01*
G01X250Y5587D01*
G01X248Y5584D01*
G01X246Y5580D01*
G01X244Y5576D01*
G01X242Y5573D01*
G01X240Y5569D01*
G01X239Y5565D01*
G01X238Y5561D01*
G01X237Y5557D01*
G01X236Y5553D01*
G01X235Y5549D01*
G01X234Y5545D01*
G01X234Y5541D01*
G01X234Y5537D01*
G01X234Y5532D01*
G01X234Y5021D01*
G01X234Y5016D01*
G01X234Y5012D01*
G01X234Y5008D01*
G01X235Y5004D01*
G01X236Y5000D01*
G01X237Y4996D01*
G01X238Y4992D01*
G01X239Y4988D01*
G01X240Y4984D01*
G01X242Y4980D01*
G01X244Y4977D01*
G01X246Y4973D01*
G01X248Y4969D01*
G01X250Y4966D01*
G01X252Y4962D01*
G01X255Y4959D01*
G01X257Y4956D01*
G01X260Y4953D01*
G01X263Y4950D01*
G01X266Y4947D01*
G01X269Y4944D01*
G01X272Y4942D01*
G01X275Y4939D01*
G01X279Y4937D01*
G01X282Y4935D01*
G01X286Y4933D01*
G01X290Y4931D01*
G01X293Y4929D01*
G01X297Y4927D01*
G01X301Y4926D01*
G01X305Y4925D01*
G01X309Y4924D01*
G01X313Y4923D01*
G01X317Y4922D01*
G01X321Y4921D01*
G01X325Y4921D01*
G01X329Y4921D01*
G01X334Y4921D01*
G01X418Y4921D01*
G01X418Y4775D01*
G01X392Y4775D01*
G01X387Y4774D01*
G01X383Y4774D01*
G01X379Y4774D01*
G01X375Y4773D01*
G01X371Y4772D01*
G01X367Y4771D01*
G01X363Y4770D01*
G01X359Y4769D01*
G01X355Y4768D01*
G01X351Y4766D01*
G01X348Y4764D01*
G01X344Y4762D01*
G01X340Y4760D01*
G01X337Y4758D01*
G01X333Y4756D01*
G01X330Y4753D01*
G01X327Y4751D01*
G01X324Y4748D01*
G01X321Y4745D01*
G01X318Y4742D01*
G01X315Y4739D01*
G01X313Y4736D01*
G01X310Y4733D01*
G01X308Y4729D01*
G01X306Y4726D01*
G01X304Y4722D01*
G01X302Y4718D01*
G01X300Y4715D01*
G01X298Y4711D01*
G01X297Y4707D01*
G01X296Y4703D01*
G01X295Y4699D01*
G01X294Y4695D01*
G01X293Y4691D01*
G01X292Y4687D01*
G01X292Y4683D01*
G01X292Y4679D01*
G01X292Y4675D01*
G01X292Y4280D01*
G01X292Y4276D01*
G01X292Y4272D01*
G01X292Y4268D01*
G01X293Y4264D01*
G01X294Y4260D01*
G01X295Y4256D01*
G01X296Y4252D01*
G01X297Y4248D01*
G01X298Y4244D01*
G01X300Y4240D01*
G01X302Y4237D01*
G01X304Y4233D01*
G01X306Y4229D01*
G01X308Y4226D01*
G01X310Y4222D01*
G01X313Y4219D01*
G01X315Y4216D01*
G01X318Y4213D01*
G01X321Y4210D01*
G01X324Y4207D01*
G01X327Y4204D01*
G01X330Y4202D01*
G01X333Y4199D01*
G01X337Y4197D01*
G01X340Y4195D01*
G01X344Y4193D01*
G01X348Y4191D01*
G01X351Y4189D01*
G01X355Y4187D01*
G01X359Y4186D01*
G01X363Y4185D01*
G01X367Y4184D01*
G01X371Y4183D01*
G01X375Y4182D01*
G01X379Y4181D01*
G01X383Y4181D01*
G01X387Y4181D01*
G01X392Y4180D01*
G37*
G36*
G01X7796Y4236D02*
G01X8005Y4236D01*
G01X8005Y4335D01*
G01X8004Y4339D01*
G01X8004Y4343D01*
G01X8004Y4347D01*
G01X8003Y4351D01*
G01X8002Y4355D01*
G01X8001Y4359D01*
G01X8000Y4363D01*
G01X7999Y4367D01*
G01X7998Y4371D01*
G01X7996Y4375D01*
G01X7994Y4378D01*
G01X7992Y4382D01*
G01X7990Y4386D01*
G01X7988Y4389D01*
G01X7986Y4393D01*
G01X7983Y4396D01*
G01X7981Y4399D01*
G01X7978Y4402D01*
G01X7975Y4405D01*
G01X7972Y4408D01*
G01X7969Y4411D01*
G01X7966Y4413D01*
G01X7963Y4416D01*
G01X7959Y4418D01*
G01X7956Y4420D01*
G01X7952Y4422D01*
G01X7948Y4424D01*
G01X7945Y4426D01*
G01X7941Y4428D01*
G01X7937Y4429D01*
G01X7933Y4430D01*
G01X7929Y4431D01*
G01X7925Y4432D01*
G01X7921Y4433D01*
G01X7917Y4434D01*
G01X7913Y4434D01*
G01X7909Y4434D01*
G01X7905Y4435D01*
G01X7796Y4435D01*
G01X7796Y4236D01*
G37*
G36*
G01X7372Y4236D02*
G01X7580Y4236D01*
G01X7580Y4435D01*
G01X7472Y4435D01*
G01X7467Y4434D01*
G01X7463Y4434D01*
G01X7459Y4434D01*
G01X7455Y4433D01*
G01X7451Y4432D01*
G01X7447Y4431D01*
G01X7443Y4430D01*
G01X7439Y4429D01*
G01X7435Y4428D01*
G01X7431Y4426D01*
G01X7428Y4424D01*
G01X7424Y4422D01*
G01X7420Y4420D01*
G01X7417Y4418D01*
G01X7413Y4416D01*
G01X7410Y4413D01*
G01X7407Y4411D01*
G01X7404Y4408D01*
G01X7401Y4405D01*
G01X7398Y4402D01*
G01X7395Y4399D01*
G01X7393Y4396D01*
G01X7390Y4393D01*
G01X7388Y4389D01*
G01X7386Y4386D01*
G01X7384Y4382D01*
G01X7382Y4378D01*
G01X7380Y4375D01*
G01X7378Y4371D01*
G01X7377Y4367D01*
G01X7376Y4363D01*
G01X7375Y4359D01*
G01X7374Y4355D01*
G01X7373Y4351D01*
G01X7372Y4347D01*
G01X7372Y4343D01*
G01X7372Y4339D01*
G01X7372Y4335D01*
G01X7372Y4236D01*
G37*
G36*
G01X7472Y4471D02*
G01X7905Y4471D01*
G01X7909Y4471D01*
G01X7913Y4471D01*
G01X7917Y4471D01*
G01X7921Y4472D01*
G01X7925Y4473D01*
G01X7929Y4474D01*
G01X7933Y4475D01*
G01X7937Y4476D01*
G01X7941Y4477D01*
G01X7945Y4479D01*
G01X7948Y4481D01*
G01X7952Y4483D01*
G01X7956Y4485D01*
G01X7959Y4487D01*
G01X7963Y4489D01*
G01X7966Y4492D01*
G01X7969Y4494D01*
G01X7972Y4497D01*
G01X7975Y4500D01*
G01X7978Y4503D01*
G01X7981Y4506D01*
G01X7983Y4509D01*
G01X7986Y4512D01*
G01X7988Y4516D01*
G01X7990Y4519D01*
G01X7992Y4523D01*
G01X7994Y4527D01*
G01X7996Y4530D01*
G01X7998Y4534D01*
G01X7999Y4538D01*
G01X8000Y4542D01*
G01X8001Y4546D01*
G01X8002Y4550D01*
G01X8003Y4554D01*
G01X8004Y4558D01*
G01X8004Y4562D01*
G01X8004Y4566D01*
G01X8005Y4571D01*
G01X8005Y4965D01*
G01X8004Y4969D01*
G01X8004Y4973D01*
G01X8004Y4977D01*
G01X8003Y4981D01*
G01X8002Y4985D01*
G01X8001Y4989D01*
G01X8000Y4993D01*
G01X7999Y4997D01*
G01X7998Y5001D01*
G01X7996Y5005D01*
G01X7994Y5008D01*
G01X7992Y5012D01*
G01X7990Y5016D01*
G01X7988Y5019D01*
G01X7986Y5023D01*
G01X7983Y5026D01*
G01X7981Y5029D01*
G01X7978Y5032D01*
G01X7975Y5035D01*
G01X7972Y5038D01*
G01X7969Y5041D01*
G01X7966Y5043D01*
G01X7963Y5046D01*
G01X7959Y5048D01*
G01X7956Y5050D01*
G01X7952Y5052D01*
G01X7948Y5054D01*
G01X7945Y5056D01*
G01X7941Y5058D01*
G01X7937Y5059D01*
G01X7933Y5060D01*
G01X7929Y5061D01*
G01X7925Y5062D01*
G01X7921Y5063D01*
G01X7917Y5064D01*
G01X7913Y5064D01*
G01X7909Y5064D01*
G01X7905Y5065D01*
G01X7481Y5065D01*
G01X7477Y5066D01*
G01X7472Y5068D01*
G01X7466Y5069D01*
G01X7461Y5070D01*
G01X7456Y5071D01*
G01X7450Y5072D01*
G01X7445Y5073D01*
G01X7439Y5073D01*
G01X7434Y5073D01*
G01X7428Y5074D01*
G01X6945Y5074D01*
G01X6919Y5100D01*
G01X6919Y5485D01*
G01X6931Y5483D01*
G01X6953Y5482D01*
G01X6975Y5482D01*
G01X6997Y5485D01*
G01X7019Y5490D01*
G01X7040Y5497D01*
G01X7060Y5506D01*
G01X7079Y5517D01*
G01X7097Y5530D01*
G01X7114Y5545D01*
G01X7129Y5561D01*
G01X7142Y5578D01*
G01X7153Y5597D01*
G01X7163Y5617D01*
G01X7171Y5638D01*
G01X7176Y5660D01*
G01X7179Y5681D01*
G01X7180Y5703D01*
G01X7179Y5726D01*
G01X7176Y5747D01*
G01X7171Y5769D01*
G01X7163Y5790D01*
G01X7153Y5810D01*
G01X7142Y5829D01*
G01X7129Y5846D01*
G01X7114Y5862D01*
G01X7097Y5877D01*
G01X7079Y5890D01*
G01X7060Y5901D01*
G01X7040Y5910D01*
G01X7019Y5917D01*
G01X6997Y5922D01*
G01X6975Y5925D01*
G01X6953Y5925D01*
G01X6931Y5924D01*
G01X6909Y5920D01*
G01X6888Y5914D01*
G01X6867Y5906D01*
G01X6848Y5896D01*
G01X6829Y5884D01*
G01X6812Y5870D01*
G01X6805Y5863D01*
G01X6803Y5863D01*
G01X6798Y5863D01*
G01X6792Y5863D01*
G01X6787Y5862D01*
G01X6781Y5861D01*
G01X6776Y5860D01*
G01X6771Y5859D01*
G01X6765Y5858D01*
G01X6760Y5856D01*
G01X6755Y5854D01*
G01X6750Y5852D01*
G01X6745Y5850D01*
G01X6740Y5848D01*
G01X6735Y5846D01*
G01X6730Y5843D01*
G01X6725Y5840D01*
G01X6721Y5837D01*
G01X6716Y5834D01*
G01X6712Y5831D01*
G01X6708Y5828D01*
G01X6703Y5824D01*
G01X6699Y5820D01*
G01X6699Y5820D01*
G01X6699Y6334D01*
G01X6755Y6293D01*
G01X6758Y6279D01*
G01X6765Y6258D01*
G01X6773Y6237D01*
G01X6784Y6218D01*
G01X6797Y6199D01*
G01X6811Y6182D01*
G01X6827Y6167D01*
G01X6844Y6153D01*
G01X6863Y6141D01*
G01X6882Y6131D01*
G01X6903Y6123D01*
G01X6924Y6117D01*
G01X6946Y6113D01*
G01X6968Y6112D01*
G01X6990Y6112D01*
G01X7012Y6115D01*
G01X7034Y6120D01*
G01X7055Y6127D01*
G01X7075Y6136D01*
G01X7094Y6147D01*
G01X7112Y6160D01*
G01X7129Y6175D01*
G01X7144Y6191D01*
G01X7157Y6208D01*
G01X7168Y6227D01*
G01X7178Y6247D01*
G01X7186Y6268D01*
G01X7191Y6290D01*
G01X7194Y6311D01*
G01X7196Y6334D01*
G01X7194Y6356D01*
G01X7191Y6377D01*
G01X7186Y6399D01*
G01X7178Y6420D01*
G01X7168Y6440D01*
G01X7157Y6459D01*
G01X7144Y6476D01*
G01X7129Y6492D01*
G01X7112Y6507D01*
G01X7094Y6520D01*
G01X7075Y6531D01*
G01X7055Y6540D01*
G01X7034Y6547D01*
G01X7012Y6552D01*
G01X6990Y6555D01*
G01X6968Y6555D01*
G01X6946Y6554D01*
G01X6942Y6553D01*
G01X6939Y6556D01*
G01X6939Y7387D01*
G01X6975Y7424D01*
G01X7263Y7424D01*
G01X7263Y7193D01*
G01X7263Y7188D01*
G01X7263Y7184D01*
G01X7263Y7180D01*
G01X7264Y7176D01*
G01X7265Y7172D01*
G01X7266Y7168D01*
G01X7267Y7164D01*
G01X7268Y7160D01*
G01X7269Y7156D01*
G01X7271Y7152D01*
G01X7273Y7149D01*
G01X7275Y7145D01*
G01X7277Y7141D01*
G01X7279Y7138D01*
G01X7281Y7134D01*
G01X7284Y7131D01*
G01X7286Y7128D01*
G01X7289Y7125D01*
G01X7292Y7122D01*
G01X7295Y7119D01*
G01X7298Y7116D01*
G01X7301Y7114D01*
G01X7304Y7111D01*
G01X7308Y7109D01*
G01X7311Y7107D01*
G01X7315Y7105D01*
G01X7319Y7103D01*
G01X7322Y7101D01*
G01X7326Y7099D01*
G01X7330Y7098D01*
G01X7334Y7097D01*
G01X7338Y7096D01*
G01X7342Y7095D01*
G01X7346Y7094D01*
G01X7350Y7093D01*
G01X7354Y7093D01*
G01X7358Y7093D01*
G01X7363Y7093D01*
G01X7796Y7093D01*
G01X7800Y7093D01*
G01X7804Y7093D01*
G01X7808Y7093D01*
G01X7812Y7094D01*
G01X7816Y7095D01*
G01X7820Y7096D01*
G01X7824Y7097D01*
G01X7828Y7098D01*
G01X7832Y7099D01*
G01X7836Y7101D01*
G01X7839Y7103D01*
G01X7843Y7105D01*
G01X7847Y7107D01*
G01X7850Y7109D01*
G01X7854Y7111D01*
G01X7857Y7114D01*
G01X7860Y7116D01*
G01X7863Y7119D01*
G01X7866Y7122D01*
G01X7869Y7125D01*
G01X7872Y7128D01*
G01X7874Y7131D01*
G01X7877Y7134D01*
G01X7879Y7138D01*
G01X7881Y7141D01*
G01X7883Y7145D01*
G01X7885Y7149D01*
G01X7887Y7152D01*
G01X7889Y7156D01*
G01X7890Y7160D01*
G01X7891Y7164D01*
G01X7892Y7168D01*
G01X7893Y7172D01*
G01X7894Y7176D01*
G01X7895Y7180D01*
G01X7895Y7184D01*
G01X7895Y7188D01*
G01X7896Y7193D01*
G01X7896Y7587D01*
G01X7895Y7591D01*
G01X7895Y7595D01*
G01X7895Y7599D01*
G01X7894Y7603D01*
G01X7893Y7607D01*
G01X7892Y7611D01*
G01X7891Y7615D01*
G01X7890Y7619D01*
G01X7889Y7623D01*
G01X7887Y7627D01*
G01X7885Y7630D01*
G01X7883Y7634D01*
G01X7881Y7638D01*
G01X7879Y7641D01*
G01X7877Y7645D01*
G01X7874Y7648D01*
G01X7872Y7651D01*
G01X7869Y7654D01*
G01X7866Y7657D01*
G01X7863Y7660D01*
G01X7860Y7663D01*
G01X7857Y7665D01*
G01X7854Y7668D01*
G01X7850Y7670D01*
G01X7847Y7672D01*
G01X7843Y7674D01*
G01X7839Y7676D01*
G01X7836Y7678D01*
G01X7832Y7680D01*
G01X7828Y7681D01*
G01X7824Y7682D01*
G01X7820Y7683D01*
G01X7816Y7684D01*
G01X7812Y7685D01*
G01X7808Y7686D01*
G01X7804Y7686D01*
G01X7800Y7686D01*
G01X7796Y7687D01*
G01X7482Y7687D01*
G01X7472Y7697D01*
G01X7468Y7700D01*
G01X7464Y7704D01*
G01X7459Y7708D01*
G01X7455Y7711D01*
G01X7451Y7714D01*
G01X7446Y7717D01*
G01X7442Y7720D01*
G01X7437Y7723D01*
G01X7432Y7726D01*
G01X7427Y7728D01*
G01X7422Y7730D01*
G01X7417Y7732D01*
G01X7412Y7734D01*
G01X7407Y7736D01*
G01X7402Y7738D01*
G01X7396Y7739D01*
G01X7391Y7740D01*
G01X7386Y7741D01*
G01X7380Y7742D01*
G01X7375Y7743D01*
G01X7369Y7743D01*
G01X7364Y7743D01*
G01X7359Y7744D01*
G01X6995Y7744D01*
G01X7068Y7817D01*
G01X7312Y7817D01*
G01X7316Y7817D01*
G01X7320Y7817D01*
G01X7324Y7817D01*
G01X7328Y7818D01*
G01X7332Y7819D01*
G01X7336Y7820D01*
G01X7340Y7821D01*
G01X7344Y7822D01*
G01X7348Y7823D01*
G01X7352Y7825D01*
G01X7355Y7827D01*
G01X7359Y7829D01*
G01X7363Y7831D01*
G01X7366Y7833D01*
G01X7370Y7835D01*
G01X7373Y7838D01*
G01X7376Y7840D01*
G01X7379Y7843D01*
G01X7382Y7846D01*
G01X7385Y7849D01*
G01X7388Y7852D01*
G01X7390Y7855D01*
G01X7393Y7858D01*
G01X7395Y7862D01*
G01X7397Y7865D01*
G01X7399Y7869D01*
G01X7401Y7873D01*
G01X7403Y7876D01*
G01X7405Y7880D01*
G01X7406Y7884D01*
G01X7407Y7888D01*
G01X7408Y7892D01*
G01X7409Y7896D01*
G01X7410Y7900D01*
G01X7411Y7904D01*
G01X7411Y7908D01*
G01X7411Y7912D01*
G01X7412Y7917D01*
G01X7412Y8350D01*
G01X7411Y8354D01*
G01X7411Y8358D01*
G01X7411Y8362D01*
G01X7410Y8366D01*
G01X7409Y8370D01*
G01X7408Y8374D01*
G01X7407Y8378D01*
G01X7406Y8382D01*
G01X7405Y8386D01*
G01X7403Y8390D01*
G01X7401Y8393D01*
G01X7399Y8397D01*
G01X7397Y8401D01*
G01X7395Y8404D01*
G01X7393Y8408D01*
G01X7390Y8411D01*
G01X7388Y8414D01*
G01X7385Y8417D01*
G01X7382Y8420D01*
G01X7379Y8423D01*
G01X7376Y8426D01*
G01X7373Y8428D01*
G01X7370Y8431D01*
G01X7366Y8433D01*
G01X7363Y8435D01*
G01X7359Y8437D01*
G01X7355Y8439D01*
G01X7352Y8441D01*
G01X7348Y8443D01*
G01X7344Y8444D01*
G01X7340Y8445D01*
G01X7336Y8446D01*
G01X7332Y8447D01*
G01X7328Y8448D01*
G01X7324Y8449D01*
G01X7320Y8449D01*
G01X7316Y8449D01*
G01X7312Y8450D01*
G01X6918Y8450D01*
G01X6913Y8449D01*
G01X6909Y8449D01*
G01X6905Y8449D01*
G01X6901Y8448D01*
G01X6897Y8447D01*
G01X6893Y8446D01*
G01X6889Y8445D01*
G01X6885Y8444D01*
G01X6881Y8443D01*
G01X6877Y8441D01*
G01X6874Y8439D01*
G01X6870Y8437D01*
G01X6866Y8435D01*
G01X6863Y8433D01*
G01X6859Y8431D01*
G01X6856Y8428D01*
G01X6853Y8426D01*
G01X6850Y8423D01*
G01X6847Y8420D01*
G01X6844Y8417D01*
G01X6841Y8414D01*
G01X6839Y8411D01*
G01X6836Y8408D01*
G01X6834Y8404D01*
G01X6832Y8401D01*
G01X6830Y8397D01*
G01X6828Y8393D01*
G01X6826Y8390D01*
G01X6824Y8386D01*
G01X6823Y8382D01*
G01X6822Y8378D01*
G01X6821Y8374D01*
G01X6820Y8370D01*
G01X6819Y8366D01*
G01X6818Y8362D01*
G01X6818Y8358D01*
G01X6818Y8354D01*
G01X6818Y8350D01*
G01X6818Y8019D01*
G01X6442Y7644D01*
G01X6075Y7644D01*
G01X6036Y7683D01*
G01X6036Y7782D01*
G01X6046Y7793D01*
G01X6059Y7810D01*
G01X6070Y7829D01*
G01X6080Y7849D01*
G01X6088Y7870D01*
G01X6093Y7892D01*
G01X6096Y7913D01*
G01X6098Y7936D01*
G01X6096Y7958D01*
G01X6093Y7979D01*
G01X6088Y8001D01*
G01X6080Y8022D01*
G01X6070Y8042D01*
G01X6059Y8061D01*
G01X6046Y8078D01*
G01X6031Y8094D01*
G01X6014Y8109D01*
G01X5996Y8122D01*
G01X5977Y8133D01*
G01X5957Y8142D01*
G01X5936Y8149D01*
G01X5914Y8154D01*
G01X5892Y8157D01*
G01X5870Y8157D01*
G01X5848Y8156D01*
G01X5826Y8152D01*
G01X5805Y8146D01*
G01X5784Y8138D01*
G01X5765Y8128D01*
G01X5746Y8116D01*
G01X5729Y8102D01*
G01X5713Y8087D01*
G01X5699Y8070D01*
G01X5686Y8051D01*
G01X5675Y8032D01*
G01X5667Y8011D01*
G01X5660Y7990D01*
G01X5656Y7969D01*
G01X5654Y7947D01*
G01X5654Y7924D01*
G01X5656Y7902D01*
G01X5660Y7881D01*
G01X5667Y7860D01*
G01X5675Y7839D01*
G01X5686Y7820D01*
G01X5699Y7801D01*
G01X5713Y7785D01*
G01X5716Y7782D01*
G01X5716Y7617D01*
G01X5716Y7611D01*
G01X5716Y7606D01*
G01X5716Y7600D01*
G01X5717Y7595D01*
G01X5718Y7589D01*
G01X5719Y7584D01*
G01X5720Y7579D01*
G01X5721Y7573D01*
G01X5723Y7568D01*
G01X5725Y7563D01*
G01X5727Y7558D01*
G01X5729Y7553D01*
G01X5731Y7548D01*
G01X5733Y7543D01*
G01X5736Y7538D01*
G01X5739Y7533D01*
G01X5742Y7529D01*
G01X5745Y7524D01*
G01X5748Y7520D01*
G01X5751Y7516D01*
G01X5755Y7511D01*
G01X5759Y7507D01*
G01X5762Y7503D01*
G01X5895Y7370D01*
G01X5899Y7367D01*
G01X5903Y7363D01*
G01X5908Y7359D01*
G01X5912Y7356D01*
G01X5916Y7353D01*
G01X5921Y7350D01*
G01X5925Y7347D01*
G01X5930Y7344D01*
G01X5935Y7341D01*
G01X5940Y7339D01*
G01X5945Y7337D01*
G01X5950Y7335D01*
G01X5955Y7333D01*
G01X5960Y7331D01*
G01X5965Y7329D01*
G01X5971Y7328D01*
G01X5976Y7327D01*
G01X5981Y7326D01*
G01X5987Y7325D01*
G01X5992Y7324D01*
G01X5998Y7324D01*
G01X6003Y7324D01*
G01X6009Y7324D01*
G01X6509Y7324D01*
G01X6514Y7324D01*
G01X6519Y7324D01*
G01X6525Y7324D01*
G01X6530Y7325D01*
G01X6536Y7326D01*
G01X6541Y7327D01*
G01X6546Y7328D01*
G01X6552Y7329D01*
G01X6557Y7331D01*
G01X6562Y7333D01*
G01X6567Y7335D01*
G01X6572Y7337D01*
G01X6577Y7339D01*
G01X6582Y7341D01*
G01X6587Y7344D01*
G01X6592Y7347D01*
G01X6596Y7350D01*
G01X6601Y7353D01*
G01X6605Y7356D01*
G01X6609Y7359D01*
G01X6614Y7363D01*
G01X6618Y7367D01*
G01X6619Y7367D01*
G01X6619Y6986D01*
G01X6610Y6991D01*
G01X6590Y7000D01*
G01X6569Y7007D01*
G01X6547Y7012D01*
G01X6525Y7015D01*
G01X6503Y7015D01*
G01X6481Y7014D01*
G01X6459Y7010D01*
G01X6438Y7004D01*
G01X6417Y6996D01*
G01X6398Y6986D01*
G01X6379Y6974D01*
G01X6362Y6960D01*
G01X6346Y6945D01*
G01X6332Y6928D01*
G01X6319Y6909D01*
G01X6308Y6890D01*
G01X6300Y6869D01*
G01X6293Y6848D01*
G01X6289Y6827D01*
G01X6287Y6805D01*
G01X6287Y6782D01*
G01X6289Y6760D01*
G01X6293Y6739D01*
G01X6300Y6718D01*
G01X6308Y6697D01*
G01X6319Y6679D01*
G01X6319Y6359D01*
G01X6318Y6359D01*
G01X6314Y6360D01*
G01X6310Y6361D01*
G01X6306Y6361D01*
G01X6302Y6361D01*
G01X6298Y6362D01*
G01X5720Y6362D01*
G01X5715Y6361D01*
G01X5711Y6361D01*
G01X5707Y6361D01*
G01X5703Y6360D01*
G01X5699Y6359D01*
G01X5695Y6358D01*
G01X5691Y6357D01*
G01X5687Y6356D01*
G01X5683Y6355D01*
G01X5679Y6353D01*
G01X5676Y6351D01*
G01X5672Y6349D01*
G01X5668Y6347D01*
G01X5665Y6345D01*
G01X5661Y6343D01*
G01X5658Y6340D01*
G01X5655Y6338D01*
G01X5652Y6335D01*
G01X5649Y6332D01*
G01X5646Y6329D01*
G01X5643Y6326D01*
G01X5641Y6323D01*
G01X5638Y6320D01*
G01X5636Y6316D01*
G01X5634Y6313D01*
G01X5632Y6309D01*
G01X5630Y6305D01*
G01X5628Y6302D01*
G01X5626Y6298D01*
G01X5625Y6294D01*
G01X5624Y6290D01*
G01X5623Y6286D01*
G01X5622Y6282D01*
G01X5621Y6278D01*
G01X5620Y6274D01*
G01X5620Y6270D01*
G01X5620Y6266D01*
G01X5620Y6262D01*
G01X5620Y6200D01*
G01X5385Y6200D01*
G01X5385Y6209D01*
G01X5384Y6213D01*
G01X5384Y6217D01*
G01X5384Y6221D01*
G01X5383Y6225D01*
G01X5382Y6229D01*
G01X5381Y6233D01*
G01X5380Y6237D01*
G01X5379Y6241D01*
G01X5378Y6245D01*
G01X5376Y6249D01*
G01X5374Y6252D01*
G01X5372Y6256D01*
G01X5370Y6260D01*
G01X5368Y6263D01*
G01X5366Y6267D01*
G01X5363Y6270D01*
G01X5361Y6273D01*
G01X5358Y6276D01*
G01X5355Y6279D01*
G01X5352Y6282D01*
G01X5349Y6285D01*
G01X5346Y6287D01*
G01X5343Y6290D01*
G01X5339Y6292D01*
G01X5336Y6294D01*
G01X5332Y6296D01*
G01X5328Y6298D01*
G01X5325Y6300D01*
G01X5321Y6302D01*
G01X5317Y6303D01*
G01X5313Y6304D01*
G01X5309Y6305D01*
G01X5305Y6306D01*
G01X5301Y6307D01*
G01X5297Y6308D01*
G01X5293Y6308D01*
G01X5289Y6308D01*
G01X5285Y6309D01*
G01X5028Y6309D01*
G01X5024Y6308D01*
G01X5020Y6308D01*
G01X5016Y6308D01*
G01X5012Y6307D01*
G01X5008Y6306D01*
G01X5004Y6305D01*
G01X5000Y6304D01*
G01X4996Y6303D01*
G01X4992Y6302D01*
G01X4988Y6300D01*
G01X4985Y6298D01*
G01X4981Y6296D01*
G01X4977Y6294D01*
G01X4974Y6292D01*
G01X4970Y6290D01*
G01X4967Y6287D01*
G01X4964Y6285D01*
G01X4961Y6282D01*
G01X4958Y6279D01*
G01X4955Y6276D01*
G01X4952Y6273D01*
G01X4950Y6270D01*
G01X4947Y6267D01*
G01X4945Y6263D01*
G01X4943Y6260D01*
G01X4941Y6256D01*
G01X4939Y6252D01*
G01X4937Y6249D01*
G01X4935Y6245D01*
G01X4934Y6241D01*
G01X4933Y6237D01*
G01X4932Y6233D01*
G01X4931Y6229D01*
G01X4930Y6225D01*
G01X4929Y6221D01*
G01X4929Y6217D01*
G01X4929Y6213D01*
G01X4928Y6209D01*
G01X4928Y5791D01*
G01X4929Y5786D01*
G01X4929Y5782D01*
G01X4929Y5778D01*
G01X4930Y5774D01*
G01X4931Y5770D01*
G01X4932Y5766D01*
G01X4933Y5762D01*
G01X4934Y5758D01*
G01X4935Y5754D01*
G01X4937Y5750D01*
G01X4939Y5747D01*
G01X4941Y5743D01*
G01X4943Y5739D01*
G01X4945Y5736D01*
G01X4947Y5732D01*
G01X4950Y5729D01*
G01X4952Y5726D01*
G01X4955Y5723D01*
G01X4958Y5720D01*
G01X4961Y5717D01*
G01X4964Y5714D01*
G01X4967Y5712D01*
G01X4970Y5709D01*
G01X4974Y5707D01*
G01X4977Y5705D01*
G01X4981Y5703D01*
G01X4985Y5701D01*
G01X4988Y5699D01*
G01X4992Y5697D01*
G01X4996Y5696D01*
G01X5000Y5695D01*
G01X5004Y5694D01*
G01X5008Y5693D01*
G01X5012Y5692D01*
G01X5016Y5691D01*
G01X5020Y5691D01*
G01X5024Y5691D01*
G01X5028Y5691D01*
G01X5285Y5691D01*
G01X5289Y5691D01*
G01X5293Y5691D01*
G01X5297Y5691D01*
G01X5301Y5692D01*
G01X5305Y5693D01*
G01X5309Y5694D01*
G01X5313Y5695D01*
G01X5317Y5696D01*
G01X5321Y5697D01*
G01X5325Y5699D01*
G01X5328Y5701D01*
G01X5332Y5703D01*
G01X5336Y5705D01*
G01X5339Y5707D01*
G01X5343Y5709D01*
G01X5346Y5712D01*
G01X5349Y5714D01*
G01X5352Y5717D01*
G01X5355Y5720D01*
G01X5358Y5723D01*
G01X5361Y5726D01*
G01X5363Y5729D01*
G01X5366Y5732D01*
G01X5368Y5736D01*
G01X5370Y5739D01*
G01X5372Y5743D01*
G01X5374Y5747D01*
G01X5376Y5750D01*
G01X5378Y5754D01*
G01X5379Y5758D01*
G01X5380Y5762D01*
G01X5381Y5766D01*
G01X5382Y5770D01*
G01X5383Y5774D01*
G01X5384Y5778D01*
G01X5384Y5782D01*
G01X5384Y5786D01*
G01X5385Y5791D01*
G01X5385Y5800D01*
G01X5620Y5800D01*
G01X5620Y5797D01*
G01X5620Y5793D01*
G01X5621Y5789D01*
G01X5622Y5785D01*
G01X5623Y5781D01*
G01X5624Y5777D01*
G01X5625Y5773D01*
G01X5626Y5769D01*
G01X5628Y5765D01*
G01X5630Y5762D01*
G01X5632Y5758D01*
G01X5634Y5754D01*
G01X5636Y5751D01*
G01X5638Y5747D01*
G01X5641Y5744D01*
G01X5643Y5741D01*
G01X5646Y5738D01*
G01X5649Y5735D01*
G01X5652Y5732D01*
G01X5655Y5729D01*
G01X5658Y5727D01*
G01X5661Y5724D01*
G01X5665Y5722D01*
G01X5668Y5720D01*
G01X5672Y5718D01*
G01X5676Y5716D01*
G01X5679Y5714D01*
G01X5683Y5712D01*
G01X5687Y5711D01*
G01X5691Y5710D01*
G01X5695Y5709D01*
G01X5699Y5708D01*
G01X5703Y5707D01*
G01X5707Y5706D01*
G01X5711Y5706D01*
G01X5715Y5706D01*
G01X5720Y5705D01*
G01X6298Y5705D01*
G01X6302Y5706D01*
G01X6306Y5706D01*
G01X6310Y5706D01*
G01X6314Y5707D01*
G01X6318Y5708D01*
G01X6318Y5708D01*
G01X6308Y5690D01*
G01X6300Y5669D01*
G01X6293Y5648D01*
G01X6289Y5627D01*
G01X6287Y5605D01*
G01X6287Y5582D01*
G01X6289Y5562D01*
G01X6153Y5562D01*
G01X6153Y5348D01*
G01X6398Y5348D01*
G01X6398Y5401D01*
G01X6417Y5391D01*
G01X6438Y5383D01*
G01X6459Y5377D01*
G01X6481Y5373D01*
G01X6503Y5372D01*
G01X6525Y5372D01*
G01X6547Y5375D01*
G01X6569Y5380D01*
G01X6590Y5387D01*
G01X6599Y5391D01*
G01X6599Y5034D01*
G01X6599Y5028D01*
G01X6599Y5023D01*
G01X6599Y5017D01*
G01X6600Y5012D01*
G01X6601Y5006D01*
G01X6602Y5001D01*
G01X6603Y4996D01*
G01X6604Y4990D01*
G01X6606Y4985D01*
G01X6608Y4980D01*
G01X6610Y4975D01*
G01X6612Y4970D01*
G01X6614Y4965D01*
G01X6616Y4960D01*
G01X6619Y4955D01*
G01X6622Y4950D01*
G01X6625Y4946D01*
G01X6628Y4941D01*
G01X6631Y4937D01*
G01X6634Y4933D01*
G01X6638Y4928D01*
G01X6642Y4924D01*
G01X6645Y4920D01*
G01X6765Y4800D01*
G01X6769Y4797D01*
G01X6773Y4793D01*
G01X6778Y4789D01*
G01X6782Y4786D01*
G01X6786Y4783D01*
G01X6791Y4780D01*
G01X6795Y4777D01*
G01X6800Y4774D01*
G01X6805Y4771D01*
G01X6810Y4769D01*
G01X6815Y4767D01*
G01X6820Y4765D01*
G01X6825Y4763D01*
G01X6830Y4761D01*
G01X6835Y4759D01*
G01X6841Y4758D01*
G01X6846Y4757D01*
G01X6851Y4756D01*
G01X6857Y4755D01*
G01X6862Y4754D01*
G01X6868Y4754D01*
G01X6873Y4754D01*
G01X6878Y4753D01*
G01X7362Y4753D01*
G01X7372Y4744D01*
G01X7372Y4571D01*
G01X7372Y4566D01*
G01X7372Y4562D01*
G01X7372Y4558D01*
G01X7373Y4554D01*
G01X7374Y4550D01*
G01X7375Y4546D01*
G01X7376Y4542D01*
G01X7377Y4538D01*
G01X7378Y4534D01*
G01X7380Y4530D01*
G01X7382Y4527D01*
G01X7384Y4523D01*
G01X7386Y4519D01*
G01X7388Y4516D01*
G01X7390Y4512D01*
G01X7393Y4509D01*
G01X7395Y4506D01*
G01X7398Y4503D01*
G01X7401Y4500D01*
G01X7404Y4497D01*
G01X7407Y4494D01*
G01X7410Y4492D01*
G01X7413Y4489D01*
G01X7417Y4487D01*
G01X7420Y4485D01*
G01X7424Y4483D01*
G01X7428Y4481D01*
G01X7431Y4479D01*
G01X7435Y4477D01*
G01X7439Y4476D01*
G01X7443Y4475D01*
G01X7447Y4474D01*
G01X7451Y4473D01*
G01X7455Y4472D01*
G01X7459Y4471D01*
G01X7463Y4471D01*
G01X7467Y4471D01*
G01X7472Y4471D01*
G37*
G36*
G01X6188Y4527D02*
G01X6467Y4527D01*
G01X6467Y4661D01*
G01X6466Y4665D01*
G01X6466Y4669D01*
G01X6466Y4673D01*
G01X6465Y4677D01*
G01X6464Y4681D01*
G01X6463Y4685D01*
G01X6462Y4689D01*
G01X6461Y4693D01*
G01X6460Y4697D01*
G01X6458Y4701D01*
G01X6456Y4704D01*
G01X6454Y4708D01*
G01X6452Y4712D01*
G01X6450Y4715D01*
G01X6448Y4719D01*
G01X6445Y4722D01*
G01X6443Y4725D01*
G01X6440Y4728D01*
G01X6437Y4731D01*
G01X6434Y4734D01*
G01X6431Y4737D01*
G01X6428Y4739D01*
G01X6425Y4742D01*
G01X6421Y4744D01*
G01X6418Y4746D01*
G01X6414Y4748D01*
G01X6410Y4750D01*
G01X6407Y4752D01*
G01X6403Y4754D01*
G01X6399Y4755D01*
G01X6395Y4756D01*
G01X6391Y4757D01*
G01X6387Y4758D01*
G01X6383Y4759D01*
G01X6379Y4760D01*
G01X6375Y4760D01*
G01X6371Y4760D01*
G01X6367Y4761D01*
G01X6188Y4761D01*
G01X6188Y4527D01*
G37*
G36*
G01X3998Y167D02*
G01X4096Y167D01*
G01X4096Y375D01*
G01X3898Y375D01*
G01X3898Y267D01*
G01X3898Y262D01*
G01X3898Y258D01*
G01X3898Y254D01*
G01X3899Y250D01*
G01X3900Y246D01*
G01X3901Y242D01*
G01X3902Y238D01*
G01X3903Y234D01*
G01X3904Y230D01*
G01X3906Y226D01*
G01X3908Y223D01*
G01X3910Y219D01*
G01X3912Y215D01*
G01X3914Y212D01*
G01X3916Y208D01*
G01X3919Y205D01*
G01X3921Y202D01*
G01X3924Y199D01*
G01X3927Y196D01*
G01X3930Y193D01*
G01X3933Y190D01*
G01X3936Y188D01*
G01X3939Y185D01*
G01X3943Y183D01*
G01X3946Y181D01*
G01X3950Y179D01*
G01X3954Y177D01*
G01X3957Y175D01*
G01X3961Y173D01*
G01X3965Y172D01*
G01X3969Y171D01*
G01X3973Y170D01*
G01X3977Y169D01*
G01X3981Y168D01*
G01X3985Y167D01*
G01X3989Y167D01*
G01X3993Y167D01*
G01X3998Y167D01*
G37*
G36*
G01X4703Y62D02*
G01X4725Y62D01*
G01X4747Y65D01*
G01X4769Y70D01*
G01X4790Y77D01*
G01X4810Y86D01*
G01X4829Y97D01*
G01X4847Y110D01*
G01X4864Y125D01*
G01X4879Y141D01*
G01X4892Y158D01*
G01X4903Y177D01*
G01X4913Y197D01*
G01X4921Y218D01*
G01X4926Y240D01*
G01X4929Y261D01*
G01X4930Y284D01*
G01X4929Y306D01*
G01X4926Y327D01*
G01X4921Y349D01*
G01X4913Y370D01*
G01X4903Y390D01*
G01X4899Y398D01*
G01X4899Y734D01*
G01X4898Y739D01*
G01X4898Y745D01*
G01X4898Y751D01*
G01X4897Y756D01*
G01X4896Y762D01*
G01X4895Y768D01*
G01X4894Y773D01*
G01X4893Y779D01*
G01X4892Y785D01*
G01X4890Y790D01*
G01X4888Y795D01*
G01X4886Y801D01*
G01X4884Y806D01*
G01X4882Y811D01*
G01X4879Y817D01*
G01X4877Y822D01*
G01X4874Y827D01*
G01X4871Y832D01*
G01X4868Y837D01*
G01X4865Y841D01*
G01X4862Y846D01*
G01X4858Y851D01*
G01X4854Y855D01*
G01X4851Y859D01*
G01X4847Y864D01*
G01X4843Y868D01*
G01X4467Y1244D01*
G01X4467Y1247D01*
G01X4468Y1251D01*
G01X4469Y1255D01*
G01X4469Y1259D01*
G01X4469Y1263D01*
G01X4470Y1268D01*
G01X4470Y1701D01*
G01X4469Y1705D01*
G01X4469Y1709D01*
G01X4469Y1713D01*
G01X4468Y1717D01*
G01X4467Y1721D01*
G01X4466Y1725D01*
G01X4465Y1729D01*
G01X4464Y1733D01*
G01X4463Y1737D01*
G01X4461Y1741D01*
G01X4459Y1744D01*
G01X4457Y1748D01*
G01X4455Y1752D01*
G01X4453Y1755D01*
G01X4451Y1759D01*
G01X4448Y1762D01*
G01X4446Y1765D01*
G01X4443Y1768D01*
G01X4440Y1771D01*
G01X4437Y1774D01*
G01X4434Y1777D01*
G01X4431Y1779D01*
G01X4428Y1782D01*
G01X4424Y1784D01*
G01X4421Y1786D01*
G01X4417Y1788D01*
G01X4413Y1790D01*
G01X4410Y1792D01*
G01X4406Y1794D01*
G01X4402Y1795D01*
G01X4398Y1796D01*
G01X4394Y1797D01*
G01X4390Y1798D01*
G01X4386Y1799D01*
G01X4382Y1800D01*
G01X4378Y1800D01*
G01X4374Y1800D01*
G01X4370Y1801D01*
G01X3976Y1801D01*
G01X3971Y1800D01*
G01X3967Y1800D01*
G01X3963Y1800D01*
G01X3959Y1799D01*
G01X3955Y1798D01*
G01X3951Y1797D01*
G01X3947Y1796D01*
G01X3943Y1795D01*
G01X3939Y1794D01*
G01X3935Y1792D01*
G01X3932Y1790D01*
G01X3928Y1788D01*
G01X3924Y1786D01*
G01X3921Y1784D01*
G01X3917Y1782D01*
G01X3914Y1779D01*
G01X3911Y1777D01*
G01X3908Y1774D01*
G01X3905Y1771D01*
G01X3902Y1768D01*
G01X3899Y1765D01*
G01X3897Y1762D01*
G01X3894Y1759D01*
G01X3892Y1755D01*
G01X3890Y1752D01*
G01X3888Y1748D01*
G01X3886Y1744D01*
G01X3884Y1741D01*
G01X3882Y1737D01*
G01X3881Y1733D01*
G01X3880Y1729D01*
G01X3879Y1725D01*
G01X3878Y1721D01*
G01X3877Y1717D01*
G01X3876Y1713D01*
G01X3876Y1709D01*
G01X3876Y1705D01*
G01X3876Y1701D01*
G01X3876Y1653D01*
G01X3791Y1653D01*
G01X3792Y1655D01*
G01X3792Y1658D01*
G01X3794Y1663D01*
G01X3794Y1666D01*
G01X3795Y1672D01*
G01X3795Y1675D01*
G01X3796Y1680D01*
G01X3796Y1683D01*
G01X3796Y1689D01*
G01X3796Y1692D01*
G01X3796Y1698D01*
G01X3796Y1701D01*
G01X3795Y1706D01*
G01X3795Y1709D01*
G01X3794Y1715D01*
G01X3794Y1718D01*
G01X3792Y1723D01*
G01X3792Y1726D01*
G01X3791Y1731D01*
G01X3790Y1734D01*
G01X3788Y1739D01*
G01X3787Y1742D01*
G01X3785Y1747D01*
G01X3784Y1750D01*
G01X3782Y1755D01*
G01X3780Y1758D01*
G01X3778Y1763D01*
G01X3777Y1766D01*
G01X3774Y1771D01*
G01X3772Y1773D01*
G01X3769Y1778D01*
G01X3767Y1780D01*
G01X3764Y1784D01*
G01X3762Y1787D01*
G01X3761Y1789D01*
G01X3762Y1791D01*
G01X3764Y1794D01*
G01X3767Y1798D01*
G01X3769Y1800D01*
G01X3772Y1805D01*
G01X3774Y1807D01*
G01X3777Y1812D01*
G01X3778Y1815D01*
G01X3780Y1820D01*
G01X3782Y1823D01*
G01X3784Y1828D01*
G01X3785Y1831D01*
G01X3787Y1836D01*
G01X3788Y1839D01*
G01X3790Y1844D01*
G01X3791Y1847D01*
G01X3792Y1852D01*
G01X3792Y1855D01*
G01X3794Y1860D01*
G01X3794Y1863D01*
G01X3795Y1869D01*
G01X3795Y1872D01*
G01X3796Y1877D01*
G01X3796Y1880D01*
G01X3796Y1886D01*
G01X3796Y1889D01*
G01X3796Y1895D01*
G01X3796Y1898D01*
G01X3795Y1903D01*
G01X3795Y1906D01*
G01X3794Y1912D01*
G01X3794Y1915D01*
G01X3792Y1920D01*
G01X3792Y1923D01*
G01X3791Y1928D01*
G01X3790Y1931D01*
G01X3788Y1936D01*
G01X3787Y1939D01*
G01X3785Y1944D01*
G01X3784Y1947D01*
G01X3782Y1951D01*
G01X3798Y1941D01*
G01X3817Y1931D01*
G01X3838Y1923D01*
G01X3859Y1917D01*
G01X3881Y1913D01*
G01X3903Y1912D01*
G01X3925Y1912D01*
G01X3947Y1915D01*
G01X3969Y1920D01*
G01X3990Y1927D01*
G01X4010Y1936D01*
G01X4029Y1947D01*
G01X4047Y1960D01*
G01X4064Y1975D01*
G01X4079Y1991D01*
G01X4092Y2008D01*
G01X4103Y2027D01*
G01X4113Y2047D01*
G01X4121Y2068D01*
G01X4126Y2090D01*
G01X4129Y2111D01*
G01X4130Y2134D01*
G01X4129Y2156D01*
G01X4126Y2177D01*
G01X4121Y2199D01*
G01X4113Y2220D01*
G01X4103Y2240D01*
G01X4092Y2259D01*
G01X4079Y2276D01*
G01X4069Y2287D01*
G01X4069Y2584D01*
G01X4068Y2589D01*
G01X4068Y2594D01*
G01X4068Y2600D01*
G01X4067Y2605D01*
G01X4066Y2611D01*
G01X4065Y2616D01*
G01X4064Y2621D01*
G01X4063Y2627D01*
G01X4061Y2632D01*
G01X4059Y2637D01*
G01X4057Y2642D01*
G01X4055Y2647D01*
G01X4053Y2652D01*
G01X4051Y2657D01*
G01X4048Y2662D01*
G01X4045Y2667D01*
G01X4042Y2671D01*
G01X4039Y2676D01*
G01X4036Y2680D01*
G01X4033Y2684D01*
G01X4029Y2689D01*
G01X4025Y2693D01*
G01X4022Y2697D01*
G01X3969Y2750D01*
G01X3969Y2780D01*
G01X3979Y2791D01*
G01X3992Y2808D01*
G01X4003Y2827D01*
G01X4013Y2847D01*
G01X4021Y2868D01*
G01X4026Y2890D01*
G01X4029Y2911D01*
G01X4030Y2934D01*
G01X4029Y2956D01*
G01X4026Y2977D01*
G01X4021Y2999D01*
G01X4013Y3020D01*
G01X4003Y3040D01*
G01X3992Y3059D01*
G01X3979Y3076D01*
G01X3964Y3092D01*
G01X3947Y3107D01*
G01X3929Y3120D01*
G01X3910Y3131D01*
G01X3890Y3140D01*
G01X3869Y3147D01*
G01X3847Y3152D01*
G01X3825Y3155D01*
G01X3803Y3155D01*
G01X3781Y3154D01*
G01X3759Y3150D01*
G01X3738Y3144D01*
G01X3717Y3136D01*
G01X3698Y3126D01*
G01X3679Y3114D01*
G01X3662Y3100D01*
G01X3646Y3085D01*
G01X3632Y3068D01*
G01X3619Y3049D01*
G01X3608Y3030D01*
G01X3600Y3009D01*
G01X3593Y2988D01*
G01X3589Y2967D01*
G01X3587Y2945D01*
G01X3587Y2922D01*
G01X3589Y2900D01*
G01X3593Y2879D01*
G01X3600Y2858D01*
G01X3608Y2837D01*
G01X3619Y2818D01*
G01X3632Y2799D01*
G01X3646Y2782D01*
G01X3649Y2780D01*
G01X3649Y2684D01*
G01X3649Y2678D01*
G01X3649Y2673D01*
G01X3649Y2667D01*
G01X3650Y2662D01*
G01X3651Y2656D01*
G01X3652Y2651D01*
G01X3653Y2646D01*
G01X3654Y2640D01*
G01X3656Y2635D01*
G01X3657Y2632D01*
G01X3655Y2632D01*
G01X3652Y2632D01*
G01X3647Y2633D01*
G01X3643Y2633D01*
G01X3641Y2633D01*
G01X3617Y2633D01*
G01X3617Y2505D01*
G01X3749Y2505D01*
G01X3749Y2450D01*
G01X3617Y2450D01*
G01X3617Y2436D01*
G01X3460Y2436D01*
G01X3460Y2450D01*
G01X3337Y2450D01*
G01X3337Y2505D01*
G01X3460Y2505D01*
G01X3460Y2633D01*
G01X3436Y2633D01*
G01X3434Y2633D01*
G01X3430Y2633D01*
G01X3425Y2632D01*
G01X3422Y2632D01*
G01X3416Y2631D01*
G01X3413Y2631D01*
G01X3408Y2630D01*
G01X3405Y2629D01*
G01X3399Y2628D01*
G01X3397Y2627D01*
G01X3391Y2626D01*
G01X3388Y2625D01*
G01X3383Y2623D01*
G01X3380Y2622D01*
G01X3375Y2620D01*
G01X3372Y2619D01*
G01X3368Y2617D01*
G01X3365Y2615D01*
G01X3360Y2613D01*
G01X3357Y2611D01*
G01X3353Y2608D01*
G01X3350Y2607D01*
G01X3346Y2603D01*
G01X3343Y2602D01*
G01X3339Y2598D01*
G01X3336Y2596D01*
G01X3332Y2593D01*
G01X3330Y2590D01*
G01X3326Y2587D01*
G01X3324Y2585D01*
G01X3320Y2581D01*
G01X3318Y2578D01*
G01X3315Y2574D01*
G01X3313Y2576D01*
G01X3310Y2579D01*
G01X3307Y2582D01*
G01X3304Y2585D01*
G01X3301Y2588D01*
G01X3298Y2590D01*
G01X3295Y2593D01*
G01X3296Y2593D01*
G01X3298Y2595D01*
G01X3302Y2598D01*
G01X3305Y2600D01*
G01X3309Y2603D01*
G01X3312Y2605D01*
G01X3316Y2609D01*
G01X3318Y2611D01*
G01X3321Y2615D01*
G01X3324Y2617D01*
G01X3327Y2621D01*
G01X3329Y2624D01*
G01X3333Y2628D01*
G01X3334Y2631D01*
G01X3338Y2635D01*
G01X3339Y2638D01*
G01X3342Y2642D01*
G01X3344Y2645D01*
G01X3346Y2650D01*
G01X3348Y2653D01*
G01X3350Y2657D01*
G01X3351Y2660D01*
G01X3353Y2665D01*
G01X3354Y2668D01*
G01X3356Y2673D01*
G01X3357Y2676D01*
G01X3358Y2682D01*
G01X3359Y2684D01*
G01X3360Y2690D01*
G01X3361Y2693D01*
G01X3362Y2698D01*
G01X3362Y2701D01*
G01X3363Y2707D01*
G01X3363Y2710D01*
G01X3364Y2715D01*
G01X3364Y2719D01*
G01X3364Y2721D01*
G01X3364Y2926D01*
G01X3364Y2928D01*
G01X3364Y2932D01*
G01X3363Y2937D01*
G01X3363Y2940D01*
G01X3362Y2946D01*
G01X3362Y2949D01*
G01X3361Y2954D01*
G01X3360Y2957D01*
G01X3359Y2963D01*
G01X3358Y2966D01*
G01X3357Y2971D01*
G01X3356Y2974D01*
G01X3354Y2979D01*
G01X3353Y2982D01*
G01X3351Y2987D01*
G01X3350Y2990D01*
G01X3348Y2995D01*
G01X3346Y2997D01*
G01X3344Y3002D01*
G01X3342Y3005D01*
G01X3339Y3009D01*
G01X3338Y3012D01*
G01X3334Y3016D01*
G01X3333Y3019D01*
G01X3329Y3023D01*
G01X3327Y3026D01*
G01X3324Y3030D01*
G01X3321Y3032D01*
G01X3318Y3036D01*
G01X3316Y3038D01*
G01X3312Y3042D01*
G01X3309Y3044D01*
G01X3305Y3047D01*
G01X3302Y3049D01*
G01X3298Y3052D01*
G01X3296Y3054D01*
G01X3291Y3057D01*
G01X3289Y3059D01*
G01X3284Y3062D01*
G01X3281Y3063D01*
G01X3276Y3065D01*
G01X3273Y3067D01*
G01X3268Y3069D01*
G01X3265Y3070D01*
G01X3260Y3072D01*
G01X3257Y3073D01*
G01X3252Y3075D01*
G01X3249Y3076D01*
G01X3244Y3077D01*
G01X3241Y3077D01*
G01X3236Y3079D01*
G01X3233Y3079D01*
G01X3227Y3080D01*
G01X3224Y3080D01*
G01X3219Y3081D01*
G01X3216Y3081D01*
G01X3210Y3081D01*
G01X3207Y3081D01*
G01X3201Y3081D01*
G01X3198Y3081D01*
G01X3193Y3080D01*
G01X3190Y3080D01*
G01X3184Y3079D01*
G01X3181Y3079D01*
G01X3176Y3077D01*
G01X3173Y3077D01*
G01X3169Y3076D01*
G01X3169Y3188D01*
G01X3210Y3188D01*
G01X3214Y3188D01*
G01X3218Y3188D01*
G01X3222Y3188D01*
G01X3226Y3189D01*
G01X3230Y3190D01*
G01X3234Y3191D01*
G01X3238Y3192D01*
G01X3242Y3193D01*
G01X3246Y3194D01*
G01X3250Y3196D01*
G01X3253Y3198D01*
G01X3257Y3200D01*
G01X3261Y3202D01*
G01X3264Y3204D01*
G01X3268Y3206D01*
G01X3271Y3209D01*
G01X3274Y3211D01*
G01X3277Y3214D01*
G01X3280Y3217D01*
G01X3283Y3220D01*
G01X3286Y3223D01*
G01X3288Y3226D01*
G01X3291Y3229D01*
G01X3293Y3233D01*
G01X3295Y3236D01*
G01X3297Y3240D01*
G01X3299Y3244D01*
G01X3301Y3247D01*
G01X3303Y3251D01*
G01X3304Y3255D01*
G01X3305Y3259D01*
G01X3306Y3263D01*
G01X3307Y3267D01*
G01X3308Y3271D01*
G01X3309Y3275D01*
G01X3309Y3279D01*
G01X3309Y3283D01*
G01X3310Y3288D01*
G01X3310Y3721D01*
G01X3309Y3724D01*
G01X3346Y3724D01*
G01X3346Y3721D01*
G01X3346Y3612D01*
G01X3544Y3612D01*
G01X3544Y3724D01*
G01X3741Y3724D01*
G01X3741Y3612D01*
G01X3940Y3612D01*
G01X3940Y3721D01*
G01X3939Y3724D01*
G01X4459Y3724D01*
G01X4459Y3647D01*
G01X4456Y3645D01*
G01X4442Y3628D01*
G01X4429Y3609D01*
G01X4418Y3590D01*
G01X4410Y3569D01*
G01X4403Y3548D01*
G01X4399Y3527D01*
G01X4397Y3505D01*
G01X4397Y3482D01*
G01X4399Y3460D01*
G01X4403Y3439D01*
G01X4410Y3418D01*
G01X4418Y3397D01*
G01X4429Y3378D01*
G01X4442Y3359D01*
G01X4456Y3343D01*
G01X4472Y3327D01*
G01X4489Y3313D01*
G01X4507Y3301D01*
G01X4527Y3291D01*
G01X4548Y3283D01*
G01X4569Y3277D01*
G01X4591Y3273D01*
G01X4613Y3272D01*
G01X4635Y3272D01*
G01X4657Y3275D01*
G01X4679Y3280D01*
G01X4700Y3287D01*
G01X4720Y3296D01*
G01X4739Y3307D01*
G01X4757Y3320D01*
G01X4774Y3335D01*
G01X4789Y3351D01*
G01X4802Y3368D01*
G01X4813Y3387D01*
G01X4823Y3407D01*
G01X4831Y3428D01*
G01X4836Y3450D01*
G01X4839Y3471D01*
G01X4841Y3494D01*
G01X4839Y3516D01*
G01X4836Y3537D01*
G01X4831Y3559D01*
G01X4823Y3580D01*
G01X4813Y3600D01*
G01X4802Y3619D01*
G01X4789Y3636D01*
G01X4778Y3647D01*
G01X4778Y3824D01*
G01X4778Y3829D01*
G01X4778Y3834D01*
G01X4778Y3840D01*
G01X4777Y3845D01*
G01X4776Y3851D01*
G01X4775Y3856D01*
G01X4774Y3861D01*
G01X4773Y3867D01*
G01X4771Y3872D01*
G01X4769Y3877D01*
G01X4767Y3882D01*
G01X4765Y3887D01*
G01X4763Y3892D01*
G01X4761Y3897D01*
G01X4758Y3902D01*
G01X4755Y3907D01*
G01X4752Y3911D01*
G01X4749Y3916D01*
G01X4746Y3920D01*
G01X4743Y3924D01*
G01X4739Y3929D01*
G01X4735Y3933D01*
G01X4732Y3937D01*
G01X4672Y3997D01*
G01X4668Y4000D01*
G01X4664Y4004D01*
G01X4659Y4008D01*
G01X4655Y4011D01*
G01X4651Y4014D01*
G01X4646Y4017D01*
G01X4642Y4020D01*
G01X4637Y4023D01*
G01X4632Y4026D01*
G01X5076Y4026D01*
G01X5081Y4026D01*
G01X5085Y4026D01*
G01X5089Y4026D01*
G01X5093Y4027D01*
G01X5097Y4028D01*
G01X5101Y4029D01*
G01X5105Y4030D01*
G01X5109Y4031D01*
G01X5113Y4032D01*
G01X5117Y4034D01*
G01X5120Y4036D01*
G01X5124Y4038D01*
G01X5128Y4040D01*
G01X5131Y4042D01*
G01X5135Y4044D01*
G01X5138Y4047D01*
G01X5141Y4049D01*
G01X5144Y4052D01*
G01X5147Y4055D01*
G01X5150Y4058D01*
G01X5153Y4061D01*
G01X5155Y4064D01*
G01X5158Y4067D01*
G01X5160Y4071D01*
G01X5162Y4074D01*
G01X5164Y4078D01*
G01X5166Y4082D01*
G01X5168Y4085D01*
G01X5170Y4089D01*
G01X5171Y4093D01*
G01X5172Y4097D01*
G01X5173Y4101D01*
G01X5174Y4105D01*
G01X5175Y4109D01*
G01X5176Y4113D01*
G01X5176Y4117D01*
G01X5176Y4121D01*
G01X5176Y4126D01*
G01X5176Y4398D01*
G01X5335Y4557D01*
G01X5340Y4561D01*
G01X5344Y4566D01*
G01X5349Y4571D01*
G01X5353Y4576D01*
G01X5357Y4581D01*
G01X5361Y4587D01*
G01X5365Y4592D01*
G01X5368Y4597D01*
G01X5372Y4603D01*
G01X5375Y4609D01*
G01X5378Y4614D01*
G01X5381Y4620D01*
G01X5384Y4626D01*
G01X5387Y4632D01*
G01X5389Y4638D01*
G01X5392Y4644D01*
G01X5394Y4650D01*
G01X5396Y4656D01*
G01X5398Y4663D01*
G01X5400Y4669D01*
G01X5402Y4675D01*
G01X5403Y4682D01*
G01X5404Y4688D01*
G01X5405Y4694D01*
G01X5406Y4701D01*
G01X5407Y4707D01*
G01X5408Y4714D01*
G01X5408Y4720D01*
G01X5408Y4727D01*
G01X5409Y4734D01*
G01X5409Y5132D01*
G01X5408Y5138D01*
G01X5408Y5145D01*
G01X5408Y5151D01*
G01X5407Y5158D01*
G01X5406Y5164D01*
G01X5405Y5171D01*
G01X5404Y5177D01*
G01X5403Y5183D01*
G01X5402Y5190D01*
G01X5400Y5196D01*
G01X5398Y5203D01*
G01X5396Y5209D01*
G01X5394Y5215D01*
G01X5392Y5221D01*
G01X5389Y5227D01*
G01X5387Y5233D01*
G01X5385Y5238D01*
G01X5385Y5343D01*
G01X5384Y5347D01*
G01X5384Y5351D01*
G01X5384Y5355D01*
G01X5383Y5359D01*
G01X5382Y5363D01*
G01X5381Y5367D01*
G01X5380Y5371D01*
G01X5379Y5375D01*
G01X5378Y5379D01*
G01X5376Y5383D01*
G01X5374Y5386D01*
G01X5372Y5390D01*
G01X5370Y5394D01*
G01X5368Y5397D01*
G01X5366Y5401D01*
G01X5363Y5404D01*
G01X5361Y5407D01*
G01X5358Y5410D01*
G01X5355Y5413D01*
G01X5352Y5416D01*
G01X5349Y5419D01*
G01X5346Y5421D01*
G01X5343Y5424D01*
G01X5339Y5426D01*
G01X5336Y5428D01*
G01X5332Y5430D01*
G01X5328Y5432D01*
G01X5325Y5434D01*
G01X5321Y5436D01*
G01X5317Y5437D01*
G01X5313Y5438D01*
G01X5309Y5439D01*
G01X5305Y5440D01*
G01X5301Y5441D01*
G01X5297Y5442D01*
G01X5293Y5442D01*
G01X5289Y5442D01*
G01X5285Y5443D01*
G01X5028Y5443D01*
G01X5024Y5442D01*
G01X5020Y5442D01*
G01X5016Y5442D01*
G01X5012Y5441D01*
G01X5008Y5440D01*
G01X5004Y5439D01*
G01X5000Y5438D01*
G01X4996Y5437D01*
G01X4992Y5436D01*
G01X4988Y5434D01*
G01X4985Y5432D01*
G01X4981Y5430D01*
G01X4977Y5428D01*
G01X4974Y5426D01*
G01X4970Y5424D01*
G01X4970Y5423D01*
G01X4969Y5424D01*
G01X4965Y5426D01*
G01X4962Y5428D01*
G01X4958Y5430D01*
G01X4954Y5432D01*
G01X4951Y5434D01*
G01X4947Y5436D01*
G01X4943Y5437D01*
G01X4939Y5438D01*
G01X4935Y5439D01*
G01X4931Y5440D01*
G01X4927Y5441D01*
G01X4923Y5442D01*
G01X4919Y5442D01*
G01X4915Y5442D01*
G01X4911Y5443D01*
G01X4846Y5443D01*
G01X4846Y5442D01*
G01X4846Y5238D01*
G01X4928Y5238D01*
G01X4928Y5236D01*
G01X4927Y5233D01*
G01X4923Y5222D01*
G01X4919Y5210D01*
G01X4915Y5198D01*
G01X4912Y5186D01*
G01X4910Y5174D01*
G01X4908Y5161D01*
G01X4907Y5149D01*
G01X4907Y5137D01*
G01X4907Y5124D01*
G01X4907Y5112D01*
G01X4909Y5102D01*
G01X4909Y5029D01*
G01X4846Y5029D01*
G01X4846Y4825D01*
G01X4846Y4825D01*
G01X4896Y4825D01*
G01X4832Y4761D01*
G01X4705Y4761D01*
G01X4659Y4807D01*
G01X4659Y4825D01*
G01X4719Y4825D01*
G01X4719Y4825D01*
G01X4719Y5029D01*
G01X4659Y5029D01*
G01X4659Y5134D01*
G01X4658Y5146D01*
G01X4657Y5158D01*
G01X4656Y5171D01*
G01X4654Y5183D01*
G01X4651Y5195D01*
G01X4647Y5207D01*
G01X4643Y5219D01*
G01X4639Y5231D01*
G01X4637Y5236D01*
G01X4637Y5238D01*
G01X4719Y5238D01*
G01X4719Y5442D01*
G01X4719Y5443D01*
G01X4655Y5443D01*
G01X4650Y5442D01*
G01X4646Y5442D01*
G01X4642Y5442D01*
G01X4638Y5441D01*
G01X4634Y5440D01*
G01X4630Y5439D01*
G01X4626Y5438D01*
G01X4622Y5437D01*
G01X4618Y5436D01*
G01X4614Y5434D01*
G01X4611Y5432D01*
G01X4607Y5430D01*
G01X4603Y5428D01*
G01X4600Y5426D01*
G01X4596Y5424D01*
G01X4596Y5423D01*
G01X4595Y5424D01*
G01X4591Y5426D01*
G01X4588Y5428D01*
G01X4584Y5430D01*
G01X4580Y5432D01*
G01X4577Y5434D01*
G01X4573Y5436D01*
G01X4569Y5437D01*
G01X4565Y5438D01*
G01X4561Y5439D01*
G01X4557Y5440D01*
G01X4553Y5441D01*
G01X4549Y5442D01*
G01X4545Y5442D01*
G01X4541Y5442D01*
G01X4537Y5443D01*
G01X4280Y5443D01*
G01X4276Y5442D01*
G01X4272Y5442D01*
G01X4268Y5442D01*
G01X4264Y5441D01*
G01X4260Y5440D01*
G01X4256Y5439D01*
G01X4252Y5438D01*
G01X4248Y5437D01*
G01X4244Y5436D01*
G01X4240Y5434D01*
G01X4237Y5432D01*
G01X4233Y5430D01*
G01X4229Y5428D01*
G01X4226Y5426D01*
G01X4222Y5424D01*
G01X4219Y5421D01*
G01X4216Y5419D01*
G01X4213Y5416D01*
G01X4210Y5413D01*
G01X4207Y5410D01*
G01X4204Y5407D01*
G01X4202Y5404D01*
G01X4199Y5401D01*
G01X4197Y5397D01*
G01X4195Y5394D01*
G01X4193Y5390D01*
G01X4191Y5386D01*
G01X4189Y5383D01*
G01X4187Y5379D01*
G01X4186Y5375D01*
G01X4185Y5371D01*
G01X4184Y5367D01*
G01X4183Y5363D01*
G01X4182Y5359D01*
G01X4181Y5355D01*
G01X4181Y5351D01*
G01X4181Y5347D01*
G01X4180Y5343D01*
G01X4180Y5236D01*
G01X4178Y5231D01*
G01X4174Y5219D01*
G01X4170Y5207D01*
G01X4166Y5195D01*
G01X4163Y5183D01*
G01X4161Y5171D01*
G01X4160Y5158D01*
G01X4159Y5146D01*
G01X4159Y5134D01*
G01X4159Y4703D01*
G01X4159Y4697D01*
G01X4159Y4690D01*
G01X4159Y4684D01*
G01X4160Y4677D01*
G01X4161Y4671D01*
G01X4162Y4664D01*
G01X4163Y4658D01*
G01X4164Y4652D01*
G01X4165Y4645D01*
G01X4167Y4639D01*
G01X4169Y4632D01*
G01X4171Y4626D01*
G01X4173Y4620D01*
G01X4175Y4614D01*
G01X4178Y4608D01*
G01X4180Y4602D01*
G01X4183Y4596D01*
G01X4186Y4590D01*
G01X4189Y4584D01*
G01X4192Y4578D01*
G01X4195Y4573D01*
G01X4199Y4567D01*
G01X4202Y4562D01*
G01X4206Y4557D01*
G01X4210Y4551D01*
G01X4214Y4546D01*
G01X4218Y4541D01*
G01X4223Y4536D01*
G01X4227Y4531D01*
G01X4232Y4527D01*
G01X4262Y4497D01*
G01X4262Y4126D01*
G01X4262Y4121D01*
G01X4262Y4117D01*
G01X4262Y4113D01*
G01X4263Y4109D01*
G01X4264Y4105D01*
G01X4265Y4101D01*
G01X4266Y4097D01*
G01X4267Y4093D01*
G01X4268Y4089D01*
G01X4270Y4085D01*
G01X4272Y4082D01*
G01X4274Y4078D01*
G01X4276Y4074D01*
G01X4278Y4071D01*
G01X4280Y4067D01*
G01X4283Y4064D01*
G01X4285Y4061D01*
G01X4288Y4058D01*
G01X4291Y4055D01*
G01X4294Y4052D01*
G01X4297Y4049D01*
G01X4300Y4047D01*
G01X4303Y4044D01*
G01X4304Y4044D01*
G01X3551Y4044D01*
G01X3553Y4047D01*
G01X3563Y4067D01*
G01X3571Y4088D01*
G01X3576Y4110D01*
G01X3579Y4131D01*
G01X3580Y4153D01*
G01X3579Y4176D01*
G01X3576Y4197D01*
G01X3571Y4219D01*
G01X3563Y4240D01*
G01X3553Y4260D01*
G01X3542Y4279D01*
G01X3529Y4296D01*
G01X3514Y4312D01*
G01X3497Y4327D01*
G01X3479Y4340D01*
G01X3460Y4351D01*
G01X3440Y4360D01*
G01X3419Y4367D01*
G01X3397Y4372D01*
G01X3375Y4375D01*
G01X3363Y4375D01*
G01X3242Y4497D01*
G01X3238Y4500D01*
G01X3234Y4504D01*
G01X3229Y4508D01*
G01X3225Y4511D01*
G01X3221Y4514D01*
G01X3216Y4517D01*
G01X3212Y4520D01*
G01X3207Y4523D01*
G01X3202Y4526D01*
G01X3197Y4528D01*
G01X3192Y4530D01*
G01X3187Y4532D01*
G01X3182Y4534D01*
G01X3177Y4536D01*
G01X3172Y4538D01*
G01X3166Y4539D01*
G01X3161Y4540D01*
G01X3156Y4541D01*
G01X3150Y4542D01*
G01X3145Y4543D01*
G01X3139Y4543D01*
G01X3134Y4543D01*
G01X3128Y4544D01*
G01X2985Y4544D01*
G01X2985Y4659D01*
G01X2984Y4663D01*
G01X2984Y4667D01*
G01X2984Y4671D01*
G01X2983Y4675D01*
G01X2982Y4679D01*
G01X2981Y4683D01*
G01X2980Y4687D01*
G01X2979Y4691D01*
G01X2978Y4695D01*
G01X2976Y4699D01*
G01X2974Y4702D01*
G01X2972Y4706D01*
G01X2970Y4710D01*
G01X2968Y4713D01*
G01X2966Y4717D01*
G01X2963Y4720D01*
G01X2961Y4723D01*
G01X2958Y4726D01*
G01X2955Y4729D01*
G01X2952Y4732D01*
G01X2951Y4734D01*
G01X3059Y4734D01*
G01X3065Y4734D01*
G01X3071Y4734D01*
G01X3077Y4734D01*
G01X3083Y4735D01*
G01X3089Y4736D01*
G01X3095Y4737D01*
G01X3100Y4738D01*
G01X3106Y4739D01*
G01X3112Y4741D01*
G01X3118Y4743D01*
G01X3124Y4744D01*
G01X3129Y4747D01*
G01X3135Y4749D01*
G01X3141Y4751D01*
G01X3146Y4754D01*
G01X3151Y4756D01*
G01X3157Y4759D01*
G01X3162Y4762D01*
G01X3167Y4766D01*
G01X3172Y4769D01*
G01X3177Y4772D01*
G01X3182Y4776D01*
G01X3187Y4780D01*
G01X3191Y4784D01*
G01X3196Y4788D01*
G01X3200Y4792D01*
G01X3300Y4892D01*
G01X3304Y4896D01*
G01X3308Y4901D01*
G01X3312Y4905D01*
G01X3316Y4910D01*
G01X3320Y4915D01*
G01X3323Y4920D01*
G01X3326Y4925D01*
G01X3330Y4930D01*
G01X3333Y4935D01*
G01X3336Y4941D01*
G01X3338Y4946D01*
G01X3341Y4951D01*
G01X3343Y4957D01*
G01X3346Y4963D01*
G01X3348Y4968D01*
G01X3349Y4974D01*
G01X3351Y4980D01*
G01X3353Y4986D01*
G01X3354Y4992D01*
G01X3355Y4997D01*
G01X3356Y5003D01*
G01X3357Y5009D01*
G01X3358Y5015D01*
G01X3358Y5021D01*
G01X3358Y5027D01*
G01X3359Y5034D01*
G01X3359Y5088D01*
G01X3359Y5088D01*
G01X3361Y5084D01*
G01X3364Y5081D01*
G01X3366Y5078D01*
G01X3369Y5075D01*
G01X3372Y5072D01*
G01X3375Y5069D01*
G01X3378Y5066D01*
G01X3381Y5064D01*
G01X3384Y5061D01*
G01X3388Y5059D01*
G01X3391Y5057D01*
G01X3395Y5055D01*
G01X3399Y5053D01*
G01X3402Y5051D01*
G01X3406Y5049D01*
G01X3410Y5048D01*
G01X3414Y5047D01*
G01X3418Y5046D01*
G01X3422Y5045D01*
G01X3426Y5044D01*
G01X3430Y5043D01*
G01X3434Y5043D01*
G01X3438Y5043D01*
G01X3443Y5043D01*
G01X3551Y5043D01*
G01X3551Y5241D01*
G01X3359Y5241D01*
G01X3359Y5438D01*
G01X3551Y5438D01*
G01X3551Y5637D01*
G01X3443Y5637D01*
G01X3438Y5636D01*
G01X3434Y5636D01*
G01X3430Y5636D01*
G01X3426Y5635D01*
G01X3422Y5634D01*
G01X3418Y5633D01*
G01X3414Y5632D01*
G01X3410Y5631D01*
G01X3406Y5630D01*
G01X3402Y5628D01*
G01X3399Y5626D01*
G01X3395Y5624D01*
G01X3391Y5622D01*
G01X3388Y5620D01*
G01X3384Y5618D01*
G01X3381Y5615D01*
G01X3378Y5613D01*
G01X3375Y5610D01*
G01X3372Y5607D01*
G01X3369Y5604D01*
G01X3366Y5601D01*
G01X3364Y5598D01*
G01X3361Y5595D01*
G01X3359Y5591D01*
G01X3359Y5591D01*
G01X3359Y5718D01*
G01X3359Y5718D01*
G01X3361Y5714D01*
G01X3364Y5711D01*
G01X3366Y5708D01*
G01X3369Y5705D01*
G01X3372Y5702D01*
G01X3375Y5699D01*
G01X3378Y5696D01*
G01X3381Y5694D01*
G01X3384Y5691D01*
G01X3388Y5689D01*
G01X3391Y5687D01*
G01X3395Y5685D01*
G01X3399Y5683D01*
G01X3402Y5681D01*
G01X3406Y5679D01*
G01X3410Y5678D01*
G01X3414Y5677D01*
G01X3418Y5676D01*
G01X3422Y5675D01*
G01X3426Y5674D01*
G01X3430Y5673D01*
G01X3434Y5673D01*
G01X3438Y5673D01*
G01X3443Y5673D01*
G01X3876Y5673D01*
G01X3880Y5673D01*
G01X3884Y5673D01*
G01X3888Y5673D01*
G01X3892Y5674D01*
G01X3896Y5675D01*
G01X3900Y5676D01*
G01X3904Y5677D01*
G01X3908Y5678D01*
G01X3912Y5679D01*
G01X3916Y5681D01*
G01X3919Y5683D01*
G01X3923Y5685D01*
G01X3927Y5687D01*
G01X3930Y5689D01*
G01X3934Y5691D01*
G01X3937Y5694D01*
G01X3940Y5696D01*
G01X3943Y5699D01*
G01X3946Y5702D01*
G01X3949Y5705D01*
G01X3952Y5708D01*
G01X3954Y5711D01*
G01X3957Y5714D01*
G01X3959Y5718D01*
G01X3961Y5721D01*
G01X3963Y5725D01*
G01X3965Y5729D01*
G01X3967Y5732D01*
G01X3969Y5736D01*
G01X3970Y5740D01*
G01X3971Y5744D01*
G01X3972Y5748D01*
G01X3973Y5750D01*
G01X4189Y5750D01*
G01X4191Y5747D01*
G01X4193Y5743D01*
G01X4195Y5739D01*
G01X4197Y5736D01*
G01X4199Y5732D01*
G01X4202Y5729D01*
G01X4204Y5726D01*
G01X4207Y5723D01*
G01X4210Y5720D01*
G01X4213Y5717D01*
G01X4216Y5714D01*
G01X4219Y5712D01*
G01X4222Y5709D01*
G01X4226Y5707D01*
G01X4229Y5705D01*
G01X4233Y5703D01*
G01X4237Y5701D01*
G01X4240Y5699D01*
G01X4244Y5697D01*
G01X4248Y5696D01*
G01X4252Y5695D01*
G01X4256Y5694D01*
G01X4260Y5693D01*
G01X4264Y5692D01*
G01X4268Y5691D01*
G01X4272Y5691D01*
G01X4276Y5691D01*
G01X4280Y5691D01*
G01X4537Y5691D01*
G01X4541Y5691D01*
G01X4545Y5691D01*
G01X4549Y5691D01*
G01X4553Y5692D01*
G01X4557Y5693D01*
G01X4561Y5694D01*
G01X4565Y5695D01*
G01X4569Y5696D01*
G01X4573Y5697D01*
G01X4577Y5699D01*
G01X4580Y5701D01*
G01X4584Y5703D01*
G01X4588Y5705D01*
G01X4591Y5707D01*
G01X4595Y5709D01*
G01X4598Y5712D01*
G01X4601Y5714D01*
G01X4604Y5717D01*
G01X4607Y5720D01*
G01X4610Y5723D01*
G01X4613Y5726D01*
G01X4615Y5729D01*
G01X4618Y5732D01*
G01X4620Y5736D01*
G01X4622Y5739D01*
G01X4624Y5743D01*
G01X4626Y5747D01*
G01X4628Y5750D01*
G01X4630Y5754D01*
G01X4631Y5758D01*
G01X4632Y5762D01*
G01X4633Y5766D01*
G01X4634Y5770D01*
G01X4635Y5774D01*
G01X4636Y5778D01*
G01X4636Y5782D01*
G01X4636Y5786D01*
G01X4637Y5791D01*
G01X4637Y5897D01*
G01X4638Y5900D01*
G01X4639Y5902D01*
G01X4640Y5905D01*
G01X4641Y5908D01*
G01X4642Y5911D01*
G01X4643Y5914D01*
G01X4644Y5917D01*
G01X4645Y5920D01*
G01X4646Y5923D01*
G01X4647Y5926D01*
G01X4648Y5929D01*
G01X4649Y5932D01*
G01X4650Y5935D01*
G01X4651Y5938D01*
G01X4651Y5941D01*
G01X4652Y5944D01*
G01X4653Y5947D01*
G01X4654Y5950D01*
G01X4654Y5953D01*
G01X4655Y5956D01*
G01X4655Y5959D01*
G01X4656Y5962D01*
G01X4656Y5966D01*
G01X4657Y5968D01*
G01X4657Y5971D01*
G01X4657Y5975D01*
G01X4657Y5978D01*
G01X4658Y5981D01*
G01X4658Y5984D01*
G01X4658Y5987D01*
G01X4658Y5990D01*
G01X4658Y5993D01*
G01X4658Y5996D01*
G01X4659Y6000D01*
G01X4659Y6430D01*
G01X4776Y6548D01*
G01X4995Y6548D01*
G01X4999Y6548D01*
G01X5003Y6548D01*
G01X5007Y6548D01*
G01X5011Y6549D01*
G01X5015Y6550D01*
G01X5019Y6551D01*
G01X5023Y6552D01*
G01X5027Y6553D01*
G01X5031Y6554D01*
G01X5035Y6556D01*
G01X5038Y6558D01*
G01X5042Y6560D01*
G01X5046Y6562D01*
G01X5049Y6564D01*
G01X5053Y6566D01*
G01X5056Y6569D01*
G01X5059Y6571D01*
G01X5062Y6574D01*
G01X5065Y6577D01*
G01X5068Y6580D01*
G01X5071Y6583D01*
G01X5073Y6586D01*
G01X5076Y6589D01*
G01X5078Y6593D01*
G01X5080Y6596D01*
G01X5082Y6600D01*
G01X5084Y6604D01*
G01X5086Y6607D01*
G01X5088Y6611D01*
G01X5089Y6615D01*
G01X5090Y6619D01*
G01X5091Y6623D01*
G01X5092Y6627D01*
G01X5093Y6631D01*
G01X5094Y6635D01*
G01X5094Y6639D01*
G01X5094Y6643D01*
G01X5095Y6648D01*
G01X5095Y7120D01*
G01X5094Y7124D01*
G01X5094Y7128D01*
G01X5094Y7132D01*
G01X5093Y7136D01*
G01X5092Y7140D01*
G01X5091Y7144D01*
G01X5090Y7148D01*
G01X5089Y7152D01*
G01X5088Y7156D01*
G01X5086Y7160D01*
G01X5084Y7163D01*
G01X5082Y7167D01*
G01X5080Y7171D01*
G01X5078Y7174D01*
G01X5076Y7178D01*
G01X5073Y7181D01*
G01X5071Y7184D01*
G01X5068Y7187D01*
G01X5065Y7190D01*
G01X5062Y7193D01*
G01X5059Y7196D01*
G01X5056Y7198D01*
G01X5053Y7201D01*
G01X5049Y7203D01*
G01X5046Y7205D01*
G01X5042Y7207D01*
G01X5038Y7209D01*
G01X5035Y7211D01*
G01X5031Y7213D01*
G01X5027Y7214D01*
G01X5023Y7215D01*
G01X5019Y7216D01*
G01X5015Y7217D01*
G01X5011Y7218D01*
G01X5007Y7219D01*
G01X5003Y7219D01*
G01X4999Y7219D01*
G01X4995Y7220D01*
G01X4523Y7220D01*
G01X4518Y7219D01*
G01X4514Y7219D01*
G01X4510Y7219D01*
G01X4506Y7218D01*
G01X4502Y7217D01*
G01X4498Y7216D01*
G01X4494Y7215D01*
G01X4490Y7214D01*
G01X4486Y7213D01*
G01X4482Y7211D01*
G01X4479Y7209D01*
G01X4475Y7207D01*
G01X4471Y7205D01*
G01X4468Y7203D01*
G01X4464Y7201D01*
G01X4461Y7198D01*
G01X4458Y7196D01*
G01X4455Y7193D01*
G01X4452Y7190D01*
G01X4449Y7187D01*
G01X4446Y7184D01*
G01X4444Y7181D01*
G01X4441Y7178D01*
G01X4439Y7174D01*
G01X4437Y7171D01*
G01X4435Y7167D01*
G01X4433Y7163D01*
G01X4431Y7160D01*
G01X4429Y7156D01*
G01X4428Y7152D01*
G01X4427Y7148D01*
G01X4426Y7144D01*
G01X4425Y7140D01*
G01X4424Y7136D01*
G01X4423Y7132D01*
G01X4423Y7128D01*
G01X4423Y7124D01*
G01X4423Y7120D01*
G01X4423Y6901D01*
G01X4232Y6710D01*
G01X4227Y6706D01*
G01X4223Y6701D01*
G01X4218Y6696D01*
G01X4214Y6691D01*
G01X4210Y6686D01*
G01X4206Y6680D01*
G01X4202Y6675D01*
G01X4199Y6670D01*
G01X4195Y6664D01*
G01X4192Y6659D01*
G01X4189Y6653D01*
G01X4186Y6647D01*
G01X4183Y6641D01*
G01X4180Y6635D01*
G01X4178Y6629D01*
G01X4175Y6623D01*
G01X4173Y6617D01*
G01X4171Y6611D01*
G01X4169Y6605D01*
G01X4167Y6598D01*
G01X4165Y6592D01*
G01X4164Y6585D01*
G01X4163Y6579D01*
G01X4162Y6573D01*
G01X4161Y6566D01*
G01X4160Y6560D01*
G01X4159Y6553D01*
G01X4159Y6547D01*
G01X4159Y6540D01*
G01X4159Y6534D01*
G01X4159Y6250D01*
G01X3931Y6250D01*
G01X3930Y6250D01*
G01X3927Y6252D01*
G01X3923Y6254D01*
G01X3919Y6256D01*
G01X3916Y6258D01*
G01X3912Y6260D01*
G01X3908Y6261D01*
G01X3904Y6262D01*
G01X3900Y6263D01*
G01X3896Y6264D01*
G01X3892Y6265D01*
G01X3888Y6266D01*
G01X3884Y6266D01*
G01X3880Y6266D01*
G01X3876Y6267D01*
G01X3443Y6267D01*
G01X3438Y6266D01*
G01X3434Y6266D01*
G01X3430Y6266D01*
G01X3426Y6265D01*
G01X3422Y6264D01*
G01X3418Y6263D01*
G01X3414Y6262D01*
G01X3410Y6261D01*
G01X3406Y6260D01*
G01X3402Y6258D01*
G01X3399Y6256D01*
G01X3395Y6254D01*
G01X3391Y6252D01*
G01X3388Y6250D01*
G01X3384Y6248D01*
G01X3381Y6245D01*
G01X3378Y6243D01*
G01X3375Y6240D01*
G01X3372Y6237D01*
G01X3369Y6234D01*
G01X3366Y6231D01*
G01X3364Y6228D01*
G01X3361Y6225D01*
G01X3359Y6221D01*
G01X3357Y6218D01*
G01X3355Y6214D01*
G01X3353Y6210D01*
G01X3351Y6207D01*
G01X3349Y6203D01*
G01X3348Y6199D01*
G01X3347Y6195D01*
G01X3346Y6191D01*
G01X3345Y6187D01*
G01X3344Y6183D01*
G01X3343Y6179D01*
G01X3343Y6175D01*
G01X3343Y6171D01*
G01X3343Y6170D01*
G01X3245Y6170D01*
G01X3238Y6169D01*
G01X3232Y6169D01*
G01X3226Y6169D01*
G01X3220Y6168D01*
G01X3214Y6167D01*
G01X3208Y6166D01*
G01X3203Y6165D01*
G01X3197Y6164D01*
G01X3191Y6162D01*
G01X3185Y6160D01*
G01X3179Y6159D01*
G01X3174Y6157D01*
G01X3168Y6154D01*
G01X3162Y6152D01*
G01X3157Y6149D01*
G01X3152Y6147D01*
G01X3146Y6144D01*
G01X3141Y6141D01*
G01X3136Y6137D01*
G01X3131Y6134D01*
G01X3126Y6131D01*
G01X3121Y6127D01*
G01X3116Y6123D01*
G01X3112Y6119D01*
G01X3107Y6115D01*
G01X3103Y6111D01*
G01X3017Y6025D01*
G01X3013Y6021D01*
G01X3009Y6016D01*
G01X3005Y6012D01*
G01X3001Y6007D01*
G01X2997Y6002D01*
G01X2994Y5997D01*
G01X2991Y5992D01*
G01X2987Y5987D01*
G01X2984Y5982D01*
G01X2981Y5976D01*
G01X2979Y5971D01*
G01X2976Y5966D01*
G01X2974Y5960D01*
G01X2972Y5954D01*
G01X2969Y5949D01*
G01X2968Y5943D01*
G01X2966Y5937D01*
G01X2964Y5931D01*
G01X2963Y5925D01*
G01X2962Y5920D01*
G01X2961Y5914D01*
G01X2960Y5908D01*
G01X2959Y5902D01*
G01X2959Y5896D01*
G01X2959Y5890D01*
G01X2959Y5884D01*
G01X2959Y5134D01*
G01X2409Y5134D01*
G01X2402Y5133D01*
G01X2396Y5133D01*
G01X2390Y5133D01*
G01X2384Y5132D01*
G01X2378Y5131D01*
G01X2372Y5130D01*
G01X2367Y5129D01*
G01X2361Y5128D01*
G01X2355Y5126D01*
G01X2349Y5124D01*
G01X2343Y5123D01*
G01X2338Y5121D01*
G01X2332Y5118D01*
G01X2326Y5116D01*
G01X2321Y5113D01*
G01X2316Y5111D01*
G01X2310Y5108D01*
G01X2305Y5105D01*
G01X2300Y5101D01*
G01X2295Y5098D01*
G01X2290Y5095D01*
G01X2285Y5091D01*
G01X2280Y5087D01*
G01X2276Y5083D01*
G01X2271Y5079D01*
G01X2267Y5075D01*
G01X2074Y4882D01*
G01X2071Y4881D01*
G01X2065Y4880D01*
G01X2060Y4879D01*
G01X2054Y4878D01*
G01X2048Y4876D01*
G01X2042Y4874D01*
G01X2036Y4873D01*
G01X2031Y4871D01*
G01X2025Y4868D01*
G01X2019Y4866D01*
G01X2014Y4863D01*
G01X2009Y4861D01*
G01X2003Y4858D01*
G01X1998Y4855D01*
G01X1993Y4851D01*
G01X1988Y4848D01*
G01X1983Y4845D01*
G01X1978Y4841D01*
G01X1973Y4837D01*
G01X1969Y4833D01*
G01X1964Y4829D01*
G01X1960Y4825D01*
G01X1894Y4759D01*
G01X1546Y4759D01*
G01X1541Y4758D01*
G01X1537Y4758D01*
G01X1533Y4758D01*
G01X1529Y4757D01*
G01X1525Y4756D01*
G01X1521Y4755D01*
G01X1517Y4754D01*
G01X1513Y4753D01*
G01X1509Y4752D01*
G01X1505Y4750D01*
G01X1502Y4748D01*
G01X1498Y4746D01*
G01X1494Y4744D01*
G01X1491Y4742D01*
G01X1487Y4740D01*
G01X1484Y4737D01*
G01X1481Y4735D01*
G01X1478Y4732D01*
G01X1475Y4729D01*
G01X1472Y4726D01*
G01X1469Y4723D01*
G01X1467Y4720D01*
G01X1464Y4717D01*
G01X1462Y4713D01*
G01X1460Y4710D01*
G01X1458Y4706D01*
G01X1456Y4702D01*
G01X1454Y4699D01*
G01X1452Y4695D01*
G01X1451Y4691D01*
G01X1450Y4687D01*
G01X1449Y4683D01*
G01X1448Y4679D01*
G01X1447Y4675D01*
G01X1446Y4671D01*
G01X1446Y4667D01*
G01X1446Y4663D01*
G01X1446Y4659D01*
G01X1446Y4107D01*
G01X1446Y4103D01*
G01X1446Y4099D01*
G01X1446Y4095D01*
G01X1447Y4091D01*
G01X1448Y4087D01*
G01X1449Y4083D01*
G01X1450Y4079D01*
G01X1451Y4075D01*
G01X1452Y4071D01*
G01X1454Y4067D01*
G01X1456Y4064D01*
G01X1458Y4060D01*
G01X1459Y4058D01*
G01X1459Y3803D01*
G01X1457Y3802D01*
G01X1454Y3799D01*
G01X1451Y3797D01*
G01X1448Y3794D01*
G01X1445Y3791D01*
G01X1442Y3788D01*
G01X1439Y3785D01*
G01X1437Y3782D01*
G01X1434Y3779D01*
G01X1432Y3775D01*
G01X1430Y3772D01*
G01X1428Y3768D01*
G01X1426Y3764D01*
G01X1424Y3761D01*
G01X1422Y3757D01*
G01X1421Y3753D01*
G01X1420Y3749D01*
G01X1419Y3745D01*
G01X1418Y3741D01*
G01X1417Y3737D01*
G01X1416Y3733D01*
G01X1416Y3729D01*
G01X1416Y3725D01*
G01X1416Y3721D01*
G01X1416Y3703D01*
G01X925Y3703D01*
G01X925Y4045D01*
G01X924Y4049D01*
G01X924Y4053D01*
G01X924Y4057D01*
G01X923Y4061D01*
G01X922Y4065D01*
G01X921Y4069D01*
G01X920Y4073D01*
G01X919Y4077D01*
G01X918Y4081D01*
G01X916Y4085D01*
G01X914Y4088D01*
G01X912Y4092D01*
G01X910Y4096D01*
G01X908Y4099D01*
G01X906Y4103D01*
G01X903Y4106D01*
G01X901Y4109D01*
G01X898Y4112D01*
G01X895Y4115D01*
G01X892Y4118D01*
G01X889Y4121D01*
G01X886Y4123D01*
G01X883Y4126D01*
G01X879Y4128D01*
G01X876Y4130D01*
G01X872Y4132D01*
G01X868Y4134D01*
G01X865Y4136D01*
G01X861Y4138D01*
G01X857Y4139D01*
G01X853Y4140D01*
G01X849Y4141D01*
G01X845Y4142D01*
G01X841Y4143D01*
G01X837Y4144D01*
G01X833Y4144D01*
G01X829Y4144D01*
G01X825Y4145D01*
G01X392Y4145D01*
G01X387Y4144D01*
G01X383Y4144D01*
G01X379Y4144D01*
G01X375Y4143D01*
G01X371Y4142D01*
G01X367Y4141D01*
G01X363Y4140D01*
G01X359Y4139D01*
G01X355Y4138D01*
G01X351Y4136D01*
G01X348Y4134D01*
G01X344Y4132D01*
G01X340Y4130D01*
G01X337Y4128D01*
G01X333Y4126D01*
G01X330Y4123D01*
G01X327Y4121D01*
G01X324Y4118D01*
G01X321Y4115D01*
G01X318Y4112D01*
G01X315Y4109D01*
G01X313Y4106D01*
G01X310Y4103D01*
G01X308Y4099D01*
G01X306Y4096D01*
G01X304Y4092D01*
G01X302Y4088D01*
G01X300Y4085D01*
G01X298Y4081D01*
G01X297Y4077D01*
G01X296Y4073D01*
G01X295Y4069D01*
G01X294Y4065D01*
G01X293Y4061D01*
G01X292Y4057D01*
G01X292Y4053D01*
G01X292Y4049D01*
G01X292Y4045D01*
G01X292Y3651D01*
G01X292Y3646D01*
G01X292Y3642D01*
G01X292Y3638D01*
G01X293Y3634D01*
G01X294Y3630D01*
G01X295Y3626D01*
G01X296Y3622D01*
G01X297Y3618D01*
G01X298Y3614D01*
G01X300Y3610D01*
G01X302Y3607D01*
G01X304Y3603D01*
G01X306Y3599D01*
G01X308Y3596D01*
G01X310Y3592D01*
G01X313Y3589D01*
G01X315Y3586D01*
G01X318Y3583D01*
G01X321Y3580D01*
G01X324Y3577D01*
G01X327Y3574D01*
G01X330Y3572D01*
G01X333Y3569D01*
G01X337Y3567D01*
G01X340Y3565D01*
G01X344Y3563D01*
G01X348Y3561D01*
G01X351Y3559D01*
G01X355Y3557D01*
G01X359Y3556D01*
G01X363Y3555D01*
G01X367Y3554D01*
G01X371Y3553D01*
G01X375Y3552D01*
G01X379Y3551D01*
G01X383Y3551D01*
G01X387Y3551D01*
G01X392Y3551D01*
G01X473Y3551D01*
G01X474Y3549D01*
G01X513Y3511D01*
G01X509Y3506D01*
G01X505Y3502D01*
G01X501Y3497D01*
G01X497Y3492D01*
G01X494Y3487D01*
G01X491Y3482D01*
G01X487Y3477D01*
G01X484Y3472D01*
G01X481Y3466D01*
G01X479Y3461D01*
G01X476Y3456D01*
G01X474Y3450D01*
G01X472Y3444D01*
G01X469Y3439D01*
G01X468Y3433D01*
G01X466Y3427D01*
G01X464Y3421D01*
G01X463Y3415D01*
G01X462Y3410D01*
G01X461Y3404D01*
G01X460Y3398D01*
G01X459Y3392D01*
G01X459Y3386D01*
G01X459Y3380D01*
G01X459Y3374D01*
G01X459Y2266D01*
G01X137Y1945D01*
G01X133Y1941D01*
G01X129Y1936D01*
G01X125Y1932D01*
G01X121Y1927D01*
G01X117Y1922D01*
G01X114Y1917D01*
G01X111Y1912D01*
G01X107Y1907D01*
G01X104Y1902D01*
G01X101Y1896D01*
G01X99Y1891D01*
G01X96Y1886D01*
G01X94Y1880D01*
G01X92Y1874D01*
G01X89Y1869D01*
G01X88Y1863D01*
G01X86Y1857D01*
G01X84Y1851D01*
G01X83Y1845D01*
G01X82Y1840D01*
G01X81Y1834D01*
G01X80Y1828D01*
G01X79Y1822D01*
G01X79Y1816D01*
G01X79Y1810D01*
G01X78Y1803D01*
G01X78Y934D01*
G01X79Y930D01*
G01X79Y926D01*
G01X79Y925D01*
G01X79Y924D01*
G01X79Y920D01*
G01X79Y916D01*
G01X81Y892D01*
G01X82Y886D01*
G01X85Y862D01*
G01X86Y855D01*
G01X90Y832D01*
G01X91Y825D01*
G01X95Y802D01*
G01X97Y795D01*
G01X102Y772D01*
G01X103Y766D01*
G01X109Y743D01*
G01X111Y736D01*
G01X118Y714D01*
G01X120Y707D01*
G01X128Y685D01*
G01X130Y678D01*
G01X138Y656D01*
G01X141Y650D01*
G01X150Y628D01*
G01X152Y622D01*
G01X162Y600D01*
G01X165Y594D01*
G01X176Y573D01*
G01X179Y567D01*
G01X190Y546D01*
G01X193Y540D01*
G01X205Y520D01*
G01X209Y514D01*
G01X221Y494D01*
G01X225Y488D01*
G01X238Y469D01*
G01X242Y463D01*
G01X256Y444D01*
G01X260Y439D01*
G01X275Y420D01*
G01X279Y415D01*
G01X294Y396D01*
G01X298Y391D01*
G01X314Y374D01*
G01X319Y369D01*
G01X335Y352D01*
G01X340Y347D01*
G01X357Y330D01*
G01X362Y326D01*
G01X379Y310D01*
G01X384Y305D01*
G01X402Y290D01*
G01X408Y285D01*
G01X426Y271D01*
G01X432Y267D01*
G01X451Y252D01*
G01X456Y249D01*
G01X475Y235D01*
G01X481Y231D01*
G01X501Y218D01*
G01X507Y215D01*
G01X527Y203D01*
G01X533Y199D01*
G01X554Y188D01*
G01X560Y185D01*
G01X581Y174D01*
G01X587Y171D01*
G01X608Y161D01*
G01X615Y158D01*
G01X636Y149D01*
G01X643Y147D01*
G01X665Y138D01*
G01X671Y136D01*
G01X694Y128D01*
G01X700Y126D01*
G01X722Y119D01*
G01X729Y117D01*
G01X752Y111D01*
G01X758Y109D01*
G01X781Y104D01*
G01X788Y102D01*
G01X811Y97D01*
G01X818Y96D01*
G01X841Y92D01*
G01X848Y91D01*
G01X871Y88D01*
G01X878Y87D01*
G01X902Y85D01*
G01X908Y84D01*
G01X932Y83D01*
G01X937Y83D01*
G01X951Y82D01*
G01X961Y82D01*
G01X971Y82D01*
G01X981Y83D01*
G01X983Y84D01*
G01X1909Y84D01*
G01X1915Y84D01*
G01X1921Y84D01*
G01X1927Y84D01*
G01X1933Y85D01*
G01X1939Y86D01*
G01X1945Y87D01*
G01X1950Y88D01*
G01X1956Y89D01*
G01X1962Y91D01*
G01X1968Y93D01*
G01X1974Y94D01*
G01X1979Y97D01*
G01X1985Y99D01*
G01X1991Y101D01*
G01X1996Y104D01*
G01X2001Y106D01*
G01X2007Y109D01*
G01X2012Y112D01*
G01X2017Y116D01*
G01X2022Y119D01*
G01X2027Y122D01*
G01X2032Y126D01*
G01X2037Y130D01*
G01X2041Y134D01*
G01X2046Y138D01*
G01X2050Y142D01*
G01X2075Y168D01*
G01X2320Y168D01*
G01X2324Y168D01*
G01X2328Y168D01*
G01X2332Y168D01*
G01X2336Y169D01*
G01X2340Y170D01*
G01X2344Y171D01*
G01X2348Y172D01*
G01X2352Y173D01*
G01X2356Y174D01*
G01X2360Y176D01*
G01X2363Y178D01*
G01X2367Y180D01*
G01X2371Y182D01*
G01X2374Y184D01*
G01X2378Y186D01*
G01X2381Y189D01*
G01X2384Y191D01*
G01X2387Y194D01*
G01X2390Y197D01*
G01X2393Y200D01*
G01X2396Y203D01*
G01X2398Y206D01*
G01X2401Y209D01*
G01X2403Y213D01*
G01X2405Y216D01*
G01X2407Y220D01*
G01X2409Y224D01*
G01X2411Y227D01*
G01X2413Y231D01*
G01X2414Y235D01*
G01X2415Y239D01*
G01X2416Y243D01*
G01X2417Y247D01*
G01X2418Y251D01*
G01X2419Y255D01*
G01X2419Y259D01*
G01X2419Y263D01*
G01X2420Y268D01*
G01X2420Y701D01*
G01X2419Y705D01*
G01X2419Y709D01*
G01X2419Y713D01*
G01X2418Y717D01*
G01X2417Y721D01*
G01X2416Y725D01*
G01X2415Y729D01*
G01X2414Y733D01*
G01X2413Y737D01*
G01X2411Y741D01*
G01X2409Y744D01*
G01X2407Y748D01*
G01X2405Y752D01*
G01X2404Y753D01*
G01X2529Y877D01*
G01X2532Y881D01*
G01X2536Y885D01*
G01X2540Y890D01*
G01X2543Y894D01*
G01X2546Y898D01*
G01X2549Y903D01*
G01X2552Y907D01*
G01X2553Y908D01*
G01X2553Y908D01*
G01X2556Y907D01*
G01X2561Y905D01*
G01X2564Y904D01*
G01X2569Y902D01*
G01X2572Y901D01*
G01X2577Y900D01*
G01X2580Y900D01*
G01X2585Y899D01*
G01X2585Y1075D01*
G01X2576Y1075D01*
G01X2576Y1153D01*
G01X2575Y1161D01*
G01X2575Y1169D01*
G01X2574Y1177D01*
G01X2572Y1185D01*
G01X2571Y1193D01*
G01X2571Y1232D01*
G01X2585Y1232D01*
G01X2585Y1355D01*
G01X2640Y1355D01*
G01X2640Y1232D01*
G01X2653Y1232D01*
G01X2653Y1193D01*
G01X2652Y1185D01*
G01X2650Y1177D01*
G01X2649Y1169D01*
G01X2649Y1161D01*
G01X2649Y1153D01*
G01X2649Y1075D01*
G01X2640Y1075D01*
G01X2640Y899D01*
G01X2645Y900D01*
G01X2648Y900D01*
G01X2652Y901D01*
G01X2652Y901D01*
G01X2653Y896D01*
G01X2654Y890D01*
G01X2656Y885D01*
G01X2658Y880D01*
G01X2660Y875D01*
G01X2662Y870D01*
G01X2664Y865D01*
G01X2666Y860D01*
G01X2669Y855D01*
G01X2672Y850D01*
G01X2675Y846D01*
G01X2678Y841D01*
G01X2681Y837D01*
G01X2684Y833D01*
G01X2688Y828D01*
G01X2692Y824D01*
G01X2695Y820D01*
G01X2795Y720D01*
G01X2799Y717D01*
G01X2803Y713D01*
G01X2808Y709D01*
G01X2812Y706D01*
G01X2816Y703D01*
G01X2821Y700D01*
G01X2825Y697D01*
G01X2830Y694D01*
G01X2835Y691D01*
G01X2840Y689D01*
G01X2845Y687D01*
G01X2850Y685D01*
G01X2851Y684D01*
G01X2851Y592D01*
G01X3050Y592D01*
G01X3050Y674D01*
G01X3148Y674D01*
G01X3268Y554D01*
G01X3268Y267D01*
G01X3268Y262D01*
G01X3268Y258D01*
G01X3268Y254D01*
G01X3269Y250D01*
G01X3270Y246D01*
G01X3271Y242D01*
G01X3272Y238D01*
G01X3273Y234D01*
G01X3274Y230D01*
G01X3276Y226D01*
G01X3278Y223D01*
G01X3280Y219D01*
G01X3282Y215D01*
G01X3284Y212D01*
G01X3286Y208D01*
G01X3289Y205D01*
G01X3291Y202D01*
G01X3294Y199D01*
G01X3297Y196D01*
G01X3300Y193D01*
G01X3303Y190D01*
G01X3306Y188D01*
G01X3309Y185D01*
G01X3313Y183D01*
G01X3316Y181D01*
G01X3320Y179D01*
G01X3324Y177D01*
G01X3327Y175D01*
G01X3331Y173D01*
G01X3335Y172D01*
G01X3339Y171D01*
G01X3343Y170D01*
G01X3347Y169D01*
G01X3351Y168D01*
G01X3355Y167D01*
G01X3359Y167D01*
G01X3363Y167D01*
G01X3368Y167D01*
G01X3762Y167D01*
G01X3766Y167D01*
G01X3770Y167D01*
G01X3774Y167D01*
G01X3778Y168D01*
G01X3782Y169D01*
G01X3786Y170D01*
G01X3790Y171D01*
G01X3794Y172D01*
G01X3798Y173D01*
G01X3802Y175D01*
G01X3805Y177D01*
G01X3809Y179D01*
G01X3813Y181D01*
G01X3816Y183D01*
G01X3820Y185D01*
G01X3823Y188D01*
G01X3826Y190D01*
G01X3829Y193D01*
G01X3832Y196D01*
G01X3835Y199D01*
G01X3838Y202D01*
G01X3840Y205D01*
G01X3843Y208D01*
G01X3845Y212D01*
G01X3847Y215D01*
G01X3849Y219D01*
G01X3851Y223D01*
G01X3853Y226D01*
G01X3855Y230D01*
G01X3856Y234D01*
G01X3857Y238D01*
G01X3858Y242D01*
G01X3859Y246D01*
G01X3860Y250D01*
G01X3861Y254D01*
G01X3861Y258D01*
G01X3861Y262D01*
G01X3862Y267D01*
G01X3862Y700D01*
G01X3861Y704D01*
G01X3861Y708D01*
G01X3861Y712D01*
G01X3860Y716D01*
G01X3859Y720D01*
G01X3858Y724D01*
G01X3857Y728D01*
G01X3856Y732D01*
G01X3855Y736D01*
G01X3853Y740D01*
G01X3851Y743D01*
G01X3849Y747D01*
G01X3847Y751D01*
G01X3845Y754D01*
G01X3843Y758D01*
G01X3840Y761D01*
G01X3838Y764D01*
G01X3835Y767D01*
G01X3832Y770D01*
G01X3829Y773D01*
G01X3826Y776D01*
G01X3823Y778D01*
G01X3820Y781D01*
G01X3816Y783D01*
G01X3813Y785D01*
G01X3809Y787D01*
G01X3805Y789D01*
G01X3802Y791D01*
G01X3798Y793D01*
G01X3794Y794D01*
G01X3790Y795D01*
G01X3786Y796D01*
G01X3782Y797D01*
G01X3778Y798D01*
G01X3774Y799D01*
G01X3770Y799D01*
G01X3766Y799D01*
G01X3762Y800D01*
G01X3475Y800D01*
G01X3328Y947D01*
G01X3324Y950D01*
G01X3322Y952D01*
G01X3323Y954D01*
G01X3327Y958D01*
G01X3328Y961D01*
G01X3332Y965D01*
G01X3333Y968D01*
G01X3336Y972D01*
G01X3338Y975D01*
G01X3340Y980D01*
G01X3342Y982D01*
G01X3344Y987D01*
G01X3345Y990D01*
G01X3347Y995D01*
G01X3348Y998D01*
G01X3350Y1003D01*
G01X3351Y1006D01*
G01X3352Y1012D01*
G01X3353Y1014D01*
G01X3354Y1020D01*
G01X3355Y1023D01*
G01X3356Y1028D01*
G01X3356Y1031D01*
G01X3357Y1037D01*
G01X3357Y1040D01*
G01X3358Y1045D01*
G01X3358Y1049D01*
G01X3358Y1051D01*
G01X3358Y1256D01*
G01X3358Y1258D01*
G01X3358Y1262D01*
G01X3357Y1267D01*
G01X3357Y1270D01*
G01X3356Y1276D01*
G01X3356Y1279D01*
G01X3355Y1284D01*
G01X3354Y1287D01*
G01X3353Y1293D01*
G01X3352Y1296D01*
G01X3351Y1301D01*
G01X3350Y1304D01*
G01X3348Y1309D01*
G01X3347Y1312D01*
G01X3345Y1317D01*
G01X3344Y1320D01*
G01X3342Y1325D01*
G01X3340Y1327D01*
G01X3338Y1332D01*
G01X3336Y1335D01*
G01X3333Y1339D01*
G01X3332Y1342D01*
G01X3328Y1346D01*
G01X3327Y1349D01*
G01X3323Y1353D01*
G01X3321Y1356D01*
G01X3318Y1360D01*
G01X3315Y1362D01*
G01X3312Y1366D01*
G01X3310Y1368D01*
G01X3306Y1372D01*
G01X3303Y1374D01*
G01X3299Y1377D01*
G01X3301Y1379D01*
G01X3304Y1382D01*
G01X3307Y1385D01*
G01X3310Y1388D01*
G01X3313Y1391D01*
G01X3315Y1394D01*
G01X3316Y1395D01*
G01X3318Y1393D01*
G01X3320Y1390D01*
G01X3324Y1386D01*
G01X3326Y1384D01*
G01X3330Y1381D01*
G01X3332Y1378D01*
G01X3336Y1375D01*
G01X3339Y1373D01*
G01X3343Y1369D01*
G01X3346Y1368D01*
G01X3350Y1364D01*
G01X3353Y1363D01*
G01X3357Y1360D01*
G01X3360Y1358D01*
G01X3365Y1356D01*
G01X3368Y1354D01*
G01X3372Y1352D01*
G01X3375Y1351D01*
G01X3380Y1349D01*
G01X3383Y1348D01*
G01X3388Y1346D01*
G01X3391Y1345D01*
G01X3397Y1344D01*
G01X3399Y1343D01*
G01X3405Y1342D01*
G01X3408Y1341D01*
G01X3413Y1340D01*
G01X3416Y1340D01*
G01X3422Y1339D01*
G01X3425Y1339D01*
G01X3430Y1338D01*
G01X3434Y1338D01*
G01X3436Y1338D01*
G01X3499Y1338D01*
G01X3507Y1337D01*
G01X3515Y1335D01*
G01X3523Y1334D01*
G01X3531Y1334D01*
G01X3539Y1334D01*
G01X3876Y1334D01*
G01X3876Y1268D01*
G01X3876Y1263D01*
G01X3876Y1259D01*
G01X3876Y1255D01*
G01X3877Y1251D01*
G01X3878Y1247D01*
G01X3879Y1243D01*
G01X3880Y1239D01*
G01X3881Y1235D01*
G01X3882Y1231D01*
G01X3884Y1227D01*
G01X3886Y1224D01*
G01X3888Y1220D01*
G01X3890Y1216D01*
G01X3892Y1213D01*
G01X3894Y1209D01*
G01X3897Y1206D01*
G01X3899Y1203D01*
G01X3902Y1200D01*
G01X3905Y1197D01*
G01X3908Y1194D01*
G01X3911Y1191D01*
G01X3914Y1189D01*
G01X3917Y1186D01*
G01X3921Y1184D01*
G01X3924Y1182D01*
G01X3928Y1180D01*
G01X3932Y1178D01*
G01X3935Y1176D01*
G01X3939Y1174D01*
G01X3943Y1173D01*
G01X3947Y1172D01*
G01X3951Y1171D01*
G01X3955Y1170D01*
G01X3959Y1169D01*
G01X3963Y1168D01*
G01X3967Y1168D01*
G01X3971Y1168D01*
G01X3976Y1168D01*
G01X4009Y1168D01*
G01X4010Y1167D01*
G01X4013Y1162D01*
G01X4017Y1158D01*
G01X4020Y1153D01*
G01X4024Y1149D01*
G01X4028Y1145D01*
G01X4374Y800D01*
G01X4293Y800D01*
G01X4293Y591D01*
G01X4492Y591D01*
G01X4492Y682D01*
G01X4519Y655D01*
G01X4519Y398D01*
G01X4508Y380D01*
G01X4500Y359D01*
G01X4493Y338D01*
G01X4492Y329D01*
G01X4492Y375D01*
G01X4293Y375D01*
G01X4293Y167D01*
G01X4392Y167D01*
G01X4396Y167D01*
G01X4400Y167D01*
G01X4404Y167D01*
G01X4408Y168D01*
G01X4412Y169D01*
G01X4416Y170D01*
G01X4420Y171D01*
G01X4424Y172D01*
G01X4428Y173D01*
G01X4432Y175D01*
G01X4435Y177D01*
G01X4439Y179D01*
G01X4443Y181D01*
G01X4446Y183D01*
G01X4450Y185D01*
G01X4453Y188D01*
G01X4456Y190D01*
G01X4459Y193D01*
G01X4462Y196D01*
G01X4465Y199D01*
G01X4468Y202D01*
G01X4470Y205D01*
G01X4473Y208D01*
G01X4475Y212D01*
G01X4477Y215D01*
G01X4479Y219D01*
G01X4481Y223D01*
G01X4483Y226D01*
G01X4485Y230D01*
G01X4486Y234D01*
G01X4487Y238D01*
G01X4488Y242D01*
G01X4489Y246D01*
G01X4490Y247D01*
G01X4493Y229D01*
G01X4500Y208D01*
G01X4508Y187D01*
G01X4519Y168D01*
G01X4532Y149D01*
G01X4546Y132D01*
G01X4562Y117D01*
G01X4579Y103D01*
G01X4598Y91D01*
G01X4617Y81D01*
G01X4638Y73D01*
G01X4659Y67D01*
G01X4681Y63D01*
G01X4703Y62D01*
G37*
G36*
G01X6153Y4905D02*
G01X6298Y4905D01*
G01X6302Y4906D01*
G01X6306Y4906D01*
G01X6310Y4906D01*
G01X6314Y4907D01*
G01X6318Y4908D01*
G01X6322Y4909D01*
G01X6326Y4910D01*
G01X6330Y4911D01*
G01X6334Y4912D01*
G01X6338Y4914D01*
G01X6341Y4916D01*
G01X6345Y4918D01*
G01X6349Y4920D01*
G01X6352Y4922D01*
G01X6356Y4924D01*
G01X6359Y4927D01*
G01X6362Y4929D01*
G01X6365Y4932D01*
G01X6368Y4935D01*
G01X6371Y4938D01*
G01X6374Y4941D01*
G01X6376Y4944D01*
G01X6379Y4947D01*
G01X6381Y4951D01*
G01X6383Y4954D01*
G01X6385Y4958D01*
G01X6387Y4962D01*
G01X6389Y4965D01*
G01X6391Y4969D01*
G01X6392Y4973D01*
G01X6393Y4977D01*
G01X6394Y4981D01*
G01X6395Y4985D01*
G01X6396Y4989D01*
G01X6397Y4993D01*
G01X6397Y4997D01*
G01X6397Y5001D01*
G01X6398Y5005D01*
G01X6398Y5119D01*
G01X6153Y5119D01*
G01X6153Y4905D01*
G37*
G36*
G01X5720Y4905D02*
G01X5864Y4905D01*
G01X5864Y5119D01*
G01X5620Y5119D01*
G01X5620Y5005D01*
G01X5620Y5001D01*
G01X5620Y4997D01*
G01X5620Y4993D01*
G01X5621Y4989D01*
G01X5622Y4985D01*
G01X5623Y4981D01*
G01X5624Y4977D01*
G01X5625Y4973D01*
G01X5626Y4969D01*
G01X5628Y4965D01*
G01X5630Y4962D01*
G01X5632Y4958D01*
G01X5634Y4954D01*
G01X5636Y4951D01*
G01X5638Y4947D01*
G01X5641Y4944D01*
G01X5643Y4941D01*
G01X5646Y4938D01*
G01X5649Y4935D01*
G01X5652Y4932D01*
G01X5655Y4929D01*
G01X5658Y4927D01*
G01X5661Y4924D01*
G01X5665Y4922D01*
G01X5668Y4920D01*
G01X5672Y4918D01*
G01X5676Y4916D01*
G01X5679Y4914D01*
G01X5683Y4912D01*
G01X5687Y4911D01*
G01X5691Y4910D01*
G01X5695Y4909D01*
G01X5699Y4908D01*
G01X5703Y4907D01*
G01X5707Y4906D01*
G01X5711Y4906D01*
G01X5715Y4906D01*
G01X5720Y4905D01*
G37*
G36*
G01X3767Y5043D02*
G01X3876Y5043D01*
G01X3880Y5043D01*
G01X3884Y5043D01*
G01X3888Y5043D01*
G01X3892Y5044D01*
G01X3896Y5045D01*
G01X3900Y5046D01*
G01X3904Y5047D01*
G01X3908Y5048D01*
G01X3912Y5049D01*
G01X3916Y5051D01*
G01X3919Y5053D01*
G01X3923Y5055D01*
G01X3927Y5057D01*
G01X3930Y5059D01*
G01X3934Y5061D01*
G01X3937Y5064D01*
G01X3940Y5066D01*
G01X3943Y5069D01*
G01X3946Y5072D01*
G01X3949Y5075D01*
G01X3952Y5078D01*
G01X3954Y5081D01*
G01X3957Y5084D01*
G01X3959Y5088D01*
G01X3961Y5091D01*
G01X3963Y5095D01*
G01X3965Y5099D01*
G01X3967Y5102D01*
G01X3969Y5106D01*
G01X3970Y5110D01*
G01X3971Y5114D01*
G01X3972Y5118D01*
G01X3973Y5122D01*
G01X3974Y5126D01*
G01X3975Y5130D01*
G01X3975Y5134D01*
G01X3975Y5138D01*
G01X3976Y5143D01*
G01X3976Y5241D01*
G01X3767Y5241D01*
G01X3767Y5043D01*
G37*
G36*
G01X7362Y5201D02*
G01X7795Y5201D01*
G01X7799Y5201D01*
G01X7803Y5201D01*
G01X7807Y5201D01*
G01X7811Y5202D01*
G01X7815Y5203D01*
G01X7819Y5204D01*
G01X7823Y5205D01*
G01X7827Y5206D01*
G01X7831Y5207D01*
G01X7835Y5209D01*
G01X7838Y5211D01*
G01X7842Y5213D01*
G01X7846Y5215D01*
G01X7849Y5217D01*
G01X7853Y5219D01*
G01X7856Y5222D01*
G01X7859Y5224D01*
G01X7862Y5227D01*
G01X7865Y5230D01*
G01X7868Y5233D01*
G01X7871Y5236D01*
G01X7873Y5239D01*
G01X7876Y5242D01*
G01X7878Y5246D01*
G01X7880Y5249D01*
G01X7882Y5253D01*
G01X7884Y5257D01*
G01X7886Y5260D01*
G01X7888Y5264D01*
G01X7889Y5268D01*
G01X7890Y5272D01*
G01X7891Y5276D01*
G01X7892Y5280D01*
G01X7893Y5284D01*
G01X7894Y5288D01*
G01X7894Y5292D01*
G01X7894Y5296D01*
G01X7895Y5301D01*
G01X7895Y5383D01*
G01X7896Y5384D01*
G01X7913Y5402D01*
G01X7925Y5402D01*
G01X7947Y5405D01*
G01X7969Y5410D01*
G01X7990Y5417D01*
G01X8010Y5426D01*
G01X8029Y5437D01*
G01X8047Y5450D01*
G01X8064Y5465D01*
G01X8079Y5481D01*
G01X8092Y5498D01*
G01X8103Y5517D01*
G01X8113Y5537D01*
G01X8121Y5558D01*
G01X8126Y5580D01*
G01X8129Y5601D01*
G01X8130Y5624D01*
G01X8130Y5640D01*
G01X8148Y5633D01*
G01X8169Y5627D01*
G01X8191Y5623D01*
G01X8213Y5622D01*
G01X8235Y5622D01*
G01X8257Y5625D01*
G01X8279Y5630D01*
G01X8300Y5637D01*
G01X8320Y5646D01*
G01X8327Y5650D01*
G01X8327Y5645D01*
G01X8331Y5606D01*
G01X8338Y5567D01*
G01X8350Y5529D01*
G01X8365Y5493D01*
G01X8384Y5458D01*
G01X8406Y5426D01*
G01X8432Y5396D01*
G01X8460Y5368D01*
G01X8491Y5344D01*
G01X8524Y5322D01*
G01X8559Y5304D01*
G01X8596Y5290D01*
G01X8634Y5279D01*
G01X8672Y5272D01*
G01X8712Y5269D01*
G01X8751Y5270D01*
G01X8790Y5275D01*
G01X8829Y5284D01*
G01X8866Y5297D01*
G01X8902Y5313D01*
G01X8936Y5332D01*
G01X8968Y5355D01*
G01X8998Y5382D01*
G01X9024Y5410D01*
G01X9048Y5442D01*
G01X9069Y5475D01*
G01X9086Y5511D01*
G01X9099Y5548D01*
G01X9109Y5586D01*
G01X9115Y5625D01*
G01X9117Y5665D01*
G01X9115Y5704D01*
G01X9109Y5743D01*
G01X9099Y5781D01*
G01X9086Y5818D01*
G01X9069Y5854D01*
G01X9048Y5887D01*
G01X9024Y5919D01*
G01X8998Y5947D01*
G01X8968Y5974D01*
G01X8936Y5997D01*
G01X8907Y6014D01*
G01X8907Y6187D01*
G01X8906Y6191D01*
G01X8906Y6195D01*
G01X8906Y6199D01*
G01X8905Y6203D01*
G01X8904Y6207D01*
G01X8903Y6211D01*
G01X8902Y6215D01*
G01X8901Y6219D01*
G01X8900Y6223D01*
G01X8899Y6226D01*
G01X8900Y6228D01*
G01X8901Y6232D01*
G01X8902Y6236D01*
G01X8903Y6240D01*
G01X8904Y6244D01*
G01X8905Y6248D01*
G01X8906Y6252D01*
G01X8906Y6256D01*
G01X8906Y6260D01*
G01X8907Y6265D01*
G01X8907Y6443D01*
G01X8906Y6447D01*
G01X8906Y6451D01*
G01X8906Y6455D01*
G01X8905Y6459D01*
G01X8904Y6463D01*
G01X8903Y6467D01*
G01X8902Y6471D01*
G01X8901Y6475D01*
G01X8900Y6479D01*
G01X8899Y6482D01*
G01X8900Y6484D01*
G01X8901Y6488D01*
G01X8902Y6492D01*
G01X8903Y6496D01*
G01X8904Y6500D01*
G01X8905Y6504D01*
G01X8906Y6508D01*
G01X8906Y6512D01*
G01X8906Y6516D01*
G01X8907Y6521D01*
G01X8907Y6698D01*
G01X8906Y6702D01*
G01X8906Y6706D01*
G01X8906Y6710D01*
G01X8905Y6714D01*
G01X8904Y6718D01*
G01X8903Y6722D01*
G01X8902Y6726D01*
G01X8901Y6730D01*
G01X8900Y6734D01*
G01X8898Y6737D01*
G01X8900Y6740D01*
G01X8901Y6744D01*
G01X8902Y6748D01*
G01X8903Y6752D01*
G01X8904Y6756D01*
G01X8905Y6760D01*
G01X8906Y6764D01*
G01X8906Y6768D01*
G01X8906Y6772D01*
G01X8907Y6776D01*
G01X8907Y6953D01*
G01X8906Y6958D01*
G01X8906Y6962D01*
G01X8906Y6966D01*
G01X8905Y6970D01*
G01X8904Y6974D01*
G01X8903Y6978D01*
G01X8902Y6982D01*
G01X8901Y6986D01*
G01X8900Y6990D01*
G01X8898Y6993D01*
G01X8900Y6996D01*
G01X8901Y7000D01*
G01X8902Y7004D01*
G01X8903Y7008D01*
G01X8904Y7012D01*
G01X8905Y7016D01*
G01X8906Y7020D01*
G01X8906Y7024D01*
G01X8906Y7028D01*
G01X8907Y7032D01*
G01X8907Y7077D01*
G01X8906Y7077D01*
G01X8609Y7077D01*
G01X8609Y7053D01*
G01X8216Y7053D01*
G01X8216Y7077D01*
G01X7919Y7077D01*
G01X7919Y7077D01*
G01X7919Y7032D01*
G01X7919Y7028D01*
G01X7919Y7024D01*
G01X7919Y7020D01*
G01X7920Y7016D01*
G01X7921Y7012D01*
G01X7922Y7008D01*
G01X7923Y7004D01*
G01X7924Y7000D01*
G01X7925Y6996D01*
G01X7927Y6993D01*
G01X7925Y6990D01*
G01X7924Y6986D01*
G01X7923Y6982D01*
G01X7922Y6978D01*
G01X7921Y6974D01*
G01X7920Y6970D01*
G01X7919Y6966D01*
G01X7919Y6962D01*
G01X7919Y6958D01*
G01X7919Y6953D01*
G01X7919Y6776D01*
G01X7919Y6772D01*
G01X7919Y6770D01*
G01X7896Y6770D01*
G01X7896Y6957D01*
G01X7895Y6961D01*
G01X7895Y6965D01*
G01X7895Y6969D01*
G01X7894Y6973D01*
G01X7893Y6977D01*
G01X7892Y6981D01*
G01X7891Y6985D01*
G01X7890Y6989D01*
G01X7889Y6993D01*
G01X7887Y6997D01*
G01X7885Y7000D01*
G01X7883Y7004D01*
G01X7881Y7008D01*
G01X7879Y7011D01*
G01X7877Y7015D01*
G01X7874Y7018D01*
G01X7872Y7021D01*
G01X7869Y7024D01*
G01X7866Y7027D01*
G01X7863Y7030D01*
G01X7860Y7033D01*
G01X7857Y7035D01*
G01X7854Y7038D01*
G01X7850Y7040D01*
G01X7847Y7042D01*
G01X7843Y7044D01*
G01X7839Y7046D01*
G01X7836Y7048D01*
G01X7832Y7050D01*
G01X7828Y7051D01*
G01X7824Y7052D01*
G01X7820Y7053D01*
G01X7816Y7054D01*
G01X7812Y7055D01*
G01X7808Y7056D01*
G01X7804Y7056D01*
G01X7800Y7056D01*
G01X7796Y7057D01*
G01X7363Y7057D01*
G01X7358Y7056D01*
G01X7354Y7056D01*
G01X7350Y7056D01*
G01X7346Y7055D01*
G01X7342Y7054D01*
G01X7338Y7053D01*
G01X7334Y7052D01*
G01X7330Y7051D01*
G01X7326Y7050D01*
G01X7322Y7048D01*
G01X7319Y7046D01*
G01X7315Y7044D01*
G01X7311Y7042D01*
G01X7308Y7040D01*
G01X7304Y7038D01*
G01X7301Y7035D01*
G01X7298Y7033D01*
G01X7295Y7030D01*
G01X7292Y7027D01*
G01X7289Y7024D01*
G01X7286Y7021D01*
G01X7284Y7018D01*
G01X7281Y7015D01*
G01X7279Y7011D01*
G01X7277Y7008D01*
G01X7275Y7004D01*
G01X7273Y7000D01*
G01X7271Y6997D01*
G01X7269Y6993D01*
G01X7268Y6989D01*
G01X7267Y6985D01*
G01X7266Y6981D01*
G01X7265Y6977D01*
G01X7264Y6973D01*
G01X7263Y6969D01*
G01X7263Y6965D01*
G01X7263Y6961D01*
G01X7263Y6957D01*
G01X7263Y6563D01*
G01X7263Y6558D01*
G01X7263Y6554D01*
G01X7263Y6550D01*
G01X7264Y6546D01*
G01X7265Y6542D01*
G01X7266Y6538D01*
G01X7267Y6534D01*
G01X7268Y6530D01*
G01X7269Y6526D01*
G01X7271Y6522D01*
G01X7273Y6519D01*
G01X7275Y6515D01*
G01X7277Y6511D01*
G01X7279Y6508D01*
G01X7281Y6504D01*
G01X7284Y6501D01*
G01X7286Y6498D01*
G01X7289Y6495D01*
G01X7292Y6492D01*
G01X7295Y6489D01*
G01X7298Y6486D01*
G01X7301Y6484D01*
G01X7304Y6481D01*
G01X7308Y6479D01*
G01X7311Y6477D01*
G01X7315Y6475D01*
G01X7319Y6473D01*
G01X7322Y6471D01*
G01X7326Y6469D01*
G01X7330Y6468D01*
G01X7334Y6467D01*
G01X7338Y6466D01*
G01X7342Y6465D01*
G01X7346Y6464D01*
G01X7350Y6463D01*
G01X7354Y6463D01*
G01X7358Y6463D01*
G01X7363Y6463D01*
G01X7665Y6463D01*
G01X7670Y6461D01*
G01X7675Y6459D01*
G01X7680Y6457D01*
G01X7681Y6457D01*
G01X7649Y6425D01*
G01X7362Y6425D01*
G01X7357Y6424D01*
G01X7353Y6424D01*
G01X7349Y6424D01*
G01X7345Y6423D01*
G01X7341Y6422D01*
G01X7337Y6421D01*
G01X7333Y6420D01*
G01X7329Y6419D01*
G01X7325Y6418D01*
G01X7321Y6416D01*
G01X7318Y6414D01*
G01X7314Y6412D01*
G01X7310Y6410D01*
G01X7307Y6408D01*
G01X7303Y6406D01*
G01X7300Y6403D01*
G01X7297Y6401D01*
G01X7294Y6398D01*
G01X7291Y6395D01*
G01X7288Y6392D01*
G01X7285Y6389D01*
G01X7283Y6386D01*
G01X7280Y6383D01*
G01X7278Y6379D01*
G01X7276Y6376D01*
G01X7274Y6372D01*
G01X7272Y6368D01*
G01X7270Y6365D01*
G01X7268Y6361D01*
G01X7267Y6357D01*
G01X7266Y6353D01*
G01X7265Y6349D01*
G01X7264Y6345D01*
G01X7263Y6341D01*
G01X7262Y6337D01*
G01X7262Y6333D01*
G01X7262Y6329D01*
G01X7262Y6325D01*
G01X7262Y5930D01*
G01X7262Y5926D01*
G01X7262Y5922D01*
G01X7262Y5918D01*
G01X7263Y5914D01*
G01X7264Y5910D01*
G01X7265Y5906D01*
G01X7266Y5902D01*
G01X7267Y5898D01*
G01X7268Y5894D01*
G01X7270Y5890D01*
G01X7272Y5887D01*
G01X7274Y5883D01*
G01X7276Y5879D01*
G01X7278Y5876D01*
G01X7280Y5872D01*
G01X7283Y5869D01*
G01X7285Y5866D01*
G01X7288Y5863D01*
G01X7291Y5860D01*
G01X7294Y5857D01*
G01X7297Y5854D01*
G01X7300Y5852D01*
G01X7303Y5849D01*
G01X7307Y5847D01*
G01X7310Y5845D01*
G01X7314Y5843D01*
G01X7318Y5841D01*
G01X7321Y5839D01*
G01X7325Y5837D01*
G01X7329Y5836D01*
G01X7333Y5835D01*
G01X7337Y5834D01*
G01X7341Y5833D01*
G01X7345Y5832D01*
G01X7349Y5831D01*
G01X7353Y5831D01*
G01X7357Y5831D01*
G01X7362Y5830D01*
G01X7795Y5830D01*
G01X7799Y5831D01*
G01X7803Y5831D01*
G01X7807Y5831D01*
G01X7811Y5832D01*
G01X7815Y5833D01*
G01X7819Y5834D01*
G01X7823Y5835D01*
G01X7827Y5836D01*
G01X7831Y5837D01*
G01X7835Y5839D01*
G01X7838Y5841D01*
G01X7842Y5843D01*
G01X7846Y5845D01*
G01X7849Y5847D01*
G01X7853Y5849D01*
G01X7856Y5852D01*
G01X7859Y5854D01*
G01X7862Y5857D01*
G01X7865Y5860D01*
G01X7868Y5863D01*
G01X7871Y5866D01*
G01X7873Y5869D01*
G01X7876Y5872D01*
G01X7878Y5876D01*
G01X7880Y5879D01*
G01X7882Y5883D01*
G01X7884Y5887D01*
G01X7886Y5890D01*
G01X7888Y5894D01*
G01X7889Y5898D01*
G01X7890Y5902D01*
G01X7891Y5906D01*
G01X7892Y5910D01*
G01X7893Y5914D01*
G01X7894Y5918D01*
G01X7894Y5922D01*
G01X7894Y5926D01*
G01X7895Y5930D01*
G01X7895Y6194D01*
G01X7919Y6194D01*
G01X7919Y6191D01*
G01X7919Y6187D01*
G01X7919Y6009D01*
G01X7919Y6004D01*
G01X7919Y6000D01*
G01X7919Y5996D01*
G01X7920Y5992D01*
G01X7921Y5988D01*
G01X7922Y5984D01*
G01X7923Y5980D01*
G01X7924Y5976D01*
G01X7925Y5972D01*
G01X7927Y5968D01*
G01X7929Y5965D01*
G01X7931Y5961D01*
G01X7933Y5957D01*
G01X7935Y5954D01*
G01X7937Y5950D01*
G01X7940Y5947D01*
G01X7942Y5944D01*
G01X7945Y5941D01*
G01X7948Y5938D01*
G01X7951Y5935D01*
G01X7954Y5932D01*
G01X7957Y5930D01*
G01X7960Y5927D01*
G01X7964Y5925D01*
G01X7967Y5923D01*
G01X7971Y5921D01*
G01X7975Y5919D01*
G01X7978Y5917D01*
G01X7982Y5915D01*
G01X7986Y5914D01*
G01X7990Y5913D01*
G01X7994Y5912D01*
G01X7998Y5911D01*
G01X8002Y5910D01*
G01X8006Y5909D01*
G01X8007Y5909D01*
G01X8003Y5898D01*
G01X7999Y5877D01*
G01X7997Y5855D01*
G01X7997Y5832D01*
G01X7997Y5827D01*
G01X7990Y5830D01*
G01X7969Y5837D01*
G01X7947Y5842D01*
G01X7925Y5845D01*
G01X7903Y5845D01*
G01X7881Y5844D01*
G01X7859Y5840D01*
G01X7838Y5834D01*
G01X7817Y5826D01*
G01X7798Y5816D01*
G01X7779Y5804D01*
G01X7767Y5795D01*
G01X7362Y5795D01*
G01X7357Y5794D01*
G01X7353Y5794D01*
G01X7349Y5794D01*
G01X7345Y5793D01*
G01X7341Y5792D01*
G01X7337Y5791D01*
G01X7333Y5790D01*
G01X7329Y5789D01*
G01X7325Y5788D01*
G01X7321Y5786D01*
G01X7318Y5784D01*
G01X7314Y5782D01*
G01X7310Y5780D01*
G01X7307Y5778D01*
G01X7303Y5776D01*
G01X7300Y5773D01*
G01X7297Y5771D01*
G01X7294Y5768D01*
G01X7291Y5765D01*
G01X7288Y5762D01*
G01X7285Y5759D01*
G01X7283Y5756D01*
G01X7280Y5753D01*
G01X7278Y5749D01*
G01X7276Y5746D01*
G01X7274Y5742D01*
G01X7272Y5738D01*
G01X7270Y5735D01*
G01X7268Y5731D01*
G01X7267Y5727D01*
G01X7266Y5723D01*
G01X7265Y5719D01*
G01X7264Y5715D01*
G01X7263Y5711D01*
G01X7262Y5707D01*
G01X7262Y5703D01*
G01X7262Y5699D01*
G01X7262Y5695D01*
G01X7262Y5301D01*
G01X7262Y5296D01*
G01X7262Y5292D01*
G01X7262Y5288D01*
G01X7263Y5284D01*
G01X7264Y5280D01*
G01X7265Y5276D01*
G01X7266Y5272D01*
G01X7267Y5268D01*
G01X7268Y5264D01*
G01X7270Y5260D01*
G01X7272Y5257D01*
G01X7274Y5253D01*
G01X7276Y5249D01*
G01X7278Y5246D01*
G01X7280Y5242D01*
G01X7283Y5239D01*
G01X7285Y5236D01*
G01X7288Y5233D01*
G01X7291Y5230D01*
G01X7294Y5227D01*
G01X7297Y5224D01*
G01X7300Y5222D01*
G01X7303Y5219D01*
G01X7307Y5217D01*
G01X7310Y5215D01*
G01X7314Y5213D01*
G01X7318Y5211D01*
G01X7321Y5209D01*
G01X7325Y5207D01*
G01X7329Y5206D01*
G01X7333Y5205D01*
G01X7337Y5204D01*
G01X7341Y5203D01*
G01X7345Y5202D01*
G01X7349Y5201D01*
G01X7353Y5201D01*
G01X7357Y5201D01*
G01X7362Y5201D01*
G37*
G36*
G01X5620Y5348D02*
G01X5864Y5348D01*
G01X5864Y5562D01*
G01X5720Y5562D01*
G01X5715Y5561D01*
G01X5711Y5561D01*
G01X5707Y5561D01*
G01X5703Y5560D01*
G01X5699Y5559D01*
G01X5695Y5558D01*
G01X5691Y5557D01*
G01X5687Y5556D01*
G01X5683Y5555D01*
G01X5679Y5553D01*
G01X5676Y5551D01*
G01X5672Y5549D01*
G01X5668Y5547D01*
G01X5665Y5545D01*
G01X5661Y5543D01*
G01X5658Y5540D01*
G01X5655Y5538D01*
G01X5652Y5535D01*
G01X5649Y5532D01*
G01X5646Y5529D01*
G01X5643Y5526D01*
G01X5641Y5523D01*
G01X5638Y5520D01*
G01X5636Y5516D01*
G01X5634Y5513D01*
G01X5632Y5509D01*
G01X5630Y5505D01*
G01X5628Y5502D01*
G01X5626Y5498D01*
G01X5625Y5494D01*
G01X5624Y5490D01*
G01X5623Y5486D01*
G01X5622Y5482D01*
G01X5621Y5478D01*
G01X5620Y5474D01*
G01X5620Y5470D01*
G01X5620Y5466D01*
G01X5620Y5462D01*
G01X5620Y5348D01*
G37*
G36*
G01X3767Y5438D02*
G01X3976Y5438D01*
G01X3976Y5537D01*
G01X3975Y5541D01*
G01X3975Y5545D01*
G01X3975Y5549D01*
G01X3974Y5553D01*
G01X3973Y5557D01*
G01X3972Y5561D01*
G01X3971Y5565D01*
G01X3970Y5569D01*
G01X3969Y5573D01*
G01X3967Y5577D01*
G01X3965Y5580D01*
G01X3963Y5584D01*
G01X3961Y5588D01*
G01X3959Y5591D01*
G01X3957Y5595D01*
G01X3954Y5598D01*
G01X3952Y5601D01*
G01X3949Y5604D01*
G01X3946Y5607D01*
G01X3943Y5610D01*
G01X3940Y5613D01*
G01X3937Y5615D01*
G01X3934Y5618D01*
G01X3930Y5620D01*
G01X3927Y5622D01*
G01X3923Y5624D01*
G01X3919Y5626D01*
G01X3916Y5628D01*
G01X3912Y5630D01*
G01X3908Y5631D01*
G01X3904Y5632D01*
G01X3900Y5633D01*
G01X3896Y5634D01*
G01X3892Y5635D01*
G01X3888Y5636D01*
G01X3884Y5636D01*
G01X3880Y5636D01*
G01X3876Y5637D01*
G01X3767Y5637D01*
G01X3767Y5438D01*
G37*
G36*
G01X747Y5748D02*
G01X885Y5748D01*
G01X889Y5748D01*
G01X893Y5748D01*
G01X897Y5748D01*
G01X901Y5749D01*
G01X905Y5750D01*
G01X909Y5751D01*
G01X913Y5752D01*
G01X917Y5753D01*
G01X921Y5754D01*
G01X925Y5756D01*
G01X928Y5758D01*
G01X932Y5760D01*
G01X936Y5762D01*
G01X939Y5764D01*
G01X943Y5766D01*
G01X946Y5769D01*
G01X949Y5771D01*
G01X952Y5774D01*
G01X955Y5777D01*
G01X958Y5780D01*
G01X961Y5783D01*
G01X963Y5786D01*
G01X966Y5789D01*
G01X968Y5793D01*
G01X970Y5796D01*
G01X972Y5800D01*
G01X974Y5804D01*
G01X976Y5807D01*
G01X978Y5811D01*
G01X979Y5815D01*
G01X980Y5819D01*
G01X981Y5823D01*
G01X982Y5827D01*
G01X983Y5831D01*
G01X984Y5835D01*
G01X984Y5839D01*
G01X984Y5843D01*
G01X985Y5848D01*
G01X985Y5976D01*
G01X747Y5976D01*
G01X747Y5748D01*
G37*
G36*
G01X334Y5748D02*
G01X471Y5748D01*
G01X471Y5976D01*
G01X234Y5976D01*
G01X234Y5848D01*
G01X234Y5843D01*
G01X234Y5839D01*
G01X234Y5835D01*
G01X235Y5831D01*
G01X236Y5827D01*
G01X237Y5823D01*
G01X238Y5819D01*
G01X239Y5815D01*
G01X240Y5811D01*
G01X242Y5807D01*
G01X244Y5804D01*
G01X246Y5800D01*
G01X248Y5796D01*
G01X250Y5793D01*
G01X252Y5789D01*
G01X255Y5786D01*
G01X257Y5783D01*
G01X260Y5780D01*
G01X263Y5777D01*
G01X266Y5774D01*
G01X269Y5771D01*
G01X272Y5769D01*
G01X275Y5766D01*
G01X279Y5764D01*
G01X282Y5762D01*
G01X286Y5760D01*
G01X290Y5758D01*
G01X293Y5756D01*
G01X297Y5754D01*
G01X301Y5753D01*
G01X305Y5752D01*
G01X309Y5751D01*
G01X313Y5750D01*
G01X317Y5749D01*
G01X321Y5748D01*
G01X325Y5748D01*
G01X329Y5748D01*
G01X334Y5748D01*
G37*
G36*
G01X10100Y5801D02*
G01X10115Y5801D01*
G01X10130Y5803D01*
G01X10144Y5807D01*
G01X10159Y5811D01*
G01X10172Y5817D01*
G01X10185Y5825D01*
G01X10197Y5834D01*
G01X10209Y5844D01*
G01X10219Y5854D01*
G01X10228Y5866D01*
G01X10236Y5879D01*
G01X10242Y5893D01*
G01X10247Y5907D01*
G01X10251Y5921D01*
G01X10253Y5936D01*
G01X10254Y5951D01*
G01X10253Y5966D01*
G01X10251Y5981D01*
G01X10247Y5995D01*
G01X10242Y6009D01*
G01X10236Y6023D01*
G01X10228Y6035D01*
G01X10219Y6047D01*
G01X10209Y6058D01*
G01X10197Y6068D01*
G01X10185Y6077D01*
G01X10172Y6084D01*
G01X10159Y6091D01*
G01X10144Y6095D01*
G01X10130Y6099D01*
G01X10115Y6100D01*
G01X10100Y6101D01*
G01X10085Y6100D01*
G01X10070Y6097D01*
G01X10056Y6093D01*
G01X10042Y6088D01*
G01X10029Y6081D01*
G01X10016Y6073D01*
G01X10005Y6063D01*
G01X9994Y6053D01*
G01X9984Y6041D01*
G01X9976Y6029D01*
G01X9969Y6016D01*
G01X9963Y6002D01*
G01X9958Y5988D01*
G01X9955Y5973D01*
G01X9954Y5958D01*
G01X9954Y5943D01*
G01X9955Y5929D01*
G01X9958Y5914D01*
G01X9963Y5900D01*
G01X9969Y5886D01*
G01X9976Y5873D01*
G01X9984Y5860D01*
G01X9994Y5849D01*
G01X10005Y5838D01*
G01X10016Y5829D01*
G01X10029Y5821D01*
G01X10042Y5814D01*
G01X10056Y5809D01*
G01X10070Y5805D01*
G01X10085Y5802D01*
G01X10100Y5801D01*
G37*
G36*
G01X747Y6232D02*
G01X985Y6232D01*
G01X985Y6360D01*
G01X984Y6364D01*
G01X984Y6368D01*
G01X984Y6372D01*
G01X983Y6376D01*
G01X982Y6380D01*
G01X981Y6384D01*
G01X980Y6388D01*
G01X979Y6392D01*
G01X978Y6396D01*
G01X976Y6400D01*
G01X974Y6403D01*
G01X972Y6407D01*
G01X970Y6411D01*
G01X968Y6414D01*
G01X966Y6418D01*
G01X963Y6421D01*
G01X961Y6424D01*
G01X958Y6427D01*
G01X955Y6430D01*
G01X952Y6433D01*
G01X949Y6436D01*
G01X946Y6438D01*
G01X943Y6441D01*
G01X939Y6443D01*
G01X936Y6445D01*
G01X932Y6447D01*
G01X928Y6449D01*
G01X925Y6451D01*
G01X921Y6453D01*
G01X917Y6454D01*
G01X913Y6455D01*
G01X909Y6456D01*
G01X905Y6457D01*
G01X901Y6458D01*
G01X897Y6459D01*
G01X893Y6459D01*
G01X889Y6459D01*
G01X885Y6460D01*
G01X747Y6460D01*
G01X747Y6232D01*
G37*
G36*
G01X234Y6232D02*
G01X471Y6232D01*
G01X471Y6460D01*
G01X334Y6460D01*
G01X329Y6459D01*
G01X325Y6459D01*
G01X321Y6459D01*
G01X317Y6458D01*
G01X313Y6457D01*
G01X309Y6456D01*
G01X305Y6455D01*
G01X301Y6454D01*
G01X297Y6453D01*
G01X293Y6451D01*
G01X290Y6449D01*
G01X286Y6447D01*
G01X282Y6445D01*
G01X279Y6443D01*
G01X275Y6441D01*
G01X272Y6438D01*
G01X269Y6436D01*
G01X266Y6433D01*
G01X263Y6430D01*
G01X260Y6427D01*
G01X257Y6424D01*
G01X255Y6421D01*
G01X252Y6418D01*
G01X250Y6414D01*
G01X248Y6411D01*
G01X246Y6407D01*
G01X244Y6403D01*
G01X242Y6400D01*
G01X240Y6396D01*
G01X239Y6392D01*
G01X238Y6388D01*
G01X237Y6384D01*
G01X236Y6380D01*
G01X235Y6376D01*
G01X234Y6372D01*
G01X234Y6368D01*
G01X234Y6364D01*
G01X234Y6360D01*
G01X234Y6232D01*
G37*
G36*
G01X5585Y6548D02*
G01X5703Y6548D01*
G01X5707Y6548D01*
G01X5711Y6548D01*
G01X5715Y6548D01*
G01X5719Y6549D01*
G01X5723Y6550D01*
G01X5727Y6551D01*
G01X5731Y6552D01*
G01X5735Y6553D01*
G01X5739Y6554D01*
G01X5743Y6556D01*
G01X5746Y6558D01*
G01X5750Y6560D01*
G01X5754Y6562D01*
G01X5757Y6564D01*
G01X5761Y6566D01*
G01X5764Y6569D01*
G01X5767Y6571D01*
G01X5770Y6574D01*
G01X5773Y6577D01*
G01X5776Y6580D01*
G01X5779Y6583D01*
G01X5781Y6586D01*
G01X5784Y6589D01*
G01X5786Y6593D01*
G01X5788Y6596D01*
G01X5790Y6600D01*
G01X5792Y6604D01*
G01X5794Y6607D01*
G01X5796Y6611D01*
G01X5797Y6615D01*
G01X5798Y6619D01*
G01X5799Y6623D01*
G01X5800Y6627D01*
G01X5801Y6631D01*
G01X5802Y6635D01*
G01X5802Y6639D01*
G01X5802Y6643D01*
G01X5803Y6648D01*
G01X5803Y6765D01*
G01X5585Y6765D01*
G01X5585Y6548D01*
G37*
G36*
G01X5230Y6548D02*
G01X5348Y6548D01*
G01X5348Y6765D01*
G01X5130Y6765D01*
G01X5130Y6648D01*
G01X5131Y6643D01*
G01X5131Y6639D01*
G01X5131Y6635D01*
G01X5132Y6631D01*
G01X5133Y6627D01*
G01X5134Y6623D01*
G01X5135Y6619D01*
G01X5136Y6615D01*
G01X5137Y6611D01*
G01X5139Y6607D01*
G01X5141Y6604D01*
G01X5143Y6600D01*
G01X5145Y6596D01*
G01X5147Y6593D01*
G01X5149Y6589D01*
G01X5152Y6586D01*
G01X5154Y6583D01*
G01X5157Y6580D01*
G01X5160Y6577D01*
G01X5163Y6574D01*
G01X5166Y6571D01*
G01X5169Y6569D01*
G01X5172Y6566D01*
G01X5176Y6564D01*
G01X5179Y6562D01*
G01X5183Y6560D01*
G01X5187Y6558D01*
G01X5190Y6556D01*
G01X5194Y6554D01*
G01X5198Y6553D01*
G01X5202Y6552D01*
G01X5206Y6551D01*
G01X5210Y6550D01*
G01X5214Y6549D01*
G01X5218Y6548D01*
G01X5222Y6548D01*
G01X5226Y6548D01*
G01X5230Y6548D01*
G37*
G36*
G01X1225Y6674D02*
G01X1238Y6674D01*
G01X1250Y6674D01*
G01X1263Y6676D01*
G01X1275Y6678D01*
G01X1287Y6680D01*
G01X1299Y6684D01*
G01X1311Y6688D01*
G01X1323Y6692D01*
G01X1334Y6697D01*
G01X1345Y6702D01*
G01X1356Y6709D01*
G01X1367Y6715D01*
G01X1377Y6722D01*
G01X1387Y6730D01*
G01X1396Y6738D01*
G01X1405Y6747D01*
G01X1461Y6803D01*
G01X1466Y6807D01*
G01X1470Y6812D01*
G01X1475Y6817D01*
G01X1479Y6822D01*
G01X1483Y6827D01*
G01X1487Y6833D01*
G01X1491Y6838D01*
G01X1494Y6843D01*
G01X1498Y6849D01*
G01X1501Y6855D01*
G01X1504Y6860D01*
G01X1507Y6866D01*
G01X1510Y6872D01*
G01X1513Y6878D01*
G01X1515Y6884D01*
G01X1518Y6890D01*
G01X1520Y6896D01*
G01X1522Y6902D01*
G01X1524Y6909D01*
G01X1526Y6915D01*
G01X1528Y6921D01*
G01X1529Y6928D01*
G01X1530Y6934D01*
G01X1531Y6940D01*
G01X1532Y6947D01*
G01X1533Y6953D01*
G01X1534Y6960D01*
G01X1534Y6966D01*
G01X1534Y6973D01*
G01X1535Y6980D01*
G01X1535Y7342D01*
G01X1534Y7354D01*
G01X1533Y7366D01*
G01X1532Y7379D01*
G01X1530Y7391D01*
G01X1527Y7403D01*
G01X1523Y7415D01*
G01X1523Y7418D01*
G01X1523Y7588D01*
G01X1522Y7592D01*
G01X1522Y7596D01*
G01X1522Y7600D01*
G01X1521Y7604D01*
G01X1520Y7608D01*
G01X1519Y7612D01*
G01X1518Y7616D01*
G01X1517Y7620D01*
G01X1516Y7624D01*
G01X1514Y7628D01*
G01X1512Y7631D01*
G01X1510Y7635D01*
G01X1508Y7639D01*
G01X1506Y7642D01*
G01X1504Y7646D01*
G01X1501Y7649D01*
G01X1499Y7652D01*
G01X1496Y7655D01*
G01X1493Y7658D01*
G01X1490Y7661D01*
G01X1487Y7664D01*
G01X1484Y7666D01*
G01X1481Y7669D01*
G01X1477Y7671D01*
G01X1474Y7673D01*
G01X1470Y7675D01*
G01X1466Y7677D01*
G01X1463Y7679D01*
G01X1459Y7681D01*
G01X1455Y7682D01*
G01X1451Y7683D01*
G01X1447Y7684D01*
G01X1443Y7685D01*
G01X1439Y7686D01*
G01X1435Y7687D01*
G01X1431Y7687D01*
G01X1427Y7687D01*
G01X1423Y7688D01*
G01X1147Y7688D01*
G01X1142Y7687D01*
G01X1138Y7687D01*
G01X1134Y7687D01*
G01X1130Y7686D01*
G01X1126Y7685D01*
G01X1122Y7684D01*
G01X1118Y7683D01*
G01X1114Y7682D01*
G01X1110Y7681D01*
G01X1106Y7679D01*
G01X1103Y7677D01*
G01X1099Y7675D01*
G01X1095Y7673D01*
G01X1092Y7671D01*
G01X1088Y7669D01*
G01X1085Y7666D01*
G01X1082Y7664D01*
G01X1079Y7661D01*
G01X1076Y7658D01*
G01X1073Y7655D01*
G01X1070Y7652D01*
G01X1068Y7649D01*
G01X1065Y7646D01*
G01X1063Y7642D01*
G01X1061Y7639D01*
G01X1059Y7635D01*
G01X1057Y7631D01*
G01X1055Y7628D01*
G01X1053Y7624D01*
G01X1052Y7620D01*
G01X1051Y7616D01*
G01X1050Y7612D01*
G01X1049Y7608D01*
G01X1048Y7604D01*
G01X1047Y7600D01*
G01X1047Y7596D01*
G01X1047Y7592D01*
G01X1047Y7588D01*
G01X1047Y7418D01*
G01X1046Y7415D01*
G01X1042Y7403D01*
G01X1039Y7391D01*
G01X1037Y7379D01*
G01X1036Y7366D01*
G01X1035Y7354D01*
G01X1035Y7342D01*
G01X1035Y7081D01*
G01X1027Y7072D01*
G01X1020Y7062D01*
G01X1014Y7051D01*
G01X1007Y7040D01*
G01X1002Y7029D01*
G01X997Y7018D01*
G01X993Y7006D01*
G01X989Y6994D01*
G01X985Y6982D01*
G01X983Y6970D01*
G01X981Y6958D01*
G01X979Y6945D01*
G01X979Y6933D01*
G01X979Y6920D01*
G01X979Y6908D01*
G01X980Y6896D01*
G01X982Y6883D01*
G01X984Y6871D01*
G01X987Y6859D01*
G01X991Y6847D01*
G01X995Y6835D01*
G01X999Y6824D01*
G01X1005Y6812D01*
G01X1010Y6801D01*
G01X1017Y6790D01*
G01X1024Y6780D01*
G01X1031Y6770D01*
G01X1039Y6760D01*
G01X1047Y6751D01*
G01X1056Y6742D01*
G01X1065Y6734D01*
G01X1075Y6726D01*
G01X1085Y6719D01*
G01X1095Y6712D01*
G01X1106Y6705D01*
G01X1117Y6700D01*
G01X1129Y6694D01*
G01X1140Y6690D01*
G01X1152Y6686D01*
G01X1164Y6682D01*
G01X1176Y6679D01*
G01X1188Y6677D01*
G01X1201Y6675D01*
G01X1213Y6674D01*
G01X1225Y6674D01*
G37*
G36*
G01X4051Y6886D02*
G01X4121Y6886D01*
G01X4125Y6886D01*
G01X4129Y6886D01*
G01X4133Y6886D01*
G01X4137Y6887D01*
G01X4141Y6888D01*
G01X4145Y6889D01*
G01X4149Y6890D01*
G01X4153Y6891D01*
G01X4157Y6892D01*
G01X4161Y6894D01*
G01X4164Y6896D01*
G01X4168Y6898D01*
G01X4172Y6900D01*
G01X4175Y6902D01*
G01X4179Y6904D01*
G01X4182Y6907D01*
G01X4185Y6909D01*
G01X4188Y6912D01*
G01X4191Y6915D01*
G01X4194Y6918D01*
G01X4197Y6921D01*
G01X4199Y6924D01*
G01X4202Y6927D01*
G01X4204Y6931D01*
G01X4206Y6934D01*
G01X4208Y6938D01*
G01X4210Y6942D01*
G01X4212Y6945D01*
G01X4214Y6949D01*
G01X4215Y6953D01*
G01X4216Y6957D01*
G01X4217Y6961D01*
G01X4218Y6965D01*
G01X4219Y6969D01*
G01X4220Y6973D01*
G01X4220Y6977D01*
G01X4220Y6981D01*
G01X4221Y6986D01*
G01X4221Y7108D01*
G01X4051Y7108D01*
G01X4051Y6886D01*
G37*
G36*
G01X667Y6943D02*
G01X776Y6943D01*
G01X780Y6943D01*
G01X784Y6943D01*
G01X788Y6943D01*
G01X792Y6944D01*
G01X796Y6945D01*
G01X800Y6946D01*
G01X804Y6947D01*
G01X808Y6948D01*
G01X812Y6949D01*
G01X816Y6951D01*
G01X819Y6953D01*
G01X823Y6955D01*
G01X827Y6957D01*
G01X830Y6959D01*
G01X834Y6961D01*
G01X837Y6964D01*
G01X840Y6966D01*
G01X843Y6969D01*
G01X846Y6972D01*
G01X849Y6975D01*
G01X852Y6978D01*
G01X854Y6981D01*
G01X857Y6984D01*
G01X859Y6988D01*
G01X861Y6991D01*
G01X863Y6995D01*
G01X865Y6999D01*
G01X867Y7002D01*
G01X869Y7006D01*
G01X870Y7010D01*
G01X871Y7014D01*
G01X872Y7018D01*
G01X873Y7022D01*
G01X874Y7026D01*
G01X875Y7030D01*
G01X875Y7034D01*
G01X875Y7038D01*
G01X876Y7043D01*
G01X876Y7141D01*
G01X667Y7141D01*
G01X667Y6943D01*
G37*
G36*
G01X343Y6943D02*
G01X451Y6943D01*
G01X451Y7141D01*
G01X243Y7141D01*
G01X243Y7043D01*
G01X243Y7038D01*
G01X243Y7034D01*
G01X243Y7030D01*
G01X244Y7026D01*
G01X245Y7022D01*
G01X246Y7018D01*
G01X247Y7014D01*
G01X248Y7010D01*
G01X249Y7006D01*
G01X251Y7002D01*
G01X253Y6999D01*
G01X255Y6995D01*
G01X257Y6991D01*
G01X259Y6988D01*
G01X261Y6984D01*
G01X264Y6981D01*
G01X266Y6978D01*
G01X269Y6975D01*
G01X272Y6972D01*
G01X275Y6969D01*
G01X278Y6966D01*
G01X281Y6964D01*
G01X284Y6961D01*
G01X288Y6959D01*
G01X291Y6957D01*
G01X295Y6955D01*
G01X299Y6953D01*
G01X302Y6951D01*
G01X306Y6949D01*
G01X310Y6948D01*
G01X314Y6947D01*
G01X318Y6946D01*
G01X322Y6945D01*
G01X326Y6944D01*
G01X330Y6943D01*
G01X334Y6943D01*
G01X338Y6943D01*
G01X343Y6943D01*
G37*
G36*
G01X1895Y6996D02*
G01X2171Y6996D01*
G01X2175Y6996D01*
G01X2179Y6996D01*
G01X2183Y6996D01*
G01X2187Y6997D01*
G01X2191Y6998D01*
G01X2195Y6999D01*
G01X2199Y7000D01*
G01X2203Y7001D01*
G01X2207Y7002D01*
G01X2211Y7004D01*
G01X2214Y7006D01*
G01X2218Y7008D01*
G01X2222Y7010D01*
G01X2225Y7012D01*
G01X2229Y7014D01*
G01X2232Y7017D01*
G01X2235Y7019D01*
G01X2238Y7022D01*
G01X2241Y7025D01*
G01X2244Y7028D01*
G01X2247Y7031D01*
G01X2249Y7034D01*
G01X2252Y7037D01*
G01X2254Y7041D01*
G01X2256Y7044D01*
G01X2258Y7048D01*
G01X2260Y7052D01*
G01X2262Y7055D01*
G01X2264Y7059D01*
G01X2265Y7063D01*
G01X2266Y7067D01*
G01X2267Y7071D01*
G01X2268Y7075D01*
G01X2269Y7079D01*
G01X2270Y7083D01*
G01X2270Y7087D01*
G01X2270Y7091D01*
G01X2271Y7096D01*
G01X2271Y7588D01*
G01X2270Y7592D01*
G01X2270Y7596D01*
G01X2270Y7600D01*
G01X2269Y7604D01*
G01X2268Y7608D01*
G01X2267Y7612D01*
G01X2266Y7616D01*
G01X2265Y7620D01*
G01X2264Y7624D01*
G01X2262Y7628D01*
G01X2260Y7631D01*
G01X2258Y7635D01*
G01X2256Y7639D01*
G01X2254Y7642D01*
G01X2252Y7646D01*
G01X2249Y7649D01*
G01X2247Y7652D01*
G01X2244Y7655D01*
G01X2241Y7658D01*
G01X2238Y7661D01*
G01X2235Y7664D01*
G01X2232Y7666D01*
G01X2229Y7669D01*
G01X2225Y7671D01*
G01X2222Y7673D01*
G01X2218Y7675D01*
G01X2214Y7677D01*
G01X2211Y7679D01*
G01X2207Y7681D01*
G01X2203Y7682D01*
G01X2199Y7683D01*
G01X2195Y7684D01*
G01X2191Y7685D01*
G01X2187Y7686D01*
G01X2183Y7687D01*
G01X2179Y7687D01*
G01X2175Y7687D01*
G01X2171Y7688D01*
G01X1895Y7688D01*
G01X1890Y7687D01*
G01X1886Y7687D01*
G01X1882Y7687D01*
G01X1878Y7686D01*
G01X1874Y7685D01*
G01X1870Y7684D01*
G01X1866Y7683D01*
G01X1862Y7682D01*
G01X1858Y7681D01*
G01X1854Y7679D01*
G01X1851Y7677D01*
G01X1847Y7675D01*
G01X1843Y7673D01*
G01X1840Y7671D01*
G01X1836Y7669D01*
G01X1833Y7666D01*
G01X1830Y7664D01*
G01X1827Y7661D01*
G01X1824Y7658D01*
G01X1821Y7655D01*
G01X1818Y7652D01*
G01X1816Y7649D01*
G01X1813Y7646D01*
G01X1811Y7642D01*
G01X1809Y7639D01*
G01X1807Y7635D01*
G01X1805Y7631D01*
G01X1803Y7628D01*
G01X1801Y7624D01*
G01X1800Y7620D01*
G01X1799Y7616D01*
G01X1798Y7612D01*
G01X1797Y7608D01*
G01X1796Y7604D01*
G01X1795Y7600D01*
G01X1795Y7596D01*
G01X1795Y7592D01*
G01X1795Y7588D01*
G01X1795Y7096D01*
G01X1795Y7091D01*
G01X1795Y7087D01*
G01X1795Y7083D01*
G01X1796Y7079D01*
G01X1797Y7075D01*
G01X1798Y7071D01*
G01X1799Y7067D01*
G01X1800Y7063D01*
G01X1801Y7059D01*
G01X1803Y7055D01*
G01X1805Y7052D01*
G01X1807Y7048D01*
G01X1809Y7044D01*
G01X1811Y7041D01*
G01X1813Y7037D01*
G01X1816Y7034D01*
G01X1818Y7031D01*
G01X1821Y7028D01*
G01X1824Y7025D01*
G01X1827Y7022D01*
G01X1830Y7019D01*
G01X1833Y7017D01*
G01X1836Y7014D01*
G01X1840Y7012D01*
G01X1843Y7010D01*
G01X1847Y7008D01*
G01X1851Y7006D01*
G01X1854Y7004D01*
G01X1858Y7002D01*
G01X1862Y7001D01*
G01X1866Y7000D01*
G01X1870Y6999D01*
G01X1874Y6998D01*
G01X1878Y6997D01*
G01X1882Y6996D01*
G01X1886Y6996D01*
G01X1890Y6996D01*
G01X1895Y6996D01*
G37*
G36*
G01X5585Y7002D02*
G01X5803Y7002D01*
G01X5803Y7120D01*
G01X5802Y7124D01*
G01X5802Y7128D01*
G01X5802Y7132D01*
G01X5801Y7136D01*
G01X5800Y7140D01*
G01X5799Y7144D01*
G01X5798Y7148D01*
G01X5797Y7152D01*
G01X5796Y7156D01*
G01X5794Y7160D01*
G01X5792Y7163D01*
G01X5790Y7167D01*
G01X5788Y7171D01*
G01X5786Y7174D01*
G01X5784Y7178D01*
G01X5781Y7181D01*
G01X5779Y7184D01*
G01X5776Y7187D01*
G01X5773Y7190D01*
G01X5770Y7193D01*
G01X5767Y7196D01*
G01X5764Y7198D01*
G01X5761Y7201D01*
G01X5757Y7203D01*
G01X5754Y7205D01*
G01X5750Y7207D01*
G01X5746Y7209D01*
G01X5743Y7211D01*
G01X5739Y7213D01*
G01X5735Y7214D01*
G01X5731Y7215D01*
G01X5727Y7216D01*
G01X5723Y7217D01*
G01X5719Y7218D01*
G01X5715Y7219D01*
G01X5711Y7219D01*
G01X5707Y7219D01*
G01X5703Y7220D01*
G01X5585Y7220D01*
G01X5585Y7002D01*
G37*
G36*
G01X5130Y7002D02*
G01X5348Y7002D01*
G01X5348Y7220D01*
G01X5230Y7220D01*
G01X5226Y7219D01*
G01X5222Y7219D01*
G01X5218Y7219D01*
G01X5214Y7218D01*
G01X5210Y7217D01*
G01X5206Y7216D01*
G01X5202Y7215D01*
G01X5198Y7214D01*
G01X5194Y7213D01*
G01X5190Y7211D01*
G01X5187Y7209D01*
G01X5183Y7207D01*
G01X5179Y7205D01*
G01X5176Y7203D01*
G01X5172Y7201D01*
G01X5169Y7198D01*
G01X5166Y7196D01*
G01X5163Y7193D01*
G01X5160Y7190D01*
G01X5157Y7187D01*
G01X5154Y7184D01*
G01X5152Y7181D01*
G01X5149Y7178D01*
G01X5147Y7174D01*
G01X5145Y7171D01*
G01X5143Y7167D01*
G01X5141Y7163D01*
G01X5139Y7160D01*
G01X5137Y7156D01*
G01X5136Y7152D01*
G01X5135Y7148D01*
G01X5134Y7144D01*
G01X5133Y7140D01*
G01X5132Y7136D01*
G01X5131Y7132D01*
G01X5131Y7128D01*
G01X5131Y7124D01*
G01X5130Y7120D01*
G01X5130Y7002D01*
G37*
G36*
G01X5551Y4527D02*
G01X5830Y4527D01*
G01X5830Y4761D01*
G01X5651Y4761D01*
G01X5647Y4760D01*
G01X5643Y4760D01*
G01X5639Y4760D01*
G01X5635Y4759D01*
G01X5631Y4758D01*
G01X5627Y4757D01*
G01X5623Y4756D01*
G01X5619Y4755D01*
G01X5615Y4754D01*
G01X5611Y4752D01*
G01X5608Y4750D01*
G01X5604Y4748D01*
G01X5600Y4746D01*
G01X5597Y4744D01*
G01X5593Y4742D01*
G01X5590Y4739D01*
G01X5587Y4737D01*
G01X5584Y4734D01*
G01X5581Y4731D01*
G01X5578Y4728D01*
G01X5575Y4725D01*
G01X5573Y4722D01*
G01X5570Y4719D01*
G01X5568Y4715D01*
G01X5566Y4712D01*
G01X5564Y4708D01*
G01X5562Y4704D01*
G01X5560Y4701D01*
G01X5558Y4697D01*
G01X5557Y4693D01*
G01X5556Y4689D01*
G01X5555Y4685D01*
G01X5554Y4681D01*
G01X5553Y4677D01*
G01X5552Y4673D01*
G01X5552Y4669D01*
G01X5552Y4665D01*
G01X5551Y4661D01*
G01X5551Y4527D01*
G37*

%LPD*%
G36*
G01X945Y483D02*
G01X938Y483D01*
G01X921Y485D01*
G01X904Y487D01*
G01X887Y490D01*
G01X871Y493D01*
G01X854Y497D01*
G01X838Y502D01*
G01X822Y507D01*
G01X806Y512D01*
G01X790Y518D01*
G01X774Y525D01*
G01X759Y532D01*
G01X744Y540D01*
G01X729Y548D01*
G01X714Y557D01*
G01X700Y566D01*
G01X686Y576D01*
G01X673Y586D01*
G01X659Y596D01*
G01X647Y607D01*
G01X634Y619D01*
G01X622Y631D01*
G01X610Y643D01*
G01X599Y655D01*
G01X588Y669D01*
G01X578Y682D01*
G01X568Y695D01*
G01X558Y710D01*
G01X549Y724D01*
G01X541Y738D01*
G01X533Y753D01*
G01X525Y768D01*
G01X518Y784D01*
G01X512Y800D01*
G01X506Y815D01*
G01X500Y832D01*
G01X495Y848D01*
G01X491Y864D01*
G01X487Y881D01*
G01X484Y897D01*
G01X482Y914D01*
G01X480Y931D01*
G01X478Y942D01*
G01X478Y1721D01*
G01X670Y1912D01*
G01X674Y1911D01*
G01X679Y1908D01*
G01X685Y1907D01*
G01X691Y1905D01*
G01X697Y1903D01*
G01X703Y1902D01*
G01X708Y1901D01*
G01X714Y1900D01*
G01X720Y1899D01*
G01X726Y1898D01*
G01X732Y1898D01*
G01X738Y1898D01*
G01X745Y1898D01*
G01X842Y1898D01*
G01X842Y1896D01*
G01X842Y1892D01*
G01X842Y1888D01*
G01X843Y1884D01*
G01X844Y1880D01*
G01X845Y1876D01*
G01X846Y1872D01*
G01X847Y1868D01*
G01X848Y1864D01*
G01X850Y1860D01*
G01X852Y1857D01*
G01X854Y1853D01*
G01X856Y1849D01*
G01X858Y1846D01*
G01X860Y1842D01*
G01X863Y1839D01*
G01X865Y1836D01*
G01X868Y1833D01*
G01X871Y1830D01*
G01X874Y1827D01*
G01X877Y1824D01*
G01X880Y1822D01*
G01X883Y1819D01*
G01X887Y1817D01*
G01X890Y1815D01*
G01X894Y1813D01*
G01X898Y1811D01*
G01X901Y1809D01*
G01X905Y1807D01*
G01X909Y1806D01*
G01X913Y1805D01*
G01X917Y1804D01*
G01X921Y1803D01*
G01X925Y1802D01*
G01X929Y1801D01*
G01X933Y1801D01*
G01X937Y1801D01*
G01X942Y1801D01*
G01X1375Y1801D01*
G01X1379Y1801D01*
G01X1383Y1801D01*
G01X1387Y1801D01*
G01X1391Y1802D01*
G01X1395Y1803D01*
G01X1399Y1804D01*
G01X1403Y1805D01*
G01X1407Y1806D01*
G01X1411Y1807D01*
G01X1415Y1809D01*
G01X1418Y1811D01*
G01X1422Y1813D01*
G01X1426Y1815D01*
G01X1429Y1817D01*
G01X1433Y1819D01*
G01X1436Y1822D01*
G01X1439Y1824D01*
G01X1442Y1827D01*
G01X1445Y1830D01*
G01X1448Y1833D01*
G01X1451Y1836D01*
G01X1453Y1839D01*
G01X1456Y1842D01*
G01X1458Y1846D01*
G01X1460Y1849D01*
G01X1462Y1853D01*
G01X1464Y1857D01*
G01X1466Y1860D01*
G01X1468Y1864D01*
G01X1469Y1868D01*
G01X1470Y1872D01*
G01X1471Y1876D01*
G01X1472Y1880D01*
G01X1473Y1884D01*
G01X1474Y1888D01*
G01X1474Y1892D01*
G01X1474Y1896D01*
G01X1475Y1901D01*
G01X1475Y2295D01*
G01X1474Y2299D01*
G01X1474Y2303D01*
G01X1474Y2307D01*
G01X1473Y2311D01*
G01X1472Y2315D01*
G01X1471Y2319D01*
G01X1470Y2323D01*
G01X1469Y2327D01*
G01X1468Y2331D01*
G01X1466Y2335D01*
G01X1464Y2338D01*
G01X1462Y2342D01*
G01X1460Y2346D01*
G01X1458Y2349D01*
G01X1456Y2353D01*
G01X1453Y2356D01*
G01X1451Y2359D01*
G01X1448Y2362D01*
G01X1445Y2365D01*
G01X1442Y2368D01*
G01X1439Y2371D01*
G01X1436Y2373D01*
G01X1433Y2376D01*
G01X1429Y2378D01*
G01X1426Y2380D01*
G01X1422Y2382D01*
G01X1418Y2384D01*
G01X1415Y2386D01*
G01X1411Y2388D01*
G01X1407Y2389D01*
G01X1403Y2390D01*
G01X1399Y2391D01*
G01X1395Y2392D01*
G01X1391Y2393D01*
G01X1387Y2394D01*
G01X1383Y2394D01*
G01X1379Y2394D01*
G01X1375Y2395D01*
G01X942Y2395D01*
G01X937Y2394D01*
G01X933Y2394D01*
G01X929Y2394D01*
G01X925Y2393D01*
G01X921Y2392D01*
G01X917Y2391D01*
G01X913Y2390D01*
G01X909Y2389D01*
G01X905Y2388D01*
G01X901Y2386D01*
G01X898Y2384D01*
G01X894Y2382D01*
G01X890Y2380D01*
G01X887Y2378D01*
G01X883Y2376D01*
G01X880Y2373D01*
G01X877Y2371D01*
G01X874Y2368D01*
G01X871Y2365D01*
G01X868Y2362D01*
G01X865Y2359D01*
G01X863Y2356D01*
G01X860Y2353D01*
G01X859Y2350D01*
G01X859Y2475D01*
G01X860Y2472D01*
G01X863Y2469D01*
G01X865Y2466D01*
G01X868Y2463D01*
G01X871Y2460D01*
G01X874Y2457D01*
G01X877Y2454D01*
G01X880Y2452D01*
G01X883Y2449D01*
G01X887Y2447D01*
G01X890Y2445D01*
G01X894Y2443D01*
G01X898Y2441D01*
G01X901Y2439D01*
G01X905Y2437D01*
G01X909Y2436D01*
G01X913Y2435D01*
G01X917Y2434D01*
G01X921Y2433D01*
G01X925Y2432D01*
G01X929Y2431D01*
G01X933Y2431D01*
G01X937Y2431D01*
G01X942Y2430D01*
G01X1375Y2430D01*
G01X1379Y2431D01*
G01X1383Y2431D01*
G01X1387Y2431D01*
G01X1391Y2432D01*
G01X1395Y2433D01*
G01X1399Y2434D01*
G01X1403Y2435D01*
G01X1407Y2436D01*
G01X1411Y2437D01*
G01X1415Y2439D01*
G01X1418Y2441D01*
G01X1422Y2443D01*
G01X1426Y2445D01*
G01X1429Y2447D01*
G01X1433Y2449D01*
G01X1436Y2452D01*
G01X1439Y2454D01*
G01X1442Y2457D01*
G01X1445Y2460D01*
G01X1448Y2463D01*
G01X1451Y2466D01*
G01X1453Y2469D01*
G01X1456Y2472D01*
G01X1458Y2476D01*
G01X1460Y2479D01*
G01X1462Y2483D01*
G01X1464Y2487D01*
G01X1466Y2490D01*
G01X1468Y2494D01*
G01X1469Y2498D01*
G01X1470Y2502D01*
G01X1471Y2506D01*
G01X1472Y2510D01*
G01X1473Y2514D01*
G01X1474Y2518D01*
G01X1474Y2522D01*
G01X1474Y2526D01*
G01X1475Y2530D01*
G01X1475Y2817D01*
G01X1531Y2874D01*
G01X2065Y2874D01*
G01X2065Y2824D01*
G01X2065Y2816D01*
G01X2065Y2808D01*
G01X2066Y2800D01*
G01X2068Y2792D01*
G01X2069Y2784D01*
G01X2069Y2721D01*
G01X2069Y2719D01*
G01X2069Y2715D01*
G01X2070Y2710D01*
G01X2070Y2707D01*
G01X2071Y2701D01*
G01X2071Y2698D01*
G01X2072Y2693D01*
G01X2073Y2690D01*
G01X2074Y2684D01*
G01X2075Y2682D01*
G01X2076Y2676D01*
G01X2077Y2673D01*
G01X2079Y2668D01*
G01X2080Y2665D01*
G01X2082Y2660D01*
G01X2083Y2657D01*
G01X2085Y2653D01*
G01X2087Y2650D01*
G01X2089Y2645D01*
G01X2091Y2642D01*
G01X2094Y2638D01*
G01X2095Y2635D01*
G01X2099Y2631D01*
G01X2100Y2628D01*
G01X2104Y2624D01*
G01X2106Y2621D01*
G01X2109Y2617D01*
G01X2112Y2615D01*
G01X2115Y2611D01*
G01X2117Y2609D01*
G01X2121Y2605D01*
G01X2124Y2603D01*
G01X2128Y2600D01*
G01X2130Y2598D01*
G01X2129Y2597D01*
G01X2126Y2595D01*
G01X2122Y2593D01*
G01X2119Y2590D01*
G01X2116Y2588D01*
G01X2113Y2585D01*
G01X2110Y2582D01*
G01X2107Y2579D01*
G01X2104Y2576D01*
G01X2102Y2573D01*
G01X2101Y2572D01*
G01X2099Y2574D01*
G01X2097Y2577D01*
G01X2093Y2581D01*
G01X2091Y2583D01*
G01X2087Y2586D01*
G01X2085Y2589D01*
G01X2081Y2592D01*
G01X2078Y2594D01*
G01X2074Y2598D01*
G01X2071Y2599D01*
G01X2067Y2603D01*
G01X2064Y2604D01*
G01X2060Y2607D01*
G01X2057Y2609D01*
G01X2052Y2611D01*
G01X2050Y2613D01*
G01X2045Y2615D01*
G01X2042Y2616D01*
G01X2037Y2618D01*
G01X2034Y2619D01*
G01X2029Y2621D01*
G01X2026Y2622D01*
G01X2021Y2623D01*
G01X2018Y2624D01*
G01X2012Y2625D01*
G01X2009Y2626D01*
G01X2004Y2627D01*
G01X2001Y2627D01*
G01X1995Y2628D01*
G01X1992Y2628D01*
G01X1987Y2629D01*
G01X1983Y2629D01*
G01X1981Y2629D01*
G01X1957Y2629D01*
G01X1957Y2501D01*
G01X2080Y2501D01*
G01X2080Y2446D01*
G01X1957Y2446D01*
G01X1957Y2432D01*
G01X1800Y2432D01*
G01X1800Y2446D01*
G01X1624Y2446D01*
G01X1625Y2441D01*
G01X1625Y2438D01*
G01X1626Y2433D01*
G01X1627Y2430D01*
G01X1629Y2425D01*
G01X1630Y2422D01*
G01X1632Y2417D01*
G01X1633Y2414D01*
G01X1635Y2409D01*
G01X1637Y2406D01*
G01X1639Y2401D01*
G01X1640Y2398D01*
G01X1643Y2393D01*
G01X1645Y2391D01*
G01X1648Y2386D01*
G01X1650Y2384D01*
G01X1653Y2380D01*
G01X1655Y2377D01*
G01X1656Y2375D01*
G01X1655Y2373D01*
G01X1653Y2370D01*
G01X1650Y2366D01*
G01X1648Y2364D01*
G01X1645Y2359D01*
G01X1643Y2357D01*
G01X1640Y2352D01*
G01X1639Y2349D01*
G01X1637Y2344D01*
G01X1635Y2341D01*
G01X1633Y2336D01*
G01X1632Y2333D01*
G01X1630Y2328D01*
G01X1629Y2325D01*
G01X1627Y2320D01*
G01X1626Y2317D01*
G01X1625Y2312D01*
G01X1625Y2309D01*
G01X1623Y2304D01*
G01X1623Y2301D01*
G01X1622Y2295D01*
G01X1622Y2292D01*
G01X1621Y2287D01*
G01X1621Y2284D01*
G01X1621Y2278D01*
G01X1621Y2275D01*
G01X1621Y2269D01*
G01X1621Y2266D01*
G01X1622Y2261D01*
G01X1622Y2258D01*
G01X1623Y2252D01*
G01X1623Y2249D01*
G01X1625Y2244D01*
G01X1625Y2241D01*
G01X1626Y2236D01*
G01X1627Y2233D01*
G01X1629Y2228D01*
G01X1630Y2225D01*
G01X1632Y2220D01*
G01X1633Y2217D01*
G01X1635Y2212D01*
G01X1637Y2209D01*
G01X1639Y2204D01*
G01X1640Y2201D01*
G01X1643Y2196D01*
G01X1645Y2194D01*
G01X1648Y2189D01*
G01X1650Y2187D01*
G01X1653Y2183D01*
G01X1655Y2180D01*
G01X1656Y2178D01*
G01X1655Y2176D01*
G01X1653Y2173D01*
G01X1650Y2169D01*
G01X1648Y2167D01*
G01X1645Y2162D01*
G01X1643Y2160D01*
G01X1640Y2155D01*
G01X1639Y2152D01*
G01X1637Y2147D01*
G01X1635Y2144D01*
G01X1633Y2139D01*
G01X1632Y2136D01*
G01X1630Y2131D01*
G01X1629Y2128D01*
G01X1627Y2123D01*
G01X1626Y2120D01*
G01X1625Y2115D01*
G01X1625Y2112D01*
G01X1623Y2107D01*
G01X1623Y2104D01*
G01X1622Y2098D01*
G01X1622Y2095D01*
G01X1621Y2090D01*
G01X1621Y2087D01*
G01X1621Y2081D01*
G01X1621Y2078D01*
G01X1621Y2072D01*
G01X1621Y2069D01*
G01X1622Y2064D01*
G01X1622Y2061D01*
G01X1623Y2055D01*
G01X1623Y2052D01*
G01X1625Y2047D01*
G01X1625Y2044D01*
G01X1626Y2039D01*
G01X1627Y2036D01*
G01X1629Y2031D01*
G01X1630Y2028D01*
G01X1632Y2023D01*
G01X1633Y2020D01*
G01X1635Y2015D01*
G01X1637Y2012D01*
G01X1639Y2007D01*
G01X1640Y2004D01*
G01X1643Y1999D01*
G01X1645Y1997D01*
G01X1648Y1992D01*
G01X1650Y1990D01*
G01X1653Y1986D01*
G01X1655Y1983D01*
G01X1656Y1982D01*
G01X1655Y1980D01*
G01X1653Y1977D01*
G01X1650Y1973D01*
G01X1648Y1971D01*
G01X1645Y1966D01*
G01X1643Y1964D01*
G01X1640Y1959D01*
G01X1639Y1956D01*
G01X1637Y1951D01*
G01X1635Y1948D01*
G01X1633Y1943D01*
G01X1632Y1940D01*
G01X1630Y1935D01*
G01X1629Y1932D01*
G01X1627Y1927D01*
G01X1626Y1924D01*
G01X1625Y1919D01*
G01X1625Y1916D01*
G01X1623Y1911D01*
G01X1623Y1908D01*
G01X1622Y1902D01*
G01X1622Y1899D01*
G01X1621Y1894D01*
G01X1621Y1891D01*
G01X1621Y1885D01*
G01X1621Y1882D01*
G01X1621Y1876D01*
G01X1621Y1873D01*
G01X1622Y1868D01*
G01X1622Y1865D01*
G01X1623Y1859D01*
G01X1623Y1856D01*
G01X1625Y1851D01*
G01X1625Y1848D01*
G01X1626Y1843D01*
G01X1627Y1840D01*
G01X1629Y1835D01*
G01X1630Y1832D01*
G01X1632Y1827D01*
G01X1633Y1824D01*
G01X1635Y1819D01*
G01X1637Y1816D01*
G01X1639Y1811D01*
G01X1640Y1808D01*
G01X1643Y1803D01*
G01X1645Y1801D01*
G01X1648Y1796D01*
G01X1650Y1794D01*
G01X1653Y1790D01*
G01X1655Y1787D01*
G01X1656Y1785D01*
G01X1655Y1783D01*
G01X1653Y1780D01*
G01X1650Y1776D01*
G01X1648Y1774D01*
G01X1645Y1769D01*
G01X1643Y1767D01*
G01X1640Y1762D01*
G01X1639Y1759D01*
G01X1637Y1754D01*
G01X1635Y1751D01*
G01X1633Y1746D01*
G01X1632Y1743D01*
G01X1630Y1738D01*
G01X1629Y1735D01*
G01X1627Y1730D01*
G01X1626Y1727D01*
G01X1625Y1722D01*
G01X1625Y1719D01*
G01X1623Y1714D01*
G01X1623Y1711D01*
G01X1622Y1705D01*
G01X1622Y1702D01*
G01X1621Y1697D01*
G01X1621Y1694D01*
G01X1621Y1688D01*
G01X1621Y1685D01*
G01X1621Y1679D01*
G01X1621Y1676D01*
G01X1622Y1671D01*
G01X1622Y1668D01*
G01X1623Y1662D01*
G01X1623Y1659D01*
G01X1625Y1654D01*
G01X1625Y1651D01*
G01X1626Y1646D01*
G01X1627Y1643D01*
G01X1629Y1638D01*
G01X1630Y1635D01*
G01X1632Y1630D01*
G01X1633Y1627D01*
G01X1635Y1622D01*
G01X1637Y1619D01*
G01X1639Y1614D01*
G01X1640Y1611D01*
G01X1643Y1606D01*
G01X1645Y1604D01*
G01X1648Y1599D01*
G01X1650Y1597D01*
G01X1653Y1593D01*
G01X1655Y1590D01*
G01X1656Y1588D01*
G01X1655Y1586D01*
G01X1653Y1583D01*
G01X1650Y1579D01*
G01X1648Y1577D01*
G01X1645Y1572D01*
G01X1643Y1570D01*
G01X1640Y1565D01*
G01X1639Y1562D01*
G01X1637Y1557D01*
G01X1635Y1554D01*
G01X1633Y1549D01*
G01X1632Y1546D01*
G01X1630Y1541D01*
G01X1629Y1538D01*
G01X1627Y1533D01*
G01X1626Y1530D01*
G01X1625Y1525D01*
G01X1625Y1522D01*
G01X1623Y1517D01*
G01X1623Y1514D01*
G01X1622Y1508D01*
G01X1622Y1505D01*
G01X1621Y1500D01*
G01X1621Y1497D01*
G01X1621Y1491D01*
G01X1621Y1488D01*
G01X1621Y1482D01*
G01X1621Y1479D01*
G01X1622Y1474D01*
G01X1622Y1471D01*
G01X1623Y1465D01*
G01X1623Y1462D01*
G01X1625Y1457D01*
G01X1625Y1454D01*
G01X1626Y1449D01*
G01X1627Y1446D01*
G01X1629Y1441D01*
G01X1630Y1438D01*
G01X1632Y1433D01*
G01X1633Y1430D01*
G01X1635Y1425D01*
G01X1637Y1422D01*
G01X1639Y1417D01*
G01X1640Y1414D01*
G01X1643Y1409D01*
G01X1645Y1407D01*
G01X1648Y1402D01*
G01X1650Y1400D01*
G01X1653Y1396D01*
G01X1655Y1393D01*
G01X1658Y1389D01*
G01X1660Y1386D01*
G01X1664Y1382D01*
G01X1666Y1380D01*
G01X1670Y1377D01*
G01X1672Y1374D01*
G01X1676Y1371D01*
G01X1679Y1369D01*
G01X1683Y1365D01*
G01X1686Y1364D01*
G01X1690Y1360D01*
G01X1693Y1359D01*
G01X1697Y1356D01*
G01X1700Y1354D01*
G01X1705Y1352D01*
G01X1707Y1350D01*
G01X1712Y1348D01*
G01X1715Y1347D01*
G01X1720Y1345D01*
G01X1723Y1344D01*
G01X1728Y1342D01*
G01X1731Y1341D01*
G01X1737Y1340D01*
G01X1739Y1339D01*
G01X1745Y1338D01*
G01X1748Y1337D01*
G01X1753Y1336D01*
G01X1756Y1336D01*
G01X1762Y1335D01*
G01X1765Y1335D01*
G01X1770Y1334D01*
G01X1774Y1334D01*
G01X1776Y1334D01*
G01X1981Y1334D01*
G01X1983Y1334D01*
G01X1987Y1334D01*
G01X1992Y1335D01*
G01X1995Y1335D01*
G01X2001Y1336D01*
G01X2004Y1336D01*
G01X2009Y1337D01*
G01X2012Y1338D01*
G01X2018Y1339D01*
G01X2021Y1340D01*
G01X2026Y1341D01*
G01X2029Y1342D01*
G01X2034Y1344D01*
G01X2037Y1345D01*
G01X2042Y1347D01*
G01X2045Y1348D01*
G01X2050Y1350D01*
G01X2052Y1352D01*
G01X2057Y1354D01*
G01X2060Y1356D01*
G01X2064Y1359D01*
G01X2067Y1360D01*
G01X2071Y1364D01*
G01X2074Y1365D01*
G01X2078Y1369D01*
G01X2081Y1371D01*
G01X2085Y1374D01*
G01X2087Y1377D01*
G01X2091Y1380D01*
G01X2093Y1382D01*
G01X2097Y1386D01*
G01X2099Y1389D01*
G01X2102Y1393D01*
G01X2104Y1391D01*
G01X2107Y1388D01*
G01X2110Y1385D01*
G01X2113Y1382D01*
G01X2116Y1379D01*
G01X2119Y1377D01*
G01X2120Y1376D01*
G01X2118Y1374D01*
G01X2115Y1372D01*
G01X2111Y1368D01*
G01X2109Y1366D01*
G01X2106Y1362D01*
G01X2103Y1360D01*
G01X2100Y1356D01*
G01X2098Y1353D01*
G01X2094Y1349D01*
G01X2093Y1346D01*
G01X2089Y1342D01*
G01X2088Y1339D01*
G01X2085Y1335D01*
G01X2083Y1332D01*
G01X2081Y1327D01*
G01X2079Y1325D01*
G01X2077Y1320D01*
G01X2076Y1317D01*
G01X2074Y1312D01*
G01X2073Y1309D01*
G01X2071Y1304D01*
G01X2070Y1301D01*
G01X2069Y1296D01*
G01X2068Y1293D01*
G01X2067Y1287D01*
G01X2066Y1284D01*
G01X2065Y1279D01*
G01X2065Y1276D01*
G01X2064Y1270D01*
G01X2064Y1267D01*
G01X2063Y1262D01*
G01X2063Y1258D01*
G01X2063Y1256D01*
G01X2063Y1051D01*
G01X2063Y1049D01*
G01X2063Y1045D01*
G01X2064Y1040D01*
G01X2064Y1037D01*
G01X2065Y1031D01*
G01X2065Y1028D01*
G01X2066Y1023D01*
G01X2067Y1020D01*
G01X2068Y1014D01*
G01X2069Y1012D01*
G01X2070Y1006D01*
G01X2071Y1003D01*
G01X2073Y998D01*
G01X2074Y995D01*
G01X2076Y990D01*
G01X2077Y987D01*
G01X2079Y982D01*
G01X2081Y980D01*
G01X2083Y975D01*
G01X2085Y972D01*
G01X2088Y968D01*
G01X2089Y965D01*
G01X2093Y961D01*
G01X2094Y958D01*
G01X2098Y954D01*
G01X2100Y951D01*
G01X2103Y947D01*
G01X2106Y945D01*
G01X2109Y941D01*
G01X2111Y939D01*
G01X2115Y935D01*
G01X2118Y933D01*
G01X2122Y930D01*
G01X2125Y928D01*
G01X2126Y927D01*
G01X2045Y847D01*
G01X2042Y843D01*
G01X2038Y839D01*
G01X2034Y834D01*
G01X2031Y830D01*
G01X2028Y826D01*
G01X2025Y821D01*
G01X2022Y817D01*
G01X2019Y812D01*
G01X2016Y807D01*
G01X2014Y802D01*
G01X2013Y801D01*
G01X1926Y801D01*
G01X1921Y800D01*
G01X1917Y800D01*
G01X1913Y800D01*
G01X1909Y799D01*
G01X1905Y798D01*
G01X1901Y797D01*
G01X1897Y796D01*
G01X1893Y795D01*
G01X1889Y794D01*
G01X1885Y792D01*
G01X1882Y790D01*
G01X1878Y788D01*
G01X1874Y786D01*
G01X1871Y784D01*
G01X1867Y782D01*
G01X1864Y779D01*
G01X1861Y777D01*
G01X1858Y774D01*
G01X1855Y771D01*
G01X1852Y768D01*
G01X1849Y765D01*
G01X1847Y762D01*
G01X1844Y759D01*
G01X1842Y755D01*
G01X1840Y752D01*
G01X1838Y748D01*
G01X1836Y744D01*
G01X1834Y741D01*
G01X1832Y737D01*
G01X1831Y733D01*
G01X1830Y729D01*
G01X1829Y725D01*
G01X1828Y721D01*
G01X1827Y717D01*
G01X1826Y713D01*
G01X1826Y709D01*
G01X1826Y705D01*
G01X1826Y701D01*
G01X1826Y484D01*
G01X959Y484D01*
G01X949Y483D01*
G01X945Y483D01*
G37*

%LPC*%
G36*
G01X996Y484D02*
G01X1046Y485D01*
G01X1095Y491D01*
G01X1144Y502D01*
G01X1191Y518D01*
G01X1237Y539D01*
G01X1280Y563D01*
G01X1320Y593D01*
G01X1358Y626D01*
G01X1392Y662D01*
G01X1422Y702D01*
G01X1448Y744D01*
G01X1469Y789D01*
G01X1486Y836D01*
G01X1499Y884D01*
G01X1506Y934D01*
G01X1509Y984D01*
G01X1506Y1033D01*
G01X1499Y1083D01*
G01X1486Y1131D01*
G01X1469Y1178D01*
G01X1448Y1223D01*
G01X1422Y1265D01*
G01X1392Y1305D01*
G01X1358Y1341D01*
G01X1320Y1374D01*
G01X1280Y1404D01*
G01X1237Y1428D01*
G01X1191Y1449D01*
G01X1144Y1465D01*
G01X1095Y1476D01*
G01X1046Y1482D01*
G01X996Y1483D01*
G01X946Y1480D01*
G01X897Y1471D01*
G01X849Y1457D01*
G01X803Y1439D01*
G01X759Y1417D01*
G01X717Y1389D01*
G01X678Y1358D01*
G01X642Y1324D01*
G01X610Y1285D01*
G01X582Y1244D01*
G01X558Y1200D01*
G01X539Y1155D01*
G01X524Y1107D01*
G01X514Y1058D01*
G01X509Y1008D01*
G01X509Y959D01*
G01X514Y909D01*
G01X524Y860D01*
G01X539Y812D01*
G01X558Y767D01*
G01X582Y723D01*
G01X610Y682D01*
G01X642Y643D01*
G01X678Y609D01*
G01X717Y578D01*
G01X759Y550D01*
G01X803Y528D01*
G01X849Y510D01*
G01X897Y496D01*
G01X946Y487D01*
G01X996Y484D01*
G37*
G36*
G01X1624Y2501D02*
G01X1800Y2501D01*
G01X1800Y2629D01*
G01X1776Y2629D01*
G01X1774Y2629D01*
G01X1770Y2629D01*
G01X1765Y2628D01*
G01X1762Y2628D01*
G01X1756Y2627D01*
G01X1753Y2627D01*
G01X1748Y2626D01*
G01X1745Y2625D01*
G01X1739Y2624D01*
G01X1737Y2623D01*
G01X1731Y2622D01*
G01X1728Y2621D01*
G01X1723Y2619D01*
G01X1720Y2618D01*
G01X1715Y2616D01*
G01X1712Y2615D01*
G01X1707Y2613D01*
G01X1705Y2611D01*
G01X1700Y2609D01*
G01X1697Y2607D01*
G01X1693Y2604D01*
G01X1690Y2603D01*
G01X1686Y2599D01*
G01X1683Y2598D01*
G01X1679Y2594D01*
G01X1676Y2592D01*
G01X1672Y2589D01*
G01X1670Y2586D01*
G01X1666Y2583D01*
G01X1664Y2581D01*
G01X1660Y2577D01*
G01X1658Y2574D01*
G01X1655Y2570D01*
G01X1653Y2567D01*
G01X1650Y2563D01*
G01X1648Y2561D01*
G01X1645Y2556D01*
G01X1643Y2554D01*
G01X1640Y2549D01*
G01X1639Y2546D01*
G01X1637Y2541D01*
G01X1635Y2538D01*
G01X1633Y2533D01*
G01X1632Y2530D01*
G01X1630Y2525D01*
G01X1629Y2522D01*
G01X1627Y2517D01*
G01X1626Y2514D01*
G01X1625Y2509D01*
G01X1625Y2506D01*
G01X1624Y2501D01*
G37*

%LPD*%
G54D11*
G01X2422Y2824D02*
G01X2422Y3425D01*
G01X2343Y3503D01*
G01X2225Y2824D02*
G01X2225Y2968D01*
G01X2159Y3034D01*
G01X1465Y3034D01*
G01X1159Y2728D01*
G01X1359Y2928D01*
G01X1159Y2728D01*
G01X3013Y3503D02*
G01X3013Y3288D01*
G01X3009Y3284D01*
G01X3009Y2826D01*
G01X3012Y2824D01*
G01X2416Y1153D02*
G01X2416Y991D01*
G01X2259Y834D01*
G01X2159Y734D01*
G01X2159Y520D01*
G01X2123Y484D01*
G01X2809Y1153D02*
G01X2809Y934D01*
G01X2909Y834D01*
G01X3215Y834D01*
G01X3565Y483D01*
G01X3539Y1494D02*
G01X4163Y1494D01*
G01X4173Y1484D01*
G54D12*
G01X1159Y2098D02*
G01X745Y2098D01*
G01X659Y2184D01*
G01X659Y3374D01*
G01X789Y3503D01*
G01X1713Y3503D01*
G01X1713Y3503D01*
G54D13*
G01X1659Y8326D02*
G01X1671Y8326D01*
G01X2394Y9049D01*
G01X2259Y9184D01*
G01X1285Y7342D02*
G01X1285Y6980D01*
G01X1228Y6924D01*
G54D11*
G01X8413Y6353D02*
G01X7805Y6353D01*
G01X7578Y6128D01*
G01X8413Y6610D02*
G01X7728Y6610D01*
G01X7578Y6760D01*
G54D14*
G01X8413Y6098D02*
G01X8213Y6098D01*
G01X8213Y5850D01*
G01X8219Y5844D01*
G01X2032Y7342D02*
G01X2037Y7342D01*
G01X2039Y7344D01*
G54D11*
G01X7578Y5498D02*
G01X7782Y5498D01*
G01X7909Y5624D01*
G54D14*
G01X3259Y9184D02*
G01X3259Y9061D01*
G01X3612Y8707D01*
G01X3612Y8219D01*
G01X3609Y8216D01*
G01X3235Y7232D02*
G01X3235Y6980D01*
G01X3219Y6964D01*
G54D11*
G01X7578Y7390D02*
G01X7553Y7390D01*
G01X7359Y7584D01*
G01X6909Y7584D01*
G01X6778Y7453D01*
G01X6778Y6474D01*
G01X6974Y6334D01*
G01X5876Y7936D02*
G01X5876Y7617D01*
G01X6009Y7484D01*
G01X6509Y7484D01*
G01X7187Y8162D01*
G01X7165Y8184D01*
G01X2628Y4384D02*
G01X3128Y4384D01*
G01X3359Y4153D01*
G54D13*
G01X4759Y6884D02*
G01X4409Y6534D01*
G01X4409Y6000D01*
G01X4409Y6000D02*
G01X3689Y6000D01*
G01X3659Y5970D01*
G01X4409Y5134D02*
G01X4409Y4703D01*
G01X4719Y4394D01*
G01X4719Y4394D02*
G01X4819Y4394D01*
G01X5159Y4734D01*
G01X5159Y5132D01*
G01X5157Y5134D01*
G54D12*
G01X5157Y6000D02*
G01X5975Y6000D01*
G01X6009Y6034D01*
G01X3659Y5970D02*
G01X3245Y5970D01*
G01X3159Y5884D01*
G01X3159Y5034D01*
G01X3059Y4934D01*
G01X2409Y4934D01*
G01X2259Y4784D01*
G01X2159Y4684D01*
G01X2101Y4684D01*
G01X1801Y4384D01*
G01X1801Y4384D02*
G01X1801Y4226D01*
G01X1659Y4084D01*
G01X1659Y3557D01*
G01X1713Y3503D01*
G01X2123Y484D02*
G01X2109Y484D01*
G01X1909Y284D01*
G01X959Y284D01*
G01X278Y934D02*
G01X278Y1803D01*
G01X659Y2184D01*
G01X559Y7870D02*
G01X559Y8034D01*
G01X859Y8334D01*
G01X1651Y8334D01*
G01X1659Y8326D01*
G54D11*
G01X2359Y3484D02*
G01X2359Y3784D01*
G01X2459Y3884D01*
G01X4559Y3884D01*
G01X4619Y3824D01*
G01X4619Y3494D01*
G01X4609Y3484D01*
G01X3809Y2934D02*
G01X3809Y2684D01*
G01X3909Y2584D01*
G01X3909Y2134D01*
G01X6859Y634D02*
G01X6859Y1984D01*
G01X6959Y2084D01*
G01X8109Y2084D01*
G01X8309Y2284D01*
G01X8309Y3134D01*
G01X8459Y3284D01*
G01X9159Y3284D01*
G01X9159Y3334D01*
G54D14*
G01X608Y3848D02*
G01X608Y3684D01*
G01X789Y3503D01*
G01X608Y4478D02*
G01X608Y5277D01*
G01X609Y5277D01*
G54D11*
G01X7689Y4768D02*
G01X7575Y4768D01*
G01X7428Y4914D01*
G01X6878Y4914D01*
G01X6759Y5034D01*
G01X6759Y5653D01*
G01X6809Y5703D01*
G01X6959Y5703D01*
G54D14*
G01X3609Y6834D02*
G01X3609Y7484D01*
G01X3119Y7974D01*
G01X3119Y8344D01*
G01X9159Y4384D02*
G01X9159Y3984D01*
G01X9059Y3884D01*
G01X8259Y3884D01*
G01X8159Y3784D01*
G01X8159Y3434D01*
G01X8009Y3284D01*
G01X4163Y1494D02*
G01X4163Y1279D01*
G01X4709Y734D01*
G01X4709Y284D01*
G01X6509Y5594D02*
G01X6509Y5594D01*
G01X6509Y6794D01*
G54D15*
G01X1776Y2474D02*
G01X1981Y2474D01*
G01X1776Y2276D02*
G01X1981Y2276D01*
G01X1776Y2080D02*
G01X1981Y2080D01*
G01X1776Y1884D02*
G01X1981Y1884D01*
G01X1776Y1687D02*
G01X1981Y1687D01*
G01X1776Y1490D02*
G01X1981Y1490D01*
G01X2219Y1256D02*
G01X2219Y1051D01*
G01X2416Y1256D02*
G01X2416Y1051D01*
G01X2613Y1256D02*
G01X2613Y1051D01*
G01X2809Y1256D02*
G01X2809Y1051D01*
G01X3005Y1256D02*
G01X3005Y1051D01*
G01X3203Y1256D02*
G01X3203Y1051D01*
G01X3436Y1494D02*
G01X3641Y1494D01*
G01X3436Y1691D02*
G01X3641Y1691D01*
G01X3436Y1888D02*
G01X3641Y1888D01*
G01X3436Y2084D02*
G01X3641Y2084D01*
G01X3436Y2280D02*
G01X3641Y2280D01*
G01X3436Y2478D02*
G01X3641Y2478D01*
G01X3209Y2926D02*
G01X3209Y2721D01*
G01X3012Y2926D02*
G01X3012Y2721D01*
G01X2815Y2926D02*
G01X2815Y2721D01*
G01X2619Y2926D02*
G01X2619Y2721D01*
G01X2422Y2926D02*
G01X2422Y2721D01*
G01X2225Y2926D02*
G01X2225Y2721D01*
G54D17*
G01X2709Y1984D03*
G54D18*
G01X2753Y484D03*
G01X2123Y484D03*
G01X4803Y1484D03*
G01X4173Y1484D03*
G01X3565Y483D03*
G01X4195Y483D03*
G01X3643Y3504D03*
G01X3013Y3504D03*
G54D19*
G01X8413Y7121D03*
G01X8413Y6865D03*
G01X8413Y6609D03*
G01X8413Y6353D03*
G01X8413Y6098D03*
G54D10*
G01X10110Y7242D03*
G01X10104Y5951D03*
G54D20*
G01X1659Y8326D03*
G01X2032Y7342D03*
G01X1285Y7342D03*
G54D21*
G01X7578Y6128D03*
G01X7578Y5498D03*
G01X7579Y6760D03*
G01X7579Y7390D03*
G01X7688Y4768D03*
G01X7688Y4138D03*
G54D22*
G01X6009Y4393D03*
G01X4719Y4393D03*
G54D23*
G01X609Y5276D03*
G01X609Y6103D03*
G54D24*
G01X9159Y2284D03*
G01X9159Y4384D03*
G01X9159Y3334D03*
G54D20*
G01X3609Y8216D03*
G01X3982Y7232D03*
G01X3235Y7232D03*
G54D25*
G01X4409Y5134D03*
G01X4782Y5134D03*
G01X5157Y5134D03*
G01X5157Y6000D03*
G01X4409Y6000D03*
G54D26*
G01X6009Y5234D03*
G01X6009Y6034D03*
G54D27*
G01X4759Y6884D03*
G01X5467Y6884D03*
G54D21*
G01X3659Y5340D03*
G01X3659Y5970D03*
G01X608Y4478D03*
G01X608Y3848D03*
G54D18*
G01X2343Y3504D03*
G01X1713Y3504D03*
G54D21*
G01X1158Y2728D03*
G01X1158Y2098D03*
G54D28*
G01X2259Y9184D03*
G54D18*
G01X7115Y8133D03*
G01X7745Y8133D03*
G54D29*
G01X1801Y4383D03*
G01X2628Y4383D03*
G54D21*
G01X559Y7240D03*
G01X559Y7870D03*
G54D28*
G01X3259Y9184D03*
G54D12*
G75*
G01X279Y934D02*
G3X959Y283I700J50D01*
G01*
G54D30*
G01X8722Y5665D03*
G01X8722Y7571D03*
G54D16*
G01X2359Y3484D03*
G01X1159Y2734D03*
G01X1228Y6924D03*
G01X8219Y5844D03*
G01X2039Y7344D03*
G01X6974Y6334D03*
G01X7909Y5624D03*
G01X1659Y8334D03*
G01X3219Y6964D03*
G01X5876Y7936D03*
G01X3359Y4153D03*
G01X4719Y4394D03*
G01X4619Y3494D03*
G01X3809Y2934D03*
G01X3909Y2134D03*
G01X6859Y634D03*
G01X6959Y5703D03*
G01X5728Y1084D03*
G01X5059Y1064D03*
G01X6009Y5234D03*
G01X7739Y8703D03*
G01X6019Y6764D03*
G01X6209Y6584D03*
G01X2759Y514D03*
G01X1399Y1624D03*
G01X3989Y6444D03*
G01X2759Y7934D03*
G01X2469Y7934D03*
G01X3609Y6834D03*
G01X3119Y8344D03*
G01X8009Y3284D03*
G01X2109Y484D03*
G01X4709Y284D03*
G01X6509Y5594D03*
G01X6509Y6794D03*
G54D31*
G01X9607Y8039D02*
G01X9962Y8039D01*
G01X9607Y5189D02*
G01X9962Y5189D01*
M00*
M02*
