;PTH Drill file created by EasyEDA 
M48
METRIC,LZ,000.000
;Holesize 1 = 0.201 METRIC
T01C0.201
;Holesize 2 = 0.305 METRIC
T02C0.305
;Holesize 3 = 0.600 METRIC
T03C0.600
;Holesize 4 = 0.701 METRIC
T04C0.701
;Holesize 5 = 0.813 METRIC
T05C0.813
;Holesize 6 = 0.889 METRIC
T06C0.889
;Holesize 7 = 0.901 METRIC
T07C0.901
%
G05
G90
T01
X025400Y037068
X024650Y037569
X024650Y036568
X026149Y036568
X026149Y037569
X028575Y047609
X028074Y046860
X029075Y046860
X029075Y048359
X028074Y048359
T02
X030988Y030718
X041656Y028940
X047371Y023479
X022555Y048727
X021971Y047101
X021971Y046339
X021971Y047863
X022733Y046339
X023495Y046339
X022733Y047101
X024257Y046339
X025019Y046339
X050241Y047965
X042672Y040116
X028067Y037703
X028067Y036941
X033020Y039430
X033782Y039430
X034544Y039430
X035306Y039430
X036068Y039430
X036830Y039430
X037592Y039430
X038354Y039430
X033020Y038668
X033782Y038668
X034544Y038668
X035306Y038668
X036068Y038668
X036830Y038668
X037592Y038668
X038354Y038668
X033020Y037906
X033782Y037906
X034544Y037906
X035306Y037906
X036068Y037906
X036830Y037906
X037592Y037906
X038354Y037906
X033020Y037144
X033782Y037144
X034544Y037144
X035306Y037144
X036068Y037144
X036830Y037144
X037592Y037144
X038354Y037144
X033020Y036382
X033782Y036382
X034544Y036382
X035306Y036382
X036068Y036382
X036830Y036382
X037592Y036382
X038354Y036382
X033020Y035620
X033782Y035620
X034544Y035620
X035306Y035620
X036068Y035620
X036830Y035620
X037592Y035620
X038354Y035620
X033020Y034858
X033782Y034858
X034544Y034858
X035306Y034858
X036068Y034858
X036830Y034858
X037592Y034858
X038354Y034858
X033020Y034096
X033782Y034096
X034544Y034096
X035306Y034096
X036068Y034096
X036830Y034096
X037592Y034096
X038354Y034096
X034671Y046288
X040513Y041640
X040513Y042402
X041275Y042402
X019050Y051038
X021107Y050810
X032943Y029397
X027940Y027543
X023444Y021219
X051435Y023352
X043688Y032115
X040284Y026426
X044450Y028178
X036449Y022336
X026035Y030718
X046245Y030591
X049784Y026908
X033223Y042758
X042545Y042910
X041275Y041640
X041275Y043926
X031623Y050530
X053594Y051419
X034696Y046974
X045593Y048625
X045339Y021955
X045974Y021955
X046609Y021955
X046228Y032115
X046482Y042783
X046482Y043545
X046482Y044307
X024638Y026781
X025273Y026781
X025908Y026781
X053340Y049514
X053848Y050022
X054356Y050530
X028575Y043037
X034010Y029601
X038506Y026730
X038608Y025638
X038481Y027924
X048209Y028051
X048895Y028051
X032435Y042097
X033350Y024241
X034950Y024241
X046482Y041894
X045593Y046847
X044183Y038097
X015748Y052689
X016256Y052181
X019481Y053223
X050749Y021269
X021285Y021752
X029337Y021447
X025527Y021447
T03
X054411Y017185
X055316Y018089
X016692Y017581
X017597Y016677
X056967Y056682
X056062Y057586
X015819Y057332
X014914Y056428
T04
X035623Y050158G85X035623Y049358
X042862Y050158G85X042862Y049358
T05
X023368Y041793
X023368Y043774
T06
X049657Y042148
X049657Y039608
X049657Y031734
X049657Y034274
X049657Y036814
X022225Y026908
X022225Y029448
T07
X041653Y047058
X036812Y047058
M30
