G04 ---------------------------- Layer name :TOP PASTER LAYER*
G04 EasyEDA v5.7.24, Wed, 12 Sep 2018 16:49:18 GMT*
G04 4f4d465e801a4545b0c1db8b9bb63b57*
G04 Gerber Generator version 0.2*
G04 Scale: 100 percent, Rotated: No, Reflected: No *
G04 Dimensions in millimeters *
G04 leading zeros omitted , absolute positions ,3 integer and 3 decimal *
%FSLAX33Y33*%
%MOMM*%
G90*
G71D02*

%ADD20C,0.280010*%
%ADD21C,0.419989*%
%ADD24R,2.700020X0.799998*%
%ADD25R,0.699999X1.250010*%
%ADD26R,1.299997X0.700024*%
%ADD27R,0.700024X0.299974*%
%ADD28R,0.999998X1.099998*%
%ADD29R,1.099998X0.999998*%
%ADD30R,1.899996X2.399995*%
%ADD31R,1.160018X1.469898*%
%ADD32R,1.469898X1.160018*%
%ADD33R,0.799998X2.700020*%
%ADD34R,1.399540X1.300480*%
%ADD35R,1.300480X1.399540*%
%ADD36R,2.680005X2.680005*%
%ADD37R,0.450012X1.999996*%
%ADD38R,1.599997X1.199896*%
%ADD39R,2.425700X1.663700*%
%ADD40R,0.292100X0.876300*%
%ADD41R,1.663700X2.425700*%
%ADD42R,0.876300X0.292100*%

%LPD*%
G54D20*
G01X45548Y23378D02*
G01X45028Y23378D01*
G01X45548Y23878D02*
G01X45028Y23878D01*
G01X45548Y24378D02*
G01X45028Y24378D01*
G01X45548Y24876D02*
G01X45028Y24876D01*
G01X45548Y25377D02*
G01X45028Y25377D01*
G01X45548Y25877D02*
G01X45028Y25877D01*
G01X44424Y26470D02*
G01X44424Y26990D01*
G01X43924Y26470D02*
G01X43924Y26990D01*
G01X43423Y26470D02*
G01X43423Y26990D01*
G01X42926Y26470D02*
G01X42926Y26990D01*
G01X42425Y26470D02*
G01X42425Y26990D01*
G01X41925Y26470D02*
G01X41925Y26990D01*
G01X41331Y25867D02*
G01X40811Y25867D01*
G01X41331Y25366D02*
G01X40811Y25366D01*
G01X41331Y24866D02*
G01X40811Y24866D01*
G01X41331Y24368D02*
G01X40811Y24368D01*
G01X41331Y23868D02*
G01X40811Y23868D01*
G01X41331Y23368D02*
G01X40811Y23368D01*
G01X41910Y22229D02*
G01X41910Y22749D01*
G01X42410Y22229D02*
G01X42410Y22749D01*
G01X42910Y22229D02*
G01X42910Y22749D01*
G01X43408Y22229D02*
G01X43408Y22749D01*
G01X43908Y22229D02*
G01X43908Y22749D01*
G01X44409Y22229D02*
G01X44409Y22749D01*
G54D21*
G01X29380Y40497D02*
G01X30561Y40497D01*
G01X29380Y39697D02*
G01X30561Y39697D01*
G01X29380Y38897D02*
G01X30561Y38897D01*
G01X29380Y38097D02*
G01X30561Y38097D01*
G01X29380Y37297D02*
G01X30561Y37297D01*
G01X29380Y36497D02*
G01X30561Y36497D01*
G01X29380Y35697D02*
G01X30561Y35697D01*
G01X29380Y34897D02*
G01X30561Y34897D01*
G01X29380Y34097D02*
G01X30561Y34097D01*
G01X29380Y33297D02*
G01X30561Y33297D01*
G01X29380Y32497D02*
G01X30561Y32497D01*
G01X31620Y31437D02*
G01X31620Y30257D01*
G01X32421Y31437D02*
G01X32421Y30257D01*
G01X33220Y31437D02*
G01X33220Y30257D01*
G01X34021Y31437D02*
G01X34021Y30257D01*
G01X34820Y31437D02*
G01X34820Y30257D01*
G01X35620Y31437D02*
G01X35620Y30257D01*
G01X36421Y31437D02*
G01X36421Y30257D01*
G01X37220Y31437D02*
G01X37220Y30257D01*
G01X38021Y31437D02*
G01X38021Y30257D01*
G01X38820Y31437D02*
G01X38820Y30257D01*
G01X39620Y31437D02*
G01X39620Y30257D01*
G01X40680Y32497D02*
G01X41860Y32497D01*
G01X40680Y33297D02*
G01X41860Y33297D01*
G01X40680Y34097D02*
G01X41860Y34097D01*
G01X40680Y34897D02*
G01X41860Y34897D01*
G01X40680Y35697D02*
G01X41860Y35697D01*
G01X40680Y36497D02*
G01X41860Y36497D01*
G01X40680Y37297D02*
G01X41860Y37297D01*
G01X40680Y38097D02*
G01X41860Y38097D01*
G01X40680Y38897D02*
G01X41860Y38897D01*
G01X40680Y39697D02*
G01X41860Y39697D01*
G01X40680Y40497D02*
G01X41860Y40497D01*
G01X39620Y42737D02*
G01X39620Y41557D01*
G01X38820Y42737D02*
G01X38820Y41557D01*
G01X38021Y42737D02*
G01X38021Y41557D01*
G01X37220Y42737D02*
G01X37220Y41557D01*
G01X36421Y42737D02*
G01X36421Y41557D01*
G01X35620Y42737D02*
G01X35620Y41557D01*
G01X34820Y42737D02*
G01X34820Y41557D01*
G01X34021Y42737D02*
G01X34021Y41557D01*
G01X33220Y42737D02*
G01X33220Y41557D01*
G01X32421Y42737D02*
G01X32421Y41557D01*
G01X31620Y42737D02*
G01X31620Y41557D01*
G54D24*
G01X32512Y48749D03*
G01X32512Y46749D03*
G36*
G01X17721Y54131D02*
G01X17226Y53636D01*
G01X16342Y54520D01*
G01X16837Y55015D01*
G01X17721Y54131D01*
G37*
G36*
G01X20160Y53036D02*
G01X19665Y52541D01*
G01X18781Y53425D01*
G01X19276Y53920D01*
G01X20160Y53036D01*
G37*
G36*
G01X18817Y51692D02*
G01X18322Y51197D01*
G01X17438Y52081D01*
G01X17933Y52576D01*
G01X18817Y51692D01*
G37*
G54D25*
G01X49276Y44074D03*
G01X48326Y46573D03*
G01X50225Y46573D03*
G54D26*
G01X29331Y21463D03*
G01X29331Y23463D03*
G01X25532Y21463D03*
G01X25532Y23463D03*
G54D27*
G01X27432Y20939D03*
G01X27432Y23987D03*
G54D28*
G01X34940Y24241D03*
G01X36540Y24241D03*
G01X33360Y24242D03*
G01X31760Y24242D03*
G01X42560Y42910D03*
G01X44160Y42910D03*
G54D29*
G01X28447Y30830D03*
G01X28447Y29230D03*
G54D28*
G01X42560Y44815D03*
G01X44160Y44815D03*
G54D30*
G01X32004Y26909D03*
G01X36104Y26909D03*
G54D28*
G01X47101Y28052D03*
G01X45501Y28052D03*
G01X40116Y27925D03*
G01X38516Y27925D03*
G54D29*
G01X38607Y25623D03*
G01X38607Y24023D03*
G54D31*
G01X36449Y22336D03*
G01X38481Y22336D03*
G54D32*
G01X47371Y25511D03*
G01X47371Y23479D03*
G54D33*
G01X26285Y33385D03*
G01X24285Y33385D03*
G54D29*
G01X22148Y38577D03*
G01X22148Y36977D03*
G54D34*
G01X22098Y34799D03*
G01X22098Y32699D03*
G54D29*
G01X26162Y43307D03*
G01X26162Y44906D03*
G54D28*
G01X36306Y44562D03*
G01X34706Y44562D03*
G01X32750Y45070D03*
G01X31150Y45070D03*
G36*
G01X20401Y19992D02*
G01X20896Y19497D01*
G01X20012Y18613D01*
G01X19517Y19108D01*
G01X20401Y19992D01*
G37*
G36*
G01X21497Y22431D02*
G01X21992Y21936D01*
G01X21108Y21052D01*
G01X20613Y21547D01*
G01X21497Y22431D01*
G37*
G36*
G01X22840Y21088D02*
G01X23335Y20593D01*
G01X22451Y19709D01*
G01X21956Y20204D01*
G01X22840Y21088D01*
G37*
G36*
G01X53766Y54779D02*
G01X53271Y55274D01*
G01X54155Y56158D01*
G01X54650Y55663D01*
G01X53766Y54779D01*
G37*
G36*
G01X52670Y52340D02*
G01X52175Y52835D01*
G01X53059Y53719D01*
G01X53554Y53224D01*
G01X52670Y52340D01*
G37*
G36*
G01X51327Y53684D02*
G01X50832Y54179D01*
G01X51716Y55063D01*
G01X52211Y54568D01*
G01X51327Y53684D01*
G37*
G54D31*
G01X44196Y35671D03*
G01X46228Y35671D03*
G01X44196Y38084D03*
G01X46228Y38084D03*
G01X44196Y33639D03*
G01X46228Y33639D03*
G36*
G01X24315Y47818D02*
G01X24810Y48313D01*
G01X25694Y47429D01*
G01X25199Y46934D01*
G01X24315Y47818D01*
G37*
G36*
G01X21876Y48914D02*
G01X22371Y49409D01*
G01X23255Y48525D01*
G01X22760Y48030D01*
G01X21876Y48914D01*
G37*
G36*
G01X23219Y50257D02*
G01X23714Y50752D01*
G01X24598Y49868D01*
G01X24103Y49373D01*
G01X23219Y50257D01*
G37*
G54D35*
G01X46245Y30591D03*
G01X44144Y30591D03*
G54D29*
G01X49784Y23368D03*
G01X49784Y24967D03*
G54D36*
G01X43180Y24622D03*
G54D37*
G01X37953Y46273D03*
G01X38603Y46273D03*
G01X39253Y46273D03*
G01X39903Y46273D03*
G01X40553Y46273D03*
G54D38*
G01X37647Y50585D03*
G01X40926Y50569D03*
G54D31*
G01X44196Y40497D03*
G01X46228Y40497D03*
G36*
G01X52509Y20386D02*
G01X53004Y20881D01*
G01X53888Y19997D01*
G01X53393Y19502D01*
G01X52509Y20386D01*
G37*
G36*
G01X50070Y21482D02*
G01X50565Y21977D01*
G01X51449Y21093D01*
G01X50954Y20598D01*
G01X50070Y21482D01*
G37*
G36*
G01X51413Y22825D02*
G01X51908Y23320D01*
G01X52792Y22436D01*
G01X52297Y21941D01*
G01X51413Y22825D01*
G37*
G54D39*
G01X25400Y37068D03*
G54D40*
G01X24409Y35595D03*
G01X24892Y35595D03*
G01X25400Y35595D03*
G01X25908Y35595D03*
G01X26390Y35595D03*
G01X26390Y38541D03*
G01X25908Y38541D03*
G01X25400Y38541D03*
G01X24892Y38541D03*
G01X24409Y38541D03*
G54D41*
G01X28575Y47609D03*
G54D42*
G01X30048Y46619D03*
G01X30048Y47101D03*
G01X30048Y47609D03*
G01X30048Y48117D03*
G01X30048Y48600D03*
G01X27101Y48600D03*
G01X27101Y48117D03*
G01X27101Y47609D03*
G01X27101Y47101D03*
G01X27101Y46619D03*
G54D31*
G01X27305Y25892D03*
G01X29337Y25892D03*
G36*
G01X23597Y24867D02*
G01X24375Y24090D01*
G01X23668Y23383D01*
G01X22890Y24160D01*
G01X23597Y24867D01*
G37*
G36*
G01X24728Y25999D02*
G01X25506Y25221D01*
G01X24799Y24514D01*
G01X24021Y25291D01*
G01X24728Y25999D01*
G37*
G54D29*
G01X25781Y27940D03*
G01X25781Y29539D03*
G01X26187Y41650D03*
G01X26187Y40050D03*
G01X28575Y43053D03*
G01X28575Y44652D03*
M00*
M02*
