G04 ---------------------------- Layer name :BOTTOM LAYER*
G04 EasyEDA v5.7.24, Wed, 12 Sep 2018 16:49:18 GMT*
G04 4f4d465e801a4545b0c1db8b9bb63b57*
G04 Gerber Generator version 0.2*
G04 Scale: 100 percent, Rotated: No, Reflected: No *
G04 Dimensions in millimeters *
G04 leading zeros omitted , absolute positions ,3 integer and 3 decimal *
%FSLAX33Y33*%
%MOMM*%
G90*
G71D02*

%ADD11C,0.381000*%
%ADD12C,0.304800*%
%ADD13C,0.457200*%
%ADD14C,0.406400*%
%ADD15C,0.711200*%
%ADD17C,0.508000*%
%ADD18C,0.635000*%
%ADD22C,0.500380*%
%ADD23C,0.619760*%
%ADD43R,1.574800X1.574800*%
%ADD44C,1.574800*%
%ADD45C,0.999998*%
%ADD46R,1.676400X1.676400*%
%ADD47C,1.499997*%
%ADD48C,1.299997*%

%LPD*%
G36*
G01X70612Y0D02*
G01X69342Y0D01*
G01X67691Y1651D01*
G01X63881Y1651D01*
G01X60579Y4953D01*
G01X60579Y6512D01*
G01X46609Y20482D01*
G01X25527Y20482D01*
G01X11557Y6512D01*
G01X11557Y4988D01*
G01X8128Y1559D01*
G01X4445Y1559D01*
G01X2921Y35D01*
G01X1524Y35D01*
G01X0Y1559D01*
G01X0Y2829D01*
G01X1651Y4480D01*
G01X1651Y8290D01*
G01X4953Y11592D01*
G01X6477Y11592D01*
G01X20447Y25562D01*
G01X20447Y46939D01*
G01X8252Y59136D01*
G01X6441Y60944D01*
G01X4953Y60944D01*
G01X1524Y64373D01*
G01X1524Y68056D01*
G01X0Y69580D01*
G01X0Y70977D01*
G01X1524Y72501D01*
G01X2794Y72501D01*
G01X4445Y70850D01*
G01X8255Y70850D01*
G01X11557Y67548D01*
G01X11557Y65989D01*
G01X25527Y51978D01*
G01X46573Y51978D01*
G01X58770Y64173D01*
G01X60579Y65984D01*
G01X60579Y67472D01*
G01X64008Y70901D01*
G01X67691Y70901D01*
G01X69215Y72425D01*
G01X70612Y72425D01*
G01X72136Y70901D01*
G01X72136Y69631D01*
G01X70485Y67980D01*
G01X70485Y64170D01*
G01X67183Y60868D01*
G01X65623Y60868D01*
G01X51689Y46949D01*
G01X51689Y25562D01*
G01X63883Y13365D01*
G01X65694Y11557D01*
G01X67183Y11557D01*
G01X70612Y8128D01*
G01X70612Y4445D01*
G01X72136Y2921D01*
G01X72136Y1524D01*
G01X70612Y0D01*
G37*

%LPC*%
G36*
G01X1873Y69191D02*
G01X2000Y69182D01*
G01X2127Y69185D01*
G01X2252Y69201D01*
G01X2376Y69229D01*
G01X2496Y69269D01*
G01X2612Y69322D01*
G01X2722Y69385D01*
G01X2825Y69459D01*
G01X2920Y69543D01*
G01X3006Y69636D01*
G01X3083Y69737D01*
G01X3149Y69845D01*
G01X3204Y69960D01*
G01X3247Y70079D01*
G01X3279Y70202D01*
G01X3298Y70327D01*
G01X3304Y70454D01*
G01X3298Y70581D01*
G01X3279Y70706D01*
G01X3247Y70829D01*
G01X3204Y70948D01*
G01X3149Y71063D01*
G01X3083Y71171D01*
G01X3006Y71272D01*
G01X2920Y71365D01*
G01X2825Y71449D01*
G01X2722Y71523D01*
G01X2612Y71586D01*
G01X2496Y71639D01*
G01X2376Y71679D01*
G01X2252Y71707D01*
G01X2127Y71723D01*
G01X2000Y71726D01*
G01X1873Y71717D01*
G01X1748Y71695D01*
G01X1626Y71660D01*
G01X1508Y71614D01*
G01X1395Y71556D01*
G01X1289Y71487D01*
G01X1189Y71408D01*
G01X1099Y71320D01*
G01X1017Y71222D01*
G01X946Y71118D01*
G01X885Y71006D01*
G01X836Y70889D01*
G01X798Y70768D01*
G01X773Y70644D01*
G01X761Y70517D01*
G01X761Y70391D01*
G01X773Y70264D01*
G01X798Y70140D01*
G01X836Y70019D01*
G01X885Y69902D01*
G01X946Y69790D01*
G01X1017Y69686D01*
G01X1099Y69588D01*
G01X1189Y69500D01*
G01X1289Y69421D01*
G01X1395Y69352D01*
G01X1508Y69294D01*
G01X1626Y69248D01*
G01X1748Y69213D01*
G01X1873Y69191D01*
G37*
G36*
G01X69945Y754D02*
G01X70072Y744D01*
G01X70199Y747D01*
G01X70324Y763D01*
G01X70448Y791D01*
G01X70568Y832D01*
G01X70684Y884D01*
G01X70794Y947D01*
G01X70897Y1021D01*
G01X70992Y1105D01*
G01X71078Y1198D01*
G01X71155Y1299D01*
G01X71221Y1408D01*
G01X71276Y1522D01*
G01X71319Y1641D01*
G01X71351Y1764D01*
G01X71370Y1890D01*
G01X71376Y2016D01*
G01X71370Y2143D01*
G01X71351Y2268D01*
G01X71319Y2391D01*
G01X71276Y2511D01*
G01X71221Y2625D01*
G01X71155Y2733D01*
G01X71078Y2834D01*
G01X70992Y2927D01*
G01X70897Y3011D01*
G01X70794Y3085D01*
G01X70684Y3149D01*
G01X70568Y3201D01*
G01X70448Y3241D01*
G01X70324Y3269D01*
G01X70199Y3285D01*
G01X70072Y3288D01*
G01X69945Y3279D01*
G01X69820Y3257D01*
G01X69698Y3223D01*
G01X69580Y3176D01*
G01X69467Y3118D01*
G01X69361Y3049D01*
G01X69261Y2970D01*
G01X69171Y2882D01*
G01X69089Y2785D01*
G01X69018Y2680D01*
G01X68957Y2568D01*
G01X68908Y2451D01*
G01X68870Y2330D01*
G01X68845Y2206D01*
G01X68833Y2080D01*
G01X68833Y1953D01*
G01X68845Y1827D01*
G01X68870Y1702D01*
G01X68908Y1581D01*
G01X68957Y1464D01*
G01X69018Y1353D01*
G01X69089Y1248D01*
G01X69171Y1151D01*
G01X69261Y1062D01*
G01X69361Y983D01*
G01X69467Y914D01*
G01X69580Y856D01*
G01X69698Y810D01*
G01X69820Y776D01*
G01X69945Y754D01*
G37*
G36*
G01X1838Y789D02*
G01X1964Y780D01*
G01X2091Y783D01*
G01X2217Y799D01*
G01X2341Y827D01*
G01X2461Y867D01*
G01X2576Y919D01*
G01X2686Y983D01*
G01X2789Y1057D01*
G01X2884Y1141D01*
G01X2971Y1234D01*
G01X3047Y1335D01*
G01X3114Y1443D01*
G01X3169Y1558D01*
G01X3212Y1677D01*
G01X3243Y1800D01*
G01X3262Y1925D01*
G01X3268Y2052D01*
G01X3262Y2179D01*
G01X3243Y2304D01*
G01X3212Y2427D01*
G01X3169Y2546D01*
G01X3114Y2660D01*
G01X3047Y2769D01*
G01X2971Y2870D01*
G01X2884Y2963D01*
G01X2789Y3047D01*
G01X2686Y3121D01*
G01X2576Y3184D01*
G01X2461Y3236D01*
G01X2341Y3277D01*
G01X2217Y3305D01*
G01X2091Y3321D01*
G01X1964Y3324D01*
G01X1838Y3314D01*
G01X1713Y3292D01*
G01X1591Y3258D01*
G01X1473Y3212D01*
G01X1360Y3154D01*
G01X1253Y3085D01*
G01X1154Y3006D01*
G01X1063Y2917D01*
G01X982Y2820D01*
G01X910Y2715D01*
G01X849Y2604D01*
G01X800Y2487D01*
G01X763Y2366D01*
G01X738Y2241D01*
G01X725Y2115D01*
G01X725Y1988D01*
G01X738Y1862D01*
G01X763Y1738D01*
G01X800Y1617D01*
G01X849Y1500D01*
G01X910Y1388D01*
G01X982Y1283D01*
G01X1063Y1186D01*
G01X1154Y1098D01*
G01X1253Y1019D01*
G01X1360Y950D01*
G01X1473Y892D01*
G01X1591Y846D01*
G01X1713Y811D01*
G01X1838Y789D01*
G37*
G36*
G01X65057Y2805D02*
G01X65436Y2777D01*
G01X65816Y2786D01*
G01X66194Y2834D01*
G01X66564Y2918D01*
G01X66924Y3039D01*
G01X67271Y3196D01*
G01X67600Y3386D01*
G01X67909Y3607D01*
G01X68194Y3859D01*
G01X68452Y4138D01*
G01X68682Y4441D01*
G01X68880Y4765D01*
G01X69045Y5107D01*
G01X69175Y5464D01*
G01X69268Y5833D01*
G01X69325Y6209D01*
G01X69344Y6588D01*
G01X69325Y6968D01*
G01X69268Y7344D01*
G01X69175Y7712D01*
G01X69045Y8069D01*
G01X68880Y8412D01*
G01X68682Y8736D01*
G01X68452Y9039D01*
G01X68194Y9318D01*
G01X67909Y9569D01*
G01X67600Y9791D01*
G01X67271Y9981D01*
G01X66924Y10137D01*
G01X66564Y10258D01*
G01X66194Y10343D01*
G01X65816Y10390D01*
G01X65436Y10400D01*
G01X65057Y10371D01*
G01X64683Y10305D01*
G01X64317Y10202D01*
G01X63963Y10063D01*
G01X63625Y9890D01*
G01X63306Y9684D01*
G01X63009Y9447D01*
G01X62737Y9181D01*
G01X62492Y8890D01*
G01X62278Y8576D01*
G01X62097Y8242D01*
G01X61949Y7892D01*
G01X61837Y7529D01*
G01X61762Y7156D01*
G01X61724Y6778D01*
G01X61724Y6398D01*
G01X61762Y6020D01*
G01X61837Y5647D01*
G01X61949Y5284D01*
G01X62097Y4934D01*
G01X62278Y4600D01*
G01X62492Y4286D01*
G01X62737Y3995D01*
G01X63009Y3730D01*
G01X63306Y3493D01*
G01X63625Y3287D01*
G01X63963Y3113D01*
G01X64317Y2974D01*
G01X64683Y2871D01*
G01X65057Y2805D01*
G37*
G36*
G01X6094Y2841D02*
G01X6473Y2812D01*
G01X6853Y2822D01*
G01X7230Y2869D01*
G01X7601Y2954D01*
G01X7961Y3075D01*
G01X8307Y3231D01*
G01X8636Y3421D01*
G01X8945Y3643D01*
G01X9230Y3895D01*
G01X9489Y4173D01*
G01X9718Y4476D01*
G01X9916Y4800D01*
G01X10081Y5143D01*
G01X10211Y5500D01*
G01X10305Y5868D01*
G01X10362Y6244D01*
G01X10380Y6624D01*
G01X10362Y7003D01*
G01X10305Y7379D01*
G01X10211Y7748D01*
G01X10081Y8105D01*
G01X9916Y8447D01*
G01X9718Y8771D01*
G01X9489Y9074D01*
G01X9230Y9353D01*
G01X8945Y9605D01*
G01X8636Y9826D01*
G01X8307Y10016D01*
G01X7961Y10173D01*
G01X7601Y10294D01*
G01X7230Y10378D01*
G01X6853Y10426D01*
G01X6473Y10435D01*
G01X6094Y10407D01*
G01X5720Y10341D01*
G01X5354Y10238D01*
G01X5000Y10099D01*
G01X4662Y9926D01*
G01X4342Y9719D01*
G01X4045Y9482D01*
G01X3773Y9217D01*
G01X3529Y8926D01*
G01X3315Y8612D01*
G01X3133Y8278D01*
G01X2985Y7928D01*
G01X2873Y7565D01*
G01X2798Y7192D01*
G01X2760Y6814D01*
G01X2760Y6434D01*
G01X2798Y6056D01*
G01X2873Y5683D01*
G01X2985Y5320D01*
G01X3133Y4970D01*
G01X3315Y4636D01*
G01X3529Y4322D01*
G01X3773Y4031D01*
G01X4045Y3765D01*
G01X4342Y3528D01*
G01X4662Y3322D01*
G01X5000Y3149D01*
G01X5354Y3010D01*
G01X5720Y2907D01*
G01X6094Y2841D01*
G37*
G36*
G01X17503Y15926D02*
G01X17578Y15921D01*
G01X17653Y15923D01*
G01X17728Y15932D01*
G01X17802Y15949D01*
G01X17873Y15973D01*
G01X17942Y16004D01*
G01X18007Y16042D01*
G01X18068Y16086D01*
G01X18125Y16136D01*
G01X18176Y16191D01*
G01X18222Y16251D01*
G01X18261Y16315D01*
G01X18294Y16383D01*
G01X18320Y16454D01*
G01X18338Y16527D01*
G01X18349Y16602D01*
G01X18353Y16677D01*
G01X18349Y16752D01*
G01X18338Y16827D01*
G01X18320Y16900D01*
G01X18294Y16971D01*
G01X18261Y17039D01*
G01X18222Y17103D01*
G01X18176Y17163D01*
G01X18125Y17219D01*
G01X18068Y17269D01*
G01X18007Y17313D01*
G01X17942Y17350D01*
G01X17873Y17381D01*
G01X17802Y17405D01*
G01X17728Y17422D01*
G01X17653Y17432D01*
G01X17578Y17433D01*
G01X17503Y17428D01*
G01X17430Y17415D01*
G01X17434Y17431D01*
G01X17445Y17506D01*
G01X17449Y17581D01*
G01X17445Y17657D01*
G01X17434Y17731D01*
G01X17415Y17804D01*
G01X17390Y17875D01*
G01X17357Y17943D01*
G01X17317Y18008D01*
G01X17272Y18068D01*
G01X17264Y18076D01*
G01X17264Y18726D01*
G01X19558Y21020D01*
G01X19561Y21022D01*
G01X19588Y21035D01*
G01X19615Y21050D01*
G01X19641Y21066D01*
G01X19666Y21084D01*
G01X19690Y21102D01*
G01X19713Y21122D01*
G01X19735Y21143D01*
G01X24053Y25461D01*
G01X24064Y25473D01*
G01X24075Y25485D01*
G01X24086Y25498D01*
G01X24097Y25510D01*
G01X24107Y25523D01*
G01X24117Y25537D01*
G01X24126Y25550D01*
G01X24135Y25564D01*
G01X24144Y25578D01*
G01X24152Y25592D01*
G01X24160Y25607D01*
G01X24168Y25621D01*
G01X24175Y25636D01*
G01X24181Y25651D01*
G01X24188Y25667D01*
G01X24194Y25682D01*
G01X24199Y25698D01*
G01X24204Y25713D01*
G01X24209Y25729D01*
G01X24213Y25745D01*
G01X24217Y25761D01*
G01X24220Y25777D01*
G01X24223Y25794D01*
G01X24226Y25810D01*
G01X24228Y25826D01*
G01X24229Y25843D01*
G01X24230Y25859D01*
G01X24231Y25876D01*
G01X24231Y25892D01*
G01X24231Y30464D01*
G01X24231Y30481D01*
G01X24230Y30497D01*
G01X24229Y30514D01*
G01X24228Y30530D01*
G01X24226Y30547D01*
G01X24223Y30563D01*
G01X24220Y30579D01*
G01X24217Y30595D01*
G01X24213Y30611D01*
G01X24209Y30627D01*
G01X24204Y30643D01*
G01X24199Y30659D01*
G01X24194Y30674D01*
G01X24188Y30690D01*
G01X24181Y30705D01*
G01X24175Y30720D01*
G01X24168Y30735D01*
G01X24160Y30750D01*
G01X24152Y30764D01*
G01X24144Y30779D01*
G01X24135Y30793D01*
G01X24126Y30806D01*
G01X24117Y30820D01*
G01X24107Y30833D01*
G01X24097Y30846D01*
G01X24086Y30859D01*
G01X24075Y30871D01*
G01X24064Y30883D01*
G01X24053Y30895D01*
G01X23418Y31530D01*
G01X23406Y31542D01*
G01X23394Y31553D01*
G01X23381Y31564D01*
G01X23368Y31574D01*
G01X23355Y31585D01*
G01X23342Y31594D01*
G01X23329Y31604D01*
G01X23315Y31613D01*
G01X23301Y31622D01*
G01X23287Y31630D01*
G01X23272Y31638D01*
G01X23257Y31645D01*
G01X23242Y31653D01*
G01X23227Y31659D01*
G01X23212Y31666D01*
G01X23197Y31671D01*
G01X23181Y31677D01*
G01X23165Y31682D01*
G01X23150Y31687D01*
G01X23134Y31691D01*
G01X23118Y31695D01*
G01X23101Y31698D01*
G01X23085Y31701D01*
G01X23069Y31703D01*
G01X23052Y31705D01*
G01X23036Y31707D01*
G01X23019Y31708D01*
G01X23003Y31709D01*
G01X22987Y31709D01*
G01X21715Y31709D01*
G01X21691Y31733D01*
G01X21691Y40499D01*
G01X22275Y41083D01*
G01X22275Y40954D01*
G01X22276Y40944D01*
G01X22276Y40933D01*
G01X22277Y40923D01*
G01X22279Y40913D01*
G01X22281Y40902D01*
G01X22283Y40892D01*
G01X22286Y40882D01*
G01X22289Y40872D01*
G01X22293Y40862D01*
G01X22297Y40852D01*
G01X22301Y40843D01*
G01X22306Y40834D01*
G01X22311Y40824D01*
G01X22317Y40816D01*
G01X22323Y40807D01*
G01X22329Y40798D01*
G01X22335Y40790D01*
G01X22342Y40782D01*
G01X22350Y40775D01*
G01X22357Y40768D01*
G01X22365Y40761D01*
G01X22373Y40754D01*
G01X22382Y40748D01*
G01X22390Y40742D01*
G01X22399Y40736D01*
G01X22408Y40731D01*
G01X22418Y40726D01*
G01X22427Y40722D01*
G01X22437Y40718D01*
G01X22447Y40714D01*
G01X22457Y40711D01*
G01X22467Y40708D01*
G01X22477Y40706D01*
G01X22487Y40704D01*
G01X22498Y40702D01*
G01X22508Y40701D01*
G01X22519Y40701D01*
G01X22529Y40700D01*
G01X24206Y40700D01*
G01X24216Y40701D01*
G01X24227Y40701D01*
G01X24237Y40702D01*
G01X24248Y40704D01*
G01X24258Y40706D01*
G01X24268Y40708D01*
G01X24278Y40711D01*
G01X24288Y40714D01*
G01X24298Y40718D01*
G01X24308Y40722D01*
G01X24317Y40726D01*
G01X24327Y40731D01*
G01X24336Y40736D01*
G01X24345Y40742D01*
G01X24353Y40748D01*
G01X24362Y40754D01*
G01X24370Y40761D01*
G01X24378Y40768D01*
G01X24385Y40775D01*
G01X24393Y40782D01*
G01X24400Y40790D01*
G01X24406Y40798D01*
G01X24412Y40807D01*
G01X24418Y40816D01*
G01X24424Y40824D01*
G01X24429Y40834D01*
G01X24434Y40843D01*
G01X24438Y40852D01*
G01X24442Y40862D01*
G01X24446Y40872D01*
G01X24449Y40882D01*
G01X24452Y40892D01*
G01X24454Y40902D01*
G01X24456Y40913D01*
G01X24458Y40923D01*
G01X24459Y40933D01*
G01X24459Y40944D01*
G01X24460Y40954D01*
G01X24460Y42631D01*
G01X24459Y42641D01*
G01X24459Y42652D01*
G01X24458Y42662D01*
G01X24456Y42673D01*
G01X24454Y42683D01*
G01X24452Y42693D01*
G01X24449Y42703D01*
G01X24446Y42713D01*
G01X24442Y42723D01*
G01X24438Y42733D01*
G01X24434Y42742D01*
G01X24429Y42752D01*
G01X24424Y42761D01*
G01X24418Y42770D01*
G01X24412Y42778D01*
G01X24409Y42783D01*
G01X24412Y42788D01*
G01X24418Y42797D01*
G01X24424Y42806D01*
G01X24429Y42815D01*
G01X24434Y42824D01*
G01X24438Y42834D01*
G01X24442Y42843D01*
G01X24446Y42853D01*
G01X24449Y42863D01*
G01X24452Y42873D01*
G01X24454Y42884D01*
G01X24456Y42894D01*
G01X24458Y42904D01*
G01X24459Y42915D01*
G01X24459Y42925D01*
G01X24460Y42936D01*
G01X24460Y43355D01*
G01X23787Y43355D01*
G01X23787Y42885D01*
G01X22948Y42885D01*
G01X22948Y43355D01*
G01X22275Y43355D01*
G01X22275Y42936D01*
G01X22276Y42925D01*
G01X22276Y42915D01*
G01X22277Y42904D01*
G01X22279Y42894D01*
G01X22281Y42884D01*
G01X22283Y42873D01*
G01X22286Y42863D01*
G01X22289Y42853D01*
G01X22293Y42843D01*
G01X22297Y42834D01*
G01X22301Y42824D01*
G01X22306Y42815D01*
G01X22311Y42806D01*
G01X22317Y42797D01*
G01X22323Y42788D01*
G01X22326Y42783D01*
G01X22323Y42778D01*
G01X22317Y42770D01*
G01X22311Y42761D01*
G01X22306Y42752D01*
G01X22301Y42742D01*
G01X22297Y42733D01*
G01X22293Y42723D01*
G01X22289Y42713D01*
G01X22286Y42703D01*
G01X22283Y42693D01*
G01X22281Y42683D01*
G01X22279Y42673D01*
G01X22277Y42662D01*
G01X22276Y42652D01*
G01X22276Y42641D01*
G01X22275Y42631D01*
G01X22275Y42402D01*
G01X22123Y42402D01*
G01X22106Y42402D01*
G01X22090Y42401D01*
G01X22073Y42400D01*
G01X22057Y42399D01*
G01X22041Y42397D01*
G01X22024Y42394D01*
G01X22008Y42391D01*
G01X21992Y42388D01*
G01X21976Y42384D01*
G01X21960Y42380D01*
G01X21944Y42375D01*
G01X21928Y42370D01*
G01X21913Y42365D01*
G01X21897Y42359D01*
G01X21882Y42353D01*
G01X21867Y42346D01*
G01X21852Y42339D01*
G01X21837Y42331D01*
G01X21823Y42323D01*
G01X21809Y42315D01*
G01X21795Y42306D01*
G01X21781Y42297D01*
G01X21767Y42288D01*
G01X21754Y42278D01*
G01X21741Y42268D01*
G01X21728Y42257D01*
G01X21716Y42246D01*
G01X21704Y42235D01*
G01X21692Y42224D01*
G01X20650Y41182D01*
G01X20639Y41170D01*
G01X20628Y41158D01*
G01X20617Y41146D01*
G01X20606Y41133D01*
G01X20596Y41120D01*
G01X20586Y41107D01*
G01X20577Y41093D01*
G01X20568Y41080D01*
G01X20559Y41066D01*
G01X20551Y41051D01*
G01X20543Y41037D01*
G01X20535Y41022D01*
G01X20528Y41007D01*
G01X20522Y40992D01*
G01X20515Y40977D01*
G01X20509Y40961D01*
G01X20504Y40946D01*
G01X20499Y40930D01*
G01X20494Y40914D01*
G01X20490Y40898D01*
G01X20486Y40882D01*
G01X20483Y40866D01*
G01X20480Y40850D01*
G01X20477Y40834D01*
G01X20475Y40817D01*
G01X20474Y40801D01*
G01X20473Y40784D01*
G01X20472Y40768D01*
G01X20472Y40751D01*
G01X20472Y31480D01*
G01X20472Y31464D01*
G01X20473Y31447D01*
G01X20474Y31431D01*
G01X20475Y31414D01*
G01X20477Y31398D01*
G01X20480Y31382D01*
G01X20483Y31365D01*
G01X20486Y31349D01*
G01X20490Y31333D01*
G01X20494Y31317D01*
G01X20499Y31301D01*
G01X20504Y31286D01*
G01X20509Y31270D01*
G01X20515Y31255D01*
G01X20522Y31239D01*
G01X20528Y31224D01*
G01X20535Y31209D01*
G01X20543Y31195D01*
G01X20551Y31180D01*
G01X20559Y31166D01*
G01X20568Y31152D01*
G01X20577Y31138D01*
G01X20586Y31125D01*
G01X20596Y31111D01*
G01X20606Y31098D01*
G01X20617Y31086D01*
G01X20628Y31073D01*
G01X20639Y31061D01*
G01X20650Y31049D01*
G01X21031Y30668D01*
G01X21043Y30657D01*
G01X21055Y30646D01*
G01X21068Y30635D01*
G01X21081Y30624D01*
G01X21094Y30614D01*
G01X21107Y30604D01*
G01X21120Y30595D01*
G01X21134Y30586D01*
G01X21148Y30577D01*
G01X21162Y30569D01*
G01X21177Y30561D01*
G01X21192Y30553D01*
G01X21207Y30546D01*
G01X21222Y30539D01*
G01X21237Y30533D01*
G01X21252Y30527D01*
G01X21268Y30522D01*
G01X21284Y30517D01*
G01X21299Y30512D01*
G01X21315Y30508D01*
G01X21331Y30504D01*
G01X21348Y30501D01*
G01X21364Y30498D01*
G01X21380Y30495D01*
G01X21397Y30493D01*
G01X21413Y30492D01*
G01X21430Y30491D01*
G01X21446Y30490D01*
G01X21463Y30490D01*
G01X22169Y30490D01*
G01X22095Y30484D01*
G01X21992Y30466D01*
G01X21892Y30438D01*
G01X21795Y30400D01*
G01X21703Y30352D01*
G01X21615Y30296D01*
G01X21534Y30231D01*
G01X21459Y30158D01*
G01X21392Y30079D01*
G01X21334Y29993D01*
G01X21284Y29901D01*
G01X21244Y29805D01*
G01X21213Y29706D01*
G01X21192Y29604D01*
G01X21182Y29500D01*
G01X21182Y29396D01*
G01X21192Y29293D01*
G01X21213Y29191D01*
G01X21244Y29091D01*
G01X21284Y28995D01*
G01X21334Y28904D01*
G01X21392Y28818D01*
G01X21459Y28738D01*
G01X21534Y28666D01*
G01X21615Y28601D01*
G01X21703Y28544D01*
G01X21795Y28497D01*
G01X21892Y28459D01*
G01X21992Y28430D01*
G01X22095Y28412D01*
G01X22198Y28405D01*
G01X22303Y28407D01*
G01X22406Y28420D01*
G01X22507Y28443D01*
G01X22606Y28476D01*
G01X22701Y28519D01*
G01X22791Y28571D01*
G01X22875Y28632D01*
G01X22953Y28701D01*
G01X23012Y28764D01*
G01X23012Y27950D01*
G01X22618Y27950D01*
G01X22618Y27302D01*
G01X23012Y27302D01*
G01X23012Y26515D01*
G01X22618Y26515D01*
G01X22618Y25867D01*
G01X22734Y25867D01*
G01X18872Y22005D01*
G01X18852Y21983D01*
G01X18832Y21960D01*
G01X18813Y21936D01*
G01X18796Y21911D01*
G01X18779Y21886D01*
G01X18765Y21859D01*
G01X18751Y21832D01*
G01X18750Y21829D01*
G01X16288Y19367D01*
G01X16277Y19356D01*
G01X16266Y19344D01*
G01X16256Y19332D01*
G01X16246Y19319D01*
G01X16236Y19307D01*
G01X16226Y19294D01*
G01X16217Y19281D01*
G01X16208Y19267D01*
G01X16200Y19254D01*
G01X16192Y19240D01*
G01X16185Y19225D01*
G01X16177Y19211D01*
G01X16171Y19197D01*
G01X16164Y19182D01*
G01X16158Y19167D01*
G01X16153Y19152D01*
G01X16148Y19137D01*
G01X16143Y19121D01*
G01X16139Y19106D01*
G01X16135Y19090D01*
G01X16132Y19075D01*
G01X16129Y19059D01*
G01X16126Y19043D01*
G01X16124Y19027D01*
G01X16123Y19011D01*
G01X16122Y18995D01*
G01X16121Y18979D01*
G01X16121Y18963D01*
G01X16121Y18076D01*
G01X16089Y18038D01*
G01X16047Y17976D01*
G01X16011Y17910D01*
G01X15981Y17840D01*
G01X15959Y17768D01*
G01X15944Y17694D01*
G01X15937Y17619D01*
G01X15937Y17544D01*
G01X15944Y17469D01*
G01X15959Y17395D01*
G01X15981Y17323D01*
G01X16011Y17253D01*
G01X16047Y17187D01*
G01X16089Y17125D01*
G01X16138Y17067D01*
G01X16192Y17014D01*
G01X16251Y16967D01*
G01X16314Y16926D01*
G01X16381Y16892D01*
G01X16451Y16864D01*
G01X16524Y16844D01*
G01X16598Y16831D01*
G01X16674Y16825D01*
G01X16749Y16827D01*
G01X16824Y16836D01*
G01X16860Y16845D01*
G01X16849Y16790D01*
G01X16841Y16715D01*
G01X16841Y16639D01*
G01X16849Y16564D01*
G01X16863Y16490D01*
G01X16886Y16418D01*
G01X16915Y16349D01*
G01X16951Y16283D01*
G01X16994Y16220D01*
G01X17042Y16163D01*
G01X17096Y16110D01*
G01X17155Y16063D01*
G01X17218Y16022D01*
G01X17285Y15988D01*
G01X17356Y15960D01*
G01X17428Y15940D01*
G01X17503Y15926D01*
G37*
G36*
G01X54317Y16434D02*
G01X54393Y16429D01*
G01X54468Y16431D01*
G01X54543Y16440D01*
G01X54616Y16457D01*
G01X54688Y16481D01*
G01X54757Y16512D01*
G01X54822Y16550D01*
G01X54883Y16594D01*
G01X54940Y16644D01*
G01X54991Y16699D01*
G01X55036Y16759D01*
G01X55076Y16823D01*
G01X55109Y16891D01*
G01X55134Y16962D01*
G01X55153Y17035D01*
G01X55164Y17110D01*
G01X55168Y17185D01*
G01X55164Y17260D01*
G01X55153Y17335D01*
G01X55149Y17352D01*
G01X55222Y17339D01*
G01X55297Y17333D01*
G01X55372Y17335D01*
G01X55447Y17344D01*
G01X55521Y17361D01*
G01X55592Y17385D01*
G01X55661Y17416D01*
G01X55726Y17454D01*
G01X55787Y17498D01*
G01X55844Y17548D01*
G01X55895Y17603D01*
G01X55941Y17663D01*
G01X55980Y17728D01*
G01X56013Y17796D01*
G01X56039Y17866D01*
G01X56057Y17939D01*
G01X56068Y18014D01*
G01X56072Y18089D01*
G01X56068Y18165D01*
G01X56057Y18239D01*
G01X56039Y18312D01*
G01X56013Y18383D01*
G01X55980Y18451D01*
G01X55941Y18516D01*
G01X55895Y18576D01*
G01X55844Y18631D01*
G01X55787Y18681D01*
G01X55726Y18725D01*
G01X55661Y18763D01*
G01X55592Y18794D01*
G01X55521Y18818D01*
G01X55447Y18834D01*
G01X55372Y18844D01*
G01X55297Y18846D01*
G01X55222Y18840D01*
G01X55147Y18827D01*
G01X55075Y18807D01*
G01X55004Y18779D01*
G01X54937Y18745D01*
G01X54874Y18704D01*
G01X54815Y18657D01*
G01X54761Y18604D01*
G01X54713Y18546D01*
G01X54670Y18484D01*
G01X54634Y18418D01*
G01X54605Y18348D01*
G01X54582Y18276D01*
G01X54568Y18202D01*
G01X54560Y18127D01*
G01X54560Y18052D01*
G01X54568Y17977D01*
G01X54579Y17922D01*
G01X54543Y17930D01*
G01X54468Y17940D01*
G01X54393Y17941D01*
G01X54317Y17936D01*
G01X54243Y17923D01*
G01X54170Y17902D01*
G01X54100Y17875D01*
G01X54033Y17840D01*
G01X53970Y17799D01*
G01X53911Y17752D01*
G01X53857Y17700D01*
G01X53808Y17642D01*
G01X53766Y17580D01*
G01X53730Y17513D01*
G01X53700Y17444D01*
G01X53678Y17372D01*
G01X53663Y17298D01*
G01X53656Y17223D01*
G01X53656Y17147D01*
G01X53663Y17072D01*
G01X53678Y16998D01*
G01X53700Y16926D01*
G01X53730Y16857D01*
G01X53766Y16791D01*
G01X53808Y16728D01*
G01X53857Y16671D01*
G01X53911Y16618D01*
G01X53970Y16571D01*
G01X54033Y16530D01*
G01X54100Y16496D01*
G01X54170Y16468D01*
G01X54243Y16448D01*
G01X54317Y16434D01*
G37*
G36*
G01X69945Y69115D02*
G01X70072Y69106D01*
G01X70199Y69109D01*
G01X70324Y69125D01*
G01X70448Y69153D01*
G01X70568Y69193D01*
G01X70684Y69245D01*
G01X70794Y69309D01*
G01X70897Y69383D01*
G01X70992Y69467D01*
G01X71078Y69560D01*
G01X71155Y69661D01*
G01X71221Y69769D01*
G01X71276Y69884D01*
G01X71319Y70003D01*
G01X71351Y70126D01*
G01X71370Y70251D01*
G01X71376Y70378D01*
G01X71370Y70505D01*
G01X71351Y70630D01*
G01X71319Y70753D01*
G01X71276Y70872D01*
G01X71221Y70986D01*
G01X71155Y71095D01*
G01X71078Y71196D01*
G01X70992Y71289D01*
G01X70897Y71373D01*
G01X70794Y71447D01*
G01X70684Y71510D01*
G01X70568Y71562D01*
G01X70448Y71603D01*
G01X70324Y71631D01*
G01X70199Y71647D01*
G01X70072Y71650D01*
G01X69945Y71640D01*
G01X69820Y71618D01*
G01X69698Y71584D01*
G01X69580Y71538D01*
G01X69467Y71480D01*
G01X69361Y71411D01*
G01X69261Y71332D01*
G01X69171Y71243D01*
G01X69089Y71146D01*
G01X69018Y71041D01*
G01X68957Y70930D01*
G01X68908Y70813D01*
G01X68870Y70692D01*
G01X68845Y70567D01*
G01X68833Y70441D01*
G01X68833Y70314D01*
G01X68845Y70188D01*
G01X68870Y70064D01*
G01X68908Y69943D01*
G01X68957Y69826D01*
G01X69018Y69714D01*
G01X69089Y69609D01*
G01X69171Y69512D01*
G01X69261Y69424D01*
G01X69361Y69345D01*
G01X69467Y69276D01*
G01X69580Y69218D01*
G01X69698Y69172D01*
G01X69820Y69137D01*
G01X69945Y69115D01*
G37*
G36*
G01X6129Y62099D02*
G01X6508Y62071D01*
G01X6888Y62080D01*
G01X7266Y62127D01*
G01X7636Y62212D01*
G01X7996Y62333D01*
G01X8343Y62489D01*
G01X8672Y62679D01*
G01X8981Y62901D01*
G01X9266Y63153D01*
G01X9524Y63431D01*
G01X9754Y63734D01*
G01X9952Y64059D01*
G01X10117Y64401D01*
G01X10247Y64758D01*
G01X10340Y65127D01*
G01X10397Y65502D01*
G01X10416Y65882D01*
G01X10397Y66262D01*
G01X10340Y66637D01*
G01X10247Y67006D01*
G01X10117Y67363D01*
G01X9952Y67705D01*
G01X9754Y68030D01*
G01X9524Y68333D01*
G01X9266Y68611D01*
G01X8981Y68863D01*
G01X8672Y69085D01*
G01X8343Y69275D01*
G01X7996Y69431D01*
G01X7636Y69552D01*
G01X7266Y69637D01*
G01X6888Y69684D01*
G01X6508Y69693D01*
G01X6129Y69665D01*
G01X5755Y69599D01*
G01X5389Y69496D01*
G01X5035Y69357D01*
G01X4697Y69184D01*
G01X4378Y68978D01*
G01X4081Y68741D01*
G01X3809Y68475D01*
G01X3564Y68184D01*
G01X3350Y67870D01*
G01X3169Y67536D01*
G01X3021Y67186D01*
G01X2909Y66823D01*
G01X2834Y66450D01*
G01X2796Y66072D01*
G01X2796Y65692D01*
G01X2834Y65314D01*
G01X2909Y64941D01*
G01X3021Y64578D01*
G01X3169Y64228D01*
G01X3350Y63894D01*
G01X3564Y63580D01*
G01X3809Y63289D01*
G01X4081Y63023D01*
G01X4378Y62786D01*
G01X4697Y62580D01*
G01X5035Y62407D01*
G01X5389Y62268D01*
G01X5755Y62165D01*
G01X6129Y62099D01*
G37*
G36*
G01X65057Y62023D02*
G01X65436Y61994D01*
G01X65816Y62004D01*
G01X66194Y62051D01*
G01X66564Y62136D01*
G01X66924Y62257D01*
G01X67271Y62413D01*
G01X67600Y62603D01*
G01X67909Y62825D01*
G01X68194Y63077D01*
G01X68452Y63355D01*
G01X68682Y63658D01*
G01X68880Y63982D01*
G01X69045Y64325D01*
G01X69175Y64682D01*
G01X69268Y65050D01*
G01X69325Y65426D01*
G01X69344Y65806D01*
G01X69325Y66185D01*
G01X69268Y66561D01*
G01X69175Y66930D01*
G01X69045Y67287D01*
G01X68880Y67629D01*
G01X68682Y67953D01*
G01X68452Y68256D01*
G01X68194Y68535D01*
G01X67909Y68787D01*
G01X67600Y69008D01*
G01X67271Y69198D01*
G01X66924Y69355D01*
G01X66564Y69476D01*
G01X66194Y69560D01*
G01X65816Y69608D01*
G01X65436Y69617D01*
G01X65057Y69589D01*
G01X64683Y69523D01*
G01X64317Y69420D01*
G01X63963Y69281D01*
G01X63625Y69108D01*
G01X63306Y68901D01*
G01X63009Y68664D01*
G01X62737Y68399D01*
G01X62492Y68108D01*
G01X62278Y67794D01*
G01X62097Y67460D01*
G01X61949Y67110D01*
G01X61837Y66747D01*
G01X61762Y66374D01*
G01X61724Y65996D01*
G01X61724Y65616D01*
G01X61762Y65238D01*
G01X61837Y64865D01*
G01X61949Y64502D01*
G01X62097Y64152D01*
G01X62278Y63818D01*
G01X62492Y63504D01*
G01X62737Y63213D01*
G01X63009Y62947D01*
G01X63306Y62710D01*
G01X63625Y62504D01*
G01X63963Y62331D01*
G01X64317Y62192D01*
G01X64683Y62089D01*
G01X65057Y62023D01*
G37*
G36*
G01X56873Y55931D02*
G01X56948Y55926D01*
G01X57023Y55928D01*
G01X57098Y55937D01*
G01X57172Y55954D01*
G01X57243Y55978D01*
G01X57312Y56009D01*
G01X57377Y56047D01*
G01X57438Y56091D01*
G01X57495Y56141D01*
G01X57546Y56196D01*
G01X57592Y56256D01*
G01X57631Y56320D01*
G01X57664Y56388D01*
G01X57690Y56459D01*
G01X57708Y56532D01*
G01X57719Y56607D01*
G01X57723Y56682D01*
G01X57719Y56757D01*
G01X57708Y56832D01*
G01X57690Y56905D01*
G01X57664Y56976D01*
G01X57631Y57044D01*
G01X57592Y57108D01*
G01X57546Y57168D01*
G01X57495Y57224D01*
G01X57438Y57274D01*
G01X57377Y57318D01*
G01X57312Y57355D01*
G01X57243Y57386D01*
G01X57172Y57410D01*
G01X57098Y57427D01*
G01X57023Y57437D01*
G01X56948Y57438D01*
G01X56873Y57433D01*
G01X56800Y57420D01*
G01X56804Y57436D01*
G01X56815Y57511D01*
G01X56819Y57586D01*
G01X56815Y57662D01*
G01X56804Y57736D01*
G01X56785Y57809D01*
G01X56760Y57880D01*
G01X56727Y57948D01*
G01X56687Y58013D01*
G01X56642Y58073D01*
G01X56591Y58128D01*
G01X56534Y58178D01*
G01X56473Y58222D01*
G01X56408Y58260D01*
G01X56339Y58291D01*
G01X56267Y58315D01*
G01X56194Y58331D01*
G01X56119Y58341D01*
G01X56044Y58343D01*
G01X55968Y58337D01*
G01X55894Y58324D01*
G01X55821Y58304D01*
G01X55751Y58276D01*
G01X55684Y58242D01*
G01X55621Y58201D01*
G01X55562Y58154D01*
G01X55508Y58101D01*
G01X55459Y58043D01*
G01X55417Y57981D01*
G01X55381Y57915D01*
G01X55351Y57845D01*
G01X55329Y57773D01*
G01X55314Y57699D01*
G01X55307Y57624D01*
G01X55307Y57549D01*
G01X55314Y57474D01*
G01X55329Y57400D01*
G01X55351Y57328D01*
G01X55381Y57258D01*
G01X55417Y57192D01*
G01X55459Y57130D01*
G01X55508Y57072D01*
G01X55562Y57019D01*
G01X55621Y56972D01*
G01X55684Y56931D01*
G01X55751Y56897D01*
G01X55821Y56869D01*
G01X55894Y56849D01*
G01X55968Y56836D01*
G01X56044Y56830D01*
G01X56119Y56832D01*
G01X56194Y56841D01*
G01X56230Y56850D01*
G01X56219Y56795D01*
G01X56211Y56720D01*
G01X56211Y56644D01*
G01X56219Y56569D01*
G01X56233Y56495D01*
G01X56256Y56423D01*
G01X56285Y56354D01*
G01X56321Y56288D01*
G01X56364Y56225D01*
G01X56412Y56168D01*
G01X56466Y56115D01*
G01X56525Y56068D01*
G01X56588Y56027D01*
G01X56655Y55993D01*
G01X56726Y55965D01*
G01X56798Y55945D01*
G01X56873Y55931D01*
G37*
G36*
G01X23373Y20657D02*
G01X23430Y20652D01*
G01X23486Y20654D01*
G01X23542Y20661D01*
G01X23597Y20673D01*
G01X23651Y20691D01*
G01X23702Y20715D01*
G01X23751Y20743D01*
G01X23797Y20776D01*
G01X23839Y20813D01*
G01X23878Y20855D01*
G01X23912Y20900D01*
G01X23941Y20948D01*
G01X23966Y20999D01*
G01X23985Y21052D01*
G01X23999Y21106D01*
G01X24003Y21131D01*
G01X24878Y22006D01*
G01X31369Y22006D01*
G01X31383Y22006D01*
G01X31397Y22007D01*
G01X31412Y22008D01*
G01X31426Y22010D01*
G01X31440Y22012D01*
G01X31454Y22014D01*
G01X31468Y22017D01*
G01X31482Y22020D01*
G01X31496Y22024D01*
G01X31510Y22028D01*
G01X31523Y22033D01*
G01X31537Y22038D01*
G01X31550Y22044D01*
G01X31563Y22050D01*
G01X31576Y22056D01*
G01X31589Y22063D01*
G01X31601Y22070D01*
G01X31613Y22077D01*
G01X31625Y22085D01*
G01X31637Y22093D01*
G01X31649Y22102D01*
G01X31660Y22111D01*
G01X31671Y22120D01*
G01X31681Y22130D01*
G01X31692Y22140D01*
G01X32193Y22641D01*
G01X35972Y22641D01*
G01X35965Y22632D01*
G01X35938Y22582D01*
G01X35916Y22530D01*
G01X35900Y22476D01*
G01X35888Y22421D01*
G01X35883Y22365D01*
G01X35883Y22308D01*
G01X35888Y22252D01*
G01X35900Y22196D01*
G01X35916Y22143D01*
G01X35938Y22090D01*
G01X35965Y22041D01*
G01X35997Y21994D01*
G01X36033Y21951D01*
G01X36074Y21912D01*
G01X36118Y21876D01*
G01X36165Y21846D01*
G01X36216Y21820D01*
G01X36268Y21799D01*
G01X36322Y21784D01*
G01X36378Y21774D01*
G01X36434Y21770D01*
G01X36491Y21771D01*
G01X36547Y21778D01*
G01X36602Y21791D01*
G01X36655Y21809D01*
G01X36707Y21832D01*
G01X36756Y21860D01*
G01X36782Y21879D01*
G01X39624Y21879D01*
G01X39638Y21879D01*
G01X39652Y21880D01*
G01X39667Y21881D01*
G01X39681Y21883D01*
G01X39695Y21885D01*
G01X39709Y21887D01*
G01X39723Y21890D01*
G01X39737Y21893D01*
G01X39751Y21897D01*
G01X39765Y21901D01*
G01X39778Y21906D01*
G01X39792Y21911D01*
G01X39805Y21917D01*
G01X39818Y21923D01*
G01X39831Y21929D01*
G01X39844Y21936D01*
G01X39856Y21943D01*
G01X39868Y21950D01*
G01X39880Y21958D01*
G01X39892Y21966D01*
G01X39904Y21975D01*
G01X39915Y21984D01*
G01X39926Y21993D01*
G01X39936Y22003D01*
G01X39947Y22013D01*
G01X40607Y22673D01*
G01X40617Y22684D01*
G01X40627Y22694D01*
G01X40636Y22705D01*
G01X40645Y22716D01*
G01X40654Y22728D01*
G01X40662Y22740D01*
G01X40670Y22752D01*
G01X40677Y22764D01*
G01X40685Y22776D01*
G01X40691Y22789D01*
G01X40698Y22802D01*
G01X40704Y22815D01*
G01X40709Y22828D01*
G01X40714Y22842D01*
G01X40719Y22855D01*
G01X40723Y22869D01*
G01X40727Y22883D01*
G01X40730Y22897D01*
G01X40733Y22911D01*
G01X40735Y22925D01*
G01X40737Y22939D01*
G01X40739Y22954D01*
G01X40740Y22968D01*
G01X40741Y22982D01*
G01X40741Y22997D01*
G01X40741Y26092D01*
G01X40752Y26107D01*
G01X40781Y26155D01*
G01X40806Y26206D01*
G01X40825Y26259D01*
G01X40839Y26313D01*
G01X40843Y26338D01*
G01X42226Y27721D01*
G01X44115Y27721D01*
G01X44119Y27718D01*
G01X44166Y27688D01*
G01X44217Y27662D01*
G01X44269Y27641D01*
G01X44323Y27626D01*
G01X44379Y27616D01*
G01X44435Y27612D01*
G01X44492Y27613D01*
G01X44548Y27620D01*
G01X44603Y27633D01*
G01X44656Y27651D01*
G01X44708Y27674D01*
G01X44757Y27702D01*
G01X44803Y27735D01*
G01X44845Y27773D01*
G01X44883Y27814D01*
G01X44917Y27859D01*
G01X44947Y27907D01*
G01X44971Y27958D01*
G01X44991Y28011D01*
G01X45005Y28066D01*
G01X45013Y28122D01*
G01X45016Y28178D01*
G01X45013Y28235D01*
G01X45005Y28291D01*
G01X44991Y28345D01*
G01X44971Y28398D01*
G01X44947Y28449D01*
G01X44917Y28497D01*
G01X44890Y28534D01*
G01X46059Y28534D01*
G01X46329Y28264D01*
G01X46329Y26908D01*
G01X46329Y26894D01*
G01X46330Y26881D01*
G01X46331Y26867D01*
G01X46333Y26853D01*
G01X46335Y26839D01*
G01X46338Y26826D01*
G01X46341Y26812D01*
G01X46344Y26799D01*
G01X46348Y26785D01*
G01X46353Y26772D01*
G01X46357Y26759D01*
G01X46363Y26746D01*
G01X46368Y26734D01*
G01X46375Y26721D01*
G01X46381Y26709D01*
G01X46388Y26697D01*
G01X46396Y26685D01*
G01X46403Y26674D01*
G01X46412Y26663D01*
G01X46420Y26652D01*
G01X46429Y26641D01*
G01X46438Y26631D01*
G01X46448Y26621D01*
G01X46702Y26367D01*
G01X46712Y26357D01*
G01X46722Y26348D01*
G01X46733Y26339D01*
G01X46744Y26330D01*
G01X46755Y26322D01*
G01X46767Y26314D01*
G01X46778Y26307D01*
G01X46790Y26300D01*
G01X46803Y26293D01*
G01X46815Y26287D01*
G01X46828Y26282D01*
G01X46840Y26276D01*
G01X46853Y26271D01*
G01X46867Y26267D01*
G01X46880Y26263D01*
G01X46893Y26259D01*
G01X46907Y26256D01*
G01X46920Y26254D01*
G01X46934Y26252D01*
G01X46948Y26250D01*
G01X46962Y26249D01*
G01X46976Y26248D01*
G01X46990Y26248D01*
G01X48472Y26248D01*
G01X48488Y26232D01*
G01X48488Y23902D01*
G01X48472Y23886D01*
G01X47765Y23886D01*
G01X47724Y23922D01*
G01X47678Y23955D01*
G01X47629Y23983D01*
G01X47577Y24007D01*
G01X47524Y24025D01*
G01X47469Y24037D01*
G01X47413Y24044D01*
G01X47356Y24046D01*
G01X47300Y24041D01*
G01X47244Y24031D01*
G01X47190Y24016D01*
G01X47138Y23996D01*
G01X47087Y23970D01*
G01X47040Y23939D01*
G01X46996Y23904D01*
G01X46955Y23865D01*
G01X46919Y23821D01*
G01X46887Y23775D01*
G01X46860Y23725D01*
G01X46838Y23673D01*
G01X46822Y23619D01*
G01X46810Y23564D01*
G01X46805Y23508D01*
G01X46805Y23451D01*
G01X46810Y23395D01*
G01X46822Y23339D01*
G01X46838Y23286D01*
G01X46860Y23233D01*
G01X46887Y23184D01*
G01X46919Y23137D01*
G01X46955Y23094D01*
G01X46996Y23055D01*
G01X47040Y23019D01*
G01X47087Y22989D01*
G01X47138Y22963D01*
G01X47190Y22942D01*
G01X47244Y22927D01*
G01X47300Y22917D01*
G01X47356Y22913D01*
G01X47413Y22914D01*
G01X47469Y22921D01*
G01X47524Y22934D01*
G01X47577Y22952D01*
G01X47629Y22975D01*
G01X47678Y23003D01*
G01X47724Y23036D01*
G01X47765Y23073D01*
G01X48641Y23073D01*
G01X48654Y23073D01*
G01X48668Y23074D01*
G01X48682Y23075D01*
G01X48696Y23077D01*
G01X48710Y23079D01*
G01X48723Y23081D01*
G01X48737Y23084D01*
G01X48750Y23088D01*
G01X48763Y23092D01*
G01X48777Y23096D01*
G01X48790Y23101D01*
G01X48802Y23107D01*
G01X48815Y23112D01*
G01X48827Y23118D01*
G01X48840Y23125D01*
G01X48852Y23132D01*
G01X48863Y23139D01*
G01X48875Y23147D01*
G01X48886Y23155D01*
G01X48897Y23164D01*
G01X48908Y23173D01*
G01X48918Y23182D01*
G01X48928Y23192D01*
G01X49182Y23446D01*
G01X49192Y23456D01*
G01X49201Y23466D01*
G01X49210Y23477D01*
G01X49218Y23488D01*
G01X49227Y23499D01*
G01X49234Y23510D01*
G01X49242Y23522D01*
G01X49249Y23534D01*
G01X49255Y23546D01*
G01X49262Y23559D01*
G01X49267Y23571D01*
G01X49273Y23584D01*
G01X49277Y23597D01*
G01X49282Y23610D01*
G01X49286Y23624D01*
G01X49289Y23637D01*
G01X49292Y23651D01*
G01X49295Y23664D01*
G01X49297Y23678D01*
G01X49299Y23692D01*
G01X49300Y23706D01*
G01X49301Y23719D01*
G01X49301Y23733D01*
G01X49301Y26400D01*
G01X49301Y26414D01*
G01X49300Y26428D01*
G01X49299Y26442D01*
G01X49297Y26456D01*
G01X49295Y26469D01*
G01X49292Y26483D01*
G01X49289Y26496D01*
G01X49286Y26510D01*
G01X49282Y26523D01*
G01X49277Y26536D01*
G01X49273Y26549D01*
G01X49267Y26562D01*
G01X49262Y26575D01*
G01X49255Y26587D01*
G01X49249Y26599D01*
G01X49242Y26611D01*
G01X49234Y26623D01*
G01X49227Y26635D01*
G01X49218Y26646D01*
G01X49210Y26657D01*
G01X49201Y26667D01*
G01X49192Y26678D01*
G01X49182Y26688D01*
G01X48928Y26942D01*
G01X48918Y26951D01*
G01X48908Y26961D01*
G01X48897Y26969D01*
G01X48886Y26978D01*
G01X48875Y26986D01*
G01X48863Y26994D01*
G01X48852Y27002D01*
G01X48840Y27009D01*
G01X48827Y27015D01*
G01X48815Y27021D01*
G01X48802Y27027D01*
G01X48790Y27032D01*
G01X48777Y27037D01*
G01X48763Y27042D01*
G01X48750Y27046D01*
G01X48737Y27049D01*
G01X48723Y27052D01*
G01X48710Y27055D01*
G01X48696Y27057D01*
G01X48682Y27059D01*
G01X48668Y27060D01*
G01X48654Y27060D01*
G01X48641Y27061D01*
G01X47158Y27061D01*
G01X47142Y27077D01*
G01X47142Y28432D01*
G01X47142Y28446D01*
G01X47141Y28460D01*
G01X47140Y28474D01*
G01X47138Y28488D01*
G01X47136Y28501D01*
G01X47133Y28515D01*
G01X47130Y28528D01*
G01X47127Y28542D01*
G01X47123Y28555D01*
G01X47118Y28568D01*
G01X47114Y28581D01*
G01X47108Y28594D01*
G01X47103Y28607D01*
G01X47096Y28619D01*
G01X47090Y28631D01*
G01X47083Y28643D01*
G01X47075Y28655D01*
G01X47068Y28667D01*
G01X47059Y28678D01*
G01X47051Y28689D01*
G01X47042Y28699D01*
G01X47033Y28710D01*
G01X47023Y28720D01*
G01X46515Y29228D01*
G01X46505Y29237D01*
G01X46495Y29247D01*
G01X46484Y29255D01*
G01X46473Y29264D01*
G01X46462Y29272D01*
G01X46450Y29280D01*
G01X46439Y29288D01*
G01X46427Y29295D01*
G01X46414Y29301D01*
G01X46402Y29307D01*
G01X46389Y29313D01*
G01X46377Y29318D01*
G01X46364Y29323D01*
G01X46350Y29328D01*
G01X46337Y29332D01*
G01X46324Y29335D01*
G01X46310Y29338D01*
G01X46297Y29341D01*
G01X46283Y29343D01*
G01X46269Y29345D01*
G01X46255Y29346D01*
G01X46241Y29346D01*
G01X46228Y29347D01*
G01X42050Y29347D01*
G01X42009Y29383D01*
G01X41963Y29416D01*
G01X41914Y29444D01*
G01X41862Y29468D01*
G01X41809Y29486D01*
G01X41754Y29498D01*
G01X41698Y29505D01*
G01X41641Y29507D01*
G01X41585Y29502D01*
G01X41529Y29492D01*
G01X41475Y29477D01*
G01X41423Y29457D01*
G01X41372Y29431D01*
G01X41325Y29400D01*
G01X41281Y29365D01*
G01X41240Y29326D01*
G01X41204Y29282D01*
G01X41172Y29236D01*
G01X41145Y29186D01*
G01X41123Y29134D01*
G01X41107Y29080D01*
G01X41095Y29025D01*
G01X41090Y28969D01*
G01X41090Y28912D01*
G01X41095Y28856D01*
G01X41107Y28800D01*
G01X41123Y28747D01*
G01X41145Y28694D01*
G01X41172Y28645D01*
G01X41204Y28598D01*
G01X41240Y28555D01*
G01X41281Y28516D01*
G01X41325Y28480D01*
G01X41372Y28450D01*
G01X41423Y28424D01*
G01X41475Y28403D01*
G01X41529Y28388D01*
G01X41585Y28378D01*
G01X41590Y28378D01*
G01X40196Y26985D01*
G01X40158Y26978D01*
G01X40104Y26963D01*
G01X40051Y26942D01*
G01X40001Y26916D01*
G01X39953Y26886D01*
G01X39909Y26850D01*
G01X39869Y26811D01*
G01X39832Y26768D01*
G01X39827Y26759D01*
G01X39827Y28878D01*
G01X40582Y29633D01*
G01X40592Y29643D01*
G01X40601Y29654D01*
G01X40611Y29665D01*
G01X40620Y29676D01*
G01X40628Y29688D01*
G01X40637Y29699D01*
G01X40645Y29711D01*
G01X40652Y29724D01*
G01X40659Y29736D01*
G01X40666Y29749D01*
G01X40672Y29762D01*
G01X40678Y29775D01*
G01X40684Y29788D01*
G01X40689Y29801D01*
G01X40693Y29815D01*
G01X40698Y29829D01*
G01X40701Y29843D01*
G01X40705Y29857D01*
G01X40708Y29871D01*
G01X40710Y29885D01*
G01X40712Y29899D01*
G01X40714Y29913D01*
G01X40715Y29928D01*
G01X40715Y29942D01*
G01X40716Y29956D01*
G01X40716Y30783D01*
G01X40956Y31023D01*
G01X43053Y31023D01*
G01X43067Y31023D01*
G01X43081Y31024D01*
G01X43096Y31025D01*
G01X43110Y31027D01*
G01X43124Y31029D01*
G01X43138Y31031D01*
G01X43152Y31034D01*
G01X43166Y31037D01*
G01X43180Y31041D01*
G01X43194Y31045D01*
G01X43207Y31050D01*
G01X43221Y31055D01*
G01X43234Y31061D01*
G01X43247Y31067D01*
G01X43260Y31073D01*
G01X43273Y31080D01*
G01X43285Y31087D01*
G01X43297Y31094D01*
G01X43309Y31102D01*
G01X43321Y31110D01*
G01X43333Y31119D01*
G01X43344Y31128D01*
G01X43355Y31137D01*
G01X43365Y31147D01*
G01X43376Y31157D01*
G01X43775Y31556D01*
G01X43786Y31557D01*
G01X43841Y31570D01*
G01X43894Y31588D01*
G01X43946Y31611D01*
G01X43995Y31639D01*
G01X44041Y31672D01*
G01X44083Y31710D01*
G01X44121Y31751D01*
G01X44155Y31796D01*
G01X44185Y31844D01*
G01X44209Y31895D01*
G01X44229Y31948D01*
G01X44243Y32003D01*
G01X44251Y32059D01*
G01X44254Y32115D01*
G01X44251Y32172D01*
G01X44243Y32228D01*
G01X44229Y32282D01*
G01X44209Y32335D01*
G01X44185Y32386D01*
G01X44155Y32434D01*
G01X44121Y32479D01*
G01X44083Y32521D01*
G01X44041Y32558D01*
G01X43995Y32591D01*
G01X43946Y32619D01*
G01X43894Y32643D01*
G01X43841Y32661D01*
G01X43786Y32673D01*
G01X43730Y32680D01*
G01X43673Y32682D01*
G01X43617Y32677D01*
G01X43561Y32667D01*
G01X43507Y32652D01*
G01X43455Y32632D01*
G01X43404Y32606D01*
G01X43357Y32575D01*
G01X43313Y32540D01*
G01X43272Y32501D01*
G01X43236Y32457D01*
G01X43204Y32411D01*
G01X43177Y32361D01*
G01X43155Y32309D01*
G01X43139Y32255D01*
G01X43128Y32202D01*
G01X42863Y31937D01*
G01X40767Y31937D01*
G01X40752Y31937D01*
G01X40738Y31937D01*
G01X40723Y31935D01*
G01X40709Y31934D01*
G01X40695Y31932D01*
G01X40681Y31929D01*
G01X40667Y31926D01*
G01X40653Y31923D01*
G01X40639Y31919D01*
G01X40625Y31915D01*
G01X40612Y31910D01*
G01X40598Y31905D01*
G01X40585Y31900D01*
G01X40572Y31894D01*
G01X40559Y31888D01*
G01X40546Y31881D01*
G01X40534Y31874D01*
G01X40522Y31866D01*
G01X40510Y31858D01*
G01X40498Y31850D01*
G01X40486Y31842D01*
G01X40475Y31833D01*
G01X40464Y31823D01*
G01X40454Y31814D01*
G01X40443Y31804D01*
G01X39935Y31296D01*
G01X39925Y31285D01*
G01X39916Y31275D01*
G01X39906Y31264D01*
G01X39897Y31252D01*
G01X39889Y31241D01*
G01X39880Y31229D01*
G01X39872Y31217D01*
G01X39865Y31205D01*
G01X39858Y31193D01*
G01X39851Y31180D01*
G01X39845Y31167D01*
G01X39839Y31154D01*
G01X39833Y31141D01*
G01X39828Y31127D01*
G01X39824Y31114D01*
G01X39819Y31100D01*
G01X39816Y31086D01*
G01X39812Y31072D01*
G01X39809Y31058D01*
G01X39807Y31044D01*
G01X39805Y31030D01*
G01X39803Y31015D01*
G01X39802Y31001D01*
G01X39802Y30987D01*
G01X39801Y30972D01*
G01X39801Y30146D01*
G01X39046Y29391D01*
G01X39036Y29380D01*
G01X39027Y29370D01*
G01X39017Y29359D01*
G01X39008Y29347D01*
G01X39000Y29336D01*
G01X38991Y29324D01*
G01X38983Y29312D01*
G01X38976Y29300D01*
G01X38969Y29288D01*
G01X38962Y29275D01*
G01X38956Y29262D01*
G01X38950Y29249D01*
G01X38944Y29236D01*
G01X38939Y29222D01*
G01X38935Y29209D01*
G01X38930Y29195D01*
G01X38927Y29181D01*
G01X38923Y29167D01*
G01X38920Y29153D01*
G01X38918Y29139D01*
G01X38916Y29125D01*
G01X38914Y29110D01*
G01X38913Y29096D01*
G01X38913Y29082D01*
G01X38912Y29067D01*
G01X38912Y23555D01*
G01X32004Y23555D01*
G01X31989Y23555D01*
G01X31975Y23555D01*
G01X31960Y23553D01*
G01X31946Y23552D01*
G01X31932Y23550D01*
G01X31918Y23547D01*
G01X31904Y23544D01*
G01X31890Y23541D01*
G01X31876Y23537D01*
G01X31862Y23533D01*
G01X31849Y23528D01*
G01X31835Y23523D01*
G01X31822Y23518D01*
G01X31809Y23512D01*
G01X31796Y23506D01*
G01X31783Y23499D01*
G01X31771Y23492D01*
G01X31759Y23484D01*
G01X31747Y23476D01*
G01X31735Y23468D01*
G01X31723Y23460D01*
G01X31712Y23451D01*
G01X31701Y23441D01*
G01X31691Y23432D01*
G01X31680Y23422D01*
G01X31179Y22920D01*
G01X24688Y22920D01*
G01X24674Y22920D01*
G01X24660Y22920D01*
G01X24645Y22918D01*
G01X24631Y22917D01*
G01X24617Y22915D01*
G01X24603Y22912D01*
G01X24589Y22909D01*
G01X24575Y22906D01*
G01X24561Y22902D01*
G01X24547Y22898D01*
G01X24533Y22893D01*
G01X24520Y22888D01*
G01X24507Y22883D01*
G01X24494Y22877D01*
G01X24481Y22871D01*
G01X24468Y22864D01*
G01X24456Y22857D01*
G01X24443Y22849D01*
G01X24431Y22841D01*
G01X24420Y22833D01*
G01X24408Y22825D01*
G01X24397Y22816D01*
G01X24386Y22806D01*
G01X24375Y22797D01*
G01X24365Y22787D01*
G01X23356Y21778D01*
G01X23318Y21771D01*
G01X23263Y21756D01*
G01X23211Y21735D01*
G01X23160Y21709D01*
G01X23113Y21679D01*
G01X23069Y21643D01*
G01X23028Y21604D01*
G01X22992Y21561D01*
G01X22960Y21514D01*
G01X22933Y21464D01*
G01X22911Y21412D01*
G01X22895Y21358D01*
G01X22884Y21303D01*
G01X22878Y21247D01*
G01X22878Y21190D01*
G01X22884Y21134D01*
G01X22895Y21079D01*
G01X22911Y21025D01*
G01X22933Y20973D01*
G01X22960Y20923D01*
G01X22992Y20877D01*
G01X23028Y20833D01*
G01X23069Y20794D01*
G01X23113Y20759D01*
G01X23160Y20728D01*
G01X23211Y20702D01*
G01X23263Y20682D01*
G01X23318Y20666D01*
G01X23373Y20657D01*
G37*
G36*
G01X14820Y55677D02*
G01X14896Y55672D01*
G01X14971Y55674D01*
G01X15046Y55683D01*
G01X15119Y55700D01*
G01X15191Y55724D01*
G01X15260Y55755D01*
G01X15325Y55793D01*
G01X15386Y55837D01*
G01X15443Y55887D01*
G01X15494Y55942D01*
G01X15539Y56002D01*
G01X15579Y56066D01*
G01X15612Y56134D01*
G01X15637Y56205D01*
G01X15656Y56278D01*
G01X15667Y56353D01*
G01X15671Y56428D01*
G01X15667Y56503D01*
G01X15656Y56578D01*
G01X15652Y56595D01*
G01X15725Y56582D01*
G01X15800Y56576D01*
G01X15875Y56578D01*
G01X15950Y56587D01*
G01X16024Y56604D01*
G01X16095Y56628D01*
G01X16164Y56659D01*
G01X16229Y56697D01*
G01X16290Y56741D01*
G01X16347Y56791D01*
G01X16398Y56846D01*
G01X16444Y56906D01*
G01X16483Y56971D01*
G01X16516Y57039D01*
G01X16542Y57109D01*
G01X16560Y57182D01*
G01X16571Y57257D01*
G01X16575Y57332D01*
G01X16571Y57408D01*
G01X16560Y57482D01*
G01X16542Y57555D01*
G01X16516Y57626D01*
G01X16483Y57694D01*
G01X16444Y57759D01*
G01X16398Y57819D01*
G01X16347Y57874D01*
G01X16290Y57924D01*
G01X16229Y57968D01*
G01X16164Y58006D01*
G01X16095Y58037D01*
G01X16024Y58061D01*
G01X15950Y58077D01*
G01X15875Y58087D01*
G01X15800Y58089D01*
G01X15725Y58083D01*
G01X15650Y58070D01*
G01X15578Y58050D01*
G01X15507Y58022D01*
G01X15440Y57988D01*
G01X15377Y57947D01*
G01X15318Y57900D01*
G01X15264Y57847D01*
G01X15216Y57789D01*
G01X15173Y57727D01*
G01X15137Y57661D01*
G01X15108Y57591D01*
G01X15085Y57519D01*
G01X15071Y57445D01*
G01X15063Y57370D01*
G01X15063Y57295D01*
G01X15071Y57220D01*
G01X15082Y57165D01*
G01X15046Y57173D01*
G01X14971Y57183D01*
G01X14896Y57184D01*
G01X14820Y57179D01*
G01X14746Y57166D01*
G01X14673Y57145D01*
G01X14603Y57118D01*
G01X14536Y57083D01*
G01X14473Y57042D01*
G01X14414Y56995D01*
G01X14360Y56943D01*
G01X14311Y56885D01*
G01X14269Y56823D01*
G01X14233Y56756D01*
G01X14203Y56687D01*
G01X14181Y56615D01*
G01X14166Y56541D01*
G01X14159Y56466D01*
G01X14159Y56390D01*
G01X14166Y56315D01*
G01X14181Y56241D01*
G01X14203Y56169D01*
G01X14233Y56100D01*
G01X14269Y56034D01*
G01X14311Y55971D01*
G01X14360Y55914D01*
G01X14414Y55861D01*
G01X14473Y55814D01*
G01X14536Y55773D01*
G01X14603Y55739D01*
G01X14673Y55711D01*
G01X14746Y55691D01*
G01X14820Y55677D01*
G37*
G36*
G01X51364Y22790D02*
G01X51420Y22786D01*
G01X51477Y22787D01*
G01X51533Y22794D01*
G01X51588Y22807D01*
G01X51641Y22825D01*
G01X51693Y22848D01*
G01X51742Y22876D01*
G01X51788Y22909D01*
G01X51830Y22947D01*
G01X51868Y22988D01*
G01X51902Y23033D01*
G01X51932Y23081D01*
G01X51956Y23132D01*
G01X51976Y23185D01*
G01X51990Y23240D01*
G01X51998Y23296D01*
G01X52001Y23352D01*
G01X51998Y23409D01*
G01X51990Y23465D01*
G01X51976Y23519D01*
G01X51956Y23572D01*
G01X51932Y23623D01*
G01X51902Y23671D01*
G01X51868Y23716D01*
G01X51841Y23746D01*
G01X51841Y24241D01*
G01X51841Y24255D01*
G01X51840Y24269D01*
G01X51839Y24283D01*
G01X51837Y24297D01*
G01X51835Y24310D01*
G01X51832Y24324D01*
G01X51829Y24337D01*
G01X51826Y24351D01*
G01X51822Y24364D01*
G01X51817Y24377D01*
G01X51813Y24390D01*
G01X51807Y24403D01*
G01X51802Y24416D01*
G01X51795Y24428D01*
G01X51789Y24440D01*
G01X51782Y24452D01*
G01X51774Y24464D01*
G01X51767Y24476D01*
G01X51758Y24487D01*
G01X51750Y24498D01*
G01X51741Y24508D01*
G01X51732Y24519D01*
G01X51722Y24529D01*
G01X51079Y25172D01*
G01X51079Y29194D01*
G01X51079Y29208D01*
G01X51078Y29222D01*
G01X51077Y29236D01*
G01X51075Y29250D01*
G01X51073Y29263D01*
G01X51070Y29277D01*
G01X51067Y29290D01*
G01X51064Y29304D01*
G01X51060Y29317D01*
G01X51055Y29330D01*
G01X51051Y29343D01*
G01X51045Y29356D01*
G01X51040Y29369D01*
G01X51033Y29381D01*
G01X51027Y29393D01*
G01X51020Y29405D01*
G01X51012Y29417D01*
G01X51005Y29429D01*
G01X50996Y29440D01*
G01X50988Y29451D01*
G01X50979Y29461D01*
G01X50970Y29472D01*
G01X50960Y29482D01*
G01X50325Y30117D01*
G01X50315Y30126D01*
G01X50305Y30136D01*
G01X50294Y30144D01*
G01X50283Y30153D01*
G01X50272Y30161D01*
G01X50260Y30169D01*
G01X50249Y30177D01*
G01X50237Y30184D01*
G01X50224Y30190D01*
G01X50212Y30196D01*
G01X50199Y30202D01*
G01X50187Y30207D01*
G01X50174Y30212D01*
G01X50160Y30217D01*
G01X50147Y30221D01*
G01X50134Y30224D01*
G01X50120Y30227D01*
G01X50107Y30230D01*
G01X50093Y30232D01*
G01X50079Y30234D01*
G01X50065Y30235D01*
G01X50051Y30235D01*
G01X50038Y30236D01*
G01X48555Y30236D01*
G01X48412Y30379D01*
G01X48412Y41386D01*
G01X48412Y41395D01*
G01X48412Y41401D01*
G01X48411Y41404D01*
G01X48411Y41407D01*
G01X48411Y41414D01*
G01X48410Y41422D01*
G01X48410Y41424D01*
G01X48410Y41427D01*
G01X48409Y41433D01*
G01X48408Y41442D01*
G01X48408Y41445D01*
G01X48407Y41447D01*
G01X48406Y41454D01*
G01X48405Y41462D01*
G01X48404Y41464D01*
G01X48404Y41467D01*
G01X48402Y41474D01*
G01X48401Y41482D01*
G01X48400Y41484D01*
G01X48399Y41487D01*
G01X48397Y41493D01*
G01X48395Y41501D01*
G01X48394Y41504D01*
G01X48394Y41506D01*
G01X48391Y41513D01*
G01X48389Y41520D01*
G01X48388Y41523D01*
G01X48387Y41525D01*
G01X48385Y41532D01*
G01X48382Y41539D01*
G01X48381Y41542D01*
G01X48380Y41544D01*
G01X48376Y41552D01*
G01X48374Y41558D01*
G01X48373Y41560D01*
G01X48372Y41563D01*
G01X48368Y41570D01*
G01X48365Y41576D01*
G01X48364Y41578D01*
G01X48362Y41581D01*
G01X48358Y41588D01*
G01X48355Y41594D01*
G01X48354Y41596D01*
G01X48352Y41598D01*
G01X48348Y41605D01*
G01X48344Y41611D01*
G01X48343Y41613D01*
G01X48341Y41615D01*
G01X48337Y41621D01*
G01X48332Y41628D01*
G01X48331Y41630D01*
G01X48329Y41632D01*
G01X48325Y41638D01*
G01X48320Y41644D01*
G01X48319Y41645D01*
G01X48317Y41647D01*
G01X48312Y41653D01*
G01X48307Y41659D01*
G01X48305Y41661D01*
G01X48303Y41663D01*
G01X48298Y41668D01*
G01X48293Y41674D01*
G01X47785Y42182D01*
G01X47775Y42191D01*
G01X47765Y42201D01*
G01X47754Y42209D01*
G01X47743Y42218D01*
G01X47732Y42226D01*
G01X47720Y42234D01*
G01X47709Y42242D01*
G01X47697Y42249D01*
G01X47684Y42255D01*
G01X47672Y42261D01*
G01X47659Y42267D01*
G01X47647Y42272D01*
G01X47634Y42277D01*
G01X47620Y42282D01*
G01X47607Y42286D01*
G01X47594Y42289D01*
G01X47580Y42292D01*
G01X47567Y42295D01*
G01X47553Y42297D01*
G01X47539Y42299D01*
G01X47525Y42300D01*
G01X47511Y42300D01*
G01X47498Y42301D01*
G01X46876Y42301D01*
G01X46835Y42337D01*
G01X46789Y42370D01*
G01X46740Y42398D01*
G01X46688Y42422D01*
G01X46635Y42440D01*
G01X46580Y42452D01*
G01X46524Y42459D01*
G01X46467Y42461D01*
G01X46411Y42456D01*
G01X46355Y42446D01*
G01X46301Y42431D01*
G01X46249Y42411D01*
G01X46198Y42385D01*
G01X46151Y42354D01*
G01X46107Y42319D01*
G01X46066Y42280D01*
G01X46037Y42245D01*
G01X46037Y46497D01*
G01X46060Y46528D01*
G01X46090Y46576D01*
G01X46114Y46627D01*
G01X46134Y46680D01*
G01X46148Y46735D01*
G01X46156Y46791D01*
G01X46159Y46847D01*
G01X46156Y46904D01*
G01X46148Y46960D01*
G01X46134Y47014D01*
G01X46114Y47067D01*
G01X46090Y47118D01*
G01X46060Y47166D01*
G01X46026Y47211D01*
G01X45988Y47253D01*
G01X45946Y47290D01*
G01X45900Y47323D01*
G01X45851Y47351D01*
G01X45799Y47375D01*
G01X45746Y47393D01*
G01X45691Y47405D01*
G01X45635Y47412D01*
G01X45578Y47414D01*
G01X45522Y47409D01*
G01X45466Y47399D01*
G01X45412Y47384D01*
G01X45360Y47364D01*
G01X45309Y47338D01*
G01X45262Y47307D01*
G01X45218Y47272D01*
G01X45177Y47233D01*
G01X45141Y47189D01*
G01X45109Y47143D01*
G01X45082Y47093D01*
G01X45060Y47041D01*
G01X45044Y46987D01*
G01X45032Y46932D01*
G01X45027Y46876D01*
G01X45027Y46819D01*
G01X45032Y46763D01*
G01X45044Y46707D01*
G01X45060Y46654D01*
G01X45082Y46601D01*
G01X45109Y46552D01*
G01X45141Y46505D01*
G01X45148Y46497D01*
G01X45148Y42021D01*
G01X45149Y41999D01*
G01X45150Y41977D01*
G01X45153Y41955D01*
G01X45157Y41933D01*
G01X45162Y41912D01*
G01X45168Y41890D01*
G01X45175Y41869D01*
G01X45183Y41849D01*
G01X45186Y41842D01*
G01X45186Y41809D01*
G01X44797Y41420D01*
G01X44787Y41410D01*
G01X44778Y41399D01*
G01X44769Y41389D01*
G01X44761Y41378D01*
G01X44752Y41367D01*
G01X44745Y41355D01*
G01X44737Y41343D01*
G01X44730Y41331D01*
G01X44724Y41319D01*
G01X44717Y41307D01*
G01X44712Y41294D01*
G01X44706Y41281D01*
G01X44702Y41268D01*
G01X44697Y41255D01*
G01X44693Y41242D01*
G01X44690Y41228D01*
G01X44687Y41215D01*
G01X44684Y41201D01*
G01X44682Y41188D01*
G01X44680Y41174D01*
G01X44679Y41160D01*
G01X44678Y41146D01*
G01X44678Y41132D01*
G01X44678Y39142D01*
G01X44199Y38662D01*
G01X44169Y38663D01*
G01X44113Y38659D01*
G01X44057Y38649D01*
G01X44003Y38634D01*
G01X43950Y38613D01*
G01X43900Y38587D01*
G01X43852Y38557D01*
G01X43808Y38521D01*
G01X43768Y38482D01*
G01X43732Y38439D01*
G01X43700Y38392D01*
G01X43673Y38342D01*
G01X43651Y38290D01*
G01X43634Y38236D01*
G01X43623Y38181D01*
G01X43617Y38125D01*
G01X43617Y38068D01*
G01X43623Y38012D01*
G01X43634Y37957D01*
G01X43651Y37903D01*
G01X43673Y37851D01*
G01X43700Y37801D01*
G01X43732Y37755D01*
G01X43768Y37711D01*
G01X43808Y37672D01*
G01X43852Y37637D01*
G01X43900Y37606D01*
G01X43950Y37580D01*
G01X44003Y37560D01*
G01X44057Y37544D01*
G01X44113Y37535D01*
G01X44169Y37530D01*
G01X44225Y37532D01*
G01X44281Y37539D01*
G01X44336Y37551D01*
G01X44390Y37569D01*
G01X44441Y37593D01*
G01X44490Y37621D01*
G01X44536Y37654D01*
G01X44579Y37691D01*
G01X44617Y37733D01*
G01X44651Y37778D01*
G01X44680Y37826D01*
G01X44705Y37877D01*
G01X44724Y37930D01*
G01X44738Y37984D01*
G01X44747Y38040D01*
G01X44748Y38062D01*
G01X45372Y38686D01*
G01X45382Y38696D01*
G01X45391Y38706D01*
G01X45400Y38717D01*
G01X45408Y38728D01*
G01X45417Y38739D01*
G01X45424Y38750D01*
G01X45432Y38762D01*
G01X45439Y38774D01*
G01X45445Y38786D01*
G01X45452Y38799D01*
G01X45457Y38811D01*
G01X45463Y38824D01*
G01X45467Y38837D01*
G01X45472Y38850D01*
G01X45476Y38864D01*
G01X45479Y38877D01*
G01X45482Y38891D01*
G01X45485Y38904D01*
G01X45487Y38918D01*
G01X45489Y38932D01*
G01X45490Y38946D01*
G01X45491Y38959D01*
G01X45491Y38973D01*
G01X45491Y40964D01*
G01X45880Y41353D01*
G01X45890Y41363D01*
G01X45899Y41373D01*
G01X45908Y41384D01*
G01X45916Y41395D01*
G01X45925Y41406D01*
G01X45932Y41417D01*
G01X45940Y41429D01*
G01X45947Y41441D01*
G01X45953Y41453D01*
G01X45960Y41466D01*
G01X45965Y41478D01*
G01X45971Y41491D01*
G01X45975Y41504D01*
G01X45980Y41517D01*
G01X45984Y41531D01*
G01X45987Y41544D01*
G01X45990Y41558D01*
G01X45993Y41571D01*
G01X45995Y41585D01*
G01X45997Y41599D01*
G01X45997Y41601D01*
G01X45998Y41599D01*
G01X46030Y41552D01*
G01X46066Y41509D01*
G01X46107Y41470D01*
G01X46151Y41434D01*
G01X46198Y41404D01*
G01X46249Y41378D01*
G01X46301Y41357D01*
G01X46355Y41342D01*
G01X46411Y41332D01*
G01X46467Y41328D01*
G01X46524Y41329D01*
G01X46580Y41336D01*
G01X46635Y41349D01*
G01X46688Y41367D01*
G01X46740Y41390D01*
G01X46789Y41418D01*
G01X46835Y41451D01*
G01X46876Y41488D01*
G01X47329Y41488D01*
G01X47599Y41218D01*
G01X47599Y30664D01*
G01X47331Y30933D01*
G01X47320Y30943D01*
G01X47310Y30952D01*
G01X47298Y30962D01*
G01X47287Y30971D01*
G01X47276Y30980D01*
G01X47264Y30988D01*
G01X47252Y30997D01*
G01X47239Y31004D01*
G01X47227Y31012D01*
G01X47214Y31019D01*
G01X47201Y31025D01*
G01X47188Y31031D01*
G01X47174Y31037D01*
G01X47161Y31042D01*
G01X47147Y31047D01*
G01X47133Y31052D01*
G01X47119Y31056D01*
G01X47105Y31060D01*
G01X47091Y31063D01*
G01X47076Y31066D01*
G01X47062Y31068D01*
G01X47048Y31070D01*
G01X47033Y31072D01*
G01X47019Y31073D01*
G01X47004Y31074D01*
G01X46990Y31074D01*
G01X46541Y31074D01*
G01X46504Y31095D01*
G01X46452Y31119D01*
G01X46399Y31137D01*
G01X46344Y31149D01*
G01X46288Y31156D01*
G01X46231Y31158D01*
G01X46175Y31153D01*
G01X46119Y31143D01*
G01X46065Y31128D01*
G01X46012Y31108D01*
G01X45962Y31082D01*
G01X45915Y31051D01*
G01X45870Y31016D01*
G01X45830Y30977D01*
G01X45794Y30933D01*
G01X45762Y30887D01*
G01X45735Y30837D01*
G01X45713Y30785D01*
G01X45696Y30731D01*
G01X45685Y30676D01*
G01X45680Y30620D01*
G01X45680Y30563D01*
G01X45685Y30507D01*
G01X45696Y30451D01*
G01X45713Y30398D01*
G01X45735Y30345D01*
G01X45762Y30296D01*
G01X45794Y30249D01*
G01X45830Y30206D01*
G01X45870Y30167D01*
G01X45915Y30131D01*
G01X45962Y30101D01*
G01X46012Y30075D01*
G01X46065Y30054D01*
G01X46119Y30039D01*
G01X46175Y30029D01*
G01X46231Y30025D01*
G01X46288Y30026D01*
G01X46344Y30033D01*
G01X46399Y30046D01*
G01X46452Y30064D01*
G01X46504Y30087D01*
G01X46541Y30109D01*
G01X46790Y30109D01*
G01X46888Y30010D01*
G01X46888Y29397D01*
G01X46888Y29383D01*
G01X46889Y29368D01*
G01X46890Y29354D01*
G01X46891Y29339D01*
G01X46893Y29325D01*
G01X46896Y29310D01*
G01X46899Y29296D01*
G01X46902Y29282D01*
G01X46906Y29268D01*
G01X46910Y29254D01*
G01X46914Y29240D01*
G01X46919Y29226D01*
G01X46925Y29213D01*
G01X46930Y29199D01*
G01X46937Y29186D01*
G01X46943Y29173D01*
G01X46950Y29160D01*
G01X46957Y29148D01*
G01X46965Y29135D01*
G01X46973Y29123D01*
G01X46982Y29111D01*
G01X46991Y29100D01*
G01X47000Y29088D01*
G01X47009Y29077D01*
G01X47019Y29067D01*
G01X47029Y29056D01*
G01X47410Y28675D01*
G01X47421Y28665D01*
G01X47431Y28655D01*
G01X47443Y28646D01*
G01X47454Y28637D01*
G01X47465Y28628D01*
G01X47477Y28619D01*
G01X47489Y28611D01*
G01X47502Y28603D01*
G01X47514Y28596D01*
G01X47527Y28589D01*
G01X47540Y28583D01*
G01X47553Y28576D01*
G01X47567Y28571D01*
G01X47580Y28565D01*
G01X47594Y28560D01*
G01X47608Y28556D01*
G01X47622Y28552D01*
G01X47636Y28548D01*
G01X47650Y28545D01*
G01X47665Y28542D01*
G01X47679Y28539D01*
G01X47693Y28537D01*
G01X47708Y28536D01*
G01X47722Y28535D01*
G01X47737Y28534D01*
G01X47752Y28534D01*
G01X49265Y28534D01*
G01X49301Y28500D01*
G01X49301Y27205D01*
G01X49300Y27204D01*
G01X49273Y27154D01*
G01X49251Y27102D01*
G01X49235Y27048D01*
G01X49223Y26993D01*
G01X49218Y26937D01*
G01X49218Y26880D01*
G01X49223Y26824D01*
G01X49235Y26768D01*
G01X49251Y26715D01*
G01X49273Y26662D01*
G01X49300Y26613D01*
G01X49332Y26566D01*
G01X49368Y26523D01*
G01X49409Y26484D01*
G01X49453Y26448D01*
G01X49500Y26418D01*
G01X49551Y26392D01*
G01X49603Y26371D01*
G01X49657Y26356D01*
G01X49713Y26346D01*
G01X49769Y26342D01*
G01X49826Y26343D01*
G01X49882Y26350D01*
G01X49937Y26363D01*
G01X49990Y26381D01*
G01X50042Y26404D01*
G01X50091Y26432D01*
G01X50137Y26465D01*
G01X50179Y26503D01*
G01X50217Y26544D01*
G01X50251Y26589D01*
G01X50266Y26613D01*
G01X50266Y25003D01*
G01X50266Y24989D01*
G01X50267Y24976D01*
G01X50268Y24962D01*
G01X50270Y24948D01*
G01X50272Y24934D01*
G01X50275Y24921D01*
G01X50278Y24907D01*
G01X50281Y24894D01*
G01X50285Y24880D01*
G01X50290Y24867D01*
G01X50294Y24854D01*
G01X50300Y24841D01*
G01X50305Y24829D01*
G01X50312Y24816D01*
G01X50318Y24804D01*
G01X50325Y24792D01*
G01X50333Y24780D01*
G01X50340Y24769D01*
G01X50349Y24758D01*
G01X50357Y24747D01*
G01X50366Y24736D01*
G01X50375Y24726D01*
G01X50385Y24716D01*
G01X51028Y24073D01*
G01X51028Y23746D01*
G01X51019Y23738D01*
G01X50983Y23694D01*
G01X50951Y23648D01*
G01X50924Y23598D01*
G01X50902Y23546D01*
G01X50886Y23492D01*
G01X50874Y23437D01*
G01X50869Y23381D01*
G01X50869Y23324D01*
G01X50874Y23268D01*
G01X50886Y23212D01*
G01X50902Y23159D01*
G01X50924Y23106D01*
G01X50951Y23057D01*
G01X50983Y23010D01*
G01X51019Y22967D01*
G01X51060Y22928D01*
G01X51104Y22892D01*
G01X51151Y22862D01*
G01X51202Y22836D01*
G01X51254Y22815D01*
G01X51308Y22800D01*
G01X51364Y22790D01*
G37*
G36*
G01X22484Y48165D02*
G01X22541Y48161D01*
G01X22597Y48162D01*
G01X22653Y48169D01*
G01X22708Y48182D01*
G01X22762Y48200D01*
G01X22813Y48223D01*
G01X22862Y48251D01*
G01X22908Y48284D01*
G01X22950Y48321D01*
G01X22989Y48363D01*
G01X23023Y48408D01*
G01X23052Y48456D01*
G01X23077Y48507D01*
G01X23096Y48560D01*
G01X23110Y48615D01*
G01X23118Y48670D01*
G01X23121Y48727D01*
G01X23118Y48783D01*
G01X23110Y48839D01*
G01X23096Y48894D01*
G01X23077Y48947D01*
G01X23052Y48998D01*
G01X23023Y49046D01*
G01X22989Y49091D01*
G01X22950Y49132D01*
G01X22908Y49170D01*
G01X22862Y49203D01*
G01X22813Y49231D01*
G01X22762Y49254D01*
G01X22708Y49272D01*
G01X22687Y49277D01*
G01X21590Y50375D01*
G01X21590Y50514D01*
G01X21604Y50539D01*
G01X21629Y50590D01*
G01X21648Y50643D01*
G01X21662Y50697D01*
G01X21671Y50753D01*
G01X21673Y50810D01*
G01X21671Y50866D01*
G01X21662Y50922D01*
G01X21648Y50977D01*
G01X21629Y51030D01*
G01X21604Y51081D01*
G01X21575Y51129D01*
G01X21541Y51174D01*
G01X21502Y51215D01*
G01X21460Y51253D01*
G01X21414Y51285D01*
G01X21365Y51314D01*
G01X21314Y51337D01*
G01X21260Y51355D01*
G01X21205Y51367D01*
G01X21149Y51375D01*
G01X21093Y51376D01*
G01X21036Y51372D01*
G01X20981Y51362D01*
G01X20927Y51347D01*
G01X20874Y51326D01*
G01X20824Y51300D01*
G01X20776Y51270D01*
G01X20732Y51234D01*
G01X20692Y51195D01*
G01X20655Y51152D01*
G01X20624Y51105D01*
G01X20597Y51055D01*
G01X20575Y51003D01*
G01X20558Y50949D01*
G01X20547Y50894D01*
G01X20541Y50838D01*
G01X20541Y50781D01*
G01X20547Y50725D01*
G01X20558Y50670D01*
G01X20575Y50616D01*
G01X20597Y50564D01*
G01X20624Y50514D01*
G01X20624Y50513D01*
G01X20624Y50175D01*
G01X20625Y50160D01*
G01X20625Y50146D01*
G01X20626Y50131D01*
G01X20628Y50116D01*
G01X20630Y50102D01*
G01X20632Y50088D01*
G01X20635Y50073D01*
G01X20638Y50059D01*
G01X20642Y50045D01*
G01X20646Y50031D01*
G01X20651Y50017D01*
G01X20656Y50004D01*
G01X20661Y49990D01*
G01X20667Y49977D01*
G01X20673Y49963D01*
G01X20680Y49950D01*
G01X20687Y49938D01*
G01X20694Y49925D01*
G01X20702Y49913D01*
G01X20710Y49901D01*
G01X20718Y49889D01*
G01X20727Y49877D01*
G01X20736Y49866D01*
G01X20746Y49855D01*
G01X20755Y49844D01*
G01X20766Y49833D01*
G01X22004Y48595D01*
G01X22006Y48587D01*
G01X22022Y48533D01*
G01X22044Y48481D01*
G01X22071Y48432D01*
G01X22103Y48385D01*
G01X22139Y48342D01*
G01X22180Y48302D01*
G01X22224Y48267D01*
G01X22271Y48236D01*
G01X22322Y48211D01*
G01X22374Y48190D01*
G01X22429Y48175D01*
G01X22484Y48165D01*
G37*
G36*
G01X28011Y46357D02*
G01X28061Y46353D01*
G01X28112Y46355D01*
G01X28162Y46361D01*
G01X28211Y46372D01*
G01X28259Y46388D01*
G01X28305Y46409D01*
G01X28349Y46434D01*
G01X28390Y46464D01*
G01X28428Y46497D01*
G01X28462Y46534D01*
G01X28493Y46575D01*
G01X28519Y46618D01*
G01X28541Y46663D01*
G01X28558Y46711D01*
G01X28571Y46760D01*
G01X28574Y46782D01*
G01X28584Y46735D01*
G01X28599Y46687D01*
G01X28618Y46640D01*
G01X28642Y46596D01*
G01X28671Y46554D01*
G01X28703Y46515D01*
G01X28740Y46480D01*
G01X28779Y46449D01*
G01X28822Y46421D01*
G01X28866Y46398D01*
G01X28913Y46380D01*
G01X28962Y46366D01*
G01X29012Y46357D01*
G01X29062Y46353D01*
G01X29113Y46355D01*
G01X29163Y46361D01*
G01X29212Y46372D01*
G01X29260Y46388D01*
G01X29306Y46409D01*
G01X29350Y46434D01*
G01X29391Y46464D01*
G01X29429Y46497D01*
G01X29463Y46534D01*
G01X29494Y46575D01*
G01X29520Y46618D01*
G01X29542Y46663D01*
G01X29559Y46711D01*
G01X29572Y46760D01*
G01X29579Y46810D01*
G01X29582Y46860D01*
G01X29579Y46910D01*
G01X29572Y46960D01*
G01X29559Y47009D01*
G01X29542Y47057D01*
G01X29520Y47102D01*
G01X29494Y47145D01*
G01X29463Y47186D01*
G01X29429Y47223D01*
G01X29391Y47256D01*
G01X29350Y47286D01*
G01X29306Y47311D01*
G01X29260Y47332D01*
G01X29212Y47348D01*
G01X29163Y47359D01*
G01X29113Y47365D01*
G01X29062Y47367D01*
G01X29017Y47363D01*
G01X29020Y47367D01*
G01X29041Y47412D01*
G01X29059Y47460D01*
G01X29071Y47509D01*
G01X29079Y47559D01*
G01X29081Y47609D01*
G01X29079Y47660D01*
G01X29071Y47710D01*
G01X29059Y47759D01*
G01X29041Y47806D01*
G01X29020Y47852D01*
G01X29017Y47855D01*
G01X29062Y47852D01*
G01X29113Y47853D01*
G01X29163Y47860D01*
G01X29212Y47871D01*
G01X29260Y47887D01*
G01X29306Y47908D01*
G01X29350Y47933D01*
G01X29391Y47962D01*
G01X29429Y47996D01*
G01X29463Y48033D01*
G01X29494Y48073D01*
G01X29520Y48116D01*
G01X29542Y48162D01*
G01X29559Y48209D01*
G01X29572Y48258D01*
G01X29579Y48308D01*
G01X29582Y48359D01*
G01X29579Y48409D01*
G01X29572Y48459D01*
G01X29559Y48508D01*
G01X29542Y48555D01*
G01X29520Y48601D01*
G01X29494Y48644D01*
G01X29463Y48684D01*
G01X29429Y48721D01*
G01X29391Y48755D01*
G01X29350Y48784D01*
G01X29306Y48809D01*
G01X29260Y48830D01*
G01X29212Y48846D01*
G01X29163Y48858D01*
G01X29113Y48864D01*
G01X29062Y48865D01*
G01X29012Y48861D01*
G01X28962Y48853D01*
G01X28913Y48839D01*
G01X28866Y48820D01*
G01X28822Y48797D01*
G01X28779Y48770D01*
G01X28740Y48738D01*
G01X28703Y48703D01*
G01X28671Y48665D01*
G01X28642Y48623D01*
G01X28618Y48578D01*
G01X28599Y48532D01*
G01X28584Y48484D01*
G01X28574Y48436D01*
G01X28571Y48459D01*
G01X28558Y48508D01*
G01X28541Y48555D01*
G01X28519Y48601D01*
G01X28493Y48644D01*
G01X28462Y48684D01*
G01X28428Y48721D01*
G01X28390Y48755D01*
G01X28349Y48784D01*
G01X28305Y48809D01*
G01X28259Y48830D01*
G01X28211Y48846D01*
G01X28162Y48858D01*
G01X28112Y48864D01*
G01X28061Y48865D01*
G01X28011Y48861D01*
G01X27961Y48853D01*
G01X27913Y48839D01*
G01X27866Y48820D01*
G01X27821Y48797D01*
G01X27778Y48770D01*
G01X27739Y48738D01*
G01X27703Y48703D01*
G01X27670Y48665D01*
G01X27642Y48623D01*
G01X27618Y48578D01*
G01X27598Y48532D01*
G01X27583Y48484D01*
G01X27573Y48434D01*
G01X27568Y48384D01*
G01X27568Y48333D01*
G01X27573Y48283D01*
G01X27583Y48234D01*
G01X27598Y48185D01*
G01X27618Y48139D01*
G01X27642Y48094D01*
G01X27670Y48053D01*
G01X27703Y48014D01*
G01X27739Y47979D01*
G01X27778Y47947D01*
G01X27821Y47920D01*
G01X27866Y47897D01*
G01X27913Y47878D01*
G01X27961Y47865D01*
G01X28011Y47856D01*
G01X28061Y47852D01*
G01X28112Y47853D01*
G01X28132Y47856D01*
G01X28118Y47829D01*
G01X28098Y47783D01*
G01X28083Y47734D01*
G01X28073Y47685D01*
G01X28068Y47635D01*
G01X28068Y47584D01*
G01X28073Y47534D01*
G01X28083Y47484D01*
G01X28098Y47436D01*
G01X28118Y47389D01*
G01X28132Y47363D01*
G01X28112Y47365D01*
G01X28061Y47367D01*
G01X28011Y47363D01*
G01X27961Y47354D01*
G01X27913Y47340D01*
G01X27866Y47322D01*
G01X27821Y47299D01*
G01X27778Y47271D01*
G01X27739Y47240D01*
G01X27703Y47205D01*
G01X27670Y47166D01*
G01X27642Y47124D01*
G01X27618Y47080D01*
G01X27598Y47033D01*
G01X27583Y46985D01*
G01X27573Y46935D01*
G01X27568Y46885D01*
G01X27568Y46835D01*
G01X27573Y46784D01*
G01X27583Y46735D01*
G01X27598Y46687D01*
G01X27618Y46640D01*
G01X27642Y46596D01*
G01X27670Y46554D01*
G01X27703Y46515D01*
G01X27739Y46480D01*
G01X27778Y46449D01*
G01X27821Y46421D01*
G01X27866Y46398D01*
G01X27913Y46380D01*
G01X27961Y46366D01*
G01X28011Y46357D01*
G37*
G36*
G01X22275Y44612D02*
G01X22275Y44193D01*
G01X22948Y44193D01*
G01X22948Y44866D01*
G01X22529Y44866D01*
G01X22519Y44866D01*
G01X22508Y44865D01*
G01X22498Y44864D01*
G01X22487Y44863D01*
G01X22477Y44861D01*
G01X22467Y44858D01*
G01X22457Y44855D01*
G01X22447Y44852D01*
G01X22437Y44849D01*
G01X22427Y44845D01*
G01X22418Y44840D01*
G01X22408Y44835D01*
G01X22399Y44830D01*
G01X22390Y44825D01*
G01X22382Y44819D01*
G01X22373Y44812D01*
G01X22365Y44806D01*
G01X22357Y44799D01*
G01X22350Y44792D01*
G01X22342Y44784D01*
G01X22335Y44776D01*
G01X22329Y44768D01*
G01X22323Y44760D01*
G01X22317Y44751D01*
G01X22311Y44742D01*
G01X22306Y44733D01*
G01X22301Y44724D01*
G01X22297Y44714D01*
G01X22293Y44704D01*
G01X22289Y44695D01*
G01X22286Y44685D01*
G01X22283Y44674D01*
G01X22281Y44664D01*
G01X22279Y44654D01*
G01X22277Y44643D01*
G01X22276Y44633D01*
G01X22276Y44623D01*
G01X22275Y44612D01*
G37*
G36*
G01X23787Y44866D02*
G01X23787Y44193D01*
G01X24460Y44193D01*
G01X24460Y44612D01*
G01X24459Y44623D01*
G01X24459Y44633D01*
G01X24458Y44643D01*
G01X24456Y44654D01*
G01X24454Y44664D01*
G01X24452Y44674D01*
G01X24449Y44685D01*
G01X24446Y44695D01*
G01X24442Y44704D01*
G01X24438Y44714D01*
G01X24434Y44724D01*
G01X24429Y44733D01*
G01X24424Y44742D01*
G01X24418Y44751D01*
G01X24412Y44760D01*
G01X24406Y44768D01*
G01X24400Y44776D01*
G01X24393Y44784D01*
G01X24385Y44792D01*
G01X24378Y44799D01*
G01X24370Y44806D01*
G01X24362Y44812D01*
G01X24353Y44819D01*
G01X24345Y44825D01*
G01X24336Y44830D01*
G01X24327Y44835D01*
G01X24317Y44840D01*
G01X24308Y44845D01*
G01X24298Y44849D01*
G01X24288Y44852D01*
G01X24278Y44855D01*
G01X24268Y44858D01*
G01X24258Y44861D01*
G01X24248Y44863D01*
G01X24237Y44864D01*
G01X24227Y44865D01*
G01X24216Y44866D01*
G01X24206Y44866D01*
G01X23787Y44866D01*
G37*
G36*
G01X21427Y25867D02*
G01X21437Y25867D01*
G01X21831Y25867D01*
G01X21831Y26515D01*
G01X21183Y26515D01*
G01X21183Y26121D01*
G01X21183Y26110D01*
G01X21184Y26100D01*
G01X21185Y26089D01*
G01X21187Y26079D01*
G01X21189Y26069D01*
G01X21191Y26059D01*
G01X21194Y26048D01*
G01X21197Y26038D01*
G01X21200Y26029D01*
G01X21204Y26019D01*
G01X21209Y26009D01*
G01X21214Y26000D01*
G01X21219Y25991D01*
G01X21224Y25982D01*
G01X21230Y25973D01*
G01X21237Y25965D01*
G01X21243Y25957D01*
G01X21250Y25949D01*
G01X21257Y25941D01*
G01X21265Y25934D01*
G01X21273Y25927D01*
G01X21281Y25920D01*
G01X21290Y25914D01*
G01X21298Y25908D01*
G01X21307Y25903D01*
G01X21316Y25897D01*
G01X21326Y25893D01*
G01X21335Y25888D01*
G01X21345Y25884D01*
G01X21355Y25881D01*
G01X21365Y25877D01*
G01X21375Y25875D01*
G01X21385Y25872D01*
G01X21395Y25870D01*
G01X21406Y25869D01*
G01X21416Y25868D01*
G01X21427Y25867D01*
G37*
G36*
G01X48859Y41107D02*
G01X48869Y41107D01*
G01X50444Y41107D01*
G01X50454Y41107D01*
G01X50465Y41108D01*
G01X50475Y41109D01*
G01X50486Y41110D01*
G01X50496Y41112D01*
G01X50506Y41115D01*
G01X50516Y41117D01*
G01X50526Y41121D01*
G01X50536Y41124D01*
G01X50546Y41128D01*
G01X50555Y41133D01*
G01X50565Y41137D01*
G01X50574Y41143D01*
G01X50583Y41148D01*
G01X50591Y41154D01*
G01X50600Y41160D01*
G01X50608Y41167D01*
G01X50616Y41174D01*
G01X50624Y41181D01*
G01X50631Y41189D01*
G01X50638Y41197D01*
G01X50644Y41205D01*
G01X50651Y41213D01*
G01X50657Y41222D01*
G01X50662Y41231D01*
G01X50667Y41240D01*
G01X50672Y41249D01*
G01X50677Y41259D01*
G01X50681Y41269D01*
G01X50684Y41278D01*
G01X50687Y41288D01*
G01X50690Y41299D01*
G01X50692Y41309D01*
G01X50694Y41319D01*
G01X50696Y41329D01*
G01X50697Y41340D01*
G01X50698Y41350D01*
G01X50698Y41361D01*
G01X50698Y42936D01*
G01X50698Y42946D01*
G01X50697Y42957D01*
G01X50696Y42967D01*
G01X50694Y42977D01*
G01X50692Y42988D01*
G01X50690Y42998D01*
G01X50687Y43008D01*
G01X50684Y43018D01*
G01X50681Y43028D01*
G01X50677Y43038D01*
G01X50672Y43047D01*
G01X50667Y43057D01*
G01X50662Y43066D01*
G01X50657Y43075D01*
G01X50651Y43083D01*
G01X50644Y43092D01*
G01X50638Y43100D01*
G01X50631Y43108D01*
G01X50624Y43115D01*
G01X50616Y43123D01*
G01X50608Y43129D01*
G01X50600Y43136D01*
G01X50591Y43142D01*
G01X50583Y43148D01*
G01X50574Y43154D01*
G01X50565Y43159D01*
G01X50555Y43164D01*
G01X50546Y43168D01*
G01X50536Y43172D01*
G01X50526Y43176D01*
G01X50516Y43179D01*
G01X50506Y43182D01*
G01X50496Y43184D01*
G01X50486Y43186D01*
G01X50475Y43188D01*
G01X50465Y43189D01*
G01X50454Y43189D01*
G01X50444Y43190D01*
G01X48869Y43190D01*
G01X48859Y43189D01*
G01X48848Y43189D01*
G01X48838Y43188D01*
G01X48827Y43186D01*
G01X48817Y43184D01*
G01X48807Y43182D01*
G01X48797Y43179D01*
G01X48787Y43176D01*
G01X48777Y43172D01*
G01X48767Y43168D01*
G01X48758Y43164D01*
G01X48748Y43159D01*
G01X48739Y43154D01*
G01X48730Y43148D01*
G01X48722Y43142D01*
G01X48713Y43136D01*
G01X48705Y43129D01*
G01X48697Y43123D01*
G01X48689Y43115D01*
G01X48682Y43108D01*
G01X48675Y43100D01*
G01X48669Y43092D01*
G01X48662Y43083D01*
G01X48656Y43075D01*
G01X48651Y43066D01*
G01X48646Y43057D01*
G01X48641Y43047D01*
G01X48636Y43038D01*
G01X48632Y43028D01*
G01X48629Y43018D01*
G01X48626Y43008D01*
G01X48623Y42998D01*
G01X48621Y42988D01*
G01X48619Y42977D01*
G01X48617Y42967D01*
G01X48616Y42957D01*
G01X48615Y42946D01*
G01X48615Y42936D01*
G01X48615Y41361D01*
G01X48615Y41350D01*
G01X48616Y41340D01*
G01X48617Y41329D01*
G01X48619Y41319D01*
G01X48621Y41309D01*
G01X48623Y41299D01*
G01X48626Y41288D01*
G01X48629Y41278D01*
G01X48632Y41269D01*
G01X48636Y41259D01*
G01X48641Y41249D01*
G01X48646Y41240D01*
G01X48651Y41231D01*
G01X48656Y41222D01*
G01X48662Y41213D01*
G01X48669Y41205D01*
G01X48675Y41197D01*
G01X48682Y41189D01*
G01X48689Y41181D01*
G01X48697Y41174D01*
G01X48705Y41167D01*
G01X48713Y41160D01*
G01X48722Y41154D01*
G01X48730Y41148D01*
G01X48739Y41143D01*
G01X48748Y41137D01*
G01X48758Y41133D01*
G01X48767Y41128D01*
G01X48777Y41124D01*
G01X48787Y41121D01*
G01X48797Y41117D01*
G01X48807Y41115D01*
G01X48817Y41112D01*
G01X48827Y41110D01*
G01X48838Y41109D01*
G01X48848Y41108D01*
G01X48859Y41107D01*
G37*
G36*
G01X42601Y39554D02*
G01X42657Y39550D01*
G01X42714Y39551D01*
G01X42770Y39558D01*
G01X42825Y39571D01*
G01X42878Y39589D01*
G01X42930Y39612D01*
G01X42979Y39640D01*
G01X43025Y39673D01*
G01X43067Y39711D01*
G01X43105Y39752D01*
G01X43139Y39797D01*
G01X43169Y39845D01*
G01X43193Y39896D01*
G01X43213Y39949D01*
G01X43227Y40004D01*
G01X43235Y40060D01*
G01X43237Y40107D01*
G01X43594Y40464D01*
G01X43604Y40474D01*
G01X43613Y40484D01*
G01X43622Y40495D01*
G01X43630Y40506D01*
G01X43639Y40517D01*
G01X43646Y40528D01*
G01X43654Y40540D01*
G01X43661Y40552D01*
G01X43667Y40564D01*
G01X43674Y40577D01*
G01X43679Y40589D01*
G01X43685Y40602D01*
G01X43689Y40615D01*
G01X43694Y40628D01*
G01X43698Y40642D01*
G01X43701Y40655D01*
G01X43704Y40669D01*
G01X43707Y40682D01*
G01X43709Y40696D01*
G01X43711Y40710D01*
G01X43712Y40724D01*
G01X43713Y40737D01*
G01X43713Y40751D01*
G01X43713Y47314D01*
G01X43957Y47558D01*
G01X49847Y47558D01*
G01X49866Y47540D01*
G01X49910Y47505D01*
G01X49957Y47474D01*
G01X50008Y47449D01*
G01X50060Y47428D01*
G01X50115Y47413D01*
G01X50170Y47403D01*
G01X50227Y47399D01*
G01X50283Y47400D01*
G01X50339Y47407D01*
G01X50394Y47420D01*
G01X50448Y47438D01*
G01X50499Y47461D01*
G01X50548Y47489D01*
G01X50594Y47522D01*
G01X50636Y47559D01*
G01X50675Y47601D01*
G01X50709Y47646D01*
G01X50738Y47694D01*
G01X50763Y47745D01*
G01X50782Y47798D01*
G01X50796Y47853D01*
G01X50804Y47908D01*
G01X50807Y47965D01*
G01X50804Y48021D01*
G01X50796Y48077D01*
G01X50782Y48132D01*
G01X50763Y48185D01*
G01X50738Y48236D01*
G01X50709Y48284D01*
G01X50675Y48329D01*
G01X50636Y48370D01*
G01X50594Y48408D01*
G01X50548Y48441D01*
G01X50499Y48469D01*
G01X50448Y48492D01*
G01X50394Y48510D01*
G01X50339Y48523D01*
G01X50283Y48530D01*
G01X50227Y48531D01*
G01X50170Y48527D01*
G01X50115Y48517D01*
G01X50060Y48502D01*
G01X50008Y48481D01*
G01X49957Y48455D01*
G01X49910Y48425D01*
G01X49866Y48390D01*
G01X49847Y48371D01*
G01X46098Y48371D01*
G01X46114Y48405D01*
G01X46134Y48458D01*
G01X46148Y48513D01*
G01X46156Y48569D01*
G01X46159Y48625D01*
G01X46156Y48682D01*
G01X46148Y48738D01*
G01X46134Y48792D01*
G01X46114Y48845D01*
G01X46090Y48896D01*
G01X46060Y48944D01*
G01X46026Y48989D01*
G01X45988Y49031D01*
G01X45946Y49068D01*
G01X45900Y49101D01*
G01X45851Y49129D01*
G01X45799Y49153D01*
G01X45746Y49171D01*
G01X45691Y49183D01*
G01X45635Y49190D01*
G01X45578Y49192D01*
G01X45522Y49187D01*
G01X45466Y49177D01*
G01X45412Y49162D01*
G01X45360Y49142D01*
G01X45309Y49116D01*
G01X45262Y49085D01*
G01X45218Y49050D01*
G01X45199Y49032D01*
G01X43723Y49032D01*
G01X43724Y49036D01*
G01X43728Y49048D01*
G01X43736Y49079D01*
G01X43740Y49091D01*
G01X43747Y49123D01*
G01X43749Y49135D01*
G01X43755Y49167D01*
G01X43757Y49180D01*
G01X43761Y49212D01*
G01X43762Y49224D01*
G01X43764Y49257D01*
G01X43765Y49269D01*
G01X43766Y49302D01*
G01X43766Y49308D01*
G01X43766Y50208D01*
G01X43766Y50214D01*
G01X43765Y50247D01*
G01X43764Y50259D01*
G01X43762Y50292D01*
G01X43761Y50304D01*
G01X43757Y50337D01*
G01X43755Y50349D01*
G01X43749Y50381D01*
G01X43747Y50393D01*
G01X43740Y50425D01*
G01X43736Y50437D01*
G01X43728Y50469D01*
G01X43724Y50480D01*
G01X43714Y50511D01*
G01X43709Y50523D01*
G01X43697Y50554D01*
G01X43693Y50565D01*
G01X43679Y50594D01*
G01X43674Y50606D01*
G01X43659Y50635D01*
G01X43653Y50646D01*
G01X43637Y50674D01*
G01X43630Y50685D01*
G01X43612Y50712D01*
G01X43605Y50723D01*
G01X43586Y50749D01*
G01X43579Y50759D01*
G01X43559Y50784D01*
G01X43550Y50794D01*
G01X43529Y50818D01*
G01X43520Y50827D01*
G01X43498Y50851D01*
G01X43489Y50860D01*
G01X43465Y50882D01*
G01X43455Y50890D01*
G01X43431Y50911D01*
G01X43430Y50911D01*
G01X53344Y50911D01*
G01X53361Y50903D01*
G01X53413Y50882D01*
G01X53467Y50867D01*
G01X53523Y50857D01*
G01X53579Y50853D01*
G01X53636Y50854D01*
G01X53692Y50861D01*
G01X53747Y50874D01*
G01X53800Y50892D01*
G01X53852Y50915D01*
G01X53901Y50943D01*
G01X53947Y50976D01*
G01X53989Y51014D01*
G01X54027Y51055D01*
G01X54061Y51100D01*
G01X54091Y51148D01*
G01X54115Y51199D01*
G01X54135Y51252D01*
G01X54149Y51307D01*
G01X54157Y51363D01*
G01X54160Y51419D01*
G01X54157Y51476D01*
G01X54149Y51532D01*
G01X54135Y51586D01*
G01X54115Y51639D01*
G01X54091Y51690D01*
G01X54061Y51738D01*
G01X54027Y51783D01*
G01X53989Y51825D01*
G01X53947Y51862D01*
G01X53901Y51895D01*
G01X53852Y51923D01*
G01X53800Y51947D01*
G01X53747Y51965D01*
G01X53692Y51977D01*
G01X53636Y51984D01*
G01X53579Y51986D01*
G01X53523Y51981D01*
G01X53467Y51971D01*
G01X53413Y51956D01*
G01X53361Y51936D01*
G01X53344Y51927D01*
G01X33528Y51927D01*
G01X33512Y51927D01*
G01X33497Y51926D01*
G01X33482Y51925D01*
G01X33466Y51924D01*
G01X33451Y51921D01*
G01X33436Y51919D01*
G01X33421Y51916D01*
G01X33406Y51913D01*
G01X33391Y51909D01*
G01X33376Y51904D01*
G01X33362Y51899D01*
G01X33347Y51894D01*
G01X33333Y51889D01*
G01X33319Y51883D01*
G01X33305Y51876D01*
G01X33291Y51869D01*
G01X33278Y51862D01*
G01X33265Y51854D01*
G01X33252Y51846D01*
G01X33239Y51837D01*
G01X33226Y51828D01*
G01X33214Y51819D01*
G01X33202Y51810D01*
G01X33191Y51799D01*
G01X33179Y51789D01*
G01X33168Y51778D01*
G01X32428Y51038D01*
G01X31872Y51038D01*
G01X31829Y51058D01*
G01X31776Y51076D01*
G01X31721Y51088D01*
G01X31665Y51095D01*
G01X31608Y51097D01*
G01X31552Y51092D01*
G01X31496Y51082D01*
G01X31442Y51067D01*
G01X31390Y51047D01*
G01X31339Y51021D01*
G01X31292Y50990D01*
G01X31248Y50955D01*
G01X31207Y50916D01*
G01X31171Y50872D01*
G01X31139Y50826D01*
G01X31112Y50776D01*
G01X31090Y50724D01*
G01X31074Y50670D01*
G01X31062Y50615D01*
G01X31057Y50559D01*
G01X31057Y50502D01*
G01X31062Y50446D01*
G01X31074Y50390D01*
G01X31090Y50337D01*
G01X31112Y50284D01*
G01X31139Y50235D01*
G01X31171Y50188D01*
G01X31207Y50145D01*
G01X31248Y50106D01*
G01X31292Y50070D01*
G01X31327Y50048D01*
G01X30902Y50048D01*
G01X30589Y50360D01*
G01X30579Y50370D01*
G01X30569Y50379D01*
G01X30558Y50388D01*
G01X30547Y50397D01*
G01X30536Y50405D01*
G01X30525Y50413D01*
G01X30513Y50420D01*
G01X30501Y50427D01*
G01X30489Y50434D01*
G01X30476Y50440D01*
G01X30464Y50446D01*
G01X30451Y50451D01*
G01X30438Y50456D01*
G01X30425Y50460D01*
G01X30411Y50464D01*
G01X30398Y50468D01*
G01X30384Y50471D01*
G01X30371Y50474D01*
G01X30357Y50476D01*
G01X30343Y50477D01*
G01X30329Y50479D01*
G01X30316Y50479D01*
G01X30302Y50479D01*
G01X26279Y50479D01*
G01X24290Y52469D01*
G01X24280Y52478D01*
G01X24270Y52488D01*
G01X24259Y52496D01*
G01X24248Y52505D01*
G01X24237Y52513D01*
G01X24225Y52521D01*
G01X24214Y52529D01*
G01X24202Y52536D01*
G01X24189Y52542D01*
G01X24177Y52548D01*
G01X24164Y52554D01*
G01X24152Y52559D01*
G01X24139Y52564D01*
G01X24125Y52569D01*
G01X24112Y52573D01*
G01X24099Y52576D01*
G01X24085Y52579D01*
G01X24072Y52582D01*
G01X24058Y52584D01*
G01X24044Y52586D01*
G01X24030Y52587D01*
G01X24016Y52587D01*
G01X24003Y52588D01*
G01X20193Y52588D01*
G01X20179Y52587D01*
G01X20165Y52587D01*
G01X20151Y52586D01*
G01X20137Y52584D01*
G01X20123Y52582D01*
G01X20110Y52579D01*
G01X20096Y52576D01*
G01X20083Y52573D01*
G01X20070Y52569D01*
G01X20056Y52564D01*
G01X20043Y52559D01*
G01X20031Y52554D01*
G01X20018Y52548D01*
G01X20006Y52542D01*
G01X19993Y52536D01*
G01X19981Y52529D01*
G01X19970Y52521D01*
G01X19958Y52513D01*
G01X19947Y52505D01*
G01X19936Y52496D01*
G01X19925Y52488D01*
G01X19915Y52478D01*
G01X19905Y52469D01*
G01X19041Y51604D01*
G01X19035Y51605D01*
G01X18979Y51600D01*
G01X18923Y51590D01*
G01X18869Y51575D01*
G01X18817Y51555D01*
G01X18766Y51529D01*
G01X18719Y51498D01*
G01X18675Y51463D01*
G01X18634Y51424D01*
G01X18598Y51380D01*
G01X18566Y51334D01*
G01X18539Y51284D01*
G01X18517Y51232D01*
G01X18501Y51178D01*
G01X18489Y51123D01*
G01X18484Y51067D01*
G01X18484Y51010D01*
G01X18489Y50954D01*
G01X18501Y50898D01*
G01X18517Y50845D01*
G01X18539Y50792D01*
G01X18566Y50743D01*
G01X18598Y50696D01*
G01X18634Y50653D01*
G01X18675Y50614D01*
G01X18719Y50578D01*
G01X18766Y50548D01*
G01X18817Y50522D01*
G01X18869Y50501D01*
G01X18923Y50486D01*
G01X18979Y50476D01*
G01X19035Y50472D01*
G01X19092Y50473D01*
G01X19148Y50480D01*
G01X19203Y50493D01*
G01X19256Y50511D01*
G01X19308Y50534D01*
G01X19357Y50562D01*
G01X19403Y50595D01*
G01X19445Y50633D01*
G01X19483Y50674D01*
G01X19517Y50719D01*
G01X19547Y50767D01*
G01X19571Y50818D01*
G01X19591Y50871D01*
G01X19605Y50926D01*
G01X19613Y50982D01*
G01X19615Y51029D01*
G01X20361Y51775D01*
G01X23834Y51775D01*
G01X25823Y49786D01*
G01X25833Y49776D01*
G01X25844Y49767D01*
G01X25854Y49758D01*
G01X25865Y49749D01*
G01X25876Y49741D01*
G01X25888Y49733D01*
G01X25900Y49726D01*
G01X25912Y49719D01*
G01X25924Y49712D01*
G01X25936Y49706D01*
G01X25949Y49700D01*
G01X25962Y49695D01*
G01X25975Y49690D01*
G01X25988Y49686D01*
G01X26001Y49682D01*
G01X26014Y49678D01*
G01X26028Y49675D01*
G01X26042Y49673D01*
G01X26055Y49670D01*
G01X26069Y49669D01*
G01X26083Y49668D01*
G01X26097Y49667D01*
G01X26111Y49667D01*
G01X30133Y49667D01*
G01X30446Y49354D01*
G01X30452Y49348D01*
G01X30457Y49343D01*
G01X30459Y49342D01*
G01X30461Y49340D01*
G01X30466Y49335D01*
G01X30472Y49330D01*
G01X30474Y49328D01*
G01X30476Y49327D01*
G01X30482Y49322D01*
G01X30488Y49317D01*
G01X30490Y49316D01*
G01X30492Y49314D01*
G01X30499Y49310D01*
G01X30505Y49305D01*
G01X30507Y49304D01*
G01X30509Y49303D01*
G01X30515Y49299D01*
G01X30522Y49294D01*
G01X30524Y49293D01*
G01X30526Y49292D01*
G01X30532Y49288D01*
G01X30539Y49284D01*
G01X30542Y49283D01*
G01X30544Y49282D01*
G01X30550Y49279D01*
G01X30557Y49275D01*
G01X30560Y49274D01*
G01X30562Y49273D01*
G01X30568Y49270D01*
G01X30576Y49267D01*
G01X30578Y49266D01*
G01X30580Y49265D01*
G01X30587Y49262D01*
G01X30595Y49259D01*
G01X30597Y49259D01*
G01X30599Y49258D01*
G01X30607Y49255D01*
G01X30614Y49253D01*
G01X30616Y49252D01*
G01X30619Y49251D01*
G01X30626Y49249D01*
G01X30633Y49247D01*
G01X30636Y49247D01*
G01X30638Y49246D01*
G01X30645Y49245D01*
G01X30653Y49243D01*
G01X30656Y49242D01*
G01X30658Y49242D01*
G01X30666Y49241D01*
G01X30673Y49239D01*
G01X30675Y49239D01*
G01X30678Y49239D01*
G01X30686Y49238D01*
G01X30693Y49237D01*
G01X30695Y49237D01*
G01X30698Y49236D01*
G01X30706Y49236D01*
G01X30713Y49235D01*
G01X30716Y49235D01*
G01X30718Y49235D01*
G01X30726Y49235D01*
G01X30734Y49235D01*
G01X33613Y49235D01*
G01X33756Y49092D01*
G01X33756Y48117D01*
G01X33756Y48103D01*
G01X33757Y48090D01*
G01X33758Y48076D01*
G01X33760Y48062D01*
G01X33762Y48048D01*
G01X33765Y48035D01*
G01X33768Y48021D01*
G01X33771Y48008D01*
G01X33775Y47994D01*
G01X33780Y47981D01*
G01X33784Y47968D01*
G01X33790Y47955D01*
G01X33795Y47943D01*
G01X33802Y47930D01*
G01X33808Y47918D01*
G01X33815Y47906D01*
G01X33823Y47894D01*
G01X33830Y47883D01*
G01X33839Y47872D01*
G01X33847Y47861D01*
G01X33856Y47850D01*
G01X33865Y47840D01*
G01X33875Y47830D01*
G01X34383Y47322D01*
G01X34389Y47316D01*
G01X34394Y47311D01*
G01X34396Y47310D01*
G01X34398Y47308D01*
G01X34403Y47303D01*
G01X34409Y47298D01*
G01X34411Y47296D01*
G01X34413Y47295D01*
G01X34419Y47290D01*
G01X34425Y47285D01*
G01X34427Y47284D01*
G01X34429Y47282D01*
G01X34436Y47278D01*
G01X34442Y47273D01*
G01X34444Y47272D01*
G01X34446Y47271D01*
G01X34452Y47267D01*
G01X34459Y47262D01*
G01X34461Y47261D01*
G01X34463Y47260D01*
G01X34469Y47256D01*
G01X34476Y47252D01*
G01X34479Y47251D01*
G01X34481Y47250D01*
G01X34487Y47247D01*
G01X34494Y47243D01*
G01X34497Y47242D01*
G01X34499Y47241D01*
G01X34505Y47238D01*
G01X34513Y47235D01*
G01X34515Y47234D01*
G01X34517Y47233D01*
G01X34524Y47230D01*
G01X34532Y47227D01*
G01X34534Y47227D01*
G01X34536Y47226D01*
G01X34544Y47223D01*
G01X34551Y47221D01*
G01X34553Y47220D01*
G01X34556Y47219D01*
G01X34563Y47217D01*
G01X34570Y47215D01*
G01X34573Y47215D01*
G01X34575Y47214D01*
G01X34582Y47213D01*
G01X34590Y47211D01*
G01X34593Y47210D01*
G01X34595Y47210D01*
G01X34603Y47209D01*
G01X34610Y47207D01*
G01X34612Y47207D01*
G01X34615Y47207D01*
G01X34623Y47206D01*
G01X34630Y47205D01*
G01X34632Y47205D01*
G01X34635Y47204D01*
G01X34643Y47204D01*
G01X34650Y47203D01*
G01X34653Y47203D01*
G01X34655Y47203D01*
G01X34663Y47203D01*
G01X34671Y47203D01*
G01X35433Y47203D01*
G01X35446Y47203D01*
G01X35460Y47204D01*
G01X35474Y47205D01*
G01X35488Y47207D01*
G01X35502Y47209D01*
G01X35515Y47211D01*
G01X35529Y47214D01*
G01X35542Y47218D01*
G01X35555Y47222D01*
G01X35569Y47226D01*
G01X35582Y47231D01*
G01X35594Y47237D01*
G01X35607Y47242D01*
G01X35619Y47248D01*
G01X35632Y47255D01*
G01X35644Y47262D01*
G01X35655Y47269D01*
G01X35667Y47277D01*
G01X35678Y47285D01*
G01X35689Y47294D01*
G01X35700Y47303D01*
G01X35710Y47312D01*
G01X35720Y47322D01*
G01X35919Y47521D01*
G01X35905Y47495D01*
G01X35866Y47402D01*
G01X35836Y47306D01*
G01X35816Y47208D01*
G01X35806Y47108D01*
G01X35806Y47008D01*
G01X35816Y46908D01*
G01X35836Y46810D01*
G01X35866Y46714D01*
G01X35905Y46621D01*
G01X35953Y46533D01*
G01X36009Y46450D01*
G01X36074Y46373D01*
G01X36146Y46303D01*
G01X36224Y46241D01*
G01X36308Y46186D01*
G01X36398Y46141D01*
G01X36491Y46104D01*
G01X36588Y46077D01*
G01X36687Y46059D01*
G01X36787Y46052D01*
G01X36887Y46054D01*
G01X36986Y46067D01*
G01X37084Y46089D01*
G01X37179Y46121D01*
G01X37271Y46162D01*
G01X37358Y46213D01*
G01X37439Y46271D01*
G01X37515Y46338D01*
G01X37583Y46411D01*
G01X37643Y46491D01*
G01X37696Y46577D01*
G01X37739Y46667D01*
G01X37774Y46761D01*
G01X37798Y46859D01*
G01X37813Y46958D01*
G01X37818Y47058D01*
G01X37813Y47158D01*
G01X37798Y47258D01*
G01X37774Y47355D01*
G01X37739Y47449D01*
G01X37696Y47539D01*
G01X37643Y47625D01*
G01X37583Y47705D01*
G01X37515Y47779D01*
G01X37439Y47845D01*
G01X37358Y47904D01*
G01X37271Y47954D01*
G01X37179Y47995D01*
G01X37084Y48027D01*
G01X36986Y48049D01*
G01X36887Y48062D01*
G01X36787Y48064D01*
G01X36687Y48057D01*
G01X36588Y48039D01*
G01X36491Y48012D01*
G01X36398Y47976D01*
G01X36348Y47950D01*
G01X36998Y48600D01*
G01X41233Y48600D01*
G01X41777Y48056D01*
G01X41728Y48062D01*
G01X41628Y48064D01*
G01X41528Y48057D01*
G01X41429Y48039D01*
G01X41332Y48012D01*
G01X41239Y47976D01*
G01X41150Y47930D01*
G01X41065Y47875D01*
G01X40987Y47813D01*
G01X40915Y47743D01*
G01X40851Y47666D01*
G01X40794Y47583D01*
G01X40746Y47495D01*
G01X40707Y47402D01*
G01X40678Y47306D01*
G01X40658Y47208D01*
G01X40648Y47108D01*
G01X40648Y47008D01*
G01X40658Y46908D01*
G01X40678Y46810D01*
G01X40707Y46714D01*
G01X40746Y46621D01*
G01X40794Y46533D01*
G01X40851Y46450D01*
G01X40915Y46373D01*
G01X40987Y46303D01*
G01X41065Y46241D01*
G01X41150Y46186D01*
G01X41239Y46141D01*
G01X41332Y46104D01*
G01X41429Y46077D01*
G01X41528Y46059D01*
G01X41628Y46052D01*
G01X41728Y46054D01*
G01X41828Y46067D01*
G01X41926Y46089D01*
G01X42021Y46121D01*
G01X42112Y46162D01*
G01X42199Y46213D01*
G01X42281Y46271D01*
G01X42356Y46338D01*
G01X42424Y46411D01*
G01X42485Y46491D01*
G01X42537Y46577D01*
G01X42580Y46667D01*
G01X42615Y46761D01*
G01X42640Y46859D01*
G01X42655Y46958D01*
G01X42660Y47058D01*
G01X42655Y47158D01*
G01X42640Y47258D01*
G01X42615Y47355D01*
G01X42580Y47449D01*
G01X42537Y47539D01*
G01X42485Y47625D01*
G01X42424Y47705D01*
G01X42419Y47711D01*
G01X42971Y47711D01*
G01X42967Y47705D01*
G01X42959Y47693D01*
G01X42952Y47681D01*
G01X42946Y47669D01*
G01X42939Y47657D01*
G01X42934Y47644D01*
G01X42928Y47631D01*
G01X42924Y47618D01*
G01X42919Y47605D01*
G01X42915Y47592D01*
G01X42912Y47578D01*
G01X42909Y47565D01*
G01X42906Y47551D01*
G01X42904Y47538D01*
G01X42902Y47524D01*
G01X42901Y47510D01*
G01X42900Y47496D01*
G01X42900Y47482D01*
G01X42900Y43351D01*
G01X42898Y43353D01*
G01X42852Y43386D01*
G01X42803Y43414D01*
G01X42751Y43438D01*
G01X42698Y43456D01*
G01X42643Y43468D01*
G01X42587Y43475D01*
G01X42551Y43476D01*
G01X42547Y43479D01*
G01X42536Y43488D01*
G01X42525Y43496D01*
G01X42513Y43504D01*
G01X42502Y43512D01*
G01X42490Y43519D01*
G01X42477Y43525D01*
G01X42465Y43531D01*
G01X42452Y43537D01*
G01X42440Y43542D01*
G01X42427Y43547D01*
G01X42413Y43552D01*
G01X42400Y43556D01*
G01X42387Y43559D01*
G01X42373Y43562D01*
G01X42360Y43565D01*
G01X42346Y43567D01*
G01X42332Y43569D01*
G01X42318Y43570D01*
G01X42304Y43570D01*
G01X42291Y43571D01*
G01X33528Y43571D01*
G01X33514Y43570D01*
G01X33500Y43570D01*
G01X33486Y43569D01*
G01X33472Y43567D01*
G01X33458Y43565D01*
G01X33445Y43562D01*
G01X33431Y43559D01*
G01X33418Y43556D01*
G01X33405Y43552D01*
G01X33391Y43547D01*
G01X33378Y43542D01*
G01X33366Y43537D01*
G01X33353Y43531D01*
G01X33341Y43525D01*
G01X33328Y43519D01*
G01X33316Y43512D01*
G01X33305Y43504D01*
G01X33293Y43496D01*
G01X33282Y43488D01*
G01X33271Y43479D01*
G01X33260Y43471D01*
G01X33250Y43461D01*
G01X33240Y43452D01*
G01X33099Y43310D01*
G01X33097Y43310D01*
G01X33042Y43295D01*
G01X32990Y43274D01*
G01X32939Y43248D01*
G01X32892Y43218D01*
G01X32848Y43183D01*
G01X32807Y43143D01*
G01X32771Y43100D01*
G01X32739Y43053D01*
G01X32712Y43004D01*
G01X32690Y42952D01*
G01X32674Y42898D01*
G01X32663Y42842D01*
G01X32657Y42786D01*
G01X32657Y42730D01*
G01X32663Y42673D01*
G01X32674Y42618D01*
G01X32690Y42564D01*
G01X32712Y42512D01*
G01X32739Y42463D01*
G01X32771Y42416D01*
G01X32807Y42373D01*
G01X32848Y42333D01*
G01X32892Y42298D01*
G01X32939Y42267D01*
G01X32990Y42242D01*
G01X33042Y42221D01*
G01X33097Y42206D01*
G01X33152Y42196D01*
G01X33209Y42192D01*
G01X33265Y42193D01*
G01X33321Y42200D01*
G01X33376Y42213D01*
G01X33430Y42231D01*
G01X33481Y42254D01*
G01X33530Y42282D01*
G01X33576Y42315D01*
G01X33618Y42352D01*
G01X33657Y42394D01*
G01X33691Y42439D01*
G01X33720Y42487D01*
G01X33745Y42538D01*
G01X33764Y42591D01*
G01X33778Y42646D01*
G01X33786Y42701D01*
G01X33789Y42758D01*
G01X41999Y42758D01*
G01X42012Y42717D01*
G01X42034Y42664D01*
G01X42061Y42615D01*
G01X42093Y42568D01*
G01X42129Y42525D01*
G01X42170Y42486D01*
G01X42214Y42450D01*
G01X42261Y42420D01*
G01X42312Y42394D01*
G01X42364Y42373D01*
G01X42418Y42358D01*
G01X42474Y42348D01*
G01X42530Y42344D01*
G01X42587Y42345D01*
G01X42643Y42352D01*
G01X42698Y42365D01*
G01X42751Y42383D01*
G01X42803Y42406D01*
G01X42852Y42434D01*
G01X42898Y42467D01*
G01X42900Y42470D01*
G01X42900Y40920D01*
G01X42663Y40682D01*
G01X42657Y40683D01*
G01X42601Y40678D01*
G01X42545Y40668D01*
G01X42491Y40653D01*
G01X42439Y40633D01*
G01X42388Y40607D01*
G01X42341Y40576D01*
G01X42297Y40541D01*
G01X42256Y40502D01*
G01X42220Y40458D01*
G01X42188Y40412D01*
G01X42161Y40362D01*
G01X42139Y40310D01*
G01X42123Y40256D01*
G01X42111Y40201D01*
G01X42106Y40145D01*
G01X42106Y40088D01*
G01X42111Y40032D01*
G01X42123Y39976D01*
G01X42139Y39923D01*
G01X42161Y39870D01*
G01X42188Y39821D01*
G01X42220Y39774D01*
G01X42256Y39731D01*
G01X42297Y39692D01*
G01X42341Y39656D01*
G01X42388Y39626D01*
G01X42439Y39600D01*
G01X42491Y39579D01*
G01X42545Y39564D01*
G01X42601Y39554D01*
G37*
G36*
G01X27869Y26981D02*
G01X27925Y26977D01*
G01X27982Y26978D01*
G01X28038Y26985D01*
G01X28093Y26998D01*
G01X28146Y27016D01*
G01X28198Y27039D01*
G01X28235Y27061D01*
G01X29845Y27061D01*
G01X29859Y27061D01*
G01X29874Y27062D01*
G01X29888Y27063D01*
G01X29903Y27064D01*
G01X29917Y27066D01*
G01X29931Y27069D01*
G01X29946Y27071D01*
G01X29960Y27075D01*
G01X29974Y27078D01*
G01X29988Y27083D01*
G01X30002Y27087D01*
G01X30016Y27092D01*
G01X30029Y27097D01*
G01X30043Y27103D01*
G01X30056Y27109D01*
G01X30069Y27116D01*
G01X30082Y27123D01*
G01X30094Y27130D01*
G01X30107Y27138D01*
G01X30119Y27146D01*
G01X30131Y27155D01*
G01X30142Y27163D01*
G01X30153Y27173D01*
G01X30165Y27182D01*
G01X30175Y27192D01*
G01X30186Y27202D01*
G01X30440Y27456D01*
G01X30450Y27466D01*
G01X30460Y27477D01*
G01X30469Y27488D01*
G01X30478Y27500D01*
G01X30487Y27511D01*
G01X30496Y27523D01*
G01X30504Y27535D01*
G01X30512Y27548D01*
G01X30519Y27560D01*
G01X30526Y27573D01*
G01X30532Y27586D01*
G01X30539Y27599D01*
G01X30544Y27613D01*
G01X30550Y27626D01*
G01X30555Y27640D01*
G01X30559Y27654D01*
G01X30563Y27668D01*
G01X30567Y27682D01*
G01X30570Y27696D01*
G01X30573Y27710D01*
G01X30576Y27725D01*
G01X30578Y27739D01*
G01X30579Y27754D01*
G01X30580Y27768D01*
G01X30581Y27783D01*
G01X30581Y27797D01*
G01X30581Y28613D01*
G01X30629Y28661D01*
G01X32689Y28661D01*
G01X32704Y28661D01*
G01X32718Y28662D01*
G01X32733Y28663D01*
G01X32747Y28664D01*
G01X32762Y28666D01*
G01X32776Y28669D01*
G01X32791Y28672D01*
G01X32805Y28675D01*
G01X32819Y28679D01*
G01X32833Y28683D01*
G01X32847Y28687D01*
G01X32860Y28692D01*
G01X32874Y28698D01*
G01X32887Y28703D01*
G01X32901Y28710D01*
G01X32914Y28716D01*
G01X32926Y28723D01*
G01X32939Y28730D01*
G01X32951Y28738D01*
G01X32963Y28746D01*
G01X32975Y28755D01*
G01X32987Y28764D01*
G01X32998Y28773D01*
G01X33009Y28782D01*
G01X33020Y28792D01*
G01X33031Y28802D01*
G01X33076Y28847D01*
G01X33097Y28852D01*
G01X33150Y28870D01*
G01X33202Y28893D01*
G01X33251Y28922D01*
G01X33296Y28955D01*
G01X33339Y28992D01*
G01X33377Y29033D01*
G01X33411Y29078D01*
G01X33441Y29127D01*
G01X33465Y29177D01*
G01X33485Y29231D01*
G01X33498Y29285D01*
G01X33507Y29341D01*
G01X33510Y29397D01*
G01X33507Y29454D01*
G01X33498Y29510D01*
G01X33485Y29564D01*
G01X33465Y29617D01*
G01X33441Y29668D01*
G01X33411Y29717D01*
G01X33377Y29762D01*
G01X33339Y29803D01*
G01X33296Y29840D01*
G01X33251Y29873D01*
G01X33202Y29901D01*
G01X33150Y29925D01*
G01X33097Y29943D01*
G01X33042Y29955D01*
G01X32986Y29962D01*
G01X32929Y29964D01*
G01X32873Y29959D01*
G01X32817Y29950D01*
G01X32763Y29934D01*
G01X32710Y29914D01*
G01X32660Y29888D01*
G01X32613Y29857D01*
G01X32568Y29822D01*
G01X32528Y29783D01*
G01X32492Y29739D01*
G01X32460Y29693D01*
G01X32433Y29643D01*
G01X32426Y29626D01*
G01X30429Y29626D01*
G01X30414Y29626D01*
G01X30400Y29625D01*
G01X30385Y29624D01*
G01X30371Y29623D01*
G01X30356Y29621D01*
G01X30342Y29618D01*
G01X30327Y29615D01*
G01X30313Y29612D01*
G01X30299Y29608D01*
G01X30285Y29604D01*
G01X30271Y29600D01*
G01X30258Y29595D01*
G01X30244Y29589D01*
G01X30231Y29584D01*
G01X30217Y29577D01*
G01X30204Y29571D01*
G01X30192Y29564D01*
G01X30179Y29556D01*
G01X30167Y29549D01*
G01X30155Y29541D01*
G01X30143Y29532D01*
G01X30131Y29523D01*
G01X30120Y29514D01*
G01X30109Y29505D01*
G01X30098Y29495D01*
G01X30087Y29485D01*
G01X29757Y29155D01*
G01X29747Y29144D01*
G01X29737Y29133D01*
G01X29728Y29122D01*
G01X29719Y29111D01*
G01X29710Y29099D01*
G01X29701Y29087D01*
G01X29693Y29075D01*
G01X29685Y29063D01*
G01X29678Y29050D01*
G01X29671Y29038D01*
G01X29665Y29025D01*
G01X29658Y29011D01*
G01X29653Y28998D01*
G01X29647Y28984D01*
G01X29642Y28971D01*
G01X29638Y28957D01*
G01X29634Y28943D01*
G01X29630Y28929D01*
G01X29627Y28915D01*
G01X29624Y28900D01*
G01X29621Y28886D01*
G01X29619Y28871D01*
G01X29618Y28857D01*
G01X29617Y28842D01*
G01X29616Y28828D01*
G01X29616Y28813D01*
G01X29616Y28026D01*
G01X28235Y28026D01*
G01X28198Y28047D01*
G01X28146Y28071D01*
G01X28093Y28089D01*
G01X28038Y28101D01*
G01X27982Y28108D01*
G01X27925Y28110D01*
G01X27869Y28105D01*
G01X27813Y28095D01*
G01X27759Y28080D01*
G01X27707Y28060D01*
G01X27656Y28034D01*
G01X27609Y28003D01*
G01X27565Y27968D01*
G01X27524Y27929D01*
G01X27488Y27885D01*
G01X27456Y27839D01*
G01X27429Y27789D01*
G01X27407Y27737D01*
G01X27391Y27683D01*
G01X27379Y27628D01*
G01X27374Y27572D01*
G01X27374Y27515D01*
G01X27379Y27459D01*
G01X27391Y27403D01*
G01X27407Y27350D01*
G01X27429Y27297D01*
G01X27456Y27248D01*
G01X27488Y27201D01*
G01X27524Y27158D01*
G01X27565Y27119D01*
G01X27609Y27083D01*
G01X27656Y27053D01*
G01X27707Y27027D01*
G01X27759Y27006D01*
G01X27813Y26991D01*
G01X27869Y26981D01*
G37*
G36*
G01X49527Y38572D02*
G01X49630Y38565D01*
G01X49735Y38567D01*
G01X49838Y38580D01*
G01X49939Y38603D01*
G01X50038Y38636D01*
G01X50133Y38679D01*
G01X50223Y38731D01*
G01X50307Y38792D01*
G01X50385Y38861D01*
G01X50456Y38937D01*
G01X50519Y39020D01*
G01X50573Y39109D01*
G01X50618Y39203D01*
G01X50654Y39301D01*
G01X50680Y39401D01*
G01X50695Y39504D01*
G01X50700Y39608D01*
G01X50695Y39712D01*
G01X50680Y39815D01*
G01X50654Y39916D01*
G01X50618Y40014D01*
G01X50573Y40108D01*
G01X50519Y40196D01*
G01X50456Y40279D01*
G01X50385Y40356D01*
G01X50307Y40424D01*
G01X50223Y40485D01*
G01X50133Y40537D01*
G01X50038Y40580D01*
G01X49939Y40613D01*
G01X49838Y40636D01*
G01X49735Y40649D01*
G01X49630Y40652D01*
G01X49527Y40644D01*
G01X49424Y40626D01*
G01X49324Y40598D01*
G01X49227Y40560D01*
G01X49135Y40512D01*
G01X49047Y40456D01*
G01X48966Y40391D01*
G01X48891Y40318D01*
G01X48824Y40239D01*
G01X48766Y40153D01*
G01X48716Y40061D01*
G01X48676Y39965D01*
G01X48645Y39866D01*
G01X48624Y39764D01*
G01X48614Y39660D01*
G01X48614Y39556D01*
G01X48624Y39453D01*
G01X48645Y39351D01*
G01X48676Y39251D01*
G01X48716Y39155D01*
G01X48766Y39064D01*
G01X48824Y38978D01*
G01X48891Y38898D01*
G01X48966Y38826D01*
G01X49047Y38761D01*
G01X49135Y38704D01*
G01X49227Y38657D01*
G01X49324Y38619D01*
G01X49424Y38590D01*
G01X49527Y38572D01*
G37*
G36*
G01X48615Y37602D02*
G01X48615Y37208D01*
G01X49263Y37208D01*
G01X49263Y37856D01*
G01X48869Y37856D01*
G01X48859Y37855D01*
G01X48848Y37855D01*
G01X48838Y37854D01*
G01X48827Y37852D01*
G01X48817Y37850D01*
G01X48807Y37848D01*
G01X48797Y37845D01*
G01X48787Y37842D01*
G01X48777Y37838D01*
G01X48767Y37834D01*
G01X48758Y37830D01*
G01X48748Y37825D01*
G01X48739Y37820D01*
G01X48730Y37814D01*
G01X48722Y37808D01*
G01X48713Y37802D01*
G01X48705Y37795D01*
G01X48697Y37789D01*
G01X48689Y37781D01*
G01X48682Y37774D01*
G01X48675Y37766D01*
G01X48669Y37758D01*
G01X48662Y37749D01*
G01X48656Y37741D01*
G01X48651Y37732D01*
G01X48646Y37723D01*
G01X48641Y37713D01*
G01X48636Y37704D01*
G01X48632Y37694D01*
G01X48629Y37684D01*
G01X48626Y37674D01*
G01X48623Y37664D01*
G01X48621Y37654D01*
G01X48619Y37643D01*
G01X48617Y37633D01*
G01X48616Y37623D01*
G01X48615Y37612D01*
G01X48615Y37602D01*
G37*
G36*
G01X21183Y27696D02*
G01X21183Y27302D01*
G01X21831Y27302D01*
G01X21831Y27950D01*
G01X21437Y27950D01*
G01X21427Y27949D01*
G01X21416Y27949D01*
G01X21406Y27948D01*
G01X21395Y27946D01*
G01X21385Y27944D01*
G01X21375Y27942D01*
G01X21365Y27939D01*
G01X21355Y27936D01*
G01X21345Y27932D01*
G01X21335Y27928D01*
G01X21326Y27924D01*
G01X21316Y27919D01*
G01X21307Y27914D01*
G01X21298Y27908D01*
G01X21290Y27902D01*
G01X21281Y27896D01*
G01X21273Y27889D01*
G01X21265Y27883D01*
G01X21257Y27875D01*
G01X21250Y27868D01*
G01X21243Y27860D01*
G01X21237Y27852D01*
G01X21230Y27843D01*
G01X21224Y27835D01*
G01X21219Y27826D01*
G01X21214Y27817D01*
G01X21209Y27807D01*
G01X21204Y27798D01*
G01X21200Y27788D01*
G01X21197Y27778D01*
G01X21194Y27768D01*
G01X21191Y27758D01*
G01X21189Y27748D01*
G01X21187Y27737D01*
G01X21185Y27727D01*
G01X21184Y27717D01*
G01X21183Y27706D01*
G01X21183Y27696D01*
G37*
G36*
G01X50050Y37856D02*
G01X50050Y37208D01*
G01X50698Y37208D01*
G01X50698Y37602D01*
G01X50698Y37612D01*
G01X50697Y37623D01*
G01X50696Y37633D01*
G01X50694Y37643D01*
G01X50692Y37654D01*
G01X50690Y37664D01*
G01X50687Y37674D01*
G01X50684Y37684D01*
G01X50681Y37694D01*
G01X50677Y37704D01*
G01X50672Y37713D01*
G01X50667Y37723D01*
G01X50662Y37732D01*
G01X50657Y37741D01*
G01X50651Y37749D01*
G01X50644Y37758D01*
G01X50638Y37766D01*
G01X50631Y37774D01*
G01X50624Y37781D01*
G01X50616Y37789D01*
G01X50608Y37795D01*
G01X50600Y37802D01*
G01X50591Y37808D01*
G01X50583Y37814D01*
G01X50574Y37820D01*
G01X50565Y37825D01*
G01X50555Y37830D01*
G01X50546Y37834D01*
G01X50536Y37838D01*
G01X50526Y37842D01*
G01X50516Y37845D01*
G01X50506Y37848D01*
G01X50496Y37850D01*
G01X50486Y37852D01*
G01X50475Y37854D01*
G01X50465Y37855D01*
G01X50454Y37855D01*
G01X50444Y37856D01*
G01X50050Y37856D01*
G37*
G36*
G01X24587Y36065D02*
G01X24638Y36061D01*
G01X24688Y36063D01*
G01X24738Y36069D01*
G01X24787Y36080D01*
G01X24835Y36096D01*
G01X24881Y36117D01*
G01X24925Y36142D01*
G01X24966Y36172D01*
G01X25004Y36205D01*
G01X25038Y36242D01*
G01X25069Y36282D01*
G01X25095Y36326D01*
G01X25117Y36371D01*
G01X25134Y36419D01*
G01X25147Y36467D01*
G01X25154Y36517D01*
G01X25157Y36568D01*
G01X25154Y36618D01*
G01X25153Y36626D01*
G01X25191Y36606D01*
G01X25238Y36588D01*
G01X25287Y36574D01*
G01X25336Y36565D01*
G01X25387Y36562D01*
G01X25437Y36563D01*
G01X25487Y36569D01*
G01X25537Y36580D01*
G01X25585Y36597D01*
G01X25631Y36617D01*
G01X25646Y36626D01*
G01X25643Y36593D01*
G01X25643Y36543D01*
G01X25648Y36492D01*
G01X25658Y36443D01*
G01X25673Y36395D01*
G01X25692Y36348D01*
G01X25716Y36304D01*
G01X25745Y36262D01*
G01X25777Y36223D01*
G01X25813Y36188D01*
G01X25853Y36156D01*
G01X25895Y36129D01*
G01X25940Y36106D01*
G01X25987Y36088D01*
G01X26036Y36074D01*
G01X26086Y36065D01*
G01X26136Y36061D01*
G01X26187Y36063D01*
G01X26237Y36069D01*
G01X26286Y36080D01*
G01X26334Y36096D01*
G01X26380Y36117D01*
G01X26424Y36142D01*
G01X26465Y36172D01*
G01X26503Y36205D01*
G01X26537Y36242D01*
G01X26567Y36282D01*
G01X26594Y36326D01*
G01X26616Y36371D01*
G01X26633Y36419D01*
G01X26645Y36467D01*
G01X26653Y36517D01*
G01X26656Y36568D01*
G01X26653Y36618D01*
G01X26645Y36668D01*
G01X26633Y36717D01*
G01X26616Y36765D01*
G01X26594Y36810D01*
G01X26567Y36853D01*
G01X26537Y36894D01*
G01X26503Y36931D01*
G01X26465Y36964D01*
G01X26424Y36994D01*
G01X26380Y37019D01*
G01X26334Y37040D01*
G01X26286Y37056D01*
G01X26237Y37067D01*
G01X26226Y37068D01*
G01X26237Y37070D01*
G01X26286Y37081D01*
G01X26334Y37097D01*
G01X26380Y37118D01*
G01X26424Y37143D01*
G01X26465Y37172D01*
G01X26503Y37206D01*
G01X26537Y37243D01*
G01X26567Y37283D01*
G01X26594Y37326D01*
G01X26616Y37372D01*
G01X26633Y37419D01*
G01X26645Y37468D01*
G01X26653Y37518D01*
G01X26656Y37569D01*
G01X26653Y37619D01*
G01X26645Y37669D01*
G01X26633Y37718D01*
G01X26616Y37765D01*
G01X26594Y37811D01*
G01X26567Y37854D01*
G01X26537Y37894D01*
G01X26503Y37931D01*
G01X26465Y37965D01*
G01X26424Y37994D01*
G01X26380Y38020D01*
G01X26334Y38040D01*
G01X26286Y38056D01*
G01X26237Y38068D01*
G01X26187Y38074D01*
G01X26136Y38075D01*
G01X26086Y38071D01*
G01X26036Y38063D01*
G01X25987Y38049D01*
G01X25940Y38031D01*
G01X25895Y38007D01*
G01X25853Y37980D01*
G01X25813Y37949D01*
G01X25777Y37913D01*
G01X25745Y37875D01*
G01X25716Y37833D01*
G01X25692Y37789D01*
G01X25673Y37742D01*
G01X25658Y37694D01*
G01X25648Y37644D01*
G01X25643Y37594D01*
G01X25643Y37543D01*
G01X25646Y37510D01*
G01X25631Y37519D01*
G01X25585Y37540D01*
G01X25537Y37556D01*
G01X25487Y37567D01*
G01X25437Y37574D01*
G01X25387Y37575D01*
G01X25336Y37571D01*
G01X25287Y37562D01*
G01X25238Y37549D01*
G01X25191Y37530D01*
G01X25153Y37511D01*
G01X25154Y37518D01*
G01X25157Y37569D01*
G01X25154Y37619D01*
G01X25147Y37669D01*
G01X25134Y37718D01*
G01X25117Y37765D01*
G01X25095Y37811D01*
G01X25069Y37854D01*
G01X25038Y37894D01*
G01X25004Y37931D01*
G01X24966Y37965D01*
G01X24925Y37994D01*
G01X24881Y38020D01*
G01X24835Y38040D01*
G01X24787Y38056D01*
G01X24738Y38068D01*
G01X24688Y38074D01*
G01X24638Y38075D01*
G01X24587Y38071D01*
G01X24537Y38063D01*
G01X24489Y38049D01*
G01X24442Y38031D01*
G01X24397Y38007D01*
G01X24354Y37980D01*
G01X24315Y37949D01*
G01X24279Y37913D01*
G01X24246Y37875D01*
G01X24218Y37833D01*
G01X24194Y37789D01*
G01X24174Y37742D01*
G01X24159Y37694D01*
G01X24149Y37644D01*
G01X24144Y37594D01*
G01X24144Y37543D01*
G01X24149Y37493D01*
G01X24159Y37444D01*
G01X24174Y37395D01*
G01X24194Y37349D01*
G01X24218Y37304D01*
G01X24246Y37263D01*
G01X24279Y37224D01*
G01X24315Y37189D01*
G01X24354Y37157D01*
G01X24397Y37130D01*
G01X24442Y37107D01*
G01X24489Y37088D01*
G01X24537Y37075D01*
G01X24573Y37068D01*
G01X24537Y37062D01*
G01X24489Y37048D01*
G01X24442Y37030D01*
G01X24397Y37007D01*
G01X24354Y36979D01*
G01X24315Y36948D01*
G01X24279Y36913D01*
G01X24246Y36874D01*
G01X24218Y36832D01*
G01X24194Y36788D01*
G01X24174Y36741D01*
G01X24159Y36693D01*
G01X24149Y36643D01*
G01X24144Y36593D01*
G01X24144Y36543D01*
G01X24149Y36492D01*
G01X24159Y36443D01*
G01X24174Y36395D01*
G01X24194Y36348D01*
G01X24218Y36304D01*
G01X24246Y36262D01*
G01X24279Y36223D01*
G01X24315Y36188D01*
G01X24354Y36156D01*
G01X24397Y36129D01*
G01X24442Y36106D01*
G01X24489Y36088D01*
G01X24537Y36074D01*
G01X24587Y36065D01*
G37*
G36*
G01X48859Y35773D02*
G01X48869Y35773D01*
G01X49263Y35773D01*
G01X49263Y36421D01*
G01X48615Y36421D01*
G01X48615Y36027D01*
G01X48615Y36016D01*
G01X48616Y36006D01*
G01X48617Y35995D01*
G01X48619Y35985D01*
G01X48621Y35975D01*
G01X48623Y35965D01*
G01X48626Y35954D01*
G01X48629Y35944D01*
G01X48632Y35935D01*
G01X48636Y35925D01*
G01X48641Y35915D01*
G01X48646Y35906D01*
G01X48651Y35897D01*
G01X48656Y35888D01*
G01X48662Y35879D01*
G01X48669Y35871D01*
G01X48675Y35863D01*
G01X48682Y35855D01*
G01X48689Y35847D01*
G01X48697Y35840D01*
G01X48705Y35833D01*
G01X48713Y35826D01*
G01X48722Y35820D01*
G01X48730Y35814D01*
G01X48739Y35809D01*
G01X48748Y35803D01*
G01X48758Y35799D01*
G01X48767Y35794D01*
G01X48777Y35790D01*
G01X48787Y35787D01*
G01X48797Y35783D01*
G01X48807Y35781D01*
G01X48817Y35778D01*
G01X48827Y35776D01*
G01X48838Y35775D01*
G01X48848Y35774D01*
G01X48859Y35773D01*
G37*
G36*
G01X50050Y36421D02*
G01X50050Y35773D01*
G01X50444Y35773D01*
G01X50454Y35773D01*
G01X50465Y35774D01*
G01X50475Y35775D01*
G01X50486Y35776D01*
G01X50496Y35778D01*
G01X50506Y35781D01*
G01X50516Y35783D01*
G01X50526Y35787D01*
G01X50536Y35790D01*
G01X50546Y35794D01*
G01X50555Y35799D01*
G01X50565Y35803D01*
G01X50574Y35809D01*
G01X50583Y35814D01*
G01X50591Y35820D01*
G01X50600Y35826D01*
G01X50608Y35833D01*
G01X50616Y35840D01*
G01X50624Y35847D01*
G01X50631Y35855D01*
G01X50638Y35863D01*
G01X50644Y35871D01*
G01X50651Y35879D01*
G01X50657Y35888D01*
G01X50662Y35897D01*
G01X50667Y35906D01*
G01X50672Y35915D01*
G01X50677Y35925D01*
G01X50681Y35935D01*
G01X50684Y35944D01*
G01X50687Y35954D01*
G01X50690Y35965D01*
G01X50692Y35975D01*
G01X50694Y35985D01*
G01X50696Y35995D01*
G01X50697Y36006D01*
G01X50698Y36016D01*
G01X50698Y36027D01*
G01X50698Y36421D01*
G01X50050Y36421D01*
G37*
G36*
G01X49527Y33238D02*
G01X49630Y33231D01*
G01X49735Y33233D01*
G01X49838Y33246D01*
G01X49939Y33269D01*
G01X50038Y33302D01*
G01X50133Y33345D01*
G01X50223Y33397D01*
G01X50307Y33458D01*
G01X50385Y33527D01*
G01X50456Y33603D01*
G01X50519Y33686D01*
G01X50573Y33775D01*
G01X50618Y33869D01*
G01X50654Y33967D01*
G01X50680Y34067D01*
G01X50695Y34170D01*
G01X50700Y34274D01*
G01X50695Y34378D01*
G01X50680Y34481D01*
G01X50654Y34582D01*
G01X50618Y34680D01*
G01X50573Y34774D01*
G01X50519Y34862D01*
G01X50456Y34945D01*
G01X50385Y35022D01*
G01X50307Y35090D01*
G01X50223Y35151D01*
G01X50133Y35203D01*
G01X50038Y35246D01*
G01X49939Y35279D01*
G01X49838Y35302D01*
G01X49735Y35315D01*
G01X49630Y35318D01*
G01X49527Y35310D01*
G01X49424Y35292D01*
G01X49324Y35264D01*
G01X49227Y35226D01*
G01X49135Y35178D01*
G01X49047Y35122D01*
G01X48966Y35057D01*
G01X48891Y34984D01*
G01X48824Y34905D01*
G01X48766Y34819D01*
G01X48716Y34727D01*
G01X48676Y34631D01*
G01X48645Y34532D01*
G01X48624Y34430D01*
G01X48614Y34326D01*
G01X48614Y34222D01*
G01X48624Y34119D01*
G01X48645Y34017D01*
G01X48676Y33917D01*
G01X48716Y33821D01*
G01X48766Y33730D01*
G01X48824Y33644D01*
G01X48891Y33564D01*
G01X48966Y33492D01*
G01X49047Y33427D01*
G01X49135Y33370D01*
G01X49227Y33323D01*
G01X49324Y33285D01*
G01X49424Y33256D01*
G01X49527Y33238D01*
G37*
G36*
G01X49527Y30698D02*
G01X49630Y30691D01*
G01X49735Y30693D01*
G01X49838Y30706D01*
G01X49939Y30729D01*
G01X50038Y30762D01*
G01X50133Y30805D01*
G01X50223Y30857D01*
G01X50307Y30918D01*
G01X50385Y30987D01*
G01X50456Y31063D01*
G01X50519Y31146D01*
G01X50573Y31235D01*
G01X50618Y31329D01*
G01X50654Y31427D01*
G01X50680Y31527D01*
G01X50695Y31630D01*
G01X50700Y31734D01*
G01X50695Y31838D01*
G01X50680Y31941D01*
G01X50654Y32042D01*
G01X50618Y32140D01*
G01X50573Y32234D01*
G01X50519Y32322D01*
G01X50456Y32405D01*
G01X50385Y32482D01*
G01X50307Y32550D01*
G01X50223Y32611D01*
G01X50133Y32663D01*
G01X50038Y32706D01*
G01X49939Y32739D01*
G01X49838Y32762D01*
G01X49735Y32775D01*
G01X49630Y32778D01*
G01X49527Y32770D01*
G01X49424Y32752D01*
G01X49324Y32724D01*
G01X49227Y32686D01*
G01X49135Y32638D01*
G01X49047Y32582D01*
G01X48966Y32517D01*
G01X48891Y32444D01*
G01X48824Y32365D01*
G01X48766Y32279D01*
G01X48716Y32187D01*
G01X48676Y32091D01*
G01X48645Y31992D01*
G01X48624Y31890D01*
G01X48614Y31786D01*
G01X48614Y31682D01*
G01X48624Y31579D01*
G01X48645Y31477D01*
G01X48676Y31377D01*
G01X48716Y31281D01*
G01X48766Y31190D01*
G01X48824Y31104D01*
G01X48891Y31024D01*
G01X48966Y30952D01*
G01X49047Y30887D01*
G01X49135Y30830D01*
G01X49227Y30783D01*
G01X49324Y30745D01*
G01X49424Y30716D01*
G01X49527Y30698D01*
G37*
G36*
G01X25964Y30156D02*
G01X26020Y30152D01*
G01X26077Y30153D01*
G01X26133Y30160D01*
G01X26188Y30173D01*
G01X26241Y30191D01*
G01X26293Y30214D01*
G01X26342Y30242D01*
G01X26368Y30261D01*
G01X30653Y30261D01*
G01X30657Y30258D01*
G01X30704Y30228D01*
G01X30755Y30202D01*
G01X30807Y30181D01*
G01X30861Y30166D01*
G01X30917Y30156D01*
G01X30973Y30152D01*
G01X31030Y30153D01*
G01X31086Y30160D01*
G01X31141Y30173D01*
G01X31194Y30191D01*
G01X31246Y30214D01*
G01X31295Y30242D01*
G01X31341Y30275D01*
G01X31383Y30313D01*
G01X31421Y30354D01*
G01X31455Y30399D01*
G01X31485Y30447D01*
G01X31509Y30498D01*
G01X31529Y30551D01*
G01X31543Y30606D01*
G01X31551Y30662D01*
G01X31554Y30718D01*
G01X31551Y30775D01*
G01X31543Y30831D01*
G01X31529Y30885D01*
G01X31509Y30938D01*
G01X31485Y30989D01*
G01X31455Y31037D01*
G01X31421Y31082D01*
G01X31383Y31124D01*
G01X31341Y31161D01*
G01X31295Y31194D01*
G01X31246Y31222D01*
G01X31194Y31246D01*
G01X31141Y31264D01*
G01X31086Y31276D01*
G01X31030Y31283D01*
G01X30973Y31285D01*
G01X30917Y31280D01*
G01X30861Y31270D01*
G01X30807Y31255D01*
G01X30755Y31235D01*
G01X30704Y31209D01*
G01X30657Y31178D01*
G01X30653Y31175D01*
G01X26368Y31175D01*
G01X26342Y31194D01*
G01X26293Y31222D01*
G01X26241Y31246D01*
G01X26188Y31264D01*
G01X26133Y31276D01*
G01X26077Y31283D01*
G01X26020Y31285D01*
G01X25964Y31280D01*
G01X25908Y31270D01*
G01X25854Y31255D01*
G01X25802Y31235D01*
G01X25751Y31209D01*
G01X25704Y31178D01*
G01X25660Y31143D01*
G01X25619Y31104D01*
G01X25583Y31060D01*
G01X25551Y31014D01*
G01X25524Y30964D01*
G01X25502Y30912D01*
G01X25486Y30858D01*
G01X25474Y30803D01*
G01X25469Y30747D01*
G01X25469Y30690D01*
G01X25474Y30634D01*
G01X25486Y30578D01*
G01X25502Y30525D01*
G01X25524Y30472D01*
G01X25551Y30423D01*
G01X25583Y30376D01*
G01X25619Y30333D01*
G01X25660Y30294D01*
G01X25704Y30258D01*
G01X25751Y30228D01*
G01X25802Y30202D01*
G01X25854Y30181D01*
G01X25908Y30166D01*
G01X25964Y30156D01*
G37*

%LPD*%
G54D14*
G01X26035Y30718D02*
G01X30988Y30718D01*
G54D12*
G01X41656Y28940D02*
G01X46228Y28940D01*
G01X46736Y28432D01*
G01X46736Y26908D01*
G01X46990Y26654D01*
G01X48641Y26654D01*
G01X48895Y26400D01*
G01X48895Y23733D01*
G01X48641Y23479D01*
G01X47371Y23479D01*
G54D13*
G01X22555Y48727D02*
G01X22555Y48727D01*
G01X21336Y49946D01*
G01X21336Y49946D02*
G01X21107Y50175D01*
G01X21107Y50810D01*
G54D12*
G01X50241Y47965D02*
G01X43789Y47965D01*
G01X43307Y47482D01*
G01X43307Y40751D01*
G01X42672Y40116D01*
G01X29928Y50073D02*
G01X26111Y50073D01*
G01X24003Y52181D01*
G01X20193Y52181D01*
G01X19050Y51038D01*
G54D13*
G01X27940Y27543D02*
G01X29845Y27543D01*
G01X30099Y27797D01*
G01X30099Y28813D01*
G01X30429Y29143D01*
G01X32689Y29143D01*
G01X32943Y29397D01*
G54D12*
G01X48006Y41386D02*
G01X48006Y34655D01*
G01X48006Y30210D01*
G01X48387Y29829D01*
G01X50038Y29829D01*
G01X50673Y29194D01*
G01X50673Y27876D01*
G01X50673Y25003D01*
G01X51435Y24241D01*
G01X51435Y23352D01*
G54D14*
G01X43688Y32115D02*
G01X43053Y31480D01*
G01X40767Y31480D01*
G01X40259Y30972D01*
G01X40259Y29956D01*
G01X39370Y29067D01*
G01X39370Y23352D01*
G01X39116Y23098D01*
G01X32004Y23098D01*
G01X31369Y22463D01*
G01X24688Y22463D01*
G01X23444Y21219D01*
G01X40284Y26426D02*
G01X42037Y28178D01*
G01X44450Y28178D01*
G01X40284Y26426D02*
G01X40284Y22997D01*
G01X39624Y22336D01*
G01X36449Y22336D01*
G54D18*
G01X16692Y17581D02*
G01X16692Y18963D01*
G01X19304Y21574D01*
G54D15*
G01X23368Y41793D02*
G01X22123Y41793D01*
G01X21082Y40751D01*
G01X21082Y31480D01*
G01X21463Y31099D01*
G01X22987Y31099D01*
G01X23622Y30464D01*
G01X23622Y25892D01*
G01X19304Y21574D01*
G54D13*
G01X46245Y30591D02*
G01X46990Y30591D01*
G01X47371Y30210D01*
G01X47371Y29397D01*
G01X47752Y29016D01*
G01X49453Y29016D01*
G01X49784Y28712D01*
G01X49784Y26908D01*
G54D12*
G01X33223Y42758D02*
G01X33223Y42859D01*
G01X33528Y43164D01*
G01X42291Y43164D01*
G01X42545Y42910D01*
G54D17*
G01X31623Y50530D02*
G01X32639Y50530D01*
G01X33528Y51419D01*
G01X53594Y51419D01*
G54D12*
G01X29928Y50073D02*
G01X30302Y50073D01*
G01X30734Y49641D01*
G01X30734Y49641D02*
G01X33782Y49641D01*
G01X33782Y49641D02*
G01X34163Y49260D01*
G01X34163Y48117D01*
G01X34671Y47609D01*
G01X45593Y48625D02*
G01X43688Y48625D01*
G01X43180Y48117D01*
G01X42291Y48117D01*
G01X42037Y48371D01*
G01X42037Y48371D02*
G01X41402Y49006D01*
G01X36830Y49006D01*
G01X35433Y47609D01*
G01X34671Y47609D01*
G01X46482Y41894D02*
G01X47498Y41894D01*
G01X47815Y41577D01*
G01X48006Y41386D01*
G54D11*
G01X45593Y42021D02*
G01X45593Y46847D01*
G54D12*
G01X45593Y42021D02*
G01X45593Y41640D01*
G01X45085Y41132D01*
G01X45085Y38973D01*
G01X44196Y38084D01*
G54D43*
G01X49657Y42148D03*
G54D44*
G01X49657Y39608D03*
G01X49657Y31734D03*
G01X49657Y34274D03*
G54D43*
G01X49657Y36814D03*
G01X22225Y26908D03*
G54D44*
G01X22225Y29448D03*
G54D45*
G01X54411Y17185D03*
G01X55316Y18089D03*
G01X16692Y17581D03*
G01X17597Y16677D03*
G01X56967Y56682D03*
G01X56062Y57586D03*
G01X15819Y57332D03*
G01X14914Y56428D03*
G54D46*
G01X23368Y41793D03*
G01X23368Y43774D03*
G54D47*
G01X41653Y47058D03*
G01X36812Y47058D03*
G54D22*
G01X25400Y37068D03*
G01X24650Y37569D03*
G01X24650Y36568D03*
G01X26149Y36568D03*
G01X26149Y37569D03*
G01X28575Y47609D03*
G01X28074Y46860D03*
G01X29075Y46860D03*
G01X29075Y48359D03*
G01X28074Y48359D03*
G54D23*
G01X30988Y30718D03*
G01X41656Y28940D03*
G01X47371Y23479D03*
G01X22555Y48727D03*
G01X21971Y47101D03*
G01X21971Y46339D03*
G01X21971Y47863D03*
G01X22733Y46339D03*
G01X23495Y46339D03*
G01X22733Y47101D03*
G01X24257Y46339D03*
G01X25019Y46339D03*
G01X50241Y47965D03*
G01X42672Y40116D03*
G01X28067Y37703D03*
G01X28067Y36941D03*
G01X33020Y39430D03*
G01X33782Y39430D03*
G01X34544Y39430D03*
G01X35306Y39430D03*
G01X36068Y39430D03*
G01X36830Y39430D03*
G01X37592Y39430D03*
G01X38354Y39430D03*
G01X33020Y38668D03*
G01X33782Y38668D03*
G01X34544Y38668D03*
G01X35306Y38668D03*
G01X36068Y38668D03*
G01X36830Y38668D03*
G01X37592Y38668D03*
G01X38354Y38668D03*
G01X33020Y37906D03*
G01X33782Y37906D03*
G01X34544Y37906D03*
G01X35306Y37906D03*
G01X36068Y37906D03*
G01X36830Y37906D03*
G01X37592Y37906D03*
G01X38354Y37906D03*
G01X33020Y37144D03*
G01X33782Y37144D03*
G01X34544Y37144D03*
G01X35306Y37144D03*
G01X36068Y37144D03*
G01X36830Y37144D03*
G01X37592Y37144D03*
G01X38354Y37144D03*
G01X33020Y36382D03*
G01X33782Y36382D03*
G01X34544Y36382D03*
G01X35306Y36382D03*
G01X36068Y36382D03*
G01X36830Y36382D03*
G01X37592Y36382D03*
G01X38354Y36382D03*
G01X33020Y35620D03*
G01X33782Y35620D03*
G01X34544Y35620D03*
G01X35306Y35620D03*
G01X36068Y35620D03*
G01X36830Y35620D03*
G01X37592Y35620D03*
G01X38354Y35620D03*
G01X33020Y34858D03*
G01X33782Y34858D03*
G01X34544Y34858D03*
G01X35306Y34858D03*
G01X36068Y34858D03*
G01X36830Y34858D03*
G01X37592Y34858D03*
G01X38354Y34858D03*
G01X33020Y34096D03*
G01X33782Y34096D03*
G01X34544Y34096D03*
G01X35306Y34096D03*
G01X36068Y34096D03*
G01X36830Y34096D03*
G01X37592Y34096D03*
G01X38354Y34096D03*
G01X34671Y46288D03*
G01X40513Y41640D03*
G01X40513Y42402D03*
G01X41275Y42402D03*
G01X19050Y51038D03*
G01X21107Y50810D03*
G01X32943Y29397D03*
G01X27940Y27543D03*
G01X23444Y21219D03*
G01X51435Y23352D03*
G01X43688Y32115D03*
G01X40284Y26426D03*
G01X44450Y28178D03*
G01X36449Y22336D03*
G01X26035Y30718D03*
G01X46245Y30591D03*
G01X49784Y26908D03*
G01X33223Y42758D03*
G01X42545Y42910D03*
G01X41275Y41640D03*
G01X41275Y43926D03*
G01X31623Y50530D03*
G01X53594Y51419D03*
G01X34696Y46974D03*
G01X45593Y48625D03*
G01X45339Y21955D03*
G01X45974Y21955D03*
G01X46609Y21955D03*
G01X46228Y32115D03*
G01X46482Y42783D03*
G01X46482Y43545D03*
G01X46482Y44307D03*
G01X24638Y26781D03*
G01X25273Y26781D03*
G01X25908Y26781D03*
G01X53340Y49514D03*
G01X53848Y50022D03*
G01X54356Y50530D03*
G01X28575Y43037D03*
G01X34010Y29601D03*
G01X38506Y26730D03*
G01X38608Y25638D03*
G01X38481Y27924D03*
G01X48209Y28051D03*
G01X48895Y28051D03*
G01X32435Y42097D03*
G01X33350Y24241D03*
G01X34950Y24241D03*
G01X46482Y41894D03*
G01X45593Y46847D03*
G01X44183Y38097D03*
G01X15748Y52689D03*
G01X16256Y52181D03*
G01X19481Y53223D03*
G01X50749Y21269D03*
G01X21285Y21752D03*
G01X29337Y21447D03*
G01X25527Y21447D03*
G54D48*
G01X35623Y49308D02*
G01X35623Y50208D01*
G01X42862Y49308D02*
G01X42862Y50208D01*
M00*
M02*
