;PTH Drill file created by EasyEDA 
M48
INCH,LZ
;Holesize 1 = 0.012 INCH
T01C0.012
;Holesize 2 = 0.028 INCH
T02C0.028
;Holesize 3 = 0.035 INCH
T03C0.035
%
G05
G90
T01
X008100Y001192
X003050Y005542
X001800Y008642
X003200Y008442
X002900Y007992
X002550Y006742
X002400Y005592
X002390Y004762
X007750Y006492
X009250Y007842
X002300Y002242
X002750Y001192
X002709Y000412
X002050Y000392
X001500Y003092
X001140Y003732
X005400Y003092
X003950Y003642
X003900Y006792
X004069Y007892
X009500Y008742
X007250Y006992
X007869Y005942
X007880Y005162
X007880Y005552
X007880Y004762
X007513Y003242
X002500Y004292
X001730Y004482
X001080Y001842
X000450Y006492
X004830Y005892
X005117Y005892
X005417Y005892
X005705Y005892
X005740Y009002
X006309Y009002
X003350Y002992
X003769Y009062
X001863Y009142
X005750Y003092
X008550Y004742
X007250Y003742
X005640Y002682
X003830Y003962
X004830Y005592
X005117Y005592
X005417Y005592
X005705Y005592
X004830Y005292
X005117Y005292
X005417Y005292
X005705Y005292
X004830Y004992
X005117Y004992
X005417Y004992
X005705Y004992
X000459Y005682
T02
X006225Y000688G85X006225Y001003
X003375Y000688G85X003375Y001003
T03
X003851Y001909
X005757Y001909
M30
