G04 ---------------------------- Layer name :BOTTOM SILK LAYER*
G04 EasyEDA v5.6.15, Thu, 26 Jul 2018 23:13:41 GMT*
G04 a350aba4d1a84c778ca10979b53d7052*
G04 Gerber Generator version 0.2*
G04 Scale: 100 percent, Rotated: No, Reflected: No *
G04 Dimensions in inches *
G04 leading zeros omitted , absolute positions ,2 integer and 4 decimal *
%FSLAX24Y24*%
%MOIN*%
G90*
G70D02*

%ADD10C,0.010000*%
%ADD43C,0.007874*%
%ADD44C,0.003937*%
%ADD50C,0.005000*%
%ADD52C,0.004724*%
%ADD53C,0.013000*%
%ADD54C,0.007870*%
%ADD55C,0.009800*%

%LPD*%
G54D43*
G01X2980Y2591D02*
G01X2980Y3773D01*
G01X1798Y2591D02*
G01X2980Y2591D01*
G01X1798Y3773D02*
G01X2980Y3773D01*
G01X1798Y2591D02*
G01X1798Y3773D01*
G01X7678Y3557D02*
G01X7244Y3557D01*
G01X7244Y2927D01*
G01X7678Y2927D01*
G01X7992Y3557D02*
G01X8426Y3557D01*
G01X8426Y3163D01*
G01X8426Y2927D01*
G01X7992Y2927D01*
G54D10*
G01X5959Y3757D02*
G01X5476Y3757D01*
G01X5476Y3027D01*
G01X5959Y3027D01*
G01X6915Y3757D02*
G01X6915Y3027D01*
G01X6432Y3757D02*
G01X7061Y3757D01*
G01X7061Y3027D01*
G01X6432Y3027D01*
G54D52*
G01X8221Y1484D02*
G01X7513Y1484D01*
G01X7513Y2752D02*
G01X8476Y2752D01*
G54D10*
G01X8719Y2723D02*
G01X8719Y1702D01*
G01X9500Y1702D01*
G01X9500Y2723D01*
G54D53*
G01X9480Y1902D02*
G01X8740Y1902D01*
G54D10*
G01X9500Y3362D02*
G01X9500Y4166D01*
G01X8711Y4166D01*
G01X8711Y3362D01*
G54D54*
G01X7057Y1923D02*
G01X7057Y1404D01*
G01X6242Y1404D01*
G01X6242Y1923D01*
G01X7057Y2369D02*
G01X7057Y2889D01*
G01X6242Y2889D01*
G01X6242Y2369D01*
G54D43*
G01X765Y3564D02*
G01X765Y3998D01*
G01X134Y3998D01*
G01X134Y3564D01*
G01X765Y3250D02*
G01X765Y2816D01*
G01X371Y2816D01*
G01X134Y2816D01*
G01X134Y3250D01*
G54D44*
G01X8250Y7492D02*
G01X8250Y6692D01*
G01X9450Y6692D01*
G01X9450Y7492D01*
G01X8250Y7492D01*
G54D43*
G01X7734Y8671D02*
G01X7734Y8236D01*
G01X8365Y8236D01*
G01X8365Y8671D01*
G01X7734Y8984D02*
G01X7734Y9419D01*
G01X8128Y9419D01*
G01X8365Y9419D01*
G01X8365Y8984D01*
G01X1471Y1527D02*
G01X1905Y1527D01*
G01X1905Y2157D01*
G01X1471Y2157D01*
G01X1157Y1527D02*
G01X723Y1527D01*
G01X723Y1921D01*
G01X723Y2157D01*
G01X1157Y2157D01*
G01X2521Y127D02*
G01X2955Y127D01*
G01X2955Y757D01*
G01X2521Y757D01*
G01X2207Y127D02*
G01X1773Y127D01*
G01X1773Y521D01*
G01X1773Y757D01*
G01X2207Y757D01*
G01X2667Y4598D02*
G01X2234Y4598D01*
G01X2234Y3967D01*
G01X2667Y3967D01*
G01X2982Y4598D02*
G01X3415Y4598D01*
G01X3415Y4203D01*
G01X3415Y3967D01*
G01X2982Y3967D01*
G01X1571Y4227D02*
G01X2005Y4227D01*
G01X2005Y4857D01*
G01X1571Y4857D01*
G01X1257Y4227D02*
G01X823Y4227D01*
G01X823Y4621D01*
G01X823Y4857D01*
G01X1257Y4857D01*
G54D50*
G01X2911Y2404D02*
G01X2925Y2432D01*
G01X2952Y2459D01*
G01X2980Y2473D01*
G01X3034Y2473D01*
G01X3061Y2459D01*
G01X3089Y2432D01*
G01X3102Y2404D01*
G01X3116Y2363D01*
G01X3116Y2295D01*
G01X3102Y2254D01*
G01X3089Y2227D01*
G01X3061Y2200D01*
G01X3034Y2186D01*
G01X2980Y2186D01*
G01X2952Y2200D01*
G01X2925Y2227D01*
G01X2911Y2254D01*
G01X2821Y2473D02*
G01X2821Y2186D01*
G01X2821Y2473D02*
G01X2699Y2473D01*
G01X2658Y2459D01*
G01X2644Y2445D01*
G01X2630Y2418D01*
G01X2630Y2377D01*
G01X2644Y2350D01*
G01X2658Y2336D01*
G01X2699Y2323D01*
G01X2821Y2323D01*
G01X2527Y2404D02*
G01X2527Y2418D01*
G01X2513Y2445D01*
G01X2500Y2459D01*
G01X2472Y2473D01*
G01X2418Y2473D01*
G01X2390Y2459D01*
G01X2377Y2445D01*
G01X2363Y2418D01*
G01X2363Y2391D01*
G01X2377Y2363D01*
G01X2404Y2323D01*
G01X2540Y2186D01*
G01X2350Y2186D01*
G01X2259Y2418D02*
G01X2232Y2432D01*
G01X2191Y2473D01*
G01X2191Y2186D01*
G01X2019Y2473D02*
G01X2060Y2459D01*
G01X2088Y2418D01*
G01X2101Y2350D01*
G01X2101Y2309D01*
G01X2088Y2241D01*
G01X2060Y2200D01*
G01X2019Y2186D01*
G01X1992Y2186D01*
G01X1951Y2200D01*
G01X1924Y2241D01*
G01X1910Y2309D01*
G01X1910Y2350D01*
G01X1924Y2418D01*
G01X1951Y2459D01*
G01X1992Y2473D01*
G01X2019Y2473D01*
G01X1807Y2404D02*
G01X1807Y2418D01*
G01X1793Y2445D01*
G01X1780Y2459D01*
G01X1752Y2473D01*
G01X1698Y2473D01*
G01X1670Y2459D01*
G01X1657Y2445D01*
G01X1643Y2418D01*
G01X1643Y2391D01*
G01X1657Y2363D01*
G01X1684Y2323D01*
G01X1820Y2186D01*
G01X1630Y2186D01*
G01X7589Y3824D02*
G01X7602Y3852D01*
G01X7629Y3879D01*
G01X7657Y3892D01*
G01X7711Y3892D01*
G01X7739Y3879D01*
G01X7766Y3852D01*
G01X7779Y3824D01*
G01X7793Y3783D01*
G01X7793Y3715D01*
G01X7779Y3674D01*
G01X7766Y3647D01*
G01X7739Y3620D01*
G01X7711Y3606D01*
G01X7657Y3606D01*
G01X7629Y3620D01*
G01X7602Y3647D01*
G01X7589Y3674D01*
G01X7499Y3838D02*
G01X7471Y3852D01*
G01X7430Y3892D01*
G01X7430Y3606D01*
G01X7313Y3892D02*
G01X7163Y3892D01*
G01X7245Y3783D01*
G01X7204Y3783D01*
G01X7177Y3770D01*
G01X7163Y3756D01*
G01X7149Y3715D01*
G01X7149Y3688D01*
G01X7163Y3647D01*
G01X7190Y3620D01*
G01X7231Y3606D01*
G01X7272Y3606D01*
G01X7313Y3620D01*
G01X7327Y3633D01*
G01X7340Y3661D01*
G01X5959Y4088D02*
G01X5972Y4115D01*
G01X5999Y4143D01*
G01X6027Y4156D01*
G01X6081Y4156D01*
G01X6109Y4143D01*
G01X6136Y4115D01*
G01X6149Y4088D01*
G01X6163Y4047D01*
G01X6163Y3979D01*
G01X6149Y3938D01*
G01X6136Y3911D01*
G01X6109Y3883D01*
G01X6081Y3870D01*
G01X6027Y3870D01*
G01X5999Y3883D01*
G01X5972Y3911D01*
G01X5959Y3938D01*
G01X5869Y4102D02*
G01X5841Y4115D01*
G01X5800Y4156D01*
G01X5800Y3870D01*
G01X5629Y4156D02*
G01X5669Y4143D01*
G01X5697Y4102D01*
G01X5710Y4033D01*
G01X5710Y3993D01*
G01X5697Y3924D01*
G01X5669Y3883D01*
G01X5629Y3870D01*
G01X5601Y3870D01*
G01X5560Y3883D01*
G01X5533Y3924D01*
G01X5519Y3993D01*
G01X5519Y4033D01*
G01X5533Y4102D01*
G01X5560Y4143D01*
G01X5601Y4156D01*
G01X5629Y4156D01*
G01X7700Y2492D02*
G01X7986Y2492D01*
G01X7700Y2492D02*
G01X7700Y2370D01*
G01X7713Y2329D01*
G01X7727Y2315D01*
G01X7754Y2302D01*
G01X7781Y2302D01*
G01X7809Y2315D01*
G01X7822Y2329D01*
G01X7836Y2370D01*
G01X7836Y2492D01*
G01X7836Y2397D02*
G01X7986Y2302D01*
G01X7700Y2212D02*
G01X7986Y2212D01*
G01X7700Y2212D02*
G01X7700Y2034D01*
G01X7836Y2212D02*
G01X7836Y2102D01*
G01X7986Y2212D02*
G01X7986Y2034D01*
G01X7768Y1740D02*
G01X7740Y1753D01*
G01X7713Y1781D01*
G01X7700Y1808D01*
G01X7700Y1862D01*
G01X7713Y1890D01*
G01X7740Y1917D01*
G01X7768Y1931D01*
G01X7809Y1944D01*
G01X7877Y1944D01*
G01X7918Y1931D01*
G01X7945Y1917D01*
G01X7972Y1890D01*
G01X7986Y1862D01*
G01X7986Y1808D01*
G01X7972Y1781D01*
G01X7945Y1753D01*
G01X7918Y1740D01*
G01X7877Y1740D01*
G01X7877Y1808D02*
G01X7877Y1740D01*
G01X9218Y3067D02*
G01X9231Y3094D01*
G01X9259Y3122D01*
G01X9286Y3135D01*
G01X9340Y3135D01*
G01X9368Y3122D01*
G01X9395Y3094D01*
G01X9409Y3067D01*
G01X9422Y3026D01*
G01X9422Y2958D01*
G01X9409Y2917D01*
G01X9395Y2890D01*
G01X9368Y2863D01*
G01X9340Y2849D01*
G01X9286Y2849D01*
G01X9259Y2863D01*
G01X9231Y2890D01*
G01X9218Y2917D01*
G01X9128Y3081D02*
G01X9100Y3094D01*
G01X9060Y3135D01*
G01X9060Y2849D01*
G01X8970Y3081D02*
G01X8942Y3094D01*
G01X8901Y3135D01*
G01X8901Y2849D01*
G01X6780Y1274D02*
G01X6794Y1302D01*
G01X6821Y1329D01*
G01X6849Y1342D01*
G01X6903Y1342D01*
G01X6930Y1329D01*
G01X6958Y1302D01*
G01X6971Y1274D01*
G01X6985Y1233D01*
G01X6985Y1165D01*
G01X6971Y1124D01*
G01X6958Y1097D01*
G01X6930Y1070D01*
G01X6903Y1056D01*
G01X6849Y1056D01*
G01X6821Y1070D01*
G01X6794Y1097D01*
G01X6780Y1124D01*
G01X6677Y1274D02*
G01X6677Y1288D01*
G01X6663Y1315D01*
G01X6649Y1329D01*
G01X6622Y1342D01*
G01X6568Y1342D01*
G01X6540Y1329D01*
G01X6527Y1315D01*
G01X6513Y1288D01*
G01X6513Y1261D01*
G01X6527Y1233D01*
G01X6554Y1192D01*
G01X6690Y1056D01*
G01X6499Y1056D01*
G01X663Y4356D02*
G01X663Y4070D01*
G01X663Y4356D02*
G01X540Y4356D01*
G01X499Y4342D01*
G01X486Y4329D01*
G01X472Y4302D01*
G01X472Y4274D01*
G01X486Y4247D01*
G01X499Y4233D01*
G01X540Y4220D01*
G01X663Y4220D01*
G01X568Y4220D02*
G01X472Y4070D01*
G01X355Y4356D02*
G01X205Y4356D01*
G01X287Y4247D01*
G01X246Y4247D01*
G01X219Y4233D01*
G01X205Y4220D01*
G01X191Y4179D01*
G01X191Y4152D01*
G01X205Y4111D01*
G01X232Y4083D01*
G01X273Y4070D01*
G01X314Y4070D01*
G01X355Y4083D01*
G01X369Y4097D01*
G01X382Y4124D01*
G01X9363Y7206D02*
G01X9363Y6919D01*
G01X9363Y7206D02*
G01X9240Y7206D01*
G01X9200Y7192D01*
G01X9186Y7178D01*
G01X9173Y7151D01*
G01X9173Y7125D01*
G01X9186Y7098D01*
G01X9200Y7083D01*
G01X9240Y7069D01*
G01X9363Y7069D02*
G01X9240Y7069D01*
G01X9200Y7056D01*
G01X9186Y7042D01*
G01X9173Y7015D01*
G01X9173Y6975D01*
G01X9186Y6948D01*
G01X9200Y6933D01*
G01X9240Y6919D01*
G01X9363Y6919D01*
G01X9001Y7206D02*
G01X9028Y7192D01*
G01X9055Y7165D01*
G01X9069Y7137D01*
G01X9082Y7098D01*
G01X9082Y7028D01*
G01X9069Y6987D01*
G01X9055Y6960D01*
G01X9028Y6933D01*
G01X9001Y6919D01*
G01X8946Y6919D01*
G01X8919Y6933D01*
G01X8892Y6960D01*
G01X8878Y6987D01*
G01X8865Y7028D01*
G01X8865Y7098D01*
G01X8878Y7137D01*
G01X8892Y7165D01*
G01X8919Y7192D01*
G01X8946Y7206D01*
G01X9001Y7206D01*
G01X8692Y7206D02*
G01X8719Y7192D01*
G01X8748Y7165D01*
G01X8761Y7137D01*
G01X8775Y7098D01*
G01X8775Y7028D01*
G01X8761Y6987D01*
G01X8748Y6960D01*
G01X8719Y6933D01*
G01X8692Y6919D01*
G01X8638Y6919D01*
G01X8611Y6933D01*
G01X8584Y6960D01*
G01X8569Y6987D01*
G01X8557Y7028D01*
G01X8557Y7098D01*
G01X8569Y7137D01*
G01X8584Y7165D01*
G01X8611Y7192D01*
G01X8638Y7206D01*
G01X8692Y7206D01*
G01X8371Y7206D02*
G01X8371Y6919D01*
G01X8467Y7206D02*
G01X8276Y7206D01*
G01X7350Y9343D02*
G01X7636Y9343D01*
G01X7350Y9343D02*
G01X7350Y9220D01*
G01X7363Y9179D01*
G01X7377Y9165D01*
G01X7404Y9152D01*
G01X7431Y9152D01*
G01X7459Y9165D01*
G01X7472Y9179D01*
G01X7486Y9220D01*
G01X7486Y9343D01*
G01X7486Y9247D02*
G01X7636Y9152D01*
G01X7404Y9062D02*
G01X7390Y9034D01*
G01X7350Y8993D01*
G01X7636Y8993D01*
G01X398Y1974D02*
G01X370Y1988D01*
G01X343Y2015D01*
G01X330Y2042D01*
G01X330Y2097D01*
G01X343Y2124D01*
G01X370Y2152D01*
G01X398Y2165D01*
G01X439Y2179D01*
G01X507Y2179D01*
G01X548Y2165D01*
G01X575Y2152D01*
G01X602Y2124D01*
G01X616Y2097D01*
G01X616Y2042D01*
G01X602Y2015D01*
G01X575Y1988D01*
G01X548Y1974D01*
G01X384Y1884D02*
G01X370Y1857D01*
G01X330Y1816D01*
G01X616Y1816D01*
G01X398Y1712D02*
G01X384Y1712D01*
G01X357Y1699D01*
G01X343Y1685D01*
G01X330Y1658D01*
G01X330Y1603D01*
G01X343Y1576D01*
G01X357Y1562D01*
G01X384Y1549D01*
G01X411Y1549D01*
G01X439Y1562D01*
G01X480Y1590D01*
G01X616Y1726D01*
G01X616Y1535D01*
G01X1461Y574D02*
G01X1434Y588D01*
G01X1407Y615D01*
G01X1393Y643D01*
G01X1393Y697D01*
G01X1407Y724D01*
G01X1434Y752D01*
G01X1461Y765D01*
G01X1502Y779D01*
G01X1570Y779D01*
G01X1611Y765D01*
G01X1639Y752D01*
G01X1666Y724D01*
G01X1680Y697D01*
G01X1680Y643D01*
G01X1666Y615D01*
G01X1639Y588D01*
G01X1611Y574D01*
G01X1448Y484D02*
G01X1434Y457D01*
G01X1393Y416D01*
G01X1680Y416D01*
G01X1393Y190D02*
G01X1584Y326D01*
G01X1584Y122D01*
G01X1393Y190D02*
G01X1680Y190D01*
G01X3371Y4942D02*
G01X3371Y4655D01*
G01X3371Y4942D02*
G01X3248Y4942D01*
G01X3207Y4928D01*
G01X3194Y4914D01*
G01X3180Y4887D01*
G01X3180Y4860D01*
G01X3194Y4833D01*
G01X3207Y4819D01*
G01X3248Y4805D01*
G01X3371Y4805D01*
G01X3276Y4805D02*
G01X3180Y4655D01*
G01X3022Y4942D02*
G01X3063Y4928D01*
G01X3076Y4901D01*
G01X3076Y4873D01*
G01X3063Y4846D01*
G01X3036Y4833D01*
G01X2981Y4819D01*
G01X2940Y4805D01*
G01X2913Y4778D01*
G01X2899Y4751D01*
G01X2899Y4710D01*
G01X2913Y4683D01*
G01X2926Y4669D01*
G01X2967Y4655D01*
G01X3022Y4655D01*
G01X3063Y4669D01*
G01X3076Y4683D01*
G01X3090Y4710D01*
G01X3090Y4751D01*
G01X3076Y4778D01*
G01X3049Y4805D01*
G01X3008Y4819D01*
G01X2954Y4833D01*
G01X2926Y4846D01*
G01X2913Y4873D01*
G01X2913Y4901D01*
G01X2926Y4928D01*
G01X2967Y4942D01*
G01X3022Y4942D01*
G01X1963Y4156D02*
G01X1963Y3869D01*
G01X1963Y4156D02*
G01X1840Y4156D01*
G01X1799Y4142D01*
G01X1786Y4128D01*
G01X1772Y4101D01*
G01X1772Y4075D01*
G01X1786Y4048D01*
G01X1799Y4033D01*
G01X1840Y4019D01*
G01X1963Y4019D01*
G01X1868Y4019D02*
G01X1772Y3869D01*
G01X1505Y4060D02*
G01X1518Y4019D01*
G01X1546Y3992D01*
G01X1587Y3978D01*
G01X1600Y3978D01*
G01X1641Y3992D01*
G01X1668Y4019D01*
G01X1682Y4060D01*
G01X1682Y4075D01*
G01X1668Y4115D01*
G01X1641Y4142D01*
G01X1600Y4156D01*
G01X1587Y4156D01*
G01X1546Y4142D01*
G01X1518Y4115D01*
G01X1505Y4060D01*
G01X1505Y3992D01*
G01X1518Y3925D01*
G01X1546Y3883D01*
G01X1587Y3869D01*
G01X1614Y3869D01*
G01X1655Y3883D01*
G01X1668Y3910D01*
G01X711Y6174D02*
G01X725Y6202D01*
G01X751Y6229D01*
G01X780Y6243D01*
G01X834Y6243D01*
G01X861Y6229D01*
G01X888Y6202D01*
G01X901Y6174D01*
G01X915Y6134D01*
G01X915Y6065D01*
G01X901Y6024D01*
G01X888Y5997D01*
G01X861Y5970D01*
G01X834Y5956D01*
G01X780Y5956D01*
G01X751Y5970D01*
G01X725Y5997D01*
G01X711Y6024D01*
G01X711Y6065D01*
G01X780Y6065D02*
G01X711Y6065D01*
G01X621Y6243D02*
G01X621Y5956D01*
G01X621Y6243D02*
G01X430Y5956D01*
G01X430Y6243D02*
G01X430Y5956D01*
G01X340Y6243D02*
G01X340Y5956D01*
G01X340Y6243D02*
G01X244Y6243D01*
G01X203Y6229D01*
G01X176Y6202D01*
G01X163Y6174D01*
G01X150Y6134D01*
G01X150Y6065D01*
G01X163Y6024D01*
G01X176Y5997D01*
G01X203Y5970D01*
G01X244Y5956D01*
G01X340Y5956D01*
G01X903Y7093D02*
G01X753Y7093D01*
G01X835Y6984D01*
G01X794Y6984D01*
G01X766Y6970D01*
G01X753Y6956D01*
G01X739Y6915D01*
G01X739Y6888D01*
G01X753Y6847D01*
G01X780Y6820D01*
G01X821Y6806D01*
G01X862Y6806D01*
G01X903Y6820D01*
G01X916Y6834D01*
G01X930Y6861D01*
G01X649Y7093D02*
G01X540Y6806D01*
G01X431Y7093D02*
G01X540Y6806D01*
G01X314Y7093D02*
G01X164Y7093D01*
G01X245Y6984D01*
G01X205Y6984D01*
G01X177Y6970D01*
G01X164Y6956D01*
G01X150Y6915D01*
G01X150Y6888D01*
G01X164Y6847D01*
G01X191Y6820D01*
G01X232Y6806D01*
G01X273Y6806D01*
G01X314Y6820D01*
G01X327Y6834D01*
G01X341Y6861D01*
G01X942Y5452D02*
G01X969Y5479D01*
G01X1011Y5493D01*
G01X1065Y5493D01*
G01X1107Y5479D01*
G01X1134Y5452D01*
G01X1134Y5424D01*
G01X1119Y5397D01*
G01X1107Y5384D01*
G01X1078Y5370D01*
G01X998Y5343D01*
G01X969Y5329D01*
G01X957Y5315D01*
G01X942Y5288D01*
G01X942Y5247D01*
G01X969Y5220D01*
G01X1011Y5206D01*
G01X1065Y5206D01*
G01X1107Y5220D01*
G01X1134Y5247D01*
G01X853Y5493D02*
G01X853Y5206D01*
G01X853Y5493D02*
G01X730Y5493D01*
G01X688Y5479D01*
G01X676Y5465D01*
G01X661Y5438D01*
G01X661Y5411D01*
G01X676Y5384D01*
G01X688Y5370D01*
G01X730Y5356D01*
G01X853Y5356D02*
G01X730Y5356D01*
G01X688Y5343D01*
G01X676Y5329D01*
G01X661Y5302D01*
G01X661Y5261D01*
G01X676Y5234D01*
G01X688Y5220D01*
G01X730Y5206D01*
G01X853Y5206D01*
G01X571Y5493D02*
G01X571Y5288D01*
G01X559Y5247D01*
G01X530Y5220D01*
G01X490Y5206D01*
G01X463Y5206D01*
G01X421Y5220D01*
G01X394Y5247D01*
G01X380Y5288D01*
G01X380Y5493D01*
G01X100Y5452D02*
G01X128Y5479D01*
G01X169Y5493D01*
G01X223Y5493D01*
G01X263Y5479D01*
G01X290Y5452D01*
G01X290Y5424D01*
G01X278Y5397D01*
G01X263Y5384D01*
G01X236Y5370D01*
G01X155Y5343D01*
G01X128Y5329D01*
G01X113Y5315D01*
G01X100Y5288D01*
G01X100Y5247D01*
G01X128Y5220D01*
G01X169Y5206D01*
G01X223Y5206D01*
G01X263Y5220D01*
G01X290Y5247D01*
G54D55*
G75*
G01X2898Y2430D02*
G2X2897Y2430I-1J-49D01*
G01*
M00*
M02*
