G04 ---------------------------- Layer name :BOTTOM LAYER*
G04 EasyEDA v5.7.24, Wed, 12 Sep 2018 17:35:23 GMT*
G04 04e61e729e724139ab2a67c6bad7766c*
G04 Gerber Generator version 0.2*
G04 Scale: 100 percent, Rotated: No, Reflected: No *
G04 Dimensions in inches *
G04 leading zeros omitted , absolute positions ,2 integer and 4 decimal *
%FSLAX24Y24*%
%MOIN*%
G90*
G70D02*

%ADD11C,0.015000*%
%ADD12C,0.012000*%
%ADD13C,0.018000*%
%ADD14C,0.016000*%
%ADD15C,0.028000*%
%ADD18C,0.025000*%
%ADD23C,0.019700*%
%ADD24C,0.024400*%
%ADD44R,0.062000X0.062000*%
%ADD45C,0.062000*%
%ADD46C,0.039370*%
%ADD47R,0.066000X0.066000*%
%ADD48C,0.059055*%
%ADD49C,0.051181*%

%LPD*%
G36*
G01X27800Y0D02*
G01X27300Y0D01*
G01X26650Y650D01*
G01X25150Y650D01*
G01X23850Y1950D01*
G01X23850Y2563D01*
G01X18350Y8063D01*
G01X10050Y8063D01*
G01X4550Y2563D01*
G01X4550Y1963D01*
G01X3200Y613D01*
G01X1750Y613D01*
G01X1150Y13D01*
G01X600Y13D01*
G01X0Y613D01*
G01X0Y1113D01*
G01X650Y1763D01*
G01X650Y3263D01*
G01X1950Y4563D01*
G01X2550Y4563D01*
G01X8050Y10063D01*
G01X8050Y18480D01*
G01X3248Y23282D01*
G01X2536Y23994D01*
G01X1950Y23994D01*
G01X600Y25344D01*
G01X600Y26794D01*
G01X0Y27394D01*
G01X0Y27944D01*
G01X600Y28544D01*
G01X1100Y28544D01*
G01X1750Y27894D01*
G01X3250Y27894D01*
G01X4550Y26594D01*
G01X4550Y25980D01*
G01X10050Y20463D01*
G01X18335Y20463D01*
G01X23138Y25265D01*
G01X23850Y25978D01*
G01X23850Y26563D01*
G01X25200Y27913D01*
G01X26650Y27913D01*
G01X27250Y28513D01*
G01X27800Y28513D01*
G01X28400Y27913D01*
G01X28400Y27413D01*
G01X27750Y26763D01*
G01X27750Y25263D01*
G01X26450Y23963D01*
G01X25835Y23963D01*
G01X20350Y18484D01*
G01X20350Y10063D01*
G01X25151Y5261D01*
G01X25864Y4550D01*
G01X26450Y4550D01*
G01X27800Y3200D01*
G01X27800Y1750D01*
G01X28400Y1150D01*
G01X28400Y600D01*
G01X27800Y0D01*
G37*

%LPC*%
G36*
G01X737Y27240D02*
G01X787Y27237D01*
G01X837Y27238D01*
G01X886Y27244D01*
G01X935Y27255D01*
G01X983Y27271D01*
G01X1028Y27292D01*
G01X1071Y27317D01*
G01X1112Y27346D01*
G01X1149Y27379D01*
G01X1183Y27415D01*
G01X1213Y27455D01*
G01X1239Y27498D01*
G01X1261Y27543D01*
G01X1278Y27590D01*
G01X1291Y27638D01*
G01X1298Y27688D01*
G01X1301Y27738D01*
G01X1298Y27787D01*
G01X1291Y27837D01*
G01X1278Y27885D01*
G01X1261Y27932D01*
G01X1239Y27977D01*
G01X1213Y28020D01*
G01X1183Y28060D01*
G01X1149Y28096D01*
G01X1112Y28129D01*
G01X1071Y28158D01*
G01X1028Y28183D01*
G01X983Y28204D01*
G01X935Y28220D01*
G01X886Y28231D01*
G01X837Y28237D01*
G01X787Y28238D01*
G01X737Y28235D01*
G01X688Y28226D01*
G01X640Y28212D01*
G01X593Y28194D01*
G01X549Y28171D01*
G01X507Y28144D01*
G01X468Y28113D01*
G01X432Y28078D01*
G01X400Y28040D01*
G01X372Y27999D01*
G01X348Y27955D01*
G01X329Y27909D01*
G01X314Y27861D01*
G01X304Y27812D01*
G01X299Y27762D01*
G01X299Y27713D01*
G01X304Y27663D01*
G01X314Y27614D01*
G01X329Y27566D01*
G01X348Y27520D01*
G01X372Y27476D01*
G01X400Y27435D01*
G01X432Y27397D01*
G01X468Y27362D01*
G01X507Y27331D01*
G01X549Y27304D01*
G01X593Y27281D01*
G01X640Y27263D01*
G01X688Y27249D01*
G01X737Y27240D01*
G37*
G36*
G01X27537Y296D02*
G01X27587Y293D01*
G01X27637Y294D01*
G01X27686Y300D01*
G01X27735Y311D01*
G01X27783Y327D01*
G01X27828Y348D01*
G01X27871Y373D01*
G01X27912Y402D01*
G01X27949Y435D01*
G01X27983Y471D01*
G01X28013Y511D01*
G01X28039Y554D01*
G01X28061Y599D01*
G01X28078Y646D01*
G01X28091Y694D01*
G01X28098Y744D01*
G01X28101Y794D01*
G01X28098Y843D01*
G01X28091Y893D01*
G01X28078Y941D01*
G01X28061Y988D01*
G01X28039Y1033D01*
G01X28013Y1076D01*
G01X27983Y1116D01*
G01X27949Y1152D01*
G01X27912Y1185D01*
G01X27871Y1214D01*
G01X27828Y1239D01*
G01X27783Y1260D01*
G01X27735Y1276D01*
G01X27686Y1287D01*
G01X27637Y1293D01*
G01X27587Y1294D01*
G01X27537Y1291D01*
G01X27488Y1282D01*
G01X27440Y1268D01*
G01X27393Y1250D01*
G01X27349Y1227D01*
G01X27307Y1200D01*
G01X27268Y1169D01*
G01X27232Y1134D01*
G01X27200Y1096D01*
G01X27172Y1055D01*
G01X27148Y1011D01*
G01X27129Y965D01*
G01X27114Y917D01*
G01X27104Y868D01*
G01X27099Y818D01*
G01X27099Y769D01*
G01X27104Y719D01*
G01X27114Y670D01*
G01X27129Y622D01*
G01X27148Y576D01*
G01X27172Y532D01*
G01X27200Y491D01*
G01X27232Y453D01*
G01X27268Y418D01*
G01X27307Y387D01*
G01X27349Y360D01*
G01X27393Y337D01*
G01X27440Y319D01*
G01X27488Y305D01*
G01X27537Y296D01*
G37*
G36*
G01X723Y310D02*
G01X773Y307D01*
G01X823Y308D01*
G01X873Y314D01*
G01X921Y325D01*
G01X969Y341D01*
G01X1014Y362D01*
G01X1057Y387D01*
G01X1098Y416D01*
G01X1135Y449D01*
G01X1169Y485D01*
G01X1199Y525D01*
G01X1225Y568D01*
G01X1247Y613D01*
G01X1264Y660D01*
G01X1277Y708D01*
G01X1284Y758D01*
G01X1286Y807D01*
G01X1284Y857D01*
G01X1277Y907D01*
G01X1264Y955D01*
G01X1247Y1002D01*
G01X1225Y1047D01*
G01X1199Y1090D01*
G01X1169Y1130D01*
G01X1135Y1166D01*
G01X1098Y1199D01*
G01X1057Y1228D01*
G01X1014Y1253D01*
G01X969Y1274D01*
G01X921Y1290D01*
G01X873Y1301D01*
G01X823Y1307D01*
G01X773Y1308D01*
G01X723Y1305D01*
G01X674Y1296D01*
G01X626Y1282D01*
G01X579Y1264D01*
G01X535Y1241D01*
G01X493Y1214D01*
G01X454Y1183D01*
G01X418Y1148D01*
G01X386Y1110D01*
G01X358Y1069D01*
G01X334Y1025D01*
G01X315Y979D01*
G01X300Y931D01*
G01X290Y882D01*
G01X285Y832D01*
G01X285Y783D01*
G01X290Y733D01*
G01X300Y684D01*
G01X315Y636D01*
G01X334Y590D01*
G01X358Y546D01*
G01X386Y505D01*
G01X418Y467D01*
G01X454Y432D01*
G01X493Y401D01*
G01X535Y374D01*
G01X579Y351D01*
G01X626Y333D01*
G01X674Y319D01*
G01X723Y310D01*
G37*
G36*
G01X25613Y1104D02*
G01X25762Y1093D01*
G01X25912Y1097D01*
G01X26060Y1115D01*
G01X26206Y1149D01*
G01X26348Y1196D01*
G01X26484Y1258D01*
G01X26614Y1333D01*
G01X26735Y1420D01*
G01X26848Y1519D01*
G01X26949Y1629D01*
G01X27040Y1748D01*
G01X27118Y1876D01*
G01X27183Y2010D01*
G01X27234Y2151D01*
G01X27271Y2296D01*
G01X27293Y2444D01*
G01X27301Y2594D01*
G01X27293Y2743D01*
G01X27271Y2891D01*
G01X27234Y3036D01*
G01X27183Y3177D01*
G01X27118Y3311D01*
G01X27040Y3439D01*
G01X26949Y3558D01*
G01X26848Y3668D01*
G01X26735Y3767D01*
G01X26614Y3854D01*
G01X26484Y3929D01*
G01X26348Y3991D01*
G01X26206Y4038D01*
G01X26060Y4072D01*
G01X25912Y4090D01*
G01X25762Y4094D01*
G01X25613Y4083D01*
G01X25465Y4057D01*
G01X25321Y4016D01*
G01X25182Y3962D01*
G01X25049Y3893D01*
G01X24923Y3812D01*
G01X24806Y3719D01*
G01X24699Y3614D01*
G01X24603Y3500D01*
G01X24519Y3376D01*
G01X24447Y3245D01*
G01X24389Y3107D01*
G01X24345Y2964D01*
G01X24315Y2817D01*
G01X24300Y2668D01*
G01X24300Y2519D01*
G01X24315Y2370D01*
G01X24345Y2223D01*
G01X24389Y2080D01*
G01X24447Y1942D01*
G01X24519Y1811D01*
G01X24603Y1687D01*
G01X24699Y1573D01*
G01X24806Y1468D01*
G01X24923Y1375D01*
G01X25049Y1294D01*
G01X25182Y1225D01*
G01X25321Y1171D01*
G01X25465Y1130D01*
G01X25613Y1104D01*
G37*
G36*
G01X2399Y1118D02*
G01X2548Y1107D01*
G01X2698Y1111D01*
G01X2846Y1129D01*
G01X2992Y1163D01*
G01X3134Y1210D01*
G01X3270Y1272D01*
G01X3400Y1347D01*
G01X3521Y1434D01*
G01X3634Y1533D01*
G01X3735Y1643D01*
G01X3826Y1762D01*
G01X3904Y1890D01*
G01X3969Y2024D01*
G01X4020Y2165D01*
G01X4057Y2310D01*
G01X4079Y2458D01*
G01X4086Y2607D01*
G01X4079Y2757D01*
G01X4057Y2905D01*
G01X4020Y3050D01*
G01X3969Y3191D01*
G01X3904Y3325D01*
G01X3826Y3453D01*
G01X3735Y3572D01*
G01X3634Y3682D01*
G01X3521Y3781D01*
G01X3400Y3868D01*
G01X3270Y3943D01*
G01X3134Y4005D01*
G01X2992Y4052D01*
G01X2846Y4086D01*
G01X2698Y4104D01*
G01X2548Y4108D01*
G01X2399Y4097D01*
G01X2251Y4071D01*
G01X2107Y4030D01*
G01X1968Y3976D01*
G01X1835Y3907D01*
G01X1709Y3826D01*
G01X1592Y3733D01*
G01X1485Y3628D01*
G01X1389Y3514D01*
G01X1305Y3390D01*
G01X1233Y3259D01*
G01X1175Y3121D01*
G01X1131Y2978D01*
G01X1101Y2831D01*
G01X1086Y2682D01*
G01X1086Y2533D01*
G01X1101Y2384D01*
G01X1131Y2237D01*
G01X1175Y2094D01*
G01X1233Y1956D01*
G01X1305Y1825D01*
G01X1389Y1701D01*
G01X1485Y1587D01*
G01X1592Y1482D01*
G01X1709Y1389D01*
G01X1835Y1308D01*
G01X1968Y1239D01*
G01X2107Y1185D01*
G01X2251Y1144D01*
G01X2399Y1118D01*
G37*
G36*
G01X6890Y6270D02*
G01X6920Y6268D01*
G01X6950Y6268D01*
G01X6979Y6272D01*
G01X7008Y6279D01*
G01X7036Y6288D01*
G01X7063Y6300D01*
G01X7089Y6315D01*
G01X7113Y6333D01*
G01X7135Y6352D01*
G01X7156Y6374D01*
G01X7174Y6398D01*
G01X7189Y6423D01*
G01X7202Y6450D01*
G01X7212Y6478D01*
G01X7219Y6506D01*
G01X7224Y6536D01*
G01X7225Y6565D01*
G01X7224Y6595D01*
G01X7219Y6625D01*
G01X7212Y6653D01*
G01X7202Y6681D01*
G01X7189Y6708D01*
G01X7174Y6733D01*
G01X7156Y6757D01*
G01X7135Y6779D01*
G01X7113Y6798D01*
G01X7089Y6816D01*
G01X7063Y6831D01*
G01X7036Y6843D01*
G01X7008Y6852D01*
G01X6979Y6859D01*
G01X6950Y6863D01*
G01X6920Y6863D01*
G01X6890Y6861D01*
G01X6862Y6856D01*
G01X6863Y6862D01*
G01X6868Y6892D01*
G01X6869Y6922D01*
G01X6868Y6951D01*
G01X6863Y6981D01*
G01X6856Y7009D01*
G01X6846Y7037D01*
G01X6833Y7064D01*
G01X6818Y7089D01*
G01X6800Y7113D01*
G01X6796Y7116D01*
G01X6796Y7372D01*
G01X7700Y8275D01*
G01X7701Y8276D01*
G01X7712Y8281D01*
G01X7722Y8287D01*
G01X7732Y8294D01*
G01X7742Y8300D01*
G01X7751Y8308D01*
G01X7761Y8316D01*
G01X7769Y8324D01*
G01X9469Y10024D01*
G01X9474Y10028D01*
G01X9478Y10033D01*
G01X9482Y10038D01*
G01X9487Y10043D01*
G01X9491Y10048D01*
G01X9494Y10053D01*
G01X9498Y10059D01*
G01X9502Y10064D01*
G01X9505Y10070D01*
G01X9508Y10075D01*
G01X9512Y10081D01*
G01X9515Y10087D01*
G01X9517Y10093D01*
G01X9520Y10099D01*
G01X9522Y10105D01*
G01X9525Y10111D01*
G01X9527Y10117D01*
G01X9529Y10123D01*
G01X9531Y10129D01*
G01X9532Y10136D01*
G01X9534Y10142D01*
G01X9535Y10148D01*
G01X9536Y10155D01*
G01X9537Y10161D01*
G01X9538Y10168D01*
G01X9539Y10174D01*
G01X9539Y10181D01*
G01X9539Y10187D01*
G01X9539Y10194D01*
G01X9539Y11994D01*
G01X9539Y12000D01*
G01X9539Y12006D01*
G01X9539Y12013D01*
G01X9538Y12019D01*
G01X9537Y12026D01*
G01X9536Y12032D01*
G01X9535Y12039D01*
G01X9534Y12045D01*
G01X9532Y12051D01*
G01X9531Y12058D01*
G01X9529Y12064D01*
G01X9527Y12070D01*
G01X9525Y12076D01*
G01X9522Y12082D01*
G01X9520Y12088D01*
G01X9517Y12094D01*
G01X9515Y12100D01*
G01X9512Y12106D01*
G01X9508Y12112D01*
G01X9505Y12117D01*
G01X9502Y12123D01*
G01X9498Y12128D01*
G01X9494Y12134D01*
G01X9491Y12139D01*
G01X9487Y12144D01*
G01X9482Y12149D01*
G01X9478Y12154D01*
G01X9474Y12159D01*
G01X9469Y12163D01*
G01X9219Y12413D01*
G01X9215Y12418D01*
G01X9210Y12422D01*
G01X9205Y12426D01*
G01X9200Y12431D01*
G01X9195Y12435D01*
G01X9190Y12438D01*
G01X9184Y12442D01*
G01X9179Y12446D01*
G01X9173Y12449D01*
G01X9168Y12452D01*
G01X9162Y12456D01*
G01X9156Y12459D01*
G01X9150Y12461D01*
G01X9144Y12464D01*
G01X9138Y12466D01*
G01X9132Y12469D01*
G01X9126Y12471D01*
G01X9120Y12473D01*
G01X9114Y12475D01*
G01X9107Y12476D01*
G01X9101Y12478D01*
G01X9095Y12479D01*
G01X9088Y12480D01*
G01X9082Y12481D01*
G01X9075Y12482D01*
G01X9069Y12483D01*
G01X9062Y12483D01*
G01X9056Y12483D01*
G01X9050Y12484D01*
G01X8549Y12484D01*
G01X8540Y12493D01*
G01X8540Y15944D01*
G01X8769Y16174D01*
G01X8769Y16124D01*
G01X8770Y16119D01*
G01X8770Y16115D01*
G01X8770Y16111D01*
G01X8771Y16107D01*
G01X8772Y16103D01*
G01X8773Y16099D01*
G01X8774Y16095D01*
G01X8775Y16091D01*
G01X8776Y16087D01*
G01X8778Y16083D01*
G01X8780Y16080D01*
G01X8782Y16076D01*
G01X8784Y16072D01*
G01X8786Y16069D01*
G01X8788Y16065D01*
G01X8791Y16062D01*
G01X8793Y16059D01*
G01X8796Y16056D01*
G01X8799Y16053D01*
G01X8802Y16050D01*
G01X8805Y16047D01*
G01X8808Y16045D01*
G01X8811Y16042D01*
G01X8815Y16040D01*
G01X8818Y16038D01*
G01X8822Y16036D01*
G01X8826Y16034D01*
G01X8829Y16032D01*
G01X8833Y16030D01*
G01X8837Y16029D01*
G01X8841Y16028D01*
G01X8845Y16027D01*
G01X8849Y16026D01*
G01X8853Y16025D01*
G01X8857Y16024D01*
G01X8861Y16024D01*
G01X8865Y16024D01*
G01X8869Y16024D01*
G01X9530Y16024D01*
G01X9534Y16024D01*
G01X9538Y16024D01*
G01X9542Y16024D01*
G01X9546Y16025D01*
G01X9550Y16026D01*
G01X9554Y16027D01*
G01X9558Y16028D01*
G01X9562Y16029D01*
G01X9566Y16030D01*
G01X9570Y16032D01*
G01X9573Y16034D01*
G01X9577Y16036D01*
G01X9581Y16038D01*
G01X9584Y16040D01*
G01X9588Y16042D01*
G01X9591Y16045D01*
G01X9594Y16047D01*
G01X9597Y16050D01*
G01X9600Y16053D01*
G01X9603Y16056D01*
G01X9606Y16059D01*
G01X9608Y16062D01*
G01X9611Y16065D01*
G01X9613Y16069D01*
G01X9615Y16072D01*
G01X9617Y16076D01*
G01X9619Y16080D01*
G01X9621Y16083D01*
G01X9623Y16087D01*
G01X9624Y16091D01*
G01X9625Y16095D01*
G01X9626Y16099D01*
G01X9627Y16103D01*
G01X9628Y16107D01*
G01X9629Y16111D01*
G01X9629Y16115D01*
G01X9629Y16119D01*
G01X9630Y16124D01*
G01X9630Y16784D01*
G01X9629Y16788D01*
G01X9629Y16792D01*
G01X9629Y16796D01*
G01X9628Y16800D01*
G01X9627Y16804D01*
G01X9626Y16808D01*
G01X9625Y16812D01*
G01X9624Y16816D01*
G01X9623Y16820D01*
G01X9621Y16824D01*
G01X9619Y16827D01*
G01X9617Y16831D01*
G01X9615Y16835D01*
G01X9613Y16838D01*
G01X9611Y16842D01*
G01X9609Y16844D01*
G01X9611Y16845D01*
G01X9613Y16849D01*
G01X9615Y16852D01*
G01X9617Y16856D01*
G01X9619Y16860D01*
G01X9621Y16863D01*
G01X9623Y16867D01*
G01X9624Y16871D01*
G01X9625Y16875D01*
G01X9626Y16879D01*
G01X9627Y16883D01*
G01X9628Y16887D01*
G01X9629Y16891D01*
G01X9629Y16895D01*
G01X9629Y16899D01*
G01X9630Y16903D01*
G01X9630Y17069D01*
G01X9365Y17069D01*
G01X9365Y16884D01*
G01X9034Y16884D01*
G01X9034Y17069D01*
G01X8769Y17069D01*
G01X8769Y16903D01*
G01X8770Y16899D01*
G01X8770Y16895D01*
G01X8770Y16891D01*
G01X8771Y16887D01*
G01X8772Y16883D01*
G01X8773Y16879D01*
G01X8774Y16875D01*
G01X8775Y16871D01*
G01X8776Y16867D01*
G01X8778Y16863D01*
G01X8780Y16860D01*
G01X8782Y16856D01*
G01X8784Y16852D01*
G01X8786Y16849D01*
G01X8788Y16845D01*
G01X8790Y16844D01*
G01X8788Y16842D01*
G01X8786Y16838D01*
G01X8784Y16835D01*
G01X8782Y16831D01*
G01X8780Y16827D01*
G01X8778Y16824D01*
G01X8776Y16820D01*
G01X8775Y16816D01*
G01X8774Y16812D01*
G01X8773Y16808D01*
G01X8772Y16804D01*
G01X8771Y16800D01*
G01X8770Y16796D01*
G01X8770Y16792D01*
G01X8770Y16788D01*
G01X8769Y16784D01*
G01X8769Y16694D01*
G01X8709Y16694D01*
G01X8703Y16693D01*
G01X8697Y16693D01*
G01X8690Y16693D01*
G01X8684Y16692D01*
G01X8677Y16691D01*
G01X8671Y16690D01*
G01X8664Y16689D01*
G01X8658Y16688D01*
G01X8652Y16686D01*
G01X8645Y16685D01*
G01X8639Y16683D01*
G01X8633Y16681D01*
G01X8627Y16679D01*
G01X8621Y16676D01*
G01X8615Y16674D01*
G01X8609Y16671D01*
G01X8603Y16669D01*
G01X8597Y16666D01*
G01X8591Y16662D01*
G01X8586Y16659D01*
G01X8580Y16656D01*
G01X8575Y16652D01*
G01X8569Y16648D01*
G01X8564Y16645D01*
G01X8559Y16641D01*
G01X8554Y16636D01*
G01X8549Y16632D01*
G01X8544Y16628D01*
G01X8540Y16623D01*
G01X8130Y16213D01*
G01X8125Y16209D01*
G01X8121Y16204D01*
G01X8117Y16199D01*
G01X8112Y16194D01*
G01X8108Y16189D01*
G01X8105Y16184D01*
G01X8101Y16178D01*
G01X8097Y16173D01*
G01X8094Y16167D01*
G01X8091Y16162D01*
G01X8087Y16156D01*
G01X8084Y16150D01*
G01X8082Y16144D01*
G01X8079Y16138D01*
G01X8077Y16132D01*
G01X8074Y16126D01*
G01X8072Y16120D01*
G01X8070Y16114D01*
G01X8068Y16108D01*
G01X8067Y16101D01*
G01X8065Y16095D01*
G01X8064Y16089D01*
G01X8063Y16082D01*
G01X8062Y16076D01*
G01X8061Y16069D01*
G01X8060Y16063D01*
G01X8060Y16056D01*
G01X8060Y16050D01*
G01X8059Y16044D01*
G01X8059Y12394D01*
G01X8060Y12387D01*
G01X8060Y12381D01*
G01X8060Y12374D01*
G01X8061Y12368D01*
G01X8062Y12361D01*
G01X8063Y12355D01*
G01X8064Y12348D01*
G01X8065Y12342D01*
G01X8067Y12336D01*
G01X8068Y12329D01*
G01X8070Y12323D01*
G01X8072Y12317D01*
G01X8074Y12311D01*
G01X8077Y12305D01*
G01X8079Y12299D01*
G01X8082Y12293D01*
G01X8084Y12287D01*
G01X8087Y12281D01*
G01X8091Y12275D01*
G01X8094Y12270D01*
G01X8097Y12264D01*
G01X8101Y12259D01*
G01X8105Y12253D01*
G01X8108Y12248D01*
G01X8112Y12243D01*
G01X8117Y12238D01*
G01X8121Y12233D01*
G01X8125Y12228D01*
G01X8130Y12224D01*
G01X8280Y12074D01*
G01X8284Y12069D01*
G01X8289Y12065D01*
G01X8294Y12061D01*
G01X8299Y12056D01*
G01X8304Y12052D01*
G01X8309Y12049D01*
G01X8315Y12045D01*
G01X8320Y12041D01*
G01X8326Y12038D01*
G01X8331Y12035D01*
G01X8337Y12031D01*
G01X8343Y12028D01*
G01X8349Y12026D01*
G01X8355Y12023D01*
G01X8361Y12021D01*
G01X8367Y12018D01*
G01X8373Y12016D01*
G01X8379Y12014D01*
G01X8385Y12012D01*
G01X8392Y12011D01*
G01X8398Y12009D01*
G01X8404Y12008D01*
G01X8411Y12007D01*
G01X8417Y12006D01*
G01X8424Y12005D01*
G01X8430Y12004D01*
G01X8437Y12004D01*
G01X8443Y12004D01*
G01X8450Y12003D01*
G01X8728Y12003D01*
G01X8698Y12001D01*
G01X8658Y11994D01*
G01X8619Y11983D01*
G01X8580Y11968D01*
G01X8544Y11949D01*
G01X8510Y11927D01*
G01X8478Y11902D01*
G01X8448Y11873D01*
G01X8422Y11842D01*
G01X8399Y11808D01*
G01X8379Y11772D01*
G01X8363Y11734D01*
G01X8351Y11695D01*
G01X8343Y11655D01*
G01X8339Y11614D01*
G01X8339Y11573D01*
G01X8343Y11532D01*
G01X8351Y11492D01*
G01X8363Y11453D01*
G01X8379Y11415D01*
G01X8399Y11379D01*
G01X8422Y11345D01*
G01X8448Y11314D01*
G01X8478Y11285D01*
G01X8510Y11260D01*
G01X8544Y11238D01*
G01X8580Y11219D01*
G01X8619Y11204D01*
G01X8658Y11193D01*
G01X8698Y11186D01*
G01X8739Y11183D01*
G01X8780Y11184D01*
G01X8821Y11189D01*
G01X8861Y11198D01*
G01X8900Y11211D01*
G01X8937Y11228D01*
G01X8972Y11248D01*
G01X9006Y11272D01*
G01X9036Y11299D01*
G01X9059Y11324D01*
G01X9059Y11003D01*
G01X8905Y11003D01*
G01X8905Y10749D01*
G01X9059Y10749D01*
G01X9059Y10438D01*
G01X8905Y10438D01*
G01X8905Y10184D01*
G01X8950Y10184D01*
G01X7430Y8663D01*
G01X7422Y8655D01*
G01X7414Y8645D01*
G01X7406Y8636D01*
G01X7400Y8626D01*
G01X7393Y8616D01*
G01X7387Y8606D01*
G01X7382Y8595D01*
G01X7381Y8594D01*
G01X6412Y7625D01*
G01X6408Y7620D01*
G01X6404Y7615D01*
G01X6400Y7611D01*
G01X6396Y7606D01*
G01X6392Y7601D01*
G01X6388Y7596D01*
G01X6384Y7590D01*
G01X6381Y7585D01*
G01X6378Y7580D01*
G01X6375Y7574D01*
G01X6372Y7569D01*
G01X6369Y7563D01*
G01X6366Y7557D01*
G01X6364Y7552D01*
G01X6361Y7546D01*
G01X6359Y7540D01*
G01X6357Y7534D01*
G01X6355Y7528D01*
G01X6354Y7522D01*
G01X6352Y7516D01*
G01X6351Y7509D01*
G01X6350Y7503D01*
G01X6349Y7497D01*
G01X6348Y7491D01*
G01X6347Y7484D01*
G01X6347Y7478D01*
G01X6347Y7472D01*
G01X6346Y7465D01*
G01X6346Y7116D01*
G01X6334Y7101D01*
G01X6317Y7077D01*
G01X6303Y7051D01*
G01X6292Y7023D01*
G01X6283Y6995D01*
G01X6277Y6966D01*
G01X6274Y6936D01*
G01X6274Y6907D01*
G01X6277Y6877D01*
G01X6283Y6848D01*
G01X6292Y6820D01*
G01X6303Y6792D01*
G01X6317Y6766D01*
G01X6334Y6742D01*
G01X6353Y6719D01*
G01X6374Y6698D01*
G01X6398Y6680D01*
G01X6423Y6664D01*
G01X6449Y6650D01*
G01X6477Y6639D01*
G01X6505Y6631D01*
G01X6534Y6626D01*
G01X6564Y6624D01*
G01X6594Y6624D01*
G01X6623Y6628D01*
G01X6637Y6631D01*
G01X6633Y6610D01*
G01X6630Y6580D01*
G01X6630Y6551D01*
G01X6633Y6521D01*
G01X6639Y6492D01*
G01X6648Y6464D01*
G01X6659Y6436D01*
G01X6673Y6410D01*
G01X6690Y6386D01*
G01X6709Y6363D01*
G01X6730Y6342D01*
G01X6754Y6324D01*
G01X6779Y6308D01*
G01X6805Y6294D01*
G01X6833Y6283D01*
G01X6861Y6275D01*
G01X6890Y6270D01*
G37*
G36*
G01X21384Y6470D02*
G01X21414Y6468D01*
G01X21444Y6468D01*
G01X21473Y6472D01*
G01X21502Y6479D01*
G01X21530Y6488D01*
G01X21557Y6500D01*
G01X21583Y6515D01*
G01X21607Y6533D01*
G01X21629Y6552D01*
G01X21650Y6574D01*
G01X21668Y6598D01*
G01X21683Y6623D01*
G01X21696Y6650D01*
G01X21706Y6678D01*
G01X21713Y6706D01*
G01X21718Y6736D01*
G01X21719Y6765D01*
G01X21718Y6795D01*
G01X21713Y6825D01*
G01X21712Y6831D01*
G01X21740Y6826D01*
G01X21770Y6824D01*
G01X21800Y6824D01*
G01X21829Y6828D01*
G01X21858Y6835D01*
G01X21886Y6844D01*
G01X21913Y6856D01*
G01X21939Y6871D01*
G01X21963Y6889D01*
G01X21985Y6908D01*
G01X22006Y6930D01*
G01X22024Y6954D01*
G01X22039Y6979D01*
G01X22052Y7006D01*
G01X22062Y7034D01*
G01X22069Y7062D01*
G01X22074Y7092D01*
G01X22075Y7122D01*
G01X22074Y7151D01*
G01X22069Y7181D01*
G01X22062Y7209D01*
G01X22052Y7237D01*
G01X22039Y7264D01*
G01X22024Y7289D01*
G01X22006Y7313D01*
G01X21985Y7335D01*
G01X21963Y7354D01*
G01X21939Y7372D01*
G01X21913Y7387D01*
G01X21886Y7399D01*
G01X21858Y7408D01*
G01X21829Y7415D01*
G01X21800Y7419D01*
G01X21770Y7419D01*
G01X21740Y7417D01*
G01X21711Y7412D01*
G01X21683Y7404D01*
G01X21655Y7393D01*
G01X21629Y7379D01*
G01X21604Y7363D01*
G01X21580Y7345D01*
G01X21559Y7324D01*
G01X21540Y7301D01*
G01X21523Y7277D01*
G01X21509Y7251D01*
G01X21498Y7223D01*
G01X21489Y7195D01*
G01X21483Y7166D01*
G01X21480Y7136D01*
G01X21480Y7107D01*
G01X21483Y7077D01*
G01X21487Y7056D01*
G01X21473Y7059D01*
G01X21444Y7063D01*
G01X21414Y7063D01*
G01X21384Y7061D01*
G01X21355Y7056D01*
G01X21327Y7048D01*
G01X21299Y7037D01*
G01X21273Y7023D01*
G01X21248Y7007D01*
G01X21224Y6989D01*
G01X21203Y6968D01*
G01X21184Y6945D01*
G01X21167Y6921D01*
G01X21153Y6895D01*
G01X21142Y6867D01*
G01X21133Y6839D01*
G01X21127Y6810D01*
G01X21124Y6780D01*
G01X21124Y6751D01*
G01X21127Y6721D01*
G01X21133Y6692D01*
G01X21142Y6664D01*
G01X21153Y6636D01*
G01X21167Y6610D01*
G01X21184Y6586D01*
G01X21203Y6563D01*
G01X21224Y6542D01*
G01X21248Y6524D01*
G01X21273Y6508D01*
G01X21299Y6494D01*
G01X21327Y6483D01*
G01X21355Y6475D01*
G01X21384Y6470D01*
G37*
G36*
G01X27537Y27210D02*
G01X27587Y27207D01*
G01X27637Y27208D01*
G01X27686Y27214D01*
G01X27735Y27225D01*
G01X27783Y27241D01*
G01X27828Y27262D01*
G01X27871Y27287D01*
G01X27912Y27316D01*
G01X27949Y27349D01*
G01X27983Y27385D01*
G01X28013Y27425D01*
G01X28039Y27468D01*
G01X28061Y27513D01*
G01X28078Y27560D01*
G01X28091Y27608D01*
G01X28098Y27658D01*
G01X28101Y27707D01*
G01X28098Y27757D01*
G01X28091Y27807D01*
G01X28078Y27855D01*
G01X28061Y27902D01*
G01X28039Y27947D01*
G01X28013Y27990D01*
G01X27983Y28030D01*
G01X27949Y28066D01*
G01X27912Y28099D01*
G01X27871Y28128D01*
G01X27828Y28153D01*
G01X27783Y28174D01*
G01X27735Y28190D01*
G01X27686Y28201D01*
G01X27637Y28207D01*
G01X27587Y28208D01*
G01X27537Y28205D01*
G01X27488Y28196D01*
G01X27440Y28182D01*
G01X27393Y28164D01*
G01X27349Y28141D01*
G01X27307Y28114D01*
G01X27268Y28083D01*
G01X27232Y28048D01*
G01X27200Y28010D01*
G01X27172Y27969D01*
G01X27148Y27925D01*
G01X27129Y27879D01*
G01X27114Y27831D01*
G01X27104Y27782D01*
G01X27099Y27732D01*
G01X27099Y27683D01*
G01X27104Y27633D01*
G01X27114Y27584D01*
G01X27129Y27536D01*
G01X27148Y27490D01*
G01X27172Y27446D01*
G01X27200Y27405D01*
G01X27232Y27367D01*
G01X27268Y27332D01*
G01X27307Y27301D01*
G01X27349Y27274D01*
G01X27393Y27251D01*
G01X27440Y27233D01*
G01X27488Y27219D01*
G01X27537Y27210D01*
G37*
G36*
G01X2413Y24448D02*
G01X2562Y24437D01*
G01X2712Y24441D01*
G01X2860Y24459D01*
G01X3006Y24493D01*
G01X3148Y24540D01*
G01X3284Y24602D01*
G01X3414Y24677D01*
G01X3535Y24764D01*
G01X3648Y24863D01*
G01X3749Y24973D01*
G01X3840Y25092D01*
G01X3918Y25220D01*
G01X3983Y25354D01*
G01X4034Y25495D01*
G01X4071Y25640D01*
G01X4093Y25788D01*
G01X4101Y25938D01*
G01X4093Y26087D01*
G01X4071Y26235D01*
G01X4034Y26380D01*
G01X3983Y26521D01*
G01X3918Y26655D01*
G01X3840Y26783D01*
G01X3749Y26902D01*
G01X3648Y27012D01*
G01X3535Y27111D01*
G01X3414Y27198D01*
G01X3284Y27273D01*
G01X3148Y27335D01*
G01X3006Y27382D01*
G01X2860Y27416D01*
G01X2712Y27434D01*
G01X2562Y27438D01*
G01X2413Y27427D01*
G01X2265Y27401D01*
G01X2121Y27360D01*
G01X1982Y27306D01*
G01X1849Y27237D01*
G01X1723Y27156D01*
G01X1606Y27063D01*
G01X1499Y26958D01*
G01X1403Y26844D01*
G01X1319Y26720D01*
G01X1247Y26589D01*
G01X1189Y26451D01*
G01X1145Y26308D01*
G01X1115Y26161D01*
G01X1100Y26012D01*
G01X1100Y25863D01*
G01X1115Y25714D01*
G01X1145Y25567D01*
G01X1189Y25424D01*
G01X1247Y25286D01*
G01X1319Y25155D01*
G01X1403Y25031D01*
G01X1499Y24917D01*
G01X1606Y24812D01*
G01X1723Y24719D01*
G01X1849Y24638D01*
G01X1982Y24569D01*
G01X2121Y24515D01*
G01X2265Y24474D01*
G01X2413Y24448D01*
G37*
G36*
G01X25613Y24418D02*
G01X25762Y24407D01*
G01X25912Y24411D01*
G01X26060Y24429D01*
G01X26206Y24463D01*
G01X26348Y24510D01*
G01X26484Y24572D01*
G01X26614Y24647D01*
G01X26735Y24734D01*
G01X26848Y24833D01*
G01X26949Y24943D01*
G01X27040Y25062D01*
G01X27118Y25190D01*
G01X27183Y25324D01*
G01X27234Y25465D01*
G01X27271Y25610D01*
G01X27293Y25758D01*
G01X27301Y25907D01*
G01X27293Y26057D01*
G01X27271Y26205D01*
G01X27234Y26350D01*
G01X27183Y26491D01*
G01X27118Y26625D01*
G01X27040Y26753D01*
G01X26949Y26872D01*
G01X26848Y26982D01*
G01X26735Y27081D01*
G01X26614Y27168D01*
G01X26484Y27243D01*
G01X26348Y27305D01*
G01X26206Y27352D01*
G01X26060Y27386D01*
G01X25912Y27404D01*
G01X25762Y27408D01*
G01X25613Y27397D01*
G01X25465Y27371D01*
G01X25321Y27330D01*
G01X25182Y27276D01*
G01X25049Y27207D01*
G01X24923Y27126D01*
G01X24806Y27033D01*
G01X24699Y26928D01*
G01X24603Y26814D01*
G01X24519Y26690D01*
G01X24447Y26559D01*
G01X24389Y26421D01*
G01X24345Y26278D01*
G01X24315Y26131D01*
G01X24300Y25982D01*
G01X24300Y25833D01*
G01X24315Y25684D01*
G01X24345Y25537D01*
G01X24389Y25394D01*
G01X24447Y25256D01*
G01X24519Y25125D01*
G01X24603Y25001D01*
G01X24699Y24887D01*
G01X24806Y24782D01*
G01X24923Y24689D01*
G01X25049Y24608D01*
G01X25182Y24539D01*
G01X25321Y24485D01*
G01X25465Y24444D01*
G01X25613Y24418D01*
G37*
G36*
G01X22390Y22020D02*
G01X22420Y22018D01*
G01X22450Y22018D01*
G01X22479Y22022D01*
G01X22508Y22029D01*
G01X22536Y22038D01*
G01X22563Y22050D01*
G01X22589Y22065D01*
G01X22613Y22083D01*
G01X22635Y22102D01*
G01X22656Y22124D01*
G01X22674Y22148D01*
G01X22689Y22173D01*
G01X22702Y22200D01*
G01X22712Y22228D01*
G01X22719Y22256D01*
G01X22724Y22286D01*
G01X22725Y22315D01*
G01X22724Y22345D01*
G01X22719Y22375D01*
G01X22712Y22403D01*
G01X22702Y22431D01*
G01X22689Y22458D01*
G01X22674Y22483D01*
G01X22656Y22507D01*
G01X22635Y22529D01*
G01X22613Y22548D01*
G01X22589Y22566D01*
G01X22563Y22581D01*
G01X22536Y22593D01*
G01X22508Y22602D01*
G01X22479Y22609D01*
G01X22450Y22613D01*
G01X22420Y22613D01*
G01X22390Y22611D01*
G01X22362Y22606D01*
G01X22363Y22612D01*
G01X22368Y22642D01*
G01X22369Y22672D01*
G01X22368Y22701D01*
G01X22363Y22731D01*
G01X22356Y22759D01*
G01X22346Y22787D01*
G01X22333Y22814D01*
G01X22318Y22839D01*
G01X22300Y22863D01*
G01X22279Y22885D01*
G01X22257Y22904D01*
G01X22233Y22922D01*
G01X22207Y22937D01*
G01X22180Y22949D01*
G01X22152Y22958D01*
G01X22123Y22965D01*
G01X22094Y22969D01*
G01X22064Y22969D01*
G01X22034Y22967D01*
G01X22005Y22962D01*
G01X21977Y22954D01*
G01X21949Y22943D01*
G01X21923Y22929D01*
G01X21898Y22913D01*
G01X21874Y22895D01*
G01X21853Y22874D01*
G01X21834Y22851D01*
G01X21817Y22827D01*
G01X21803Y22801D01*
G01X21792Y22773D01*
G01X21783Y22745D01*
G01X21777Y22716D01*
G01X21774Y22686D01*
G01X21774Y22657D01*
G01X21777Y22627D01*
G01X21783Y22598D01*
G01X21792Y22570D01*
G01X21803Y22542D01*
G01X21817Y22516D01*
G01X21834Y22492D01*
G01X21853Y22469D01*
G01X21874Y22448D01*
G01X21898Y22430D01*
G01X21923Y22414D01*
G01X21949Y22400D01*
G01X21977Y22389D01*
G01X22005Y22381D01*
G01X22034Y22376D01*
G01X22064Y22374D01*
G01X22094Y22374D01*
G01X22123Y22378D01*
G01X22137Y22381D01*
G01X22133Y22360D01*
G01X22130Y22330D01*
G01X22130Y22301D01*
G01X22133Y22271D01*
G01X22139Y22242D01*
G01X22148Y22214D01*
G01X22159Y22186D01*
G01X22173Y22160D01*
G01X22190Y22136D01*
G01X22209Y22113D01*
G01X22230Y22092D01*
G01X22254Y22074D01*
G01X22279Y22058D01*
G01X22305Y22044D01*
G01X22333Y22033D01*
G01X22361Y22025D01*
G01X22390Y22020D01*
G37*
G36*
G01X9202Y8132D02*
G01X9224Y8131D01*
G01X9246Y8131D01*
G01X9268Y8134D01*
G01X9290Y8139D01*
G01X9311Y8146D01*
G01X9331Y8155D01*
G01X9350Y8166D01*
G01X9369Y8179D01*
G01X9385Y8194D01*
G01X9400Y8210D01*
G01X9414Y8228D01*
G01X9425Y8247D01*
G01X9435Y8267D01*
G01X9443Y8288D01*
G01X9448Y8309D01*
G01X9450Y8319D01*
G01X9794Y8663D01*
G01X12350Y8663D01*
G01X12355Y8664D01*
G01X12361Y8664D01*
G01X12366Y8664D01*
G01X12372Y8665D01*
G01X12378Y8666D01*
G01X12383Y8667D01*
G01X12389Y8668D01*
G01X12394Y8669D01*
G01X12400Y8671D01*
G01X12405Y8672D01*
G01X12410Y8674D01*
G01X12416Y8676D01*
G01X12421Y8678D01*
G01X12426Y8681D01*
G01X12431Y8683D01*
G01X12436Y8686D01*
G01X12441Y8689D01*
G01X12446Y8692D01*
G01X12451Y8695D01*
G01X12455Y8698D01*
G01X12460Y8701D01*
G01X12464Y8705D01*
G01X12469Y8708D01*
G01X12473Y8712D01*
G01X12477Y8716D01*
G01X12674Y8913D01*
G01X14162Y8913D01*
G01X14159Y8910D01*
G01X14149Y8890D01*
G01X14140Y8870D01*
G01X14133Y8849D01*
G01X14129Y8827D01*
G01X14127Y8805D01*
G01X14127Y8782D01*
G01X14129Y8760D01*
G01X14133Y8738D01*
G01X14140Y8717D01*
G01X14149Y8697D01*
G01X14159Y8677D01*
G01X14172Y8659D01*
G01X14186Y8642D01*
G01X14202Y8626D01*
G01X14219Y8612D01*
G01X14238Y8600D01*
G01X14258Y8590D01*
G01X14278Y8582D01*
G01X14300Y8576D01*
G01X14322Y8572D01*
G01X14344Y8571D01*
G01X14366Y8571D01*
G01X14388Y8574D01*
G01X14410Y8579D01*
G01X14431Y8586D01*
G01X14451Y8595D01*
G01X14470Y8606D01*
G01X14481Y8613D01*
G01X15600Y8613D01*
G01X15605Y8614D01*
G01X15611Y8614D01*
G01X15616Y8614D01*
G01X15622Y8615D01*
G01X15628Y8616D01*
G01X15633Y8617D01*
G01X15639Y8618D01*
G01X15644Y8619D01*
G01X15650Y8621D01*
G01X15655Y8622D01*
G01X15660Y8624D01*
G01X15666Y8626D01*
G01X15671Y8628D01*
G01X15676Y8631D01*
G01X15681Y8633D01*
G01X15686Y8636D01*
G01X15691Y8639D01*
G01X15696Y8642D01*
G01X15701Y8645D01*
G01X15705Y8648D01*
G01X15710Y8651D01*
G01X15714Y8655D01*
G01X15719Y8658D01*
G01X15723Y8662D01*
G01X15727Y8666D01*
G01X15987Y8926D01*
G01X15991Y8930D01*
G01X15995Y8934D01*
G01X15998Y8939D01*
G01X16002Y8943D01*
G01X16005Y8948D01*
G01X16008Y8952D01*
G01X16011Y8957D01*
G01X16014Y8962D01*
G01X16017Y8967D01*
G01X16020Y8972D01*
G01X16022Y8977D01*
G01X16025Y8982D01*
G01X16027Y8987D01*
G01X16029Y8993D01*
G01X16031Y8998D01*
G01X16032Y9003D01*
G01X16034Y9009D01*
G01X16035Y9014D01*
G01X16036Y9020D01*
G01X16037Y9025D01*
G01X16038Y9031D01*
G01X16039Y9037D01*
G01X16039Y9042D01*
G01X16039Y9048D01*
G01X16039Y9053D01*
G01X16039Y10272D01*
G01X16044Y10278D01*
G01X16055Y10297D01*
G01X16065Y10317D01*
G01X16073Y10338D01*
G01X16078Y10359D01*
G01X16080Y10369D01*
G01X16624Y10913D01*
G01X17368Y10913D01*
G01X17369Y10912D01*
G01X17388Y10900D01*
G01X17408Y10890D01*
G01X17428Y10882D01*
G01X17450Y10876D01*
G01X17472Y10872D01*
G01X17494Y10871D01*
G01X17516Y10871D01*
G01X17538Y10874D01*
G01X17560Y10879D01*
G01X17581Y10886D01*
G01X17601Y10895D01*
G01X17620Y10906D01*
G01X17639Y10919D01*
G01X17655Y10934D01*
G01X17670Y10950D01*
G01X17684Y10968D01*
G01X17695Y10987D01*
G01X17705Y11007D01*
G01X17713Y11028D01*
G01X17718Y11049D01*
G01X17721Y11071D01*
G01X17722Y11094D01*
G01X17721Y11116D01*
G01X17718Y11138D01*
G01X17713Y11159D01*
G01X17705Y11180D01*
G01X17695Y11200D01*
G01X17684Y11219D01*
G01X17673Y11234D01*
G01X18133Y11234D01*
G01X18239Y11127D01*
G01X18239Y10594D01*
G01X18240Y10588D01*
G01X18240Y10583D01*
G01X18240Y10577D01*
G01X18241Y10572D01*
G01X18242Y10566D01*
G01X18243Y10561D01*
G01X18244Y10556D01*
G01X18245Y10550D01*
G01X18247Y10545D01*
G01X18249Y10540D01*
G01X18251Y10535D01*
G01X18253Y10530D01*
G01X18255Y10525D01*
G01X18257Y10520D01*
G01X18260Y10515D01*
G01X18263Y10510D01*
G01X18266Y10506D01*
G01X18269Y10501D01*
G01X18272Y10497D01*
G01X18275Y10493D01*
G01X18279Y10488D01*
G01X18283Y10484D01*
G01X18286Y10480D01*
G01X18386Y10380D01*
G01X18390Y10377D01*
G01X18394Y10373D01*
G01X18399Y10369D01*
G01X18403Y10366D01*
G01X18407Y10363D01*
G01X18412Y10360D01*
G01X18416Y10357D01*
G01X18421Y10354D01*
G01X18426Y10351D01*
G01X18431Y10349D01*
G01X18436Y10347D01*
G01X18441Y10345D01*
G01X18446Y10343D01*
G01X18451Y10341D01*
G01X18456Y10339D01*
G01X18462Y10338D01*
G01X18467Y10337D01*
G01X18472Y10336D01*
G01X18478Y10335D01*
G01X18483Y10334D01*
G01X18489Y10334D01*
G01X18494Y10334D01*
G01X18500Y10334D01*
G01X19083Y10334D01*
G01X19089Y10327D01*
G01X19089Y9410D01*
G01X19083Y9403D01*
G01X18805Y9403D01*
G01X18789Y9418D01*
G01X18770Y9431D01*
G01X18751Y9442D01*
G01X18731Y9451D01*
G01X18710Y9458D01*
G01X18688Y9463D01*
G01X18666Y9466D01*
G01X18644Y9466D01*
G01X18622Y9465D01*
G01X18600Y9461D01*
G01X18578Y9455D01*
G01X18558Y9447D01*
G01X18538Y9437D01*
G01X18519Y9425D01*
G01X18502Y9411D01*
G01X18486Y9395D01*
G01X18472Y9378D01*
G01X18459Y9360D01*
G01X18449Y9340D01*
G01X18440Y9320D01*
G01X18433Y9299D01*
G01X18429Y9277D01*
G01X18427Y9255D01*
G01X18427Y9232D01*
G01X18429Y9210D01*
G01X18433Y9188D01*
G01X18440Y9167D01*
G01X18449Y9147D01*
G01X18459Y9127D01*
G01X18472Y9109D01*
G01X18486Y9092D01*
G01X18502Y9076D01*
G01X18519Y9062D01*
G01X18538Y9050D01*
G01X18558Y9040D01*
G01X18578Y9032D01*
G01X18600Y9026D01*
G01X18622Y9022D01*
G01X18644Y9021D01*
G01X18666Y9021D01*
G01X18688Y9024D01*
G01X18710Y9029D01*
G01X18731Y9036D01*
G01X18751Y9045D01*
G01X18770Y9056D01*
G01X18789Y9069D01*
G01X18805Y9084D01*
G01X19150Y9084D01*
G01X19155Y9084D01*
G01X19160Y9084D01*
G01X19166Y9084D01*
G01X19171Y9085D01*
G01X19177Y9086D01*
G01X19182Y9087D01*
G01X19187Y9088D01*
G01X19193Y9089D01*
G01X19198Y9091D01*
G01X19203Y9093D01*
G01X19208Y9095D01*
G01X19213Y9097D01*
G01X19218Y9099D01*
G01X19223Y9101D01*
G01X19228Y9104D01*
G01X19233Y9107D01*
G01X19237Y9110D01*
G01X19242Y9113D01*
G01X19246Y9116D01*
G01X19250Y9119D01*
G01X19255Y9123D01*
G01X19259Y9127D01*
G01X19263Y9130D01*
G01X19363Y9230D01*
G01X19366Y9234D01*
G01X19370Y9238D01*
G01X19374Y9243D01*
G01X19377Y9247D01*
G01X19380Y9251D01*
G01X19383Y9256D01*
G01X19386Y9260D01*
G01X19389Y9265D01*
G01X19392Y9270D01*
G01X19394Y9275D01*
G01X19396Y9280D01*
G01X19398Y9285D01*
G01X19400Y9290D01*
G01X19402Y9295D01*
G01X19404Y9300D01*
G01X19405Y9306D01*
G01X19406Y9311D01*
G01X19407Y9316D01*
G01X19408Y9322D01*
G01X19409Y9327D01*
G01X19409Y9333D01*
G01X19409Y9338D01*
G01X19410Y9344D01*
G01X19410Y10394D01*
G01X19409Y10399D01*
G01X19409Y10404D01*
G01X19409Y10410D01*
G01X19408Y10415D01*
G01X19407Y10421D01*
G01X19406Y10426D01*
G01X19405Y10431D01*
G01X19404Y10437D01*
G01X19402Y10442D01*
G01X19400Y10447D01*
G01X19398Y10452D01*
G01X19396Y10457D01*
G01X19394Y10462D01*
G01X19392Y10467D01*
G01X19389Y10472D01*
G01X19386Y10477D01*
G01X19383Y10481D01*
G01X19380Y10486D01*
G01X19377Y10490D01*
G01X19374Y10494D01*
G01X19370Y10499D01*
G01X19366Y10503D01*
G01X19363Y10507D01*
G01X19263Y10607D01*
G01X19259Y10610D01*
G01X19255Y10614D01*
G01X19250Y10618D01*
G01X19246Y10621D01*
G01X19242Y10624D01*
G01X19237Y10627D01*
G01X19233Y10630D01*
G01X19228Y10633D01*
G01X19223Y10636D01*
G01X19218Y10638D01*
G01X19213Y10640D01*
G01X19208Y10642D01*
G01X19203Y10644D01*
G01X19198Y10646D01*
G01X19193Y10648D01*
G01X19187Y10649D01*
G01X19182Y10650D01*
G01X19177Y10651D01*
G01X19171Y10652D01*
G01X19166Y10653D01*
G01X19160Y10653D01*
G01X19155Y10653D01*
G01X19150Y10653D01*
G01X18566Y10653D01*
G01X18560Y10660D01*
G01X18560Y11194D01*
G01X18559Y11199D01*
G01X18559Y11204D01*
G01X18559Y11210D01*
G01X18558Y11215D01*
G01X18557Y11221D01*
G01X18556Y11226D01*
G01X18555Y11231D01*
G01X18554Y11237D01*
G01X18552Y11242D01*
G01X18550Y11247D01*
G01X18548Y11252D01*
G01X18546Y11257D01*
G01X18544Y11262D01*
G01X18542Y11267D01*
G01X18539Y11272D01*
G01X18536Y11277D01*
G01X18533Y11281D01*
G01X18530Y11286D01*
G01X18527Y11290D01*
G01X18524Y11294D01*
G01X18520Y11299D01*
G01X18516Y11303D01*
G01X18513Y11307D01*
G01X18313Y11507D01*
G01X18309Y11510D01*
G01X18305Y11514D01*
G01X18300Y11518D01*
G01X18296Y11521D01*
G01X18292Y11524D01*
G01X18287Y11527D01*
G01X18283Y11530D01*
G01X18278Y11533D01*
G01X18273Y11536D01*
G01X18268Y11538D01*
G01X18263Y11540D01*
G01X18258Y11542D01*
G01X18253Y11544D01*
G01X18248Y11546D01*
G01X18243Y11548D01*
G01X18237Y11549D01*
G01X18232Y11550D01*
G01X18227Y11551D01*
G01X18221Y11552D01*
G01X18216Y11553D01*
G01X18210Y11553D01*
G01X18205Y11553D01*
G01X18200Y11553D01*
G01X16555Y11553D01*
G01X16539Y11568D01*
G01X16520Y11581D01*
G01X16501Y11592D01*
G01X16481Y11601D01*
G01X16460Y11608D01*
G01X16438Y11613D01*
G01X16416Y11616D01*
G01X16394Y11616D01*
G01X16372Y11615D01*
G01X16350Y11611D01*
G01X16328Y11605D01*
G01X16308Y11597D01*
G01X16288Y11587D01*
G01X16269Y11575D01*
G01X16252Y11561D01*
G01X16236Y11545D01*
G01X16222Y11528D01*
G01X16209Y11510D01*
G01X16199Y11490D01*
G01X16190Y11470D01*
G01X16183Y11449D01*
G01X16179Y11427D01*
G01X16177Y11405D01*
G01X16177Y11382D01*
G01X16179Y11360D01*
G01X16183Y11338D01*
G01X16190Y11317D01*
G01X16199Y11297D01*
G01X16209Y11277D01*
G01X16222Y11259D01*
G01X16236Y11242D01*
G01X16252Y11226D01*
G01X16269Y11212D01*
G01X16288Y11200D01*
G01X16308Y11190D01*
G01X16328Y11182D01*
G01X16350Y11176D01*
G01X16372Y11172D01*
G01X16374Y11172D01*
G01X15825Y10624D01*
G01X15810Y10621D01*
G01X15788Y10615D01*
G01X15768Y10607D01*
G01X15748Y10597D01*
G01X15729Y10585D01*
G01X15712Y10571D01*
G01X15696Y10555D01*
G01X15682Y10538D01*
G01X15680Y10535D01*
G01X15680Y11369D01*
G01X15977Y11666D01*
G01X15981Y11670D01*
G01X15985Y11674D01*
G01X15988Y11679D01*
G01X15992Y11683D01*
G01X15995Y11688D01*
G01X15998Y11692D01*
G01X16001Y11697D01*
G01X16004Y11702D01*
G01X16007Y11707D01*
G01X16010Y11712D01*
G01X16012Y11717D01*
G01X16015Y11722D01*
G01X16017Y11727D01*
G01X16019Y11733D01*
G01X16021Y11738D01*
G01X16022Y11743D01*
G01X16024Y11749D01*
G01X16025Y11754D01*
G01X16026Y11760D01*
G01X16027Y11765D01*
G01X16028Y11771D01*
G01X16029Y11777D01*
G01X16029Y11782D01*
G01X16029Y11788D01*
G01X16030Y11794D01*
G01X16030Y12119D01*
G01X16124Y12213D01*
G01X16950Y12213D01*
G01X16955Y12214D01*
G01X16961Y12214D01*
G01X16966Y12214D01*
G01X16972Y12215D01*
G01X16978Y12216D01*
G01X16983Y12217D01*
G01X16989Y12218D01*
G01X16994Y12219D01*
G01X17000Y12221D01*
G01X17005Y12222D01*
G01X17010Y12224D01*
G01X17016Y12226D01*
G01X17021Y12228D01*
G01X17026Y12231D01*
G01X17031Y12233D01*
G01X17036Y12236D01*
G01X17041Y12239D01*
G01X17046Y12242D01*
G01X17051Y12245D01*
G01X17055Y12248D01*
G01X17060Y12251D01*
G01X17064Y12255D01*
G01X17069Y12258D01*
G01X17073Y12262D01*
G01X17077Y12266D01*
G01X17234Y12423D01*
G01X17238Y12424D01*
G01X17260Y12429D01*
G01X17281Y12436D01*
G01X17301Y12445D01*
G01X17320Y12456D01*
G01X17339Y12469D01*
G01X17355Y12484D01*
G01X17370Y12500D01*
G01X17384Y12518D01*
G01X17395Y12537D01*
G01X17405Y12557D01*
G01X17413Y12578D01*
G01X17418Y12599D01*
G01X17421Y12621D01*
G01X17422Y12644D01*
G01X17421Y12666D01*
G01X17418Y12688D01*
G01X17413Y12709D01*
G01X17405Y12730D01*
G01X17395Y12750D01*
G01X17384Y12769D01*
G01X17370Y12787D01*
G01X17355Y12803D01*
G01X17339Y12818D01*
G01X17320Y12831D01*
G01X17301Y12842D01*
G01X17281Y12851D01*
G01X17260Y12858D01*
G01X17238Y12863D01*
G01X17216Y12866D01*
G01X17194Y12866D01*
G01X17172Y12865D01*
G01X17150Y12861D01*
G01X17128Y12855D01*
G01X17108Y12847D01*
G01X17088Y12837D01*
G01X17069Y12825D01*
G01X17052Y12811D01*
G01X17036Y12795D01*
G01X17022Y12778D01*
G01X17009Y12760D01*
G01X16999Y12740D01*
G01X16990Y12720D01*
G01X16983Y12699D01*
G01X16979Y12678D01*
G01X16875Y12574D01*
G01X16050Y12574D01*
G01X16044Y12573D01*
G01X16038Y12573D01*
G01X16033Y12573D01*
G01X16027Y12572D01*
G01X16021Y12571D01*
G01X16016Y12570D01*
G01X16010Y12569D01*
G01X16005Y12568D01*
G01X15999Y12566D01*
G01X15994Y12565D01*
G01X15989Y12563D01*
G01X15983Y12561D01*
G01X15978Y12559D01*
G01X15973Y12556D01*
G01X15968Y12554D01*
G01X15963Y12551D01*
G01X15958Y12548D01*
G01X15953Y12545D01*
G01X15948Y12542D01*
G01X15944Y12539D01*
G01X15939Y12536D01*
G01X15935Y12532D01*
G01X15930Y12529D01*
G01X15926Y12525D01*
G01X15922Y12521D01*
G01X15722Y12321D01*
G01X15718Y12317D01*
G01X15714Y12313D01*
G01X15711Y12308D01*
G01X15707Y12304D01*
G01X15704Y12299D01*
G01X15701Y12295D01*
G01X15698Y12290D01*
G01X15695Y12285D01*
G01X15692Y12280D01*
G01X15689Y12275D01*
G01X15687Y12270D01*
G01X15684Y12265D01*
G01X15682Y12260D01*
G01X15680Y12254D01*
G01X15678Y12249D01*
G01X15677Y12244D01*
G01X15675Y12238D01*
G01X15674Y12233D01*
G01X15673Y12227D01*
G01X15672Y12222D01*
G01X15671Y12216D01*
G01X15670Y12210D01*
G01X15670Y12205D01*
G01X15670Y12199D01*
G01X15669Y12194D01*
G01X15669Y11868D01*
G01X15372Y11571D01*
G01X15368Y11567D01*
G01X15364Y11563D01*
G01X15361Y11558D01*
G01X15357Y11554D01*
G01X15354Y11549D01*
G01X15351Y11545D01*
G01X15348Y11540D01*
G01X15345Y11535D01*
G01X15342Y11530D01*
G01X15339Y11525D01*
G01X15337Y11520D01*
G01X15334Y11515D01*
G01X15332Y11510D01*
G01X15330Y11504D01*
G01X15328Y11499D01*
G01X15327Y11494D01*
G01X15325Y11488D01*
G01X15324Y11483D01*
G01X15323Y11477D01*
G01X15322Y11472D01*
G01X15321Y11466D01*
G01X15320Y11460D01*
G01X15320Y11455D01*
G01X15320Y11449D01*
G01X15319Y11444D01*
G01X15319Y9274D01*
G01X12600Y9274D01*
G01X12594Y9273D01*
G01X12588Y9273D01*
G01X12583Y9273D01*
G01X12577Y9272D01*
G01X12571Y9271D01*
G01X12566Y9270D01*
G01X12560Y9269D01*
G01X12555Y9268D01*
G01X12549Y9266D01*
G01X12544Y9265D01*
G01X12539Y9263D01*
G01X12533Y9261D01*
G01X12528Y9259D01*
G01X12523Y9256D01*
G01X12518Y9254D01*
G01X12513Y9251D01*
G01X12508Y9248D01*
G01X12503Y9245D01*
G01X12498Y9242D01*
G01X12494Y9239D01*
G01X12489Y9236D01*
G01X12485Y9232D01*
G01X12480Y9229D01*
G01X12476Y9225D01*
G01X12472Y9221D01*
G01X12275Y9024D01*
G01X9719Y9024D01*
G01X9714Y9023D01*
G01X9708Y9023D01*
G01X9703Y9023D01*
G01X9697Y9022D01*
G01X9691Y9021D01*
G01X9686Y9020D01*
G01X9680Y9019D01*
G01X9675Y9018D01*
G01X9669Y9016D01*
G01X9664Y9015D01*
G01X9659Y9013D01*
G01X9653Y9011D01*
G01X9648Y9009D01*
G01X9643Y9006D01*
G01X9638Y9004D01*
G01X9633Y9001D01*
G01X9628Y8998D01*
G01X9623Y8995D01*
G01X9618Y8992D01*
G01X9614Y8989D01*
G01X9609Y8986D01*
G01X9605Y8982D01*
G01X9600Y8979D01*
G01X9596Y8975D01*
G01X9592Y8971D01*
G01X9195Y8574D01*
G01X9180Y8571D01*
G01X9158Y8565D01*
G01X9138Y8557D01*
G01X9118Y8547D01*
G01X9099Y8535D01*
G01X9082Y8521D01*
G01X9066Y8505D01*
G01X9052Y8488D01*
G01X9039Y8470D01*
G01X9029Y8450D01*
G01X9020Y8430D01*
G01X9013Y8409D01*
G01X9009Y8387D01*
G01X9007Y8365D01*
G01X9007Y8342D01*
G01X9009Y8320D01*
G01X9013Y8298D01*
G01X9020Y8277D01*
G01X9029Y8257D01*
G01X9039Y8237D01*
G01X9052Y8219D01*
G01X9066Y8202D01*
G01X9082Y8186D01*
G01X9099Y8172D01*
G01X9118Y8160D01*
G01X9138Y8150D01*
G01X9158Y8142D01*
G01X9180Y8136D01*
G01X9202Y8132D01*
G37*
G36*
G01X5834Y21920D02*
G01X5864Y21918D01*
G01X5894Y21918D01*
G01X5923Y21922D01*
G01X5952Y21929D01*
G01X5980Y21938D01*
G01X6007Y21950D01*
G01X6033Y21965D01*
G01X6057Y21983D01*
G01X6079Y22002D01*
G01X6100Y22024D01*
G01X6118Y22048D01*
G01X6133Y22073D01*
G01X6146Y22100D01*
G01X6156Y22128D01*
G01X6163Y22156D01*
G01X6168Y22186D01*
G01X6169Y22215D01*
G01X6168Y22245D01*
G01X6163Y22275D01*
G01X6162Y22281D01*
G01X6190Y22276D01*
G01X6220Y22274D01*
G01X6250Y22274D01*
G01X6279Y22278D01*
G01X6308Y22285D01*
G01X6336Y22294D01*
G01X6363Y22306D01*
G01X6389Y22321D01*
G01X6413Y22339D01*
G01X6435Y22358D01*
G01X6456Y22380D01*
G01X6474Y22404D01*
G01X6489Y22429D01*
G01X6502Y22456D01*
G01X6512Y22484D01*
G01X6519Y22512D01*
G01X6524Y22542D01*
G01X6525Y22572D01*
G01X6524Y22601D01*
G01X6519Y22631D01*
G01X6512Y22659D01*
G01X6502Y22687D01*
G01X6489Y22714D01*
G01X6474Y22739D01*
G01X6456Y22763D01*
G01X6435Y22785D01*
G01X6413Y22804D01*
G01X6389Y22822D01*
G01X6363Y22837D01*
G01X6336Y22849D01*
G01X6308Y22858D01*
G01X6279Y22865D01*
G01X6250Y22869D01*
G01X6220Y22869D01*
G01X6190Y22867D01*
G01X6161Y22862D01*
G01X6133Y22854D01*
G01X6105Y22843D01*
G01X6079Y22829D01*
G01X6054Y22813D01*
G01X6030Y22795D01*
G01X6009Y22774D01*
G01X5990Y22751D01*
G01X5973Y22727D01*
G01X5959Y22701D01*
G01X5948Y22673D01*
G01X5939Y22645D01*
G01X5933Y22616D01*
G01X5930Y22586D01*
G01X5930Y22557D01*
G01X5933Y22527D01*
G01X5937Y22506D01*
G01X5923Y22509D01*
G01X5894Y22513D01*
G01X5864Y22513D01*
G01X5834Y22511D01*
G01X5805Y22506D01*
G01X5777Y22498D01*
G01X5749Y22487D01*
G01X5723Y22473D01*
G01X5698Y22457D01*
G01X5674Y22439D01*
G01X5653Y22418D01*
G01X5634Y22395D01*
G01X5617Y22371D01*
G01X5603Y22345D01*
G01X5592Y22317D01*
G01X5583Y22289D01*
G01X5577Y22260D01*
G01X5574Y22230D01*
G01X5574Y22201D01*
G01X5577Y22171D01*
G01X5583Y22142D01*
G01X5592Y22114D01*
G01X5603Y22086D01*
G01X5617Y22060D01*
G01X5634Y22036D01*
G01X5653Y22013D01*
G01X5674Y21992D01*
G01X5698Y21974D01*
G01X5723Y21958D01*
G01X5749Y21944D01*
G01X5777Y21933D01*
G01X5805Y21925D01*
G01X5834Y21920D01*
G37*
G36*
G01X20222Y8972D02*
G01X20244Y8971D01*
G01X20266Y8971D01*
G01X20288Y8974D01*
G01X20310Y8979D01*
G01X20331Y8986D01*
G01X20351Y8995D01*
G01X20370Y9006D01*
G01X20389Y9019D01*
G01X20405Y9034D01*
G01X20420Y9050D01*
G01X20434Y9068D01*
G01X20445Y9087D01*
G01X20455Y9107D01*
G01X20463Y9128D01*
G01X20468Y9149D01*
G01X20471Y9171D01*
G01X20472Y9194D01*
G01X20471Y9216D01*
G01X20468Y9238D01*
G01X20463Y9259D01*
G01X20455Y9280D01*
G01X20445Y9300D01*
G01X20434Y9319D01*
G01X20420Y9337D01*
G01X20410Y9349D01*
G01X20410Y9544D01*
G01X20409Y9549D01*
G01X20409Y9554D01*
G01X20409Y9560D01*
G01X20408Y9565D01*
G01X20407Y9571D01*
G01X20406Y9576D01*
G01X20405Y9581D01*
G01X20404Y9587D01*
G01X20402Y9592D01*
G01X20400Y9597D01*
G01X20398Y9602D01*
G01X20396Y9607D01*
G01X20394Y9612D01*
G01X20392Y9617D01*
G01X20389Y9622D01*
G01X20386Y9627D01*
G01X20383Y9631D01*
G01X20380Y9636D01*
G01X20377Y9640D01*
G01X20374Y9644D01*
G01X20370Y9649D01*
G01X20366Y9653D01*
G01X20363Y9657D01*
G01X20110Y9910D01*
G01X20110Y11494D01*
G01X20109Y11499D01*
G01X20109Y11504D01*
G01X20109Y11510D01*
G01X20108Y11515D01*
G01X20107Y11521D01*
G01X20106Y11526D01*
G01X20105Y11531D01*
G01X20104Y11537D01*
G01X20102Y11542D01*
G01X20100Y11547D01*
G01X20098Y11552D01*
G01X20096Y11557D01*
G01X20094Y11562D01*
G01X20092Y11567D01*
G01X20089Y11572D01*
G01X20086Y11577D01*
G01X20083Y11581D01*
G01X20080Y11586D01*
G01X20077Y11590D01*
G01X20074Y11594D01*
G01X20070Y11599D01*
G01X20066Y11603D01*
G01X20063Y11607D01*
G01X19813Y11857D01*
G01X19809Y11860D01*
G01X19805Y11864D01*
G01X19800Y11868D01*
G01X19796Y11871D01*
G01X19792Y11874D01*
G01X19787Y11877D01*
G01X19783Y11880D01*
G01X19778Y11883D01*
G01X19773Y11886D01*
G01X19768Y11888D01*
G01X19763Y11890D01*
G01X19758Y11892D01*
G01X19753Y11894D01*
G01X19748Y11896D01*
G01X19743Y11898D01*
G01X19737Y11899D01*
G01X19732Y11900D01*
G01X19727Y11901D01*
G01X19721Y11902D01*
G01X19716Y11903D01*
G01X19710Y11903D01*
G01X19705Y11903D01*
G01X19700Y11903D01*
G01X19116Y11903D01*
G01X19060Y11960D01*
G01X19060Y16294D01*
G01X19059Y16297D01*
G01X19059Y16299D01*
G01X19059Y16301D01*
G01X19059Y16301D01*
G01X19059Y16304D01*
G01X19059Y16307D01*
G01X19059Y16309D01*
G01X19059Y16309D01*
G01X19058Y16312D01*
G01X19058Y16315D01*
G01X19058Y16316D01*
G01X19058Y16317D01*
G01X19057Y16320D01*
G01X19057Y16323D01*
G01X19057Y16324D01*
G01X19056Y16325D01*
G01X19056Y16328D01*
G01X19055Y16331D01*
G01X19055Y16332D01*
G01X19055Y16333D01*
G01X19054Y16336D01*
G01X19053Y16339D01*
G01X19053Y16340D01*
G01X19052Y16341D01*
G01X19051Y16343D01*
G01X19051Y16346D01*
G01X19050Y16347D01*
G01X19050Y16348D01*
G01X19049Y16351D01*
G01X19048Y16354D01*
G01X19047Y16355D01*
G01X19047Y16356D01*
G01X19046Y16359D01*
G01X19045Y16361D01*
G01X19044Y16362D01*
G01X19044Y16363D01*
G01X19042Y16366D01*
G01X19041Y16368D01*
G01X19041Y16369D01*
G01X19040Y16370D01*
G01X19038Y16373D01*
G01X19037Y16375D01*
G01X19037Y16376D01*
G01X19036Y16377D01*
G01X19034Y16380D01*
G01X19033Y16382D01*
G01X19032Y16383D01*
G01X19032Y16384D01*
G01X19030Y16386D01*
G01X19028Y16389D01*
G01X19028Y16389D01*
G01X19027Y16390D01*
G01X19025Y16392D01*
G01X19023Y16395D01*
G01X19023Y16396D01*
G01X19022Y16396D01*
G01X19020Y16399D01*
G01X19018Y16401D01*
G01X19017Y16402D01*
G01X19017Y16402D01*
G01X19015Y16404D01*
G01X19013Y16407D01*
G01X18813Y16607D01*
G01X18809Y16610D01*
G01X18805Y16614D01*
G01X18800Y16618D01*
G01X18796Y16621D01*
G01X18792Y16624D01*
G01X18787Y16627D01*
G01X18783Y16630D01*
G01X18778Y16633D01*
G01X18773Y16636D01*
G01X18768Y16638D01*
G01X18763Y16640D01*
G01X18758Y16642D01*
G01X18753Y16644D01*
G01X18748Y16646D01*
G01X18743Y16648D01*
G01X18737Y16649D01*
G01X18732Y16650D01*
G01X18727Y16651D01*
G01X18721Y16652D01*
G01X18716Y16653D01*
G01X18710Y16653D01*
G01X18705Y16653D01*
G01X18700Y16653D01*
G01X18455Y16653D01*
G01X18439Y16668D01*
G01X18420Y16681D01*
G01X18401Y16692D01*
G01X18381Y16701D01*
G01X18360Y16708D01*
G01X18338Y16713D01*
G01X18316Y16716D01*
G01X18294Y16716D01*
G01X18272Y16715D01*
G01X18250Y16711D01*
G01X18228Y16705D01*
G01X18208Y16697D01*
G01X18188Y16687D01*
G01X18169Y16675D01*
G01X18152Y16661D01*
G01X18136Y16645D01*
G01X18125Y16631D01*
G01X18125Y18306D01*
G01X18134Y18318D01*
G01X18145Y18337D01*
G01X18155Y18357D01*
G01X18163Y18378D01*
G01X18168Y18399D01*
G01X18171Y18421D01*
G01X18172Y18444D01*
G01X18171Y18466D01*
G01X18168Y18488D01*
G01X18163Y18509D01*
G01X18155Y18530D01*
G01X18145Y18550D01*
G01X18134Y18569D01*
G01X18120Y18587D01*
G01X18105Y18603D01*
G01X18089Y18618D01*
G01X18070Y18631D01*
G01X18051Y18642D01*
G01X18031Y18651D01*
G01X18010Y18658D01*
G01X17988Y18663D01*
G01X17966Y18666D01*
G01X17944Y18666D01*
G01X17922Y18665D01*
G01X17900Y18661D01*
G01X17878Y18655D01*
G01X17858Y18647D01*
G01X17838Y18637D01*
G01X17819Y18625D01*
G01X17802Y18611D01*
G01X17786Y18595D01*
G01X17772Y18578D01*
G01X17759Y18560D01*
G01X17749Y18540D01*
G01X17740Y18520D01*
G01X17733Y18499D01*
G01X17729Y18477D01*
G01X17727Y18455D01*
G01X17727Y18432D01*
G01X17729Y18410D01*
G01X17733Y18388D01*
G01X17740Y18367D01*
G01X17749Y18347D01*
G01X17759Y18327D01*
G01X17772Y18309D01*
G01X17775Y18306D01*
G01X17775Y16544D01*
G01X17775Y16535D01*
G01X17775Y16526D01*
G01X17776Y16517D01*
G01X17778Y16509D01*
G01X17780Y16500D01*
G01X17782Y16492D01*
G01X17785Y16484D01*
G01X17788Y16476D01*
G01X17789Y16473D01*
G01X17789Y16460D01*
G01X17636Y16307D01*
G01X17633Y16303D01*
G01X17629Y16299D01*
G01X17625Y16294D01*
G01X17622Y16290D01*
G01X17619Y16286D01*
G01X17616Y16281D01*
G01X17613Y16277D01*
G01X17610Y16272D01*
G01X17607Y16267D01*
G01X17605Y16262D01*
G01X17603Y16257D01*
G01X17601Y16252D01*
G01X17599Y16247D01*
G01X17597Y16242D01*
G01X17595Y16237D01*
G01X17594Y16231D01*
G01X17593Y16226D01*
G01X17592Y16221D01*
G01X17591Y16215D01*
G01X17590Y16210D01*
G01X17590Y16204D01*
G01X17590Y16199D01*
G01X17589Y16194D01*
G01X17589Y15410D01*
G01X17401Y15221D01*
G01X17389Y15221D01*
G01X17367Y15220D01*
G01X17345Y15216D01*
G01X17324Y15210D01*
G01X17303Y15202D01*
G01X17283Y15192D01*
G01X17264Y15179D01*
G01X17247Y15166D01*
G01X17231Y15150D01*
G01X17217Y15133D01*
G01X17204Y15115D01*
G01X17194Y15095D01*
G01X17185Y15075D01*
G01X17178Y15053D01*
G01X17174Y15032D01*
G01X17172Y15010D01*
G01X17172Y14987D01*
G01X17174Y14965D01*
G01X17178Y14943D01*
G01X17185Y14922D01*
G01X17194Y14902D01*
G01X17204Y14882D01*
G01X17217Y14864D01*
G01X17231Y14847D01*
G01X17247Y14831D01*
G01X17264Y14817D01*
G01X17283Y14805D01*
G01X17303Y14795D01*
G01X17324Y14787D01*
G01X17345Y14781D01*
G01X17367Y14777D01*
G01X17389Y14775D01*
G01X17411Y14776D01*
G01X17433Y14779D01*
G01X17455Y14784D01*
G01X17476Y14791D01*
G01X17496Y14800D01*
G01X17516Y14811D01*
G01X17534Y14824D01*
G01X17550Y14839D01*
G01X17565Y14855D01*
G01X17579Y14873D01*
G01X17590Y14892D01*
G01X17600Y14912D01*
G01X17608Y14933D01*
G01X17613Y14954D01*
G01X17616Y14976D01*
G01X17617Y14985D01*
G01X17863Y15230D01*
G01X17866Y15234D01*
G01X17870Y15238D01*
G01X17874Y15243D01*
G01X17877Y15247D01*
G01X17880Y15251D01*
G01X17883Y15256D01*
G01X17886Y15260D01*
G01X17889Y15265D01*
G01X17892Y15270D01*
G01X17894Y15275D01*
G01X17896Y15280D01*
G01X17898Y15285D01*
G01X17900Y15290D01*
G01X17902Y15295D01*
G01X17904Y15300D01*
G01X17905Y15306D01*
G01X17906Y15311D01*
G01X17907Y15316D01*
G01X17908Y15322D01*
G01X17909Y15327D01*
G01X17909Y15333D01*
G01X17909Y15338D01*
G01X17910Y15344D01*
G01X17910Y16127D01*
G01X18063Y16280D01*
G01X18066Y16284D01*
G01X18070Y16288D01*
G01X18074Y16293D01*
G01X18077Y16297D01*
G01X18080Y16301D01*
G01X18083Y16306D01*
G01X18086Y16310D01*
G01X18089Y16315D01*
G01X18092Y16320D01*
G01X18094Y16325D01*
G01X18096Y16330D01*
G01X18098Y16335D01*
G01X18100Y16340D01*
G01X18102Y16345D01*
G01X18104Y16350D01*
G01X18105Y16356D01*
G01X18106Y16361D01*
G01X18107Y16366D01*
G01X18108Y16372D01*
G01X18109Y16377D01*
G01X18109Y16378D01*
G01X18109Y16377D01*
G01X18122Y16359D01*
G01X18136Y16342D01*
G01X18152Y16326D01*
G01X18169Y16312D01*
G01X18188Y16300D01*
G01X18208Y16290D01*
G01X18228Y16282D01*
G01X18250Y16276D01*
G01X18272Y16272D01*
G01X18294Y16271D01*
G01X18316Y16271D01*
G01X18338Y16274D01*
G01X18360Y16279D01*
G01X18381Y16286D01*
G01X18401Y16295D01*
G01X18420Y16306D01*
G01X18439Y16319D01*
G01X18455Y16334D01*
G01X18633Y16334D01*
G01X18739Y16227D01*
G01X18739Y12072D01*
G01X18634Y12178D01*
G01X18630Y12182D01*
G01X18625Y12186D01*
G01X18621Y12189D01*
G01X18617Y12193D01*
G01X18612Y12197D01*
G01X18607Y12200D01*
G01X18603Y12203D01*
G01X18598Y12206D01*
G01X18593Y12209D01*
G01X18588Y12212D01*
G01X18583Y12214D01*
G01X18577Y12217D01*
G01X18572Y12219D01*
G01X18567Y12221D01*
G01X18561Y12223D01*
G01X18556Y12225D01*
G01X18551Y12227D01*
G01X18545Y12228D01*
G01X18539Y12229D01*
G01X18534Y12230D01*
G01X18528Y12231D01*
G01X18522Y12232D01*
G01X18517Y12233D01*
G01X18511Y12233D01*
G01X18505Y12233D01*
G01X18500Y12234D01*
G01X18323Y12234D01*
G01X18308Y12242D01*
G01X18288Y12251D01*
G01X18267Y12258D01*
G01X18245Y12263D01*
G01X18223Y12266D01*
G01X18201Y12266D01*
G01X18179Y12265D01*
G01X18157Y12261D01*
G01X18135Y12255D01*
G01X18115Y12247D01*
G01X18095Y12237D01*
G01X18076Y12225D01*
G01X18059Y12211D01*
G01X18043Y12195D01*
G01X18029Y12178D01*
G01X18016Y12160D01*
G01X18006Y12140D01*
G01X17997Y12120D01*
G01X17990Y12099D01*
G01X17986Y12077D01*
G01X17984Y12055D01*
G01X17984Y12032D01*
G01X17986Y12010D01*
G01X17990Y11988D01*
G01X17997Y11967D01*
G01X18006Y11947D01*
G01X18016Y11927D01*
G01X18029Y11909D01*
G01X18043Y11892D01*
G01X18059Y11876D01*
G01X18076Y11862D01*
G01X18095Y11850D01*
G01X18115Y11840D01*
G01X18135Y11832D01*
G01X18157Y11826D01*
G01X18179Y11822D01*
G01X18201Y11821D01*
G01X18223Y11821D01*
G01X18245Y11824D01*
G01X18267Y11829D01*
G01X18288Y11836D01*
G01X18308Y11845D01*
G01X18323Y11853D01*
G01X18421Y11853D01*
G01X18460Y11815D01*
G01X18460Y11574D01*
G01X18460Y11568D01*
G01X18460Y11562D01*
G01X18460Y11556D01*
G01X18461Y11551D01*
G01X18462Y11545D01*
G01X18463Y11539D01*
G01X18464Y11534D01*
G01X18465Y11528D01*
G01X18466Y11522D01*
G01X18468Y11517D01*
G01X18470Y11512D01*
G01X18472Y11506D01*
G01X18474Y11501D01*
G01X18476Y11496D01*
G01X18479Y11490D01*
G01X18481Y11485D01*
G01X18484Y11480D01*
G01X18487Y11475D01*
G01X18490Y11470D01*
G01X18493Y11466D01*
G01X18496Y11461D01*
G01X18500Y11456D01*
G01X18504Y11452D01*
G01X18507Y11448D01*
G01X18511Y11443D01*
G01X18515Y11439D01*
G01X18665Y11289D01*
G01X18669Y11285D01*
G01X18674Y11281D01*
G01X18678Y11278D01*
G01X18682Y11274D01*
G01X18687Y11270D01*
G01X18692Y11267D01*
G01X18696Y11264D01*
G01X18701Y11261D01*
G01X18706Y11258D01*
G01X18711Y11255D01*
G01X18716Y11253D01*
G01X18722Y11250D01*
G01X18727Y11248D01*
G01X18732Y11246D01*
G01X18738Y11244D01*
G01X18743Y11242D01*
G01X18748Y11240D01*
G01X18754Y11239D01*
G01X18760Y11238D01*
G01X18765Y11237D01*
G01X18771Y11236D01*
G01X18777Y11235D01*
G01X18782Y11234D01*
G01X18788Y11234D01*
G01X18794Y11234D01*
G01X18800Y11234D01*
G01X19395Y11234D01*
G01X19410Y11220D01*
G01X19410Y10710D01*
G01X19409Y10710D01*
G01X19399Y10690D01*
G01X19390Y10670D01*
G01X19383Y10649D01*
G01X19379Y10627D01*
G01X19377Y10605D01*
G01X19377Y10582D01*
G01X19379Y10560D01*
G01X19383Y10538D01*
G01X19390Y10517D01*
G01X19399Y10497D01*
G01X19409Y10477D01*
G01X19422Y10459D01*
G01X19436Y10442D01*
G01X19452Y10426D01*
G01X19469Y10412D01*
G01X19488Y10400D01*
G01X19508Y10390D01*
G01X19528Y10382D01*
G01X19550Y10376D01*
G01X19572Y10372D01*
G01X19594Y10371D01*
G01X19616Y10371D01*
G01X19638Y10374D01*
G01X19660Y10379D01*
G01X19681Y10386D01*
G01X19701Y10395D01*
G01X19720Y10406D01*
G01X19739Y10419D01*
G01X19755Y10434D01*
G01X19770Y10450D01*
G01X19784Y10468D01*
G01X19789Y10477D01*
G01X19789Y9844D01*
G01X19790Y9838D01*
G01X19790Y9833D01*
G01X19790Y9827D01*
G01X19791Y9822D01*
G01X19792Y9816D01*
G01X19793Y9811D01*
G01X19794Y9806D01*
G01X19795Y9800D01*
G01X19797Y9795D01*
G01X19799Y9790D01*
G01X19801Y9785D01*
G01X19803Y9780D01*
G01X19805Y9775D01*
G01X19807Y9770D01*
G01X19810Y9765D01*
G01X19813Y9760D01*
G01X19816Y9756D01*
G01X19819Y9751D01*
G01X19822Y9747D01*
G01X19825Y9743D01*
G01X19829Y9738D01*
G01X19833Y9734D01*
G01X19836Y9730D01*
G01X20089Y9477D01*
G01X20089Y9349D01*
G01X20086Y9345D01*
G01X20072Y9328D01*
G01X20059Y9310D01*
G01X20049Y9290D01*
G01X20040Y9270D01*
G01X20033Y9249D01*
G01X20029Y9227D01*
G01X20027Y9205D01*
G01X20027Y9182D01*
G01X20029Y9160D01*
G01X20033Y9138D01*
G01X20040Y9117D01*
G01X20049Y9097D01*
G01X20059Y9077D01*
G01X20072Y9059D01*
G01X20086Y9042D01*
G01X20102Y9026D01*
G01X20119Y9012D01*
G01X20138Y9000D01*
G01X20158Y8990D01*
G01X20178Y8982D01*
G01X20200Y8976D01*
G01X20222Y8972D01*
G37*
G36*
G01X8852Y18962D02*
G01X8874Y18961D01*
G01X8896Y18961D01*
G01X8918Y18964D01*
G01X8940Y18969D01*
G01X8961Y18976D01*
G01X8981Y18985D01*
G01X9000Y18996D01*
G01X9019Y19009D01*
G01X9035Y19024D01*
G01X9050Y19040D01*
G01X9064Y19058D01*
G01X9075Y19077D01*
G01X9085Y19097D01*
G01X9093Y19118D01*
G01X9098Y19139D01*
G01X9101Y19161D01*
G01X9103Y19184D01*
G01X9101Y19206D01*
G01X9098Y19228D01*
G01X9093Y19249D01*
G01X9085Y19270D01*
G01X9075Y19290D01*
G01X9064Y19309D01*
G01X9050Y19327D01*
G01X9035Y19343D01*
G01X9019Y19358D01*
G01X9000Y19371D01*
G01X8981Y19382D01*
G01X8961Y19391D01*
G01X8940Y19398D01*
G01X8932Y19400D01*
G01X8500Y19832D01*
G01X8500Y19887D01*
G01X8505Y19897D01*
G01X8515Y19917D01*
G01X8523Y19938D01*
G01X8528Y19959D01*
G01X8531Y19981D01*
G01X8532Y20003D01*
G01X8531Y20026D01*
G01X8528Y20048D01*
G01X8523Y20069D01*
G01X8515Y20090D01*
G01X8505Y20110D01*
G01X8494Y20129D01*
G01X8480Y20147D01*
G01X8465Y20163D01*
G01X8449Y20178D01*
G01X8430Y20191D01*
G01X8411Y20202D01*
G01X8391Y20211D01*
G01X8370Y20218D01*
G01X8348Y20223D01*
G01X8326Y20226D01*
G01X8304Y20226D01*
G01X8282Y20225D01*
G01X8260Y20221D01*
G01X8238Y20215D01*
G01X8218Y20207D01*
G01X8198Y20197D01*
G01X8179Y20185D01*
G01X8162Y20171D01*
G01X8146Y20155D01*
G01X8132Y20138D01*
G01X8119Y20120D01*
G01X8109Y20100D01*
G01X8100Y20080D01*
G01X8093Y20059D01*
G01X8089Y20037D01*
G01X8087Y20015D01*
G01X8087Y19992D01*
G01X8089Y19970D01*
G01X8093Y19948D01*
G01X8100Y19927D01*
G01X8109Y19907D01*
G01X8119Y19887D01*
G01X8119Y19887D01*
G01X8119Y19753D01*
G01X8120Y19748D01*
G01X8120Y19742D01*
G01X8120Y19736D01*
G01X8121Y19731D01*
G01X8122Y19725D01*
G01X8123Y19719D01*
G01X8124Y19714D01*
G01X8125Y19708D01*
G01X8126Y19702D01*
G01X8128Y19697D01*
G01X8130Y19692D01*
G01X8132Y19686D01*
G01X8134Y19681D01*
G01X8136Y19676D01*
G01X8139Y19670D01*
G01X8141Y19665D01*
G01X8144Y19660D01*
G01X8147Y19655D01*
G01X8150Y19650D01*
G01X8153Y19646D01*
G01X8156Y19641D01*
G01X8160Y19636D01*
G01X8164Y19632D01*
G01X8167Y19628D01*
G01X8171Y19623D01*
G01X8175Y19619D01*
G01X8663Y19132D01*
G01X8663Y19128D01*
G01X8670Y19107D01*
G01X8679Y19087D01*
G01X8689Y19067D01*
G01X8702Y19049D01*
G01X8716Y19032D01*
G01X8732Y19016D01*
G01X8749Y19002D01*
G01X8768Y18990D01*
G01X8788Y18980D01*
G01X8808Y18972D01*
G01X8830Y18966D01*
G01X8852Y18962D01*
G37*
G36*
G01X11028Y18251D02*
G01X11048Y18249D01*
G01X11067Y18250D01*
G01X11087Y18252D01*
G01X11107Y18256D01*
G01X11125Y18263D01*
G01X11144Y18271D01*
G01X11161Y18281D01*
G01X11177Y18293D01*
G01X11192Y18306D01*
G01X11205Y18320D01*
G01X11217Y18336D01*
G01X11228Y18353D01*
G01X11236Y18371D01*
G01X11243Y18390D01*
G01X11248Y18409D01*
G01X11249Y18418D01*
G01X11253Y18399D01*
G01X11259Y18380D01*
G01X11267Y18362D01*
G01X11276Y18344D01*
G01X11287Y18328D01*
G01X11300Y18313D01*
G01X11314Y18299D01*
G01X11330Y18287D01*
G01X11347Y18276D01*
G01X11364Y18267D01*
G01X11383Y18259D01*
G01X11402Y18254D01*
G01X11422Y18251D01*
G01X11442Y18249D01*
G01X11461Y18250D01*
G01X11481Y18252D01*
G01X11501Y18256D01*
G01X11519Y18263D01*
G01X11538Y18271D01*
G01X11555Y18281D01*
G01X11571Y18293D01*
G01X11586Y18306D01*
G01X11599Y18320D01*
G01X11611Y18336D01*
G01X11622Y18353D01*
G01X11630Y18371D01*
G01X11637Y18390D01*
G01X11642Y18409D01*
G01X11645Y18429D01*
G01X11646Y18449D01*
G01X11645Y18468D01*
G01X11642Y18488D01*
G01X11637Y18507D01*
G01X11630Y18526D01*
G01X11622Y18544D01*
G01X11611Y18561D01*
G01X11599Y18577D01*
G01X11586Y18591D01*
G01X11571Y18604D01*
G01X11555Y18616D01*
G01X11538Y18626D01*
G01X11519Y18634D01*
G01X11501Y18641D01*
G01X11481Y18645D01*
G01X11461Y18647D01*
G01X11442Y18648D01*
G01X11424Y18647D01*
G01X11425Y18648D01*
G01X11433Y18666D01*
G01X11440Y18685D01*
G01X11445Y18704D01*
G01X11448Y18724D01*
G01X11449Y18744D01*
G01X11448Y18763D01*
G01X11445Y18783D01*
G01X11440Y18802D01*
G01X11433Y18821D01*
G01X11425Y18839D01*
G01X11424Y18840D01*
G01X11442Y18839D01*
G01X11461Y18840D01*
G01X11481Y18842D01*
G01X11501Y18846D01*
G01X11519Y18853D01*
G01X11538Y18861D01*
G01X11555Y18871D01*
G01X11571Y18883D01*
G01X11586Y18896D01*
G01X11599Y18910D01*
G01X11611Y18926D01*
G01X11622Y18943D01*
G01X11630Y18961D01*
G01X11637Y18980D01*
G01X11642Y18999D01*
G01X11645Y19019D01*
G01X11646Y19038D01*
G01X11645Y19058D01*
G01X11642Y19078D01*
G01X11637Y19097D01*
G01X11630Y19116D01*
G01X11622Y19134D01*
G01X11611Y19151D01*
G01X11599Y19167D01*
G01X11586Y19181D01*
G01X11571Y19194D01*
G01X11555Y19206D01*
G01X11538Y19216D01*
G01X11519Y19224D01*
G01X11501Y19231D01*
G01X11481Y19235D01*
G01X11461Y19237D01*
G01X11442Y19238D01*
G01X11422Y19236D01*
G01X11402Y19233D01*
G01X11383Y19228D01*
G01X11364Y19220D01*
G01X11347Y19211D01*
G01X11330Y19200D01*
G01X11314Y19188D01*
G01X11300Y19174D01*
G01X11287Y19159D01*
G01X11276Y19143D01*
G01X11267Y19125D01*
G01X11259Y19107D01*
G01X11253Y19088D01*
G01X11249Y19069D01*
G01X11248Y19078D01*
G01X11243Y19097D01*
G01X11236Y19116D01*
G01X11228Y19134D01*
G01X11217Y19151D01*
G01X11205Y19167D01*
G01X11192Y19181D01*
G01X11177Y19194D01*
G01X11161Y19206D01*
G01X11144Y19216D01*
G01X11125Y19224D01*
G01X11107Y19231D01*
G01X11087Y19235D01*
G01X11067Y19237D01*
G01X11048Y19238D01*
G01X11028Y19236D01*
G01X11008Y19233D01*
G01X10989Y19228D01*
G01X10970Y19220D01*
G01X10953Y19211D01*
G01X10936Y19200D01*
G01X10920Y19188D01*
G01X10906Y19174D01*
G01X10893Y19159D01*
G01X10882Y19143D01*
G01X10873Y19125D01*
G01X10865Y19107D01*
G01X10859Y19088D01*
G01X10855Y19068D01*
G01X10853Y19048D01*
G01X10853Y19029D01*
G01X10855Y19009D01*
G01X10859Y18989D01*
G01X10865Y18970D01*
G01X10873Y18952D01*
G01X10882Y18934D01*
G01X10893Y18918D01*
G01X10906Y18903D01*
G01X10920Y18889D01*
G01X10936Y18877D01*
G01X10953Y18866D01*
G01X10970Y18857D01*
G01X10989Y18849D01*
G01X11008Y18844D01*
G01X11028Y18841D01*
G01X11048Y18839D01*
G01X11067Y18840D01*
G01X11075Y18841D01*
G01X11070Y18830D01*
G01X11062Y18812D01*
G01X11056Y18793D01*
G01X11052Y18773D01*
G01X11050Y18753D01*
G01X11050Y18734D01*
G01X11052Y18714D01*
G01X11056Y18694D01*
G01X11062Y18675D01*
G01X11070Y18657D01*
G01X11075Y18646D01*
G01X11067Y18647D01*
G01X11048Y18648D01*
G01X11028Y18646D01*
G01X11008Y18643D01*
G01X10989Y18638D01*
G01X10970Y18630D01*
G01X10953Y18621D01*
G01X10936Y18610D01*
G01X10920Y18598D01*
G01X10906Y18584D01*
G01X10893Y18569D01*
G01X10882Y18553D01*
G01X10873Y18535D01*
G01X10865Y18517D01*
G01X10859Y18498D01*
G01X10855Y18478D01*
G01X10853Y18458D01*
G01X10853Y18439D01*
G01X10855Y18419D01*
G01X10859Y18399D01*
G01X10865Y18380D01*
G01X10873Y18362D01*
G01X10882Y18344D01*
G01X10893Y18328D01*
G01X10906Y18313D01*
G01X10920Y18299D01*
G01X10936Y18287D01*
G01X10953Y18276D01*
G01X10970Y18267D01*
G01X10989Y18259D01*
G01X11008Y18254D01*
G01X11028Y18251D01*
G37*
G36*
G01X8769Y17563D02*
G01X8769Y17399D01*
G01X9034Y17399D01*
G01X9034Y17663D01*
G01X8869Y17663D01*
G01X8865Y17663D01*
G01X8861Y17663D01*
G01X8857Y17663D01*
G01X8853Y17662D01*
G01X8849Y17661D01*
G01X8845Y17660D01*
G01X8841Y17659D01*
G01X8837Y17658D01*
G01X8833Y17657D01*
G01X8829Y17655D01*
G01X8826Y17653D01*
G01X8822Y17651D01*
G01X8818Y17649D01*
G01X8815Y17647D01*
G01X8811Y17645D01*
G01X8808Y17642D01*
G01X8805Y17640D01*
G01X8802Y17637D01*
G01X8799Y17634D01*
G01X8796Y17631D01*
G01X8793Y17628D01*
G01X8791Y17625D01*
G01X8788Y17622D01*
G01X8786Y17618D01*
G01X8784Y17615D01*
G01X8782Y17611D01*
G01X8780Y17607D01*
G01X8778Y17604D01*
G01X8776Y17600D01*
G01X8775Y17596D01*
G01X8774Y17592D01*
G01X8773Y17588D01*
G01X8772Y17584D01*
G01X8771Y17580D01*
G01X8770Y17576D01*
G01X8770Y17572D01*
G01X8770Y17568D01*
G01X8769Y17563D01*
G37*
G36*
G01X9365Y17663D02*
G01X9365Y17399D01*
G01X9630Y17399D01*
G01X9630Y17563D01*
G01X9629Y17568D01*
G01X9629Y17572D01*
G01X9629Y17576D01*
G01X9628Y17580D01*
G01X9627Y17584D01*
G01X9626Y17588D01*
G01X9625Y17592D01*
G01X9624Y17596D01*
G01X9623Y17600D01*
G01X9621Y17604D01*
G01X9619Y17607D01*
G01X9617Y17611D01*
G01X9615Y17615D01*
G01X9613Y17618D01*
G01X9611Y17622D01*
G01X9608Y17625D01*
G01X9606Y17628D01*
G01X9603Y17631D01*
G01X9600Y17634D01*
G01X9597Y17637D01*
G01X9594Y17640D01*
G01X9591Y17642D01*
G01X9588Y17645D01*
G01X9584Y17647D01*
G01X9581Y17649D01*
G01X9577Y17651D01*
G01X9573Y17653D01*
G01X9570Y17655D01*
G01X9566Y17657D01*
G01X9562Y17658D01*
G01X9558Y17659D01*
G01X9554Y17660D01*
G01X9550Y17661D01*
G01X9546Y17662D01*
G01X9542Y17663D01*
G01X9538Y17663D01*
G01X9534Y17663D01*
G01X9530Y17663D01*
G01X9365Y17663D01*
G37*
G36*
G01X8435Y10184D02*
G01X8440Y10184D01*
G01X8594Y10184D01*
G01X8594Y10438D01*
G01X8340Y10438D01*
G01X8340Y10284D01*
G01X8340Y10279D01*
G01X8340Y10275D01*
G01X8340Y10271D01*
G01X8341Y10267D01*
G01X8342Y10263D01*
G01X8343Y10259D01*
G01X8344Y10255D01*
G01X8345Y10251D01*
G01X8346Y10247D01*
G01X8348Y10243D01*
G01X8350Y10240D01*
G01X8352Y10236D01*
G01X8354Y10232D01*
G01X8356Y10229D01*
G01X8358Y10225D01*
G01X8361Y10222D01*
G01X8363Y10219D01*
G01X8366Y10216D01*
G01X8369Y10213D01*
G01X8372Y10210D01*
G01X8375Y10207D01*
G01X8378Y10205D01*
G01X8381Y10202D01*
G01X8385Y10200D01*
G01X8388Y10198D01*
G01X8392Y10196D01*
G01X8396Y10194D01*
G01X8399Y10192D01*
G01X8403Y10190D01*
G01X8407Y10189D01*
G01X8411Y10188D01*
G01X8415Y10187D01*
G01X8419Y10186D01*
G01X8423Y10185D01*
G01X8427Y10184D01*
G01X8431Y10184D01*
G01X8435Y10184D01*
G37*
G36*
G01X19235Y16184D02*
G01X19239Y16184D01*
G01X19860Y16184D01*
G01X19864Y16184D01*
G01X19868Y16184D01*
G01X19872Y16184D01*
G01X19876Y16185D01*
G01X19880Y16186D01*
G01X19884Y16187D01*
G01X19888Y16188D01*
G01X19892Y16189D01*
G01X19896Y16190D01*
G01X19900Y16192D01*
G01X19903Y16194D01*
G01X19907Y16196D01*
G01X19911Y16198D01*
G01X19914Y16200D01*
G01X19918Y16202D01*
G01X19921Y16205D01*
G01X19924Y16207D01*
G01X19927Y16210D01*
G01X19930Y16213D01*
G01X19933Y16216D01*
G01X19936Y16219D01*
G01X19938Y16222D01*
G01X19941Y16225D01*
G01X19943Y16229D01*
G01X19945Y16232D01*
G01X19947Y16236D01*
G01X19949Y16240D01*
G01X19951Y16243D01*
G01X19953Y16247D01*
G01X19954Y16251D01*
G01X19955Y16255D01*
G01X19956Y16259D01*
G01X19957Y16263D01*
G01X19958Y16267D01*
G01X19959Y16271D01*
G01X19959Y16275D01*
G01X19959Y16279D01*
G01X19960Y16284D01*
G01X19960Y16903D01*
G01X19959Y16908D01*
G01X19959Y16912D01*
G01X19959Y16916D01*
G01X19958Y16920D01*
G01X19957Y16924D01*
G01X19956Y16928D01*
G01X19955Y16932D01*
G01X19954Y16936D01*
G01X19953Y16940D01*
G01X19951Y16944D01*
G01X19949Y16947D01*
G01X19947Y16951D01*
G01X19945Y16955D01*
G01X19943Y16958D01*
G01X19941Y16962D01*
G01X19938Y16965D01*
G01X19936Y16968D01*
G01X19933Y16971D01*
G01X19930Y16974D01*
G01X19927Y16977D01*
G01X19924Y16980D01*
G01X19921Y16982D01*
G01X19918Y16985D01*
G01X19914Y16987D01*
G01X19911Y16989D01*
G01X19907Y16991D01*
G01X19903Y16993D01*
G01X19900Y16995D01*
G01X19896Y16997D01*
G01X19892Y16998D01*
G01X19888Y16999D01*
G01X19884Y17000D01*
G01X19880Y17001D01*
G01X19876Y17002D01*
G01X19872Y17003D01*
G01X19868Y17003D01*
G01X19864Y17003D01*
G01X19860Y17003D01*
G01X19239Y17003D01*
G01X19235Y17003D01*
G01X19231Y17003D01*
G01X19227Y17003D01*
G01X19223Y17002D01*
G01X19219Y17001D01*
G01X19215Y17000D01*
G01X19211Y16999D01*
G01X19207Y16998D01*
G01X19203Y16997D01*
G01X19199Y16995D01*
G01X19196Y16993D01*
G01X19192Y16991D01*
G01X19188Y16989D01*
G01X19185Y16987D01*
G01X19181Y16985D01*
G01X19178Y16982D01*
G01X19175Y16980D01*
G01X19172Y16977D01*
G01X19169Y16974D01*
G01X19166Y16971D01*
G01X19163Y16968D01*
G01X19161Y16965D01*
G01X19158Y16962D01*
G01X19156Y16958D01*
G01X19154Y16955D01*
G01X19152Y16951D01*
G01X19150Y16947D01*
G01X19148Y16944D01*
G01X19146Y16940D01*
G01X19145Y16936D01*
G01X19144Y16932D01*
G01X19143Y16928D01*
G01X19142Y16924D01*
G01X19141Y16920D01*
G01X19140Y16916D01*
G01X19140Y16912D01*
G01X19140Y16908D01*
G01X19139Y16903D01*
G01X19139Y16284D01*
G01X19140Y16279D01*
G01X19140Y16275D01*
G01X19140Y16271D01*
G01X19141Y16267D01*
G01X19142Y16263D01*
G01X19143Y16259D01*
G01X19144Y16255D01*
G01X19145Y16251D01*
G01X19146Y16247D01*
G01X19148Y16243D01*
G01X19150Y16240D01*
G01X19152Y16236D01*
G01X19154Y16232D01*
G01X19156Y16229D01*
G01X19158Y16225D01*
G01X19161Y16222D01*
G01X19163Y16219D01*
G01X19166Y16216D01*
G01X19169Y16213D01*
G01X19172Y16210D01*
G01X19175Y16207D01*
G01X19178Y16205D01*
G01X19181Y16202D01*
G01X19185Y16200D01*
G01X19188Y16198D01*
G01X19192Y16196D01*
G01X19196Y16194D01*
G01X19199Y16192D01*
G01X19203Y16190D01*
G01X19207Y16189D01*
G01X19211Y16188D01*
G01X19215Y16187D01*
G01X19219Y16186D01*
G01X19223Y16185D01*
G01X19227Y16184D01*
G01X19231Y16184D01*
G01X19235Y16184D01*
G37*
G36*
G01X19498Y15186D02*
G01X19539Y15183D01*
G01X19580Y15184D01*
G01X19621Y15189D01*
G01X19661Y15198D01*
G01X19700Y15211D01*
G01X19737Y15228D01*
G01X19772Y15248D01*
G01X19806Y15272D01*
G01X19836Y15299D01*
G01X19864Y15329D01*
G01X19889Y15362D01*
G01X19910Y15397D01*
G01X19928Y15434D01*
G01X19942Y15472D01*
G01X19952Y15512D01*
G01X19958Y15553D01*
G01X19960Y15594D01*
G01X19958Y15634D01*
G01X19952Y15675D01*
G01X19942Y15715D01*
G01X19928Y15753D01*
G01X19910Y15790D01*
G01X19889Y15825D01*
G01X19864Y15858D01*
G01X19836Y15888D01*
G01X19806Y15915D01*
G01X19772Y15939D01*
G01X19737Y15959D01*
G01X19700Y15976D01*
G01X19661Y15989D01*
G01X19621Y15998D01*
G01X19580Y16003D01*
G01X19539Y16004D01*
G01X19498Y16001D01*
G01X19458Y15994D01*
G01X19419Y15983D01*
G01X19380Y15968D01*
G01X19344Y15949D01*
G01X19310Y15927D01*
G01X19278Y15902D01*
G01X19248Y15873D01*
G01X19222Y15842D01*
G01X19199Y15808D01*
G01X19179Y15772D01*
G01X19163Y15734D01*
G01X19151Y15695D01*
G01X19143Y15655D01*
G01X19139Y15614D01*
G01X19139Y15573D01*
G01X19143Y15532D01*
G01X19151Y15492D01*
G01X19163Y15453D01*
G01X19179Y15415D01*
G01X19199Y15379D01*
G01X19222Y15345D01*
G01X19248Y15314D01*
G01X19278Y15285D01*
G01X19310Y15260D01*
G01X19344Y15238D01*
G01X19380Y15219D01*
G01X19419Y15204D01*
G01X19458Y15193D01*
G01X19498Y15186D01*
G37*
G36*
G01X10972Y10622D02*
G01X10994Y10621D01*
G01X11016Y10621D01*
G01X11038Y10624D01*
G01X11060Y10629D01*
G01X11081Y10636D01*
G01X11101Y10645D01*
G01X11116Y10653D01*
G01X11750Y10653D01*
G01X11755Y10654D01*
G01X11761Y10654D01*
G01X11767Y10654D01*
G01X11772Y10655D01*
G01X11778Y10656D01*
G01X11784Y10657D01*
G01X11789Y10658D01*
G01X11795Y10659D01*
G01X11801Y10660D01*
G01X11806Y10662D01*
G01X11811Y10664D01*
G01X11817Y10666D01*
G01X11822Y10668D01*
G01X11827Y10670D01*
G01X11833Y10673D01*
G01X11838Y10675D01*
G01X11843Y10678D01*
G01X11848Y10681D01*
G01X11853Y10684D01*
G01X11857Y10687D01*
G01X11862Y10690D01*
G01X11867Y10694D01*
G01X11871Y10698D01*
G01X11875Y10701D01*
G01X11880Y10705D01*
G01X11884Y10709D01*
G01X11984Y10809D01*
G01X11988Y10813D01*
G01X11992Y10818D01*
G01X11995Y10822D01*
G01X11999Y10826D01*
G01X12003Y10831D01*
G01X12006Y10836D01*
G01X12009Y10840D01*
G01X12012Y10845D01*
G01X12015Y10850D01*
G01X12018Y10855D01*
G01X12020Y10860D01*
G01X12023Y10866D01*
G01X12025Y10871D01*
G01X12027Y10876D01*
G01X12029Y10882D01*
G01X12031Y10887D01*
G01X12033Y10892D01*
G01X12034Y10898D01*
G01X12035Y10904D01*
G01X12036Y10909D01*
G01X12037Y10915D01*
G01X12038Y10921D01*
G01X12039Y10926D01*
G01X12039Y10932D01*
G01X12039Y10938D01*
G01X12039Y10944D01*
G01X12039Y11265D01*
G01X12058Y11284D01*
G01X12869Y11284D01*
G01X12875Y11284D01*
G01X12881Y11284D01*
G01X12887Y11284D01*
G01X12892Y11285D01*
G01X12898Y11286D01*
G01X12904Y11287D01*
G01X12909Y11288D01*
G01X12915Y11289D01*
G01X12921Y11290D01*
G01X12926Y11292D01*
G01X12931Y11294D01*
G01X12937Y11296D01*
G01X12942Y11298D01*
G01X12947Y11300D01*
G01X12953Y11303D01*
G01X12958Y11305D01*
G01X12963Y11308D01*
G01X12968Y11311D01*
G01X12973Y11314D01*
G01X12977Y11317D01*
G01X12982Y11320D01*
G01X12987Y11324D01*
G01X12991Y11328D01*
G01X12995Y11331D01*
G01X13000Y11335D01*
G01X13004Y11339D01*
G01X13022Y11357D01*
G01X13030Y11359D01*
G01X13051Y11366D01*
G01X13071Y11375D01*
G01X13090Y11386D01*
G01X13109Y11399D01*
G01X13125Y11414D01*
G01X13140Y11430D01*
G01X13154Y11448D01*
G01X13165Y11467D01*
G01X13175Y11487D01*
G01X13183Y11508D01*
G01X13188Y11529D01*
G01X13191Y11551D01*
G01X13193Y11574D01*
G01X13191Y11596D01*
G01X13188Y11618D01*
G01X13183Y11639D01*
G01X13175Y11660D01*
G01X13165Y11680D01*
G01X13154Y11699D01*
G01X13140Y11717D01*
G01X13125Y11733D01*
G01X13109Y11748D01*
G01X13090Y11761D01*
G01X13071Y11772D01*
G01X13051Y11781D01*
G01X13030Y11788D01*
G01X13008Y11793D01*
G01X12986Y11796D01*
G01X12964Y11796D01*
G01X12942Y11795D01*
G01X12920Y11791D01*
G01X12898Y11785D01*
G01X12878Y11777D01*
G01X12858Y11767D01*
G01X12839Y11755D01*
G01X12822Y11741D01*
G01X12806Y11725D01*
G01X12792Y11708D01*
G01X12779Y11690D01*
G01X12769Y11670D01*
G01X12766Y11663D01*
G01X11980Y11663D01*
G01X11974Y11663D01*
G01X11968Y11663D01*
G01X11962Y11663D01*
G01X11957Y11662D01*
G01X11951Y11661D01*
G01X11945Y11660D01*
G01X11940Y11659D01*
G01X11934Y11658D01*
G01X11928Y11657D01*
G01X11923Y11655D01*
G01X11918Y11653D01*
G01X11912Y11651D01*
G01X11907Y11649D01*
G01X11902Y11647D01*
G01X11896Y11644D01*
G01X11891Y11642D01*
G01X11886Y11639D01*
G01X11881Y11636D01*
G01X11876Y11633D01*
G01X11872Y11630D01*
G01X11867Y11627D01*
G01X11862Y11623D01*
G01X11858Y11619D01*
G01X11854Y11616D01*
G01X11849Y11612D01*
G01X11845Y11608D01*
G01X11715Y11478D01*
G01X11711Y11474D01*
G01X11707Y11469D01*
G01X11704Y11465D01*
G01X11700Y11461D01*
G01X11696Y11456D01*
G01X11693Y11451D01*
G01X11690Y11447D01*
G01X11687Y11442D01*
G01X11684Y11437D01*
G01X11681Y11432D01*
G01X11679Y11427D01*
G01X11676Y11421D01*
G01X11674Y11416D01*
G01X11672Y11411D01*
G01X11670Y11405D01*
G01X11668Y11400D01*
G01X11666Y11395D01*
G01X11665Y11389D01*
G01X11664Y11383D01*
G01X11663Y11378D01*
G01X11662Y11372D01*
G01X11661Y11366D01*
G01X11660Y11361D01*
G01X11660Y11355D01*
G01X11660Y11349D01*
G01X11660Y11344D01*
G01X11660Y11034D01*
G01X11116Y11034D01*
G01X11101Y11042D01*
G01X11081Y11051D01*
G01X11060Y11058D01*
G01X11038Y11063D01*
G01X11016Y11066D01*
G01X10994Y11066D01*
G01X10972Y11065D01*
G01X10950Y11061D01*
G01X10928Y11055D01*
G01X10908Y11047D01*
G01X10888Y11037D01*
G01X10869Y11025D01*
G01X10852Y11011D01*
G01X10836Y10995D01*
G01X10822Y10978D01*
G01X10809Y10960D01*
G01X10799Y10940D01*
G01X10790Y10920D01*
G01X10783Y10899D01*
G01X10779Y10877D01*
G01X10777Y10855D01*
G01X10777Y10832D01*
G01X10779Y10810D01*
G01X10783Y10788D01*
G01X10790Y10767D01*
G01X10799Y10747D01*
G01X10809Y10727D01*
G01X10822Y10709D01*
G01X10836Y10692D01*
G01X10852Y10676D01*
G01X10869Y10662D01*
G01X10888Y10650D01*
G01X10908Y10640D01*
G01X10928Y10632D01*
G01X10950Y10626D01*
G01X10972Y10622D01*
G37*
G36*
G01X19139Y14803D02*
G01X19139Y14649D01*
G01X19394Y14649D01*
G01X19394Y14903D01*
G01X19239Y14903D01*
G01X19235Y14903D01*
G01X19231Y14903D01*
G01X19227Y14903D01*
G01X19223Y14902D01*
G01X19219Y14901D01*
G01X19215Y14900D01*
G01X19211Y14899D01*
G01X19207Y14898D01*
G01X19203Y14897D01*
G01X19199Y14895D01*
G01X19196Y14893D01*
G01X19192Y14891D01*
G01X19188Y14889D01*
G01X19185Y14887D01*
G01X19181Y14885D01*
G01X19178Y14882D01*
G01X19175Y14880D01*
G01X19172Y14877D01*
G01X19169Y14874D01*
G01X19166Y14871D01*
G01X19163Y14868D01*
G01X19161Y14865D01*
G01X19158Y14862D01*
G01X19156Y14858D01*
G01X19154Y14855D01*
G01X19152Y14851D01*
G01X19150Y14847D01*
G01X19148Y14844D01*
G01X19146Y14840D01*
G01X19145Y14836D01*
G01X19144Y14832D01*
G01X19143Y14828D01*
G01X19142Y14824D01*
G01X19141Y14820D01*
G01X19140Y14816D01*
G01X19140Y14812D01*
G01X19140Y14808D01*
G01X19139Y14803D01*
G37*
G36*
G01X19705Y14903D02*
G01X19705Y14649D01*
G01X19960Y14649D01*
G01X19960Y14803D01*
G01X19959Y14808D01*
G01X19959Y14812D01*
G01X19959Y14816D01*
G01X19958Y14820D01*
G01X19957Y14824D01*
G01X19956Y14828D01*
G01X19955Y14832D01*
G01X19954Y14836D01*
G01X19953Y14840D01*
G01X19951Y14844D01*
G01X19949Y14847D01*
G01X19947Y14851D01*
G01X19945Y14855D01*
G01X19943Y14858D01*
G01X19941Y14862D01*
G01X19938Y14865D01*
G01X19936Y14868D01*
G01X19933Y14871D01*
G01X19930Y14874D01*
G01X19927Y14877D01*
G01X19924Y14880D01*
G01X19921Y14882D01*
G01X19918Y14885D01*
G01X19914Y14887D01*
G01X19911Y14889D01*
G01X19907Y14891D01*
G01X19903Y14893D01*
G01X19900Y14895D01*
G01X19896Y14897D01*
G01X19892Y14898D01*
G01X19888Y14899D01*
G01X19884Y14900D01*
G01X19880Y14901D01*
G01X19876Y14902D01*
G01X19872Y14903D01*
G01X19868Y14903D01*
G01X19864Y14903D01*
G01X19860Y14903D01*
G01X19705Y14903D01*
G37*
G36*
G01X8340Y10903D02*
G01X8340Y10749D01*
G01X8594Y10749D01*
G01X8594Y11003D01*
G01X8440Y11003D01*
G01X8435Y11003D01*
G01X8431Y11003D01*
G01X8427Y11003D01*
G01X8423Y11002D01*
G01X8419Y11001D01*
G01X8415Y11000D01*
G01X8411Y10999D01*
G01X8407Y10998D01*
G01X8403Y10997D01*
G01X8399Y10995D01*
G01X8396Y10993D01*
G01X8392Y10991D01*
G01X8388Y10989D01*
G01X8385Y10987D01*
G01X8381Y10985D01*
G01X8378Y10982D01*
G01X8375Y10980D01*
G01X8372Y10977D01*
G01X8369Y10974D01*
G01X8366Y10971D01*
G01X8363Y10968D01*
G01X8361Y10965D01*
G01X8358Y10962D01*
G01X8356Y10958D01*
G01X8354Y10955D01*
G01X8352Y10951D01*
G01X8350Y10947D01*
G01X8348Y10944D01*
G01X8346Y10940D01*
G01X8345Y10936D01*
G01X8344Y10932D01*
G01X8343Y10928D01*
G01X8342Y10924D01*
G01X8341Y10920D01*
G01X8340Y10916D01*
G01X8340Y10912D01*
G01X8340Y10908D01*
G01X8340Y10903D01*
G37*
G36*
G01X9680Y14199D02*
G01X9700Y14197D01*
G01X9719Y14198D01*
G01X9739Y14200D01*
G01X9759Y14204D01*
G01X9777Y14211D01*
G01X9796Y14219D01*
G01X9813Y14229D01*
G01X9829Y14241D01*
G01X9844Y14254D01*
G01X9857Y14268D01*
G01X9869Y14284D01*
G01X9880Y14301D01*
G01X9888Y14319D01*
G01X9895Y14338D01*
G01X9900Y14357D01*
G01X9903Y14377D01*
G01X9904Y14397D01*
G01X9903Y14416D01*
G01X9903Y14419D01*
G01X9917Y14412D01*
G01X9936Y14404D01*
G01X9955Y14399D01*
G01X9975Y14396D01*
G01X9995Y14394D01*
G01X10014Y14395D01*
G01X10034Y14397D01*
G01X10054Y14401D01*
G01X10072Y14408D01*
G01X10091Y14416D01*
G01X10097Y14419D01*
G01X10095Y14406D01*
G01X10095Y14387D01*
G01X10097Y14367D01*
G01X10101Y14347D01*
G01X10107Y14328D01*
G01X10115Y14310D01*
G01X10124Y14292D01*
G01X10135Y14276D01*
G01X10148Y14261D01*
G01X10162Y14247D01*
G01X10178Y14235D01*
G01X10195Y14224D01*
G01X10212Y14215D01*
G01X10231Y14207D01*
G01X10250Y14202D01*
G01X10270Y14199D01*
G01X10290Y14197D01*
G01X10309Y14198D01*
G01X10329Y14200D01*
G01X10349Y14204D01*
G01X10367Y14211D01*
G01X10386Y14219D01*
G01X10403Y14229D01*
G01X10419Y14241D01*
G01X10434Y14254D01*
G01X10447Y14268D01*
G01X10459Y14284D01*
G01X10470Y14301D01*
G01X10478Y14319D01*
G01X10485Y14338D01*
G01X10490Y14357D01*
G01X10493Y14377D01*
G01X10494Y14397D01*
G01X10493Y14416D01*
G01X10490Y14436D01*
G01X10485Y14455D01*
G01X10478Y14474D01*
G01X10470Y14492D01*
G01X10459Y14509D01*
G01X10447Y14525D01*
G01X10434Y14539D01*
G01X10419Y14552D01*
G01X10403Y14564D01*
G01X10386Y14574D01*
G01X10367Y14582D01*
G01X10349Y14589D01*
G01X10329Y14593D01*
G01X10325Y14594D01*
G01X10329Y14594D01*
G01X10349Y14598D01*
G01X10367Y14605D01*
G01X10386Y14613D01*
G01X10403Y14623D01*
G01X10419Y14635D01*
G01X10434Y14648D01*
G01X10447Y14662D01*
G01X10459Y14678D01*
G01X10470Y14695D01*
G01X10478Y14713D01*
G01X10485Y14732D01*
G01X10490Y14751D01*
G01X10493Y14771D01*
G01X10494Y14790D01*
G01X10493Y14810D01*
G01X10490Y14830D01*
G01X10485Y14849D01*
G01X10478Y14868D01*
G01X10470Y14886D01*
G01X10459Y14903D01*
G01X10447Y14919D01*
G01X10434Y14933D01*
G01X10419Y14946D01*
G01X10403Y14958D01*
G01X10386Y14968D01*
G01X10367Y14976D01*
G01X10349Y14983D01*
G01X10329Y14987D01*
G01X10309Y14989D01*
G01X10290Y14990D01*
G01X10270Y14988D01*
G01X10250Y14985D01*
G01X10231Y14980D01*
G01X10212Y14972D01*
G01X10195Y14963D01*
G01X10178Y14952D01*
G01X10162Y14940D01*
G01X10148Y14926D01*
G01X10135Y14911D01*
G01X10124Y14895D01*
G01X10115Y14877D01*
G01X10107Y14859D01*
G01X10101Y14840D01*
G01X10097Y14820D01*
G01X10095Y14800D01*
G01X10095Y14781D01*
G01X10097Y14768D01*
G01X10091Y14771D01*
G01X10072Y14779D01*
G01X10054Y14786D01*
G01X10034Y14790D01*
G01X10014Y14792D01*
G01X9995Y14793D01*
G01X9975Y14791D01*
G01X9955Y14788D01*
G01X9936Y14783D01*
G01X9917Y14775D01*
G01X9903Y14768D01*
G01X9903Y14771D01*
G01X9904Y14790D01*
G01X9903Y14810D01*
G01X9900Y14830D01*
G01X9895Y14849D01*
G01X9888Y14868D01*
G01X9880Y14886D01*
G01X9869Y14903D01*
G01X9857Y14919D01*
G01X9844Y14933D01*
G01X9829Y14946D01*
G01X9813Y14958D01*
G01X9796Y14968D01*
G01X9777Y14976D01*
G01X9759Y14983D01*
G01X9739Y14987D01*
G01X9719Y14989D01*
G01X9700Y14990D01*
G01X9680Y14988D01*
G01X9660Y14985D01*
G01X9641Y14980D01*
G01X9622Y14972D01*
G01X9605Y14963D01*
G01X9588Y14952D01*
G01X9572Y14940D01*
G01X9558Y14926D01*
G01X9545Y14911D01*
G01X9534Y14895D01*
G01X9525Y14877D01*
G01X9517Y14859D01*
G01X9511Y14840D01*
G01X9507Y14820D01*
G01X9505Y14800D01*
G01X9505Y14781D01*
G01X9507Y14761D01*
G01X9511Y14741D01*
G01X9517Y14722D01*
G01X9525Y14704D01*
G01X9534Y14686D01*
G01X9545Y14670D01*
G01X9558Y14655D01*
G01X9572Y14641D01*
G01X9588Y14629D01*
G01X9605Y14618D01*
G01X9622Y14609D01*
G01X9641Y14601D01*
G01X9660Y14596D01*
G01X9674Y14594D01*
G01X9660Y14591D01*
G01X9641Y14586D01*
G01X9622Y14578D01*
G01X9605Y14569D01*
G01X9588Y14558D01*
G01X9572Y14546D01*
G01X9558Y14532D01*
G01X9545Y14517D01*
G01X9534Y14501D01*
G01X9525Y14483D01*
G01X9517Y14465D01*
G01X9511Y14446D01*
G01X9507Y14426D01*
G01X9505Y14406D01*
G01X9505Y14387D01*
G01X9507Y14367D01*
G01X9511Y14347D01*
G01X9517Y14328D01*
G01X9525Y14310D01*
G01X9534Y14292D01*
G01X9545Y14276D01*
G01X9558Y14261D01*
G01X9572Y14247D01*
G01X9588Y14235D01*
G01X9605Y14224D01*
G01X9622Y14215D01*
G01X9641Y14207D01*
G01X9660Y14202D01*
G01X9680Y14199D01*
G37*
G36*
G01X19235Y14084D02*
G01X19239Y14084D01*
G01X19394Y14084D01*
G01X19394Y14338D01*
G01X19139Y14338D01*
G01X19139Y14184D01*
G01X19140Y14179D01*
G01X19140Y14175D01*
G01X19140Y14171D01*
G01X19141Y14167D01*
G01X19142Y14163D01*
G01X19143Y14159D01*
G01X19144Y14155D01*
G01X19145Y14151D01*
G01X19146Y14147D01*
G01X19148Y14143D01*
G01X19150Y14140D01*
G01X19152Y14136D01*
G01X19154Y14132D01*
G01X19156Y14129D01*
G01X19158Y14125D01*
G01X19161Y14122D01*
G01X19163Y14119D01*
G01X19166Y14116D01*
G01X19169Y14113D01*
G01X19172Y14110D01*
G01X19175Y14107D01*
G01X19178Y14105D01*
G01X19181Y14102D01*
G01X19185Y14100D01*
G01X19188Y14098D01*
G01X19192Y14096D01*
G01X19196Y14094D01*
G01X19199Y14092D01*
G01X19203Y14090D01*
G01X19207Y14089D01*
G01X19211Y14088D01*
G01X19215Y14087D01*
G01X19219Y14086D01*
G01X19223Y14085D01*
G01X19227Y14084D01*
G01X19231Y14084D01*
G01X19235Y14084D01*
G37*
G36*
G01X19705Y14338D02*
G01X19705Y14084D01*
G01X19860Y14084D01*
G01X19864Y14084D01*
G01X19868Y14084D01*
G01X19872Y14084D01*
G01X19876Y14085D01*
G01X19880Y14086D01*
G01X19884Y14087D01*
G01X19888Y14088D01*
G01X19892Y14089D01*
G01X19896Y14090D01*
G01X19900Y14092D01*
G01X19903Y14094D01*
G01X19907Y14096D01*
G01X19911Y14098D01*
G01X19914Y14100D01*
G01X19918Y14102D01*
G01X19921Y14105D01*
G01X19924Y14107D01*
G01X19927Y14110D01*
G01X19930Y14113D01*
G01X19933Y14116D01*
G01X19936Y14119D01*
G01X19938Y14122D01*
G01X19941Y14125D01*
G01X19943Y14129D01*
G01X19945Y14132D01*
G01X19947Y14136D01*
G01X19949Y14140D01*
G01X19951Y14143D01*
G01X19953Y14147D01*
G01X19954Y14151D01*
G01X19955Y14155D01*
G01X19956Y14159D01*
G01X19957Y14163D01*
G01X19958Y14167D01*
G01X19959Y14171D01*
G01X19959Y14175D01*
G01X19959Y14179D01*
G01X19960Y14184D01*
G01X19960Y14338D01*
G01X19705Y14338D01*
G37*
G36*
G01X19498Y13086D02*
G01X19539Y13083D01*
G01X19580Y13084D01*
G01X19621Y13089D01*
G01X19661Y13098D01*
G01X19700Y13111D01*
G01X19737Y13128D01*
G01X19772Y13148D01*
G01X19806Y13172D01*
G01X19836Y13199D01*
G01X19864Y13229D01*
G01X19889Y13262D01*
G01X19910Y13297D01*
G01X19928Y13334D01*
G01X19942Y13372D01*
G01X19952Y13412D01*
G01X19958Y13453D01*
G01X19960Y13494D01*
G01X19958Y13534D01*
G01X19952Y13575D01*
G01X19942Y13615D01*
G01X19928Y13653D01*
G01X19910Y13690D01*
G01X19889Y13725D01*
G01X19864Y13758D01*
G01X19836Y13788D01*
G01X19806Y13815D01*
G01X19772Y13839D01*
G01X19737Y13859D01*
G01X19700Y13876D01*
G01X19661Y13889D01*
G01X19621Y13898D01*
G01X19580Y13903D01*
G01X19539Y13904D01*
G01X19498Y13901D01*
G01X19458Y13894D01*
G01X19419Y13883D01*
G01X19380Y13868D01*
G01X19344Y13849D01*
G01X19310Y13827D01*
G01X19278Y13802D01*
G01X19248Y13773D01*
G01X19222Y13742D01*
G01X19199Y13708D01*
G01X19179Y13672D01*
G01X19163Y13634D01*
G01X19151Y13595D01*
G01X19143Y13555D01*
G01X19139Y13514D01*
G01X19139Y13473D01*
G01X19143Y13432D01*
G01X19151Y13392D01*
G01X19163Y13353D01*
G01X19179Y13315D01*
G01X19199Y13279D01*
G01X19222Y13245D01*
G01X19248Y13214D01*
G01X19278Y13185D01*
G01X19310Y13160D01*
G01X19344Y13138D01*
G01X19380Y13119D01*
G01X19419Y13104D01*
G01X19458Y13093D01*
G01X19498Y13086D01*
G37*
G36*
G01X19498Y12086D02*
G01X19539Y12083D01*
G01X19580Y12084D01*
G01X19621Y12089D01*
G01X19661Y12098D01*
G01X19700Y12111D01*
G01X19737Y12128D01*
G01X19772Y12148D01*
G01X19806Y12172D01*
G01X19836Y12199D01*
G01X19864Y12229D01*
G01X19889Y12262D01*
G01X19910Y12297D01*
G01X19928Y12334D01*
G01X19942Y12372D01*
G01X19952Y12412D01*
G01X19958Y12453D01*
G01X19960Y12494D01*
G01X19958Y12534D01*
G01X19952Y12575D01*
G01X19942Y12615D01*
G01X19928Y12653D01*
G01X19910Y12690D01*
G01X19889Y12725D01*
G01X19864Y12758D01*
G01X19836Y12788D01*
G01X19806Y12815D01*
G01X19772Y12839D01*
G01X19737Y12859D01*
G01X19700Y12876D01*
G01X19661Y12889D01*
G01X19621Y12898D01*
G01X19580Y12903D01*
G01X19539Y12904D01*
G01X19498Y12901D01*
G01X19458Y12894D01*
G01X19419Y12883D01*
G01X19380Y12868D01*
G01X19344Y12849D01*
G01X19310Y12827D01*
G01X19278Y12802D01*
G01X19248Y12773D01*
G01X19222Y12742D01*
G01X19199Y12708D01*
G01X19179Y12672D01*
G01X19163Y12634D01*
G01X19151Y12595D01*
G01X19143Y12555D01*
G01X19139Y12514D01*
G01X19139Y12473D01*
G01X19143Y12432D01*
G01X19151Y12392D01*
G01X19163Y12353D01*
G01X19179Y12315D01*
G01X19199Y12279D01*
G01X19222Y12245D01*
G01X19248Y12214D01*
G01X19278Y12185D01*
G01X19310Y12160D01*
G01X19344Y12138D01*
G01X19380Y12119D01*
G01X19419Y12104D01*
G01X19458Y12093D01*
G01X19498Y12086D01*
G37*
G36*
G01X10222Y11872D02*
G01X10244Y11871D01*
G01X10266Y11871D01*
G01X10288Y11874D01*
G01X10310Y11879D01*
G01X10331Y11886D01*
G01X10351Y11895D01*
G01X10370Y11906D01*
G01X10381Y11913D01*
G01X12068Y11913D01*
G01X12069Y11912D01*
G01X12088Y11900D01*
G01X12108Y11890D01*
G01X12128Y11882D01*
G01X12150Y11876D01*
G01X12172Y11872D01*
G01X12194Y11871D01*
G01X12216Y11871D01*
G01X12238Y11874D01*
G01X12260Y11879D01*
G01X12281Y11886D01*
G01X12301Y11895D01*
G01X12320Y11906D01*
G01X12339Y11919D01*
G01X12355Y11934D01*
G01X12370Y11950D01*
G01X12384Y11968D01*
G01X12395Y11987D01*
G01X12405Y12007D01*
G01X12413Y12028D01*
G01X12418Y12049D01*
G01X12421Y12071D01*
G01X12422Y12094D01*
G01X12421Y12116D01*
G01X12418Y12138D01*
G01X12413Y12159D01*
G01X12405Y12180D01*
G01X12395Y12200D01*
G01X12384Y12219D01*
G01X12370Y12237D01*
G01X12355Y12253D01*
G01X12339Y12268D01*
G01X12320Y12281D01*
G01X12301Y12292D01*
G01X12281Y12301D01*
G01X12260Y12308D01*
G01X12238Y12313D01*
G01X12216Y12316D01*
G01X12194Y12316D01*
G01X12172Y12315D01*
G01X12150Y12311D01*
G01X12128Y12305D01*
G01X12108Y12297D01*
G01X12088Y12287D01*
G01X12069Y12275D01*
G01X12068Y12274D01*
G01X10381Y12274D01*
G01X10370Y12281D01*
G01X10351Y12292D01*
G01X10331Y12301D01*
G01X10310Y12308D01*
G01X10288Y12313D01*
G01X10266Y12316D01*
G01X10244Y12316D01*
G01X10222Y12315D01*
G01X10200Y12311D01*
G01X10178Y12305D01*
G01X10158Y12297D01*
G01X10138Y12287D01*
G01X10119Y12275D01*
G01X10102Y12261D01*
G01X10086Y12245D01*
G01X10072Y12228D01*
G01X10059Y12210D01*
G01X10049Y12190D01*
G01X10040Y12170D01*
G01X10033Y12149D01*
G01X10029Y12127D01*
G01X10027Y12105D01*
G01X10027Y12082D01*
G01X10029Y12060D01*
G01X10033Y12038D01*
G01X10040Y12017D01*
G01X10049Y11997D01*
G01X10059Y11977D01*
G01X10072Y11959D01*
G01X10086Y11942D01*
G01X10102Y11926D01*
G01X10119Y11912D01*
G01X10138Y11900D01*
G01X10158Y11890D01*
G01X10178Y11882D01*
G01X10200Y11876D01*
G01X10222Y11872D01*
G37*
G36*
G01X16772Y15572D02*
G01X16794Y15571D01*
G01X16816Y15571D01*
G01X16838Y15574D01*
G01X16860Y15579D01*
G01X16881Y15586D01*
G01X16901Y15595D01*
G01X16920Y15606D01*
G01X16939Y15619D01*
G01X16955Y15634D01*
G01X16970Y15650D01*
G01X16984Y15668D01*
G01X16995Y15687D01*
G01X17005Y15707D01*
G01X17013Y15728D01*
G01X17018Y15749D01*
G01X17021Y15771D01*
G01X17022Y15790D01*
G01X17163Y15930D01*
G01X17166Y15934D01*
G01X17170Y15938D01*
G01X17174Y15943D01*
G01X17177Y15947D01*
G01X17180Y15951D01*
G01X17183Y15956D01*
G01X17186Y15960D01*
G01X17189Y15965D01*
G01X17192Y15970D01*
G01X17194Y15975D01*
G01X17196Y15980D01*
G01X17198Y15985D01*
G01X17200Y15990D01*
G01X17202Y15995D01*
G01X17204Y16000D01*
G01X17205Y16006D01*
G01X17206Y16011D01*
G01X17207Y16016D01*
G01X17208Y16022D01*
G01X17209Y16027D01*
G01X17209Y16033D01*
G01X17209Y16038D01*
G01X17210Y16044D01*
G01X17210Y18627D01*
G01X17306Y18723D01*
G01X19625Y18723D01*
G01X19632Y18716D01*
G01X19649Y18702D01*
G01X19668Y18690D01*
G01X19688Y18680D01*
G01X19708Y18672D01*
G01X19730Y18666D01*
G01X19752Y18662D01*
G01X19774Y18661D01*
G01X19796Y18661D01*
G01X19818Y18664D01*
G01X19840Y18669D01*
G01X19861Y18676D01*
G01X19881Y18685D01*
G01X19900Y18696D01*
G01X19919Y18709D01*
G01X19935Y18724D01*
G01X19950Y18740D01*
G01X19964Y18758D01*
G01X19975Y18777D01*
G01X19985Y18797D01*
G01X19993Y18818D01*
G01X19998Y18839D01*
G01X20001Y18861D01*
G01X20002Y18884D01*
G01X20001Y18906D01*
G01X19998Y18928D01*
G01X19993Y18949D01*
G01X19985Y18970D01*
G01X19975Y18990D01*
G01X19964Y19009D01*
G01X19950Y19027D01*
G01X19935Y19043D01*
G01X19919Y19058D01*
G01X19900Y19071D01*
G01X19881Y19082D01*
G01X19861Y19091D01*
G01X19840Y19098D01*
G01X19818Y19103D01*
G01X19796Y19106D01*
G01X19774Y19106D01*
G01X19752Y19105D01*
G01X19730Y19101D01*
G01X19708Y19095D01*
G01X19688Y19087D01*
G01X19668Y19077D01*
G01X19649Y19065D01*
G01X19632Y19051D01*
G01X19625Y19043D01*
G01X18149Y19043D01*
G01X18155Y19057D01*
G01X18163Y19078D01*
G01X18168Y19099D01*
G01X18171Y19121D01*
G01X18172Y19144D01*
G01X18171Y19166D01*
G01X18168Y19188D01*
G01X18163Y19209D01*
G01X18155Y19230D01*
G01X18145Y19250D01*
G01X18134Y19269D01*
G01X18120Y19287D01*
G01X18105Y19303D01*
G01X18089Y19318D01*
G01X18070Y19331D01*
G01X18051Y19342D01*
G01X18031Y19351D01*
G01X18010Y19358D01*
G01X17988Y19363D01*
G01X17966Y19366D01*
G01X17944Y19366D01*
G01X17922Y19365D01*
G01X17900Y19361D01*
G01X17878Y19355D01*
G01X17858Y19347D01*
G01X17838Y19337D01*
G01X17819Y19325D01*
G01X17802Y19311D01*
G01X17795Y19303D01*
G01X17213Y19303D01*
G01X17214Y19305D01*
G01X17215Y19310D01*
G01X17219Y19322D01*
G01X17220Y19327D01*
G01X17223Y19339D01*
G01X17224Y19344D01*
G01X17226Y19357D01*
G01X17227Y19362D01*
G01X17228Y19374D01*
G01X17229Y19379D01*
G01X17230Y19392D01*
G01X17230Y19397D01*
G01X17230Y19410D01*
G01X17230Y19412D01*
G01X17230Y19767D01*
G01X17230Y19769D01*
G01X17230Y19782D01*
G01X17230Y19787D01*
G01X17229Y19800D01*
G01X17228Y19805D01*
G01X17227Y19817D01*
G01X17226Y19822D01*
G01X17224Y19835D01*
G01X17223Y19840D01*
G01X17220Y19852D01*
G01X17219Y19857D01*
G01X17215Y19869D01*
G01X17214Y19874D01*
G01X17210Y19886D01*
G01X17208Y19891D01*
G01X17203Y19903D01*
G01X17202Y19907D01*
G01X17196Y19919D01*
G01X17194Y19923D01*
G01X17188Y19935D01*
G01X17186Y19939D01*
G01X17179Y19950D01*
G01X17177Y19954D01*
G01X17170Y19965D01*
G01X17167Y19969D01*
G01X17160Y19980D01*
G01X17157Y19983D01*
G01X17149Y19993D01*
G01X17146Y19997D01*
G01X17144Y19999D01*
G01X21100Y19999D01*
G01X21106Y19999D01*
G01X21112Y19999D01*
G01X21118Y19999D01*
G01X21124Y20000D01*
G01X21130Y20001D01*
G01X21137Y20002D01*
G01X21143Y20003D01*
G01X21149Y20004D01*
G01X21155Y20005D01*
G01X21161Y20007D01*
G01X21167Y20009D01*
G01X21173Y20011D01*
G01X21178Y20013D01*
G01X21184Y20015D01*
G01X21190Y20017D01*
G01X21196Y20020D01*
G01X21201Y20023D01*
G01X21207Y20026D01*
G01X21212Y20029D01*
G01X21217Y20032D01*
G01X21223Y20035D01*
G01X21228Y20039D01*
G01X21233Y20042D01*
G01X21238Y20046D01*
G01X21243Y20050D01*
G01X21247Y20054D01*
G01X21252Y20058D01*
G01X21256Y20062D01*
G01X21261Y20067D01*
G01X21265Y20071D01*
G01X21269Y20076D01*
G01X21273Y20080D01*
G01X21277Y20085D01*
G01X21281Y20090D01*
G01X21284Y20095D01*
G01X21288Y20100D01*
G01X21291Y20106D01*
G01X21294Y20111D01*
G01X21297Y20116D01*
G01X21300Y20122D01*
G01X21303Y20127D01*
G01X21306Y20133D01*
G01X21308Y20139D01*
G01X21310Y20145D01*
G01X21312Y20150D01*
G01X21314Y20156D01*
G01X21316Y20162D01*
G01X21318Y20168D01*
G01X21319Y20174D01*
G01X21320Y20180D01*
G01X21321Y20186D01*
G01X21322Y20193D01*
G01X21323Y20199D01*
G01X21324Y20205D01*
G01X21324Y20211D01*
G01X21324Y20217D01*
G01X21325Y20224D01*
G01X21325Y20244D01*
G01X21324Y20255D01*
G01X21323Y20266D01*
G01X21322Y20277D01*
G01X21320Y20288D01*
G01X21318Y20299D01*
G01X21314Y20310D01*
G01X21311Y20320D01*
G01X21307Y20331D01*
G01X21302Y20341D01*
G01X21297Y20351D01*
G01X21291Y20361D01*
G01X21285Y20370D01*
G01X21279Y20379D01*
G01X21272Y20388D01*
G01X21264Y20397D01*
G01X21257Y20405D01*
G01X21248Y20412D01*
G01X21240Y20419D01*
G01X21231Y20426D01*
G01X21222Y20433D01*
G01X21212Y20438D01*
G01X21202Y20444D01*
G01X21192Y20449D01*
G01X21182Y20453D01*
G01X21171Y20457D01*
G01X21160Y20460D01*
G01X21150Y20463D01*
G01X21139Y20465D01*
G01X21127Y20467D01*
G01X21116Y20468D01*
G01X21105Y20468D01*
G01X21094Y20468D01*
G01X21083Y20468D01*
G01X21072Y20467D01*
G01X21060Y20465D01*
G01X21049Y20463D01*
G01X21039Y20460D01*
G01X21028Y20457D01*
G01X21017Y20453D01*
G01X21007Y20449D01*
G01X21007Y20449D01*
G01X13180Y20449D01*
G01X13173Y20448D01*
G01X13167Y20448D01*
G01X13161Y20448D01*
G01X13154Y20447D01*
G01X13148Y20446D01*
G01X13142Y20445D01*
G01X13136Y20444D01*
G01X13129Y20443D01*
G01X13123Y20441D01*
G01X13117Y20440D01*
G01X13111Y20438D01*
G01X13105Y20436D01*
G01X13099Y20434D01*
G01X13093Y20431D01*
G01X13088Y20429D01*
G01X13082Y20426D01*
G01X13076Y20423D01*
G01X13071Y20420D01*
G01X13065Y20417D01*
G01X13060Y20414D01*
G01X13055Y20411D01*
G01X13049Y20407D01*
G01X13044Y20403D01*
G01X13039Y20399D01*
G01X13034Y20395D01*
G01X13030Y20391D01*
G01X13025Y20387D01*
G01X13020Y20383D01*
G01X12736Y20099D01*
G01X12450Y20099D01*
G01X12438Y20098D01*
G01X12427Y20097D01*
G01X12416Y20096D01*
G01X12405Y20094D01*
G01X12394Y20092D01*
G01X12383Y20088D01*
G01X12373Y20085D01*
G01X12362Y20081D01*
G01X12352Y20076D01*
G01X12342Y20071D01*
G01X12332Y20065D01*
G01X12323Y20059D01*
G01X12314Y20053D01*
G01X12305Y20046D01*
G01X12296Y20038D01*
G01X12288Y20031D01*
G01X12281Y20022D01*
G01X12274Y20014D01*
G01X12267Y20005D01*
G01X12260Y19996D01*
G01X12255Y19986D01*
G01X12249Y19976D01*
G01X12244Y19966D01*
G01X12240Y19956D01*
G01X12236Y19945D01*
G01X12233Y19934D01*
G01X12230Y19924D01*
G01X12228Y19913D01*
G01X12226Y19901D01*
G01X12225Y19890D01*
G01X12225Y19879D01*
G01X12225Y19868D01*
G01X12225Y19857D01*
G01X12226Y19846D01*
G01X12228Y19834D01*
G01X12230Y19823D01*
G01X12233Y19813D01*
G01X12236Y19802D01*
G01X12240Y19791D01*
G01X12244Y19781D01*
G01X12249Y19771D01*
G01X12255Y19761D01*
G01X12260Y19751D01*
G01X12267Y19742D01*
G01X12274Y19733D01*
G01X12281Y19725D01*
G01X12288Y19716D01*
G01X12296Y19709D01*
G01X12302Y19703D01*
G01X12166Y19703D01*
G01X12043Y19827D01*
G01X12039Y19830D01*
G01X12035Y19834D01*
G01X12030Y19838D01*
G01X12026Y19841D01*
G01X12022Y19844D01*
G01X12017Y19847D01*
G01X12013Y19850D01*
G01X12008Y19853D01*
G01X12003Y19856D01*
G01X11998Y19858D01*
G01X11993Y19860D01*
G01X11988Y19862D01*
G01X11983Y19864D01*
G01X11978Y19866D01*
G01X11973Y19868D01*
G01X11967Y19869D01*
G01X11962Y19870D01*
G01X11957Y19871D01*
G01X11951Y19872D01*
G01X11946Y19873D01*
G01X11940Y19873D01*
G01X11935Y19873D01*
G01X11930Y19874D01*
G01X10346Y19874D01*
G01X9563Y20657D01*
G01X9559Y20660D01*
G01X9555Y20664D01*
G01X9550Y20668D01*
G01X9546Y20671D01*
G01X9542Y20674D01*
G01X9537Y20677D01*
G01X9533Y20680D01*
G01X9528Y20683D01*
G01X9523Y20686D01*
G01X9518Y20688D01*
G01X9513Y20690D01*
G01X9508Y20692D01*
G01X9503Y20694D01*
G01X9498Y20696D01*
G01X9493Y20698D01*
G01X9487Y20699D01*
G01X9482Y20700D01*
G01X9477Y20701D01*
G01X9471Y20702D01*
G01X9466Y20703D01*
G01X9460Y20703D01*
G01X9455Y20703D01*
G01X9450Y20703D01*
G01X7950Y20703D01*
G01X7944Y20703D01*
G01X7939Y20703D01*
G01X7933Y20703D01*
G01X7928Y20702D01*
G01X7922Y20701D01*
G01X7917Y20700D01*
G01X7912Y20699D01*
G01X7906Y20698D01*
G01X7901Y20696D01*
G01X7896Y20694D01*
G01X7891Y20692D01*
G01X7886Y20690D01*
G01X7881Y20688D01*
G01X7876Y20686D01*
G01X7871Y20683D01*
G01X7866Y20680D01*
G01X7862Y20677D01*
G01X7857Y20674D01*
G01X7853Y20671D01*
G01X7849Y20668D01*
G01X7844Y20664D01*
G01X7840Y20660D01*
G01X7836Y20657D01*
G01X7496Y20316D01*
G01X7494Y20316D01*
G01X7472Y20315D01*
G01X7450Y20311D01*
G01X7428Y20305D01*
G01X7408Y20297D01*
G01X7388Y20287D01*
G01X7369Y20275D01*
G01X7352Y20261D01*
G01X7336Y20245D01*
G01X7322Y20228D01*
G01X7309Y20210D01*
G01X7299Y20190D01*
G01X7290Y20170D01*
G01X7283Y20149D01*
G01X7279Y20127D01*
G01X7277Y20105D01*
G01X7277Y20082D01*
G01X7279Y20060D01*
G01X7283Y20038D01*
G01X7290Y20017D01*
G01X7299Y19997D01*
G01X7309Y19977D01*
G01X7322Y19959D01*
G01X7336Y19942D01*
G01X7352Y19926D01*
G01X7369Y19912D01*
G01X7388Y19900D01*
G01X7408Y19890D01*
G01X7428Y19882D01*
G01X7450Y19876D01*
G01X7472Y19872D01*
G01X7494Y19871D01*
G01X7516Y19871D01*
G01X7538Y19874D01*
G01X7560Y19879D01*
G01X7581Y19886D01*
G01X7601Y19895D01*
G01X7620Y19906D01*
G01X7639Y19919D01*
G01X7655Y19934D01*
G01X7670Y19950D01*
G01X7684Y19968D01*
G01X7695Y19987D01*
G01X7705Y20007D01*
G01X7713Y20028D01*
G01X7718Y20049D01*
G01X7721Y20071D01*
G01X7722Y20090D01*
G01X8016Y20384D01*
G01X9383Y20384D01*
G01X10166Y19600D01*
G01X10170Y19597D01*
G01X10174Y19593D01*
G01X10179Y19589D01*
G01X10183Y19586D01*
G01X10187Y19583D01*
G01X10192Y19580D01*
G01X10196Y19577D01*
G01X10201Y19574D01*
G01X10206Y19571D01*
G01X10211Y19569D01*
G01X10216Y19567D01*
G01X10221Y19565D01*
G01X10226Y19563D01*
G01X10231Y19561D01*
G01X10236Y19559D01*
G01X10242Y19558D01*
G01X10247Y19557D01*
G01X10252Y19556D01*
G01X10258Y19555D01*
G01X10263Y19554D01*
G01X10269Y19554D01*
G01X10274Y19554D01*
G01X10280Y19553D01*
G01X11863Y19553D01*
G01X11986Y19430D01*
G01X11989Y19428D01*
G01X11991Y19426D01*
G01X11991Y19426D01*
G01X11992Y19425D01*
G01X11994Y19423D01*
G01X11997Y19421D01*
G01X11997Y19420D01*
G01X11998Y19420D01*
G01X12001Y19418D01*
G01X12003Y19416D01*
G01X12004Y19415D01*
G01X12004Y19415D01*
G01X12007Y19413D01*
G01X12009Y19411D01*
G01X12010Y19411D01*
G01X12011Y19410D01*
G01X12014Y19409D01*
G01X12016Y19407D01*
G01X12017Y19406D01*
G01X12018Y19406D01*
G01X12020Y19405D01*
G01X12023Y19403D01*
G01X12024Y19402D01*
G01X12025Y19402D01*
G01X12027Y19401D01*
G01X12030Y19399D01*
G01X12031Y19399D01*
G01X12032Y19398D01*
G01X12034Y19397D01*
G01X12037Y19396D01*
G01X12038Y19396D01*
G01X12039Y19395D01*
G01X12042Y19394D01*
G01X12045Y19393D01*
G01X12046Y19393D01*
G01X12047Y19392D01*
G01X12050Y19392D01*
G01X12052Y19391D01*
G01X12053Y19390D01*
G01X12054Y19390D01*
G01X12057Y19389D01*
G01X12060Y19388D01*
G01X12061Y19388D01*
G01X12062Y19388D01*
G01X12065Y19387D01*
G01X12068Y19387D01*
G01X12069Y19386D01*
G01X12070Y19386D01*
G01X12073Y19386D01*
G01X12076Y19385D01*
G01X12077Y19385D01*
G01X12078Y19385D01*
G01X12081Y19385D01*
G01X12084Y19384D01*
G01X12084Y19384D01*
G01X12086Y19384D01*
G01X12089Y19384D01*
G01X12092Y19384D01*
G01X12092Y19384D01*
G01X12094Y19384D01*
G01X12097Y19384D01*
G01X12100Y19384D01*
G01X13233Y19384D01*
G01X13289Y19327D01*
G01X13289Y18944D01*
G01X13290Y18938D01*
G01X13290Y18933D01*
G01X13290Y18927D01*
G01X13291Y18922D01*
G01X13292Y18916D01*
G01X13293Y18911D01*
G01X13294Y18906D01*
G01X13295Y18900D01*
G01X13297Y18895D01*
G01X13299Y18890D01*
G01X13301Y18885D01*
G01X13303Y18880D01*
G01X13305Y18875D01*
G01X13307Y18870D01*
G01X13310Y18865D01*
G01X13313Y18860D01*
G01X13316Y18856D01*
G01X13319Y18851D01*
G01X13322Y18847D01*
G01X13325Y18843D01*
G01X13329Y18838D01*
G01X13333Y18834D01*
G01X13336Y18830D01*
G01X13536Y18630D01*
G01X13539Y18628D01*
G01X13541Y18626D01*
G01X13541Y18626D01*
G01X13542Y18625D01*
G01X13544Y18623D01*
G01X13547Y18621D01*
G01X13547Y18620D01*
G01X13548Y18620D01*
G01X13551Y18618D01*
G01X13553Y18616D01*
G01X13554Y18615D01*
G01X13554Y18615D01*
G01X13557Y18613D01*
G01X13559Y18611D01*
G01X13560Y18611D01*
G01X13561Y18610D01*
G01X13564Y18609D01*
G01X13566Y18607D01*
G01X13567Y18606D01*
G01X13568Y18606D01*
G01X13570Y18605D01*
G01X13573Y18603D01*
G01X13574Y18602D01*
G01X13575Y18602D01*
G01X13577Y18601D01*
G01X13580Y18599D01*
G01X13581Y18599D01*
G01X13582Y18598D01*
G01X13584Y18597D01*
G01X13587Y18596D01*
G01X13588Y18596D01*
G01X13589Y18595D01*
G01X13592Y18594D01*
G01X13595Y18593D01*
G01X13596Y18593D01*
G01X13597Y18592D01*
G01X13600Y18592D01*
G01X13602Y18591D01*
G01X13603Y18590D01*
G01X13604Y18590D01*
G01X13607Y18589D01*
G01X13610Y18588D01*
G01X13611Y18588D01*
G01X13612Y18588D01*
G01X13615Y18587D01*
G01X13618Y18587D01*
G01X13619Y18586D01*
G01X13620Y18586D01*
G01X13623Y18586D01*
G01X13626Y18585D01*
G01X13627Y18585D01*
G01X13628Y18585D01*
G01X13631Y18585D01*
G01X13634Y18584D01*
G01X13634Y18584D01*
G01X13636Y18584D01*
G01X13639Y18584D01*
G01X13642Y18584D01*
G01X13642Y18584D01*
G01X13644Y18584D01*
G01X13647Y18584D01*
G01X13650Y18584D01*
G01X13950Y18584D01*
G01X13955Y18584D01*
G01X13960Y18584D01*
G01X13966Y18584D01*
G01X13971Y18585D01*
G01X13977Y18586D01*
G01X13982Y18587D01*
G01X13987Y18588D01*
G01X13993Y18589D01*
G01X13998Y18591D01*
G01X14003Y18593D01*
G01X14008Y18595D01*
G01X14013Y18597D01*
G01X14018Y18599D01*
G01X14023Y18601D01*
G01X14028Y18604D01*
G01X14033Y18607D01*
G01X14037Y18610D01*
G01X14042Y18613D01*
G01X14046Y18616D01*
G01X14050Y18619D01*
G01X14055Y18623D01*
G01X14059Y18627D01*
G01X14063Y18630D01*
G01X14141Y18709D01*
G01X14135Y18698D01*
G01X14120Y18662D01*
G01X14108Y18624D01*
G01X14101Y18586D01*
G01X14097Y18546D01*
G01X14097Y18507D01*
G01X14101Y18467D01*
G01X14108Y18429D01*
G01X14120Y18391D01*
G01X14135Y18355D01*
G01X14154Y18320D01*
G01X14177Y18287D01*
G01X14202Y18257D01*
G01X14230Y18229D01*
G01X14261Y18205D01*
G01X14294Y18183D01*
G01X14330Y18165D01*
G01X14366Y18151D01*
G01X14404Y18140D01*
G01X14443Y18133D01*
G01X14483Y18130D01*
G01X14522Y18131D01*
G01X14561Y18136D01*
G01X14600Y18145D01*
G01X14637Y18158D01*
G01X14673Y18174D01*
G01X14707Y18194D01*
G01X14740Y18217D01*
G01X14769Y18243D01*
G01X14796Y18272D01*
G01X14820Y18303D01*
G01X14841Y18337D01*
G01X14858Y18373D01*
G01X14871Y18410D01*
G01X14881Y18448D01*
G01X14887Y18487D01*
G01X14889Y18527D01*
G01X14887Y18566D01*
G01X14881Y18605D01*
G01X14871Y18643D01*
G01X14858Y18680D01*
G01X14841Y18716D01*
G01X14820Y18750D01*
G01X14796Y18781D01*
G01X14769Y18810D01*
G01X14740Y18836D01*
G01X14707Y18859D01*
G01X14673Y18879D01*
G01X14637Y18895D01*
G01X14600Y18908D01*
G01X14561Y18917D01*
G01X14522Y18922D01*
G01X14483Y18923D01*
G01X14443Y18920D01*
G01X14404Y18913D01*
G01X14366Y18902D01*
G01X14330Y18888D01*
G01X14310Y18878D01*
G01X14566Y19134D01*
G01X16233Y19134D01*
G01X16447Y18919D01*
G01X16428Y18922D01*
G01X16389Y18923D01*
G01X16349Y18920D01*
G01X16310Y18913D01*
G01X16272Y18902D01*
G01X16236Y18888D01*
G01X16200Y18870D01*
G01X16167Y18848D01*
G01X16136Y18824D01*
G01X16108Y18796D01*
G01X16083Y18766D01*
G01X16060Y18733D01*
G01X16041Y18698D01*
G01X16026Y18662D01*
G01X16014Y18624D01*
G01X16007Y18586D01*
G01X16003Y18546D01*
G01X16003Y18507D01*
G01X16007Y18467D01*
G01X16014Y18429D01*
G01X16026Y18391D01*
G01X16041Y18355D01*
G01X16060Y18320D01*
G01X16083Y18287D01*
G01X16108Y18257D01*
G01X16136Y18229D01*
G01X16167Y18205D01*
G01X16200Y18183D01*
G01X16236Y18165D01*
G01X16272Y18151D01*
G01X16310Y18140D01*
G01X16349Y18133D01*
G01X16389Y18130D01*
G01X16428Y18131D01*
G01X16467Y18136D01*
G01X16506Y18145D01*
G01X16543Y18158D01*
G01X16579Y18174D01*
G01X16614Y18194D01*
G01X16646Y18217D01*
G01X16675Y18243D01*
G01X16702Y18272D01*
G01X16726Y18303D01*
G01X16747Y18337D01*
G01X16764Y18373D01*
G01X16777Y18410D01*
G01X16787Y18448D01*
G01X16793Y18487D01*
G01X16795Y18527D01*
G01X16793Y18566D01*
G01X16787Y18605D01*
G01X16777Y18643D01*
G01X16764Y18680D01*
G01X16747Y18716D01*
G01X16726Y18750D01*
G01X16702Y18781D01*
G01X16700Y18784D01*
G01X16917Y18784D01*
G01X16916Y18781D01*
G01X16913Y18777D01*
G01X16910Y18772D01*
G01X16907Y18767D01*
G01X16905Y18762D01*
G01X16903Y18757D01*
G01X16901Y18752D01*
G01X16899Y18747D01*
G01X16897Y18742D01*
G01X16895Y18737D01*
G01X16894Y18731D01*
G01X16893Y18726D01*
G01X16892Y18721D01*
G01X16891Y18715D01*
G01X16890Y18710D01*
G01X16890Y18704D01*
G01X16890Y18699D01*
G01X16889Y18694D01*
G01X16889Y17067D01*
G01X16889Y17068D01*
G01X16870Y17081D01*
G01X16851Y17092D01*
G01X16831Y17101D01*
G01X16810Y17108D01*
G01X16788Y17113D01*
G01X16766Y17116D01*
G01X16752Y17116D01*
G01X16750Y17118D01*
G01X16746Y17121D01*
G01X16742Y17124D01*
G01X16737Y17127D01*
G01X16733Y17130D01*
G01X16728Y17133D01*
G01X16723Y17136D01*
G01X16718Y17138D01*
G01X16713Y17140D01*
G01X16708Y17142D01*
G01X16703Y17144D01*
G01X16698Y17146D01*
G01X16693Y17148D01*
G01X16687Y17149D01*
G01X16682Y17150D01*
G01X16677Y17151D01*
G01X16671Y17152D01*
G01X16666Y17153D01*
G01X16660Y17153D01*
G01X16655Y17153D01*
G01X16650Y17153D01*
G01X13200Y17153D01*
G01X13194Y17153D01*
G01X13189Y17153D01*
G01X13183Y17153D01*
G01X13178Y17152D01*
G01X13172Y17151D01*
G01X13167Y17150D01*
G01X13162Y17149D01*
G01X13156Y17148D01*
G01X13151Y17146D01*
G01X13146Y17144D01*
G01X13141Y17142D01*
G01X13136Y17140D01*
G01X13131Y17138D01*
G01X13126Y17136D01*
G01X13121Y17133D01*
G01X13116Y17130D01*
G01X13112Y17127D01*
G01X13107Y17124D01*
G01X13103Y17121D01*
G01X13099Y17118D01*
G01X13094Y17114D01*
G01X13090Y17110D01*
G01X13086Y17107D01*
G01X13031Y17051D01*
G01X13030Y17051D01*
G01X13008Y17045D01*
G01X12988Y17037D01*
G01X12968Y17027D01*
G01X12949Y17015D01*
G01X12932Y17001D01*
G01X12916Y16985D01*
G01X12902Y16968D01*
G01X12889Y16950D01*
G01X12879Y16930D01*
G01X12870Y16910D01*
G01X12863Y16889D01*
G01X12859Y16867D01*
G01X12857Y16845D01*
G01X12857Y16822D01*
G01X12859Y16800D01*
G01X12863Y16778D01*
G01X12870Y16757D01*
G01X12879Y16737D01*
G01X12889Y16717D01*
G01X12902Y16699D01*
G01X12916Y16682D01*
G01X12932Y16666D01*
G01X12949Y16652D01*
G01X12968Y16640D01*
G01X12988Y16630D01*
G01X13008Y16622D01*
G01X13030Y16616D01*
G01X13052Y16612D01*
G01X13074Y16611D01*
G01X13096Y16611D01*
G01X13118Y16614D01*
G01X13140Y16619D01*
G01X13161Y16626D01*
G01X13181Y16635D01*
G01X13200Y16646D01*
G01X13219Y16659D01*
G01X13235Y16674D01*
G01X13250Y16690D01*
G01X13264Y16708D01*
G01X13275Y16727D01*
G01X13285Y16747D01*
G01X13293Y16768D01*
G01X13298Y16789D01*
G01X13301Y16811D01*
G01X13302Y16834D01*
G01X16535Y16834D01*
G01X16540Y16817D01*
G01X16549Y16797D01*
G01X16559Y16777D01*
G01X16572Y16759D01*
G01X16586Y16742D01*
G01X16602Y16726D01*
G01X16619Y16712D01*
G01X16638Y16700D01*
G01X16658Y16690D01*
G01X16678Y16682D01*
G01X16700Y16676D01*
G01X16722Y16672D01*
G01X16744Y16671D01*
G01X16766Y16671D01*
G01X16788Y16674D01*
G01X16810Y16679D01*
G01X16831Y16686D01*
G01X16851Y16695D01*
G01X16870Y16706D01*
G01X16889Y16719D01*
G01X16889Y16720D01*
G01X16889Y16110D01*
G01X16796Y16016D01*
G01X16794Y16016D01*
G01X16772Y16015D01*
G01X16750Y16011D01*
G01X16728Y16005D01*
G01X16708Y15997D01*
G01X16688Y15987D01*
G01X16669Y15975D01*
G01X16652Y15961D01*
G01X16636Y15945D01*
G01X16622Y15928D01*
G01X16609Y15910D01*
G01X16599Y15890D01*
G01X16590Y15870D01*
G01X16583Y15849D01*
G01X16579Y15827D01*
G01X16577Y15805D01*
G01X16577Y15782D01*
G01X16579Y15760D01*
G01X16583Y15738D01*
G01X16590Y15717D01*
G01X16599Y15697D01*
G01X16609Y15677D01*
G01X16622Y15659D01*
G01X16636Y15642D01*
G01X16652Y15626D01*
G01X16669Y15612D01*
G01X16688Y15600D01*
G01X16708Y15590D01*
G01X16728Y15582D01*
G01X16750Y15576D01*
G01X16772Y15572D01*
G37*

%LPD*%
G54D14*
G01X10250Y12094D02*
G01X12200Y12094D01*
G54D12*
G01X16400Y11394D02*
G01X18200Y11394D01*
G01X18400Y11194D01*
G01X18400Y10594D01*
G01X18500Y10494D01*
G01X19150Y10494D01*
G01X19250Y10394D01*
G01X19250Y9344D01*
G01X19150Y9244D01*
G01X18650Y9244D01*
G54D13*
G01X8880Y19184D02*
G01X8880Y19184D01*
G01X8400Y19663D01*
G01X8400Y19663D02*
G01X8309Y19753D01*
G01X8309Y20003D01*
G54D12*
G01X19779Y18883D02*
G01X17239Y18883D01*
G01X17050Y18694D01*
G01X17050Y16044D01*
G01X16800Y15794D01*
G01X11782Y19713D02*
G01X10280Y19713D01*
G01X9450Y20544D01*
G01X7950Y20544D01*
G01X7500Y20094D01*
G54D13*
G01X11000Y10844D02*
G01X11750Y10844D01*
G01X11850Y10944D01*
G01X11850Y11344D01*
G01X11980Y11474D01*
G01X12869Y11474D01*
G01X12969Y11574D01*
G54D12*
G01X18900Y16294D02*
G01X18900Y13644D01*
G01X18900Y11894D01*
G01X19050Y11744D01*
G01X19700Y11744D01*
G01X19950Y11494D01*
G01X19950Y10975D01*
G01X19950Y9844D01*
G01X20250Y9544D01*
G01X20250Y9194D01*
G54D14*
G01X17200Y12644D02*
G01X16950Y12394D01*
G01X16050Y12394D01*
G01X15850Y12194D01*
G01X15850Y11794D01*
G01X15500Y11444D01*
G01X15500Y9194D01*
G01X15400Y9094D01*
G01X12600Y9094D01*
G01X12350Y8844D01*
G01X9719Y8844D01*
G01X9230Y8353D01*
G01X15860Y10403D02*
G01X16550Y11094D01*
G01X17500Y11094D01*
G01X15860Y10403D02*
G01X15860Y9053D01*
G01X15600Y8794D01*
G01X14350Y8794D01*
G54D18*
G01X6571Y6922D02*
G01X6571Y7465D01*
G01X7600Y8494D01*
G54D15*
G01X9200Y16453D02*
G01X8709Y16453D01*
G01X8300Y16044D01*
G01X8300Y12394D01*
G01X8450Y12244D01*
G01X9050Y12244D01*
G01X9300Y11994D01*
G01X9300Y10194D01*
G01X7600Y8494D01*
G54D13*
G01X18206Y12044D02*
G01X18500Y12044D01*
G01X18650Y11894D01*
G01X18650Y11574D01*
G01X18800Y11424D01*
G01X19469Y11424D01*
G01X19600Y11303D01*
G01X19600Y10594D01*
G54D12*
G01X13080Y16834D02*
G01X13080Y16874D01*
G01X13200Y16994D01*
G01X16650Y16994D01*
G01X16750Y16894D01*
G54D18*
G01X12450Y19874D02*
G01X12830Y19874D01*
G01X13180Y20224D01*
G01X21100Y20224D01*
G01X21100Y20244D01*
G54D12*
G01X11782Y19713D02*
G01X11930Y19713D01*
G01X12100Y19544D01*
G01X12100Y19544D02*
G01X13300Y19544D01*
G01X13300Y19544D02*
G01X13450Y19394D01*
G01X13450Y18944D01*
G01X13650Y18744D01*
G01X17950Y19144D02*
G01X17200Y19144D01*
G01X17000Y18944D01*
G01X16650Y18944D01*
G01X16550Y19044D01*
G01X16550Y19044D02*
G01X16300Y19294D01*
G01X14500Y19294D01*
G01X13950Y18744D01*
G01X13650Y18744D01*
G01X18300Y16494D02*
G01X18700Y16494D01*
G01X18825Y16369D01*
G01X18900Y16294D01*
G54D11*
G01X17950Y16544D02*
G01X17950Y18444D01*
G54D12*
G01X17950Y16544D02*
G01X17950Y16394D01*
G01X17750Y16194D01*
G01X17750Y15344D01*
G01X17400Y14994D01*
G54D44*
G01X19550Y16594D03*
G54D45*
G01X19550Y15594D03*
G01X19550Y12494D03*
G01X19550Y13494D03*
G54D44*
G01X19550Y14494D03*
G01X8750Y10594D03*
G54D45*
G01X8750Y11594D03*
G54D46*
G01X21422Y6765D03*
G01X21777Y7122D03*
G01X6571Y6922D03*
G01X6928Y6565D03*
G01X22427Y22315D03*
G01X22072Y22672D03*
G01X6228Y22572D03*
G01X5871Y22215D03*
G54D47*
G01X9200Y16453D03*
G01X9200Y17234D03*
G54D48*
G01X16398Y18527D03*
G01X14493Y18527D03*
G54D23*
G01X10000Y14594D03*
G01X9705Y14790D03*
G01X9705Y14397D03*
G01X10294Y14397D03*
G01X10294Y14790D03*
G01X11250Y18744D03*
G01X11052Y18449D03*
G01X11447Y18449D03*
G01X11447Y19038D03*
G01X11052Y19038D03*
G54D24*
G01X12200Y12094D03*
G01X16400Y11394D03*
G01X18650Y9244D03*
G01X8880Y19184D03*
G01X8650Y18544D03*
G01X8650Y18244D03*
G01X8650Y18844D03*
G01X8950Y18244D03*
G01X9250Y18244D03*
G01X8950Y18544D03*
G01X9550Y18244D03*
G01X9850Y18244D03*
G01X19780Y18884D03*
G01X16800Y15794D03*
G01X11050Y14844D03*
G01X11050Y14544D03*
G01X13000Y15524D03*
G01X13300Y15524D03*
G01X13600Y15524D03*
G01X13900Y15524D03*
G01X14200Y15524D03*
G01X14500Y15524D03*
G01X14800Y15524D03*
G01X15100Y15524D03*
G01X13000Y15224D03*
G01X13300Y15224D03*
G01X13600Y15224D03*
G01X13900Y15224D03*
G01X14200Y15224D03*
G01X14500Y15224D03*
G01X14800Y15224D03*
G01X15100Y15224D03*
G01X13000Y14924D03*
G01X13300Y14924D03*
G01X13600Y14924D03*
G01X13900Y14924D03*
G01X14200Y14924D03*
G01X14500Y14924D03*
G01X14800Y14924D03*
G01X15100Y14924D03*
G01X13000Y14624D03*
G01X13300Y14624D03*
G01X13600Y14624D03*
G01X13900Y14624D03*
G01X14200Y14624D03*
G01X14500Y14624D03*
G01X14800Y14624D03*
G01X15100Y14624D03*
G01X13000Y14324D03*
G01X13300Y14324D03*
G01X13600Y14324D03*
G01X13900Y14324D03*
G01X14200Y14324D03*
G01X14500Y14324D03*
G01X14800Y14324D03*
G01X15100Y14324D03*
G01X13000Y14024D03*
G01X13300Y14024D03*
G01X13600Y14024D03*
G01X13900Y14024D03*
G01X14200Y14024D03*
G01X14500Y14024D03*
G01X14800Y14024D03*
G01X15100Y14024D03*
G01X13000Y13724D03*
G01X13300Y13724D03*
G01X13600Y13724D03*
G01X13900Y13724D03*
G01X14200Y13724D03*
G01X14500Y13724D03*
G01X14800Y13724D03*
G01X15100Y13724D03*
G01X13000Y13424D03*
G01X13300Y13424D03*
G01X13600Y13424D03*
G01X13900Y13424D03*
G01X14200Y13424D03*
G01X14500Y13424D03*
G01X14800Y13424D03*
G01X15100Y13424D03*
G01X13650Y18224D03*
G01X15950Y16394D03*
G01X15950Y16694D03*
G01X16250Y16694D03*
G01X7500Y20094D03*
G01X8309Y20003D03*
G01X12969Y11574D03*
G01X11000Y10844D03*
G01X9230Y8353D03*
G01X20250Y9194D03*
G01X17200Y12644D03*
G01X15860Y10403D03*
G01X17500Y11094D03*
G01X14350Y8794D03*
G01X10250Y12094D03*
G01X18206Y12044D03*
G01X19600Y10594D03*
G01X13080Y16834D03*
G01X16750Y16894D03*
G01X16250Y16394D03*
G01X16250Y17294D03*
G01X12450Y19874D03*
G01X21100Y20244D03*
G01X13660Y18494D03*
G01X17950Y19144D03*
G01X17850Y8644D03*
G01X18100Y8644D03*
G01X18350Y8644D03*
G01X18200Y12644D03*
G01X18300Y16844D03*
G01X18300Y17144D03*
G01X18300Y17444D03*
G01X9700Y10544D03*
G01X9950Y10544D03*
G01X10200Y10544D03*
G01X21000Y19494D03*
G01X21200Y19694D03*
G01X21400Y19894D03*
G01X11250Y16944D03*
G01X13389Y11653D03*
G01X15160Y10524D03*
G01X15200Y10094D03*
G01X15150Y10994D03*
G01X18980Y11044D03*
G01X19250Y11044D03*
G01X12769Y16574D03*
G01X13130Y9544D03*
G01X13760Y9544D03*
G01X18300Y16494D03*
G01X17950Y18444D03*
G01X17395Y14998D03*
G01X6200Y20744D03*
G01X6400Y20544D03*
G01X7669Y20953D03*
G01X19980Y8374D03*
G01X8380Y8563D03*
G01X11550Y8444D03*
G01X10050Y8444D03*
G54D49*
G01X14025Y19412D02*
G01X14025Y19767D01*
G01X16875Y19412D02*
G01X16875Y19767D01*
M00*
M02*
