;PTH Drill file created by EasyEDA 
M48
INCH,LZ
;Holesize 1 = 0.008 INCH
T01C0.008
;Holesize 2 = 0.012 INCH
T02C0.012
;Holesize 3 = 0.024 INCH
T03C0.024
;Holesize 4 = 0.028 INCH
T04C0.028
;Holesize 5 = 0.032 INCH
T05C0.032
;Holesize 6 = 0.035 INCH
T06C0.035
;Holesize 7 = 0.035 INCH
T07C0.035
%
G05
G90
T01
X010000Y014594
X009705Y014790
X009705Y014397
X010294Y014397
X010294Y014790
X011250Y018744
X011052Y018449
X011447Y018449
X011447Y019038
X011052Y019038
T02
X012200Y012094
X016400Y011394
X018650Y009244
X008880Y019184
X008650Y018544
X008650Y018244
X008650Y018844
X008950Y018244
X009250Y018244
X008950Y018544
X009550Y018244
X009850Y018244
X019780Y018884
X016800Y015794
X011050Y014844
X011050Y014544
X013000Y015524
X013300Y015524
X013600Y015524
X013900Y015524
X014200Y015524
X014500Y015524
X014800Y015524
X015100Y015524
X013000Y015224
X013300Y015224
X013600Y015224
X013900Y015224
X014200Y015224
X014500Y015224
X014800Y015224
X015100Y015224
X013000Y014924
X013300Y014924
X013600Y014924
X013900Y014924
X014200Y014924
X014500Y014924
X014800Y014924
X015100Y014924
X013000Y014624
X013300Y014624
X013600Y014624
X013900Y014624
X014200Y014624
X014500Y014624
X014800Y014624
X015100Y014624
X013000Y014324
X013300Y014324
X013600Y014324
X013900Y014324
X014200Y014324
X014500Y014324
X014800Y014324
X015100Y014324
X013000Y014024
X013300Y014024
X013600Y014024
X013900Y014024
X014200Y014024
X014500Y014024
X014800Y014024
X015100Y014024
X013000Y013724
X013300Y013724
X013600Y013724
X013900Y013724
X014200Y013724
X014500Y013724
X014800Y013724
X015100Y013724
X013000Y013424
X013300Y013424
X013600Y013424
X013900Y013424
X014200Y013424
X014500Y013424
X014800Y013424
X015100Y013424
X013650Y018224
X015950Y016394
X015950Y016694
X016250Y016694
X007500Y020094
X008309Y020003
X012969Y011574
X011000Y010844
X009230Y008353
X020250Y009194
X017200Y012644
X015860Y010403
X017500Y011094
X014350Y008794
X010250Y012094
X018206Y012044
X019600Y010594
X013080Y016834
X016750Y016894
X016250Y016394
X016250Y017294
X012450Y019874
X021100Y020244
X013660Y018494
X017950Y019144
X017850Y008644
X018100Y008644
X018350Y008644
X018200Y012644
X018300Y016844
X018300Y017144
X018300Y017444
X009700Y010544
X009950Y010544
X010200Y010544
X021000Y019494
X021200Y019694
X021400Y019894
X011250Y016944
X013389Y011653
X015160Y010524
X015200Y010094
X015150Y010994
X018980Y011044
X019250Y011044
X012769Y016574
X013130Y009544
X013760Y009544
X018300Y016494
X017950Y018444
X017395Y014998
X006200Y020744
X006400Y020544
X007669Y020953
X019980Y008374
X008380Y008563
X011550Y008444
X010050Y008444
T03
X021422Y006765
X021777Y007122
X006571Y006922
X006928Y006565
X022427Y022315
X022072Y022672
X006228Y022572
X005871Y022215
T04
X014025Y019747G85X014025Y019432
X016875Y019747G85X016875Y019432
T05
X009200Y016453
X009200Y017234
T06
X019550Y016594
X019550Y015594
X019550Y012494
X019550Y013494
X019550Y014494
X008750Y010594
X008750Y011594
T07
X016398Y018527
X014493Y018527
M30
